<?xml version="1.0" encoding="utf-8" standalone="no"?>
<!DOCTYPE svg PUBLIC "-//W3C//DTD SVG 1.1//EN"
  "http://www.w3.org/Graphics/SVG/1.1/DTD/svg11.dtd">
<!-- Created with matplotlib (https://matplotlib.org/) -->
<svg height="485.40154pt" version="1.1" viewBox="0 0 508.739375 485.40154" width="508.739375pt" xmlns="http://www.w3.org/2000/svg" xmlns:xlink="http://www.w3.org/1999/xlink">
 <metadata>
  <rdf:RDF xmlns:cc="http://creativecommons.org/ns#" xmlns:dc="http://purl.org/dc/elements/1.1/" xmlns:rdf="http://www.w3.org/1999/02/22-rdf-syntax-ns#">
   <cc:Work>
    <dc:type rdf:resource="http://purl.org/dc/dcmitype/StillImage"/>
    <dc:date>2020-10-04T17:40:27.325908</dc:date>
    <dc:format>image/svg+xml</dc:format>
    <dc:creator>
     <cc:Agent>
      <dc:title>Matplotlib v3.3.1, https://matplotlib.org/</dc:title>
     </cc:Agent>
    </dc:creator>
   </cc:Work>
  </rdf:RDF>
 </metadata>
 <defs>
  <style type="text/css">*{stroke-linecap:butt;stroke-linejoin:round;}</style>
 </defs>
 <g id="figure_1">
  <g id="patch_1">
   <path d="M 0 485.40154 
L 508.739375 485.40154 
L 508.739375 0 
L 0 0 
z
" style="fill:none;"/>
  </g>
  <g id="axes_1">
   <g id="patch_2">
    <path d="M 55.139375 206.766767 
L 501.539375 206.766767 
L 501.539375 9.09404 
L 55.139375 9.09404 
z
" style="fill:#ffffff;"/>
   </g>
   <g id="PolyCollection_1">
    <path clip-path="url(#p2a020227f0)" d="M 75.430284 70.38371 
L 75.430284 122.100111 
L 75.836508 121.232709 
L 76.242733 120.366029 
L 76.648957 119.498947 
L 77.055182 118.633568 
L 77.461406 117.770449 
L 77.867631 116.911263 
L 78.273855 116.056894 
L 78.680079 115.208873 
L 79.086304 114.369429 
L 79.492528 113.540814 
L 79.898753 112.724071 
L 80.304977 111.923287 
L 80.711201 111.143242 
L 81.117426 110.384243 
L 81.52365 109.652217 
L 81.929875 108.953089 
L 82.336099 108.292264 
L 82.742323 107.677591 
L 83.148548 107.115976 
L 83.554772 106.616312 
L 83.960997 106.188599 
L 84.367221 105.842311 
L 84.773445 105.585722 
L 85.17967 105.425105 
L 85.585894 105.363728 
L 85.992119 105.405548 
L 86.398343 105.548852 
L 86.804567 105.786968 
L 87.210792 106.115952 
L 87.617016 106.524945 
L 88.023241 107.005003 
L 88.429465 107.547034 
L 88.835689 108.144792 
L 89.241914 108.786851 
L 89.648138 109.466288 
L 90.054363 110.179348 
L 90.460587 110.91862 
L 90.866812 111.680986 
L 91.273036 112.462517 
L 91.67926 113.259363 
L 92.085485 114.068599 
L 92.491709 114.888542 
L 92.897934 115.716447 
L 93.304158 116.552152 
L 93.710382 117.391477 
L 94.116607 118.234164 
L 94.522831 119.079487 
L 94.929056 119.925961 
L 95.33528 120.773077 
L 95.741504 121.619609 
L 96.147729 122.465264 
L 96.553953 123.308982 
L 96.960178 124.150151 
L 97.366402 124.989308 
L 97.772626 125.824279 
L 98.178851 126.65561 
L 98.585075 127.482653 
L 98.9913 128.304999 
L 99.397524 129.122656 
L 99.803748 129.935292 
L 100.209973 130.742342 
L 100.616197 131.543619 
L 101.022422 132.338825 
L 101.428646 133.128517 
L 101.83487 133.911562 
L 102.241095 134.687928 
L 102.647319 135.457566 
L 103.053544 136.220258 
L 103.459768 136.976134 
L 103.865993 137.7252 
L 104.272217 138.466606 
L 104.678441 139.200991 
L 105.084666 139.927855 
L 105.49089 140.647318 
L 105.897115 141.359116 
L 106.303339 142.063045 
L 106.709563 142.759484 
L 107.115788 143.448221 
L 107.522012 144.129073 
L 107.928237 144.801825 
L 108.334461 145.466885 
L 108.740685 146.123925 
L 109.14691 146.772924 
L 109.553134 147.413884 
L 109.959359 148.046981 
L 110.365583 148.671994 
L 110.771807 149.288881 
L 111.178032 149.897671 
L 111.584256 150.498355 
L 111.990481 151.091153 
L 112.396705 151.675831 
L 112.802929 152.252412 
L 113.209154 152.820909 
L 113.615378 153.381356 
L 114.021603 153.93374 
L 114.427827 154.478451 
L 114.834051 155.01498 
L 115.240276 155.543519 
L 115.6465 156.064095 
L 116.052725 156.576917 
L 116.458949 157.081834 
L 116.865174 157.578884 
L 117.271398 158.068107 
L 117.677622 158.549689 
L 118.083847 159.023497 
L 118.490071 159.489598 
L 118.896296 159.948034 
L 119.30252 160.398827 
L 119.708744 160.842091 
L 120.114969 161.277947 
L 120.521193 161.706233 
L 120.927418 162.127067 
L 121.333642 162.540503 
L 121.739866 162.946703 
L 122.146091 163.345583 
L 122.552315 163.737212 
L 122.95854 164.121627 
L 123.364764 164.498953 
L 123.770988 164.869166 
L 124.177213 165.232426 
L 124.583437 165.588638 
L 124.989662 165.937957 
L 125.395886 166.280329 
L 125.80211 166.615953 
L 126.208335 166.944782 
L 126.614559 167.266884 
L 127.020784 167.58239 
L 127.427008 167.891202 
L 127.833232 168.193498 
L 128.239457 168.48928 
L 128.645681 168.778636 
L 129.051906 169.061592 
L 129.45813 169.338136 
L 129.864355 169.608452 
L 130.270579 169.872513 
L 130.676803 170.130442 
L 131.083028 170.382149 
L 131.489252 170.627828 
L 131.895477 170.867459 
L 132.301701 171.101092 
L 132.707925 171.328818 
L 133.11415 171.550655 
L 133.520374 171.766624 
L 133.926599 171.976844 
L 134.332823 172.181308 
L 134.739047 172.380109 
L 135.145272 172.573276 
L 135.551496 172.760801 
L 135.957721 172.942811 
L 136.363945 173.119286 
L 136.770169 173.290347 
L 137.176394 173.455953 
L 137.582618 173.616202 
L 137.988843 173.77112 
L 138.395067 173.920735 
L 138.801291 174.065102 
L 139.207516 174.204282 
L 139.61374 174.338262 
L 140.019965 174.467125 
L 140.426189 174.590893 
L 140.832413 174.709607 
L 141.238638 174.823308 
L 141.644862 174.932017 
L 142.051087 175.035759 
L 142.457311 175.134598 
L 142.863536 175.228534 
L 143.26976 175.317639 
L 143.675984 175.401904 
L 144.082209 175.481388 
L 144.488433 175.556103 
L 144.894658 175.626061 
L 145.300882 175.691334 
L 145.707106 175.751912 
L 146.113331 175.807834 
L 146.519555 175.859109 
L 146.92578 175.905787 
L 147.332004 175.947866 
L 147.738228 175.985381 
L 148.144453 176.018336 
L 148.550677 176.046782 
L 148.956902 176.070707 
L 149.363126 176.090145 
L 149.76935 176.105117 
L 150.175575 176.115603 
L 150.581799 176.121667 
L 150.988024 176.123277 
L 151.394248 176.12049 
L 151.800472 176.113294 
L 152.206697 176.101691 
L 152.612921 176.085697 
L 153.019146 176.06535 
L 153.42537 176.040605 
L 153.831594 176.011516 
L 154.237819 175.978072 
L 154.644043 175.940272 
L 155.050268 175.898133 
L 155.456492 175.85163 
L 155.862717 175.800789 
L 156.268941 175.745625 
L 156.675165 175.686116 
L 157.08139 175.622267 
L 157.487614 175.554074 
L 157.893839 175.481545 
L 158.300063 175.404673 
L 158.706287 175.323433 
L 159.112512 175.237852 
L 159.518736 175.147915 
L 159.924961 175.053616 
L 160.331185 174.954929 
L 160.737409 174.851865 
L 161.143634 174.744409 
L 161.549858 174.632562 
L 161.956083 174.516282 
L 162.362307 174.395607 
L 162.768531 174.270485 
L 163.174756 174.140905 
L 163.58098 174.006878 
L 163.987205 173.86837 
L 164.393429 173.725369 
L 164.799653 173.577873 
L 165.205878 173.425834 
L 165.612102 173.269266 
L 166.018327 173.108147 
L 166.424551 172.942446 
L 166.830775 172.772151 
L 167.237 172.597227 
L 167.643224 172.41768 
L 168.049449 172.233474 
L 168.455673 172.044591 
L 168.861898 171.851011 
L 169.268122 171.652706 
L 169.674346 171.449662 
L 170.080571 171.241841 
L 170.486795 171.029224 
L 170.89302 170.81179 
L 171.299244 170.589534 
L 171.705468 170.362396 
L 172.111693 170.130359 
L 172.517917 169.89341 
L 172.924142 169.651529 
L 173.330366 169.404671 
L 173.73659 169.152821 
L 174.142815 168.895944 
L 174.549039 168.634016 
L 174.955264 168.366995 
L 175.361488 168.094905 
L 175.767712 167.817663 
L 176.173937 167.535278 
L 176.580161 167.247693 
L 176.986386 166.954905 
L 177.39261 166.65687 
L 177.798834 166.35357 
L 178.205059 166.044993 
L 178.611283 165.731089 
L 179.017508 165.411836 
L 179.423732 165.087203 
L 179.829956 164.757188 
L 180.236181 164.421754 
L 180.642405 164.080862 
L 181.04863 163.734485 
L 181.454854 163.382628 
L 181.861079 163.025257 
L 182.267303 162.662348 
L 182.673527 162.293859 
L 183.079752 161.919804 
L 183.485976 161.540134 
L 183.892201 161.154845 
L 184.298425 160.763905 
L 184.704649 160.367316 
L 185.110874 159.965029 
L 185.517098 159.557064 
L 185.923323 159.143387 
L 186.329547 158.723983 
L 186.735771 158.298843 
L 187.141996 157.867949 
L 187.54822 157.431337 
L 187.954445 156.988944 
L 188.360669 156.540786 
L 188.766893 156.086852 
L 189.173118 155.627178 
L 189.579342 155.161716 
L 189.985567 154.690477 
L 190.391791 154.21346 
L 190.798015 153.730702 
L 191.20424 153.242156 
L 191.610464 152.74787 
L 192.016689 152.247872 
L 192.422913 151.742147 
L 192.829137 151.23074 
L 193.235362 150.713616 
L 193.641586 150.190862 
L 194.047811 149.662463 
L 194.454035 149.128439 
L 194.86026 148.588882 
L 195.266484 148.043781 
L 195.672708 147.493142 
L 196.078933 146.937107 
L 196.485157 146.375629 
L 196.891382 145.808796 
L 197.297606 145.236669 
L 197.70383 144.659279 
L 198.110055 144.076714 
L 198.516279 143.489011 
L 198.922504 142.896245 
L 199.328728 142.298574 
L 199.734952 141.69594 
L 200.141177 141.088514 
L 200.547401 140.476406 
L 200.953626 139.859641 
L 201.35985 139.238399 
L 201.766074 138.612715 
L 202.172299 137.982752 
L 202.578523 137.348555 
L 202.984748 136.710373 
L 203.390972 136.068219 
L 203.797196 135.422321 
L 204.203421 134.772772 
L 204.609645 134.119791 
L 205.01587 133.46344 
L 205.422094 132.803981 
L 205.828318 132.141525 
L 206.234543 131.476284 
L 206.640767 130.808562 
L 207.046992 130.138407 
L 207.453216 129.466027 
L 207.859441 128.791866 
L 208.265665 128.115959 
L 208.671889 127.438578 
L 209.078114 126.7601 
L 209.484338 126.080728 
L 209.890563 125.400735 
L 210.296787 124.720504 
L 210.703011 124.040289 
L 211.109236 123.360406 
L 211.51546 122.681271 
L 211.921685 122.003308 
L 212.327909 121.326839 
L 212.734133 120.652268 
L 213.140358 119.980137 
L 213.546582 119.310859 
L 213.952807 118.644881 
L 214.359031 117.982817 
L 214.765255 117.325289 
L 215.17148 116.672825 
L 215.577704 116.026075 
L 215.983929 115.385882 
L 216.390153 114.752793 
L 216.796377 114.127782 
L 217.202602 113.511791 
L 217.608826 112.905675 
L 218.015051 112.310475 
L 218.421275 111.727542 
L 218.827499 111.158181 
L 219.233724 110.603519 
L 219.639948 110.065359 
L 220.046173 109.545502 
L 220.452397 109.045715 
L 220.858622 108.568332 
L 221.264846 108.11581 
L 221.67107 107.690822 
L 222.077295 107.296314 
L 222.483519 106.935757 
L 222.889744 106.612814 
L 223.295968 106.331523 
L 223.702192 106.096077 
L 224.108417 105.910929 
L 224.514641 105.780964 
L 224.920866 105.710167 
L 225.32709 105.702828 
L 225.733314 105.762387 
L 226.139539 105.891206 
L 226.545763 106.090245 
L 226.951988 106.359761 
L 227.358212 106.697665 
L 227.764436 107.101298 
L 228.170661 107.566321 
L 228.576885 108.087711 
L 228.98311 108.659978 
L 229.389334 109.277702 
L 229.795558 109.934784 
L 230.201783 110.625964 
L 230.608007 111.345979 
L 231.014232 112.09027 
L 231.420456 112.85431 
L 231.82668 113.634324 
L 232.232905 114.426812 
L 232.639129 115.228623 
L 233.045354 116.037215 
L 233.451578 116.849823 
L 233.857803 117.664372 
L 234.264027 118.478951 
L 234.670251 119.29166 
L 235.076476 120.100978 
L 235.4827 120.905473 
L 235.888925 121.703775 
L 236.295149 122.494703 
L 236.701373 123.277323 
L 237.107598 124.050502 
L 237.513822 124.81334 
L 237.920047 125.564919 
L 238.326271 126.304554 
L 238.732495 127.031508 
L 239.13872 127.745093 
L 239.544944 128.444681 
L 239.951169 129.129587 
L 240.357393 129.799338 
L 240.763617 130.453497 
L 241.169842 131.091471 
L 241.576066 131.712818 
L 241.982291 132.317114 
L 242.388515 132.904006 
L 242.794739 133.473101 
L 243.200964 134.024054 
L 243.607188 134.556466 
L 244.013413 135.070239 
L 244.419637 135.564854 
L 244.825861 136.040231 
L 245.232086 136.496062 
L 245.63831 136.932145 
L 246.044535 137.348335 
L 246.450759 137.744396 
L 246.856984 138.120241 
L 247.263208 138.475757 
L 247.669432 138.810857 
L 248.075657 139.125377 
L 248.481881 139.419341 
L 248.888106 139.692738 
L 249.29433 139.945606 
L 249.700554 140.177873 
L 250.106779 140.389728 
L 250.513003 140.58121 
L 250.919228 140.752462 
L 251.325452 140.90363 
L 251.731676 141.035029 
L 252.137901 141.146779 
L 252.544125 141.239284 
L 252.95035 141.312935 
L 253.356574 141.368104 
L 253.762798 141.405329 
L 254.169023 141.425052 
L 254.575247 141.428031 
L 254.981472 141.415048 
L 255.387696 141.386893 
L 255.79392 141.344522 
L 256.200145 141.289071 
L 256.606369 141.221982 
L 257.012594 141.144434 
L 257.418818 141.058356 
L 257.825042 140.965395 
L 258.231267 140.867966 
L 258.637491 140.76844 
L 259.043716 140.66979 
L 259.44994 140.575023 
L 259.856165 140.487945 
L 260.262389 140.41258 
L 260.668613 140.35348 
L 261.074838 140.315493 
L 261.481062 140.304045 
L 261.887287 140.324459 
L 262.293511 140.382471 
L 262.699735 140.483313 
L 263.10596 140.632062 
L 263.512184 140.832501 
L 263.918409 141.087496 
L 264.324633 141.398865 
L 264.730857 141.766408 
L 265.137082 142.189028 
L 265.543306 142.664509 
L 265.949531 143.189065 
L 266.355755 143.758808 
L 266.761979 144.369242 
L 267.168204 145.015974 
L 267.574428 145.694316 
L 267.980653 146.400275 
L 268.386877 147.129781 
L 268.793101 147.879134 
L 269.199326 148.645158 
L 269.60555 149.424835 
L 270.011775 150.215674 
L 270.417999 151.015208 
L 270.824223 151.821426 
L 271.230448 152.632485 
L 271.636672 153.446683 
L 272.042897 154.262677 
L 272.449121 155.079222 
L 272.855346 155.895044 
L 273.26157 156.709123 
L 273.667794 157.520661 
L 274.074019 158.328813 
L 274.480243 159.132721 
L 274.886468 159.931858 
L 275.292692 160.725579 
L 275.698916 161.513387 
L 276.105141 162.29481 
L 276.511365 163.069395 
L 276.91759 163.836711 
L 277.323814 164.596479 
L 277.730038 165.348314 
L 278.136263 166.092017 
L 278.542487 166.827287 
L 278.948712 167.553857 
L 279.354936 168.271558 
L 279.76116 168.980215 
L 280.167385 169.679664 
L 280.573609 170.36972 
L 280.979834 171.050334 
L 281.386058 171.721298 
L 281.792282 172.38259 
L 282.198507 173.034091 
L 282.604731 173.675728 
L 283.010956 174.307453 
L 283.41718 174.929248 
L 283.823404 175.541033 
L 284.229629 176.142796 
L 284.635853 176.734512 
L 285.042078 177.316207 
L 285.448302 177.887818 
L 285.854527 178.449433 
L 286.260751 179.001017 
L 286.666975 179.542567 
L 287.0732 180.074179 
L 287.479424 180.595833 
L 287.885649 181.107585 
L 288.291873 181.609486 
L 288.698097 182.101571 
L 289.104322 182.583904 
L 289.510546 183.056548 
L 289.916771 183.519556 
L 290.322995 183.973012 
L 290.729219 184.416965 
L 291.135444 184.851505 
L 291.541668 185.276698 
L 291.947893 185.692621 
L 292.354117 186.099368 
L 292.760341 186.497023 
L 293.166566 186.885675 
L 293.57279 187.265402 
L 293.979015 187.63631 
L 294.385239 187.998482 
L 294.791463 188.352026 
L 295.197688 188.697019 
L 295.603912 189.033585 
L 296.010137 189.361814 
L 296.416361 189.6818 
L 296.822585 189.993658 
L 297.22881 190.297487 
L 297.635034 190.593388 
L 298.041259 190.881457 
L 298.447483 191.161831 
L 298.853708 191.434604 
L 299.259932 191.699866 
L 299.666156 191.95773 
L 300.072381 192.208314 
L 300.478605 192.451719 
L 300.88483 192.688053 
L 301.291054 192.917428 
L 301.697278 193.139945 
L 302.103503 193.35573 
L 302.509727 193.564871 
L 302.915952 193.767487 
L 303.322176 193.963685 
L 303.7284 194.153578 
L 304.134625 194.337255 
L 304.540849 194.514835 
L 304.947074 194.686425 
L 305.353298 194.852126 
L 305.759522 195.012051 
L 306.165747 195.166301 
L 306.571971 195.314971 
L 306.978196 195.458186 
L 307.38442 195.596034 
L 307.790644 195.7286 
L 308.196869 195.856031 
L 308.603093 195.978369 
L 309.009318 196.095758 
L 309.415542 196.208291 
L 309.821766 196.316053 
L 310.227991 196.419132 
L 310.634215 196.517653 
L 311.04044 196.611693 
L 311.446664 196.701342 
L 311.852889 196.786706 
L 312.259113 196.867881 
L 312.665337 196.944931 
L 313.071562 197.017971 
L 313.477786 197.087094 
L 313.884011 197.152378 
L 314.290235 197.213895 
L 314.696459 197.271746 
L 315.102684 197.326019 
L 315.508908 197.376792 
L 315.915133 197.424153 
L 316.321357 197.468193 
L 316.727581 197.508959 
L 317.133806 197.546557 
L 317.54003 197.581071 
L 317.946255 197.612561 
L 318.352479 197.641103 
L 318.758703 197.666792 
L 319.164928 197.689677 
L 319.571152 197.709846 
L 319.977377 197.72737 
L 320.383601 197.742304 
L 320.789825 197.754741 
L 321.19605 197.764731 
L 321.602274 197.772355 
L 322.008499 197.777674 
L 322.414723 197.780746 
L 322.820947 197.781643 
L 323.227172 197.780425 
L 323.633396 197.777157 
L 324.039621 197.771897 
L 324.445845 197.764707 
L 324.85207 197.755633 
L 325.258294 197.744746 
L 325.664518 197.732118 
L 326.070743 197.717767 
L 326.476967 197.701776 
L 326.883192 197.684174 
L 327.289416 197.665039 
L 327.69564 197.644425 
L 328.101865 197.622348 
L 328.508089 197.598893 
L 328.914314 197.574089 
L 329.320538 197.547995 
L 329.726762 197.520636 
L 330.132987 197.492088 
L 330.539211 197.462376 
L 330.945436 197.431546 
L 331.35166 197.399652 
L 331.757884 197.366713 
L 332.164109 197.332805 
L 332.570333 197.297928 
L 332.976558 197.262149 
L 333.382782 197.225495 
L 333.789006 197.18801 
L 334.195231 197.149728 
L 334.601455 197.110686 
L 335.00768 197.070907 
L 335.413904 197.03045 
L 335.820128 196.989328 
L 336.226353 196.947576 
L 336.632577 196.905229 
L 337.038802 196.862324 
L 337.445026 196.818891 
L 337.851251 196.774946 
L 338.257475 196.730525 
L 338.663699 196.685659 
L 339.069924 196.640383 
L 339.476148 196.594715 
L 339.882373 196.548673 
L 340.288597 196.502291 
L 340.694821 196.455607 
L 341.101046 196.408613 
L 341.50727 196.36137 
L 341.913495 196.313872 
L 342.319719 196.266148 
L 342.725943 196.218227 
L 343.132168 196.170128 
L 343.538392 196.121863 
L 343.944617 196.073468 
L 344.350841 196.024953 
L 344.757065 195.976331 
L 345.16329 195.927626 
L 345.569514 195.878856 
L 345.975739 195.830038 
L 346.381963 195.781185 
L 346.788187 195.732326 
L 347.194412 195.683454 
L 347.600636 195.634601 
L 348.006861 195.585777 
L 348.413085 195.537001 
L 348.819309 195.488278 
L 349.225534 195.439633 
L 349.631758 195.391065 
L 350.037983 195.342598 
L 350.444207 195.294238 
L 350.850432 195.245996 
L 351.256656 195.197874 
L 351.66288 195.149906 
L 352.069105 195.10208 
L 352.475329 195.054433 
L 352.881554 195.006947 
L 353.287778 194.95965 
L 353.694002 194.912538 
L 354.100227 194.865616 
L 354.506451 194.818908 
L 354.912676 194.772402 
L 355.3189 194.726133 
L 355.725124 194.680091 
L 356.131349 194.634286 
L 356.537573 194.588719 
L 356.943798 194.543401 
L 357.350022 194.498345 
L 357.756246 194.453544 
L 358.162471 194.409011 
L 358.568695 194.364751 
L 358.97492 194.320777 
L 359.381144 194.277069 
L 359.787368 194.233653 
L 360.193593 194.190523 
L 360.599817 194.147701 
L 361.006042 194.105164 
L 361.412266 194.062943 
L 361.81849 194.021018 
L 362.224715 193.979397 
L 362.630939 193.938096 
L 363.037164 193.897105 
L 363.443388 193.856434 
L 363.849613 193.816079 
L 364.255837 193.776044 
L 364.662061 193.736336 
L 365.068286 193.696949 
L 365.47451 193.657889 
L 365.880735 193.619174 
L 366.286959 193.580761 
L 366.693183 193.542699 
L 367.099408 193.504953 
L 367.505632 193.46755 
L 367.911857 193.430487 
L 368.318081 193.39375 
L 368.724305 193.357346 
L 369.13053 193.321287 
L 369.536754 193.285549 
L 369.942979 193.250155 
L 370.349203 193.215095 
L 370.755427 193.180366 
L 371.161652 193.145983 
L 371.567876 193.111932 
L 371.974101 193.078215 
L 372.380325 193.04483 
L 372.786549 193.011777 
L 373.192774 192.979058 
L 373.598998 192.946671 
L 374.005223 192.914611 
L 374.411447 192.882896 
L 374.817671 192.851496 
L 375.223896 192.820428 
L 375.63012 192.789694 
L 376.036345 192.759268 
L 376.442569 192.729175 
L 376.848794 192.699415 
L 377.255018 192.66997 
L 377.661242 192.64084 
L 378.067467 192.612036 
L 378.473691 192.583548 
L 378.879916 192.555369 
L 379.28614 192.52751 
L 379.692364 192.499972 
L 380.098589 192.472732 
L 380.504813 192.4458 
L 380.911038 192.419184 
L 381.317262 192.392865 
L 381.723486 192.366848 
L 382.129711 192.341129 
L 382.535935 192.315719 
L 382.94216 192.290606 
L 383.348384 192.265778 
L 383.754608 192.241247 
L 384.160833 192.217014 
L 384.567057 192.193053 
L 384.973282 192.16939 
L 385.379506 192.146007 
L 385.78573 192.122908 
L 386.191955 192.100089 
L 386.598179 192.077549 
L 387.004404 192.055282 
L 387.410628 192.033283 
L 387.816852 192.011563 
L 388.223077 191.990105 
L 388.629301 191.968926 
L 389.035526 191.947984 
L 389.44175 191.927328 
L 389.847975 191.906921 
L 390.254199 191.886776 
L 390.660423 191.866881 
L 391.066648 191.847241 
L 391.472872 191.827856 
L 391.879097 191.808704 
L 392.285321 191.789806 
L 392.691545 191.771147 
L 393.09777 191.752731 
L 393.503994 191.734553 
L 393.910219 191.716612 
L 394.316443 191.698898 
L 394.722667 191.681421 
L 395.128892 191.66417 
L 395.535116 191.64715 
L 395.941341 191.630357 
L 396.347565 191.613771 
L 396.753789 191.597417 
L 397.160014 191.581283 
L 397.566238 191.565346 
L 397.972463 191.549634 
L 398.378687 191.53413 
L 398.784911 191.51884 
L 399.191136 191.503746 
L 399.59736 191.48886 
L 400.003585 191.474176 
L 400.409809 191.459688 
L 400.816033 191.445402 
L 401.222258 191.431312 
L 401.628482 191.417407 
L 402.034707 191.403697 
L 402.440931 191.390172 
L 402.847156 191.376831 
L 403.25338 191.363669 
L 403.659604 191.350702 
L 404.065829 191.337914 
L 404.472053 191.325304 
L 404.878278 191.312848 
L 405.284502 191.300583 
L 405.690726 191.288496 
L 406.096951 191.276569 
L 406.503175 191.264809 
L 406.9094 191.253221 
L 407.315624 191.241776 
L 407.721848 191.230509 
L 408.128073 191.219402 
L 408.534297 191.20845 
L 408.940522 191.197653 
L 409.346746 191.18701 
L 409.75297 191.176515 
L 410.159195 191.166163 
L 410.565419 191.155972 
L 410.971644 191.145923 
L 411.377868 191.136017 
L 411.784092 191.126253 
L 412.190317 191.116632 
L 412.596541 191.107142 
L 413.002766 191.097801 
L 413.40899 191.088584 
L 413.815214 191.079509 
L 414.221439 191.070566 
L 414.627663 191.061741 
L 415.033888 191.053053 
L 415.440112 191.04449 
L 415.846337 191.036058 
L 416.252561 191.027744 
L 416.658785 191.01955 
L 417.06501 191.01148 
L 417.471234 191.003523 
L 417.877459 190.99569 
L 418.283683 190.987959 
L 418.689907 190.980365 
L 419.096132 190.972865 
L 419.502356 190.965485 
L 419.908581 190.958217 
L 420.314805 190.951044 
L 420.721029 190.943985 
L 421.127254 190.937032 
L 421.533478 190.93018 
L 421.939703 190.923435 
L 422.345927 190.916786 
L 422.752151 190.910231 
L 423.158376 190.903777 
L 423.5646 190.897431 
L 423.970825 190.891167 
L 424.377049 190.885011 
L 424.783273 190.878926 
L 425.189498 190.872954 
L 425.595722 190.867065 
L 426.001947 190.861265 
L 426.408171 190.855548 
L 426.814395 190.849926 
L 427.22062 190.844382 
L 427.626844 190.838933 
L 428.033069 190.833549 
L 428.439293 190.82826 
L 428.845518 190.823042 
L 429.251742 190.81792 
L 429.657966 190.812869 
L 430.064191 190.807883 
L 430.470415 190.802981 
L 430.87664 190.798155 
L 431.282864 190.793401 
L 431.689088 190.788724 
L 432.095313 190.784119 
L 432.501537 190.779591 
L 432.907762 190.775122 
L 433.313986 190.770725 
L 433.72021 190.766398 
L 434.126435 190.762132 
L 434.532659 190.757936 
L 434.938884 190.7538 
L 435.345108 190.749724 
L 435.751332 190.745724 
L 436.157557 190.741785 
L 436.563781 190.737904 
L 436.970006 190.734083 
L 437.37623 190.730321 
L 437.782454 190.726613 
L 438.188679 190.722971 
L 438.594903 190.719381 
L 439.001128 190.715851 
L 439.407352 190.712369 
L 439.813576 190.708952 
L 440.219801 190.705583 
L 440.626025 190.702267 
L 441.03225 190.698998 
L 441.438474 190.695789 
L 441.844699 190.692628 
L 442.250923 190.689502 
L 442.657147 190.686448 
L 443.063372 190.683435 
L 443.469596 190.680464 
L 443.875821 190.677534 
L 444.282045 190.674664 
L 444.688269 190.671835 
L 445.094494 190.669048 
L 445.500718 190.666315 
L 445.906943 190.663611 
L 446.313167 190.660954 
L 446.719391 190.65834 
L 447.125616 190.655773 
L 447.53184 190.653241 
L 447.938065 190.650757 
L 448.344289 190.648297 
L 448.750513 190.64589 
L 449.156738 190.643519 
L 449.562962 190.641184 
L 449.969187 190.638878 
L 450.375411 190.636626 
L 450.781635 190.634397 
L 451.18786 190.632205 
L 451.594084 190.630053 
L 452.000309 190.627932 
L 452.406533 190.625846 
L 452.812757 190.623796 
L 453.218982 190.62177 
L 453.625206 190.619785 
L 454.031431 190.617836 
L 454.437655 190.61591 
L 454.84388 190.614015 
L 455.250104 190.612155 
L 455.656328 190.610318 
L 456.062553 190.608506 
L 456.468777 190.606741 
L 456.875002 190.605 
L 457.281226 190.603282 
L 457.68745 190.601595 
L 458.093675 190.599925 
L 458.499899 190.598291 
L 458.906124 190.59668 
L 459.312348 190.595111 
L 459.718572 190.593543 
L 460.124797 190.592015 
L 460.531021 190.5905 
L 460.937246 190.589026 
L 461.34347 190.587564 
L 461.749694 190.586138 
L 462.155919 190.584724 
L 462.562143 190.583333 
L 462.968368 190.581973 
L 463.374592 190.58063 
L 463.780816 190.579304 
L 464.187041 190.578003 
L 464.593265 190.576725 
L 464.99949 190.575465 
L 465.405714 190.574229 
L 465.811938 190.573017 
L 466.218163 190.571817 
L 466.624387 190.57064 
L 467.030612 190.569487 
L 467.436836 190.56834 
L 467.843061 190.567229 
L 468.249285 190.566124 
L 468.655509 190.565042 
L 469.061734 190.563973 
L 469.467958 190.562915 
L 469.874183 190.561887 
L 470.280407 190.560883 
L 470.686631 190.559878 
L 471.092856 190.558898 
L 471.49908 190.557935 
L 471.905305 190.556978 
L 472.311529 190.556057 
L 472.717753 190.55513 
L 473.123978 190.554227 
L 473.530202 190.553341 
L 473.936427 190.552468 
L 474.342651 190.551606 
L 474.748875 190.550768 
L 475.1551 190.54993 
L 475.561324 190.54911 
L 475.967549 190.54832 
L 476.373773 190.547524 
L 476.779997 190.546745 
L 477.186222 190.545979 
L 477.592446 190.54523 
L 477.998671 190.544493 
L 478.404895 190.543762 
L 478.811119 190.543043 
L 479.217344 190.542342 
L 479.623568 190.541653 
L 480.029793 190.540975 
L 480.436017 190.540304 
L 480.842242 190.539644 
L 481.248466 190.538996 
L 481.248466 21.69062 
L 481.248466 21.69062 
L 480.842242 21.691273 
L 480.436017 21.691927 
L 480.029793 21.692605 
L 479.623568 21.693282 
L 479.217344 21.693983 
L 478.811119 21.694684 
L 478.404895 21.695398 
L 477.998671 21.696134 
L 477.592446 21.696883 
L 477.186222 21.697632 
L 476.779997 21.698393 
L 476.373773 21.699177 
L 475.967549 21.699973 
L 475.561324 21.700793 
L 475.1551 21.701602 
L 474.748875 21.702445 
L 474.342651 21.703289 
L 473.936427 21.704157 
L 473.530202 21.705024 
L 473.123978 21.705928 
L 472.717753 21.706831 
L 472.311529 21.707758 
L 471.905305 21.708709 
L 471.49908 21.70966 
L 471.092856 21.710622 
L 470.686631 21.711609 
L 470.280407 21.712619 
L 469.874183 21.713653 
L 469.467958 21.714687 
L 469.061734 21.715745 
L 468.655509 21.716814 
L 468.249285 21.717908 
L 467.843061 21.719013 
L 467.436836 21.720142 
L 467.030612 21.721295 
L 466.624387 21.72246 
L 466.218163 21.723648 
L 465.811938 21.724849 
L 465.405714 21.726085 
L 464.99949 21.727333 
L 464.593265 21.728592 
L 464.187041 21.729888 
L 463.780816 21.731207 
L 463.374592 21.732526 
L 462.968368 21.733881 
L 462.562143 21.735272 
L 462.155919 21.736674 
L 461.749694 21.7381 
L 461.34347 21.73955 
L 460.937246 21.741012 
L 460.531021 21.742522 
L 460.124797 21.744031 
L 459.718572 21.745588 
L 459.312348 21.747157 
L 458.906124 21.748761 
L 458.499899 21.750401 
L 458.093675 21.752042 
L 457.68745 21.753729 
L 457.281226 21.755441 
L 456.875002 21.757176 
L 456.468777 21.758935 
L 456.062553 21.760741 
L 455.656328 21.762572 
L 455.250104 21.764414 
L 454.84388 21.766304 
L 454.437655 21.768217 
L 454.031431 21.770178 
L 453.625206 21.772163 
L 453.218982 21.774183 
L 452.812757 21.776216 
L 452.406533 21.778308 
L 452.000309 21.780423 
L 451.594084 21.782574 
L 451.18786 21.784761 
L 450.781635 21.786984 
L 450.375411 21.789254 
L 449.969187 21.791547 
L 449.562962 21.793877 
L 449.156738 21.796254 
L 448.750513 21.798678 
L 448.344289 21.801127 
L 447.938065 21.803623 
L 447.53184 21.806154 
L 447.125616 21.808733 
L 446.719391 21.81136 
L 446.313167 21.814022 
L 445.906943 21.81672 
L 445.500718 21.819477 
L 445.094494 21.82227 
L 444.688269 21.825111 
L 444.282045 21.828011 
L 443.875821 21.830946 
L 443.469596 21.833929 
L 443.063372 21.836948 
L 442.657147 21.840038 
L 442.250923 21.843176 
L 441.844699 21.846361 
L 441.438474 21.849594 
L 441.03225 21.852886 
L 440.626025 21.856226 
L 440.219801 21.859625 
L 439.813576 21.863072 
L 439.407352 21.866589 
L 439.001128 21.870155 
L 438.594903 21.873792 
L 438.188679 21.877476 
L 437.782454 21.881208 
L 437.37623 21.885011 
L 436.970006 21.888886 
L 436.563781 21.892808 
L 436.157557 21.896813 
L 435.751332 21.900866 
L 435.345108 21.905002 
L 434.938884 21.909185 
L 434.532659 21.913452 
L 434.126435 21.917778 
L 433.72021 21.922176 
L 433.313986 21.926656 
L 432.907762 21.931197 
L 432.501537 21.935808 
L 432.095313 21.940502 
L 431.689088 21.945268 
L 431.282864 21.950117 
L 430.87664 21.955038 
L 430.470415 21.960041 
L 430.064191 21.96514 
L 429.657966 21.970298 
L 429.251742 21.975551 
L 428.845518 21.980888 
L 428.439293 21.986295 
L 428.033069 21.991822 
L 427.626844 21.997408 
L 427.22062 22.003101 
L 426.814395 22.008877 
L 426.408171 22.014748 
L 426.001947 22.020715 
L 425.595722 22.026776 
L 425.189498 22.032932 
L 424.783273 22.039196 
L 424.377049 22.045554 
L 423.970825 22.052008 
L 423.5646 22.05858 
L 423.158376 22.065248 
L 422.752151 22.072022 
L 422.345927 22.078904 
L 421.939703 22.085904 
L 421.533478 22.093023 
L 421.127254 22.100237 
L 420.721029 22.10757 
L 420.314805 22.115034 
L 419.908581 22.122593 
L 419.502356 22.130294 
L 419.096132 22.138115 
L 418.689907 22.146066 
L 418.283683 22.154136 
L 417.877459 22.162337 
L 417.471234 22.170656 
L 417.06501 22.179118 
L 416.658785 22.187711 
L 416.252561 22.196447 
L 415.846337 22.205325 
L 415.440112 22.214345 
L 415.033888 22.223497 
L 414.627663 22.232803 
L 414.221439 22.242251 
L 413.815214 22.251855 
L 413.40899 22.2616 
L 413.002766 22.271512 
L 412.596541 22.281579 
L 412.190317 22.291812 
L 411.784092 22.302188 
L 411.377868 22.312753 
L 410.971644 22.323462 
L 410.565419 22.33436 
L 410.159195 22.345414 
L 409.75297 22.356657 
L 409.346746 22.368066 
L 408.940522 22.379666 
L 408.534297 22.391444 
L 408.128073 22.403412 
L 407.721848 22.415559 
L 407.315624 22.427907 
L 406.9094 22.440446 
L 406.503175 22.453187 
L 406.096951 22.466118 
L 405.690726 22.479275 
L 405.284502 22.492621 
L 404.878278 22.506182 
L 404.472053 22.519957 
L 404.065829 22.533946 
L 403.659604 22.54816 
L 403.25338 22.562601 
L 402.847156 22.577267 
L 402.440931 22.592159 
L 402.034707 22.607288 
L 401.628482 22.622644 
L 401.222258 22.638261 
L 400.816033 22.654115 
L 400.409809 22.670219 
L 400.003585 22.686573 
L 399.59736 22.703177 
L 399.191136 22.720053 
L 398.784911 22.737192 
L 398.378687 22.754591 
L 397.972463 22.772276 
L 397.566238 22.790223 
L 397.160014 22.808466 
L 396.753789 22.826995 
L 396.347565 22.845797 
L 395.941341 22.864908 
L 395.535116 22.884316 
L 395.128892 22.904022 
L 394.722667 22.924048 
L 394.316443 22.944383 
L 393.910219 22.965028 
L 393.503994 22.985993 
L 393.09777 23.007291 
L 392.691545 23.028933 
L 392.285321 23.050897 
L 391.879097 23.073217 
L 391.472872 23.095858 
L 391.066648 23.118891 
L 390.660423 23.142257 
L 390.254199 23.166003 
L 389.847975 23.190118 
L 389.44175 23.214601 
L 389.035526 23.239465 
L 388.629301 23.26472 
L 388.223077 23.290368 
L 387.816852 23.31642 
L 387.410628 23.342876 
L 387.004404 23.369737 
L 386.598179 23.397025 
L 386.191955 23.424729 
L 385.78573 23.452872 
L 385.379506 23.481456 
L 384.973282 23.510467 
L 384.567057 23.539954 
L 384.160833 23.56988 
L 383.754608 23.600282 
L 383.348384 23.631148 
L 382.94216 23.6625 
L 382.535935 23.69434 
L 382.129711 23.72668 
L 381.723486 23.759518 
L 381.317262 23.792855 
L 380.911038 23.826716 
L 380.504813 23.861111 
L 380.098589 23.896041 
L 379.692364 23.931518 
L 379.28614 23.96753 
L 378.879916 24.004112 
L 378.473691 24.041252 
L 378.067467 24.078976 
L 377.661242 24.117281 
L 377.255018 24.156193 
L 376.848794 24.195687 
L 376.442569 24.23581 
L 376.036345 24.276552 
L 375.63012 24.317924 
L 375.223896 24.359938 
L 374.817671 24.402605 
L 374.411447 24.445926 
L 374.005223 24.489924 
L 373.598998 24.534612 
L 373.192774 24.579989 
L 372.786549 24.626055 
L 372.380325 24.672859 
L 371.974101 24.720375 
L 371.567876 24.768628 
L 371.161652 24.817618 
L 370.755427 24.867381 
L 370.349203 24.917916 
L 369.942979 24.969224 
L 369.536754 25.021328 
L 369.13053 25.07424 
L 368.724305 25.127972 
L 368.318081 25.182536 
L 367.911857 25.237944 
L 367.505632 25.294232 
L 367.099408 25.351351 
L 366.693183 25.409374 
L 366.286959 25.4683 
L 365.880735 25.528129 
L 365.47451 25.588885 
L 365.068286 25.65058 
L 364.662061 25.713238 
L 364.255837 25.776847 
L 363.849613 25.841466 
L 363.443388 25.907059 
L 363.037164 25.973675 
L 362.630939 26.041313 
L 362.224715 26.110008 
L 361.81849 26.179761 
L 361.412266 26.250596 
L 361.006042 26.322512 
L 360.599817 26.395546 
L 360.193593 26.469708 
L 359.787368 26.545012 
L 359.381144 26.62148 
L 358.97492 26.699137 
L 358.568695 26.777982 
L 358.162471 26.85804 
L 357.756246 26.939333 
L 357.350022 27.021887 
L 356.943798 27.105712 
L 356.537573 27.190821 
L 356.131349 27.277249 
L 355.725124 27.365008 
L 355.3189 27.454121 
L 354.912676 27.544602 
L 354.506451 27.636473 
L 354.100227 27.729771 
L 353.694002 27.824483 
L 353.287778 27.920668 
L 352.881554 28.018328 
L 352.475329 28.117472 
L 352.069105 28.218162 
L 351.66288 28.320386 
L 351.256656 28.424189 
L 350.850432 28.529574 
L 350.444207 28.636575 
L 350.037983 28.745216 
L 349.631758 28.855533 
L 349.225534 28.967537 
L 348.819309 29.081253 
L 348.413085 29.196704 
L 348.006861 29.313926 
L 347.600636 29.432943 
L 347.194412 29.553766 
L 346.788187 29.676432 
L 346.381963 29.800999 
L 345.975739 29.927443 
L 345.569514 30.055825 
L 345.16329 30.186157 
L 344.757065 30.318473 
L 344.350841 30.452797 
L 343.944617 30.589166 
L 343.538392 30.727615 
L 343.132168 30.868143 
L 342.725943 31.010835 
L 342.319719 31.155678 
L 341.913495 31.302707 
L 341.50727 31.45196 
L 341.101046 31.60347 
L 340.694821 31.757274 
L 340.288597 31.913396 
L 339.882373 32.071883 
L 339.476148 32.232735 
L 339.069924 32.396035 
L 338.663699 32.561784 
L 338.257475 32.730004 
L 337.851251 32.900756 
L 337.445026 33.074076 
L 337.038802 33.249974 
L 336.632577 33.428511 
L 336.226353 33.60971 
L 335.820128 33.793607 
L 335.413904 33.98025 
L 335.00768 34.169673 
L 334.601455 34.361902 
L 334.195231 34.556983 
L 333.789006 34.754952 
L 333.382782 34.955844 
L 332.976558 35.159708 
L 332.570333 35.366579 
L 332.164109 35.576504 
L 331.757884 35.789508 
L 331.35166 36.005637 
L 330.945436 36.224927 
L 330.539211 36.447427 
L 330.132987 36.673171 
L 329.726762 36.902196 
L 329.320538 37.134572 
L 328.914314 37.370305 
L 328.508089 37.609456 
L 328.101865 37.852071 
L 327.69564 38.09818 
L 327.289416 38.347831 
L 326.883192 38.601065 
L 326.476967 38.857937 
L 326.070743 39.118474 
L 325.664518 39.382732 
L 325.258294 39.650757 
L 324.85207 39.92258 
L 324.445845 40.198247 
L 324.039621 40.477818 
L 323.633396 40.761306 
L 323.227172 41.048805 
L 322.820947 41.340315 
L 322.414723 41.635901 
L 322.008499 41.935612 
L 321.602274 42.239471 
L 321.19605 42.547548 
L 320.789825 42.859869 
L 320.383601 43.176492 
L 319.977377 43.497465 
L 319.571152 43.822824 
L 319.164928 44.15261 
L 318.758703 44.48687 
L 318.352479 44.825671 
L 317.946255 45.169023 
L 317.54003 45.516999 
L 317.133806 45.869628 
L 316.727581 46.226945 
L 316.321357 46.589011 
L 315.915133 46.955884 
L 315.508908 47.327564 
L 315.102684 47.704129 
L 314.696459 48.085609 
L 314.290235 48.472045 
L 313.884011 48.863466 
L 313.477786 49.259951 
L 313.071562 49.66151 
L 312.665337 50.068198 
L 312.259113 50.480026 
L 311.852889 50.897072 
L 311.446664 51.319365 
L 311.04044 51.746905 
L 310.634215 52.179763 
L 310.227991 52.617982 
L 309.821766 53.061591 
L 309.415542 53.510607 
L 309.009318 53.965085 
L 308.603093 54.425035 
L 308.196869 54.890495 
L 307.790644 55.36151 
L 307.38442 55.838088 
L 306.978196 56.320281 
L 306.571971 56.808102 
L 306.165747 57.301557 
L 305.759522 57.800698 
L 305.353298 58.305551 
L 304.947074 58.816108 
L 304.540849 59.332399 
L 304.134625 59.854455 
L 303.7284 60.382287 
L 303.322176 60.915907 
L 302.915952 61.455321 
L 302.509727 62.000534 
L 302.103503 62.551572 
L 301.697278 63.108421 
L 301.291054 63.6711 
L 300.88483 64.239614 
L 300.478605 64.813935 
L 300.072381 65.394102 
L 299.666156 65.980082 
L 299.259932 66.571867 
L 298.853708 67.169446 
L 298.447483 67.772837 
L 298.041259 68.381963 
L 297.635034 68.996823 
L 297.22881 69.617423 
L 296.822585 70.243717 
L 296.416361 70.875673 
L 296.010137 71.513263 
L 295.603912 72.156445 
L 295.197688 72.805196 
L 294.791463 73.459425 
L 294.385239 74.119127 
L 293.979015 74.784237 
L 293.57279 75.454719 
L 293.166566 76.130478 
L 292.760341 76.811466 
L 292.354117 77.49763 
L 291.947893 78.188834 
L 291.541668 78.885041 
L 291.135444 79.586181 
L 290.729219 80.292151 
L 290.322995 81.00284 
L 289.916771 81.718147 
L 289.510546 82.437969 
L 289.104322 83.162195 
L 288.698097 83.890688 
L 288.291873 84.623353 
L 287.885649 85.360052 
L 287.479424 86.10062 
L 287.0732 86.844923 
L 286.666975 87.592842 
L 286.260751 88.344139 
L 285.854527 89.098701 
L 285.448302 89.856342 
L 285.042078 90.616812 
L 284.635853 91.380021 
L 284.229629 92.145699 
L 283.823404 92.91362 
L 283.41718 93.683589 
L 283.010956 94.455385 
L 282.604731 95.228696 
L 282.198507 96.003297 
L 281.792282 96.778949 
L 281.386058 97.555342 
L 280.979834 98.332141 
L 280.573609 99.109119 
L 280.167385 99.885829 
L 279.76116 100.662043 
L 279.354936 101.437333 
L 278.948712 102.21131 
L 278.542487 102.983614 
L 278.136263 103.753844 
L 277.730038 104.521507 
L 277.323814 105.286101 
L 276.91759 106.047194 
L 276.511365 106.804223 
L 276.105141 107.556673 
L 275.698916 108.303938 
L 275.292692 109.045299 
L 274.886468 109.780106 
L 274.480243 110.507702 
L 274.074019 111.227185 
L 273.667794 111.937903 
L 273.26157 112.638744 
L 272.855346 113.328701 
L 272.449121 114.006782 
L 272.042897 114.671834 
L 271.636672 115.322347 
L 271.230448 115.956956 
L 270.824223 116.574153 
L 270.417999 117.172109 
L 270.011775 117.748781 
L 269.60555 118.302074 
L 269.199326 118.82936 
L 268.793101 119.328031 
L 268.386877 119.794983 
L 267.980653 120.226912 
L 267.574428 120.620063 
L 267.168204 120.970289 
L 266.761979 121.273519 
L 266.355755 121.525017 
L 265.949531 121.720352 
L 265.543306 121.855009 
L 265.137082 121.925091 
L 264.730857 121.926816 
L 264.324633 121.85801 
L 263.918409 121.717612 
L 263.512184 121.505506 
L 263.10596 121.223546 
L 262.699735 120.874762 
L 262.293511 120.463004 
L 261.887287 119.99352 
L 261.481062 119.471676 
L 261.074838 118.9034 
L 260.668613 118.294173 
L 260.262389 117.649647 
L 259.856165 116.974867 
L 259.44994 116.274619 
L 259.043716 115.55316 
L 258.637491 114.814558 
L 258.231267 114.062048 
L 257.825042 113.298894 
L 257.418818 112.527752 
L 257.012594 111.751324 
L 256.606369 110.971544 
L 256.200145 110.190674 
L 255.79392 109.410167 
L 255.387696 108.631804 
L 254.981472 107.857055 
L 254.575247 107.087208 
L 254.169023 106.323393 
L 253.762798 105.566721 
L 253.356574 104.818333 
L 252.95035 104.079025 
L 252.544125 103.34964 
L 252.137901 102.630982 
L 251.731676 101.923764 
L 251.325452 101.228805 
L 250.919228 100.546571 
L 250.513003 99.877762 
L 250.106779 99.222903 
L 249.700554 98.58252 
L 249.29433 97.957047 
L 248.888106 97.347048 
L 248.481881 96.752867 
L 248.075657 96.174904 
L 247.669432 95.613545 
L 247.263208 95.069208 
L 246.856984 94.542139 
L 246.450759 94.032652 
L 246.044535 93.540998 
L 245.63831 93.067502 
L 245.232086 92.61235 
L 244.825861 92.175741 
L 244.419637 91.757905 
L 244.013413 91.358907 
L 243.607188 90.979091 
L 243.200964 90.618282 
L 242.794739 90.276799 
L 242.388515 89.954682 
L 241.982291 89.651902 
L 241.576066 89.36848 
L 241.169842 89.104436 
L 240.763617 88.859762 
L 240.357393 88.634371 
L 239.951169 88.428041 
L 239.544944 88.240745 
L 239.13872 88.072334 
L 238.732495 87.922535 
L 238.326271 87.791057 
L 237.920047 87.677585 
L 237.513822 87.58175 
L 237.107598 87.50319 
L 236.701373 87.441379 
L 236.295149 87.395702 
L 235.888925 87.365439 
L 235.4827 87.349956 
L 235.076476 87.348361 
L 234.670251 87.35966 
L 234.264027 87.38272 
L 233.857803 87.41631 
L 233.451578 87.458891 
L 233.045354 87.508776 
L 232.639129 87.564231 
L 232.232905 87.622735 
L 231.82668 87.682042 
L 231.420456 87.739244 
L 231.014232 87.791117 
L 230.608007 87.834096 
L 230.201783 87.863924 
L 229.795558 87.876243 
L 229.389334 87.866028 
L 228.98311 87.82815 
L 228.576885 87.756772 
L 228.170661 87.646627 
L 227.764436 87.492345 
L 227.358212 87.289093 
L 226.951988 87.03265 
L 226.545763 86.720478 
L 226.139539 86.35058 
L 225.733314 85.923301 
L 225.32709 85.439664 
L 224.920866 84.902074 
L 224.514641 84.314033 
L 224.108417 83.679818 
L 223.702192 83.003465 
L 223.295968 82.28981 
L 222.889744 81.543312 
L 222.483519 80.768147 
L 222.077295 79.968296 
L 221.67107 79.147385 
L 221.264846 78.308825 
L 220.858622 77.455492 
L 220.452397 76.590001 
L 220.046173 75.714716 
L 219.639948 74.831848 
L 219.233724 73.943116 
L 218.827499 73.050194 
L 218.421275 72.154746 
L 218.015051 71.25783 
L 217.608826 70.36063 
L 217.202602 69.464326 
L 216.796377 68.569841 
L 216.390153 67.677929 
L 215.983929 66.789351 
L 215.577704 65.904939 
L 215.17148 65.025108 
L 214.765255 64.150572 
L 214.359031 63.28174 
L 213.952807 62.419084 
L 213.546582 61.563017 
L 213.140358 60.713992 
L 212.734133 59.872294 
L 212.327909 59.038191 
L 211.921685 58.212039 
L 211.51546 57.394076 
L 211.109236 56.58448 
L 210.703011 55.783476 
L 210.296787 54.991292 
L 209.890563 54.20811 
L 209.484338 53.43402 
L 209.078114 52.669195 
L 208.671889 51.913753 
L 208.265665 51.167759 
L 207.859441 50.431381 
L 207.453216 49.704689 
L 207.046992 48.987629 
L 206.640767 48.280422 
L 206.234543 47.583086 
L 205.828318 46.895567 
L 205.422094 46.217954 
L 205.01587 45.550313 
L 204.609645 44.892571 
L 204.203421 44.244802 
L 203.797196 43.606974 
L 203.390972 42.979088 
L 202.984748 42.361102 
L 202.578523 41.753058 
L 202.172299 41.154861 
L 201.766074 40.566546 
L 201.35985 39.988024 
L 200.953626 39.41929 
L 200.547401 38.860272 
L 200.141177 38.310952 
L 199.734952 37.771235 
L 199.328728 37.241086 
L 198.922504 36.72048 
L 198.516279 36.209299 
L 198.110055 35.707489 
L 197.70383 35.214997 
L 197.297606 34.731752 
L 196.891382 34.257682 
L 196.485157 33.792692 
L 196.078933 33.336711 
L 195.672708 32.889668 
L 195.266484 32.451443 
L 194.86026 32.022013 
L 194.454035 31.601248 
L 194.047811 31.189063 
L 193.641586 30.785376 
L 193.235362 30.390104 
L 192.829137 30.003151 
L 192.422913 29.624423 
L 192.016689 29.253824 
L 191.610464 28.891259 
L 191.20424 28.536634 
L 190.798015 28.189852 
L 190.391791 27.850832 
L 189.985567 27.519465 
L 189.579342 27.195658 
L 189.173118 26.879314 
L 188.766893 26.570339 
L 188.360669 26.268626 
L 187.954445 25.974079 
L 187.54822 25.686604 
L 187.141996 25.406117 
L 186.735771 25.132488 
L 186.329547 24.865657 
L 185.923323 24.605518 
L 185.517098 24.351963 
L 185.110874 24.104909 
L 184.704649 23.864249 
L 184.298425 23.629912 
L 183.892201 23.401779 
L 183.485976 23.179766 
L 183.079752 22.96378 
L 182.673527 22.753736 
L 182.267303 22.549515 
L 181.861079 22.351071 
L 181.454854 22.158284 
L 181.04863 21.971071 
L 180.642405 21.789337 
L 180.236181 21.613011 
L 179.829956 21.442009 
L 179.423732 21.276236 
L 179.017508 21.115598 
L 178.611283 20.960023 
L 178.205059 20.80944 
L 177.798834 20.663753 
L 177.39261 20.522892 
L 176.986386 20.386761 
L 176.580161 20.255312 
L 176.173937 20.12844 
L 175.767712 20.006083 
L 175.361488 19.88816 
L 174.955264 19.774623 
L 174.549039 19.665363 
L 174.142815 19.560324 
L 173.73659 19.459455 
L 173.330366 19.362676 
L 172.924142 19.269925 
L 172.517917 19.18112 
L 172.111693 19.096213 
L 171.705468 19.015134 
L 171.299244 18.937821 
L 170.89302 18.864241 
L 170.486795 18.794286 
L 170.080571 18.727944 
L 169.674346 18.665131 
L 169.268122 18.605813 
L 168.861898 18.54993 
L 168.455673 18.497422 
L 168.049449 18.448242 
L 167.643224 18.402365 
L 167.237 18.359698 
L 166.830775 18.32024 
L 166.424551 18.283919 
L 166.018327 18.2507 
L 165.612102 18.220548 
L 165.205878 18.193403 
L 164.799653 18.169252 
L 164.393429 18.148038 
L 163.987205 18.129735 
L 163.58098 18.114308 
L 163.174756 18.101722 
L 162.768531 18.091928 
L 162.362307 18.084928 
L 161.956083 18.080697 
L 161.549858 18.079164 
L 161.143634 18.080329 
L 160.737409 18.084179 
L 160.331185 18.090669 
L 159.924961 18.099784 
L 159.518736 18.111515 
L 159.112512 18.125824 
L 158.706287 18.142713 
L 158.300063 18.162145 
L 157.893839 18.184132 
L 157.487614 18.208651 
L 157.08139 18.235678 
L 156.675165 18.265212 
L 156.268941 18.297242 
L 155.862717 18.331768 
L 155.456492 18.368754 
L 155.050268 18.408237 
L 154.644043 18.450191 
L 154.237819 18.494629 
L 153.831594 18.541539 
L 153.42537 18.590909 
L 153.019146 18.642776 
L 152.612921 18.697114 
L 152.206697 18.753924 
L 151.800472 18.813231 
L 151.394248 18.875057 
L 150.988024 18.939378 
L 150.581799 19.00622 
L 150.175575 19.075605 
L 149.76935 19.147509 
L 149.363126 19.222004 
L 148.956902 19.299055 
L 148.550677 19.378708 
L 148.144453 19.460977 
L 147.738228 19.54586 
L 147.332004 19.633417 
L 146.92578 19.723636 
L 146.519555 19.816565 
L 146.113331 19.912215 
L 145.707106 20.010624 
L 145.300882 20.111813 
L 144.894658 20.215819 
L 144.488433 20.322653 
L 144.082209 20.432364 
L 143.675984 20.544974 
L 143.26976 20.660544 
L 142.863536 20.779074 
L 142.457311 20.900622 
L 142.051087 21.025213 
L 141.644862 21.152894 
L 141.238638 21.283724 
L 140.832413 21.417716 
L 140.426189 21.554917 
L 140.019965 21.695398 
L 139.61374 21.839171 
L 139.207516 21.986284 
L 138.801291 22.136831 
L 138.395067 22.290802 
L 137.988843 22.448267 
L 137.582618 22.609309 
L 137.176394 22.773928 
L 136.770169 22.942208 
L 136.363945 23.11422 
L 135.957721 23.289976 
L 135.551496 23.469571 
L 135.145272 23.653016 
L 134.739047 23.840431 
L 134.332823 24.031851 
L 133.926599 24.227313 
L 133.520374 24.426898 
L 133.11415 24.630643 
L 132.707925 24.838667 
L 132.301701 25.050993 
L 131.895477 25.267704 
L 131.489252 25.488849 
L 131.083028 25.714522 
L 130.676803 25.944723 
L 130.270579 26.179642 
L 129.864355 26.419245 
L 129.45813 26.663625 
L 129.051906 26.91283 
L 128.645681 27.167003 
L 128.239457 27.42618 
L 127.833232 27.690408 
L 127.427008 27.959794 
L 127.020784 28.234374 
L 126.614559 28.51429 
L 126.208335 28.799542 
L 125.80211 29.090238 
L 125.395886 29.386473 
L 124.989662 29.688245 
L 124.583437 29.995735 
L 124.177213 30.308953 
L 123.770988 30.628042 
L 123.364764 30.952967 
L 122.95854 31.283893 
L 122.552315 31.620822 
L 122.146091 31.963919 
L 121.739866 32.31322 
L 121.333642 32.668844 
L 120.927418 33.030743 
L 120.521193 33.399084 
L 120.114969 33.773949 
L 119.708744 34.155471 
L 119.30252 34.543588 
L 118.896296 34.938385 
L 118.490071 35.340028 
L 118.083847 35.748552 
L 117.677622 36.164052 
L 117.271398 36.586601 
L 116.865174 37.016149 
L 116.458949 37.452883 
L 116.052725 37.896866 
L 115.6465 38.34817 
L 115.240276 38.806718 
L 114.834051 39.27273 
L 114.427827 39.746247 
L 114.021603 40.22749 
L 113.615378 40.716066 
L 113.209154 41.212343 
L 112.802929 41.716351 
L 112.396705 42.22815 
L 111.990481 42.747811 
L 111.584256 43.275376 
L 111.178032 43.810701 
L 110.771807 44.354007 
L 110.365583 44.905324 
L 109.959359 45.464729 
L 109.553134 46.032203 
L 109.14691 46.607629 
L 108.740685 47.191183 
L 108.334461 47.782903 
L 107.928237 48.382824 
L 107.522012 48.990696 
L 107.115788 49.606899 
L 106.709563 50.231302 
L 106.303339 50.863782 
L 105.897115 51.504201 
L 105.49089 52.152909 
L 105.084666 52.809783 
L 104.678441 53.474631 
L 104.272217 54.147579 
L 103.865993 54.828235 
L 103.459768 55.517198 
L 103.053544 56.21375 
L 102.647319 56.917938 
L 102.241095 57.629905 
L 101.83487 58.34949 
L 101.428646 59.076681 
L 101.022422 59.811479 
L 100.616197 60.55292 
L 100.209973 61.301505 
L 99.803748 62.057012 
L 99.397524 62.819282 
L 98.9913 63.587839 
L 98.585075 64.36241 
L 98.178851 65.143013 
L 97.772626 65.929297 
L 97.366402 66.720685 
L 96.960178 67.517695 
L 96.553953 68.318348 
L 96.147729 69.123125 
L 95.741504 69.931485 
L 95.33528 70.742436 
L 94.929056 71.555699 
L 94.522831 72.370138 
L 94.116607 73.185249 
L 93.710382 73.999623 
L 93.304158 74.812553 
L 92.897934 75.623778 
L 92.491709 76.429291 
L 92.085485 77.228886 
L 91.67926 78.019894 
L 91.273036 78.800646 
L 90.866812 79.56824 
L 90.460587 80.318904 
L 90.054363 81.04874 
L 89.648138 81.75461 
L 89.241914 82.429216 
L 88.835689 83.068749 
L 88.429465 83.666305 
L 88.023241 84.210621 
L 87.617016 84.695358 
L 87.210792 85.111471 
L 86.804567 85.45001 
L 86.398343 85.700201 
L 85.992119 85.858029 
L 85.585894 85.916883 
L 85.17967 85.87506 
L 84.773445 85.736451 
L 84.367221 85.50436 
L 83.960997 85.185081 
L 83.554772 84.786879 
L 83.148548 84.319227 
L 82.742323 83.792072 
L 82.336099 83.214299 
L 81.929875 82.592807 
L 81.52365 81.935429 
L 81.117426 81.247541 
L 80.711201 80.535046 
L 80.304977 79.80376 
L 79.898753 79.054129 
L 79.492528 78.290831 
L 79.086304 77.517865 
L 78.680079 76.736311 
L 78.273855 75.948375 
L 77.867631 75.156226 
L 77.461406 74.361368 
L 77.055182 73.564661 
L 76.648957 72.767728 
L 76.242733 71.971098 
L 75.836508 71.176774 
L 75.430284 70.38371 
z
" style="fill:#1f77b4;fill-opacity:0.4;"/>
   </g>
   <g id="PathCollection_1">
    <defs>
     <path d="M 0 3 
C 0.795609 3 1.55874 2.683901 2.12132 2.12132 
C 2.683901 1.55874 3 0.795609 3 0 
C 3 -0.795609 2.683901 -1.55874 2.12132 -2.12132 
C 1.55874 -2.683901 0.795609 -3 0 -3 
C -0.795609 -3 -1.55874 -2.683901 -2.12132 -2.12132 
C -2.683901 -1.55874 -3 -0.795609 -3 0 
C -3 0.795609 -2.683901 1.55874 -2.12132 2.12132 
C -1.55874 2.683901 -0.795609 3 0 3 
z
" id="m4edd7c164b" style="stroke:#000000;"/>
    </defs>
    <g clip-path="url(#p2a020227f0)">
     <use style="stroke:#000000;" x="85.585894" xlink:href="#m4edd7c164b" y="85.911521"/>
     <use style="stroke:#000000;" x="263.918409" xlink:href="#m4edd7c164b" y="126.109819"/>
     <use style="stroke:#000000;" x="226.545763" xlink:href="#m4edd7c164b" y="96.253876"/>
    </g>
   </g>
   <g id="PathCollection_2">
    <defs>
     <path d="M 0 3 
C 0.795609 3 1.55874 2.683901 2.12132 2.12132 
C 2.683901 1.55874 3 0.795609 3 0 
C 3 -0.795609 2.683901 -1.55874 2.12132 -2.12132 
C 1.55874 -2.683901 0.795609 -3 0 -3 
C -0.795609 -3 -1.55874 -2.683901 -2.12132 -2.12132 
C -2.683901 -1.55874 -3 -0.795609 -3 0 
C -3 0.795609 -2.683901 1.55874 -2.12132 2.12132 
C -1.55874 2.683901 -0.795609 3 0 3 
z
" id="m964293c029" style="stroke:#ff0000;"/>
    </defs>
    <g clip-path="url(#p2a020227f0)">
     <use style="fill:#ff0000;stroke:#ff0000;" x="205.01587" xlink:href="#m964293c029" y="90.931605"/>
     <use style="fill:#ff0000;stroke:#ff0000;" x="194.047811" xlink:href="#m964293c029" y="84.710003"/>
     <use style="fill:#ff0000;stroke:#ff0000;" x="181.861079" xlink:href="#m964293c029" y="79.51701"/>
    </g>
   </g>
   <g id="matplotlib.axis_1">
    <g id="xtick_1">
     <g id="line2d_1">
      <defs>
       <path d="M 0 0 
L 0 3.5 
" id="m4d30279198" style="stroke:#000000;stroke-width:0.8;"/>
      </defs>
      <g>
       <use style="stroke:#000000;stroke-width:0.8;" x="75.430284" xlink:href="#m4d30279198" y="206.766767"/>
      </g>
     </g>
     <g id="text_1">
      <!-- 0 -->
      <g transform="translate(71.612784 222.884892)scale(0.12 -0.12)">
       <defs>
        <path d="M 31.78125 66.40625 
Q 24.171875 66.40625 20.328125 58.90625 
Q 16.5 51.421875 16.5 36.375 
Q 16.5 21.390625 20.328125 13.890625 
Q 24.171875 6.390625 31.78125 6.390625 
Q 39.453125 6.390625 43.28125 13.890625 
Q 47.125 21.390625 47.125 36.375 
Q 47.125 51.421875 43.28125 58.90625 
Q 39.453125 66.40625 31.78125 66.40625 
z
M 31.78125 74.21875 
Q 44.046875 74.21875 50.515625 64.515625 
Q 56.984375 54.828125 56.984375 36.375 
Q 56.984375 17.96875 50.515625 8.265625 
Q 44.046875 -1.421875 31.78125 -1.421875 
Q 19.53125 -1.421875 13.0625 8.265625 
Q 6.59375 17.96875 6.59375 36.375 
Q 6.59375 54.828125 13.0625 64.515625 
Q 19.53125 74.21875 31.78125 74.21875 
z
" id="DejaVuSans-48"/>
       </defs>
       <use xlink:href="#DejaVuSans-48"/>
      </g>
     </g>
    </g>
    <g id="xtick_2">
     <g id="line2d_2">
      <g>
       <use style="stroke:#000000;stroke-width:0.8;" x="156.59392" xlink:href="#m4d30279198" y="206.766767"/>
      </g>
     </g>
     <g id="text_2">
      <!-- 2 -->
      <g transform="translate(152.77642 222.884892)scale(0.12 -0.12)">
       <defs>
        <path d="M 19.1875 8.296875 
L 53.609375 8.296875 
L 53.609375 0 
L 7.328125 0 
L 7.328125 8.296875 
Q 12.9375 14.109375 22.625 23.890625 
Q 32.328125 33.6875 34.8125 36.53125 
Q 39.546875 41.84375 41.421875 45.53125 
Q 43.3125 49.21875 43.3125 52.78125 
Q 43.3125 58.59375 39.234375 62.25 
Q 35.15625 65.921875 28.609375 65.921875 
Q 23.96875 65.921875 18.8125 64.3125 
Q 13.671875 62.703125 7.8125 59.421875 
L 7.8125 69.390625 
Q 13.765625 71.78125 18.9375 73 
Q 24.125 74.21875 28.421875 74.21875 
Q 39.75 74.21875 46.484375 68.546875 
Q 53.21875 62.890625 53.21875 53.421875 
Q 53.21875 48.921875 51.53125 44.890625 
Q 49.859375 40.875 45.40625 35.40625 
Q 44.1875 33.984375 37.640625 27.21875 
Q 31.109375 20.453125 19.1875 8.296875 
z
" id="DejaVuSans-50"/>
       </defs>
       <use xlink:href="#DejaVuSans-50"/>
      </g>
     </g>
    </g>
    <g id="xtick_3">
     <g id="line2d_3">
      <g>
       <use style="stroke:#000000;stroke-width:0.8;" x="237.757557" xlink:href="#m4d30279198" y="206.766767"/>
      </g>
     </g>
     <g id="text_3">
      <!-- 4 -->
      <g transform="translate(233.940057 222.884892)scale(0.12 -0.12)">
       <defs>
        <path d="M 37.796875 64.3125 
L 12.890625 25.390625 
L 37.796875 25.390625 
z
M 35.203125 72.90625 
L 47.609375 72.90625 
L 47.609375 25.390625 
L 58.015625 25.390625 
L 58.015625 17.1875 
L 47.609375 17.1875 
L 47.609375 0 
L 37.796875 0 
L 37.796875 17.1875 
L 4.890625 17.1875 
L 4.890625 26.703125 
z
" id="DejaVuSans-52"/>
       </defs>
       <use xlink:href="#DejaVuSans-52"/>
      </g>
     </g>
    </g>
    <g id="xtick_4">
     <g id="line2d_4">
      <g>
       <use style="stroke:#000000;stroke-width:0.8;" x="318.921193" xlink:href="#m4d30279198" y="206.766767"/>
      </g>
     </g>
     <g id="text_4">
      <!-- 6 -->
      <g transform="translate(315.103693 222.884892)scale(0.12 -0.12)">
       <defs>
        <path d="M 33.015625 40.375 
Q 26.375 40.375 22.484375 35.828125 
Q 18.609375 31.296875 18.609375 23.390625 
Q 18.609375 15.53125 22.484375 10.953125 
Q 26.375 6.390625 33.015625 6.390625 
Q 39.65625 6.390625 43.53125 10.953125 
Q 47.40625 15.53125 47.40625 23.390625 
Q 47.40625 31.296875 43.53125 35.828125 
Q 39.65625 40.375 33.015625 40.375 
z
M 52.59375 71.296875 
L 52.59375 62.3125 
Q 48.875 64.0625 45.09375 64.984375 
Q 41.3125 65.921875 37.59375 65.921875 
Q 27.828125 65.921875 22.671875 59.328125 
Q 17.53125 52.734375 16.796875 39.40625 
Q 19.671875 43.65625 24.015625 45.921875 
Q 28.375 48.1875 33.59375 48.1875 
Q 44.578125 48.1875 50.953125 41.515625 
Q 57.328125 34.859375 57.328125 23.390625 
Q 57.328125 12.15625 50.6875 5.359375 
Q 44.046875 -1.421875 33.015625 -1.421875 
Q 20.359375 -1.421875 13.671875 8.265625 
Q 6.984375 17.96875 6.984375 36.375 
Q 6.984375 53.65625 15.1875 63.9375 
Q 23.390625 74.21875 37.203125 74.21875 
Q 40.921875 74.21875 44.703125 73.484375 
Q 48.484375 72.75 52.59375 71.296875 
z
" id="DejaVuSans-54"/>
       </defs>
       <use xlink:href="#DejaVuSans-54"/>
      </g>
     </g>
    </g>
    <g id="xtick_5">
     <g id="line2d_5">
      <g>
       <use style="stroke:#000000;stroke-width:0.8;" x="400.08483" xlink:href="#m4d30279198" y="206.766767"/>
      </g>
     </g>
     <g id="text_5">
      <!-- 8 -->
      <g transform="translate(396.26733 222.884892)scale(0.12 -0.12)">
       <defs>
        <path d="M 31.78125 34.625 
Q 24.75 34.625 20.71875 30.859375 
Q 16.703125 27.09375 16.703125 20.515625 
Q 16.703125 13.921875 20.71875 10.15625 
Q 24.75 6.390625 31.78125 6.390625 
Q 38.8125 6.390625 42.859375 10.171875 
Q 46.921875 13.96875 46.921875 20.515625 
Q 46.921875 27.09375 42.890625 30.859375 
Q 38.875 34.625 31.78125 34.625 
z
M 21.921875 38.8125 
Q 15.578125 40.375 12.03125 44.71875 
Q 8.5 49.078125 8.5 55.328125 
Q 8.5 64.0625 14.71875 69.140625 
Q 20.953125 74.21875 31.78125 74.21875 
Q 42.671875 74.21875 48.875 69.140625 
Q 55.078125 64.0625 55.078125 55.328125 
Q 55.078125 49.078125 51.53125 44.71875 
Q 48 40.375 41.703125 38.8125 
Q 48.828125 37.15625 52.796875 32.3125 
Q 56.78125 27.484375 56.78125 20.515625 
Q 56.78125 9.90625 50.3125 4.234375 
Q 43.84375 -1.421875 31.78125 -1.421875 
Q 19.734375 -1.421875 13.25 4.234375 
Q 6.78125 9.90625 6.78125 20.515625 
Q 6.78125 27.484375 10.78125 32.3125 
Q 14.796875 37.15625 21.921875 38.8125 
z
M 18.3125 54.390625 
Q 18.3125 48.734375 21.84375 45.5625 
Q 25.390625 42.390625 31.78125 42.390625 
Q 38.140625 42.390625 41.71875 45.5625 
Q 45.3125 48.734375 45.3125 54.390625 
Q 45.3125 60.0625 41.71875 63.234375 
Q 38.140625 66.40625 31.78125 66.40625 
Q 25.390625 66.40625 21.84375 63.234375 
Q 18.3125 60.0625 18.3125 54.390625 
z
" id="DejaVuSans-56"/>
       </defs>
       <use xlink:href="#DejaVuSans-56"/>
      </g>
     </g>
    </g>
    <g id="xtick_6">
     <g id="line2d_6">
      <g>
       <use style="stroke:#000000;stroke-width:0.8;" x="481.248466" xlink:href="#m4d30279198" y="206.766767"/>
      </g>
     </g>
     <g id="text_6">
      <!-- 10 -->
      <g transform="translate(473.613466 222.884892)scale(0.12 -0.12)">
       <defs>
        <path d="M 12.40625 8.296875 
L 28.515625 8.296875 
L 28.515625 63.921875 
L 10.984375 60.40625 
L 10.984375 69.390625 
L 28.421875 72.90625 
L 38.28125 72.90625 
L 38.28125 8.296875 
L 54.390625 8.296875 
L 54.390625 0 
L 12.40625 0 
z
" id="DejaVuSans-49"/>
       </defs>
       <use xlink:href="#DejaVuSans-49"/>
       <use x="63.623047" xlink:href="#DejaVuSans-48"/>
      </g>
     </g>
    </g>
   </g>
   <g id="matplotlib.axis_2">
    <g id="ytick_1">
     <g id="line2d_7">
      <defs>
       <path d="M 0 0 
L -3.5 0 
" id="mfb58a7a26b" style="stroke:#000000;stroke-width:0.8;"/>
      </defs>
      <g>
       <use style="stroke:#000000;stroke-width:0.8;" x="55.139375" xlink:href="#mfb58a7a26b" y="198.69439"/>
      </g>
     </g>
     <g id="text_7">
      <!-- 40 -->
      <g transform="translate(22.81375 203.253452)scale(0.12 -0.12)">
       <defs>
        <path d="M 10.59375 35.5 
L 73.1875 35.5 
L 73.1875 27.203125 
L 10.59375 27.203125 
z
" id="DejaVuSans-8722"/>
       </defs>
       <use xlink:href="#DejaVuSans-8722"/>
       <use x="83.789062" xlink:href="#DejaVuSans-52"/>
       <use x="147.412109" xlink:href="#DejaVuSans-48"/>
      </g>
     </g>
    </g>
    <g id="ytick_2">
     <g id="line2d_8">
      <g>
       <use style="stroke:#000000;stroke-width:0.8;" x="55.139375" xlink:href="#mfb58a7a26b" y="167.538502"/>
      </g>
     </g>
     <g id="text_8">
      <!-- 20 -->
      <g transform="translate(22.81375 172.097564)scale(0.12 -0.12)">
       <use xlink:href="#DejaVuSans-8722"/>
       <use x="83.789062" xlink:href="#DejaVuSans-50"/>
       <use x="147.412109" xlink:href="#DejaVuSans-48"/>
      </g>
     </g>
    </g>
    <g id="ytick_3">
     <g id="line2d_9">
      <g>
       <use style="stroke:#000000;stroke-width:0.8;" x="55.139375" xlink:href="#mfb58a7a26b" y="136.382614"/>
      </g>
     </g>
     <g id="text_9">
      <!-- 0 -->
      <g transform="translate(40.504375 140.941676)scale(0.12 -0.12)">
       <use xlink:href="#DejaVuSans-48"/>
      </g>
     </g>
    </g>
    <g id="ytick_4">
     <g id="line2d_10">
      <g>
       <use style="stroke:#000000;stroke-width:0.8;" x="55.139375" xlink:href="#mfb58a7a26b" y="105.226726"/>
      </g>
     </g>
     <g id="text_10">
      <!-- 20 -->
      <g transform="translate(32.869375 109.785789)scale(0.12 -0.12)">
       <use xlink:href="#DejaVuSans-50"/>
       <use x="63.623047" xlink:href="#DejaVuSans-48"/>
      </g>
     </g>
    </g>
    <g id="ytick_5">
     <g id="line2d_11">
      <g>
       <use style="stroke:#000000;stroke-width:0.8;" x="55.139375" xlink:href="#mfb58a7a26b" y="74.070838"/>
      </g>
     </g>
     <g id="text_11">
      <!-- 40 -->
      <g transform="translate(32.869375 78.629901)scale(0.12 -0.12)">
       <use xlink:href="#DejaVuSans-52"/>
       <use x="63.623047" xlink:href="#DejaVuSans-48"/>
      </g>
     </g>
    </g>
    <g id="ytick_6">
     <g id="line2d_12">
      <g>
       <use style="stroke:#000000;stroke-width:0.8;" x="55.139375" xlink:href="#mfb58a7a26b" y="42.91495"/>
      </g>
     </g>
     <g id="text_12">
      <!-- 60 -->
      <g transform="translate(32.869375 47.474013)scale(0.12 -0.12)">
       <use xlink:href="#DejaVuSans-54"/>
       <use x="63.623047" xlink:href="#DejaVuSans-48"/>
      </g>
     </g>
    </g>
    <g id="ytick_7">
     <g id="line2d_13">
      <g>
       <use style="stroke:#000000;stroke-width:0.8;" x="55.139375" xlink:href="#mfb58a7a26b" y="11.759062"/>
      </g>
     </g>
     <g id="text_13">
      <!-- 80 -->
      <g transform="translate(32.869375 16.318125)scale(0.12 -0.12)">
       <use xlink:href="#DejaVuSans-56"/>
       <use x="63.623047" xlink:href="#DejaVuSans-48"/>
      </g>
     </g>
    </g>
    <g id="text_14">
     <!-- f(x) -->
     <g transform="translate(16.318125 118.275716)rotate(-90)scale(0.12 -0.12)">
      <defs>
       <path d="M 37.109375 75.984375 
L 37.109375 68.5 
L 28.515625 68.5 
Q 23.6875 68.5 21.796875 66.546875 
Q 19.921875 64.59375 19.921875 59.515625 
L 19.921875 54.6875 
L 34.71875 54.6875 
L 34.71875 47.703125 
L 19.921875 47.703125 
L 19.921875 0 
L 10.890625 0 
L 10.890625 47.703125 
L 2.296875 47.703125 
L 2.296875 54.6875 
L 10.890625 54.6875 
L 10.890625 58.5 
Q 10.890625 67.625 15.140625 71.796875 
Q 19.390625 75.984375 28.609375 75.984375 
z
" id="DejaVuSans-102"/>
       <path d="M 31 75.875 
Q 24.46875 64.65625 21.28125 53.65625 
Q 18.109375 42.671875 18.109375 31.390625 
Q 18.109375 20.125 21.3125 9.0625 
Q 24.515625 -2 31 -13.1875 
L 23.1875 -13.1875 
Q 15.875 -1.703125 12.234375 9.375 
Q 8.59375 20.453125 8.59375 31.390625 
Q 8.59375 42.28125 12.203125 53.3125 
Q 15.828125 64.359375 23.1875 75.875 
z
" id="DejaVuSans-40"/>
       <path d="M 54.890625 54.6875 
L 35.109375 28.078125 
L 55.90625 0 
L 45.3125 0 
L 29.390625 21.484375 
L 13.484375 0 
L 2.875 0 
L 24.125 28.609375 
L 4.6875 54.6875 
L 15.28125 54.6875 
L 29.78125 35.203125 
L 44.28125 54.6875 
z
" id="DejaVuSans-120"/>
       <path d="M 8.015625 75.875 
L 15.828125 75.875 
Q 23.140625 64.359375 26.78125 53.3125 
Q 30.421875 42.28125 30.421875 31.390625 
Q 30.421875 20.453125 26.78125 9.375 
Q 23.140625 -1.703125 15.828125 -13.1875 
L 8.015625 -13.1875 
Q 14.5 -2 17.703125 9.0625 
Q 20.90625 20.125 20.90625 31.390625 
Q 20.90625 42.671875 17.703125 53.65625 
Q 14.5 64.65625 8.015625 75.875 
z
" id="DejaVuSans-41"/>
      </defs>
      <use xlink:href="#DejaVuSans-102"/>
      <use x="35.205078" xlink:href="#DejaVuSans-40"/>
      <use x="74.21875" xlink:href="#DejaVuSans-120"/>
      <use x="133.398438" xlink:href="#DejaVuSans-41"/>
     </g>
    </g>
   </g>
   <g id="line2d_14">
    <path clip-path="url(#p2a020227f0)" d="M 75.430284 89.648782 
L 80.304977 89.536666 
L 85.17967 89.20355 
L 90.054363 88.659059 
L 95.33528 87.849142 
L 101.022422 86.752422 
L 107.522012 85.269972 
L 116.458949 82.975974 
L 131.895477 78.985215 
L 138.395067 77.566028 
L 143.675984 76.630655 
L 148.550677 75.987393 
L 153.019146 75.614991 
L 157.487614 75.475622 
L 161.549858 75.568743 
L 165.612102 75.884456 
L 169.674346 76.432456 
L 173.73659 77.219168 
L 177.798834 78.247561 
L 181.861079 79.51701 
L 185.923323 81.023208 
L 189.985567 82.758122 
L 194.454035 84.916563 
L 198.922504 87.316721 
L 203.797196 90.180191 
L 209.484338 93.79138 
L 216.390153 98.463821 
L 239.13872 114.113346 
L 244.419637 117.330089 
L 248.888106 119.796638 
L 252.95035 121.792701 
L 256.606369 123.359127 
L 260.262389 124.683121 
L 263.512184 125.638754 
L 266.761979 126.371464 
L 270.011775 126.868571 
L 273.26157 127.118909 
L 276.105141 127.127988 
L 278.948712 126.935513 
L 281.792282 126.537267 
L 284.635853 125.930152 
L 287.479424 125.112232 
L 290.322995 124.082768 
L 293.166566 122.842242 
L 296.416361 121.168324 
L 299.666156 119.22561 
L 302.915952 117.020833 
L 306.165747 114.562871 
L 309.821766 111.508804 
L 313.477786 108.167081 
L 317.54003 104.143584 
L 322.008499 99.380591 
L 326.883192 93.841758 
L 332.570333 87.026825 
L 340.288597 77.400271 
L 353.287778 61.155423 
L 358.97492 54.431538 
L 363.443388 49.462055 
L 367.505632 45.2525 
L 371.161652 41.761092 
L 374.817671 38.590304 
L 378.067467 36.069802 
L 381.317262 33.854167 
L 384.160833 32.182669 
L 387.004404 30.774564 
L 389.847975 29.641999 
L 392.285321 28.898804 
L 394.722667 28.372088 
L 397.160014 28.067124 
L 399.59736 27.98838 
L 402.034707 28.139495 
L 404.472053 28.52325 
L 406.9094 29.14155 
L 409.346746 29.995402 
L 411.784092 31.084902 
L 414.221439 32.409222 
L 416.658785 33.9666 
L 419.502356 36.074453 
L 422.345927 38.489922 
L 425.189498 41.205382 
L 428.033069 44.211499 
L 431.282864 47.988751 
L 434.532659 52.112096 
L 438.188679 57.137289 
L 441.844699 62.537826 
L 445.906943 68.931141 
L 450.375411 76.373116 
L 455.656328 85.607256 
L 462.562143 98.15723 
L 477.998671 126.362219 
L 481.248466 132.022434 
L 481.248466 132.022434 
" style="fill:none;stroke:#000000;stroke-linecap:square;stroke-width:1.5;"/>
   </g>
   <g id="line2d_15">
    <path clip-path="url(#p2a020227f0)" d="M 75.430284 96.241912 
L 81.52365 95.793823 
L 86.804567 95.618489 
L 92.491709 95.658916 
L 98.9913 95.946421 
L 107.928237 96.592324 
L 123.364764 97.72596 
L 131.083028 98.048336 
L 137.988843 98.109695 
L 144.488433 97.939377 
L 150.581799 97.563943 
L 156.675165 96.975664 
L 163.174756 96.121312 
L 170.080571 94.984892 
L 179.017508 93.26372 
L 192.016689 90.750845 
L 197.297606 89.984213 
L 201.35985 89.61321 
L 205.01587 89.506875 
L 208.265665 89.641859 
L 211.109236 89.972441 
L 213.952807 90.531982 
L 216.390153 91.21536 
L 218.827499 92.104187 
L 221.264846 93.212318 
L 223.702192 94.549772 
L 226.139539 96.120893 
L 228.98311 98.244064 
L 231.82668 100.658184 
L 235.076476 103.724669 
L 239.13872 107.908713 
L 246.044535 115.444666 
L 251.325452 121.066216 
L 254.981472 124.636052 
L 257.825042 127.132144 
L 260.668613 129.323827 
L 263.10596 130.927803 
L 265.543306 132.259759 
L 267.980653 133.313594 
L 270.417999 134.093659 
L 272.855346 134.611872 
L 275.292692 134.885439 
L 277.730038 134.934911 
L 280.167385 134.782746 
L 283.010956 134.381419 
L 286.260751 133.672578 
L 289.916771 132.61885 
L 293.979015 131.210275 
L 299.259932 129.135865 
L 322.820947 119.560979 
L 328.914314 117.472199 
L 335.00768 115.620293 
L 341.101046 114.006045 
L 347.194412 112.618612 
L 353.694002 111.368507 
L 360.599817 110.271623 
L 367.911857 109.334218 
L 376.036345 108.517913 
L 385.379506 107.813728 
L 395.941341 107.247629 
L 408.534297 106.799944 
L 424.783273 106.459064 
L 447.125616 106.232256 
L 481.248466 106.114811 
L 481.248466 106.114811 
" style="fill:none;stroke:#1f77b4;stroke-linecap:square;stroke-width:1.5;"/>
   </g>
   <g id="patch_3">
    <path d="M 55.139375 206.766767 
L 55.139375 9.09404 
" style="fill:none;stroke:#000000;stroke-linecap:square;stroke-linejoin:miter;stroke-width:0.8;"/>
   </g>
   <g id="patch_4">
    <path d="M 501.539375 206.766767 
L 501.539375 9.09404 
" style="fill:none;stroke:#000000;stroke-linecap:square;stroke-linejoin:miter;stroke-width:0.8;"/>
   </g>
   <g id="patch_5">
    <path d="M 55.139375 206.766767 
L 501.539375 206.766767 
" style="fill:none;stroke:#000000;stroke-linecap:square;stroke-linejoin:miter;stroke-width:0.8;"/>
   </g>
   <g id="patch_6">
    <path d="M 55.139375 9.09404 
L 501.539375 9.09404 
" style="fill:none;stroke:#000000;stroke-linecap:square;stroke-linejoin:miter;stroke-width:0.8;"/>
   </g>
   <g id="legend_1">
    <g id="patch_7">
     <path d="M 63.539375 200.766767 
L 141.254375 200.766767 
Q 143.654375 200.766767 143.654375 198.366767 
L 143.654375 146.725517 
Q 143.654375 144.325517 141.254375 144.325517 
L 63.539375 144.325517 
Q 61.139375 144.325517 61.139375 146.725517 
L 61.139375 198.366767 
Q 61.139375 200.766767 63.539375 200.766767 
z
" style="fill:#ffffff;opacity:0.8;stroke:#cccccc;stroke-linejoin:miter;"/>
    </g>
    <g id="line2d_16">
     <path d="M 65.939375 154.043642 
L 89.939375 154.043642 
" style="fill:none;stroke:#1f77b4;stroke-linecap:square;stroke-width:1.5;"/>
    </g>
    <g id="line2d_17"/>
    <g id="text_15">
     <!-- GP -->
     <g transform="translate(99.539375 158.243642)scale(0.12 -0.12)">
      <defs>
       <path d="M 59.515625 10.40625 
L 59.515625 29.984375 
L 43.40625 29.984375 
L 43.40625 38.09375 
L 69.28125 38.09375 
L 69.28125 6.78125 
Q 63.578125 2.734375 56.6875 0.65625 
Q 49.8125 -1.421875 42 -1.421875 
Q 24.90625 -1.421875 15.25 8.5625 
Q 5.609375 18.5625 5.609375 36.375 
Q 5.609375 54.25 15.25 64.234375 
Q 24.90625 74.21875 42 74.21875 
Q 49.125 74.21875 55.546875 72.453125 
Q 61.96875 70.703125 67.390625 67.28125 
L 67.390625 56.78125 
Q 61.921875 61.421875 55.765625 63.765625 
Q 49.609375 66.109375 42.828125 66.109375 
Q 29.4375 66.109375 22.71875 58.640625 
Q 16.015625 51.171875 16.015625 36.375 
Q 16.015625 21.625 22.71875 14.15625 
Q 29.4375 6.6875 42.828125 6.6875 
Q 48.046875 6.6875 52.140625 7.59375 
Q 56.25 8.5 59.515625 10.40625 
z
" id="DejaVuSans-71"/>
       <path d="M 19.671875 64.796875 
L 19.671875 37.40625 
L 32.078125 37.40625 
Q 38.96875 37.40625 42.71875 40.96875 
Q 46.484375 44.53125 46.484375 51.125 
Q 46.484375 57.671875 42.71875 61.234375 
Q 38.96875 64.796875 32.078125 64.796875 
z
M 9.8125 72.90625 
L 32.078125 72.90625 
Q 44.34375 72.90625 50.609375 67.359375 
Q 56.890625 61.8125 56.890625 51.125 
Q 56.890625 40.328125 50.609375 34.8125 
Q 44.34375 29.296875 32.078125 29.296875 
L 19.671875 29.296875 
L 19.671875 0 
L 9.8125 0 
z
" id="DejaVuSans-80"/>
      </defs>
      <use xlink:href="#DejaVuSans-71"/>
      <use x="77.490234" xlink:href="#DejaVuSans-80"/>
     </g>
    </g>
    <g id="PathCollection_3">
     <g>
      <use style="stroke:#000000;" x="77.939375" xlink:href="#m4edd7c164b" y="172.707392"/>
     </g>
    </g>
    <g id="text_16">
     <!-- known -->
     <g transform="translate(99.539375 175.857392)scale(0.12 -0.12)">
      <defs>
       <path d="M 9.078125 75.984375 
L 18.109375 75.984375 
L 18.109375 31.109375 
L 44.921875 54.6875 
L 56.390625 54.6875 
L 27.390625 29.109375 
L 57.625 0 
L 45.90625 0 
L 18.109375 26.703125 
L 18.109375 0 
L 9.078125 0 
z
" id="DejaVuSans-107"/>
       <path d="M 54.890625 33.015625 
L 54.890625 0 
L 45.90625 0 
L 45.90625 32.71875 
Q 45.90625 40.484375 42.875 44.328125 
Q 39.84375 48.1875 33.796875 48.1875 
Q 26.515625 48.1875 22.3125 43.546875 
Q 18.109375 38.921875 18.109375 30.90625 
L 18.109375 0 
L 9.078125 0 
L 9.078125 54.6875 
L 18.109375 54.6875 
L 18.109375 46.1875 
Q 21.34375 51.125 25.703125 53.5625 
Q 30.078125 56 35.796875 56 
Q 45.21875 56 50.046875 50.171875 
Q 54.890625 44.34375 54.890625 33.015625 
z
" id="DejaVuSans-110"/>
       <path d="M 30.609375 48.390625 
Q 23.390625 48.390625 19.1875 42.75 
Q 14.984375 37.109375 14.984375 27.296875 
Q 14.984375 17.484375 19.15625 11.84375 
Q 23.34375 6.203125 30.609375 6.203125 
Q 37.796875 6.203125 41.984375 11.859375 
Q 46.1875 17.53125 46.1875 27.296875 
Q 46.1875 37.015625 41.984375 42.703125 
Q 37.796875 48.390625 30.609375 48.390625 
z
M 30.609375 56 
Q 42.328125 56 49.015625 48.375 
Q 55.71875 40.765625 55.71875 27.296875 
Q 55.71875 13.875 49.015625 6.21875 
Q 42.328125 -1.421875 30.609375 -1.421875 
Q 18.84375 -1.421875 12.171875 6.21875 
Q 5.515625 13.875 5.515625 27.296875 
Q 5.515625 40.765625 12.171875 48.375 
Q 18.84375 56 30.609375 56 
z
" id="DejaVuSans-111"/>
       <path d="M 4.203125 54.6875 
L 13.1875 54.6875 
L 24.421875 12.015625 
L 35.59375 54.6875 
L 46.1875 54.6875 
L 57.421875 12.015625 
L 68.609375 54.6875 
L 77.59375 54.6875 
L 63.28125 0 
L 52.6875 0 
L 40.921875 44.828125 
L 29.109375 0 
L 18.5 0 
z
" id="DejaVuSans-119"/>
      </defs>
      <use xlink:href="#DejaVuSans-107"/>
      <use x="57.910156" xlink:href="#DejaVuSans-110"/>
      <use x="121.289062" xlink:href="#DejaVuSans-111"/>
      <use x="182.470703" xlink:href="#DejaVuSans-119"/>
      <use x="264.257812" xlink:href="#DejaVuSans-110"/>
     </g>
    </g>
    <g id="PathCollection_4">
     <g>
      <use style="fill:#ff0000;stroke:#ff0000;" x="77.939375" xlink:href="#m964293c029" y="190.321142"/>
     </g>
    </g>
    <g id="text_17">
     <!-- next -->
     <g transform="translate(99.539375 193.471142)scale(0.12 -0.12)">
      <defs>
       <path d="M 56.203125 29.59375 
L 56.203125 25.203125 
L 14.890625 25.203125 
Q 15.484375 15.921875 20.484375 11.0625 
Q 25.484375 6.203125 34.421875 6.203125 
Q 39.59375 6.203125 44.453125 7.46875 
Q 49.3125 8.734375 54.109375 11.28125 
L 54.109375 2.78125 
Q 49.265625 0.734375 44.1875 -0.34375 
Q 39.109375 -1.421875 33.890625 -1.421875 
Q 20.796875 -1.421875 13.15625 6.1875 
Q 5.515625 13.8125 5.515625 26.8125 
Q 5.515625 40.234375 12.765625 48.109375 
Q 20.015625 56 32.328125 56 
Q 43.359375 56 49.78125 48.890625 
Q 56.203125 41.796875 56.203125 29.59375 
z
M 47.21875 32.234375 
Q 47.125 39.59375 43.09375 43.984375 
Q 39.0625 48.390625 32.421875 48.390625 
Q 24.90625 48.390625 20.390625 44.140625 
Q 15.875 39.890625 15.1875 32.171875 
z
" id="DejaVuSans-101"/>
       <path d="M 18.3125 70.21875 
L 18.3125 54.6875 
L 36.8125 54.6875 
L 36.8125 47.703125 
L 18.3125 47.703125 
L 18.3125 18.015625 
Q 18.3125 11.328125 20.140625 9.421875 
Q 21.96875 7.515625 27.59375 7.515625 
L 36.8125 7.515625 
L 36.8125 0 
L 27.59375 0 
Q 17.1875 0 13.234375 3.875 
Q 9.28125 7.765625 9.28125 18.015625 
L 9.28125 47.703125 
L 2.6875 47.703125 
L 2.6875 54.6875 
L 9.28125 54.6875 
L 9.28125 70.21875 
z
" id="DejaVuSans-116"/>
      </defs>
      <use xlink:href="#DejaVuSans-110"/>
      <use x="63.378906" xlink:href="#DejaVuSans-101"/>
      <use x="123.152344" xlink:href="#DejaVuSans-120"/>
      <use x="182.332031" xlink:href="#DejaVuSans-116"/>
     </g>
    </g>
   </g>
  </g>
  <g id="axes_2">
   <g id="patch_8">
    <path d="M 55.139375 443.97404 
L 501.539375 443.97404 
L 501.539375 246.301313 
L 55.139375 246.301313 
z
" style="fill:#ffffff;"/>
   </g>
   <g id="matplotlib.axis_3">
    <g id="xtick_7">
     <g id="line2d_18">
      <g>
       <use style="stroke:#000000;stroke-width:0.8;" x="75.430284" xlink:href="#m4d30279198" y="443.97404"/>
      </g>
     </g>
     <g id="text_18">
      <!-- 0.0 -->
      <g transform="translate(65.888409 460.092165)scale(0.12 -0.12)">
       <defs>
        <path d="M 10.6875 12.40625 
L 21 12.40625 
L 21 0 
L 10.6875 0 
z
" id="DejaVuSans-46"/>
       </defs>
       <use xlink:href="#DejaVuSans-48"/>
       <use x="63.623047" xlink:href="#DejaVuSans-46"/>
       <use x="95.410156" xlink:href="#DejaVuSans-48"/>
      </g>
     </g>
    </g>
    <g id="xtick_8">
     <g id="line2d_19">
      <g>
       <use style="stroke:#000000;stroke-width:0.8;" x="156.59392" xlink:href="#m4d30279198" y="443.97404"/>
      </g>
     </g>
     <g id="text_19">
      <!-- 0.2 -->
      <g transform="translate(147.052045 460.092165)scale(0.12 -0.12)">
       <use xlink:href="#DejaVuSans-48"/>
       <use x="63.623047" xlink:href="#DejaVuSans-46"/>
       <use x="95.410156" xlink:href="#DejaVuSans-50"/>
      </g>
     </g>
    </g>
    <g id="xtick_9">
     <g id="line2d_20">
      <g>
       <use style="stroke:#000000;stroke-width:0.8;" x="237.757557" xlink:href="#m4d30279198" y="443.97404"/>
      </g>
     </g>
     <g id="text_20">
      <!-- 0.4 -->
      <g transform="translate(228.215682 460.092165)scale(0.12 -0.12)">
       <use xlink:href="#DejaVuSans-48"/>
       <use x="63.623047" xlink:href="#DejaVuSans-46"/>
       <use x="95.410156" xlink:href="#DejaVuSans-52"/>
      </g>
     </g>
    </g>
    <g id="xtick_10">
     <g id="line2d_21">
      <g>
       <use style="stroke:#000000;stroke-width:0.8;" x="318.921193" xlink:href="#m4d30279198" y="443.97404"/>
      </g>
     </g>
     <g id="text_21">
      <!-- 0.6 -->
      <g transform="translate(309.379318 460.092165)scale(0.12 -0.12)">
       <use xlink:href="#DejaVuSans-48"/>
       <use x="63.623047" xlink:href="#DejaVuSans-46"/>
       <use x="95.410156" xlink:href="#DejaVuSans-54"/>
      </g>
     </g>
    </g>
    <g id="xtick_11">
     <g id="line2d_22">
      <g>
       <use style="stroke:#000000;stroke-width:0.8;" x="400.08483" xlink:href="#m4d30279198" y="443.97404"/>
      </g>
     </g>
     <g id="text_22">
      <!-- 0.8 -->
      <g transform="translate(390.542955 460.092165)scale(0.12 -0.12)">
       <use xlink:href="#DejaVuSans-48"/>
       <use x="63.623047" xlink:href="#DejaVuSans-46"/>
       <use x="95.410156" xlink:href="#DejaVuSans-56"/>
      </g>
     </g>
    </g>
    <g id="xtick_12">
     <g id="line2d_23">
      <g>
       <use style="stroke:#000000;stroke-width:0.8;" x="481.248466" xlink:href="#m4d30279198" y="443.97404"/>
      </g>
     </g>
     <g id="text_23">
      <!-- 1.0 -->
      <g transform="translate(471.706591 460.092165)scale(0.12 -0.12)">
       <use xlink:href="#DejaVuSans-49"/>
       <use x="63.623047" xlink:href="#DejaVuSans-46"/>
       <use x="95.410156" xlink:href="#DejaVuSans-48"/>
      </g>
     </g>
    </g>
    <g id="text_24">
     <!-- x -->
     <g transform="translate(274.788125 475.705915)scale(0.12 -0.12)">
      <use xlink:href="#DejaVuSans-120"/>
     </g>
    </g>
   </g>
   <g id="matplotlib.axis_4">
    <g id="ytick_8">
     <g id="line2d_24">
      <g>
       <use style="stroke:#000000;stroke-width:0.8;" x="55.139375" xlink:href="#mfb58a7a26b" y="431.188239"/>
      </g>
     </g>
     <g id="text_25">
      <!-- 3 -->
      <g transform="translate(30.44875 435.747301)scale(0.12 -0.12)">
       <defs>
        <path d="M 40.578125 39.3125 
Q 47.65625 37.796875 51.625 33 
Q 55.609375 28.21875 55.609375 21.1875 
Q 55.609375 10.40625 48.1875 4.484375 
Q 40.765625 -1.421875 27.09375 -1.421875 
Q 22.515625 -1.421875 17.65625 -0.515625 
Q 12.796875 0.390625 7.625 2.203125 
L 7.625 11.71875 
Q 11.71875 9.328125 16.59375 8.109375 
Q 21.484375 6.890625 26.8125 6.890625 
Q 36.078125 6.890625 40.9375 10.546875 
Q 45.796875 14.203125 45.796875 21.1875 
Q 45.796875 27.640625 41.28125 31.265625 
Q 36.765625 34.90625 28.71875 34.90625 
L 20.21875 34.90625 
L 20.21875 43.015625 
L 29.109375 43.015625 
Q 36.375 43.015625 40.234375 45.921875 
Q 44.09375 48.828125 44.09375 54.296875 
Q 44.09375 59.90625 40.109375 62.90625 
Q 36.140625 65.921875 28.71875 65.921875 
Q 24.65625 65.921875 20.015625 65.03125 
Q 15.375 64.15625 9.8125 62.3125 
L 9.8125 71.09375 
Q 15.4375 72.65625 20.34375 73.4375 
Q 25.25 74.21875 29.59375 74.21875 
Q 40.828125 74.21875 47.359375 69.109375 
Q 53.90625 64.015625 53.90625 55.328125 
Q 53.90625 49.265625 50.4375 45.09375 
Q 46.96875 40.921875 40.578125 39.3125 
z
" id="DejaVuSans-51"/>
       </defs>
       <use xlink:href="#DejaVuSans-8722"/>
       <use x="83.789062" xlink:href="#DejaVuSans-51"/>
      </g>
     </g>
    </g>
    <g id="ytick_9">
     <g id="line2d_25">
      <g>
       <use style="stroke:#000000;stroke-width:0.8;" x="55.139375" xlink:href="#mfb58a7a26b" y="388.751713"/>
      </g>
     </g>
     <g id="text_26">
      <!-- 2 -->
      <g transform="translate(30.44875 393.310775)scale(0.12 -0.12)">
       <use xlink:href="#DejaVuSans-8722"/>
       <use x="83.789062" xlink:href="#DejaVuSans-50"/>
      </g>
     </g>
    </g>
    <g id="ytick_10">
     <g id="line2d_26">
      <g>
       <use style="stroke:#000000;stroke-width:0.8;" x="55.139375" xlink:href="#mfb58a7a26b" y="346.315187"/>
      </g>
     </g>
     <g id="text_27">
      <!-- 1 -->
      <g transform="translate(30.44875 350.874249)scale(0.12 -0.12)">
       <use xlink:href="#DejaVuSans-8722"/>
       <use x="83.789062" xlink:href="#DejaVuSans-49"/>
      </g>
     </g>
    </g>
    <g id="ytick_11">
     <g id="line2d_27">
      <g>
       <use style="stroke:#000000;stroke-width:0.8;" x="55.139375" xlink:href="#mfb58a7a26b" y="303.878661"/>
      </g>
     </g>
     <g id="text_28">
      <!-- 0 -->
      <g transform="translate(40.504375 308.437723)scale(0.12 -0.12)">
       <use xlink:href="#DejaVuSans-48"/>
      </g>
     </g>
    </g>
    <g id="ytick_12">
     <g id="line2d_28">
      <g>
       <use style="stroke:#000000;stroke-width:0.8;" x="55.139375" xlink:href="#mfb58a7a26b" y="261.442135"/>
      </g>
     </g>
     <g id="text_29">
      <!-- 1 -->
      <g transform="translate(40.504375 266.001197)scale(0.12 -0.12)">
       <use xlink:href="#DejaVuSans-49"/>
      </g>
     </g>
    </g>
    <g id="text_30">
     <!-- Acquisition Function -->
     <g transform="translate(23.953125 405.424551)rotate(-90)scale(0.12 -0.12)">
      <defs>
       <path d="M 34.1875 63.1875 
L 20.796875 26.90625 
L 47.609375 26.90625 
z
M 28.609375 72.90625 
L 39.796875 72.90625 
L 67.578125 0 
L 57.328125 0 
L 50.6875 18.703125 
L 17.828125 18.703125 
L 11.1875 0 
L 0.78125 0 
z
" id="DejaVuSans-65"/>
       <path d="M 48.78125 52.59375 
L 48.78125 44.1875 
Q 44.96875 46.296875 41.140625 47.34375 
Q 37.3125 48.390625 33.40625 48.390625 
Q 24.65625 48.390625 19.8125 42.84375 
Q 14.984375 37.3125 14.984375 27.296875 
Q 14.984375 17.28125 19.8125 11.734375 
Q 24.65625 6.203125 33.40625 6.203125 
Q 37.3125 6.203125 41.140625 7.25 
Q 44.96875 8.296875 48.78125 10.40625 
L 48.78125 2.09375 
Q 45.015625 0.34375 40.984375 -0.53125 
Q 36.96875 -1.421875 32.421875 -1.421875 
Q 20.0625 -1.421875 12.78125 6.34375 
Q 5.515625 14.109375 5.515625 27.296875 
Q 5.515625 40.671875 12.859375 48.328125 
Q 20.21875 56 33.015625 56 
Q 37.15625 56 41.109375 55.140625 
Q 45.0625 54.296875 48.78125 52.59375 
z
" id="DejaVuSans-99"/>
       <path d="M 14.796875 27.296875 
Q 14.796875 17.390625 18.875 11.75 
Q 22.953125 6.109375 30.078125 6.109375 
Q 37.203125 6.109375 41.296875 11.75 
Q 45.40625 17.390625 45.40625 27.296875 
Q 45.40625 37.203125 41.296875 42.84375 
Q 37.203125 48.484375 30.078125 48.484375 
Q 22.953125 48.484375 18.875 42.84375 
Q 14.796875 37.203125 14.796875 27.296875 
z
M 45.40625 8.203125 
Q 42.578125 3.328125 38.25 0.953125 
Q 33.9375 -1.421875 27.875 -1.421875 
Q 17.96875 -1.421875 11.734375 6.484375 
Q 5.515625 14.40625 5.515625 27.296875 
Q 5.515625 40.1875 11.734375 48.09375 
Q 17.96875 56 27.875 56 
Q 33.9375 56 38.25 53.625 
Q 42.578125 51.265625 45.40625 46.390625 
L 45.40625 54.6875 
L 54.390625 54.6875 
L 54.390625 -20.796875 
L 45.40625 -20.796875 
z
" id="DejaVuSans-113"/>
       <path d="M 8.5 21.578125 
L 8.5 54.6875 
L 17.484375 54.6875 
L 17.484375 21.921875 
Q 17.484375 14.15625 20.5 10.265625 
Q 23.53125 6.390625 29.59375 6.390625 
Q 36.859375 6.390625 41.078125 11.03125 
Q 45.3125 15.671875 45.3125 23.6875 
L 45.3125 54.6875 
L 54.296875 54.6875 
L 54.296875 0 
L 45.3125 0 
L 45.3125 8.40625 
Q 42.046875 3.421875 37.71875 1 
Q 33.40625 -1.421875 27.6875 -1.421875 
Q 18.265625 -1.421875 13.375 4.4375 
Q 8.5 10.296875 8.5 21.578125 
z
M 31.109375 56 
z
" id="DejaVuSans-117"/>
       <path d="M 9.421875 54.6875 
L 18.40625 54.6875 
L 18.40625 0 
L 9.421875 0 
z
M 9.421875 75.984375 
L 18.40625 75.984375 
L 18.40625 64.59375 
L 9.421875 64.59375 
z
" id="DejaVuSans-105"/>
       <path d="M 44.28125 53.078125 
L 44.28125 44.578125 
Q 40.484375 46.53125 36.375 47.5 
Q 32.28125 48.484375 27.875 48.484375 
Q 21.1875 48.484375 17.84375 46.4375 
Q 14.5 44.390625 14.5 40.28125 
Q 14.5 37.15625 16.890625 35.375 
Q 19.28125 33.59375 26.515625 31.984375 
L 29.59375 31.296875 
Q 39.15625 29.25 43.1875 25.515625 
Q 47.21875 21.78125 47.21875 15.09375 
Q 47.21875 7.46875 41.1875 3.015625 
Q 35.15625 -1.421875 24.609375 -1.421875 
Q 20.21875 -1.421875 15.453125 -0.5625 
Q 10.6875 0.296875 5.421875 2 
L 5.421875 11.28125 
Q 10.40625 8.6875 15.234375 7.390625 
Q 20.0625 6.109375 24.8125 6.109375 
Q 31.15625 6.109375 34.5625 8.28125 
Q 37.984375 10.453125 37.984375 14.40625 
Q 37.984375 18.0625 35.515625 20.015625 
Q 33.0625 21.96875 24.703125 23.78125 
L 21.578125 24.515625 
Q 13.234375 26.265625 9.515625 29.90625 
Q 5.8125 33.546875 5.8125 39.890625 
Q 5.8125 47.609375 11.28125 51.796875 
Q 16.75 56 26.8125 56 
Q 31.78125 56 36.171875 55.265625 
Q 40.578125 54.546875 44.28125 53.078125 
z
" id="DejaVuSans-115"/>
       <path id="DejaVuSans-32"/>
       <path d="M 9.8125 72.90625 
L 51.703125 72.90625 
L 51.703125 64.59375 
L 19.671875 64.59375 
L 19.671875 43.109375 
L 48.578125 43.109375 
L 48.578125 34.8125 
L 19.671875 34.8125 
L 19.671875 0 
L 9.8125 0 
z
" id="DejaVuSans-70"/>
      </defs>
      <use xlink:href="#DejaVuSans-65"/>
      <use x="66.658203" xlink:href="#DejaVuSans-99"/>
      <use x="121.638672" xlink:href="#DejaVuSans-113"/>
      <use x="185.115234" xlink:href="#DejaVuSans-117"/>
      <use x="248.494141" xlink:href="#DejaVuSans-105"/>
      <use x="276.277344" xlink:href="#DejaVuSans-115"/>
      <use x="328.376953" xlink:href="#DejaVuSans-105"/>
      <use x="356.160156" xlink:href="#DejaVuSans-116"/>
      <use x="395.369141" xlink:href="#DejaVuSans-105"/>
      <use x="423.152344" xlink:href="#DejaVuSans-111"/>
      <use x="484.333984" xlink:href="#DejaVuSans-110"/>
      <use x="547.712891" xlink:href="#DejaVuSans-32"/>
      <use x="579.5" xlink:href="#DejaVuSans-70"/>
      <use x="631.519531" xlink:href="#DejaVuSans-117"/>
      <use x="694.898438" xlink:href="#DejaVuSans-110"/>
      <use x="758.277344" xlink:href="#DejaVuSans-99"/>
      <use x="813.257812" xlink:href="#DejaVuSans-116"/>
      <use x="852.466797" xlink:href="#DejaVuSans-105"/>
      <use x="880.25" xlink:href="#DejaVuSans-111"/>
      <use x="941.431641" xlink:href="#DejaVuSans-110"/>
     </g>
    </g>
   </g>
   <g id="line2d_29">
    <path clip-path="url(#pc84dc3c206)" d="M 75.430284 275.239982 
L 79.492528 274.431384 
L 83.148548 273.941627 
L 86.398343 273.713914 
L 90.054363 273.693367 
L 93.710382 273.902704 
L 97.772626 274.361965 
L 102.647319 275.146558 
L 110.365583 276.659828 
L 119.708744 278.449212 
L 124.989662 279.244083 
L 129.864355 279.755642 
L 134.332823 279.997722 
L 138.395067 280.006289 
L 142.457311 279.797858 
L 146.519555 279.361756 
L 150.581799 278.691644 
L 154.644043 277.785691 
L 158.706287 276.647032 
L 162.768531 275.284695 
L 167.237 273.547061 
L 172.111693 271.404344 
L 178.205059 268.461578 
L 190.391791 262.497166 
L 194.047811 260.979242 
L 197.297606 259.868976 
L 200.141177 259.148154 
L 202.578523 258.764239 
L 204.609645 258.640531 
L 206.640767 258.721811 
L 208.671889 259.034102 
L 210.703011 259.603919 
L 212.734133 260.45797 
L 214.359031 261.363536 
L 215.983929 262.480791 
L 217.608826 263.821922 
L 219.639948 265.829932 
L 221.67107 268.223158 
L 223.702192 271.014462 
L 225.733314 274.209648 
L 227.764436 277.805079 
L 230.201783 282.625545 
L 232.639129 287.952097 
L 235.4827 294.716994 
L 239.13872 304.085316 
L 244.825861 319.449514 
L 250.513003 334.621314 
L 253.762798 342.690534 
L 256.606369 349.157216 
L 259.043716 354.145109 
L 261.074838 357.851419 
L 263.10596 361.110837 
L 265.137082 363.899749 
L 266.761979 365.784927 
L 268.386877 367.363433 
L 270.011775 368.640726 
L 271.636672 369.625902 
L 273.26157 370.330703 
L 274.886468 370.76898 
L 276.511365 370.95601 
L 278.136263 370.908194 
L 279.76116 370.642449 
L 281.386058 370.17606 
L 283.41718 369.337215 
L 285.448302 368.2451 
L 287.885649 366.645524 
L 290.322995 364.780587 
L 293.166566 362.335175 
L 296.822585 358.873439 
L 301.697278 353.912454 
L 316.321357 338.793916 
L 321.19605 334.160907 
L 325.664518 330.209335 
L 330.132987 326.567513 
L 334.195231 323.534689 
L 338.257475 320.766129 
L 342.319719 318.255332 
L 346.381963 315.991538 
L 350.850432 313.770236 
L 355.3189 311.810458 
L 359.787368 310.090147 
L 364.662061 308.460266 
L 369.536754 307.060288 
L 374.817671 305.771696 
L 380.504813 304.613563 
L 386.598179 303.59696 
L 393.503994 302.677147 
L 401.222258 301.88411 
L 409.75297 301.231642 
L 419.908581 300.682361 
L 432.095313 300.250731 
L 447.938065 299.92407 
L 470.280407 299.706173 
L 481.248466 299.653496 
L 481.248466 299.653496 
" style="fill:none;stroke:#1f77b4;stroke-linecap:square;stroke-width:1.5;"/>
   </g>
   <g id="line2d_30">
    <path clip-path="url(#pc84dc3c206)" d="M 75.430284 275.887636 
L 81.929875 274.380315 
L 88.429465 273.097356 
L 95.33528 271.968281 
L 103.459768 270.882912 
L 116.865174 269.369928 
L 129.051906 267.905696 
L 137.582618 266.650535 
L 145.300882 265.289928 
L 153.42537 263.619594 
L 162.768531 261.459216 
L 178.205059 257.86482 
L 183.485976 256.878308 
L 187.954445 256.266332 
L 191.610464 255.979638 
L 194.86026 255.93338 
L 197.70383 256.089738 
L 200.547401 256.464213 
L 202.984748 256.986446 
L 205.422094 257.721453 
L 207.859441 258.696835 
L 210.296787 259.942299 
L 212.327909 261.208746 
L 214.359031 262.7013 
L 216.390153 264.43662 
L 218.421275 266.429596 
L 220.452397 268.692915 
L 222.889744 271.779569 
L 225.32709 275.279489 
L 227.764436 279.193464 
L 230.201783 283.510911 
L 233.045354 289.027644 
L 236.295149 295.900609 
L 239.951169 304.236343 
L 244.419637 315.05151 
L 259.44994 352.028329 
L 263.10596 360.153272 
L 266.355755 366.832483 
L 269.199326 372.202976 
L 272.042897 377.10156 
L 274.886468 381.512656 
L 277.323814 384.900816 
L 279.76116 387.927716 
L 282.198507 390.598144 
L 284.635853 392.920025 
L 287.0732 394.903693 
L 289.510546 396.561309 
L 291.947893 397.906755 
L 294.385239 398.954924 
L 296.822585 399.721296 
L 299.259932 400.222322 
L 301.697278 400.474434 
L 304.134625 400.494264 
L 306.571971 400.298336 
L 309.415542 399.818911 
L 312.259113 399.093354 
L 315.102684 398.146422 
L 318.352479 396.823275 
L 322.008499 395.067518 
L 326.070743 392.837141 
L 330.539211 390.108814 
L 335.820128 386.602981 
L 342.319719 382.006711 
L 354.100227 373.339624 
L 365.47451 365.081628 
L 373.192774 359.749148 
L 380.098589 355.240194 
L 386.598179 351.25533 
L 393.09777 347.538533 
L 399.191136 344.303969 
L 405.284502 341.311601 
L 411.377868 338.557236 
L 417.471234 336.03348 
L 423.970825 333.584507 
L 430.470415 331.372767 
L 437.37623 329.265578 
L 444.282045 327.389688 
L 451.594084 325.63406 
L 459.312348 324.013688 
L 467.436836 322.53876 
L 475.967549 321.214668 
L 481.248466 320.497341 
L 481.248466 320.497341 
" style="fill:none;stroke:#ff7f0e;stroke-linecap:square;stroke-width:1.5;"/>
   </g>
   <g id="line2d_31">
    <path clip-path="url(#pc84dc3c206)" d="M 75.430284 276.769377 
L 83.960997 273.951549 
L 92.085485 271.500304 
L 100.616197 269.163692 
L 109.959359 266.840314 
L 121.333642 264.262012 
L 133.520374 261.718716 
L 145.300882 259.45823 
L 155.050268 257.792479 
L 163.174756 256.627249 
L 169.674346 255.905738 
L 175.361488 255.478753 
L 180.642405 255.295462 
L 185.517098 255.344148 
L 189.985567 255.602998 
L 194.454035 256.094392 
L 198.516279 256.766285 
L 202.172299 257.577721 
L 205.422094 258.497255 
L 208.265665 259.498457 
L 211.109236 260.73787 
L 213.546582 262.040094 
L 215.983929 263.61092 
L 218.015051 265.158193 
L 220.046173 266.95003 
L 222.077295 269.009135 
L 224.108417 271.355501 
L 226.139539 274.004991 
L 228.576885 277.597568 
L 231.014232 281.64455 
L 233.451578 286.136304 
L 236.295149 291.91215 
L 239.13872 298.217028 
L 242.388515 305.988157 
L 246.044535 315.316312 
L 250.919228 328.413658 
L 264.324633 364.829127 
L 268.386877 375.050347 
L 272.042897 383.668364 
L 275.292692 390.802157 
L 278.542487 397.403401 
L 281.386058 402.72452 
L 284.229629 407.61244 
L 287.0732 412.064492 
L 289.916771 416.0828 
L 292.760341 419.673111 
L 295.197688 422.41706 
L 297.635034 424.860414 
L 300.072381 427.011508 
L 302.509727 428.880543 
L 304.947074 430.476886 
L 307.38442 431.811587 
L 309.821766 432.895876 
L 312.259113 433.741085 
L 314.696459 434.359254 
L 317.133806 434.762422 
L 319.571152 434.96176 
L 322.414723 434.953079 
L 325.258294 434.701918 
L 328.101865 434.227198 
L 331.35166 433.432416 
L 334.601455 432.393939 
L 337.851251 431.136355 
L 341.50727 429.488351 
L 345.569514 427.405368 
L 350.037983 424.854505 
L 354.912676 421.818378 
L 360.599817 418.018045 
L 367.911857 412.849501 
L 379.692364 404.198662 
L 394.316443 393.515915 
L 403.25338 387.266729 
L 410.971644 382.128629 
L 418.283683 377.519187 
L 425.189498 373.415435 
L 432.095313 369.564053 
L 439.001128 365.96879 
L 445.906943 362.628547 
L 452.812757 359.538579 
L 459.718572 356.691142 
L 466.624387 354.076491 
L 473.936427 351.549207 
L 481.248466 349.255681 
L 481.248466 349.255681 
" style="fill:none;stroke:#2ca02c;stroke-linecap:square;stroke-width:1.5;"/>
   </g>
   <g id="patch_9">
    <path d="M 55.139375 443.97404 
L 55.139375 246.301313 
" style="fill:none;stroke:#000000;stroke-linecap:square;stroke-linejoin:miter;stroke-width:0.8;"/>
   </g>
   <g id="patch_10">
    <path d="M 501.539375 443.97404 
L 501.539375 246.301313 
" style="fill:none;stroke:#000000;stroke-linecap:square;stroke-linejoin:miter;stroke-width:0.8;"/>
   </g>
   <g id="patch_11">
    <path d="M 55.139375 443.97404 
L 501.539375 443.97404 
" style="fill:none;stroke:#000000;stroke-linecap:square;stroke-linejoin:miter;stroke-width:0.8;"/>
   </g>
   <g id="patch_12">
    <path d="M 55.139375 246.301313 
L 501.539375 246.301313 
" style="fill:none;stroke:#000000;stroke-linecap:square;stroke-linejoin:miter;stroke-width:0.8;"/>
   </g>
  </g>
 </g>
 <defs>
  <clipPath id="p2a020227f0">
   <rect height="197.672727" width="446.4" x="55.139375" y="9.09404"/>
  </clipPath>
  <clipPath id="pc84dc3c206">
   <rect height="197.672727" width="446.4" x="55.139375" y="246.301313"/>
  </clipPath>
 </defs>
</svg>
