<?xml version="1.0" encoding="utf-8" standalone="no"?>
<!DOCTYPE svg PUBLIC "-//W3C//DTD SVG 1.1//EN"
  "http://www.w3.org/Graphics/SVG/1.1/DTD/svg11.dtd">
<!-- Created with matplotlib (https://matplotlib.org/) -->
<svg height="483.5075pt" version="1.1" viewBox="0 0 508.739375 483.5075" width="508.739375pt" xmlns="http://www.w3.org/2000/svg" xmlns:xlink="http://www.w3.org/1999/xlink">
 <metadata>
  <rdf:RDF xmlns:cc="http://creativecommons.org/ns#" xmlns:dc="http://purl.org/dc/elements/1.1/" xmlns:rdf="http://www.w3.org/1999/02/22-rdf-syntax-ns#">
   <cc:Work>
    <dc:type rdf:resource="http://purl.org/dc/dcmitype/StillImage"/>
    <dc:date>2020-10-04T19:38:41.693584</dc:date>
    <dc:format>image/svg+xml</dc:format>
    <dc:creator>
     <cc:Agent>
      <dc:title>Matplotlib v3.3.1, https://matplotlib.org/</dc:title>
     </cc:Agent>
    </dc:creator>
   </cc:Work>
  </rdf:RDF>
 </metadata>
 <defs>
  <style type="text/css">*{stroke-linecap:butt;stroke-linejoin:round;}</style>
 </defs>
 <g id="figure_1">
  <g id="patch_1">
   <path d="M 0 483.5075 
L 508.739375 483.5075 
L 508.739375 0 
L 0 0 
z
" style="fill:none;"/>
  </g>
  <g id="axes_1">
   <g id="patch_2">
    <path d="M 55.139375 204.872727 
L 501.539375 204.872727 
L 501.539375 7.2 
L 55.139375 7.2 
z
" style="fill:#ffffff;"/>
   </g>
   <g id="PolyCollection_1">
    <path clip-path="url(#p89be76b90e)" d="M 75.430284 61.844581 
L 75.430284 92.821815 
L 75.836508 92.490308 
L 76.242733 92.164943 
L 76.648957 91.846557 
L 77.055182 91.535204 
L 77.461406 91.231114 
L 77.867631 90.93536 
L 78.273855 90.647782 
L 78.680079 90.369199 
L 79.086304 90.100076 
L 79.492528 89.840924 
L 79.898753 89.592044 
L 80.304977 89.353903 
L 80.711201 89.127482 
L 81.117426 88.912765 
L 81.52365 88.710351 
L 81.929875 88.520884 
L 82.336099 88.34503 
L 82.742323 88.182852 
L 83.148548 88.034491 
L 83.554772 87.901105 
L 83.960997 87.782034 
L 84.367221 87.678471 
L 84.773445 87.589853 
L 85.17967 87.516953 
L 85.585894 87.459235 
L 85.992119 87.417218 
L 86.398343 87.39041 
L 86.804567 87.378787 
L 87.210792 87.382594 
L 87.617016 87.400807 
L 88.023241 87.433882 
L 88.429465 87.480763 
L 88.835689 87.541624 
L 89.241914 87.615703 
L 89.648138 87.702235 
L 90.054363 87.801392 
L 90.460587 87.912123 
L 90.866812 88.034123 
L 91.273036 88.166529 
L 91.67926 88.309494 
L 92.085485 88.461676 
L 92.491709 88.622916 
L 92.897934 88.79281 
L 93.304158 88.970558 
L 93.710382 89.156044 
L 94.116607 89.348137 
L 94.522831 89.547101 
L 94.929056 89.752158 
L 95.33528 89.96265 
L 95.741504 90.178563 
L 96.147729 90.399313 
L 96.553953 90.62463 
L 96.960178 90.854055 
L 97.366402 91.087386 
L 97.772626 91.324178 
L 98.178851 91.564232 
L 98.585075 91.807322 
L 98.9913 92.052851 
L 99.397524 92.300992 
L 99.803748 92.551055 
L 100.209973 92.803335 
L 100.616197 93.05742 
L 101.022422 93.312786 
L 101.428646 93.56973 
L 101.83487 93.827605 
L 102.241095 94.086655 
L 102.647319 94.346428 
L 103.053544 94.607077 
L 103.459768 94.86802 
L 103.865993 95.129652 
L 104.272217 95.391394 
L 104.678441 95.653183 
L 105.084666 95.915133 
L 105.49089 96.17687 
L 105.897115 96.438629 
L 106.303339 96.699892 
L 106.709563 96.960897 
L 107.115788 97.221471 
L 107.522012 97.481309 
L 107.928237 97.740603 
L 108.334461 97.999112 
L 108.740685 98.25689 
L 109.14691 98.513694 
L 109.553134 98.769661 
L 109.959359 99.024583 
L 110.365583 99.27838 
L 110.771807 99.531113 
L 111.178032 99.7826 
L 111.584256 100.032859 
L 111.990481 100.281716 
L 112.396705 100.529311 
L 112.802929 100.775521 
L 113.209154 101.020169 
L 113.615378 101.263448 
L 114.021603 101.505072 
L 114.427827 101.745229 
L 114.834051 101.983625 
L 115.240276 102.220437 
L 115.6465 102.455581 
L 116.052725 102.68898 
L 116.458949 102.920557 
L 116.865174 103.150279 
L 117.271398 103.378266 
L 117.677622 103.604357 
L 118.083847 103.828567 
L 118.490071 104.05083 
L 118.896296 104.271147 
L 119.30252 104.48946 
L 119.708744 104.70578 
L 120.114969 104.920041 
L 120.521193 105.132281 
L 120.927418 105.342496 
L 121.333642 105.550552 
L 121.739866 105.756468 
L 122.146091 105.960306 
L 122.552315 106.161882 
L 122.95854 106.361436 
L 123.364764 106.558651 
L 123.770988 106.7537 
L 124.177213 106.946577 
L 124.583437 107.137083 
L 124.989662 107.325433 
L 125.395886 107.511386 
L 125.80211 107.695153 
L 126.208335 107.876585 
L 126.614559 108.055711 
L 127.020784 108.232541 
L 127.427008 108.406931 
L 127.833232 108.579012 
L 128.239457 108.748721 
L 128.645681 108.916044 
L 129.051906 109.080939 
L 129.45813 109.243513 
L 129.864355 109.403693 
L 130.270579 109.561358 
L 130.676803 109.716737 
L 131.083028 109.869519 
L 131.489252 110.020034 
L 131.895477 110.167989 
L 132.301701 110.313557 
L 132.707925 110.456574 
L 133.11415 110.597216 
L 133.520374 110.73537 
L 133.926599 110.871006 
L 134.332823 111.004201 
L 134.739047 111.134928 
L 135.145272 111.263152 
L 135.551496 111.388868 
L 135.957721 111.512169 
L 136.363945 111.632895 
L 136.770169 111.751103 
L 137.176394 111.866902 
L 137.582618 111.980108 
L 137.988843 112.090889 
L 138.395067 112.199124 
L 138.801291 112.30489 
L 139.207516 112.408126 
L 139.61374 112.508872 
L 140.019965 112.607124 
L 140.426189 112.702811 
L 140.832413 112.7961 
L 141.238638 112.886809 
L 141.644862 112.975064 
L 142.051087 113.06081 
L 142.457311 113.144011 
L 142.863536 113.224839 
L 143.26976 113.303076 
L 143.675984 113.378886 
L 144.082209 113.452176 
L 144.488433 113.523035 
L 144.894658 113.591399 
L 145.300882 113.657294 
L 145.707106 113.720728 
L 146.113331 113.781716 
L 146.519555 113.840249 
L 146.92578 113.896273 
L 147.332004 113.949936 
L 147.738228 114.001163 
L 148.144453 114.049914 
L 148.550677 114.096276 
L 148.956902 114.140211 
L 149.363126 114.181751 
L 149.76935 114.220855 
L 150.175575 114.257616 
L 150.581799 114.292025 
L 150.988024 114.323959 
L 151.394248 114.353608 
L 151.800472 114.380876 
L 152.206697 114.405821 
L 152.612921 114.428353 
L 153.019146 114.44865 
L 153.42537 114.466578 
L 153.831594 114.482209 
L 154.237819 114.495556 
L 154.644043 114.506607 
L 155.050268 114.515386 
L 155.456492 114.521913 
L 155.862717 114.526205 
L 156.268941 114.528217 
L 156.675165 114.528024 
L 157.08139 114.525662 
L 157.487614 114.521053 
L 157.893839 114.514271 
L 158.300063 114.505331 
L 158.706287 114.494224 
L 159.112512 114.480996 
L 159.518736 114.465572 
L 159.924961 114.448126 
L 160.331185 114.42849 
L 160.737409 114.406817 
L 161.143634 114.383086 
L 161.549858 114.357277 
L 161.956083 114.329444 
L 162.362307 114.29959 
L 162.768531 114.267786 
L 163.174756 114.233953 
L 163.58098 114.198118 
L 163.987205 114.160362 
L 164.393429 114.120718 
L 164.799653 114.07911 
L 165.205878 114.035567 
L 165.612102 113.990242 
L 166.018327 113.943041 
L 166.424551 113.893983 
L 166.830775 113.843096 
L 167.237 113.790451 
L 167.643224 113.73599 
L 168.049449 113.679783 
L 168.455673 113.621877 
L 168.861898 113.562197 
L 169.268122 113.500893 
L 169.674346 113.437846 
L 170.080571 113.373268 
L 170.486795 113.306956 
L 170.89302 113.239106 
L 171.299244 113.169681 
L 171.705468 113.098674 
L 172.111693 113.026134 
L 172.517917 112.952126 
L 172.924142 112.876639 
L 173.330366 112.799649 
L 173.73659 112.721274 
L 174.142815 112.641497 
L 174.549039 112.560271 
L 174.955264 112.477816 
L 175.361488 112.393985 
L 175.767712 112.308904 
L 176.173937 112.222473 
L 176.580161 112.134819 
L 176.986386 112.045998 
L 177.39261 111.955975 
L 177.798834 111.864748 
L 178.205059 111.772485 
L 178.611283 111.67909 
L 179.017508 111.584663 
L 179.423732 111.489238 
L 179.829956 111.392684 
L 180.236181 111.295216 
L 180.642405 111.196839 
L 181.04863 111.097574 
L 181.454854 110.997426 
L 181.861079 110.896468 
L 182.267303 110.794636 
L 182.673527 110.692018 
L 183.079752 110.588765 
L 183.485976 110.484771 
L 183.892201 110.380094 
L 184.298425 110.274793 
L 184.704649 110.168919 
L 185.110874 110.062473 
L 185.517098 109.955523 
L 185.923323 109.848043 
L 186.329547 109.740159 
L 186.735771 109.631971 
L 187.141996 109.52327 
L 187.54822 109.414286 
L 187.954445 109.305063 
L 188.360669 109.19555 
L 188.766893 109.085941 
L 189.173118 108.97609 
L 189.579342 108.866043 
L 189.985567 108.756039 
L 190.391791 108.645971 
L 190.798015 108.535981 
L 191.20424 108.425965 
L 191.610464 108.316115 
L 192.016689 108.206347 
L 192.422913 108.096862 
L 192.829137 107.987536 
L 193.235362 107.878578 
L 193.641586 107.769957 
L 194.047811 107.661703 
L 194.454035 107.553845 
L 194.86026 107.446542 
L 195.266484 107.339813 
L 195.672708 107.233599 
L 196.078933 107.128053 
L 196.485157 107.023173 
L 196.891382 106.919112 
L 197.297606 106.815838 
L 197.70383 106.713475 
L 198.110055 106.611957 
L 198.516279 106.511436 
L 198.922504 106.411994 
L 199.328728 106.313601 
L 199.734952 106.216426 
L 200.141177 106.120322 
L 200.547401 106.025624 
L 200.953626 105.932225 
L 201.35985 105.840271 
L 201.766074 105.749681 
L 202.172299 105.660707 
L 202.578523 105.573294 
L 202.984748 105.48762 
L 203.390972 105.40351 
L 203.797196 105.321308 
L 204.203421 105.240981 
L 204.609645 105.16259 
L 205.01587 105.08619 
L 205.422094 105.011778 
L 205.828318 104.939623 
L 206.234543 104.869688 
L 206.640767 104.802154 
L 207.046992 104.736966 
L 207.453216 104.674116 
L 207.859441 104.613728 
L 208.265665 104.556225 
L 208.671889 104.501272 
L 209.078114 104.449221 
L 209.484338 104.399847 
L 209.890563 104.353503 
L 210.296787 104.310189 
L 210.703011 104.270041 
L 211.109236 104.233009 
L 211.51546 104.199235 
L 211.921685 104.168949 
L 212.327909 104.142047 
L 212.734133 104.118772 
L 213.140358 104.09903 
L 213.546582 104.083051 
L 213.952807 104.071049 
L 214.359031 104.062756 
L 214.765255 104.058558 
L 215.17148 104.058473 
L 215.577704 104.062492 
L 215.983929 104.070847 
L 216.390153 104.083502 
L 216.796377 104.100638 
L 217.202602 104.122182 
L 217.608826 104.148535 
L 218.015051 104.179367 
L 218.421275 104.215072 
L 218.827499 104.255668 
L 219.233724 104.300997 
L 219.639948 104.351416 
L 220.046173 104.407001 
L 220.452397 104.467593 
L 220.858622 104.533365 
L 221.264846 104.604394 
L 221.67107 104.680812 
L 222.077295 104.762344 
L 222.483519 104.84938 
L 222.889744 104.941747 
L 223.295968 105.039549 
L 223.702192 105.142817 
L 224.108417 105.251388 
L 224.514641 105.36544 
L 224.920866 105.485023 
L 225.32709 105.610044 
L 225.733314 105.740344 
L 226.139539 105.876004 
L 226.545763 106.016869 
L 226.951988 106.163009 
L 227.358212 106.314461 
L 227.764436 106.470996 
L 228.170661 106.632325 
L 228.576885 106.79867 
L 228.98311 106.969961 
L 229.389334 107.145736 
L 229.795558 107.326166 
L 230.201783 107.511145 
L 230.608007 107.70037 
L 231.014232 107.893817 
L 231.420456 108.091338 
L 231.82668 108.292627 
L 232.232905 108.49769 
L 232.639129 108.706313 
L 233.045354 108.918344 
L 233.451578 109.133654 
L 233.857803 109.351922 
L 234.264027 109.573288 
L 234.670251 109.79715 
L 235.076476 110.02372 
L 235.4827 110.252681 
L 235.888925 110.483784 
L 236.295149 110.717156 
L 236.701373 110.952192 
L 237.107598 111.18914 
L 237.513822 111.427631 
L 237.920047 111.667534 
L 238.326271 111.908695 
L 238.732495 112.151001 
L 239.13872 112.394299 
L 239.544944 112.638541 
L 239.951169 112.883544 
L 240.357393 113.12911 
L 240.763617 113.375136 
L 241.169842 113.621532 
L 241.576066 113.868272 
L 241.982291 114.115222 
L 242.388515 114.362205 
L 242.794739 114.609155 
L 243.200964 114.85607 
L 243.607188 115.102887 
L 244.013413 115.349257 
L 244.419637 115.595693 
L 244.825861 115.841642 
L 245.232086 116.087258 
L 245.63831 116.33255 
L 246.044535 116.577456 
L 246.450759 116.821863 
L 246.856984 117.065613 
L 247.263208 117.309208 
L 247.669432 117.552278 
L 248.075657 117.794832 
L 248.481881 118.03703 
L 248.888106 118.278895 
L 249.29433 118.52029 
L 249.700554 118.761429 
L 250.106779 119.00222 
L 250.513003 119.24288 
L 250.919228 119.48341 
L 251.325452 119.723785 
L 251.731676 119.964074 
L 252.137901 120.204487 
L 252.544125 120.445104 
L 252.95035 120.685924 
L 253.356574 120.927166 
L 253.762798 121.168888 
L 254.169023 121.411081 
L 254.575247 121.654004 
L 254.981472 121.897675 
L 255.387696 122.142332 
L 255.79392 122.388052 
L 256.200145 122.634948 
L 256.606369 122.883042 
L 257.012594 123.132848 
L 257.418818 123.384024 
L 257.825042 123.636964 
L 258.231267 123.891744 
L 258.637491 124.148561 
L 259.043716 124.407414 
L 259.44994 124.668375 
L 259.856165 124.931821 
L 260.262389 125.197745 
L 260.668613 125.466159 
L 261.074838 125.737295 
L 261.481062 126.011159 
L 261.887287 126.288072 
L 262.293511 126.567788 
L 262.699735 126.850573 
L 263.10596 127.136447 
L 263.512184 127.425482 
L 263.918409 127.717716 
L 264.324633 128.013212 
L 264.730857 128.312148 
L 265.137082 128.614172 
L 265.543306 128.919625 
L 265.949531 129.228438 
L 266.355755 129.540431 
L 266.761979 129.855911 
L 267.168204 130.174595 
L 267.574428 130.496517 
L 267.980653 130.821723 
L 268.386877 131.150095 
L 268.793101 131.481641 
L 269.199326 131.816175 
L 269.60555 132.153771 
L 270.011775 132.494327 
L 270.417999 132.837671 
L 270.824223 133.183888 
L 271.230448 133.532816 
L 271.636672 133.884391 
L 272.042897 134.238483 
L 272.449121 134.595133 
L 272.855346 134.954052 
L 273.26157 135.315276 
L 273.667794 135.678723 
L 274.074019 136.044381 
L 274.480243 136.412033 
L 274.886468 136.781463 
L 275.292692 137.152775 
L 275.698916 137.525784 
L 276.105141 137.900561 
L 276.511365 138.276754 
L 276.91759 138.654489 
L 277.323814 139.033524 
L 277.730038 139.413814 
L 278.136263 139.795369 
L 278.542487 140.178001 
L 278.948712 140.561568 
L 279.354936 140.946136 
L 279.76116 141.331488 
L 280.167385 141.717686 
L 280.573609 142.104502 
L 280.979834 142.491877 
L 281.386058 142.879801 
L 281.792282 143.268206 
L 282.198507 143.656971 
L 282.604731 144.045955 
L 283.010956 144.435283 
L 283.41718 144.824725 
L 283.823404 145.214191 
L 284.229629 145.603732 
L 284.635853 145.993237 
L 285.042078 146.382625 
L 285.448302 146.771862 
L 285.854527 147.160779 
L 286.260751 147.549482 
L 286.666975 147.937826 
L 287.0732 148.325773 
L 287.479424 148.713274 
L 287.885649 149.100232 
L 288.291873 149.48663 
L 288.698097 149.872429 
L 289.104322 150.257564 
L 289.510546 150.64199 
L 289.916771 151.025699 
L 290.322995 151.408548 
L 290.729219 151.790611 
L 291.135444 152.171715 
L 291.541668 152.551976 
L 291.947893 152.931196 
L 292.354117 153.309424 
L 292.760341 153.686644 
L 293.166566 154.06278 
L 293.57279 154.437737 
L 293.979015 154.811566 
L 294.385239 155.184257 
L 294.791463 155.555663 
L 295.197688 155.925837 
L 295.603912 156.294773 
L 296.010137 156.662281 
L 296.416361 157.028532 
L 296.822585 157.393428 
L 297.22881 157.756853 
L 297.635034 158.118909 
L 298.041259 158.479458 
L 298.447483 158.83858 
L 298.853708 159.196216 
L 299.259932 159.552302 
L 299.666156 159.90681 
L 300.072381 160.25976 
L 300.478605 160.611143 
L 300.88483 160.960891 
L 301.291054 161.309043 
L 301.697278 161.655485 
L 302.103503 162.000317 
L 302.509727 162.34343 
L 302.915952 162.684862 
L 303.322176 163.024528 
L 303.7284 163.362455 
L 304.134625 163.698668 
L 304.540849 164.03312 
L 304.947074 164.365777 
L 305.353298 164.696625 
L 305.759522 165.025674 
L 306.165747 165.352905 
L 306.571971 165.678285 
L 306.978196 166.001813 
L 307.38442 166.323509 
L 307.790644 166.643316 
L 308.196869 166.961252 
L 308.603093 167.277319 
L 309.009318 167.591477 
L 309.415542 167.903704 
L 309.821766 168.214061 
L 310.227991 168.522472 
L 310.634215 168.828975 
L 311.04044 169.133523 
L 311.446664 169.436135 
L 311.852889 169.736806 
L 312.259113 170.035465 
L 312.665337 170.332206 
L 313.071562 170.626997 
L 313.477786 170.91981 
L 313.884011 171.210615 
L 314.290235 171.49947 
L 314.696459 171.786341 
L 315.102684 172.07121 
L 315.508908 172.354095 
L 315.915133 172.635006 
L 316.321357 172.913906 
L 316.727581 173.190821 
L 317.133806 173.465707 
L 317.54003 173.738618 
L 317.946255 174.009555 
L 318.352479 174.278452 
L 318.758703 174.545346 
L 319.164928 174.810271 
L 319.571152 175.073152 
L 319.977377 175.334039 
L 320.383601 175.592948 
L 320.789825 175.84984 
L 321.19605 176.10472 
L 321.602274 176.357612 
L 322.008499 176.608501 
L 322.414723 176.857374 
L 322.820947 177.104311 
L 323.227172 177.349222 
L 323.633396 177.592139 
L 324.039621 177.833055 
L 324.445845 178.07201 
L 324.85207 178.308954 
L 325.258294 178.543937 
L 325.664518 178.776961 
L 326.070743 179.007992 
L 326.476967 179.237058 
L 326.883192 179.464155 
L 327.289416 179.689307 
L 327.69564 179.912493 
L 328.101865 180.133715 
L 328.508089 180.353006 
L 328.914314 180.570346 
L 329.320538 180.785754 
L 329.726762 180.999231 
L 330.132987 181.210767 
L 330.539211 181.420385 
L 330.945436 181.628105 
L 331.35166 181.833898 
L 331.757884 182.037774 
L 332.164109 182.239775 
L 332.570333 182.439877 
L 332.976558 182.638077 
L 333.382782 182.834415 
L 333.789006 183.028874 
L 334.195231 183.221444 
L 334.601455 183.412177 
L 335.00768 183.601048 
L 335.413904 183.788065 
L 335.820128 183.973258 
L 336.226353 184.15659 
L 336.632577 184.338114 
L 337.038802 184.517814 
L 337.445026 184.695716 
L 337.851251 184.871789 
L 338.257475 185.046068 
L 338.663699 185.218576 
L 339.069924 185.38928 
L 339.476148 185.558237 
L 339.882373 185.725418 
L 340.288597 185.890823 
L 340.694821 186.054481 
L 341.101046 186.216411 
L 341.50727 186.376593 
L 341.913495 186.535056 
L 342.319719 186.691804 
L 342.725943 186.846839 
L 343.132168 187.000168 
L 343.538392 187.151812 
L 343.944617 187.301755 
L 344.350841 187.45005 
L 344.757065 187.59666 
L 345.16329 187.74163 
L 345.569514 187.884924 
L 345.975739 188.026584 
L 346.381963 188.166619 
L 346.788187 188.30503 
L 347.194412 188.441826 
L 347.600636 188.577015 
L 348.006861 188.710609 
L 348.413085 188.842625 
L 348.819309 188.973045 
L 349.225534 189.101907 
L 349.631758 189.229201 
L 350.037983 189.35495 
L 350.444207 189.47915 
L 350.850432 189.601825 
L 351.256656 189.72297 
L 351.66288 189.842613 
L 352.069105 189.960736 
L 352.475329 190.077375 
L 352.881554 190.192522 
L 353.287778 190.306186 
L 353.694002 190.418386 
L 354.100227 190.529123 
L 354.506451 190.638428 
L 354.912676 190.746269 
L 355.3189 190.852689 
L 355.725124 190.957691 
L 356.131349 191.061277 
L 356.537573 191.16347 
L 356.943798 191.264261 
L 357.350022 191.363677 
L 357.756246 191.461709 
L 358.162471 191.558372 
L 358.568695 191.653684 
L 358.97492 191.747655 
L 359.381144 191.840275 
L 359.787368 191.931582 
L 360.193593 192.021567 
L 360.599817 192.110248 
L 361.006042 192.197617 
L 361.412266 192.28371 
L 361.81849 192.368505 
L 362.224715 192.452039 
L 362.630939 192.534321 
L 363.037164 192.615329 
L 363.443388 192.695108 
L 363.849613 192.773645 
L 364.255837 192.850959 
L 364.662061 192.92706 
L 365.068286 193.001956 
L 365.47451 193.075648 
L 365.880735 193.148168 
L 366.286959 193.219499 
L 366.693183 193.289658 
L 367.099408 193.358656 
L 367.505632 193.426496 
L 367.911857 193.493208 
L 368.318081 193.558782 
L 368.724305 193.623241 
L 369.13053 193.686567 
L 369.536754 193.748801 
L 369.942979 193.809931 
L 370.349203 193.869975 
L 370.755427 193.928937 
L 371.161652 193.986831 
L 371.567876 194.043673 
L 371.974101 194.099461 
L 372.380325 194.154192 
L 372.786549 194.207897 
L 373.192774 194.260574 
L 373.598998 194.312239 
L 374.005223 194.362894 
L 374.411447 194.412552 
L 374.817671 194.46121 
L 375.223896 194.508899 
L 375.63012 194.555605 
L 376.036345 194.601349 
L 376.442569 194.646129 
L 376.848794 194.689983 
L 377.255018 194.732879 
L 377.661242 194.774849 
L 378.067467 194.815898 
L 378.473691 194.856031 
L 378.879916 194.895257 
L 379.28614 194.933586 
L 379.692364 194.971027 
L 380.098589 195.007584 
L 380.504813 195.043278 
L 380.911038 195.078098 
L 381.317262 195.112072 
L 381.723486 195.145188 
L 382.129711 195.177471 
L 382.535935 195.208915 
L 382.94216 195.239536 
L 383.348384 195.269345 
L 383.754608 195.298352 
L 384.160833 195.326541 
L 384.567057 195.353947 
L 384.973282 195.380573 
L 385.379506 195.406415 
L 385.78573 195.431492 
L 386.191955 195.455804 
L 386.598179 195.47937 
L 387.004404 195.50218 
L 387.410628 195.524259 
L 387.816852 195.54561 
L 388.223077 195.566224 
L 388.629301 195.58613 
L 389.035526 195.605332 
L 389.44175 195.623821 
L 389.847975 195.64163 
L 390.254199 195.658735 
L 390.660423 195.67517 
L 391.066648 195.690925 
L 391.472872 195.706028 
L 391.879097 195.720479 
L 392.285321 195.73426 
L 392.691545 195.747403 
L 393.09777 195.759913 
L 393.503994 195.7718 
L 393.910219 195.783049 
L 394.316443 195.793684 
L 394.722667 195.803715 
L 395.128892 195.813146 
L 395.535116 195.821968 
L 395.941341 195.830209 
L 396.347565 195.837869 
L 396.753789 195.844963 
L 397.160014 195.851475 
L 397.566238 195.85743 
L 397.972463 195.862828 
L 398.378687 195.867674 
L 398.784911 195.871976 
L 399.191136 195.87574 
L 399.59736 195.87898 
L 400.003585 195.881691 
L 400.409809 195.883877 
L 400.816033 195.885573 
L 401.222258 195.886744 
L 401.628482 195.887429 
L 402.034707 195.887603 
L 402.440931 195.887296 
L 402.847156 195.886517 
L 403.25338 195.885261 
L 403.659604 195.883532 
L 404.065829 195.881341 
L 404.472053 195.878682 
L 404.878278 195.875579 
L 405.284502 195.872028 
L 405.690726 195.868033 
L 406.096951 195.863612 
L 406.503175 195.858758 
L 406.9094 195.853482 
L 407.315624 195.847777 
L 407.721848 195.841666 
L 408.128073 195.835149 
L 408.534297 195.828235 
L 408.940522 195.820915 
L 409.346746 195.813208 
L 409.75297 195.805113 
L 410.159195 195.796646 
L 410.565419 195.787795 
L 410.971644 195.778567 
L 411.377868 195.76899 
L 411.784092 195.759053 
L 412.190317 195.748753 
L 412.596541 195.738094 
L 413.002766 195.72711 
L 413.40899 195.715766 
L 413.815214 195.704096 
L 414.221439 195.692105 
L 414.627663 195.679775 
L 415.033888 195.667132 
L 415.440112 195.654164 
L 415.846337 195.640893 
L 416.252561 195.62732 
L 416.658785 195.613436 
L 417.06501 195.599259 
L 417.471234 195.584779 
L 417.877459 195.570021 
L 418.283683 195.554975 
L 418.689907 195.539645 
L 419.096132 195.52406 
L 419.502356 195.508188 
L 419.908581 195.492041 
L 420.314805 195.475653 
L 420.721029 195.458997 
L 421.127254 195.44209 
L 421.533478 195.424932 
L 421.939703 195.407525 
L 422.345927 195.389872 
L 422.752151 195.371996 
L 423.158376 195.353876 
L 423.5646 195.335528 
L 423.970825 195.316959 
L 424.377049 195.298158 
L 424.783273 195.27915 
L 425.189498 195.259928 
L 425.595722 195.2405 
L 426.001947 195.220853 
L 426.408171 195.201009 
L 426.814395 195.180971 
L 427.22062 195.160739 
L 427.626844 195.140319 
L 428.033069 195.119704 
L 428.439293 195.098911 
L 428.845518 195.077928 
L 429.251742 195.056771 
L 429.657966 195.035434 
L 430.064191 195.013936 
L 430.470415 194.992269 
L 430.87664 194.970436 
L 431.282864 194.948443 
L 431.689088 194.926299 
L 432.095313 194.903998 
L 432.501537 194.881547 
L 432.907762 194.858949 
L 433.313986 194.836205 
L 433.72021 194.813329 
L 434.126435 194.790311 
L 434.532659 194.76716 
L 434.938884 194.743859 
L 435.345108 194.720449 
L 435.751332 194.696906 
L 436.157557 194.673246 
L 436.563781 194.649458 
L 436.970006 194.625562 
L 437.37623 194.601557 
L 437.782454 194.577415 
L 438.188679 194.553183 
L 438.594903 194.528856 
L 439.001128 194.504412 
L 439.407352 194.479864 
L 439.813576 194.455235 
L 440.219801 194.430498 
L 440.626025 194.405662 
L 441.03225 194.380755 
L 441.438474 194.355767 
L 441.844699 194.330667 
L 442.250923 194.305505 
L 442.657147 194.280253 
L 443.063372 194.254935 
L 443.469596 194.229532 
L 443.875821 194.204063 
L 444.282045 194.178523 
L 444.688269 194.152917 
L 445.094494 194.127244 
L 445.500718 194.101501 
L 445.906943 194.075716 
L 446.313167 194.049864 
L 446.719391 194.023951 
L 447.125616 193.997986 
L 447.53184 193.971974 
L 447.938065 193.945914 
L 448.344289 193.919803 
L 448.750513 193.893658 
L 449.156738 193.867453 
L 449.562962 193.841209 
L 449.969187 193.814942 
L 450.375411 193.788627 
L 450.781635 193.76227 
L 451.18786 193.73588 
L 451.594084 193.709471 
L 452.000309 193.683025 
L 452.406533 193.65655 
L 452.812757 193.630056 
L 453.218982 193.603543 
L 453.625206 193.576997 
L 454.031431 193.550432 
L 454.437655 193.523858 
L 454.84388 193.49726 
L 455.250104 193.470658 
L 455.656328 193.444027 
L 456.062553 193.417386 
L 456.468777 193.390741 
L 456.875002 193.364087 
L 457.281226 193.337432 
L 457.68745 193.310768 
L 458.093675 193.2841 
L 458.499899 193.257431 
L 458.906124 193.230753 
L 459.312348 193.204089 
L 459.718572 193.17742 
L 460.124797 193.150766 
L 460.531021 193.124102 
L 460.937246 193.097452 
L 461.34347 193.070812 
L 461.749694 193.04419 
L 462.155919 193.017574 
L 462.562143 192.990962 
L 462.968368 192.964383 
L 463.374592 192.937804 
L 463.780816 192.911229 
L 464.187041 192.884693 
L 464.593265 192.858171 
L 464.99949 192.831677 
L 465.405714 192.805192 
L 465.811938 192.778727 
L 466.218163 192.752299 
L 466.624387 192.72589 
L 467.030612 192.699509 
L 467.436836 192.673157 
L 467.843061 192.646824 
L 468.249285 192.620528 
L 468.655509 192.59427 
L 469.061734 192.568031 
L 469.467958 192.541835 
L 469.874183 192.515676 
L 470.280407 192.489546 
L 470.686631 192.463449 
L 471.092856 192.437385 
L 471.49908 192.411377 
L 471.905305 192.385389 
L 472.311529 192.359452 
L 472.717753 192.333553 
L 473.123978 192.307692 
L 473.530202 192.281888 
L 473.936427 192.256111 
L 474.342651 192.230378 
L 474.748875 192.204701 
L 475.1551 192.179071 
L 475.561324 192.153484 
L 475.967549 192.127939 
L 476.373773 192.102456 
L 476.779997 192.077011 
L 477.186222 192.051617 
L 477.592446 192.026275 
L 477.998671 192.00099 
L 478.404895 191.975748 
L 478.811119 191.950567 
L 479.217344 191.925447 
L 479.623568 191.90037 
L 480.029793 191.875354 
L 480.436017 191.850386 
L 480.842242 191.825469 
L 481.248466 191.800633 
L 481.248466 16.185124 
L 481.248466 16.185124 
L 480.842242 16.230546 
L 480.436017 16.276261 
L 480.029793 16.322278 
L 479.623568 16.368579 
L 479.217344 16.415182 
L 478.811119 16.462078 
L 478.404895 16.509266 
L 477.998671 16.556766 
L 477.592446 16.60454 
L 477.186222 16.652655 
L 476.779997 16.701052 
L 476.373773 16.749752 
L 475.967549 16.798791 
L 475.561324 16.848115 
L 475.1551 16.897759 
L 474.748875 16.947715 
L 474.342651 16.998011 
L 473.936427 17.048581 
L 473.530202 17.0995 
L 473.123978 17.15075 
L 472.717753 17.202302 
L 472.311529 17.254194 
L 471.905305 17.306427 
L 471.49908 17.358952 
L 471.092856 17.411845 
L 470.686631 17.46506 
L 470.280407 17.518595 
L 469.874183 17.572499 
L 469.467958 17.626734 
L 469.061734 17.681299 
L 468.655509 17.736233 
L 468.249285 17.791488 
L 467.843061 17.847101 
L 467.436836 17.903055 
L 467.030612 17.959386 
L 466.624387 18.016048 
L 466.218163 18.073079 
L 465.811938 18.130468 
L 465.405714 18.188217 
L 464.99949 18.246324 
L 464.593265 18.304799 
L 464.187041 18.363662 
L 463.780816 18.422865 
L 463.374592 18.482455 
L 462.968368 18.542413 
L 462.562143 18.60275 
L 462.155919 18.663483 
L 461.749694 18.724565 
L 461.34347 18.786044 
L 460.937246 18.847939 
L 460.531021 18.910174 
L 460.124797 18.972824 
L 459.718572 19.035862 
L 459.312348 19.099296 
L 458.906124 19.163118 
L 458.499899 19.227345 
L 458.093675 19.29196 
L 457.68745 19.357 
L 457.281226 19.422447 
L 456.875002 19.48828 
L 456.468777 19.554548 
L 456.062553 19.621203 
L 455.656328 19.688302 
L 455.250104 19.755817 
L 454.84388 19.823728 
L 454.437655 19.892074 
L 454.031431 19.960854 
L 453.625206 20.03005 
L 453.218982 20.099671 
L 452.812757 20.169746 
L 452.406533 20.240235 
L 452.000309 20.311179 
L 451.594084 20.382547 
L 451.18786 20.454369 
L 450.781635 20.526644 
L 450.375411 20.599335 
L 449.969187 20.672507 
L 449.562962 20.746114 
L 449.156738 20.820183 
L 448.750513 20.894688 
L 448.344289 20.969683 
L 447.938065 21.045122 
L 447.53184 21.121052 
L 447.125616 21.197427 
L 446.719391 21.274283 
L 446.313167 21.351592 
L 445.906943 21.429402 
L 445.500718 21.507684 
L 445.094494 21.58643 
L 444.688269 21.665675 
L 444.282045 21.745403 
L 443.875821 21.825631 
L 443.469596 21.90634 
L 443.063372 21.987541 
L 442.657147 22.069243 
L 442.250923 22.151454 
L 441.844699 22.234157 
L 441.438474 22.317369 
L 441.03225 22.401083 
L 440.626025 22.485306 
L 440.219801 22.570049 
L 439.813576 22.655302 
L 439.407352 22.741083 
L 439.001128 22.827385 
L 438.594903 22.914205 
L 438.188679 23.001565 
L 437.782454 23.089443 
L 437.37623 23.177851 
L 436.970006 23.266806 
L 436.563781 23.356309 
L 436.157557 23.446323 
L 435.751332 23.536893 
L 435.345108 23.62803 
L 434.938884 23.719706 
L 434.532659 23.811939 
L 434.126435 23.90472 
L 433.72021 23.998048 
L 433.313986 24.091953 
L 432.907762 24.186424 
L 432.501537 24.281462 
L 432.095313 24.377058 
L 431.689088 24.473239 
L 431.282864 24.570005 
L 430.87664 24.667329 
L 430.470415 24.765258 
L 430.064191 24.863772 
L 429.657966 24.962852 
L 429.251742 25.062528 
L 428.845518 25.162818 
L 428.439293 25.263693 
L 428.033069 25.365163 
L 427.626844 25.467229 
L 427.22062 25.569918 
L 426.814395 25.673211 
L 426.408171 25.777128 
L 426.001947 25.881639 
L 425.595722 25.986784 
L 425.189498 26.092542 
L 424.783273 26.198924 
L 424.377049 26.305948 
L 423.970825 26.413568 
L 423.5646 26.521867 
L 423.158376 26.630771 
L 422.752151 26.740326 
L 422.345927 26.850524 
L 421.939703 26.961355 
L 421.533478 27.072865 
L 421.127254 27.184999 
L 420.721029 27.297813 
L 420.314805 27.41127 
L 419.908581 27.525378 
L 419.502356 27.640166 
L 419.096132 27.755615 
L 418.689907 27.871726 
L 418.283683 27.988526 
L 417.877459 28.105987 
L 417.471234 28.224138 
L 417.06501 28.342968 
L 416.658785 28.462498 
L 416.252561 28.582698 
L 415.846337 28.703588 
L 415.440112 28.825196 
L 415.033888 28.947464 
L 414.627663 29.070461 
L 414.221439 29.194174 
L 413.815214 29.318568 
L 413.40899 29.443709 
L 413.002766 29.569529 
L 412.596541 29.696067 
L 412.190317 29.823342 
L 411.784092 29.951344 
L 411.377868 30.080045 
L 410.971644 30.209501 
L 410.565419 30.339666 
L 410.159195 30.470606 
L 409.75297 30.602235 
L 409.346746 30.734639 
L 408.940522 30.867798 
L 408.534297 31.001675 
L 408.128073 31.136307 
L 407.721848 31.271696 
L 407.315624 31.407849 
L 406.9094 31.544758 
L 406.503175 31.682413 
L 406.096951 31.820862 
L 405.690726 31.960066 
L 405.284502 32.100054 
L 404.878278 32.240807 
L 404.472053 32.382344 
L 404.065829 32.524656 
L 403.659604 32.667751 
L 403.25338 32.81165 
L 402.847156 32.956304 
L 402.440931 33.101789 
L 402.034707 33.248039 
L 401.628482 33.395083 
L 401.222258 33.542967 
L 400.816033 33.691635 
L 400.409809 33.841107 
L 400.003585 33.991399 
L 399.59736 34.142495 
L 399.191136 34.294403 
L 398.784911 34.447133 
L 398.378687 34.600694 
L 397.972463 34.755077 
L 397.566238 34.91029 
L 397.160014 35.066316 
L 396.753789 35.223193 
L 396.347565 35.380919 
L 395.941341 35.539448 
L 395.535116 35.698846 
L 395.128892 35.859057 
L 394.722667 36.020164 
L 394.316443 36.182056 
L 393.910219 36.344835 
L 393.503994 36.508503 
L 393.09777 36.672973 
L 392.691545 36.838312 
L 392.285321 37.004539 
L 391.879097 37.171616 
L 391.472872 37.339562 
L 391.066648 37.508358 
L 390.660423 37.678042 
L 390.254199 37.848623 
L 389.847975 38.020055 
L 389.44175 38.192365 
L 389.035526 38.365562 
L 388.629301 38.539648 
L 388.223077 38.714611 
L 387.816852 38.890473 
L 387.410628 39.067226 
L 387.004404 39.244859 
L 386.598179 39.423374 
L 386.191955 39.602834 
L 385.78573 39.783143 
L 385.379506 39.964398 
L 384.973282 40.146512 
L 384.567057 40.329551 
L 384.160833 40.513531 
L 383.754608 40.698388 
L 383.348384 40.884158 
L 382.94216 41.070805 
L 382.535935 41.258445 
L 382.129711 41.446953 
L 381.723486 41.636378 
L 381.317262 41.826709 
L 380.911038 42.018004 
L 380.504813 42.21021 
L 380.098589 42.403346 
L 379.692364 42.597404 
L 379.28614 42.792382 
L 378.879916 42.988296 
L 378.473691 43.185144 
L 378.067467 43.382909 
L 377.661242 43.581609 
L 377.255018 43.781276 
L 376.848794 43.981842 
L 376.442569 44.183366 
L 376.036345 44.385787 
L 375.63012 44.5892 
L 375.223896 44.793538 
L 374.817671 44.998812 
L 374.411447 45.205007 
L 374.005223 45.412165 
L 373.598998 45.620291 
L 373.192774 45.829333 
L 372.786549 46.039329 
L 372.380325 46.25028 
L 371.974101 46.46217 
L 371.567876 46.675004 
L 371.161652 46.888779 
L 370.755427 47.103512 
L 370.349203 47.31918 
L 369.942979 47.535807 
L 369.536754 47.753369 
L 369.13053 47.971923 
L 368.724305 48.191397 
L 368.318081 48.411788 
L 367.911857 48.63318 
L 367.505632 48.855483 
L 367.099408 49.078746 
L 366.693183 49.302957 
L 366.286959 49.528122 
L 365.880735 49.754223 
L 365.47451 49.981277 
L 365.068286 50.209267 
L 364.662061 50.438215 
L 364.255837 50.668103 
L 363.849613 50.898912 
L 363.443388 51.13068 
L 363.037164 51.363406 
L 362.630939 51.597048 
L 362.224715 51.831635 
L 361.81849 52.067143 
L 361.412266 52.303619 
L 361.006042 52.541007 
L 360.599817 52.77932 
L 360.193593 53.018606 
L 359.787368 53.258761 
L 359.381144 53.499898 
L 358.97492 53.741914 
L 358.568695 53.984874 
L 358.162471 54.228751 
L 357.756246 54.473553 
L 357.350022 54.719271 
L 356.943798 54.96591 
L 356.537573 55.213461 
L 356.131349 55.461876 
L 355.725124 55.71123 
L 355.3189 55.961492 
L 354.912676 56.212632 
L 354.506451 56.464674 
L 354.100227 56.717622 
L 353.694002 56.971444 
L 353.287778 57.226173 
L 352.881554 57.481734 
L 352.475329 57.738219 
L 352.069105 57.995603 
L 351.66288 58.253836 
L 351.256656 58.5129 
L 350.850432 58.772834 
L 350.444207 59.033664 
L 350.037983 59.295321 
L 349.631758 59.557791 
L 349.225534 59.821172 
L 348.819309 60.085355 
L 348.413085 60.350361 
L 348.006861 60.616216 
L 347.600636 60.882884 
L 347.194412 61.150364 
L 346.788187 61.418666 
L 346.381963 61.687742 
L 345.975739 61.957659 
L 345.569514 62.228389 
L 345.16329 62.499836 
L 344.757065 62.772119 
L 344.350841 63.045172 
L 343.944617 63.318938 
L 343.538392 63.593511 
L 343.132168 63.868831 
L 342.725943 64.14492 
L 342.319719 64.421685 
L 341.913495 64.699248 
L 341.50727 64.977524 
L 341.101046 65.25648 
L 340.694821 65.536163 
L 340.288597 65.816499 
L 339.882373 66.097552 
L 339.476148 66.379351 
L 339.069924 66.661792 
L 338.663699 66.944885 
L 338.257475 67.22863 
L 337.851251 67.513003 
L 337.445026 67.798028 
L 337.038802 68.08369 
L 336.632577 68.369961 
L 336.226353 68.656818 
L 335.820128 68.944247 
L 335.413904 69.232327 
L 335.00768 69.520955 
L 334.601455 69.810136 
L 334.195231 70.099911 
L 333.789006 70.390183 
L 333.382782 70.681012 
L 332.976558 70.972341 
L 332.570333 71.264199 
L 332.164109 71.556468 
L 331.757884 71.849295 
L 331.35166 72.142589 
L 330.945436 72.436308 
L 330.539211 72.730471 
L 330.132987 73.025106 
L 329.726762 73.320081 
L 329.320538 73.615534 
L 328.914314 73.911312 
L 328.508089 74.207472 
L 328.101865 74.504053 
L 327.69564 74.800913 
L 327.289416 75.098093 
L 326.883192 75.395661 
L 326.476967 75.693437 
L 326.070743 75.991558 
L 325.664518 76.289933 
L 325.258294 76.588573 
L 324.85207 76.887388 
L 324.445845 77.186425 
L 324.039621 77.485688 
L 323.633396 77.785126 
L 323.227172 78.084725 
L 322.820947 78.384446 
L 322.414723 78.684383 
L 322.008499 78.984326 
L 321.602274 79.284395 
L 321.19605 79.584534 
L 320.789825 79.884709 
L 320.383601 80.184931 
L 319.977377 80.485189 
L 319.571152 80.785387 
L 319.164928 81.085538 
L 318.758703 81.385704 
L 318.352479 81.685768 
L 317.946255 81.985716 
L 317.54003 82.285603 
L 317.133806 82.585291 
L 316.727581 82.884854 
L 316.321357 83.184233 
L 315.915133 83.483362 
L 315.508908 83.782295 
L 315.102684 84.080989 
L 314.696459 84.379318 
L 314.290235 84.67741 
L 313.884011 84.97519 
L 313.477786 85.272562 
L 313.071562 85.569578 
L 312.665337 85.866213 
L 312.259113 86.162392 
L 311.852889 86.458048 
L 311.446664 86.753261 
L 311.04044 87.048024 
L 310.634215 87.342171 
L 310.227991 87.635812 
L 309.821766 87.928829 
L 309.415542 88.221181 
L 309.009318 88.512881 
L 308.603093 88.803904 
L 308.196869 89.094175 
L 307.790644 89.383745 
L 307.38442 89.672477 
L 306.978196 89.96044 
L 306.571971 90.247514 
L 306.165747 90.533717 
L 305.759522 90.81903 
L 305.353298 91.103381 
L 304.947074 91.386791 
L 304.540849 91.669154 
L 304.134625 91.950498 
L 303.7284 92.230738 
L 303.322176 92.509801 
L 302.915952 92.787715 
L 302.509727 93.064492 
L 302.103503 93.340031 
L 301.697278 93.6143 
L 301.291054 93.887228 
L 300.88483 94.158847 
L 300.478605 94.429026 
L 300.072381 94.697822 
L 299.666156 94.965101 
L 299.259932 95.230841 
L 298.853708 95.495114 
L 298.447483 95.757799 
L 298.041259 96.018828 
L 297.635034 96.27809 
L 297.22881 96.535719 
L 296.822585 96.791506 
L 296.416361 97.045553 
L 296.010137 97.29772 
L 295.603912 97.547842 
L 295.197688 97.796181 
L 294.791463 98.042442 
L 294.385239 98.286612 
L 293.979015 98.528797 
L 293.57279 98.768726 
L 293.166566 99.006439 
L 292.760341 99.241912 
L 292.354117 99.475124 
L 291.947893 99.705884 
L 291.541668 99.934206 
L 291.135444 100.160189 
L 290.729219 100.383453 
L 290.322995 100.604295 
L 289.916771 100.822357 
L 289.510546 101.037837 
L 289.104322 101.250487 
L 288.698097 101.460304 
L 288.291873 101.667233 
L 287.885649 101.871182 
L 287.479424 102.072097 
L 287.0732 102.270027 
L 286.666975 102.464771 
L 286.260751 102.6563 
L 285.854527 102.84456 
L 285.448302 103.029404 
L 285.042078 103.210887 
L 284.635853 103.388928 
L 284.229629 103.563389 
L 283.823404 103.734192 
L 283.41718 103.901203 
L 283.010956 104.064596 
L 282.604731 104.224098 
L 282.198507 104.379539 
L 281.792282 104.531086 
L 281.386058 104.678524 
L 280.979834 104.821721 
L 280.573609 104.960692 
L 280.167385 105.095319 
L 279.76116 105.225602 
L 279.354936 105.35129 
L 278.948712 105.472453 
L 278.542487 105.588832 
L 278.136263 105.700585 
L 277.730038 105.807444 
L 277.323814 105.909258 
L 276.91759 106.00616 
L 276.511365 106.097963 
L 276.105141 106.184442 
L 275.698916 106.265797 
L 275.292692 106.341635 
L 274.886468 106.411984 
L 274.480243 106.476752 
L 274.074019 106.536012 
L 273.667794 106.589585 
L 273.26157 106.637149 
L 272.855346 106.678845 
L 272.449121 106.714491 
L 272.042897 106.744203 
L 271.636672 106.767697 
L 271.230448 106.784958 
L 270.824223 106.795963 
L 270.417999 106.800592 
L 270.011775 106.798722 
L 269.60555 106.790483 
L 269.199326 106.775686 
L 268.793101 106.754248 
L 268.386877 106.726293 
L 267.980653 106.691551 
L 267.574428 106.650182 
L 267.168204 106.602049 
L 266.761979 106.547202 
L 266.355755 106.485717 
L 265.949531 106.417298 
L 265.543306 106.342321 
L 265.137082 106.260671 
L 264.730857 106.172162 
L 264.324633 106.07742 
L 263.918409 105.975842 
L 263.512184 105.867838 
L 263.10596 105.753419 
L 262.699735 105.632694 
L 262.293511 105.505753 
L 261.887287 105.372643 
L 261.481062 105.233752 
L 261.074838 105.088747 
L 260.668613 104.938104 
L 260.262389 104.78184 
L 259.856165 104.620157 
L 259.44994 104.453265 
L 259.043716 104.281057 
L 258.637491 104.104044 
L 258.231267 103.922298 
L 257.825042 103.735918 
L 257.418818 103.54517 
L 257.012594 103.350092 
L 256.606369 103.151181 
L 256.200145 102.94821 
L 255.79392 102.741628 
L 255.387696 102.53162 
L 254.981472 102.318287 
L 254.575247 102.101769 
L 254.169023 101.882405 
L 253.762798 101.660281 
L 253.356574 101.435671 
L 252.95035 101.208568 
L 252.544125 100.97921 
L 252.137901 100.747852 
L 251.731676 100.514492 
L 251.325452 100.279343 
L 250.919228 100.042616 
L 250.513003 99.804477 
L 250.106779 99.564953 
L 249.700554 99.324163 
L 249.29433 99.082307 
L 248.888106 98.839356 
L 248.481881 98.595696 
L 248.075657 98.351168 
L 247.669432 98.105863 
L 247.263208 97.860043 
L 246.856984 97.613699 
L 246.450759 97.366663 
L 246.044535 97.119448 
L 245.63831 96.871852 
L 245.232086 96.623992 
L 244.825861 96.375809 
L 244.419637 96.127292 
L 244.013413 95.878825 
L 243.607188 95.62983 
L 243.200964 95.380865 
L 242.794739 95.13168 
L 242.388515 94.882283 
L 241.982291 94.632735 
L 241.576066 94.383037 
L 241.169842 94.133078 
L 240.763617 93.882744 
L 240.357393 93.632187 
L 239.951169 93.381255 
L 239.544944 93.129995 
L 239.13872 92.878187 
L 238.732495 92.625836 
L 238.326271 92.372878 
L 237.920047 92.119223 
L 237.513822 91.864874 
L 237.107598 91.609694 
L 236.701373 91.353577 
L 236.295149 91.096309 
L 235.888925 90.838128 
L 235.4827 90.578525 
L 235.076476 90.317683 
L 234.670251 90.055395 
L 234.264027 89.791417 
L 233.857803 89.526024 
L 233.451578 89.258681 
L 233.045354 88.989512 
L 232.639129 88.718365 
L 232.232905 88.445055 
L 231.82668 88.16962 
L 231.420456 87.891759 
L 231.014232 87.611592 
L 230.608007 87.328869 
L 230.201783 87.04349 
L 229.795558 86.755514 
L 229.389334 86.464615 
L 228.98311 86.170796 
L 228.576885 85.874239 
L 228.170661 85.574536 
L 227.764436 85.271698 
L 227.358212 84.965932 
L 226.951988 84.656977 
L 226.545763 84.344779 
L 226.139539 84.029267 
L 225.733314 83.710629 
L 225.32709 83.388716 
L 224.920866 83.063603 
L 224.514641 82.73527 
L 224.108417 82.403633 
L 223.702192 82.068749 
L 223.295968 81.730791 
L 222.889744 81.389676 
L 222.483519 81.045448 
L 222.077295 80.698264 
L 221.67107 80.347947 
L 221.264846 79.994909 
L 220.858622 79.638894 
L 220.452397 79.28014 
L 220.046173 78.918665 
L 219.639948 78.554669 
L 219.233724 78.188037 
L 218.827499 77.818888 
L 218.421275 77.447529 
L 218.015051 77.073908 
L 217.608826 76.698006 
L 217.202602 76.320205 
L 216.796377 75.940246 
L 216.390153 75.558564 
L 215.983929 75.175053 
L 215.577704 74.789867 
L 215.17148 74.403131 
L 214.765255 74.014931 
L 214.359031 73.625333 
L 213.952807 73.234413 
L 213.546582 72.842482 
L 213.140358 72.449323 
L 212.734133 72.055211 
L 212.327909 71.660248 
L 211.921685 71.264511 
L 211.51546 70.868098 
L 211.109236 70.471025 
L 210.703011 70.073465 
L 210.296787 69.675574 
L 209.890563 69.277343 
L 209.484338 68.878857 
L 209.078114 68.480206 
L 208.671889 68.081602 
L 208.265665 67.682966 
L 207.859441 67.284508 
L 207.453216 66.886131 
L 207.046992 66.488004 
L 206.640767 66.090368 
L 206.234543 65.693162 
L 205.828318 65.296415 
L 205.422094 64.900252 
L 205.01587 64.504662 
L 204.609645 64.109883 
L 204.203421 63.715912 
L 203.797196 63.322801 
L 203.390972 62.930624 
L 202.984748 62.539374 
L 202.578523 62.149285 
L 202.172299 61.760277 
L 201.766074 61.372465 
L 201.35985 60.985842 
L 200.953626 60.600613 
L 200.547401 60.216715 
L 200.141177 59.834272 
L 199.734952 59.453203 
L 199.328728 59.073745 
L 198.922504 58.695855 
L 198.516279 58.319622 
L 198.110055 57.945056 
L 197.70383 57.572224 
L 197.297606 57.20121 
L 196.891382 56.831985 
L 196.485157 56.464697 
L 196.078933 56.099279 
L 195.672708 55.735816 
L 195.266484 55.374417 
L 194.86026 55.015087 
L 194.454035 54.657849 
L 194.047811 54.302712 
L 193.641586 53.949766 
L 193.235362 53.599064 
L 192.829137 53.250619 
L 192.422913 52.904441 
L 192.016689 52.560615 
L 191.610464 52.219132 
L 191.20424 51.880099 
L 190.798015 51.543456 
L 190.391791 51.20933 
L 189.985567 50.877684 
L 189.579342 50.548564 
L 189.173118 50.221999 
L 188.766893 49.898046 
L 188.360669 49.576747 
L 187.954445 49.258083 
L 187.54822 48.94212 
L 187.141996 48.62883 
L 186.735771 48.31828 
L 186.329547 48.010573 
L 185.923323 47.705609 
L 185.517098 47.403441 
L 185.110874 47.10414 
L 184.704649 46.807701 
L 184.298425 46.51419 
L 183.892201 46.223564 
L 183.485976 45.935885 
L 183.079752 45.651177 
L 182.673527 45.369463 
L 182.267303 45.090681 
L 181.861079 44.814979 
L 181.454854 44.542347 
L 181.04863 44.272741 
L 180.642405 44.006258 
L 180.236181 43.742834 
L 179.829956 43.482528 
L 179.423732 43.225371 
L 179.017508 42.971407 
L 178.611283 42.720593 
L 178.205059 42.472967 
L 177.798834 42.228557 
L 177.39261 41.987335 
L 176.986386 41.749371 
L 176.580161 41.514685 
L 176.173937 41.28321 
L 175.767712 41.055032 
L 175.361488 40.830178 
L 174.955264 40.60863 
L 174.549039 40.390417 
L 174.142815 40.17548 
L 173.73659 39.963926 
L 173.330366 39.755733 
L 172.924142 39.550894 
L 172.517917 39.349465 
L 172.111693 39.151402 
L 171.705468 38.956731 
L 171.299244 38.765512 
L 170.89302 38.577693 
L 170.486795 38.393312 
L 170.080571 38.21237 
L 169.674346 38.034893 
L 169.268122 37.860855 
L 168.861898 37.690312 
L 168.455673 37.523216 
L 168.049449 37.359614 
L 167.643224 37.199536 
L 167.237 37.042906 
L 166.830775 36.889826 
L 166.424551 36.740232 
L 166.018327 36.59419 
L 165.612102 36.451671 
L 165.205878 36.312684 
L 164.799653 36.177201 
L 164.393429 36.045279 
L 163.987205 35.916928 
L 163.58098 35.792109 
L 163.174756 35.67085 
L 162.768531 35.553163 
L 162.362307 35.439073 
L 161.956083 35.328545 
L 161.549858 35.221568 
L 161.143634 35.118199 
L 160.737409 35.018391 
L 160.331185 34.922172 
L 159.924961 34.829533 
L 159.518736 34.740521 
L 159.112512 34.65508 
L 158.706287 34.573255 
L 158.300063 34.49503 
L 157.893839 34.420403 
L 157.487614 34.349375 
L 157.08139 34.281935 
L 156.675165 34.218161 
L 156.268941 34.157967 
L 155.862717 34.101352 
L 155.456492 34.048392 
L 155.050268 33.998993 
L 154.644043 33.953241 
L 154.237819 33.911077 
L 153.831594 33.87255 
L 153.42537 33.837612 
L 153.019146 33.806291 
L 152.612921 33.778607 
L 152.206697 33.754494 
L 151.800472 33.733997 
L 151.394248 33.717109 
L 150.988024 33.703867 
L 150.581799 33.694157 
L 150.175575 33.688112 
L 149.76935 33.685657 
L 149.363126 33.686752 
L 148.956902 33.691494 
L 148.550677 33.699787 
L 148.144453 33.711726 
L 147.738228 33.727206 
L 147.332004 33.746295 
L 146.92578 33.768964 
L 146.519555 33.795184 
L 146.113331 33.825012 
L 145.707106 33.858391 
L 145.300882 33.89536 
L 144.894658 33.935871 
L 144.488433 33.979952 
L 144.082209 34.027565 
L 143.675984 34.078749 
L 143.26976 34.133475 
L 142.863536 34.191724 
L 142.457311 34.253543 
L 142.051087 34.318819 
L 141.644862 34.387685 
L 141.238638 34.460045 
L 140.832413 34.53589 
L 140.426189 34.615287 
L 140.019965 34.698112 
L 139.61374 34.78447 
L 139.207516 34.874294 
L 138.801291 34.967614 
L 138.395067 35.064409 
L 137.988843 35.164632 
L 137.582618 35.268332 
L 137.176394 35.375441 
L 136.770169 35.486016 
L 136.363945 35.599992 
L 135.957721 35.717397 
L 135.551496 35.83822 
L 135.145272 35.962416 
L 134.739047 36.09005 
L 134.332823 36.221018 
L 133.926599 36.355367 
L 133.520374 36.493041 
L 133.11415 36.634096 
L 132.707925 36.778505 
L 132.301701 36.926172 
L 131.895477 37.07722 
L 131.489252 37.231518 
L 131.083028 37.389178 
L 130.676803 37.550002 
L 130.270579 37.714189 
L 129.864355 37.88154 
L 129.45813 38.052188 
L 129.051906 38.226056 
L 128.645681 38.403079 
L 128.239457 38.583304 
L 127.833232 38.766721 
L 127.427008 38.953293 
L 127.020784 39.142982 
L 126.614559 39.335887 
L 126.208335 39.531834 
L 125.80211 39.730892 
L 125.395886 39.933059 
L 124.989662 40.138157 
L 124.583437 40.346411 
L 124.177213 40.557598 
L 123.770988 40.771882 
L 123.364764 40.989085 
L 122.95854 41.209197 
L 122.552315 41.432374 
L 122.146091 41.658328 
L 121.739866 41.887272 
L 121.333642 42.119011 
L 120.927418 42.353627 
L 120.521193 42.591113 
L 120.114969 42.831315 
L 119.708744 43.074276 
L 119.30252 43.320013 
L 118.896296 43.568414 
L 118.490071 43.819539 
L 118.083847 44.07331 
L 117.677622 44.329729 
L 117.271398 44.58869 
L 116.865174 44.850248 
L 116.458949 45.114252 
L 116.052725 45.380778 
L 115.6465 45.649769 
L 115.240276 45.921207 
L 114.834051 46.194997 
L 114.427827 46.471081 
L 114.021603 46.749527 
L 113.615378 47.030127 
L 113.209154 47.313036 
L 112.802929 47.597994 
L 112.396705 47.885168 
L 111.990481 48.174391 
L 111.584256 48.465531 
L 111.178032 48.758722 
L 110.771807 49.053782 
L 110.365583 49.350726 
L 109.959359 49.64939 
L 109.553134 49.949834 
L 109.14691 50.25195 
L 108.740685 50.555568 
L 108.334461 50.860781 
L 107.928237 51.167346 
L 107.522012 51.475337 
L 107.115788 51.784527 
L 106.709563 52.095068 
L 106.303339 52.406662 
L 105.897115 52.719163 
L 105.49089 53.032769 
L 105.084666 53.346994 
L 104.678441 53.662036 
L 104.272217 53.977559 
L 103.865993 54.29363 
L 103.459768 54.610197 
L 103.053544 54.926736 
L 102.647319 55.243563 
L 102.241095 55.560149 
L 101.83487 55.876617 
L 101.428646 56.192523 
L 101.022422 56.508103 
L 100.616197 56.822719 
L 100.209973 57.136651 
L 99.803748 57.449388 
L 99.397524 57.760524 
L 98.9913 58.070324 
L 98.585075 58.378116 
L 98.178851 58.684077 
L 97.772626 58.987581 
L 97.366402 59.288431 
L 96.960178 59.586405 
L 96.553953 59.881097 
L 96.147729 60.172256 
L 95.741504 60.459435 
L 95.33528 60.742372 
L 94.929056 61.020492 
L 94.522831 61.293734 
L 94.116607 61.561469 
L 93.710382 61.822947 
L 93.304158 62.078365 
L 92.897934 62.326629 
L 92.491709 62.567629 
L 92.085485 62.800568 
L 91.67926 63.025025 
L 91.273036 63.240788 
L 90.866812 63.446609 
L 90.460587 63.642593 
L 90.054363 63.827867 
L 89.648138 64.002113 
L 89.241914 64.164292 
L 88.835689 64.314604 
L 88.429465 64.452236 
L 88.023241 64.576464 
L 87.617016 64.687413 
L 87.210792 64.78409 
L 86.804567 64.866868 
L 86.398343 64.934794 
L 85.992119 64.988074 
L 85.585894 65.026668 
L 85.17967 65.050106 
L 84.773445 65.058885 
L 84.367221 65.05251 
L 83.960997 65.031669 
L 83.554772 64.995876 
L 83.148548 64.94627 
L 82.742323 64.882226 
L 82.336099 64.804855 
L 81.929875 64.714313 
L 81.52365 64.610694 
L 81.117426 64.494626 
L 80.711201 64.366733 
L 80.304977 64.227632 
L 79.898753 64.077316 
L 79.492528 63.916737 
L 79.086304 63.746364 
L 78.680079 63.566507 
L 78.273855 63.377659 
L 77.867631 63.180295 
L 77.461406 62.975197 
L 77.055182 62.762216 
L 76.648957 62.542453 
L 76.242733 62.316074 
L 75.836508 62.083187 
L 75.430284 61.844581 
z
" style="fill:#1f77b4;fill-opacity:0.4;"/>
   </g>
   <g id="PathCollection_1">
    <defs>
     <path d="M 0 3 
C 0.795609 3 1.55874 2.683901 2.12132 2.12132 
C 2.683901 1.55874 3 0.795609 3 0 
C 3 -0.795609 2.683901 -1.55874 2.12132 -2.12132 
C 1.55874 -2.683901 0.795609 -3 0 -3 
C -0.795609 -3 -1.55874 -2.683901 -2.12132 -2.12132 
C -2.683901 -1.55874 -3 -0.795609 -3 0 
C -3 0.795609 -2.683901 1.55874 -2.12132 2.12132 
C -1.55874 2.683901 -0.795609 3 0 3 
z
" id="m941272f526" style="stroke:#000000;"/>
    </defs>
    <g clip-path="url(#p89be76b90e)">
     <use style="stroke:#000000;" x="85.585894" xlink:href="#m941272f526" y="75.587263"/>
     <use style="stroke:#000000;" x="263.918409" xlink:href="#m941272f526" y="117.774016"/>
     <use style="stroke:#000000;" x="226.545763" xlink:href="#m941272f526" y="88.449486"/>
    </g>
   </g>
   <g id="PathCollection_2">
    <defs>
     <path d="M 0 3 
C 0.795609 3 1.55874 2.683901 2.12132 2.12132 
C 2.683901 1.55874 3 0.795609 3 0 
C 3 -0.795609 2.683901 -1.55874 2.12132 -2.12132 
C 1.55874 -2.683901 0.795609 -3 0 -3 
C -0.795609 -3 -1.55874 -2.683901 -2.12132 -2.12132 
C -2.683901 -1.55874 -3 -0.795609 -3 0 
C -3 0.795609 -2.683901 1.55874 -2.12132 2.12132 
C -1.55874 2.683901 -0.795609 3 0 3 
z
" id="mcff23d6bd8" style="stroke:#ff0000;"/>
    </defs>
    <g clip-path="url(#p89be76b90e)">
     <use style="fill:#ff0000;stroke:#ff0000;" x="146.519555" xlink:href="#mcff23d6bd8" y="70.450177"/>
     <use style="fill:#ff0000;stroke:#ff0000;" x="130.676803" xlink:href="#mcff23d6bd8" y="72.8738"/>
     <use style="fill:#ff0000;stroke:#ff0000;" x="130.270579" xlink:href="#mcff23d6bd8" y="72.952226"/>
    </g>
   </g>
   <g id="matplotlib.axis_1">
    <g id="xtick_1">
     <g id="line2d_1">
      <defs>
       <path d="M 0 0 
L 0 3.5 
" id="m48f51da064" style="stroke:#000000;stroke-width:0.8;"/>
      </defs>
      <g>
       <use style="stroke:#000000;stroke-width:0.8;" x="75.430284" xlink:href="#m48f51da064" y="204.872727"/>
      </g>
     </g>
     <g id="text_1">
      <!-- 0 -->
      <g transform="translate(71.612784 220.990852)scale(0.12 -0.12)">
       <defs>
        <path d="M 31.78125 66.40625 
Q 24.171875 66.40625 20.328125 58.90625 
Q 16.5 51.421875 16.5 36.375 
Q 16.5 21.390625 20.328125 13.890625 
Q 24.171875 6.390625 31.78125 6.390625 
Q 39.453125 6.390625 43.28125 13.890625 
Q 47.125 21.390625 47.125 36.375 
Q 47.125 51.421875 43.28125 58.90625 
Q 39.453125 66.40625 31.78125 66.40625 
z
M 31.78125 74.21875 
Q 44.046875 74.21875 50.515625 64.515625 
Q 56.984375 54.828125 56.984375 36.375 
Q 56.984375 17.96875 50.515625 8.265625 
Q 44.046875 -1.421875 31.78125 -1.421875 
Q 19.53125 -1.421875 13.0625 8.265625 
Q 6.59375 17.96875 6.59375 36.375 
Q 6.59375 54.828125 13.0625 64.515625 
Q 19.53125 74.21875 31.78125 74.21875 
z
" id="DejaVuSans-48"/>
       </defs>
       <use xlink:href="#DejaVuSans-48"/>
      </g>
     </g>
    </g>
    <g id="xtick_2">
     <g id="line2d_2">
      <g>
       <use style="stroke:#000000;stroke-width:0.8;" x="156.59392" xlink:href="#m48f51da064" y="204.872727"/>
      </g>
     </g>
     <g id="text_2">
      <!-- 2 -->
      <g transform="translate(152.77642 220.990852)scale(0.12 -0.12)">
       <defs>
        <path d="M 19.1875 8.296875 
L 53.609375 8.296875 
L 53.609375 0 
L 7.328125 0 
L 7.328125 8.296875 
Q 12.9375 14.109375 22.625 23.890625 
Q 32.328125 33.6875 34.8125 36.53125 
Q 39.546875 41.84375 41.421875 45.53125 
Q 43.3125 49.21875 43.3125 52.78125 
Q 43.3125 58.59375 39.234375 62.25 
Q 35.15625 65.921875 28.609375 65.921875 
Q 23.96875 65.921875 18.8125 64.3125 
Q 13.671875 62.703125 7.8125 59.421875 
L 7.8125 69.390625 
Q 13.765625 71.78125 18.9375 73 
Q 24.125 74.21875 28.421875 74.21875 
Q 39.75 74.21875 46.484375 68.546875 
Q 53.21875 62.890625 53.21875 53.421875 
Q 53.21875 48.921875 51.53125 44.890625 
Q 49.859375 40.875 45.40625 35.40625 
Q 44.1875 33.984375 37.640625 27.21875 
Q 31.109375 20.453125 19.1875 8.296875 
z
" id="DejaVuSans-50"/>
       </defs>
       <use xlink:href="#DejaVuSans-50"/>
      </g>
     </g>
    </g>
    <g id="xtick_3">
     <g id="line2d_3">
      <g>
       <use style="stroke:#000000;stroke-width:0.8;" x="237.757557" xlink:href="#m48f51da064" y="204.872727"/>
      </g>
     </g>
     <g id="text_3">
      <!-- 4 -->
      <g transform="translate(233.940057 220.990852)scale(0.12 -0.12)">
       <defs>
        <path d="M 37.796875 64.3125 
L 12.890625 25.390625 
L 37.796875 25.390625 
z
M 35.203125 72.90625 
L 47.609375 72.90625 
L 47.609375 25.390625 
L 58.015625 25.390625 
L 58.015625 17.1875 
L 47.609375 17.1875 
L 47.609375 0 
L 37.796875 0 
L 37.796875 17.1875 
L 4.890625 17.1875 
L 4.890625 26.703125 
z
" id="DejaVuSans-52"/>
       </defs>
       <use xlink:href="#DejaVuSans-52"/>
      </g>
     </g>
    </g>
    <g id="xtick_4">
     <g id="line2d_4">
      <g>
       <use style="stroke:#000000;stroke-width:0.8;" x="318.921193" xlink:href="#m48f51da064" y="204.872727"/>
      </g>
     </g>
     <g id="text_4">
      <!-- 6 -->
      <g transform="translate(315.103693 220.990852)scale(0.12 -0.12)">
       <defs>
        <path d="M 33.015625 40.375 
Q 26.375 40.375 22.484375 35.828125 
Q 18.609375 31.296875 18.609375 23.390625 
Q 18.609375 15.53125 22.484375 10.953125 
Q 26.375 6.390625 33.015625 6.390625 
Q 39.65625 6.390625 43.53125 10.953125 
Q 47.40625 15.53125 47.40625 23.390625 
Q 47.40625 31.296875 43.53125 35.828125 
Q 39.65625 40.375 33.015625 40.375 
z
M 52.59375 71.296875 
L 52.59375 62.3125 
Q 48.875 64.0625 45.09375 64.984375 
Q 41.3125 65.921875 37.59375 65.921875 
Q 27.828125 65.921875 22.671875 59.328125 
Q 17.53125 52.734375 16.796875 39.40625 
Q 19.671875 43.65625 24.015625 45.921875 
Q 28.375 48.1875 33.59375 48.1875 
Q 44.578125 48.1875 50.953125 41.515625 
Q 57.328125 34.859375 57.328125 23.390625 
Q 57.328125 12.15625 50.6875 5.359375 
Q 44.046875 -1.421875 33.015625 -1.421875 
Q 20.359375 -1.421875 13.671875 8.265625 
Q 6.984375 17.96875 6.984375 36.375 
Q 6.984375 53.65625 15.1875 63.9375 
Q 23.390625 74.21875 37.203125 74.21875 
Q 40.921875 74.21875 44.703125 73.484375 
Q 48.484375 72.75 52.59375 71.296875 
z
" id="DejaVuSans-54"/>
       </defs>
       <use xlink:href="#DejaVuSans-54"/>
      </g>
     </g>
    </g>
    <g id="xtick_5">
     <g id="line2d_5">
      <g>
       <use style="stroke:#000000;stroke-width:0.8;" x="400.08483" xlink:href="#m48f51da064" y="204.872727"/>
      </g>
     </g>
     <g id="text_5">
      <!-- 8 -->
      <g transform="translate(396.26733 220.990852)scale(0.12 -0.12)">
       <defs>
        <path d="M 31.78125 34.625 
Q 24.75 34.625 20.71875 30.859375 
Q 16.703125 27.09375 16.703125 20.515625 
Q 16.703125 13.921875 20.71875 10.15625 
Q 24.75 6.390625 31.78125 6.390625 
Q 38.8125 6.390625 42.859375 10.171875 
Q 46.921875 13.96875 46.921875 20.515625 
Q 46.921875 27.09375 42.890625 30.859375 
Q 38.875 34.625 31.78125 34.625 
z
M 21.921875 38.8125 
Q 15.578125 40.375 12.03125 44.71875 
Q 8.5 49.078125 8.5 55.328125 
Q 8.5 64.0625 14.71875 69.140625 
Q 20.953125 74.21875 31.78125 74.21875 
Q 42.671875 74.21875 48.875 69.140625 
Q 55.078125 64.0625 55.078125 55.328125 
Q 55.078125 49.078125 51.53125 44.71875 
Q 48 40.375 41.703125 38.8125 
Q 48.828125 37.15625 52.796875 32.3125 
Q 56.78125 27.484375 56.78125 20.515625 
Q 56.78125 9.90625 50.3125 4.234375 
Q 43.84375 -1.421875 31.78125 -1.421875 
Q 19.734375 -1.421875 13.25 4.234375 
Q 6.78125 9.90625 6.78125 20.515625 
Q 6.78125 27.484375 10.78125 32.3125 
Q 14.796875 37.15625 21.921875 38.8125 
z
M 18.3125 54.390625 
Q 18.3125 48.734375 21.84375 45.5625 
Q 25.390625 42.390625 31.78125 42.390625 
Q 38.140625 42.390625 41.71875 45.5625 
Q 45.3125 48.734375 45.3125 54.390625 
Q 45.3125 60.0625 41.71875 63.234375 
Q 38.140625 66.40625 31.78125 66.40625 
Q 25.390625 66.40625 21.84375 63.234375 
Q 18.3125 60.0625 18.3125 54.390625 
z
" id="DejaVuSans-56"/>
       </defs>
       <use xlink:href="#DejaVuSans-56"/>
      </g>
     </g>
    </g>
    <g id="xtick_6">
     <g id="line2d_6">
      <g>
       <use style="stroke:#000000;stroke-width:0.8;" x="481.248466" xlink:href="#m48f51da064" y="204.872727"/>
      </g>
     </g>
     <g id="text_6">
      <!-- 10 -->
      <g transform="translate(473.613466 220.990852)scale(0.12 -0.12)">
       <defs>
        <path d="M 12.40625 8.296875 
L 28.515625 8.296875 
L 28.515625 63.921875 
L 10.984375 60.40625 
L 10.984375 69.390625 
L 28.421875 72.90625 
L 38.28125 72.90625 
L 38.28125 8.296875 
L 54.390625 8.296875 
L 54.390625 0 
L 12.40625 0 
z
" id="DejaVuSans-49"/>
       </defs>
       <use xlink:href="#DejaVuSans-49"/>
       <use x="63.623047" xlink:href="#DejaVuSans-48"/>
      </g>
     </g>
    </g>
   </g>
   <g id="matplotlib.axis_2">
    <g id="ytick_1">
     <g id="line2d_7">
      <defs>
       <path d="M 0 0 
L -3.5 0 
" id="m3ba0985cf6" style="stroke:#000000;stroke-width:0.8;"/>
      </defs>
      <g>
       <use style="stroke:#000000;stroke-width:0.8;" x="55.139375" xlink:href="#m3ba0985cf6" y="192.537278"/>
      </g>
     </g>
     <g id="text_7">
      <!-- 60 -->
      <g transform="translate(22.81375 197.09634)scale(0.12 -0.12)">
       <defs>
        <path d="M 10.59375 35.5 
L 73.1875 35.5 
L 73.1875 27.203125 
L 10.59375 27.203125 
z
" id="DejaVuSans-8722"/>
       </defs>
       <use xlink:href="#DejaVuSans-8722"/>
       <use x="83.789062" xlink:href="#DejaVuSans-54"/>
       <use x="147.412109" xlink:href="#DejaVuSans-48"/>
      </g>
     </g>
    </g>
    <g id="ytick_2">
     <g id="line2d_8">
      <g>
       <use style="stroke:#000000;stroke-width:0.8;" x="55.139375" xlink:href="#m3ba0985cf6" y="167.777114"/>
      </g>
     </g>
     <g id="text_8">
      <!-- 40 -->
      <g transform="translate(22.81375 172.336177)scale(0.12 -0.12)">
       <use xlink:href="#DejaVuSans-8722"/>
       <use x="83.789062" xlink:href="#DejaVuSans-52"/>
       <use x="147.412109" xlink:href="#DejaVuSans-48"/>
      </g>
     </g>
    </g>
    <g id="ytick_3">
     <g id="line2d_9">
      <g>
       <use style="stroke:#000000;stroke-width:0.8;" x="55.139375" xlink:href="#m3ba0985cf6" y="143.016951"/>
      </g>
     </g>
     <g id="text_9">
      <!-- 20 -->
      <g transform="translate(22.81375 147.576013)scale(0.12 -0.12)">
       <use xlink:href="#DejaVuSans-8722"/>
       <use x="83.789062" xlink:href="#DejaVuSans-50"/>
       <use x="147.412109" xlink:href="#DejaVuSans-48"/>
      </g>
     </g>
    </g>
    <g id="ytick_4">
     <g id="line2d_10">
      <g>
       <use style="stroke:#000000;stroke-width:0.8;" x="55.139375" xlink:href="#m3ba0985cf6" y="118.256788"/>
      </g>
     </g>
     <g id="text_10">
      <!-- 0 -->
      <g transform="translate(40.504375 122.81585)scale(0.12 -0.12)">
       <use xlink:href="#DejaVuSans-48"/>
      </g>
     </g>
    </g>
    <g id="ytick_5">
     <g id="line2d_11">
      <g>
       <use style="stroke:#000000;stroke-width:0.8;" x="55.139375" xlink:href="#m3ba0985cf6" y="93.496624"/>
      </g>
     </g>
     <g id="text_11">
      <!-- 20 -->
      <g transform="translate(32.869375 98.055687)scale(0.12 -0.12)">
       <use xlink:href="#DejaVuSans-50"/>
       <use x="63.623047" xlink:href="#DejaVuSans-48"/>
      </g>
     </g>
    </g>
    <g id="ytick_6">
     <g id="line2d_12">
      <g>
       <use style="stroke:#000000;stroke-width:0.8;" x="55.139375" xlink:href="#m3ba0985cf6" y="68.736461"/>
      </g>
     </g>
     <g id="text_12">
      <!-- 40 -->
      <g transform="translate(32.869375 73.295523)scale(0.12 -0.12)">
       <use xlink:href="#DejaVuSans-52"/>
       <use x="63.623047" xlink:href="#DejaVuSans-48"/>
      </g>
     </g>
    </g>
    <g id="ytick_7">
     <g id="line2d_13">
      <g>
       <use style="stroke:#000000;stroke-width:0.8;" x="55.139375" xlink:href="#m3ba0985cf6" y="43.976297"/>
      </g>
     </g>
     <g id="text_13">
      <!-- 60 -->
      <g transform="translate(32.869375 48.53536)scale(0.12 -0.12)">
       <use xlink:href="#DejaVuSans-54"/>
       <use x="63.623047" xlink:href="#DejaVuSans-48"/>
      </g>
     </g>
    </g>
    <g id="ytick_8">
     <g id="line2d_14">
      <g>
       <use style="stroke:#000000;stroke-width:0.8;" x="55.139375" xlink:href="#m3ba0985cf6" y="19.216134"/>
      </g>
     </g>
     <g id="text_14">
      <!-- 80 -->
      <g transform="translate(32.869375 23.775196)scale(0.12 -0.12)">
       <use xlink:href="#DejaVuSans-56"/>
       <use x="63.623047" xlink:href="#DejaVuSans-48"/>
      </g>
     </g>
    </g>
    <g id="text_15">
     <!-- f(x) -->
     <g transform="translate(16.318125 116.381676)rotate(-90)scale(0.12 -0.12)">
      <defs>
       <path d="M 37.109375 75.984375 
L 37.109375 68.5 
L 28.515625 68.5 
Q 23.6875 68.5 21.796875 66.546875 
Q 19.921875 64.59375 19.921875 59.515625 
L 19.921875 54.6875 
L 34.71875 54.6875 
L 34.71875 47.703125 
L 19.921875 47.703125 
L 19.921875 0 
L 10.890625 0 
L 10.890625 47.703125 
L 2.296875 47.703125 
L 2.296875 54.6875 
L 10.890625 54.6875 
L 10.890625 58.5 
Q 10.890625 67.625 15.140625 71.796875 
Q 19.390625 75.984375 28.609375 75.984375 
z
" id="DejaVuSans-102"/>
       <path d="M 31 75.875 
Q 24.46875 64.65625 21.28125 53.65625 
Q 18.109375 42.671875 18.109375 31.390625 
Q 18.109375 20.125 21.3125 9.0625 
Q 24.515625 -2 31 -13.1875 
L 23.1875 -13.1875 
Q 15.875 -1.703125 12.234375 9.375 
Q 8.59375 20.453125 8.59375 31.390625 
Q 8.59375 42.28125 12.203125 53.3125 
Q 15.828125 64.359375 23.1875 75.875 
z
" id="DejaVuSans-40"/>
       <path d="M 54.890625 54.6875 
L 35.109375 28.078125 
L 55.90625 0 
L 45.3125 0 
L 29.390625 21.484375 
L 13.484375 0 
L 2.875 0 
L 24.125 28.609375 
L 4.6875 54.6875 
L 15.28125 54.6875 
L 29.78125 35.203125 
L 44.28125 54.6875 
z
" id="DejaVuSans-120"/>
       <path d="M 8.015625 75.875 
L 15.828125 75.875 
Q 23.140625 64.359375 26.78125 53.3125 
Q 30.421875 42.28125 30.421875 31.390625 
Q 30.421875 20.453125 26.78125 9.375 
Q 23.140625 -1.703125 15.828125 -13.1875 
L 8.015625 -13.1875 
Q 14.5 -2 17.703125 9.0625 
Q 20.90625 20.125 20.90625 31.390625 
Q 20.90625 42.671875 17.703125 53.65625 
Q 14.5 64.65625 8.015625 75.875 
z
" id="DejaVuSans-41"/>
      </defs>
      <use xlink:href="#DejaVuSans-102"/>
      <use x="35.205078" xlink:href="#DejaVuSans-40"/>
      <use x="74.21875" xlink:href="#DejaVuSans-120"/>
      <use x="133.398438" xlink:href="#DejaVuSans-41"/>
     </g>
    </g>
   </g>
   <g id="line2d_15">
    <path clip-path="url(#p89be76b90e)" d="M 75.430284 81.116542 
L 80.711201 81.012017 
L 86.398343 80.669869 
L 92.085485 80.102936 
L 98.178851 79.271736 
L 105.084666 78.09766 
L 113.615378 76.40972 
L 134.739047 72.124054 
L 141.238638 71.091601 
L 146.92578 70.409409 
L 152.206697 70.004195 
L 157.08139 69.854828 
L 161.549858 69.926874 
L 166.018327 70.212915 
L 170.486795 70.723033 
L 174.955264 71.463481 
L 179.423732 72.436459 
L 183.892201 73.639948 
L 188.360669 75.06762 
L 193.235362 76.868116 
L 198.110055 78.902987 
L 203.390972 81.342177 
L 209.484338 84.408742 
L 217.202602 88.570262 
L 238.326271 100.146494 
L 244.013413 102.927262 
L 248.888106 105.075604 
L 253.356574 106.809173 
L 257.418818 108.157888 
L 261.481062 109.263855 
L 265.137082 110.032393 
L 268.793101 110.570186 
L 272.449121 110.863835 
L 275.698916 110.910651 
L 278.948712 110.749001 
L 282.198507 110.37379 
L 285.448302 109.781441 
L 288.698097 108.969963 
L 291.947893 107.938992 
L 295.197688 106.689835 
L 298.853708 105.027539 
L 302.509727 103.099807 
L 306.165747 100.916232 
L 309.821766 98.489108 
L 313.884011 95.524923 
L 318.352479 91.967417 
L 323.227172 87.774689 
L 328.508089 82.928231 
L 335.00768 76.643637 
L 348.006861 63.651059 
L 355.3189 56.529934 
L 361.006042 51.302125 
L 365.47451 47.474636 
L 369.536754 44.262785 
L 373.192774 41.62606 
L 376.848794 39.260067 
L 380.098589 37.406309 
L 383.348384 35.805775 
L 386.598179 34.474778 
L 389.44175 33.542872 
L 392.285321 32.837405 
L 395.128892 32.366079 
L 397.972463 32.135462 
L 400.816033 32.150933 
L 403.659604 32.416636 
L 406.503175 32.935437 
L 409.346746 33.708892 
L 412.190317 34.737217 
L 415.033888 36.01927 
L 417.877459 37.552532 
L 420.721029 39.333107 
L 423.5646 41.355722 
L 426.814395 43.955071 
L 430.064191 46.849751 
L 433.313986 50.025425 
L 436.970006 53.913266 
L 441.03225 58.592964 
L 445.094494 63.611452 
L 449.969187 70.016042 
L 455.250104 77.32923 
L 462.562143 87.878364 
L 477.998671 110.293393 
L 481.248466 114.791671 
L 481.248466 114.791671 
" style="fill:none;stroke:#000000;stroke-linecap:square;stroke-width:1.5;"/>
   </g>
   <g id="line2d_16">
    <path clip-path="url(#p89be76b90e)" d="M 75.430284 77.333199 
L 87.617016 76.044111 
L 98.9913 75.061588 
L 109.959359 74.336986 
L 120.521193 73.861696 
L 130.270579 73.637772 
L 139.61374 73.64667 
L 148.144453 73.880818 
L 155.862717 74.313779 
L 163.174756 74.9524 
L 169.674346 75.736371 
L 175.767712 76.681968 
L 181.861079 77.855725 
L 187.54822 79.178202 
L 193.235362 80.73882 
L 198.516279 82.415529 
L 203.797196 84.322053 
L 209.078114 86.464714 
L 214.359031 88.844044 
L 220.046173 91.662833 
L 226.139539 94.952636 
L 233.045354 98.953928 
L 244.419637 105.861492 
L 253.356574 111.181418 
L 259.44994 114.56082 
L 264.730857 117.242155 
L 269.60555 119.472127 
L 274.480243 121.444393 
L 278.948712 123.017011 
L 283.41718 124.362964 
L 287.885649 125.485707 
L 292.354117 126.392274 
L 297.22881 127.146286 
L 302.103503 127.670174 
L 307.38442 127.997993 
L 312.665337 128.099211 
L 318.352479 127.982109 
L 324.445845 127.629217 
L 330.945436 127.032204 
L 338.257475 126.137347 
L 346.788187 124.86185 
L 357.350022 123.041472 
L 372.786549 120.123613 
L 402.440931 114.494541 
L 417.06501 111.971112 
L 430.470415 109.878762 
L 443.875821 108.014845 
L 457.281226 106.379941 
L 471.092856 104.924615 
L 481.248466 103.992878 
L 481.248466 103.992878 
" style="fill:none;stroke:#1f77b4;stroke-linecap:square;stroke-width:1.5;"/>
   </g>
   <g id="patch_3">
    <path d="M 55.139375 204.872727 
L 55.139375 7.2 
" style="fill:none;stroke:#000000;stroke-linecap:square;stroke-linejoin:miter;stroke-width:0.8;"/>
   </g>
   <g id="patch_4">
    <path d="M 501.539375 204.872727 
L 501.539375 7.2 
" style="fill:none;stroke:#000000;stroke-linecap:square;stroke-linejoin:miter;stroke-width:0.8;"/>
   </g>
   <g id="patch_5">
    <path d="M 55.139375 204.872727 
L 501.539375 204.872727 
" style="fill:none;stroke:#000000;stroke-linecap:square;stroke-linejoin:miter;stroke-width:0.8;"/>
   </g>
   <g id="patch_6">
    <path d="M 55.139375 7.2 
L 501.539375 7.2 
" style="fill:none;stroke:#000000;stroke-linecap:square;stroke-linejoin:miter;stroke-width:0.8;"/>
   </g>
   <g id="legend_1">
    <g id="patch_7">
     <path d="M 63.539375 198.872727 
L 141.254375 198.872727 
Q 143.654375 198.872727 143.654375 196.472727 
L 143.654375 144.831477 
Q 143.654375 142.431477 141.254375 142.431477 
L 63.539375 142.431477 
Q 61.139375 142.431477 61.139375 144.831477 
L 61.139375 196.472727 
Q 61.139375 198.872727 63.539375 198.872727 
z
" style="fill:#ffffff;opacity:0.8;stroke:#cccccc;stroke-linejoin:miter;"/>
    </g>
    <g id="line2d_17">
     <path d="M 65.939375 152.149602 
L 89.939375 152.149602 
" style="fill:none;stroke:#1f77b4;stroke-linecap:square;stroke-width:1.5;"/>
    </g>
    <g id="line2d_18"/>
    <g id="text_16">
     <!-- model -->
     <g transform="translate(99.539375 156.349602)scale(0.12 -0.12)">
      <defs>
       <path d="M 52 44.1875 
Q 55.375 50.25 60.0625 53.125 
Q 64.75 56 71.09375 56 
Q 79.640625 56 84.28125 50.015625 
Q 88.921875 44.046875 88.921875 33.015625 
L 88.921875 0 
L 79.890625 0 
L 79.890625 32.71875 
Q 79.890625 40.578125 77.09375 44.375 
Q 74.3125 48.1875 68.609375 48.1875 
Q 61.625 48.1875 57.5625 43.546875 
Q 53.515625 38.921875 53.515625 30.90625 
L 53.515625 0 
L 44.484375 0 
L 44.484375 32.71875 
Q 44.484375 40.625 41.703125 44.40625 
Q 38.921875 48.1875 33.109375 48.1875 
Q 26.21875 48.1875 22.15625 43.53125 
Q 18.109375 38.875 18.109375 30.90625 
L 18.109375 0 
L 9.078125 0 
L 9.078125 54.6875 
L 18.109375 54.6875 
L 18.109375 46.1875 
Q 21.1875 51.21875 25.484375 53.609375 
Q 29.78125 56 35.6875 56 
Q 41.65625 56 45.828125 52.96875 
Q 50 49.953125 52 44.1875 
z
" id="DejaVuSans-109"/>
       <path d="M 30.609375 48.390625 
Q 23.390625 48.390625 19.1875 42.75 
Q 14.984375 37.109375 14.984375 27.296875 
Q 14.984375 17.484375 19.15625 11.84375 
Q 23.34375 6.203125 30.609375 6.203125 
Q 37.796875 6.203125 41.984375 11.859375 
Q 46.1875 17.53125 46.1875 27.296875 
Q 46.1875 37.015625 41.984375 42.703125 
Q 37.796875 48.390625 30.609375 48.390625 
z
M 30.609375 56 
Q 42.328125 56 49.015625 48.375 
Q 55.71875 40.765625 55.71875 27.296875 
Q 55.71875 13.875 49.015625 6.21875 
Q 42.328125 -1.421875 30.609375 -1.421875 
Q 18.84375 -1.421875 12.171875 6.21875 
Q 5.515625 13.875 5.515625 27.296875 
Q 5.515625 40.765625 12.171875 48.375 
Q 18.84375 56 30.609375 56 
z
" id="DejaVuSans-111"/>
       <path d="M 45.40625 46.390625 
L 45.40625 75.984375 
L 54.390625 75.984375 
L 54.390625 0 
L 45.40625 0 
L 45.40625 8.203125 
Q 42.578125 3.328125 38.25 0.953125 
Q 33.9375 -1.421875 27.875 -1.421875 
Q 17.96875 -1.421875 11.734375 6.484375 
Q 5.515625 14.40625 5.515625 27.296875 
Q 5.515625 40.1875 11.734375 48.09375 
Q 17.96875 56 27.875 56 
Q 33.9375 56 38.25 53.625 
Q 42.578125 51.265625 45.40625 46.390625 
z
M 14.796875 27.296875 
Q 14.796875 17.390625 18.875 11.75 
Q 22.953125 6.109375 30.078125 6.109375 
Q 37.203125 6.109375 41.296875 11.75 
Q 45.40625 17.390625 45.40625 27.296875 
Q 45.40625 37.203125 41.296875 42.84375 
Q 37.203125 48.484375 30.078125 48.484375 
Q 22.953125 48.484375 18.875 42.84375 
Q 14.796875 37.203125 14.796875 27.296875 
z
" id="DejaVuSans-100"/>
       <path d="M 56.203125 29.59375 
L 56.203125 25.203125 
L 14.890625 25.203125 
Q 15.484375 15.921875 20.484375 11.0625 
Q 25.484375 6.203125 34.421875 6.203125 
Q 39.59375 6.203125 44.453125 7.46875 
Q 49.3125 8.734375 54.109375 11.28125 
L 54.109375 2.78125 
Q 49.265625 0.734375 44.1875 -0.34375 
Q 39.109375 -1.421875 33.890625 -1.421875 
Q 20.796875 -1.421875 13.15625 6.1875 
Q 5.515625 13.8125 5.515625 26.8125 
Q 5.515625 40.234375 12.765625 48.109375 
Q 20.015625 56 32.328125 56 
Q 43.359375 56 49.78125 48.890625 
Q 56.203125 41.796875 56.203125 29.59375 
z
M 47.21875 32.234375 
Q 47.125 39.59375 43.09375 43.984375 
Q 39.0625 48.390625 32.421875 48.390625 
Q 24.90625 48.390625 20.390625 44.140625 
Q 15.875 39.890625 15.1875 32.171875 
z
" id="DejaVuSans-101"/>
       <path d="M 9.421875 75.984375 
L 18.40625 75.984375 
L 18.40625 0 
L 9.421875 0 
z
" id="DejaVuSans-108"/>
      </defs>
      <use xlink:href="#DejaVuSans-109"/>
      <use x="97.412109" xlink:href="#DejaVuSans-111"/>
      <use x="158.59375" xlink:href="#DejaVuSans-100"/>
      <use x="222.070312" xlink:href="#DejaVuSans-101"/>
      <use x="283.59375" xlink:href="#DejaVuSans-108"/>
     </g>
    </g>
    <g id="PathCollection_3">
     <g>
      <use style="stroke:#000000;" x="77.939375" xlink:href="#m941272f526" y="170.813352"/>
     </g>
    </g>
    <g id="text_17">
     <!-- known -->
     <g transform="translate(99.539375 173.963352)scale(0.12 -0.12)">
      <defs>
       <path d="M 9.078125 75.984375 
L 18.109375 75.984375 
L 18.109375 31.109375 
L 44.921875 54.6875 
L 56.390625 54.6875 
L 27.390625 29.109375 
L 57.625 0 
L 45.90625 0 
L 18.109375 26.703125 
L 18.109375 0 
L 9.078125 0 
z
" id="DejaVuSans-107"/>
       <path d="M 54.890625 33.015625 
L 54.890625 0 
L 45.90625 0 
L 45.90625 32.71875 
Q 45.90625 40.484375 42.875 44.328125 
Q 39.84375 48.1875 33.796875 48.1875 
Q 26.515625 48.1875 22.3125 43.546875 
Q 18.109375 38.921875 18.109375 30.90625 
L 18.109375 0 
L 9.078125 0 
L 9.078125 54.6875 
L 18.109375 54.6875 
L 18.109375 46.1875 
Q 21.34375 51.125 25.703125 53.5625 
Q 30.078125 56 35.796875 56 
Q 45.21875 56 50.046875 50.171875 
Q 54.890625 44.34375 54.890625 33.015625 
z
" id="DejaVuSans-110"/>
       <path d="M 4.203125 54.6875 
L 13.1875 54.6875 
L 24.421875 12.015625 
L 35.59375 54.6875 
L 46.1875 54.6875 
L 57.421875 12.015625 
L 68.609375 54.6875 
L 77.59375 54.6875 
L 63.28125 0 
L 52.6875 0 
L 40.921875 44.828125 
L 29.109375 0 
L 18.5 0 
z
" id="DejaVuSans-119"/>
      </defs>
      <use xlink:href="#DejaVuSans-107"/>
      <use x="57.910156" xlink:href="#DejaVuSans-110"/>
      <use x="121.289062" xlink:href="#DejaVuSans-111"/>
      <use x="182.470703" xlink:href="#DejaVuSans-119"/>
      <use x="264.257812" xlink:href="#DejaVuSans-110"/>
     </g>
    </g>
    <g id="PathCollection_4">
     <g>
      <use style="fill:#ff0000;stroke:#ff0000;" x="77.939375" xlink:href="#mcff23d6bd8" y="188.427102"/>
     </g>
    </g>
    <g id="text_18">
     <!-- next -->
     <g transform="translate(99.539375 191.577102)scale(0.12 -0.12)">
      <defs>
       <path d="M 18.3125 70.21875 
L 18.3125 54.6875 
L 36.8125 54.6875 
L 36.8125 47.703125 
L 18.3125 47.703125 
L 18.3125 18.015625 
Q 18.3125 11.328125 20.140625 9.421875 
Q 21.96875 7.515625 27.59375 7.515625 
L 36.8125 7.515625 
L 36.8125 0 
L 27.59375 0 
Q 17.1875 0 13.234375 3.875 
Q 9.28125 7.765625 9.28125 18.015625 
L 9.28125 47.703125 
L 2.6875 47.703125 
L 2.6875 54.6875 
L 9.28125 54.6875 
L 9.28125 70.21875 
z
" id="DejaVuSans-116"/>
      </defs>
      <use xlink:href="#DejaVuSans-110"/>
      <use x="63.378906" xlink:href="#DejaVuSans-101"/>
      <use x="123.152344" xlink:href="#DejaVuSans-120"/>
      <use x="182.332031" xlink:href="#DejaVuSans-116"/>
     </g>
    </g>
   </g>
  </g>
  <g id="axes_2">
   <g id="patch_8">
    <path d="M 55.139375 442.08 
L 501.539375 442.08 
L 501.539375 244.407273 
L 55.139375 244.407273 
z
" style="fill:#ffffff;"/>
   </g>
   <g id="matplotlib.axis_3">
    <g id="xtick_7">
     <g id="line2d_19">
      <g>
       <use style="stroke:#000000;stroke-width:0.8;" x="75.430284" xlink:href="#m48f51da064" y="442.08"/>
      </g>
     </g>
     <g id="text_19">
      <!-- 0.0 -->
      <g transform="translate(65.888409 458.198125)scale(0.12 -0.12)">
       <defs>
        <path d="M 10.6875 12.40625 
L 21 12.40625 
L 21 0 
L 10.6875 0 
z
" id="DejaVuSans-46"/>
       </defs>
       <use xlink:href="#DejaVuSans-48"/>
       <use x="63.623047" xlink:href="#DejaVuSans-46"/>
       <use x="95.410156" xlink:href="#DejaVuSans-48"/>
      </g>
     </g>
    </g>
    <g id="xtick_8">
     <g id="line2d_20">
      <g>
       <use style="stroke:#000000;stroke-width:0.8;" x="156.59392" xlink:href="#m48f51da064" y="442.08"/>
      </g>
     </g>
     <g id="text_20">
      <!-- 0.2 -->
      <g transform="translate(147.052045 458.198125)scale(0.12 -0.12)">
       <use xlink:href="#DejaVuSans-48"/>
       <use x="63.623047" xlink:href="#DejaVuSans-46"/>
       <use x="95.410156" xlink:href="#DejaVuSans-50"/>
      </g>
     </g>
    </g>
    <g id="xtick_9">
     <g id="line2d_21">
      <g>
       <use style="stroke:#000000;stroke-width:0.8;" x="237.757557" xlink:href="#m48f51da064" y="442.08"/>
      </g>
     </g>
     <g id="text_21">
      <!-- 0.4 -->
      <g transform="translate(228.215682 458.198125)scale(0.12 -0.12)">
       <use xlink:href="#DejaVuSans-48"/>
       <use x="63.623047" xlink:href="#DejaVuSans-46"/>
       <use x="95.410156" xlink:href="#DejaVuSans-52"/>
      </g>
     </g>
    </g>
    <g id="xtick_10">
     <g id="line2d_22">
      <g>
       <use style="stroke:#000000;stroke-width:0.8;" x="318.921193" xlink:href="#m48f51da064" y="442.08"/>
      </g>
     </g>
     <g id="text_22">
      <!-- 0.6 -->
      <g transform="translate(309.379318 458.198125)scale(0.12 -0.12)">
       <use xlink:href="#DejaVuSans-48"/>
       <use x="63.623047" xlink:href="#DejaVuSans-46"/>
       <use x="95.410156" xlink:href="#DejaVuSans-54"/>
      </g>
     </g>
    </g>
    <g id="xtick_11">
     <g id="line2d_23">
      <g>
       <use style="stroke:#000000;stroke-width:0.8;" x="400.08483" xlink:href="#m48f51da064" y="442.08"/>
      </g>
     </g>
     <g id="text_23">
      <!-- 0.8 -->
      <g transform="translate(390.542955 458.198125)scale(0.12 -0.12)">
       <use xlink:href="#DejaVuSans-48"/>
       <use x="63.623047" xlink:href="#DejaVuSans-46"/>
       <use x="95.410156" xlink:href="#DejaVuSans-56"/>
      </g>
     </g>
    </g>
    <g id="xtick_12">
     <g id="line2d_24">
      <g>
       <use style="stroke:#000000;stroke-width:0.8;" x="481.248466" xlink:href="#m48f51da064" y="442.08"/>
      </g>
     </g>
     <g id="text_24">
      <!-- 1.0 -->
      <g transform="translate(471.706591 458.198125)scale(0.12 -0.12)">
       <use xlink:href="#DejaVuSans-49"/>
       <use x="63.623047" xlink:href="#DejaVuSans-46"/>
       <use x="95.410156" xlink:href="#DejaVuSans-48"/>
      </g>
     </g>
    </g>
    <g id="text_25">
     <!-- x -->
     <g transform="translate(274.788125 473.811875)scale(0.12 -0.12)">
      <use xlink:href="#DejaVuSans-120"/>
     </g>
    </g>
   </g>
   <g id="matplotlib.axis_4">
    <g id="ytick_9">
     <g id="line2d_25">
      <g>
       <use style="stroke:#000000;stroke-width:0.8;" x="55.139375" xlink:href="#m3ba0985cf6" y="433.094876"/>
      </g>
     </g>
     <g id="text_26">
      <!-- 0.0 -->
      <g transform="translate(29.055625 437.653939)scale(0.12 -0.12)">
       <use xlink:href="#DejaVuSans-48"/>
       <use x="63.623047" xlink:href="#DejaVuSans-46"/>
       <use x="95.410156" xlink:href="#DejaVuSans-48"/>
      </g>
     </g>
    </g>
    <g id="ytick_10">
     <g id="line2d_26">
      <g>
       <use style="stroke:#000000;stroke-width:0.8;" x="55.139375" xlink:href="#m3ba0985cf6" y="398.119061"/>
      </g>
     </g>
     <g id="text_27">
      <!-- 0.1 -->
      <g transform="translate(29.055625 402.678124)scale(0.12 -0.12)">
       <use xlink:href="#DejaVuSans-48"/>
       <use x="63.623047" xlink:href="#DejaVuSans-46"/>
       <use x="95.410156" xlink:href="#DejaVuSans-49"/>
      </g>
     </g>
    </g>
    <g id="ytick_11">
     <g id="line2d_27">
      <g>
       <use style="stroke:#000000;stroke-width:0.8;" x="55.139375" xlink:href="#m3ba0985cf6" y="363.143246"/>
      </g>
     </g>
     <g id="text_28">
      <!-- 0.2 -->
      <g transform="translate(29.055625 367.702309)scale(0.12 -0.12)">
       <use xlink:href="#DejaVuSans-48"/>
       <use x="63.623047" xlink:href="#DejaVuSans-46"/>
       <use x="95.410156" xlink:href="#DejaVuSans-50"/>
      </g>
     </g>
    </g>
    <g id="ytick_12">
     <g id="line2d_28">
      <g>
       <use style="stroke:#000000;stroke-width:0.8;" x="55.139375" xlink:href="#m3ba0985cf6" y="328.167431"/>
      </g>
     </g>
     <g id="text_29">
      <!-- 0.3 -->
      <g transform="translate(29.055625 332.726494)scale(0.12 -0.12)">
       <defs>
        <path d="M 40.578125 39.3125 
Q 47.65625 37.796875 51.625 33 
Q 55.609375 28.21875 55.609375 21.1875 
Q 55.609375 10.40625 48.1875 4.484375 
Q 40.765625 -1.421875 27.09375 -1.421875 
Q 22.515625 -1.421875 17.65625 -0.515625 
Q 12.796875 0.390625 7.625 2.203125 
L 7.625 11.71875 
Q 11.71875 9.328125 16.59375 8.109375 
Q 21.484375 6.890625 26.8125 6.890625 
Q 36.078125 6.890625 40.9375 10.546875 
Q 45.796875 14.203125 45.796875 21.1875 
Q 45.796875 27.640625 41.28125 31.265625 
Q 36.765625 34.90625 28.71875 34.90625 
L 20.21875 34.90625 
L 20.21875 43.015625 
L 29.109375 43.015625 
Q 36.375 43.015625 40.234375 45.921875 
Q 44.09375 48.828125 44.09375 54.296875 
Q 44.09375 59.90625 40.109375 62.90625 
Q 36.140625 65.921875 28.71875 65.921875 
Q 24.65625 65.921875 20.015625 65.03125 
Q 15.375 64.15625 9.8125 62.3125 
L 9.8125 71.09375 
Q 15.4375 72.65625 20.34375 73.4375 
Q 25.25 74.21875 29.59375 74.21875 
Q 40.828125 74.21875 47.359375 69.109375 
Q 53.90625 64.015625 53.90625 55.328125 
Q 53.90625 49.265625 50.4375 45.09375 
Q 46.96875 40.921875 40.578125 39.3125 
z
" id="DejaVuSans-51"/>
       </defs>
       <use xlink:href="#DejaVuSans-48"/>
       <use x="63.623047" xlink:href="#DejaVuSans-46"/>
       <use x="95.410156" xlink:href="#DejaVuSans-51"/>
      </g>
     </g>
    </g>
    <g id="ytick_13">
     <g id="line2d_29">
      <g>
       <use style="stroke:#000000;stroke-width:0.8;" x="55.139375" xlink:href="#m3ba0985cf6" y="293.191616"/>
      </g>
     </g>
     <g id="text_30">
      <!-- 0.4 -->
      <g transform="translate(29.055625 297.750679)scale(0.12 -0.12)">
       <use xlink:href="#DejaVuSans-48"/>
       <use x="63.623047" xlink:href="#DejaVuSans-46"/>
       <use x="95.410156" xlink:href="#DejaVuSans-52"/>
      </g>
     </g>
    </g>
    <g id="ytick_14">
     <g id="line2d_30">
      <g>
       <use style="stroke:#000000;stroke-width:0.8;" x="55.139375" xlink:href="#m3ba0985cf6" y="258.215801"/>
      </g>
     </g>
     <g id="text_31">
      <!-- 0.5 -->
      <g transform="translate(29.055625 262.774864)scale(0.12 -0.12)">
       <defs>
        <path d="M 10.796875 72.90625 
L 49.515625 72.90625 
L 49.515625 64.59375 
L 19.828125 64.59375 
L 19.828125 46.734375 
Q 21.96875 47.46875 24.109375 47.828125 
Q 26.265625 48.1875 28.421875 48.1875 
Q 40.625 48.1875 47.75 41.5 
Q 54.890625 34.8125 54.890625 23.390625 
Q 54.890625 11.625 47.5625 5.09375 
Q 40.234375 -1.421875 26.90625 -1.421875 
Q 22.3125 -1.421875 17.546875 -0.640625 
Q 12.796875 0.140625 7.71875 1.703125 
L 7.71875 11.625 
Q 12.109375 9.234375 16.796875 8.0625 
Q 21.484375 6.890625 26.703125 6.890625 
Q 35.15625 6.890625 40.078125 11.328125 
Q 45.015625 15.765625 45.015625 23.390625 
Q 45.015625 31 40.078125 35.4375 
Q 35.15625 39.890625 26.703125 39.890625 
Q 22.75 39.890625 18.8125 39.015625 
Q 14.890625 38.140625 10.796875 36.28125 
z
" id="DejaVuSans-53"/>
       </defs>
       <use xlink:href="#DejaVuSans-48"/>
       <use x="63.623047" xlink:href="#DejaVuSans-46"/>
       <use x="95.410156" xlink:href="#DejaVuSans-53"/>
      </g>
     </g>
    </g>
    <g id="text_32">
     <!-- Acquisition Function -->
     <g transform="translate(22.56 403.530511)rotate(-90)scale(0.12 -0.12)">
      <defs>
       <path d="M 34.1875 63.1875 
L 20.796875 26.90625 
L 47.609375 26.90625 
z
M 28.609375 72.90625 
L 39.796875 72.90625 
L 67.578125 0 
L 57.328125 0 
L 50.6875 18.703125 
L 17.828125 18.703125 
L 11.1875 0 
L 0.78125 0 
z
" id="DejaVuSans-65"/>
       <path d="M 48.78125 52.59375 
L 48.78125 44.1875 
Q 44.96875 46.296875 41.140625 47.34375 
Q 37.3125 48.390625 33.40625 48.390625 
Q 24.65625 48.390625 19.8125 42.84375 
Q 14.984375 37.3125 14.984375 27.296875 
Q 14.984375 17.28125 19.8125 11.734375 
Q 24.65625 6.203125 33.40625 6.203125 
Q 37.3125 6.203125 41.140625 7.25 
Q 44.96875 8.296875 48.78125 10.40625 
L 48.78125 2.09375 
Q 45.015625 0.34375 40.984375 -0.53125 
Q 36.96875 -1.421875 32.421875 -1.421875 
Q 20.0625 -1.421875 12.78125 6.34375 
Q 5.515625 14.109375 5.515625 27.296875 
Q 5.515625 40.671875 12.859375 48.328125 
Q 20.21875 56 33.015625 56 
Q 37.15625 56 41.109375 55.140625 
Q 45.0625 54.296875 48.78125 52.59375 
z
" id="DejaVuSans-99"/>
       <path d="M 14.796875 27.296875 
Q 14.796875 17.390625 18.875 11.75 
Q 22.953125 6.109375 30.078125 6.109375 
Q 37.203125 6.109375 41.296875 11.75 
Q 45.40625 17.390625 45.40625 27.296875 
Q 45.40625 37.203125 41.296875 42.84375 
Q 37.203125 48.484375 30.078125 48.484375 
Q 22.953125 48.484375 18.875 42.84375 
Q 14.796875 37.203125 14.796875 27.296875 
z
M 45.40625 8.203125 
Q 42.578125 3.328125 38.25 0.953125 
Q 33.9375 -1.421875 27.875 -1.421875 
Q 17.96875 -1.421875 11.734375 6.484375 
Q 5.515625 14.40625 5.515625 27.296875 
Q 5.515625 40.1875 11.734375 48.09375 
Q 17.96875 56 27.875 56 
Q 33.9375 56 38.25 53.625 
Q 42.578125 51.265625 45.40625 46.390625 
L 45.40625 54.6875 
L 54.390625 54.6875 
L 54.390625 -20.796875 
L 45.40625 -20.796875 
z
" id="DejaVuSans-113"/>
       <path d="M 8.5 21.578125 
L 8.5 54.6875 
L 17.484375 54.6875 
L 17.484375 21.921875 
Q 17.484375 14.15625 20.5 10.265625 
Q 23.53125 6.390625 29.59375 6.390625 
Q 36.859375 6.390625 41.078125 11.03125 
Q 45.3125 15.671875 45.3125 23.6875 
L 45.3125 54.6875 
L 54.296875 54.6875 
L 54.296875 0 
L 45.3125 0 
L 45.3125 8.40625 
Q 42.046875 3.421875 37.71875 1 
Q 33.40625 -1.421875 27.6875 -1.421875 
Q 18.265625 -1.421875 13.375 4.4375 
Q 8.5 10.296875 8.5 21.578125 
z
M 31.109375 56 
z
" id="DejaVuSans-117"/>
       <path d="M 9.421875 54.6875 
L 18.40625 54.6875 
L 18.40625 0 
L 9.421875 0 
z
M 9.421875 75.984375 
L 18.40625 75.984375 
L 18.40625 64.59375 
L 9.421875 64.59375 
z
" id="DejaVuSans-105"/>
       <path d="M 44.28125 53.078125 
L 44.28125 44.578125 
Q 40.484375 46.53125 36.375 47.5 
Q 32.28125 48.484375 27.875 48.484375 
Q 21.1875 48.484375 17.84375 46.4375 
Q 14.5 44.390625 14.5 40.28125 
Q 14.5 37.15625 16.890625 35.375 
Q 19.28125 33.59375 26.515625 31.984375 
L 29.59375 31.296875 
Q 39.15625 29.25 43.1875 25.515625 
Q 47.21875 21.78125 47.21875 15.09375 
Q 47.21875 7.46875 41.1875 3.015625 
Q 35.15625 -1.421875 24.609375 -1.421875 
Q 20.21875 -1.421875 15.453125 -0.5625 
Q 10.6875 0.296875 5.421875 2 
L 5.421875 11.28125 
Q 10.40625 8.6875 15.234375 7.390625 
Q 20.0625 6.109375 24.8125 6.109375 
Q 31.15625 6.109375 34.5625 8.28125 
Q 37.984375 10.453125 37.984375 14.40625 
Q 37.984375 18.0625 35.515625 20.015625 
Q 33.0625 21.96875 24.703125 23.78125 
L 21.578125 24.515625 
Q 13.234375 26.265625 9.515625 29.90625 
Q 5.8125 33.546875 5.8125 39.890625 
Q 5.8125 47.609375 11.28125 51.796875 
Q 16.75 56 26.8125 56 
Q 31.78125 56 36.171875 55.265625 
Q 40.578125 54.546875 44.28125 53.078125 
z
" id="DejaVuSans-115"/>
       <path id="DejaVuSans-32"/>
       <path d="M 9.8125 72.90625 
L 51.703125 72.90625 
L 51.703125 64.59375 
L 19.671875 64.59375 
L 19.671875 43.109375 
L 48.578125 43.109375 
L 48.578125 34.8125 
L 19.671875 34.8125 
L 19.671875 0 
L 9.8125 0 
z
" id="DejaVuSans-70"/>
      </defs>
      <use xlink:href="#DejaVuSans-65"/>
      <use x="66.658203" xlink:href="#DejaVuSans-99"/>
      <use x="121.638672" xlink:href="#DejaVuSans-113"/>
      <use x="185.115234" xlink:href="#DejaVuSans-117"/>
      <use x="248.494141" xlink:href="#DejaVuSans-105"/>
      <use x="276.277344" xlink:href="#DejaVuSans-115"/>
      <use x="328.376953" xlink:href="#DejaVuSans-105"/>
      <use x="356.160156" xlink:href="#DejaVuSans-116"/>
      <use x="395.369141" xlink:href="#DejaVuSans-105"/>
      <use x="423.152344" xlink:href="#DejaVuSans-111"/>
      <use x="484.333984" xlink:href="#DejaVuSans-110"/>
      <use x="547.712891" xlink:href="#DejaVuSans-32"/>
      <use x="579.5" xlink:href="#DejaVuSans-70"/>
      <use x="631.519531" xlink:href="#DejaVuSans-117"/>
      <use x="694.898438" xlink:href="#DejaVuSans-110"/>
      <use x="758.277344" xlink:href="#DejaVuSans-99"/>
      <use x="813.257812" xlink:href="#DejaVuSans-116"/>
      <use x="852.466797" xlink:href="#DejaVuSans-105"/>
      <use x="880.25" xlink:href="#DejaVuSans-111"/>
      <use x="941.431641" xlink:href="#DejaVuSans-110"/>
     </g>
    </g>
   </g>
   <g id="line2d_31">
    <path clip-path="url(#p4f01390c85)" d="M 75.430284 386.483437 
L 77.055182 389.139376 
L 78.680079 391.362858 
L 79.898753 392.675078 
L 81.117426 393.622524 
L 81.929875 394.024011 
L 82.742323 394.222595 
L 83.554772 394.204761 
L 84.367221 393.959341 
L 85.17967 393.477957 
L 85.992119 392.755995 
L 86.804567 391.797397 
L 88.023241 389.923373 
L 89.241914 387.563009 
L 90.460587 384.765219 
L 92.085485 380.460306 
L 94.116607 374.359313 
L 96.960178 364.928296 
L 101.83487 347.69698 
L 107.928237 326.309809 
L 111.990481 312.911851 
L 115.240276 302.91777 
L 118.490071 293.674812 
L 121.333642 286.263498 
L 124.177213 279.526124 
L 126.614559 274.315368 
L 129.051906 269.64565 
L 131.083028 266.180266 
L 133.11415 263.112384 
L 135.145272 260.450312 
L 137.176394 258.202062 
L 138.801291 256.706645 
L 140.426189 255.484643 
L 142.051087 254.539305 
L 143.675984 253.873988 
L 145.300882 253.49167 
L 146.92578 253.395216 
L 148.550677 253.587325 
L 150.175575 254.070471 
L 151.800472 254.846694 
L 153.42537 255.918031 
L 155.050268 257.286099 
L 156.675165 258.952462 
L 158.300063 260.917697 
L 159.924961 263.183057 
L 161.956083 266.436452 
L 163.987205 270.157944 
L 166.018327 274.345352 
L 168.049449 278.994515 
L 170.486795 285.175304 
L 172.924142 291.997801 
L 175.361488 299.441313 
L 178.205059 308.871968 
L 181.04863 319.047391 
L 184.298425 331.480495 
L 188.360669 347.970347 
L 200.141177 396.588538 
L 202.578523 405.405752 
L 204.609645 412.008603 
L 206.234543 416.696488 
L 207.859441 420.78706 
L 209.484338 424.234927 
L 210.703011 426.387188 
L 211.921685 428.171978 
L 213.140358 429.605747 
L 214.359031 430.716363 
L 215.577704 431.541955 
L 216.796377 432.127943 
L 218.421275 432.620617 
L 220.452397 432.925685 
L 223.295968 433.064463 
L 231.014232 433.094792 
L 302.915952 432.993648 
L 309.009318 432.724899 
L 313.477786 432.315119 
L 317.54003 431.721154 
L 321.19605 430.96675 
L 324.85207 429.976175 
L 328.508089 428.730291 
L 331.757884 427.399355 
L 335.413904 425.646872 
L 339.069924 423.62652 
L 342.725943 421.346348 
L 346.381963 418.819027 
L 350.444207 415.740976 
L 354.912676 412.05717 
L 359.787368 407.726085 
L 365.068286 402.72504 
L 371.161652 396.639496 
L 378.879916 388.592558 
L 391.879097 374.648493 
L 404.878278 360.81282 
L 413.40899 352.045028 
L 421.127254 344.428684 
L 428.033069 337.914503 
L 434.938884 331.711846 
L 441.438474 326.174016 
L 447.938065 320.935249 
L 454.437655 315.998517 
L 460.531021 311.643592 
L 466.624387 307.549303 
L 472.717753 303.709943 
L 479.217344 299.887227 
L 481.248466 298.748773 
L 481.248466 298.748773 
" style="fill:none;stroke:#1f77b4;stroke-linecap:square;stroke-width:1.5;"/>
   </g>
   <g id="line2d_32">
    <path clip-path="url(#p4f01390c85)" d="M 75.430284 402.949541 
L 77.461406 403.024911 
L 79.492528 402.85511 
L 81.52365 402.425164 
L 83.554772 401.719342 
L 85.585894 400.732766 
L 87.617016 399.468896 
L 89.648138 397.94481 
L 92.085485 395.807095 
L 94.929056 392.969242 
L 98.585075 388.959587 
L 107.522012 378.952859 
L 110.771807 375.687314 
L 113.615378 373.126929 
L 116.052725 371.190537 
L 118.490071 369.516608 
L 120.927418 368.123697 
L 123.364764 367.02138 
L 125.395886 366.336185 
L 127.427008 365.862564 
L 129.45813 365.605504 
L 131.489252 365.565128 
L 133.520374 365.741654 
L 135.551496 366.133594 
L 137.582618 366.737965 
L 139.61374 367.551469 
L 141.644862 368.568183 
L 144.082209 370.048128 
L 146.519555 371.800163 
L 148.956902 373.808142 
L 151.800472 376.45322 
L 154.644043 379.397204 
L 157.893839 383.094712 
L 161.549858 387.620807 
L 165.612102 393.024077 
L 170.89302 400.452824 
L 180.642405 414.242955 
L 183.892201 418.449619 
L 186.735771 421.80075 
L 189.173118 424.362896 
L 191.610464 426.59401 
L 193.641586 428.17866 
L 195.672708 429.506009 
L 197.70383 430.578766 
L 199.734952 431.411224 
L 201.766074 432.026795 
L 204.203421 432.524956 
L 207.046992 432.855116 
L 210.703011 433.033981 
L 217.608826 433.093276 
L 327.289416 433.084097 
L 345.16329 432.941343 
L 355.725124 432.646304 
L 364.255837 432.197411 
L 371.974101 431.573848 
L 379.28614 430.7559 
L 386.191955 429.756964 
L 393.09777 428.523364 
L 399.59736 427.141192 
L 406.096951 425.543682 
L 413.002766 423.614537 
L 419.908581 421.455906 
L 427.22062 418.935338 
L 434.938884 416.034312 
L 443.063372 412.742949 
L 452.000309 408.881216 
L 462.155919 404.243963 
L 474.342651 398.422846 
L 481.248466 395.040596 
L 481.248466 395.040596 
" style="fill:none;stroke:#ff7f0e;stroke-linecap:square;stroke-width:1.5;"/>
   </g>
   <g id="line2d_33">
    <path clip-path="url(#p4f01390c85)" d="M 75.430284 431.521845 
L 79.086304 432.08526 
L 81.52365 432.262338 
L 83.148548 432.205504 
L 84.367221 431.954467 
L 85.17967 431.589004 
L 85.992119 431.018396 
L 86.804567 430.169651 
L 87.617016 429.069632 
L 88.835689 427.029144 
L 90.866812 423.122694 
L 96.147729 412.717629 
L 99.397524 406.801274 
L 102.647319 401.383148 
L 105.49089 397.059436 
L 108.334461 393.145485 
L 111.178032 389.654524 
L 113.615378 387.012798 
L 116.052725 384.714781 
L 118.083847 383.069112 
L 120.114969 381.672926 
L 122.146091 380.534964 
L 124.177213 379.65239 
L 126.208335 379.025974 
L 128.239457 378.653726 
L 130.270579 378.53965 
L 132.301701 378.669069 
L 134.332823 379.04532 
L 136.363945 379.657728 
L 138.395067 380.507627 
L 140.426189 381.577005 
L 142.457311 382.870533 
L 144.488433 384.3742 
L 146.92578 386.464925 
L 149.363126 388.86252 
L 151.800472 391.572141 
L 154.237819 394.606434 
L 157.08139 398.519988 
L 168.049449 414.092485 
L 170.89302 417.607633 
L 174.142815 421.283787 
L 177.39261 424.577897 
L 179.829956 426.763424 
L 181.861079 428.36817 
L 183.892201 429.74183 
L 185.923323 430.868052 
L 187.954445 431.73468 
L 189.985567 432.350372 
L 192.016689 432.740632 
L 194.454035 432.982025 
L 198.110055 433.085566 
L 215.577704 433.094876 
L 388.223077 432.987732 
L 402.440931 432.729431 
L 413.815214 432.307126 
L 423.5646 431.732795 
L 432.907762 430.959632 
L 441.844699 429.991155 
L 450.375411 428.843636 
L 458.906124 427.472036 
L 467.436836 425.876527 
L 476.373773 423.971778 
L 481.248466 422.836543 
L 481.248466 422.836543 
" style="fill:none;stroke:#2ca02c;stroke-linecap:square;stroke-width:1.5;"/>
   </g>
   <g id="patch_9">
    <path d="M 55.139375 442.08 
L 55.139375 244.407273 
" style="fill:none;stroke:#000000;stroke-linecap:square;stroke-linejoin:miter;stroke-width:0.8;"/>
   </g>
   <g id="patch_10">
    <path d="M 501.539375 442.08 
L 501.539375 244.407273 
" style="fill:none;stroke:#000000;stroke-linecap:square;stroke-linejoin:miter;stroke-width:0.8;"/>
   </g>
   <g id="patch_11">
    <path d="M 55.139375 442.08 
L 501.539375 442.08 
" style="fill:none;stroke:#000000;stroke-linecap:square;stroke-linejoin:miter;stroke-width:0.8;"/>
   </g>
   <g id="patch_12">
    <path d="M 55.139375 244.407273 
L 501.539375 244.407273 
" style="fill:none;stroke:#000000;stroke-linecap:square;stroke-linejoin:miter;stroke-width:0.8;"/>
   </g>
  </g>
 </g>
 <defs>
  <clipPath id="p89be76b90e">
   <rect height="197.672727" width="446.4" x="55.139375" y="7.2"/>
  </clipPath>
  <clipPath id="p4f01390c85">
   <rect height="197.672727" width="446.4" x="55.139375" y="244.407273"/>
  </clipPath>
 </defs>
</svg>
