<?xml version="1.0" encoding="utf-8" standalone="no"?>
<!DOCTYPE svg PUBLIC "-//W3C//DTD SVG 1.1//EN"
  "http://www.w3.org/Graphics/SVG/1.1/DTD/svg11.dtd">
<!-- Created with matplotlib (https://matplotlib.org/) -->
<svg height="485.375471pt" version="1.1" viewBox="0 0 508.739375 485.375471" width="508.739375pt" xmlns="http://www.w3.org/2000/svg" xmlns:xlink="http://www.w3.org/1999/xlink">
 <metadata>
  <rdf:RDF xmlns:cc="http://creativecommons.org/ns#" xmlns:dc="http://purl.org/dc/elements/1.1/" xmlns:rdf="http://www.w3.org/1999/02/22-rdf-syntax-ns#">
   <cc:Work>
    <dc:type rdf:resource="http://purl.org/dc/dcmitype/StillImage"/>
    <dc:date>2020-10-04T17:38:36.964952</dc:date>
    <dc:format>image/svg+xml</dc:format>
    <dc:creator>
     <cc:Agent>
      <dc:title>Matplotlib v3.3.1, https://matplotlib.org/</dc:title>
     </cc:Agent>
    </dc:creator>
   </cc:Work>
  </rdf:RDF>
 </metadata>
 <defs>
  <style type="text/css">*{stroke-linecap:butt;stroke-linejoin:round;}</style>
 </defs>
 <g id="figure_1">
  <g id="patch_1">
   <path d="M 0 485.375471 
L 508.739375 485.375471 
L 508.739375 0 
L 0 0 
z
" style="fill:none;"/>
  </g>
  <g id="axes_1">
   <g id="patch_2">
    <path d="M 55.139375 206.740698 
L 501.539375 206.740698 
L 501.539375 9.067971 
L 55.139375 9.067971 
z
" style="fill:#ffffff;"/>
   </g>
   <g id="PolyCollection_1">
    <path clip-path="url(#p82fde38833)" d="M 75.430284 70.287942 
L 75.430284 122.104673 
L 75.836508 121.256345 
L 76.242733 120.408369 
L 76.648957 119.562837 
L 77.055182 118.718576 
L 77.461406 117.878057 
L 77.867631 117.042013 
L 78.273855 116.212778 
L 78.680079 115.390446 
L 79.086304 114.578002 
L 79.492528 113.778808 
L 79.898753 112.99295 
L 80.304977 112.223804 
L 80.711201 111.47457 
L 81.117426 110.74981 
L 81.52365 110.053966 
L 81.929875 109.391208 
L 82.336099 108.769754 
L 82.742323 108.192016 
L 83.148548 107.667342 
L 83.554772 107.203586 
L 83.960997 106.807596 
L 84.367221 106.487757 
L 84.773445 106.25026 
L 85.17967 106.103831 
L 85.585894 106.046651 
L 85.992119 106.083416 
L 86.398343 106.212694 
L 86.804567 106.429741 
L 87.210792 106.730198 
L 87.617016 107.107682 
L 88.023241 107.551983 
L 88.429465 108.056105 
L 88.835689 108.61339 
L 89.241914 109.216787 
L 89.648138 109.859005 
L 90.054363 110.535013 
L 90.460587 111.240611 
L 90.866812 111.969063 
L 91.273036 112.71744 
L 91.67926 113.483137 
L 92.085485 114.263218 
L 92.491709 115.054633 
L 92.897934 115.855905 
L 93.304158 116.665463 
L 93.710382 117.480271 
L 94.116607 118.299879 
L 94.522831 119.122638 
L 94.929056 119.947895 
L 95.33528 120.774107 
L 95.741504 121.601001 
L 96.147729 122.427997 
L 96.553953 123.253377 
L 96.960178 124.076887 
L 97.366402 124.898301 
L 97.772626 125.717105 
L 98.178851 126.532492 
L 98.585075 127.345022 
L 98.9913 128.152999 
L 99.397524 128.956427 
L 99.803748 129.754771 
L 100.209973 130.549025 
L 100.616197 131.33735 
L 101.022422 132.120295 
L 101.428646 132.897833 
L 101.83487 133.66905 
L 102.241095 134.43471 
L 102.647319 135.19346 
L 103.053544 135.946045 
L 103.459768 136.691678 
L 103.865993 137.430846 
L 104.272217 138.162994 
L 104.678441 138.888415 
L 105.084666 139.606429 
L 105.49089 140.316948 
L 105.897115 141.020767 
L 106.303339 141.716795 
L 106.709563 142.405573 
L 107.115788 143.086765 
L 107.522012 143.76058 
L 107.928237 144.426562 
L 108.334461 145.084617 
L 108.740685 145.735457 
L 109.14691 146.378201 
L 109.553134 147.01333 
L 109.959359 147.64073 
L 110.365583 148.260082 
L 110.771807 148.871791 
L 111.178032 149.475451 
L 111.584256 150.071538 
L 111.990481 150.659442 
L 112.396705 151.239562 
L 112.802929 151.811938 
L 113.209154 152.37639 
L 113.615378 152.932957 
L 114.021603 153.481712 
L 114.427827 154.022594 
L 114.834051 154.555892 
L 115.240276 155.081157 
L 115.6465 155.598601 
L 116.052725 156.108431 
L 116.458949 156.610674 
L 116.865174 157.105002 
L 117.271398 157.591717 
L 117.677622 158.070907 
L 118.083847 158.542397 
L 118.490071 159.006403 
L 118.896296 159.462797 
L 119.30252 159.9118 
L 119.708744 160.353251 
L 120.114969 160.78738 
L 120.521193 161.214179 
L 120.927418 161.633612 
L 121.333642 162.045681 
L 121.739866 162.450652 
L 122.146091 162.848349 
L 122.552315 163.23892 
L 122.95854 163.622357 
L 123.364764 163.998835 
L 123.770988 164.368223 
L 124.177213 164.730728 
L 124.583437 165.086298 
L 124.989662 165.435001 
L 125.395886 165.776899 
L 125.80211 166.112019 
L 126.208335 166.44053 
L 126.614559 166.762289 
L 127.020784 167.077464 
L 127.427008 167.386124 
L 127.833232 167.688229 
L 128.239457 167.983849 
L 128.645681 168.273155 
L 129.051906 168.556021 
L 129.45813 168.832631 
L 129.864355 169.102965 
L 130.270579 169.367153 
L 130.676803 169.625124 
L 131.083028 169.877003 
L 131.489252 170.12284 
L 131.895477 170.362659 
L 132.301701 170.596519 
L 132.707925 170.824459 
L 133.11415 171.046582 
L 133.520374 171.262839 
L 133.926599 171.473343 
L 134.332823 171.678124 
L 134.739047 171.877218 
L 135.145272 172.070694 
L 135.551496 172.258594 
L 135.957721 172.440895 
L 136.363945 172.617745 
L 136.770169 172.789126 
L 137.176394 172.955089 
L 137.582618 173.115668 
L 137.988843 173.270901 
L 138.395067 173.420897 
L 138.801291 173.565581 
L 139.207516 173.705066 
L 139.61374 173.839376 
L 140.019965 173.96855 
L 140.426189 174.092606 
L 140.832413 174.211602 
L 141.238638 174.325566 
L 141.644862 174.434522 
L 142.051087 174.538516 
L 142.457311 174.637579 
L 142.863536 174.731707 
L 143.26976 174.820978 
L 143.675984 174.905428 
L 144.082209 174.985046 
L 144.488433 175.059873 
L 144.894658 175.129932 
L 145.300882 175.195276 
L 145.707106 175.255897 
L 146.113331 175.31185 
L 146.519555 175.363121 
L 146.92578 175.409773 
L 147.332004 175.451808 
L 147.738228 175.489231 
L 148.144453 175.522095 
L 148.550677 175.550404 
L 148.956902 175.574171 
L 149.363126 175.593416 
L 149.76935 175.608148 
L 150.175575 175.618397 
L 150.581799 175.624189 
L 150.988024 175.62551 
L 151.394248 175.622369 
L 151.800472 175.614795 
L 152.206697 175.602807 
L 152.612921 175.586397 
L 153.019146 175.565579 
L 153.42537 175.540366 
L 153.831594 175.510765 
L 154.237819 175.476756 
L 154.644043 175.438388 
L 155.050268 175.395641 
L 155.456492 175.34852 
L 155.862717 175.297029 
L 156.268941 175.241177 
L 156.675165 175.180942 
L 157.08139 175.116346 
L 157.487614 175.047398 
L 157.893839 174.974058 
L 158.300063 174.89636 
L 158.706287 174.81428 
L 159.112512 174.727835 
L 159.518736 174.636994 
L 159.924961 174.541767 
L 160.331185 174.44214 
L 160.737409 174.33811 
L 161.143634 174.229671 
L 161.549858 174.116809 
L 161.956083 173.999523 
L 162.362307 173.87778 
L 162.768531 173.751596 
L 163.174756 173.620949 
L 163.58098 173.485822 
L 163.987205 173.346203 
L 164.393429 173.202086 
L 164.799653 173.053454 
L 165.205878 172.900272 
L 165.612102 172.742546 
L 166.018327 172.580265 
L 166.424551 172.413396 
L 166.830775 172.241932 
L 167.237 172.065831 
L 167.643224 171.885097 
L 168.049449 171.699721 
L 168.455673 171.509662 
L 168.861898 171.314888 
L 169.268122 171.115403 
L 169.674346 170.911185 
L 170.080571 170.702205 
L 170.486795 170.488433 
L 170.89302 170.269869 
L 171.299244 170.046478 
L 171.705468 169.818206 
L 172.111693 169.585082 
L 172.517917 169.347053 
L 172.924142 169.104108 
L 173.330366 168.856205 
L 173.73659 168.603343 
L 174.142815 168.345479 
L 174.549039 168.082597 
L 174.955264 167.814666 
L 175.361488 167.541674 
L 175.767712 167.263571 
L 176.173937 166.980366 
L 176.580161 166.692002 
L 176.986386 166.398483 
L 177.39261 166.099751 
L 177.798834 165.795829 
L 178.205059 165.486658 
L 178.611283 165.172206 
L 179.017508 164.852486 
L 179.423732 164.527443 
L 179.829956 164.197067 
L 180.236181 163.861324 
L 180.642405 163.520207 
L 181.04863 163.173692 
L 181.454854 162.821753 
L 181.861079 162.464363 
L 182.267303 162.101531 
L 182.673527 161.7332 
L 183.079752 161.359374 
L 183.485976 160.980037 
L 183.892201 160.595172 
L 184.298425 160.204749 
L 184.704649 159.808759 
L 185.110874 159.407218 
L 185.517098 159.000047 
L 185.923323 158.587306 
L 186.329547 158.168954 
L 186.735771 157.744973 
L 187.141996 157.315354 
L 187.54822 156.880132 
L 187.954445 156.439278 
L 188.360669 155.992756 
L 188.766893 155.540626 
L 189.173118 155.082861 
L 189.579342 154.619449 
L 189.985567 154.150423 
L 190.391791 153.675767 
L 190.798015 153.195503 
L 191.20424 152.709631 
L 191.610464 152.218171 
L 192.016689 151.721159 
L 192.422913 151.21858 
L 192.829137 150.710491 
L 193.235362 150.196867 
L 193.641586 149.677766 
L 194.047811 149.153247 
L 194.454035 148.623291 
L 194.86026 148.087953 
L 195.266484 147.54727 
L 195.672708 147.001311 
L 196.078933 146.450071 
L 196.485157 145.893617 
L 196.891382 145.332054 
L 197.297606 144.765384 
L 197.70383 144.193702 
L 198.110055 143.617045 
L 198.516279 143.035485 
L 198.922504 142.449089 
L 199.328728 141.857988 
L 199.734952 141.26224 
L 200.141177 140.661907 
L 200.547401 140.057122 
L 200.953626 139.448013 
L 201.35985 138.834582 
L 201.766074 138.217033 
L 202.172299 137.595445 
L 202.578523 136.969948 
L 202.984748 136.34066 
L 203.390972 135.707755 
L 203.797196 135.071314 
L 204.203421 134.431631 
L 204.609645 133.788694 
L 205.01587 133.142785 
L 205.422094 132.494044 
L 205.828318 131.842621 
L 206.234543 131.188759 
L 206.640767 130.532624 
L 207.046992 129.874477 
L 207.453216 129.214522 
L 207.859441 128.552973 
L 208.265665 127.890114 
L 208.671889 127.22616 
L 209.078114 126.561487 
L 209.484338 125.896226 
L 209.890563 125.230814 
L 210.296787 124.565458 
L 210.703011 123.90053 
L 211.109236 123.236472 
L 211.51546 122.573569 
L 211.921685 121.91215 
L 212.327909 121.25275 
L 212.734133 120.595752 
L 213.140358 119.941657 
L 213.546582 119.290823 
L 213.952807 118.643845 
L 214.359031 118.001443 
L 214.765255 117.363936 
L 215.17148 116.732177 
L 215.577704 116.106709 
L 215.983929 115.488427 
L 216.390153 114.877871 
L 216.796377 114.276125 
L 217.202602 113.683913 
L 217.608826 113.102416 
L 218.015051 112.53266 
L 218.421275 111.975834 
L 218.827499 111.433198 
L 219.233724 110.906346 
L 219.639948 110.396585 
L 220.046173 109.906025 
L 220.452397 109.436259 
L 220.858622 108.989518 
L 221.264846 108.568369 
L 221.67107 108.175167 
L 222.077295 107.812759 
L 222.483519 107.484281 
L 222.889744 107.193016 
L 223.295968 106.942458 
L 223.702192 106.736572 
L 224.108417 106.579 
L 224.514641 106.473474 
L 224.920866 106.423491 
L 225.32709 106.432499 
L 225.733314 106.502712 
L 226.139539 106.636414 
L 226.545763 106.833954 
L 226.951988 107.095396 
L 227.358212 107.419121 
L 227.764436 107.802748 
L 228.170661 108.242869 
L 228.576885 108.735433 
L 228.98311 109.275842 
L 229.389334 109.859219 
L 229.795558 110.480904 
L 230.201783 111.135797 
L 230.608007 111.819543 
L 231.014232 112.527807 
L 231.420456 113.256457 
L 231.82668 114.002051 
L 232.232905 114.761051 
L 232.639129 115.530551 
L 233.045354 116.307949 
L 233.451578 117.090591 
L 233.857803 117.876501 
L 234.264027 118.663546 
L 234.670251 119.449897 
L 235.076476 120.234025 
L 235.4827 121.014493 
L 235.888925 121.789732 
L 236.295149 122.558854 
L 236.701373 123.320437 
L 237.107598 124.073623 
L 237.513822 124.817419 
L 237.920047 125.550933 
L 238.326271 126.273338 
L 238.732495 126.983939 
L 239.13872 127.681913 
L 239.544944 128.366734 
L 239.951169 129.037839 
L 240.357393 129.694504 
L 240.763617 130.336283 
L 241.169842 130.962671 
L 241.576066 131.573221 
L 241.982291 132.167512 
L 242.388515 132.745055 
L 242.794739 133.305598 
L 243.200964 133.848681 
L 243.607188 134.374021 
L 244.013413 134.881372 
L 244.419637 135.370335 
L 244.825861 135.840811 
L 245.232086 136.292506 
L 245.63831 136.725099 
L 246.044535 137.138607 
L 246.450759 137.532699 
L 246.856984 137.907348 
L 247.263208 138.26241 
L 247.669432 138.597809 
L 248.075657 138.913496 
L 248.481881 139.209383 
L 248.888106 139.485508 
L 249.29433 139.741881 
L 249.700554 139.978529 
L 250.106779 140.195568 
L 250.513003 140.393163 
L 250.919228 140.57136 
L 251.325452 140.730522 
L 251.731676 140.87065 
L 252.137901 140.992255 
L 252.544125 141.09557 
L 252.95035 141.18101 
L 253.356574 141.249062 
L 253.762798 141.300199 
L 254.169023 141.335082 
L 254.575247 141.354365 
L 254.981472 141.358865 
L 255.387696 141.349403 
L 255.79392 141.32717 
L 256.200145 141.293138 
L 256.606369 141.248711 
L 257.012594 141.195411 
L 257.418818 141.134884 
L 257.825042 141.068988 
L 258.231267 140.999947 
L 258.637491 140.930308 
L 259.043716 140.862665 
L 259.44994 140.800037 
L 259.856165 140.746102 
L 260.262389 140.704338 
L 260.668613 140.678951 
L 261.074838 140.674382 
L 261.481062 140.695196 
L 261.887287 140.745903 
L 262.293511 140.831507 
L 262.699735 140.956107 
L 263.10596 141.123966 
L 263.512184 141.338055 
L 263.918409 141.600819 
L 264.324633 141.913643 
L 264.730857 142.276693 
L 265.137082 142.688975 
L 265.543306 143.148941 
L 265.949531 143.65388 
L 266.355755 144.200322 
L 266.761979 144.785009 
L 267.168204 145.403976 
L 267.574428 146.053632 
L 267.980653 146.730238 
L 268.386877 147.430246 
L 268.793101 148.150491 
L 269.199326 148.887702 
L 269.60555 149.639459 
L 270.011775 150.403129 
L 270.417999 151.17641 
L 270.824223 151.957339 
L 271.230448 152.744143 
L 271.636672 153.535085 
L 272.042897 154.3288 
L 272.449121 155.123947 
L 272.855346 155.919424 
L 273.26157 156.714129 
L 273.667794 157.507045 
L 274.074019 158.297481 
L 274.480243 159.084557 
L 274.886468 159.867575 
L 275.292692 160.646057 
L 275.698916 161.419296 
L 276.105141 162.186847 
L 276.511365 162.948225 
L 276.91759 163.703054 
L 277.323814 164.450885 
L 277.730038 165.191456 
L 278.136263 165.924442 
L 278.542487 166.649554 
L 278.948712 167.36652 
L 279.354936 168.075172 
L 279.76116 168.775238 
L 280.167385 169.466596 
L 280.573609 170.14908 
L 280.979834 170.822514 
L 281.386058 171.486756 
L 281.792282 172.141759 
L 282.198507 172.787395 
L 282.604731 173.423584 
L 283.010956 174.050268 
L 283.41718 174.667319 
L 283.823404 175.274765 
L 284.229629 175.872532 
L 284.635853 176.460623 
L 285.042078 177.038988 
L 285.448302 177.607638 
L 285.854527 178.166583 
L 286.260751 178.715757 
L 286.666975 179.25524 
L 287.0732 179.78505 
L 287.479424 180.305175 
L 287.885649 180.815667 
L 288.291873 181.316565 
L 288.698097 181.807903 
L 289.104322 182.289729 
L 289.510546 182.762089 
L 289.916771 183.225056 
L 290.322995 183.678656 
L 290.729219 184.12298 
L 291.135444 184.558092 
L 291.541668 184.984048 
L 291.947893 185.400939 
L 292.354117 185.808826 
L 292.760341 186.207796 
L 293.166566 186.597919 
L 293.57279 186.979301 
L 293.979015 187.351991 
L 294.385239 187.716123 
L 294.791463 188.071759 
L 295.197688 188.418992 
L 295.603912 188.757912 
L 296.010137 189.088638 
L 296.416361 189.411223 
L 296.822585 189.725803 
L 297.22881 190.032468 
L 297.635034 190.331295 
L 298.041259 190.622415 
L 298.447483 190.905905 
L 298.853708 191.181912 
L 299.259932 191.450474 
L 299.666156 191.711731 
L 300.072381 191.965757 
L 300.478605 192.212692 
L 300.88483 192.452627 
L 301.291054 192.685661 
L 301.697278 192.911903 
L 302.103503 193.131458 
L 302.509727 193.344423 
L 302.915952 193.550909 
L 303.322176 193.751012 
L 303.7284 193.944844 
L 304.134625 194.132519 
L 304.540849 194.314113 
L 304.947074 194.489752 
L 305.353298 194.659523 
L 305.759522 194.823535 
L 306.165747 194.981888 
L 306.571971 195.134684 
L 306.978196 195.282046 
L 307.38442 195.424022 
L 307.790644 195.560755 
L 308.196869 195.69234 
L 308.603093 195.818842 
L 309.009318 195.940398 
L 309.415542 196.057084 
L 309.821766 196.168985 
L 310.227991 196.276218 
L 310.634215 196.378867 
L 311.04044 196.477028 
L 311.446664 196.570782 
L 311.852889 196.660243 
L 312.259113 196.74547 
L 312.665337 196.826582 
L 313.071562 196.903657 
L 313.477786 196.976777 
L 313.884011 197.046019 
L 314.290235 197.111497 
L 314.696459 197.173269 
L 315.102684 197.231438 
L 315.508908 197.286073 
L 315.915133 197.337258 
L 316.321357 197.385076 
L 316.727581 197.429611 
L 317.133806 197.470939 
L 317.54003 197.509126 
L 317.946255 197.54426 
L 318.352479 197.576414 
L 318.758703 197.605653 
L 319.164928 197.632059 
L 319.571152 197.65571 
L 319.977377 197.676665 
L 320.383601 197.694995 
L 320.789825 197.710778 
L 321.19605 197.724079 
L 321.602274 197.734958 
L 322.008499 197.743478 
L 322.414723 197.749713 
L 322.820947 197.753733 
L 323.227172 197.755574 
L 323.633396 197.755325 
L 324.039621 197.753033 
L 324.445845 197.748757 
L 324.85207 197.742558 
L 325.258294 197.734506 
L 325.664518 197.724631 
L 326.070743 197.713005 
L 326.476967 197.69968 
L 326.883192 197.684711 
L 327.289416 197.668144 
L 327.69564 197.650045 
L 328.101865 197.630432 
L 328.508089 197.6094 
L 328.914314 197.58696 
L 329.320538 197.563179 
L 329.726762 197.538103 
L 330.132987 197.511768 
L 330.539211 197.484222 
L 330.945436 197.455512 
L 331.35166 197.425686 
L 331.757884 197.394773 
L 332.164109 197.362815 
L 332.570333 197.329871 
L 332.976558 197.295953 
L 333.382782 197.261127 
L 333.789006 197.225422 
L 334.195231 197.188857 
L 334.601455 197.151495 
L 335.00768 197.11335 
L 335.413904 197.074462 
L 335.820128 197.034886 
L 336.226353 196.994632 
L 336.632577 196.953732 
L 337.038802 196.91222 
L 337.445026 196.870143 
L 337.851251 196.827515 
L 338.257475 196.784364 
L 338.663699 196.740726 
L 339.069924 196.696625 
L 339.476148 196.65209 
L 339.882373 196.60714 
L 340.288597 196.561821 
L 340.694821 196.516141 
L 341.101046 196.470122 
L 341.50727 196.423812 
L 341.913495 196.377205 
L 342.319719 196.330342 
L 342.725943 196.283243 
L 343.132168 196.235911 
L 343.538392 196.18839 
L 343.944617 196.140696 
L 344.350841 196.092842 
L 344.757065 196.044852 
L 345.16329 195.996737 
L 345.569514 195.948527 
L 345.975739 195.900239 
L 346.381963 195.851881 
L 346.788187 195.803474 
L 347.194412 195.755033 
L 347.600636 195.706573 
L 348.006861 195.658114 
L 348.413085 195.609672 
L 348.819309 195.561254 
L 349.225534 195.512877 
L 349.631758 195.464548 
L 350.037983 195.416285 
L 350.444207 195.368116 
L 350.850432 195.320025 
L 351.256656 195.27204 
L 351.66288 195.22418 
L 352.069105 195.176445 
L 352.475329 195.128835 
L 352.881554 195.081379 
L 353.287778 195.034077 
L 353.694002 194.986936 
L 354.100227 194.939978 
L 354.506451 194.893199 
L 354.912676 194.84661 
L 355.3189 194.800229 
L 355.725124 194.754049 
L 356.131349 194.70809 
L 356.537573 194.66235 
L 356.943798 194.616835 
L 357.350022 194.57157 
L 357.756246 194.526537 
L 358.162471 194.481747 
L 358.568695 194.437224 
L 358.97492 194.392951 
L 359.381144 194.348939 
L 359.787368 194.305212 
L 360.193593 194.261746 
L 360.599817 194.218566 
L 361.006042 194.17567 
L 361.412266 194.133047 
L 361.81849 194.090733 
L 362.224715 194.048705 
L 362.630939 194.006973 
L 363.037164 193.96555 
L 363.443388 193.924423 
L 363.849613 193.883606 
L 364.255837 193.843097 
L 364.662061 193.802909 
L 365.068286 193.763018 
L 365.47451 193.723448 
L 365.880735 193.684204 
L 366.286959 193.645275 
L 366.693183 193.60666 
L 367.099408 193.568378 
L 367.505632 193.530417 
L 367.911857 193.492782 
L 368.318081 193.455468 
L 368.724305 193.418493 
L 369.13053 193.381838 
L 369.536754 193.345503 
L 369.942979 193.309502 
L 370.349203 193.273838 
L 370.755427 193.238496 
L 371.161652 193.203486 
L 371.567876 193.168796 
L 371.974101 193.134451 
L 372.380325 193.100427 
L 372.786549 193.066723 
L 373.192774 193.033358 
L 373.598998 193.000313 
L 374.005223 192.967607 
L 374.411447 192.935221 
L 374.817671 192.90315 
L 375.223896 192.871418 
L 375.63012 192.840006 
L 376.036345 192.808915 
L 376.442569 192.778151 
L 376.848794 192.747701 
L 377.255018 192.717578 
L 377.661242 192.687763 
L 378.067467 192.658263 
L 378.473691 192.629096 
L 378.879916 192.600226 
L 379.28614 192.571682 
L 379.692364 192.543441 
L 380.098589 192.515509 
L 380.504813 192.487892 
L 380.911038 192.460571 
L 381.317262 192.433554 
L 381.723486 192.406851 
L 382.129711 192.380451 
L 382.535935 192.354336 
L 382.94216 192.328518 
L 383.348384 192.303008 
L 383.754608 192.277784 
L 384.160833 192.25285 
L 384.567057 192.228202 
L 384.973282 192.203844 
L 385.379506 192.179778 
L 385.78573 192.155996 
L 386.191955 192.132482 
L 386.598179 192.109265 
L 387.004404 192.086309 
L 387.410628 192.063638 
L 387.816852 192.041228 
L 388.223077 192.019103 
L 388.629301 191.99724 
L 389.035526 191.975637 
L 389.44175 191.954308 
L 389.847975 191.933228 
L 390.254199 191.912422 
L 390.660423 191.891859 
L 391.066648 191.871563 
L 391.472872 191.85151 
L 391.879097 191.831713 
L 392.285321 191.812166 
L 392.691545 191.792855 
L 393.09777 191.773795 
L 393.503994 191.754971 
L 393.910219 191.736392 
L 394.316443 191.718049 
L 394.722667 191.699938 
L 395.128892 191.682053 
L 395.535116 191.664406 
L 395.941341 191.646984 
L 396.347565 191.629782 
L 396.753789 191.612817 
L 397.160014 191.59606 
L 397.566238 191.579523 
L 397.972463 191.563211 
L 398.378687 191.547108 
L 398.784911 191.531218 
L 399.191136 191.515536 
L 399.59736 191.500055 
L 400.003585 191.484789 
L 400.409809 191.469718 
L 400.816033 191.454856 
L 401.222258 191.440189 
L 401.628482 191.425712 
L 402.034707 191.411437 
L 402.440931 191.397353 
L 402.847156 191.383458 
L 403.25338 191.369753 
L 403.659604 191.356226 
L 404.065829 191.342896 
L 404.472053 191.329737 
L 404.878278 191.316763 
L 405.284502 191.303961 
L 405.690726 191.291337 
L 406.096951 191.278885 
L 406.503175 191.266605 
L 406.9094 191.254498 
L 407.315624 191.24255 
L 407.721848 191.23077 
L 408.128073 191.219167 
L 408.534297 191.207712 
L 408.940522 191.196424 
L 409.346746 191.185285 
L 409.75297 191.174306 
L 410.159195 191.163481 
L 410.565419 191.152804 
L 410.971644 191.142282 
L 411.377868 191.131903 
L 411.784092 191.121678 
L 412.190317 191.111589 
L 412.596541 191.101655 
L 413.002766 191.091845 
L 413.40899 191.082184 
L 413.815214 191.072666 
L 414.221439 191.063284 
L 414.627663 191.054021 
L 415.033888 191.0449 
L 415.440112 191.03591 
L 415.846337 191.02705 
L 416.252561 191.018322 
L 416.658785 191.009712 
L 417.06501 191.001226 
L 417.471234 190.992866 
L 417.877459 190.98463 
L 418.283683 190.976501 
L 418.689907 190.968502 
L 419.096132 190.960617 
L 419.502356 190.952844 
L 419.908581 190.945184 
L 420.314805 190.937637 
L 420.721029 190.930203 
L 421.127254 190.922875 
L 421.533478 190.915655 
L 421.939703 190.908541 
L 422.345927 190.901534 
L 422.752151 190.894622 
L 423.158376 190.887818 
L 423.5646 190.88112 
L 423.970825 190.874511 
L 424.377049 190.868003 
L 424.783273 190.861596 
L 425.189498 190.855278 
L 425.595722 190.849055 
L 426.001947 190.842927 
L 426.408171 190.836882 
L 426.814395 190.830932 
L 427.22062 190.825077 
L 427.626844 190.819306 
L 428.033069 190.813617 
L 428.439293 190.808017 
L 428.845518 190.802507 
L 429.251742 190.797074 
L 429.657966 190.791718 
L 430.064191 190.786445 
L 430.470415 190.781255 
L 430.87664 190.776149 
L 431.282864 190.771107 
L 431.689088 190.766137 
L 432.095313 190.761268 
L 432.501537 190.756452 
L 432.907762 190.751708 
L 433.313986 190.747041 
L 433.72021 190.742445 
L 434.126435 190.73792 
L 434.532659 190.733467 
L 434.938884 190.729078 
L 435.345108 190.724756 
L 435.751332 190.720498 
L 436.157557 190.716306 
L 436.563781 190.712179 
L 436.970006 190.708117 
L 437.37623 190.704115 
L 437.782454 190.700178 
L 438.188679 190.696307 
L 438.594903 190.692477 
L 439.001128 190.688718 
L 439.407352 190.685013 
L 439.813576 190.681367 
L 440.219801 190.677781 
L 440.626025 190.674247 
L 441.03225 190.670762 
L 441.438474 190.667342 
L 441.844699 190.663969 
L 442.250923 190.660644 
L 442.657147 190.657378 
L 443.063372 190.654159 
L 443.469596 190.650989 
L 443.875821 190.647877 
L 444.282045 190.644801 
L 444.688269 190.641785 
L 445.094494 190.638804 
L 445.500718 190.635876 
L 445.906943 190.632997 
L 446.313167 190.630146 
L 446.719391 190.627361 
L 447.125616 190.624606 
L 447.53184 190.621904 
L 447.938065 190.619244 
L 448.344289 190.61662 
L 448.750513 190.614031 
L 449.156738 190.611495 
L 449.562962 190.608995 
L 449.969187 190.606525 
L 450.375411 190.604103 
L 450.781635 190.601727 
L 451.18786 190.599376 
L 451.594084 190.597072 
L 452.000309 190.594792 
L 452.406533 190.592547 
L 452.812757 190.59035 
L 453.218982 190.588177 
L 453.625206 190.586051 
L 454.031431 190.583949 
L 454.437655 190.581883 
L 454.84388 190.579852 
L 455.250104 190.577857 
L 455.656328 190.575874 
L 456.062553 190.573938 
L 456.468777 190.572038 
L 456.875002 190.570155 
L 457.281226 190.568315 
L 457.68745 190.566503 
L 458.093675 190.56471 
L 458.499899 190.562941 
L 458.906124 190.561219 
L 459.312348 190.559509 
L 459.718572 190.557834 
L 460.124797 190.556183 
L 460.531021 190.554556 
L 460.937246 190.552965 
L 461.34347 190.551385 
L 461.749694 190.549848 
L 462.155919 190.548321 
L 462.562143 190.546825 
L 462.968368 190.545352 
L 463.374592 190.543898 
L 463.780816 190.542479 
L 464.187041 190.541071 
L 464.593265 190.539688 
L 464.99949 190.538334 
L 465.405714 190.536998 
L 465.811938 190.535686 
L 466.218163 190.534379 
L 466.624387 190.53312 
L 467.030612 190.531861 
L 467.436836 190.530626 
L 467.843061 190.529421 
L 468.249285 190.528227 
L 468.655509 190.527052 
L 469.061734 190.5259 
L 469.467958 190.52476 
L 469.874183 190.523649 
L 470.280407 190.522545 
L 470.686631 190.52147 
L 471.092856 190.520401 
L 471.49908 190.519356 
L 471.905305 190.518323 
L 472.311529 190.517313 
L 472.717753 190.516316 
L 473.123978 190.515336 
L 473.530202 190.514374 
L 473.936427 190.513418 
L 474.342651 190.512498 
L 474.748875 190.511577 
L 475.1551 190.510675 
L 475.561324 190.509784 
L 475.967549 190.508911 
L 476.373773 190.50805 
L 476.779997 190.507207 
L 477.186222 190.506376 
L 477.592446 190.505556 
L 477.998671 190.504749 
L 478.404895 190.503965 
L 478.811119 190.503193 
L 479.217344 190.502421 
L 479.623568 190.501673 
L 480.029793 190.500931 
L 480.436017 190.5002 
L 480.842242 190.499488 
L 481.248466 190.498775 
L 481.248466 21.601991 
L 481.248466 21.601991 
L 480.842242 21.602704 
L 480.436017 21.603416 
L 480.029793 21.604152 
L 479.623568 21.604889 
L 479.217344 21.605649 
L 478.811119 21.606421 
L 478.404895 21.607193 
L 477.998671 21.608 
L 477.592446 21.608808 
L 477.186222 21.609627 
L 476.779997 21.610458 
L 476.373773 21.611314 
L 475.967549 21.61218 
L 475.561324 21.613047 
L 475.1551 21.61395 
L 474.748875 21.614853 
L 474.342651 21.615767 
L 473.936427 21.616717 
L 473.530202 21.617667 
L 473.123978 21.618641 
L 472.717753 21.619627 
L 472.311529 21.620624 
L 471.905305 21.621657 
L 471.49908 21.622691 
L 471.092856 21.623748 
L 470.686631 21.624816 
L 470.280407 21.625909 
L 469.874183 21.627002 
L 469.467958 21.628142 
L 469.061734 21.629282 
L 468.655509 21.630446 
L 468.249285 21.631633 
L 467.843061 21.632821 
L 467.436836 21.634056 
L 467.030612 21.635291 
L 466.624387 21.636562 
L 466.218163 21.637844 
L 465.811938 21.639151 
L 465.405714 21.640469 
L 464.99949 21.641823 
L 464.593265 21.6432 
L 464.187041 21.644602 
L 463.780816 21.646003 
L 463.374592 21.647452 
L 462.968368 21.648913 
L 462.562143 21.650397 
L 462.155919 21.651917 
L 461.749694 21.653461 
L 461.34347 21.655029 
L 460.937246 21.656608 
L 460.531021 21.658223 
L 460.124797 21.659874 
L 459.718572 21.661537 
L 459.312348 21.663235 
L 458.906124 21.664957 
L 458.499899 21.666715 
L 458.093675 21.668496 
L 457.68745 21.670301 
L 457.281226 21.672154 
L 456.875002 21.67403 
L 456.468777 21.675918 
L 456.062553 21.677854 
L 455.656328 21.679826 
L 455.250104 21.681821 
L 454.84388 21.683851 
L 454.437655 21.685918 
L 454.031431 21.68802 
L 453.625206 21.690146 
L 453.218982 21.692307 
L 452.812757 21.694516 
L 452.406533 21.696749 
L 452.000309 21.699017 
L 451.594084 21.701333 
L 451.18786 21.703684 
L 450.781635 21.706071 
L 450.375411 21.708494 
L 449.969187 21.710964 
L 449.562962 21.71347 
L 449.156738 21.716023 
L 448.750513 21.7186 
L 448.344289 21.721237 
L 447.938065 21.723909 
L 447.53184 21.726628 
L 447.125616 21.729396 
L 446.719391 21.732198 
L 446.313167 21.735048 
L 445.906943 21.737946 
L 445.500718 21.740891 
L 445.094494 21.743884 
L 444.688269 21.746924 
L 444.282045 21.750012 
L 443.875821 21.753147 
L 443.469596 21.756342 
L 443.063372 21.759584 
L 442.657147 21.762886 
L 442.250923 21.766235 
L 441.844699 21.769631 
L 441.438474 21.773087 
L 441.03225 21.776614 
L 440.626025 21.780177 
L 440.219801 21.783811 
L 439.813576 21.787492 
L 439.407352 21.791233 
L 439.001128 21.795045 
L 438.594903 21.798917 
L 438.188679 21.802836 
L 437.782454 21.806838 
L 437.37623 21.810888 
L 436.970006 21.815021 
L 436.563781 21.819201 
L 436.157557 21.823464 
L 435.751332 21.827787 
L 435.345108 21.83217 
L 434.938884 21.836635 
L 434.532659 21.841183 
L 434.126435 21.845779 
L 433.72021 21.85047 
L 433.313986 21.855221 
L 432.907762 21.860054 
L 432.501537 21.864971 
L 432.095313 21.869959 
L 431.689088 21.87503 
L 431.282864 21.880172 
L 430.87664 21.885409 
L 430.470415 21.89073 
L 430.064191 21.896121 
L 429.657966 21.901608 
L 429.251742 21.90719 
L 428.845518 21.912854 
L 428.439293 21.918602 
L 428.033069 21.924445 
L 427.626844 21.930383 
L 427.22062 21.936416 
L 426.814395 21.942556 
L 426.408171 21.948779 
L 426.001947 21.955097 
L 425.595722 21.961522 
L 425.189498 21.968053 
L 424.783273 21.97468 
L 424.377049 21.981426 
L 423.970825 21.988266 
L 423.5646 21.995202 
L 423.158376 22.002268 
L 422.752151 22.009441 
L 422.345927 22.016733 
L 421.939703 22.024131 
L 421.533478 22.031661 
L 421.127254 22.039297 
L 420.721029 22.047052 
L 420.314805 22.054926 
L 419.908581 22.062942 
L 419.502356 22.071065 
L 419.096132 22.079331 
L 418.689907 22.087727 
L 418.283683 22.096242 
L 417.877459 22.104899 
L 417.471234 22.113699 
L 417.06501 22.12263 
L 416.658785 22.131691 
L 416.252561 22.140907 
L 415.846337 22.150265 
L 415.440112 22.159778 
L 415.033888 22.169433 
L 414.627663 22.179242 
L 414.221439 22.189206 
L 413.815214 22.199325 
L 413.40899 22.209609 
L 413.002766 22.220048 
L 412.596541 22.230641 
L 412.190317 22.241413 
L 411.784092 22.252339 
L 411.377868 22.263454 
L 410.971644 22.274736 
L 410.565419 22.286197 
L 410.159195 22.297823 
L 409.75297 22.309652 
L 409.346746 22.321658 
L 408.940522 22.333843 
L 408.534297 22.346229 
L 408.128073 22.358806 
L 407.721848 22.371572 
L 407.315624 22.384553 
L 406.9094 22.397723 
L 406.503175 22.411095 
L 406.096951 22.424681 
L 405.690726 22.438481 
L 405.284502 22.452495 
L 404.878278 22.466734 
L 404.472053 22.481187 
L 404.065829 22.495866 
L 403.659604 22.51077 
L 403.25338 22.525912 
L 402.847156 22.541279 
L 402.440931 22.556896 
L 402.034707 22.572762 
L 401.628482 22.588854 
L 401.222258 22.605207 
L 400.816033 22.621821 
L 400.409809 22.638685 
L 400.003585 22.65581 
L 399.59736 22.673196 
L 399.191136 22.690844 
L 398.784911 22.708788 
L 398.378687 22.727006 
L 397.972463 22.745497 
L 397.566238 22.764284 
L 397.160014 22.783345 
L 396.753789 22.802715 
L 396.347565 22.822381 
L 395.941341 22.842345 
L 395.535116 22.862629 
L 395.128892 22.883221 
L 394.722667 22.904135 
L 394.316443 22.925369 
L 393.910219 22.946936 
L 393.503994 22.968823 
L 393.09777 22.991066 
L 392.691545 23.013631 
L 392.285321 23.036563 
L 391.879097 23.05984 
L 391.472872 23.083485 
L 391.066648 23.107474 
L 390.660423 23.131867 
L 390.254199 23.156604 
L 389.847975 23.181734 
L 389.44175 23.207255 
L 389.035526 23.233168 
L 388.629301 23.259473 
L 388.223077 23.286194 
L 387.816852 23.313319 
L 387.410628 23.340871 
L 387.004404 23.368839 
L 386.598179 23.397234 
L 386.191955 23.426068 
L 385.78573 23.455354 
L 385.379506 23.48508 
L 384.973282 23.515268 
L 384.567057 23.54592 
L 384.160833 23.577047 
L 383.754608 23.608648 
L 383.348384 23.640737 
L 382.94216 23.673313 
L 382.535935 23.706399 
L 382.129711 23.739984 
L 381.723486 23.774091 
L 381.317262 23.808722 
L 380.911038 23.843874 
L 380.504813 23.879585 
L 380.098589 23.915842 
L 379.692364 23.952634 
L 379.28614 23.990019 
L 378.879916 24.027962 
L 378.473691 24.066488 
L 378.067467 24.105607 
L 377.661242 24.14532 
L 377.255018 24.185639 
L 376.848794 24.226599 
L 376.442569 24.268164 
L 376.036345 24.310383 
L 375.63012 24.353231 
L 375.223896 24.396744 
L 374.817671 24.440946 
L 374.411447 24.48579 
L 374.005223 24.531346 
L 373.598998 24.57759 
L 373.192774 24.624548 
L 372.786549 24.672218 
L 372.380325 24.720624 
L 371.974101 24.769766 
L 371.567876 24.819657 
L 371.161652 24.870319 
L 370.755427 24.921766 
L 370.349203 24.973984 
L 369.942979 25.02701 
L 369.536754 25.080843 
L 369.13053 25.135508 
L 368.724305 25.191004 
L 368.318081 25.247355 
L 367.911857 25.304561 
L 367.505632 25.362634 
L 367.099408 25.42161 
L 366.693183 25.481488 
L 366.286959 25.542269 
L 365.880735 25.604 
L 365.47451 25.666657 
L 365.068286 25.730276 
L 364.662061 25.794869 
L 364.255837 25.860448 
L 363.849613 25.927036 
L 363.443388 25.994634 
L 363.037164 26.063264 
L 362.630939 26.13294 
L 362.224715 26.203697 
L 361.81849 26.27551 
L 361.412266 26.34844 
L 361.006042 26.422463 
L 360.599817 26.497637 
L 360.193593 26.57394 
L 359.787368 26.651418 
L 359.381144 26.730072 
L 358.97492 26.809925 
L 358.568695 26.891002 
L 358.162471 26.973314 
L 357.756246 27.056873 
L 357.350022 27.141714 
L 356.943798 27.227838 
L 356.537573 27.315268 
L 356.131349 27.404041 
L 355.725124 27.494167 
L 355.3189 27.585659 
L 354.912676 27.678552 
L 354.506451 27.772835 
L 354.100227 27.868566 
L 353.694002 27.965747 
L 353.287778 28.064411 
L 352.881554 28.164561 
L 352.475329 28.266242 
L 352.069105 28.369467 
L 351.66288 28.474248 
L 351.256656 28.580621 
L 350.850432 28.688608 
L 350.444207 28.798223 
L 350.037983 28.909512 
L 349.631758 29.022475 
L 349.225534 29.137149 
L 348.819309 29.253556 
L 348.413085 29.371721 
L 348.006861 29.491668 
L 347.600636 29.613443 
L 347.194412 29.737036 
L 346.788187 29.862493 
L 346.381963 29.989838 
L 345.975739 30.119107 
L 345.569514 30.250324 
L 345.16329 30.383512 
L 344.757065 30.518695 
L 344.350841 30.655909 
L 343.944617 30.795189 
L 343.538392 30.936548 
L 343.132168 31.080021 
L 342.725943 31.225643 
L 342.319719 31.373462 
L 341.913495 31.523467 
L 341.50727 31.675716 
L 341.101046 31.830256 
L 340.694821 31.987078 
L 340.288597 32.146238 
L 339.882373 32.307762 
L 339.476148 32.471685 
L 339.069924 32.638066 
L 338.663699 32.806882 
L 338.257475 32.978216 
L 337.851251 33.152079 
L 337.445026 33.328495 
L 337.038802 33.507536 
L 336.632577 33.689202 
L 336.226353 33.873539 
L 335.820128 34.060608 
L 335.413904 34.250421 
L 335.00768 34.442988 
L 334.601455 34.638394 
L 334.195231 34.83665 
L 333.789006 35.037804 
L 333.382782 35.241879 
L 332.976558 35.448935 
L 332.570333 35.658996 
L 332.164109 35.872109 
L 331.757884 36.088298 
L 331.35166 36.30761 
L 330.945436 36.530093 
L 330.539211 36.755782 
L 330.132987 36.984708 
L 329.726762 37.216923 
L 329.320538 37.452464 
L 328.914314 37.691365 
L 328.508089 37.933675 
L 328.101865 38.179434 
L 327.69564 38.42868 
L 327.289416 38.681458 
L 326.883192 38.937811 
L 326.476967 39.19778 
L 326.070743 39.461401 
L 325.664518 39.728728 
L 325.258294 39.999801 
L 324.85207 40.274656 
L 324.445845 40.553336 
L 324.039621 40.835887 
L 323.633396 41.122369 
L 323.227172 41.412782 
L 322.820947 41.707221 
L 322.414723 42.005692 
L 322.008499 42.308254 
L 321.602274 42.614943 
L 321.19605 42.925806 
L 320.789825 43.240898 
L 320.383601 43.560252 
L 319.977377 43.883888 
L 319.571152 44.211894 
L 319.164928 44.544271 
L 318.758703 44.881101 
L 318.352479 45.222402 
L 317.946255 45.568222 
L 317.54003 45.91859 
L 317.133806 46.273579 
L 316.727581 46.633204 
L 316.321357 46.997521 
L 315.915133 47.366558 
L 315.508908 47.740364 
L 315.102684 48.118985 
L 314.696459 48.502458 
L 314.290235 48.890817 
L 313.884011 49.284129 
L 313.477786 49.682369 
L 313.071562 50.085639 
L 312.665337 50.493944 
L 312.259113 50.90732 
L 311.852889 51.32582 
L 311.446664 51.749481 
L 311.04044 52.178325 
L 310.634215 52.612383 
L 310.227991 53.05169 
L 309.821766 53.496294 
L 309.415542 53.946218 
L 309.009318 54.401486 
L 308.603093 54.862122 
L 308.196869 55.328168 
L 307.790644 55.799652 
L 307.38442 56.276594 
L 306.978196 56.759017 
L 306.571971 57.246955 
L 306.165747 57.740399 
L 305.759522 58.2394 
L 305.353298 58.743965 
L 304.947074 59.254123 
L 304.540849 59.769887 
L 304.134625 60.291251 
L 303.7284 60.818267 
L 303.322176 61.350895 
L 302.915952 61.889164 
L 302.509727 62.433115 
L 302.103503 62.982702 
L 301.697278 63.537965 
L 301.291054 64.098881 
L 300.88483 64.66545 
L 300.478605 65.237672 
L 300.072381 65.815553 
L 299.666156 66.399039 
L 299.259932 66.988191 
L 298.853708 67.582911 
L 298.447483 68.183309 
L 298.041259 68.789217 
L 297.635034 69.400677 
L 297.22881 70.017623 
L 296.822585 70.640092 
L 296.416361 71.26803 
L 296.010137 71.901359 
L 295.603912 72.540086 
L 295.197688 73.184134 
L 294.791463 73.833478 
L 294.385239 74.488041 
L 293.979015 75.147812 
L 293.57279 75.81266 
L 293.166566 76.482568 
L 292.760341 77.157463 
L 292.354117 77.837274 
L 291.947893 78.521901 
L 291.541668 79.211285 
L 291.135444 79.905306 
L 290.729219 80.6039 
L 290.322995 81.306952 
L 289.916771 82.01434 
L 289.510546 82.725997 
L 289.104322 83.441762 
L 288.698097 84.161519 
L 288.291873 84.88517 
L 287.885649 85.612533 
L 287.479424 86.343464 
L 287.0732 87.07786 
L 286.666975 87.815528 
L 286.260751 88.556284 
L 285.854527 89.299961 
L 285.448302 90.04645 
L 285.042078 90.795466 
L 284.635853 91.546803 
L 284.229629 92.300325 
L 283.823404 93.055727 
L 283.41718 93.81285 
L 283.010956 94.571402 
L 282.604731 95.331192 
L 282.198507 96.091899 
L 281.792282 96.853248 
L 281.386058 97.61495 
L 280.979834 98.376675 
L 280.573609 99.138157 
L 280.167385 99.899069 
L 279.76116 100.658987 
L 279.354936 101.417577 
L 278.948712 102.174469 
L 278.542487 102.929182 
L 278.136263 103.681377 
L 277.730038 104.430526 
L 277.323814 105.176175 
L 276.91759 105.917741 
L 276.511365 106.654815 
L 276.105141 107.386712 
L 275.698916 108.112863 
L 275.292692 108.832596 
L 274.886468 109.545256 
L 274.480243 110.249912 
L 274.074019 110.945958 
L 273.667794 111.632479 
L 273.26157 112.3084 
L 272.855346 112.972874 
L 272.449121 113.624688 
L 272.042897 114.262587 
L 271.636672 114.885307 
L 271.230448 115.491329 
L 270.824223 116.079183 
L 270.417999 116.646933 
L 270.011775 117.192684 
L 269.60555 117.714371 
L 269.199326 118.20955 
L 268.793101 118.675485 
L 268.386877 119.109646 
L 267.980653 119.508648 
L 267.574428 119.869284 
L 267.168204 120.187917 
L 266.761979 120.46075 
L 266.355755 120.684141 
L 265.949531 120.854091 
L 265.543306 120.967345 
L 265.137082 121.020423 
L 264.730857 121.010583 
L 264.324633 120.936373 
L 263.918409 120.796805 
L 263.512184 120.592115 
L 263.10596 120.323779 
L 262.699735 119.994343 
L 262.293511 119.606879 
L 261.887287 119.165811 
L 261.481062 118.675393 
L 261.074838 118.140776 
L 260.668613 117.566659 
L 260.262389 116.957797 
L 259.856165 116.318851 
L 259.44994 115.654245 
L 259.043716 114.967676 
L 258.637491 114.263099 
L 258.231267 113.54376 
L 257.825042 112.81252 
L 257.418818 112.072198 
L 257.012594 111.325333 
L 256.606369 110.574035 
L 256.200145 109.820248 
L 255.79392 109.065844 
L 255.387696 108.312512 
L 254.981472 107.561519 
L 254.575247 106.814436 
L 254.169023 106.072365 
L 253.762798 105.336511 
L 253.356574 104.607848 
L 252.95035 103.887374 
L 252.544125 103.175928 
L 252.137901 102.47435 
L 251.731676 101.783456 
L 251.325452 101.103766 
L 250.919228 100.436222 
L 250.513003 99.781154 
L 250.106779 99.139324 
L 249.700554 98.511164 
L 249.29433 97.897192 
L 248.888106 97.297899 
L 248.481881 96.713718 
L 248.075657 96.145011 
L 247.669432 95.592221 
L 247.263208 95.055671 
L 246.856984 94.535668 
L 246.450759 94.032516 
L 246.044535 93.546501 
L 245.63831 93.077932 
L 245.232086 92.6269 
L 244.825861 92.193795 
L 244.419637 91.778668 
L 244.013413 91.381657 
L 243.607188 91.003012 
L 243.200964 90.642721 
L 242.794739 90.300945 
L 242.388515 89.977751 
L 241.982291 89.67309 
L 241.576066 89.387071 
L 241.169842 89.11959 
L 240.763617 88.870594 
L 240.357393 88.640036 
L 239.951169 88.42776 
L 239.544944 88.233667 
L 239.13872 88.057417 
L 238.732495 87.898838 
L 238.326271 87.757705 
L 237.920047 87.633596 
L 237.513822 87.526155 
L 237.107598 87.434888 
L 236.701373 87.359248 
L 236.295149 87.298621 
L 235.888925 87.252397 
L 235.4827 87.219567 
L 235.076476 87.199508 
L 234.670251 87.191005 
L 234.264027 87.192935 
L 233.857803 87.204051 
L 233.451578 87.222767 
L 233.045354 87.247347 
L 232.639129 87.276025 
L 232.232905 87.306457 
L 231.82668 87.336312 
L 231.420456 87.3629 
L 231.014232 87.382949 
L 230.608007 87.393257 
L 230.201783 87.389965 
L 229.795558 87.3689 
L 229.389334 87.325915 
L 228.98311 87.256141 
L 228.576885 87.15508 
L 228.170661 87.018027 
L 227.764436 86.840553 
L 227.358212 86.618718 
L 226.951988 86.349295 
L 226.545763 86.029994 
L 226.139539 85.6593 
L 225.733314 85.237338 
L 225.32709 84.76457 
L 224.920866 84.24326 
L 224.514641 83.675753 
L 224.108417 83.065439 
L 223.702192 82.415864 
L 223.295968 81.730761 
L 222.889744 81.013766 
L 222.483519 80.268786 
L 222.077295 79.499323 
L 221.67107 78.708567 
L 221.264846 77.899646 
L 220.858622 77.075323 
L 220.452397 76.237906 
L 220.046173 75.389861 
L 219.639948 74.533306 
L 219.233724 73.669822 
L 218.827499 72.801326 
L 218.421275 71.929102 
L 218.015051 71.054561 
L 217.608826 70.178898 
L 217.202602 69.303164 
L 216.796377 68.428255 
L 216.390153 67.555199 
L 215.983929 66.684649 
L 215.577704 65.817465 
L 215.17148 64.954112 
L 214.765255 64.095295 
L 214.359031 63.241466 
L 213.952807 62.393236 
L 213.546582 61.550873 
L 213.140358 60.714894 
L 212.734133 59.885695 
L 212.327909 59.063539 
L 211.921685 58.24874 
L 211.51546 57.44153 
L 211.109236 56.642253 
L 210.703011 55.851081 
L 210.296787 55.068169 
L 209.890563 54.293777 
L 209.484338 53.528062 
L 209.078114 52.771134 
L 208.671889 52.02322 
L 208.265665 51.28432 
L 207.859441 50.554606 
L 207.453216 49.834155 
L 207.046992 49.123056 
L 206.640767 48.421387 
L 206.234543 47.729177 
L 205.828318 47.046503 
L 205.422094 46.373401 
L 205.01587 45.709919 
L 204.609645 45.056056 
L 204.203421 44.411819 
L 203.797196 43.777254 
L 203.390972 43.152298 
L 202.984748 42.537014 
L 202.578523 41.931349 
L 202.172299 41.33531 
L 201.766074 40.748861 
L 201.35985 40.171995 
L 200.953626 39.604642 
L 200.547401 39.046814 
L 200.141177 38.498427 
L 199.734952 37.959434 
L 199.328728 37.429822 
L 198.922504 36.909504 
L 198.516279 36.398425 
L 198.110055 35.89655 
L 197.70383 35.403807 
L 197.297606 34.920138 
L 196.891382 34.445446 
L 196.485157 33.979698 
L 196.078933 33.522785 
L 195.672708 33.074648 
L 195.266484 32.635216 
L 194.86026 32.204406 
L 194.454035 31.782147 
L 194.047811 31.368344 
L 193.641586 30.962913 
L 193.235362 30.565771 
L 192.829137 30.176824 
L 192.422913 29.796011 
L 192.016689 29.423215 
L 191.610464 29.058376 
L 191.20424 28.701375 
L 190.798015 28.352129 
L 190.391791 28.010566 
L 189.985567 27.67658 
L 189.579342 27.350077 
L 189.173118 27.03096 
L 188.766893 26.719158 
L 188.360669 26.414553 
L 187.954445 26.117062 
L 187.54822 25.826602 
L 187.141996 25.543065 
L 186.735771 25.266357 
L 186.329547 24.996406 
L 185.923323 24.733105 
L 185.517098 24.47636 
L 185.110874 24.226088 
L 184.704649 23.982205 
L 184.298425 23.744592 
L 183.892201 23.513166 
L 183.485976 23.287857 
L 183.079752 23.068569 
L 182.673527 22.855206 
L 182.267303 22.647687 
L 181.861079 22.445916 
L 181.454854 22.249785 
L 181.04863 22.05926 
L 180.642405 21.874234 
L 180.236181 21.694599 
L 179.829956 21.520309 
L 179.423732 21.351267 
L 179.017508 21.18738 
L 178.611283 21.028564 
L 178.205059 20.874759 
L 177.798834 20.725895 
L 177.39261 20.581876 
L 176.986386 20.442607 
L 176.580161 20.308041 
L 176.173937 20.178107 
L 175.767712 20.052722 
L 175.361488 19.931789 
L 174.955264 19.815287 
L 174.549039 19.703131 
L 174.142815 19.595215 
L 173.73659 19.491526 
L 173.330366 19.391959 
L 172.924142 19.296453 
L 172.517917 19.204961 
L 172.111693 19.117412 
L 171.705468 19.033746 
L 171.299244 18.953905 
L 170.89302 18.87784 
L 170.486795 18.805468 
L 170.080571 18.736766 
L 169.674346 18.671639 
L 169.268122 18.610074 
L 168.861898 18.551989 
L 168.455673 18.49736 
L 168.049449 18.446115 
L 167.643224 18.398232 
L 167.237 18.35365 
L 166.830775 18.312298 
L 166.424551 18.274176 
L 166.018327 18.239214 
L 165.612102 18.207386 
L 165.205878 18.178635 
L 164.799653 18.152947 
L 164.393429 18.130264 
L 163.987205 18.110562 
L 163.58098 18.093817 
L 163.174756 18.07997 
L 162.768531 18.069008 
L 162.362307 18.060885 
L 161.956083 18.055589 
L 161.549858 18.053095 
L 161.143634 18.053368 
L 160.737409 18.056384 
L 160.331185 18.062132 
L 159.924961 18.070576 
L 159.518736 18.081692 
L 159.112512 18.095468 
L 158.706287 18.111904 
L 158.300063 18.130965 
L 157.893839 18.152638 
L 157.487614 18.176913 
L 157.08139 18.203788 
L 156.675165 18.233228 
L 156.268941 18.265234 
L 155.862717 18.299816 
L 155.456492 18.336952 
L 155.050268 18.376641 
L 154.644043 18.418872 
L 154.237819 18.463656 
L 153.831594 18.510982 
L 153.42537 18.560848 
L 153.019146 18.613269 
L 152.612921 18.668242 
L 152.206697 18.725769 
L 151.800472 18.785861 
L 151.394248 18.848518 
L 150.988024 18.913764 
L 150.581799 18.981576 
L 150.175575 19.052023 
L 149.76935 19.12506 
L 149.363126 19.200721 
L 148.956902 19.279019 
L 148.550677 19.359989 
L 148.144453 19.443643 
L 147.738228 19.529981 
L 147.332004 19.619038 
L 146.92578 19.710827 
L 146.519555 19.805394 
L 146.113331 19.902741 
L 145.707106 20.002902 
L 145.300882 20.10589 
L 144.894658 20.211764 
L 144.488433 20.320511 
L 144.082209 20.432216 
L 143.675984 20.546866 
L 143.26976 20.664508 
L 142.863536 20.785191 
L 142.457311 20.908914 
L 142.051087 21.03576 
L 141.644862 21.16573 
L 141.238638 21.298894 
L 140.832413 21.435253 
L 140.426189 21.57489 
L 140.019965 21.717828 
L 139.61374 21.864116 
L 139.207516 22.013799 
L 138.801291 22.166915 
L 138.395067 22.323499 
L 137.988843 22.483657 
L 137.582618 22.647354 
L 137.176394 22.814709 
L 136.770169 22.985746 
L 136.363945 23.160524 
L 135.957721 23.339101 
L 135.551496 23.521491 
L 135.145272 23.707824 
L 134.739047 23.8981 
L 134.332823 24.092389 
L 133.926599 24.290764 
L 133.520374 24.49326 
L 133.11415 24.69996 
L 132.707925 24.910935 
L 132.301701 25.126197 
L 131.895477 25.345842 
L 131.489252 25.56994 
L 131.083028 25.798563 
L 130.676803 26.031746 
L 130.270579 26.269549 
L 129.864355 26.512114 
L 129.45813 26.759405 
L 129.051906 27.011566 
L 128.645681 27.268596 
L 128.239457 27.530673 
L 127.833232 27.797726 
L 127.427008 28.069934 
L 127.020784 28.347355 
L 126.614559 28.630013 
L 126.208335 28.917991 
L 125.80211 29.211444 
L 125.395886 29.510289 
L 124.989662 29.814716 
L 124.583437 30.124748 
L 124.177213 30.440504 
L 123.770988 30.762032 
L 123.364764 31.089355 
L 122.95854 31.422664 
L 122.552315 31.761887 
L 122.146091 32.10719 
L 121.739866 32.45861 
L 121.333642 32.816312 
L 120.927418 33.180177 
L 120.521193 33.550456 
L 120.114969 33.927194 
L 119.708744 34.310382 
L 119.30252 34.700077 
L 118.896296 35.096483 
L 118.490071 35.499515 
L 118.083847 35.909376 
L 117.677622 36.326029 
L 117.271398 36.749654 
L 116.865174 37.180179 
L 116.458949 37.617687 
L 116.052725 38.062475 
L 115.6465 38.514311 
L 115.240276 38.973266 
L 114.834051 39.439532 
L 114.427827 39.913332 
L 114.021603 40.394336 
L 113.615378 40.882821 
L 113.209154 41.37877 
L 112.802929 41.88229 
L 112.396705 42.393446 
L 111.990481 42.912131 
L 111.584256 43.438423 
L 111.178032 43.972684 
L 110.771807 44.514456 
L 110.365583 45.064156 
L 109.959359 45.621503 
L 109.553134 46.186873 
L 109.14691 46.760021 
L 108.740685 47.340906 
L 108.334461 47.929951 
L 107.928237 48.526477 
L 107.522012 49.131114 
L 107.115788 49.743803 
L 106.709563 50.364211 
L 106.303339 50.992553 
L 105.897115 51.628566 
L 105.49089 52.272756 
L 105.084666 52.924226 
L 104.678441 53.58367 
L 104.272217 54.251078 
L 103.865993 54.925872 
L 103.459768 55.608355 
L 103.053544 56.298066 
L 102.647319 56.995448 
L 102.241095 57.699866 
L 101.83487 58.411992 
L 101.428646 59.130662 
L 101.022422 59.856575 
L 100.616197 60.588944 
L 100.209973 61.327773 
L 99.803748 62.073579 
L 99.397524 62.824717 
L 98.9913 63.582126 
L 98.585075 64.345306 
L 98.178851 65.114329 
L 97.772626 65.887616 
L 97.366402 66.665719 
L 96.960178 67.4479 
L 96.553953 68.233686 
L 96.147729 69.022881 
L 95.741504 69.815246 
L 95.33528 70.609185 
L 94.929056 71.404152 
L 94.522831 72.199878 
L 94.116607 72.994897 
L 93.710382 73.788581 
L 93.304158 74.579343 
L 92.897934 75.366715 
L 92.491709 76.147804 
L 92.085485 76.921031 
L 91.67926 77.684948 
L 91.273036 78.436561 
L 90.866812 79.172973 
L 90.460587 79.891584 
L 90.054363 80.58947 
L 89.648138 81.260019 
L 89.241914 81.899025 
L 88.835689 82.501465 
L 88.429465 83.060095 
L 88.023241 83.567896 
L 87.617016 84.0182 
L 87.210792 84.404001 
L 86.804567 84.715185 
L 86.398343 84.945369 
L 85.992119 85.090166 
L 85.585894 85.144884 
L 85.17967 85.108075 
L 84.773445 84.984364 
L 84.367221 84.772064 
L 83.960997 84.47984 
L 83.554772 84.113867 
L 83.148548 83.682505 
L 82.742323 83.192636 
L 82.336099 82.652075 
L 81.929875 82.070079 
L 81.52365 81.449178 
L 81.117426 80.797488 
L 80.711201 80.119179 
L 80.304977 79.418686 
L 79.898753 78.700491 
L 79.492528 77.967778 
L 79.086304 77.223861 
L 78.680079 76.468922 
L 78.273855 75.706229 
L 77.867631 74.93866 
L 77.461406 74.166377 
L 77.055182 73.391623 
L 76.648957 72.615112 
L 76.242733 71.839201 
L 75.836508 71.062821 
L 75.430284 70.287942 
z
" style="fill:#1f77b4;fill-opacity:0.4;"/>
   </g>
   <g id="PathCollection_1">
    <defs>
     <path d="M 0 3 
C 0.795609 3 1.55874 2.683901 2.12132 2.12132 
C 2.683901 1.55874 3 0.795609 3 0 
C 3 -0.795609 2.683901 -1.55874 2.12132 -2.12132 
C 1.55874 -2.683901 0.795609 -3 0 -3 
C -0.795609 -3 -1.55874 -2.683901 -2.12132 -2.12132 
C -2.683901 -1.55874 -3 -0.795609 -3 0 
C -3 0.795609 -2.683901 1.55874 -2.12132 2.12132 
C -1.55874 2.683901 -0.795609 3 0 3 
z
" id="m4a4eb192af" style="stroke:#000000;"/>
    </defs>
    <g clip-path="url(#p82fde38833)">
     <use style="stroke:#000000;" x="85.585894" xlink:href="#m4a4eb192af" y="80.512012"/>
     <use style="stroke:#000000;" x="263.918409" xlink:href="#m4a4eb192af" y="125.009528"/>
     <use style="stroke:#000000;" x="226.545763" xlink:href="#m4a4eb192af" y="97.617059"/>
    </g>
   </g>
   <g id="PathCollection_2">
    <defs>
     <path d="M 0 3 
C 0.795609 3 1.55874 2.683901 2.12132 2.12132 
C 2.683901 1.55874 3 0.795609 3 0 
C 3 -0.795609 2.683901 -1.55874 2.12132 -2.12132 
C 1.55874 -2.683901 0.795609 -3 0 -3 
C -0.795609 -3 -1.55874 -2.683901 -2.12132 -2.12132 
C -2.683901 -1.55874 -3 -0.795609 -3 0 
C -3 0.795609 -2.683901 1.55874 -2.12132 2.12132 
C -1.55874 2.683901 -0.795609 3 0 3 
z
" id="m8b6cbe9fc4" style="stroke:#ff0000;"/>
    </defs>
    <g clip-path="url(#p82fde38833)">
     <use style="fill:#ff0000;stroke:#ff0000;" x="216.796377" xlink:href="#m8b6cbe9fc4" y="98.678682"/>
     <use style="fill:#ff0000;stroke:#ff0000;" x="217.202602" xlink:href="#m8b6cbe9fc4" y="98.960759"/>
     <use style="fill:#ff0000;stroke:#ff0000;" x="215.577704" xlink:href="#m8b6cbe9fc4" y="97.835937"/>
    </g>
   </g>
   <g id="matplotlib.axis_1">
    <g id="xtick_1">
     <g id="line2d_1">
      <defs>
       <path d="M 0 0 
L 0 3.5 
" id="m0d2941d711" style="stroke:#000000;stroke-width:0.8;"/>
      </defs>
      <g>
       <use style="stroke:#000000;stroke-width:0.8;" x="75.430284" xlink:href="#m0d2941d711" y="206.740698"/>
      </g>
     </g>
     <g id="text_1">
      <!-- 0 -->
      <g transform="translate(71.612784 222.858823)scale(0.12 -0.12)">
       <defs>
        <path d="M 31.78125 66.40625 
Q 24.171875 66.40625 20.328125 58.90625 
Q 16.5 51.421875 16.5 36.375 
Q 16.5 21.390625 20.328125 13.890625 
Q 24.171875 6.390625 31.78125 6.390625 
Q 39.453125 6.390625 43.28125 13.890625 
Q 47.125 21.390625 47.125 36.375 
Q 47.125 51.421875 43.28125 58.90625 
Q 39.453125 66.40625 31.78125 66.40625 
z
M 31.78125 74.21875 
Q 44.046875 74.21875 50.515625 64.515625 
Q 56.984375 54.828125 56.984375 36.375 
Q 56.984375 17.96875 50.515625 8.265625 
Q 44.046875 -1.421875 31.78125 -1.421875 
Q 19.53125 -1.421875 13.0625 8.265625 
Q 6.59375 17.96875 6.59375 36.375 
Q 6.59375 54.828125 13.0625 64.515625 
Q 19.53125 74.21875 31.78125 74.21875 
z
" id="DejaVuSans-48"/>
       </defs>
       <use xlink:href="#DejaVuSans-48"/>
      </g>
     </g>
    </g>
    <g id="xtick_2">
     <g id="line2d_2">
      <g>
       <use style="stroke:#000000;stroke-width:0.8;" x="156.59392" xlink:href="#m0d2941d711" y="206.740698"/>
      </g>
     </g>
     <g id="text_2">
      <!-- 2 -->
      <g transform="translate(152.77642 222.858823)scale(0.12 -0.12)">
       <defs>
        <path d="M 19.1875 8.296875 
L 53.609375 8.296875 
L 53.609375 0 
L 7.328125 0 
L 7.328125 8.296875 
Q 12.9375 14.109375 22.625 23.890625 
Q 32.328125 33.6875 34.8125 36.53125 
Q 39.546875 41.84375 41.421875 45.53125 
Q 43.3125 49.21875 43.3125 52.78125 
Q 43.3125 58.59375 39.234375 62.25 
Q 35.15625 65.921875 28.609375 65.921875 
Q 23.96875 65.921875 18.8125 64.3125 
Q 13.671875 62.703125 7.8125 59.421875 
L 7.8125 69.390625 
Q 13.765625 71.78125 18.9375 73 
Q 24.125 74.21875 28.421875 74.21875 
Q 39.75 74.21875 46.484375 68.546875 
Q 53.21875 62.890625 53.21875 53.421875 
Q 53.21875 48.921875 51.53125 44.890625 
Q 49.859375 40.875 45.40625 35.40625 
Q 44.1875 33.984375 37.640625 27.21875 
Q 31.109375 20.453125 19.1875 8.296875 
z
" id="DejaVuSans-50"/>
       </defs>
       <use xlink:href="#DejaVuSans-50"/>
      </g>
     </g>
    </g>
    <g id="xtick_3">
     <g id="line2d_3">
      <g>
       <use style="stroke:#000000;stroke-width:0.8;" x="237.757557" xlink:href="#m0d2941d711" y="206.740698"/>
      </g>
     </g>
     <g id="text_3">
      <!-- 4 -->
      <g transform="translate(233.940057 222.858823)scale(0.12 -0.12)">
       <defs>
        <path d="M 37.796875 64.3125 
L 12.890625 25.390625 
L 37.796875 25.390625 
z
M 35.203125 72.90625 
L 47.609375 72.90625 
L 47.609375 25.390625 
L 58.015625 25.390625 
L 58.015625 17.1875 
L 47.609375 17.1875 
L 47.609375 0 
L 37.796875 0 
L 37.796875 17.1875 
L 4.890625 17.1875 
L 4.890625 26.703125 
z
" id="DejaVuSans-52"/>
       </defs>
       <use xlink:href="#DejaVuSans-52"/>
      </g>
     </g>
    </g>
    <g id="xtick_4">
     <g id="line2d_4">
      <g>
       <use style="stroke:#000000;stroke-width:0.8;" x="318.921193" xlink:href="#m0d2941d711" y="206.740698"/>
      </g>
     </g>
     <g id="text_4">
      <!-- 6 -->
      <g transform="translate(315.103693 222.858823)scale(0.12 -0.12)">
       <defs>
        <path d="M 33.015625 40.375 
Q 26.375 40.375 22.484375 35.828125 
Q 18.609375 31.296875 18.609375 23.390625 
Q 18.609375 15.53125 22.484375 10.953125 
Q 26.375 6.390625 33.015625 6.390625 
Q 39.65625 6.390625 43.53125 10.953125 
Q 47.40625 15.53125 47.40625 23.390625 
Q 47.40625 31.296875 43.53125 35.828125 
Q 39.65625 40.375 33.015625 40.375 
z
M 52.59375 71.296875 
L 52.59375 62.3125 
Q 48.875 64.0625 45.09375 64.984375 
Q 41.3125 65.921875 37.59375 65.921875 
Q 27.828125 65.921875 22.671875 59.328125 
Q 17.53125 52.734375 16.796875 39.40625 
Q 19.671875 43.65625 24.015625 45.921875 
Q 28.375 48.1875 33.59375 48.1875 
Q 44.578125 48.1875 50.953125 41.515625 
Q 57.328125 34.859375 57.328125 23.390625 
Q 57.328125 12.15625 50.6875 5.359375 
Q 44.046875 -1.421875 33.015625 -1.421875 
Q 20.359375 -1.421875 13.671875 8.265625 
Q 6.984375 17.96875 6.984375 36.375 
Q 6.984375 53.65625 15.1875 63.9375 
Q 23.390625 74.21875 37.203125 74.21875 
Q 40.921875 74.21875 44.703125 73.484375 
Q 48.484375 72.75 52.59375 71.296875 
z
" id="DejaVuSans-54"/>
       </defs>
       <use xlink:href="#DejaVuSans-54"/>
      </g>
     </g>
    </g>
    <g id="xtick_5">
     <g id="line2d_5">
      <g>
       <use style="stroke:#000000;stroke-width:0.8;" x="400.08483" xlink:href="#m0d2941d711" y="206.740698"/>
      </g>
     </g>
     <g id="text_5">
      <!-- 8 -->
      <g transform="translate(396.26733 222.858823)scale(0.12 -0.12)">
       <defs>
        <path d="M 31.78125 34.625 
Q 24.75 34.625 20.71875 30.859375 
Q 16.703125 27.09375 16.703125 20.515625 
Q 16.703125 13.921875 20.71875 10.15625 
Q 24.75 6.390625 31.78125 6.390625 
Q 38.8125 6.390625 42.859375 10.171875 
Q 46.921875 13.96875 46.921875 20.515625 
Q 46.921875 27.09375 42.890625 30.859375 
Q 38.875 34.625 31.78125 34.625 
z
M 21.921875 38.8125 
Q 15.578125 40.375 12.03125 44.71875 
Q 8.5 49.078125 8.5 55.328125 
Q 8.5 64.0625 14.71875 69.140625 
Q 20.953125 74.21875 31.78125 74.21875 
Q 42.671875 74.21875 48.875 69.140625 
Q 55.078125 64.0625 55.078125 55.328125 
Q 55.078125 49.078125 51.53125 44.71875 
Q 48 40.375 41.703125 38.8125 
Q 48.828125 37.15625 52.796875 32.3125 
Q 56.78125 27.484375 56.78125 20.515625 
Q 56.78125 9.90625 50.3125 4.234375 
Q 43.84375 -1.421875 31.78125 -1.421875 
Q 19.734375 -1.421875 13.25 4.234375 
Q 6.78125 9.90625 6.78125 20.515625 
Q 6.78125 27.484375 10.78125 32.3125 
Q 14.796875 37.15625 21.921875 38.8125 
z
M 18.3125 54.390625 
Q 18.3125 48.734375 21.84375 45.5625 
Q 25.390625 42.390625 31.78125 42.390625 
Q 38.140625 42.390625 41.71875 45.5625 
Q 45.3125 48.734375 45.3125 54.390625 
Q 45.3125 60.0625 41.71875 63.234375 
Q 38.140625 66.40625 31.78125 66.40625 
Q 25.390625 66.40625 21.84375 63.234375 
Q 18.3125 60.0625 18.3125 54.390625 
z
" id="DejaVuSans-56"/>
       </defs>
       <use xlink:href="#DejaVuSans-56"/>
      </g>
     </g>
    </g>
    <g id="xtick_6">
     <g id="line2d_6">
      <g>
       <use style="stroke:#000000;stroke-width:0.8;" x="481.248466" xlink:href="#m0d2941d711" y="206.740698"/>
      </g>
     </g>
     <g id="text_6">
      <!-- 10 -->
      <g transform="translate(473.613466 222.858823)scale(0.12 -0.12)">
       <defs>
        <path d="M 12.40625 8.296875 
L 28.515625 8.296875 
L 28.515625 63.921875 
L 10.984375 60.40625 
L 10.984375 69.390625 
L 28.421875 72.90625 
L 38.28125 72.90625 
L 38.28125 8.296875 
L 54.390625 8.296875 
L 54.390625 0 
L 12.40625 0 
z
" id="DejaVuSans-49"/>
       </defs>
       <use xlink:href="#DejaVuSans-49"/>
       <use x="63.623047" xlink:href="#DejaVuSans-48"/>
      </g>
     </g>
    </g>
   </g>
   <g id="matplotlib.axis_2">
    <g id="ytick_1">
     <g id="line2d_7">
      <defs>
       <path d="M 0 0 
L -3.5 0 
" id="m0929338095" style="stroke:#000000;stroke-width:0.8;"/>
      </defs>
      <g>
       <use style="stroke:#000000;stroke-width:0.8;" x="55.139375" xlink:href="#m0929338095" y="198.550677"/>
      </g>
     </g>
     <g id="text_7">
      <!-- 40 -->
      <g transform="translate(22.81375 203.109739)scale(0.12 -0.12)">
       <defs>
        <path d="M 10.59375 35.5 
L 73.1875 35.5 
L 73.1875 27.203125 
L 10.59375 27.203125 
z
" id="DejaVuSans-8722"/>
       </defs>
       <use xlink:href="#DejaVuSans-8722"/>
       <use x="83.789062" xlink:href="#DejaVuSans-52"/>
       <use x="147.412109" xlink:href="#DejaVuSans-48"/>
      </g>
     </g>
    </g>
    <g id="ytick_2">
     <g id="line2d_8">
      <g>
       <use style="stroke:#000000;stroke-width:0.8;" x="55.139375" xlink:href="#m0929338095" y="167.418741"/>
      </g>
     </g>
     <g id="text_8">
      <!-- 20 -->
      <g transform="translate(22.81375 171.977804)scale(0.12 -0.12)">
       <use xlink:href="#DejaVuSans-8722"/>
       <use x="83.789062" xlink:href="#DejaVuSans-50"/>
       <use x="147.412109" xlink:href="#DejaVuSans-48"/>
      </g>
     </g>
    </g>
    <g id="ytick_3">
     <g id="line2d_9">
      <g>
       <use style="stroke:#000000;stroke-width:0.8;" x="55.139375" xlink:href="#m0929338095" y="136.286805"/>
      </g>
     </g>
     <g id="text_9">
      <!-- 0 -->
      <g transform="translate(40.504375 140.845868)scale(0.12 -0.12)">
       <use xlink:href="#DejaVuSans-48"/>
      </g>
     </g>
    </g>
    <g id="ytick_4">
     <g id="line2d_10">
      <g>
       <use style="stroke:#000000;stroke-width:0.8;" x="55.139375" xlink:href="#m0929338095" y="105.15487"/>
      </g>
     </g>
     <g id="text_10">
      <!-- 20 -->
      <g transform="translate(32.869375 109.713932)scale(0.12 -0.12)">
       <use xlink:href="#DejaVuSans-50"/>
       <use x="63.623047" xlink:href="#DejaVuSans-48"/>
      </g>
     </g>
    </g>
    <g id="ytick_5">
     <g id="line2d_11">
      <g>
       <use style="stroke:#000000;stroke-width:0.8;" x="55.139375" xlink:href="#m0929338095" y="74.022934"/>
      </g>
     </g>
     <g id="text_11">
      <!-- 40 -->
      <g transform="translate(32.869375 78.581996)scale(0.12 -0.12)">
       <use xlink:href="#DejaVuSans-52"/>
       <use x="63.623047" xlink:href="#DejaVuSans-48"/>
      </g>
     </g>
    </g>
    <g id="ytick_6">
     <g id="line2d_12">
      <g>
       <use style="stroke:#000000;stroke-width:0.8;" x="55.139375" xlink:href="#m0929338095" y="42.890998"/>
      </g>
     </g>
     <g id="text_12">
      <!-- 60 -->
      <g transform="translate(32.869375 47.450061)scale(0.12 -0.12)">
       <use xlink:href="#DejaVuSans-54"/>
       <use x="63.623047" xlink:href="#DejaVuSans-48"/>
      </g>
     </g>
    </g>
    <g id="ytick_7">
     <g id="line2d_13">
      <g>
       <use style="stroke:#000000;stroke-width:0.8;" x="55.139375" xlink:href="#m0929338095" y="11.759062"/>
      </g>
     </g>
     <g id="text_13">
      <!-- 80 -->
      <g transform="translate(32.869375 16.318125)scale(0.12 -0.12)">
       <use xlink:href="#DejaVuSans-56"/>
       <use x="63.623047" xlink:href="#DejaVuSans-48"/>
      </g>
     </g>
    </g>
    <g id="text_14">
     <!-- f(x) -->
     <g transform="translate(16.318125 118.249647)rotate(-90)scale(0.12 -0.12)">
      <defs>
       <path d="M 37.109375 75.984375 
L 37.109375 68.5 
L 28.515625 68.5 
Q 23.6875 68.5 21.796875 66.546875 
Q 19.921875 64.59375 19.921875 59.515625 
L 19.921875 54.6875 
L 34.71875 54.6875 
L 34.71875 47.703125 
L 19.921875 47.703125 
L 19.921875 0 
L 10.890625 0 
L 10.890625 47.703125 
L 2.296875 47.703125 
L 2.296875 54.6875 
L 10.890625 54.6875 
L 10.890625 58.5 
Q 10.890625 67.625 15.140625 71.796875 
Q 19.390625 75.984375 28.609375 75.984375 
z
" id="DejaVuSans-102"/>
       <path d="M 31 75.875 
Q 24.46875 64.65625 21.28125 53.65625 
Q 18.109375 42.671875 18.109375 31.390625 
Q 18.109375 20.125 21.3125 9.0625 
Q 24.515625 -2 31 -13.1875 
L 23.1875 -13.1875 
Q 15.875 -1.703125 12.234375 9.375 
Q 8.59375 20.453125 8.59375 31.390625 
Q 8.59375 42.28125 12.203125 53.3125 
Q 15.828125 64.359375 23.1875 75.875 
z
" id="DejaVuSans-40"/>
       <path d="M 54.890625 54.6875 
L 35.109375 28.078125 
L 55.90625 0 
L 45.3125 0 
L 29.390625 21.484375 
L 13.484375 0 
L 2.875 0 
L 24.125 28.609375 
L 4.6875 54.6875 
L 15.28125 54.6875 
L 29.78125 35.203125 
L 44.28125 54.6875 
z
" id="DejaVuSans-120"/>
       <path d="M 8.015625 75.875 
L 15.828125 75.875 
Q 23.140625 64.359375 26.78125 53.3125 
Q 30.421875 42.28125 30.421875 31.390625 
Q 30.421875 20.453125 26.78125 9.375 
Q 23.140625 -1.703125 15.828125 -13.1875 
L 8.015625 -13.1875 
Q 14.5 -2 17.703125 9.0625 
Q 20.90625 20.125 20.90625 31.390625 
Q 20.90625 42.671875 17.703125 53.65625 
Q 14.5 64.65625 8.015625 75.875 
z
" id="DejaVuSans-41"/>
      </defs>
      <use xlink:href="#DejaVuSans-102"/>
      <use x="35.205078" xlink:href="#DejaVuSans-40"/>
      <use x="74.21875" xlink:href="#DejaVuSans-120"/>
      <use x="133.398438" xlink:href="#DejaVuSans-41"/>
     </g>
    </g>
   </g>
   <g id="line2d_14">
    <path clip-path="url(#p82fde38833)" d="M 75.430284 89.588902 
L 80.304977 89.476872 
L 85.17967 89.144012 
L 90.054363 88.59994 
L 95.33528 87.790645 
L 101.022422 86.694768 
L 107.522012 85.213458 
L 116.458949 82.921223 
L 131.895477 78.933533 
L 138.395067 77.515437 
L 143.675984 76.580783 
L 148.550677 75.938015 
L 153.019146 75.565899 
L 157.487614 75.426638 
L 161.549858 75.519688 
L 165.612102 75.835158 
L 169.674346 76.382736 
L 173.73659 77.168843 
L 177.798834 78.196445 
L 181.861079 79.464919 
L 185.923323 80.969959 
L 189.985567 82.703539 
L 194.454035 84.860321 
L 198.922504 87.258633 
L 203.797196 90.119902 
L 209.484338 93.728315 
L 216.390153 98.397164 
L 239.13872 114.034658 
L 244.419637 117.248928 
L 248.888106 119.713581 
L 252.95035 121.708109 
L 256.606369 123.273331 
L 260.262389 124.596307 
L 263.512184 125.551205 
L 266.761979 126.283351 
L 270.011775 126.780077 
L 273.26157 127.030222 
L 276.105141 127.039294 
L 278.948712 126.846968 
L 281.792282 126.449028 
L 284.635853 125.842379 
L 287.479424 125.025088 
L 290.322995 123.996416 
L 293.166566 122.756843 
L 296.416361 121.084212 
L 299.666156 119.142992 
L 302.915952 116.93991 
L 306.165747 114.483837 
L 309.821766 111.432118 
L 313.477786 108.092964 
L 317.54003 104.07256 
L 322.008499 99.313229 
L 326.883192 93.778654 
L 332.570333 86.968961 
L 340.288597 77.349807 
L 353.287778 61.117448 
L 358.97492 54.398732 
L 363.443388 49.43307 
L 367.505632 45.226751 
L 371.161652 41.738027 
L 374.817671 38.569676 
L 378.067467 36.051112 
L 381.317262 33.837181 
L 384.160833 32.166967 
L 387.004404 30.759945 
L 389.847975 29.628251 
L 392.285321 28.885627 
L 394.722667 28.359316 
L 397.160014 28.054587 
L 399.59736 27.975903 
L 402.034707 28.126902 
L 404.472053 28.510362 
L 406.9094 29.128186 
L 409.346746 29.981382 
L 411.784092 31.070045 
L 414.221439 32.393346 
L 416.658785 33.949528 
L 419.502356 36.05576 
L 422.345927 38.469371 
L 425.189498 41.182744 
L 428.033069 44.18655 
L 431.282864 47.960898 
L 434.532659 52.081074 
L 438.188679 57.102403 
L 441.844699 62.498788 
L 445.906943 68.887188 
L 450.375411 76.323442 
L 455.656328 85.550483 
L 462.562143 98.090809 
L 477.998671 126.274114 
L 481.248466 131.929977 
L 481.248466 131.929977 
" style="fill:none;stroke:#000000;stroke-linecap:square;stroke-width:1.5;"/>
   </g>
   <g id="line2d_15">
    <path clip-path="url(#p82fde38833)" d="M 75.430284 96.196309 
L 81.52365 95.751572 
L 87.210792 95.567098 
L 92.897934 95.611312 
L 99.397524 95.890573 
L 108.740685 96.53818 
L 123.364764 97.544098 
L 131.083028 97.837783 
L 137.988843 97.877276 
L 144.488433 97.690195 
L 150.988024 97.269634 
L 157.487614 96.612155 
L 163.987205 95.728384 
L 171.299244 94.500188 
L 181.454854 92.535771 
L 191.20424 90.705503 
L 196.485157 89.936658 
L 200.547401 89.551968 
L 204.203421 89.421725 
L 207.453216 89.524339 
L 210.296787 89.816815 
L 213.140358 90.328277 
L 215.983929 91.086538 
L 218.421275 91.952468 
L 220.858622 93.03242 
L 223.295968 94.33661 
L 225.733314 95.870025 
L 228.576885 97.945257 
L 231.420456 100.309678 
L 234.670251 103.320451 
L 238.326271 107.015522 
L 244.013413 113.131514 
L 250.919228 120.503791 
L 254.575247 124.0844 
L 257.825042 126.940754 
L 260.668613 129.122805 
L 263.10596 130.723872 
L 265.543306 132.058144 
L 267.980653 133.119443 
L 270.417999 133.911672 
L 272.855346 134.446149 
L 275.292692 134.739326 
L 277.730038 134.810991 
L 280.573609 134.643619 
L 283.41718 134.240085 
L 286.666975 133.535384 
L 290.322995 132.492806 
L 294.385239 131.102084 
L 299.666156 129.055382 
L 311.446664 124.160133 
L 319.571152 120.933799 
L 326.070743 118.587205 
L 332.164109 116.617462 
L 338.257475 114.881287 
L 344.350841 113.374374 
L 350.850432 112.004318 
L 357.756246 110.791708 
L 365.068286 109.746647 
L 372.786549 108.86947 
L 381.317262 108.121141 
L 391.066648 107.489521 
L 402.440931 106.977124 
L 416.658785 106.570704 
L 434.938884 106.28286 
L 461.749694 106.101651 
L 481.248466 106.050386 
L 481.248466 106.050386 
" style="fill:none;stroke:#1f77b4;stroke-linecap:square;stroke-width:1.5;"/>
   </g>
   <g id="patch_3">
    <path d="M 55.139375 206.740698 
L 55.139375 9.067971 
" style="fill:none;stroke:#000000;stroke-linecap:square;stroke-linejoin:miter;stroke-width:0.8;"/>
   </g>
   <g id="patch_4">
    <path d="M 501.539375 206.740698 
L 501.539375 9.067971 
" style="fill:none;stroke:#000000;stroke-linecap:square;stroke-linejoin:miter;stroke-width:0.8;"/>
   </g>
   <g id="patch_5">
    <path d="M 55.139375 206.740698 
L 501.539375 206.740698 
" style="fill:none;stroke:#000000;stroke-linecap:square;stroke-linejoin:miter;stroke-width:0.8;"/>
   </g>
   <g id="patch_6">
    <path d="M 55.139375 9.067971 
L 501.539375 9.067971 
" style="fill:none;stroke:#000000;stroke-linecap:square;stroke-linejoin:miter;stroke-width:0.8;"/>
   </g>
   <g id="legend_1">
    <g id="patch_7">
     <path d="M 63.539375 200.740698 
L 141.254375 200.740698 
Q 143.654375 200.740698 143.654375 198.340698 
L 143.654375 146.699448 
Q 143.654375 144.299448 141.254375 144.299448 
L 63.539375 144.299448 
Q 61.139375 144.299448 61.139375 146.699448 
L 61.139375 198.340698 
Q 61.139375 200.740698 63.539375 200.740698 
z
" style="fill:#ffffff;opacity:0.8;stroke:#cccccc;stroke-linejoin:miter;"/>
    </g>
    <g id="line2d_16">
     <path d="M 65.939375 154.017573 
L 89.939375 154.017573 
" style="fill:none;stroke:#1f77b4;stroke-linecap:square;stroke-width:1.5;"/>
    </g>
    <g id="line2d_17"/>
    <g id="text_15">
     <!-- GP -->
     <g transform="translate(99.539375 158.217573)scale(0.12 -0.12)">
      <defs>
       <path d="M 59.515625 10.40625 
L 59.515625 29.984375 
L 43.40625 29.984375 
L 43.40625 38.09375 
L 69.28125 38.09375 
L 69.28125 6.78125 
Q 63.578125 2.734375 56.6875 0.65625 
Q 49.8125 -1.421875 42 -1.421875 
Q 24.90625 -1.421875 15.25 8.5625 
Q 5.609375 18.5625 5.609375 36.375 
Q 5.609375 54.25 15.25 64.234375 
Q 24.90625 74.21875 42 74.21875 
Q 49.125 74.21875 55.546875 72.453125 
Q 61.96875 70.703125 67.390625 67.28125 
L 67.390625 56.78125 
Q 61.921875 61.421875 55.765625 63.765625 
Q 49.609375 66.109375 42.828125 66.109375 
Q 29.4375 66.109375 22.71875 58.640625 
Q 16.015625 51.171875 16.015625 36.375 
Q 16.015625 21.625 22.71875 14.15625 
Q 29.4375 6.6875 42.828125 6.6875 
Q 48.046875 6.6875 52.140625 7.59375 
Q 56.25 8.5 59.515625 10.40625 
z
" id="DejaVuSans-71"/>
       <path d="M 19.671875 64.796875 
L 19.671875 37.40625 
L 32.078125 37.40625 
Q 38.96875 37.40625 42.71875 40.96875 
Q 46.484375 44.53125 46.484375 51.125 
Q 46.484375 57.671875 42.71875 61.234375 
Q 38.96875 64.796875 32.078125 64.796875 
z
M 9.8125 72.90625 
L 32.078125 72.90625 
Q 44.34375 72.90625 50.609375 67.359375 
Q 56.890625 61.8125 56.890625 51.125 
Q 56.890625 40.328125 50.609375 34.8125 
Q 44.34375 29.296875 32.078125 29.296875 
L 19.671875 29.296875 
L 19.671875 0 
L 9.8125 0 
z
" id="DejaVuSans-80"/>
      </defs>
      <use xlink:href="#DejaVuSans-71"/>
      <use x="77.490234" xlink:href="#DejaVuSans-80"/>
     </g>
    </g>
    <g id="PathCollection_3">
     <g>
      <use style="stroke:#000000;" x="77.939375" xlink:href="#m4a4eb192af" y="172.681323"/>
     </g>
    </g>
    <g id="text_16">
     <!-- known -->
     <g transform="translate(99.539375 175.831323)scale(0.12 -0.12)">
      <defs>
       <path d="M 9.078125 75.984375 
L 18.109375 75.984375 
L 18.109375 31.109375 
L 44.921875 54.6875 
L 56.390625 54.6875 
L 27.390625 29.109375 
L 57.625 0 
L 45.90625 0 
L 18.109375 26.703125 
L 18.109375 0 
L 9.078125 0 
z
" id="DejaVuSans-107"/>
       <path d="M 54.890625 33.015625 
L 54.890625 0 
L 45.90625 0 
L 45.90625 32.71875 
Q 45.90625 40.484375 42.875 44.328125 
Q 39.84375 48.1875 33.796875 48.1875 
Q 26.515625 48.1875 22.3125 43.546875 
Q 18.109375 38.921875 18.109375 30.90625 
L 18.109375 0 
L 9.078125 0 
L 9.078125 54.6875 
L 18.109375 54.6875 
L 18.109375 46.1875 
Q 21.34375 51.125 25.703125 53.5625 
Q 30.078125 56 35.796875 56 
Q 45.21875 56 50.046875 50.171875 
Q 54.890625 44.34375 54.890625 33.015625 
z
" id="DejaVuSans-110"/>
       <path d="M 30.609375 48.390625 
Q 23.390625 48.390625 19.1875 42.75 
Q 14.984375 37.109375 14.984375 27.296875 
Q 14.984375 17.484375 19.15625 11.84375 
Q 23.34375 6.203125 30.609375 6.203125 
Q 37.796875 6.203125 41.984375 11.859375 
Q 46.1875 17.53125 46.1875 27.296875 
Q 46.1875 37.015625 41.984375 42.703125 
Q 37.796875 48.390625 30.609375 48.390625 
z
M 30.609375 56 
Q 42.328125 56 49.015625 48.375 
Q 55.71875 40.765625 55.71875 27.296875 
Q 55.71875 13.875 49.015625 6.21875 
Q 42.328125 -1.421875 30.609375 -1.421875 
Q 18.84375 -1.421875 12.171875 6.21875 
Q 5.515625 13.875 5.515625 27.296875 
Q 5.515625 40.765625 12.171875 48.375 
Q 18.84375 56 30.609375 56 
z
" id="DejaVuSans-111"/>
       <path d="M 4.203125 54.6875 
L 13.1875 54.6875 
L 24.421875 12.015625 
L 35.59375 54.6875 
L 46.1875 54.6875 
L 57.421875 12.015625 
L 68.609375 54.6875 
L 77.59375 54.6875 
L 63.28125 0 
L 52.6875 0 
L 40.921875 44.828125 
L 29.109375 0 
L 18.5 0 
z
" id="DejaVuSans-119"/>
      </defs>
      <use xlink:href="#DejaVuSans-107"/>
      <use x="57.910156" xlink:href="#DejaVuSans-110"/>
      <use x="121.289062" xlink:href="#DejaVuSans-111"/>
      <use x="182.470703" xlink:href="#DejaVuSans-119"/>
      <use x="264.257812" xlink:href="#DejaVuSans-110"/>
     </g>
    </g>
    <g id="PathCollection_4">
     <g>
      <use style="fill:#ff0000;stroke:#ff0000;" x="77.939375" xlink:href="#m8b6cbe9fc4" y="190.295073"/>
     </g>
    </g>
    <g id="text_17">
     <!-- next -->
     <g transform="translate(99.539375 193.445073)scale(0.12 -0.12)">
      <defs>
       <path d="M 56.203125 29.59375 
L 56.203125 25.203125 
L 14.890625 25.203125 
Q 15.484375 15.921875 20.484375 11.0625 
Q 25.484375 6.203125 34.421875 6.203125 
Q 39.59375 6.203125 44.453125 7.46875 
Q 49.3125 8.734375 54.109375 11.28125 
L 54.109375 2.78125 
Q 49.265625 0.734375 44.1875 -0.34375 
Q 39.109375 -1.421875 33.890625 -1.421875 
Q 20.796875 -1.421875 13.15625 6.1875 
Q 5.515625 13.8125 5.515625 26.8125 
Q 5.515625 40.234375 12.765625 48.109375 
Q 20.015625 56 32.328125 56 
Q 43.359375 56 49.78125 48.890625 
Q 56.203125 41.796875 56.203125 29.59375 
z
M 47.21875 32.234375 
Q 47.125 39.59375 43.09375 43.984375 
Q 39.0625 48.390625 32.421875 48.390625 
Q 24.90625 48.390625 20.390625 44.140625 
Q 15.875 39.890625 15.1875 32.171875 
z
" id="DejaVuSans-101"/>
       <path d="M 18.3125 70.21875 
L 18.3125 54.6875 
L 36.8125 54.6875 
L 36.8125 47.703125 
L 18.3125 47.703125 
L 18.3125 18.015625 
Q 18.3125 11.328125 20.140625 9.421875 
Q 21.96875 7.515625 27.59375 7.515625 
L 36.8125 7.515625 
L 36.8125 0 
L 27.59375 0 
Q 17.1875 0 13.234375 3.875 
Q 9.28125 7.765625 9.28125 18.015625 
L 9.28125 47.703125 
L 2.6875 47.703125 
L 2.6875 54.6875 
L 9.28125 54.6875 
L 9.28125 70.21875 
z
" id="DejaVuSans-116"/>
      </defs>
      <use xlink:href="#DejaVuSans-110"/>
      <use x="63.378906" xlink:href="#DejaVuSans-101"/>
      <use x="123.152344" xlink:href="#DejaVuSans-120"/>
      <use x="182.332031" xlink:href="#DejaVuSans-116"/>
     </g>
    </g>
   </g>
  </g>
  <g id="axes_2">
   <g id="patch_8">
    <path d="M 55.139375 443.947971 
L 501.539375 443.947971 
L 501.539375 246.275243 
L 55.139375 246.275243 
z
" style="fill:#ffffff;"/>
   </g>
   <g id="matplotlib.axis_3">
    <g id="xtick_7">
     <g id="line2d_18">
      <g>
       <use style="stroke:#000000;stroke-width:0.8;" x="75.430284" xlink:href="#m0d2941d711" y="443.947971"/>
      </g>
     </g>
     <g id="text_18">
      <!-- 0.0 -->
      <g transform="translate(65.888409 460.066096)scale(0.12 -0.12)">
       <defs>
        <path d="M 10.6875 12.40625 
L 21 12.40625 
L 21 0 
L 10.6875 0 
z
" id="DejaVuSans-46"/>
       </defs>
       <use xlink:href="#DejaVuSans-48"/>
       <use x="63.623047" xlink:href="#DejaVuSans-46"/>
       <use x="95.410156" xlink:href="#DejaVuSans-48"/>
      </g>
     </g>
    </g>
    <g id="xtick_8">
     <g id="line2d_19">
      <g>
       <use style="stroke:#000000;stroke-width:0.8;" x="156.59392" xlink:href="#m0d2941d711" y="443.947971"/>
      </g>
     </g>
     <g id="text_19">
      <!-- 0.2 -->
      <g transform="translate(147.052045 460.066096)scale(0.12 -0.12)">
       <use xlink:href="#DejaVuSans-48"/>
       <use x="63.623047" xlink:href="#DejaVuSans-46"/>
       <use x="95.410156" xlink:href="#DejaVuSans-50"/>
      </g>
     </g>
    </g>
    <g id="xtick_9">
     <g id="line2d_20">
      <g>
       <use style="stroke:#000000;stroke-width:0.8;" x="237.757557" xlink:href="#m0d2941d711" y="443.947971"/>
      </g>
     </g>
     <g id="text_20">
      <!-- 0.4 -->
      <g transform="translate(228.215682 460.066096)scale(0.12 -0.12)">
       <use xlink:href="#DejaVuSans-48"/>
       <use x="63.623047" xlink:href="#DejaVuSans-46"/>
       <use x="95.410156" xlink:href="#DejaVuSans-52"/>
      </g>
     </g>
    </g>
    <g id="xtick_10">
     <g id="line2d_21">
      <g>
       <use style="stroke:#000000;stroke-width:0.8;" x="318.921193" xlink:href="#m0d2941d711" y="443.947971"/>
      </g>
     </g>
     <g id="text_21">
      <!-- 0.6 -->
      <g transform="translate(309.379318 460.066096)scale(0.12 -0.12)">
       <use xlink:href="#DejaVuSans-48"/>
       <use x="63.623047" xlink:href="#DejaVuSans-46"/>
       <use x="95.410156" xlink:href="#DejaVuSans-54"/>
      </g>
     </g>
    </g>
    <g id="xtick_11">
     <g id="line2d_22">
      <g>
       <use style="stroke:#000000;stroke-width:0.8;" x="400.08483" xlink:href="#m0d2941d711" y="443.947971"/>
      </g>
     </g>
     <g id="text_22">
      <!-- 0.8 -->
      <g transform="translate(390.542955 460.066096)scale(0.12 -0.12)">
       <use xlink:href="#DejaVuSans-48"/>
       <use x="63.623047" xlink:href="#DejaVuSans-46"/>
       <use x="95.410156" xlink:href="#DejaVuSans-56"/>
      </g>
     </g>
    </g>
    <g id="xtick_12">
     <g id="line2d_23">
      <g>
       <use style="stroke:#000000;stroke-width:0.8;" x="481.248466" xlink:href="#m0d2941d711" y="443.947971"/>
      </g>
     </g>
     <g id="text_23">
      <!-- 1.0 -->
      <g transform="translate(471.706591 460.066096)scale(0.12 -0.12)">
       <use xlink:href="#DejaVuSans-49"/>
       <use x="63.623047" xlink:href="#DejaVuSans-46"/>
       <use x="95.410156" xlink:href="#DejaVuSans-48"/>
      </g>
     </g>
    </g>
    <g id="text_24">
     <!-- x -->
     <g transform="translate(274.788125 475.679846)scale(0.12 -0.12)">
      <use xlink:href="#DejaVuSans-120"/>
     </g>
    </g>
   </g>
   <g id="matplotlib.axis_4">
    <g id="ytick_8">
     <g id="line2d_24">
      <g>
       <use style="stroke:#000000;stroke-width:0.8;" x="55.139375" xlink:href="#m0929338095" y="434.962847"/>
      </g>
     </g>
     <g id="text_25">
      <!-- 0.0 -->
      <g transform="translate(29.055625 439.521909)scale(0.12 -0.12)">
       <use xlink:href="#DejaVuSans-48"/>
       <use x="63.623047" xlink:href="#DejaVuSans-46"/>
       <use x="95.410156" xlink:href="#DejaVuSans-48"/>
      </g>
     </g>
    </g>
    <g id="ytick_9">
     <g id="line2d_25">
      <g>
       <use style="stroke:#000000;stroke-width:0.8;" x="55.139375" xlink:href="#m0929338095" y="399.022351"/>
      </g>
     </g>
     <g id="text_26">
      <!-- 0.2 -->
      <g transform="translate(29.055625 403.581413)scale(0.12 -0.12)">
       <use xlink:href="#DejaVuSans-48"/>
       <use x="63.623047" xlink:href="#DejaVuSans-46"/>
       <use x="95.410156" xlink:href="#DejaVuSans-50"/>
      </g>
     </g>
    </g>
    <g id="ytick_10">
     <g id="line2d_26">
      <g>
       <use style="stroke:#000000;stroke-width:0.8;" x="55.139375" xlink:href="#m0929338095" y="363.081855"/>
      </g>
     </g>
     <g id="text_27">
      <!-- 0.4 -->
      <g transform="translate(29.055625 367.640918)scale(0.12 -0.12)">
       <use xlink:href="#DejaVuSans-48"/>
       <use x="63.623047" xlink:href="#DejaVuSans-46"/>
       <use x="95.410156" xlink:href="#DejaVuSans-52"/>
      </g>
     </g>
    </g>
    <g id="ytick_11">
     <g id="line2d_27">
      <g>
       <use style="stroke:#000000;stroke-width:0.8;" x="55.139375" xlink:href="#m0929338095" y="327.141359"/>
      </g>
     </g>
     <g id="text_28">
      <!-- 0.6 -->
      <g transform="translate(29.055625 331.700422)scale(0.12 -0.12)">
       <use xlink:href="#DejaVuSans-48"/>
       <use x="63.623047" xlink:href="#DejaVuSans-46"/>
       <use x="95.410156" xlink:href="#DejaVuSans-54"/>
      </g>
     </g>
    </g>
    <g id="ytick_12">
     <g id="line2d_28">
      <g>
       <use style="stroke:#000000;stroke-width:0.8;" x="55.139375" xlink:href="#m0929338095" y="291.200863"/>
      </g>
     </g>
     <g id="text_29">
      <!-- 0.8 -->
      <g transform="translate(29.055625 295.759926)scale(0.12 -0.12)">
       <use xlink:href="#DejaVuSans-48"/>
       <use x="63.623047" xlink:href="#DejaVuSans-46"/>
       <use x="95.410156" xlink:href="#DejaVuSans-56"/>
      </g>
     </g>
    </g>
    <g id="ytick_13">
     <g id="line2d_29">
      <g>
       <use style="stroke:#000000;stroke-width:0.8;" x="55.139375" xlink:href="#m0929338095" y="255.260367"/>
      </g>
     </g>
     <g id="text_30">
      <!-- 1.0 -->
      <g transform="translate(29.055625 259.81943)scale(0.12 -0.12)">
       <use xlink:href="#DejaVuSans-49"/>
       <use x="63.623047" xlink:href="#DejaVuSans-46"/>
       <use x="95.410156" xlink:href="#DejaVuSans-48"/>
      </g>
     </g>
    </g>
    <g id="text_31">
     <!-- Acquisition Function -->
     <g transform="translate(22.56 405.398482)rotate(-90)scale(0.12 -0.12)">
      <defs>
       <path d="M 34.1875 63.1875 
L 20.796875 26.90625 
L 47.609375 26.90625 
z
M 28.609375 72.90625 
L 39.796875 72.90625 
L 67.578125 0 
L 57.328125 0 
L 50.6875 18.703125 
L 17.828125 18.703125 
L 11.1875 0 
L 0.78125 0 
z
" id="DejaVuSans-65"/>
       <path d="M 48.78125 52.59375 
L 48.78125 44.1875 
Q 44.96875 46.296875 41.140625 47.34375 
Q 37.3125 48.390625 33.40625 48.390625 
Q 24.65625 48.390625 19.8125 42.84375 
Q 14.984375 37.3125 14.984375 27.296875 
Q 14.984375 17.28125 19.8125 11.734375 
Q 24.65625 6.203125 33.40625 6.203125 
Q 37.3125 6.203125 41.140625 7.25 
Q 44.96875 8.296875 48.78125 10.40625 
L 48.78125 2.09375 
Q 45.015625 0.34375 40.984375 -0.53125 
Q 36.96875 -1.421875 32.421875 -1.421875 
Q 20.0625 -1.421875 12.78125 6.34375 
Q 5.515625 14.109375 5.515625 27.296875 
Q 5.515625 40.671875 12.859375 48.328125 
Q 20.21875 56 33.015625 56 
Q 37.15625 56 41.109375 55.140625 
Q 45.0625 54.296875 48.78125 52.59375 
z
" id="DejaVuSans-99"/>
       <path d="M 14.796875 27.296875 
Q 14.796875 17.390625 18.875 11.75 
Q 22.953125 6.109375 30.078125 6.109375 
Q 37.203125 6.109375 41.296875 11.75 
Q 45.40625 17.390625 45.40625 27.296875 
Q 45.40625 37.203125 41.296875 42.84375 
Q 37.203125 48.484375 30.078125 48.484375 
Q 22.953125 48.484375 18.875 42.84375 
Q 14.796875 37.203125 14.796875 27.296875 
z
M 45.40625 8.203125 
Q 42.578125 3.328125 38.25 0.953125 
Q 33.9375 -1.421875 27.875 -1.421875 
Q 17.96875 -1.421875 11.734375 6.484375 
Q 5.515625 14.40625 5.515625 27.296875 
Q 5.515625 40.1875 11.734375 48.09375 
Q 17.96875 56 27.875 56 
Q 33.9375 56 38.25 53.625 
Q 42.578125 51.265625 45.40625 46.390625 
L 45.40625 54.6875 
L 54.390625 54.6875 
L 54.390625 -20.796875 
L 45.40625 -20.796875 
z
" id="DejaVuSans-113"/>
       <path d="M 8.5 21.578125 
L 8.5 54.6875 
L 17.484375 54.6875 
L 17.484375 21.921875 
Q 17.484375 14.15625 20.5 10.265625 
Q 23.53125 6.390625 29.59375 6.390625 
Q 36.859375 6.390625 41.078125 11.03125 
Q 45.3125 15.671875 45.3125 23.6875 
L 45.3125 54.6875 
L 54.296875 54.6875 
L 54.296875 0 
L 45.3125 0 
L 45.3125 8.40625 
Q 42.046875 3.421875 37.71875 1 
Q 33.40625 -1.421875 27.6875 -1.421875 
Q 18.265625 -1.421875 13.375 4.4375 
Q 8.5 10.296875 8.5 21.578125 
z
M 31.109375 56 
z
" id="DejaVuSans-117"/>
       <path d="M 9.421875 54.6875 
L 18.40625 54.6875 
L 18.40625 0 
L 9.421875 0 
z
M 9.421875 75.984375 
L 18.40625 75.984375 
L 18.40625 64.59375 
L 9.421875 64.59375 
z
" id="DejaVuSans-105"/>
       <path d="M 44.28125 53.078125 
L 44.28125 44.578125 
Q 40.484375 46.53125 36.375 47.5 
Q 32.28125 48.484375 27.875 48.484375 
Q 21.1875 48.484375 17.84375 46.4375 
Q 14.5 44.390625 14.5 40.28125 
Q 14.5 37.15625 16.890625 35.375 
Q 19.28125 33.59375 26.515625 31.984375 
L 29.59375 31.296875 
Q 39.15625 29.25 43.1875 25.515625 
Q 47.21875 21.78125 47.21875 15.09375 
Q 47.21875 7.46875 41.1875 3.015625 
Q 35.15625 -1.421875 24.609375 -1.421875 
Q 20.21875 -1.421875 15.453125 -0.5625 
Q 10.6875 0.296875 5.421875 2 
L 5.421875 11.28125 
Q 10.40625 8.6875 15.234375 7.390625 
Q 20.0625 6.109375 24.8125 6.109375 
Q 31.15625 6.109375 34.5625 8.28125 
Q 37.984375 10.453125 37.984375 14.40625 
Q 37.984375 18.0625 35.515625 20.015625 
Q 33.0625 21.96875 24.703125 23.78125 
L 21.578125 24.515625 
Q 13.234375 26.265625 9.515625 29.90625 
Q 5.8125 33.546875 5.8125 39.890625 
Q 5.8125 47.609375 11.28125 51.796875 
Q 16.75 56 26.8125 56 
Q 31.78125 56 36.171875 55.265625 
Q 40.578125 54.546875 44.28125 53.078125 
z
" id="DejaVuSans-115"/>
       <path id="DejaVuSans-32"/>
       <path d="M 9.8125 72.90625 
L 51.703125 72.90625 
L 51.703125 64.59375 
L 19.671875 64.59375 
L 19.671875 43.109375 
L 48.578125 43.109375 
L 48.578125 34.8125 
L 19.671875 34.8125 
L 19.671875 0 
L 9.8125 0 
z
" id="DejaVuSans-70"/>
      </defs>
      <use xlink:href="#DejaVuSans-65"/>
      <use x="66.658203" xlink:href="#DejaVuSans-99"/>
      <use x="121.638672" xlink:href="#DejaVuSans-113"/>
      <use x="185.115234" xlink:href="#DejaVuSans-117"/>
      <use x="248.494141" xlink:href="#DejaVuSans-105"/>
      <use x="276.277344" xlink:href="#DejaVuSans-115"/>
      <use x="328.376953" xlink:href="#DejaVuSans-105"/>
      <use x="356.160156" xlink:href="#DejaVuSans-116"/>
      <use x="395.369141" xlink:href="#DejaVuSans-105"/>
      <use x="423.152344" xlink:href="#DejaVuSans-111"/>
      <use x="484.333984" xlink:href="#DejaVuSans-110"/>
      <use x="547.712891" xlink:href="#DejaVuSans-32"/>
      <use x="579.5" xlink:href="#DejaVuSans-70"/>
      <use x="631.519531" xlink:href="#DejaVuSans-117"/>
      <use x="694.898438" xlink:href="#DejaVuSans-110"/>
      <use x="758.277344" xlink:href="#DejaVuSans-99"/>
      <use x="813.257812" xlink:href="#DejaVuSans-116"/>
      <use x="852.466797" xlink:href="#DejaVuSans-105"/>
      <use x="880.25" xlink:href="#DejaVuSans-111"/>
      <use x="941.431641" xlink:href="#DejaVuSans-110"/>
     </g>
    </g>
   </g>
   <g id="line2d_30">
    <path clip-path="url(#p6d35939fe1)" d="M 75.430284 350.100243 
L 78.680079 349.818741 
L 81.117426 349.801506 
L 84.367221 349.866413 
L 85.585894 349.604948 
L 87.210792 348.900111 
L 88.835689 348.1975 
L 90.460587 347.753054 
L 92.085485 347.543954 
L 94.116607 347.497111 
L 97.366402 347.684582 
L 103.053544 348.304448 
L 116.052725 349.766092 
L 122.95854 350.29409 
L 129.051906 350.543387 
L 134.739047 350.560315 
L 140.019965 350.366289 
L 145.300882 349.950743 
L 150.175575 349.35563 
L 155.050268 348.545114 
L 159.924961 347.508922 
L 164.799653 346.238455 
L 169.674346 344.726792 
L 174.549039 342.968476 
L 179.423732 340.959331 
L 184.298425 338.696571 
L 189.173118 336.179449 
L 194.047811 333.41202 
L 199.328728 330.151202 
L 207.046992 325.067053 
L 211.109236 322.511541 
L 213.546582 321.246589 
L 215.17148 320.658005 
L 216.390153 320.445793 
L 217.202602 320.464886 
L 218.015051 320.659458 
L 218.827499 321.08509 
L 219.639948 321.817968 
L 220.452397 322.960342 
L 221.264846 324.650388 
L 222.077295 327.067181 
L 222.889744 330.432155 
L 223.702192 334.982483 
L 224.514641 340.899399 
L 225.733314 352.227039 
L 228.170661 376.887231 
L 229.389334 386.158245 
L 230.201783 390.922616 
L 231.420456 396.482858 
L 232.639129 400.783183 
L 233.857803 404.338306 
L 235.4827 408.434609 
L 237.920047 413.894633 
L 240.763617 419.730797 
L 243.200964 424.319925 
L 245.232086 427.726897 
L 246.856984 430.067826 
L 248.481881 431.974516 
L 249.700554 433.079704 
L 250.919228 433.895292 
L 252.137901 434.437189 
L 253.356574 434.748947 
L 254.981472 434.920613 
L 258.637491 434.962804 
L 274.480243 434.858719 
L 276.105141 434.617851 
L 277.730038 434.126468 
L 278.948712 433.555415 
L 280.573609 432.5087 
L 282.198507 431.153277 
L 284.229629 429.091305 
L 286.666975 426.218194 
L 289.916771 421.995774 
L 299.259932 409.637205 
L 303.322176 404.728787 
L 306.978196 400.655484 
L 310.634215 396.914185 
L 314.290235 393.494314 
L 317.946255 390.378057 
L 321.602274 387.544846 
L 325.258294 384.973575 
L 329.320538 382.398917 
L 333.382782 380.095815 
L 337.445026 378.039654 
L 341.913495 376.036001 
L 346.381963 374.275897 
L 351.256656 372.603721 
L 356.131349 371.161062 
L 361.412266 369.82555 
L 367.099408 368.616836 
L 373.192774 367.547337 
L 380.098589 366.570977 
L 387.816852 365.720846 
L 396.347565 365.014046 
L 406.096951 364.432382 
L 417.877459 363.959384 
L 432.501537 363.602392 
L 452.406533 363.352234 
L 481.248466 363.212583 
L 481.248466 363.212583 
" style="fill:none;stroke:#1f77b4;stroke-linecap:square;stroke-width:1.5;"/>
   </g>
   <g id="line2d_31">
    <path clip-path="url(#p6d35939fe1)" d="M 75.430284 357.997006 
L 78.273855 358.214393 
L 80.304977 358.577886 
L 83.554772 359.330921 
L 83.960997 359.172169 
L 84.367221 358.763957 
L 84.773445 357.957421 
L 85.17967 356.634466 
L 85.992119 352.495795 
L 87.210792 346.076904 
L 88.023241 343.284063 
L 88.835689 341.467878 
L 89.648138 340.26286 
L 90.460587 339.430844 
L 91.67926 338.596828 
L 92.897934 338.053116 
L 94.522831 337.577895 
L 96.960178 337.142681 
L 100.616197 336.767247 
L 108.740685 336.241845 
L 117.677622 335.568807 
L 124.177213 334.862163 
L 130.270579 333.97176 
L 135.551496 332.983792 
L 140.426189 331.861396 
L 145.300882 330.502818 
L 149.76935 329.015052 
L 153.831594 327.427604 
L 157.487614 325.777158 
L 161.143634 323.883679 
L 164.393429 321.965511 
L 167.643224 319.79269 
L 170.89302 317.327255 
L 173.73659 314.894428 
L 176.580161 312.168459 
L 179.423732 309.110429 
L 182.267303 305.677306 
L 184.704649 302.40246 
L 187.141996 298.791669 
L 189.579342 294.823768 
L 192.422913 289.727933 
L 195.266484 284.15211 
L 198.922504 276.4497 
L 203.390972 267.03145 
L 205.422094 263.238001 
L 207.046992 260.65624 
L 208.265665 259.056011 
L 209.484338 257.780157 
L 210.703011 256.828279 
L 211.921685 256.17547 
L 213.140358 255.768053 
L 214.765255 255.491474 
L 216.796377 255.384752 
L 218.827499 255.47651 
L 219.639948 255.683471 
L 220.046173 255.902315 
L 220.452397 256.275641 
L 220.858622 256.913628 
L 221.264846 257.986758 
L 221.67107 259.75533 
L 222.077295 262.564528 
L 222.483519 266.815694 
L 222.889744 272.946522 
L 223.702192 291.857889 
L 224.514641 318.872972 
L 226.139539 377.100657 
L 226.951988 398.63051 
L 227.764436 413.302912 
L 228.576885 422.457624 
L 229.389334 427.856136 
L 230.201783 430.94048 
L 231.014232 432.679711 
L 231.82668 433.659193 
L 232.639129 434.212615 
L 233.857803 434.632277 
L 235.4827 434.851991 
L 238.326271 434.948233 
L 251.325452 434.962847 
L 296.416361 434.86435 
L 300.88483 434.614964 
L 304.947074 434.158463 
L 308.603093 433.517638 
L 312.259113 432.646174 
L 315.915133 431.551465 
L 319.977377 430.098617 
L 324.445845 428.257731 
L 329.726762 425.82885 
L 336.632577 422.377875 
L 349.631758 415.554748 
L 361.006042 409.701904 
L 369.536754 405.56348 
L 377.255018 402.063067 
L 384.567057 398.98231 
L 391.879097 396.13896 
L 399.191136 393.53335 
L 406.503175 391.160482 
L 414.221439 388.898595 
L 421.939703 386.872998 
L 430.064191 384.979279 
L 438.188679 383.311266 
L 446.719391 381.781234 
L 456.062553 380.339249 
L 465.811938 379.064901 
L 476.373773 377.914622 
L 481.248466 377.454752 
L 481.248466 377.454752 
" style="fill:none;stroke:#ff7f0e;stroke-linecap:square;stroke-width:1.5;"/>
   </g>
   <g id="line2d_32">
    <path clip-path="url(#p6d35939fe1)" d="M 75.430284 353.692283 
L 77.461406 353.769332 
L 79.086304 354.038801 
L 80.304977 354.437695 
L 81.117426 354.898589 
L 81.929875 355.627934 
L 82.336099 356.143728 
L 82.742323 356.84315 
L 83.148548 357.774787 
L 83.554772 359.117317 
L 83.960997 361.129385 
L 84.367221 364.43461 
L 84.773445 370.839467 
L 85.17967 387.322544 
L 85.585894 423.314788 
L 85.992119 378.939559 
L 86.398343 361.246494 
L 86.804567 354.427777 
L 87.210792 350.987423 
L 87.617016 348.895725 
L 88.023241 347.52676 
L 88.835689 345.854857 
L 89.648138 344.892492 
L 90.460587 344.308042 
L 91.273036 343.916087 
L 92.491709 343.543292 
L 94.116607 343.287502 
L 96.960178 343.158199 
L 100.209973 343.233242 
L 106.303339 343.555066 
L 119.30252 344.210412 
L 129.051906 344.315002 
L 133.520374 344.191702 
L 138.395067 343.914906 
L 143.675984 343.39008 
L 148.144453 342.740595 
L 152.612921 341.84998 
L 156.675165 340.795063 
L 161.143634 339.278434 
L 163.987205 338.093939 
L 167.237 336.470047 
L 169.674346 335.036496 
L 172.111693 333.377636 
L 174.549039 331.465511 
L 177.39261 328.82944 
L 179.423732 326.64881 
L 181.861079 323.631945 
L 183.892201 320.724472 
L 185.517098 318.099192 
L 187.54822 314.422129 
L 189.579342 310.182763 
L 191.610464 305.315711 
L 193.641586 299.774079 
L 195.672708 293.502026 
L 197.70383 286.502052 
L 204.203421 262.707069 
L 205.422094 259.45368 
L 206.234543 257.799454 
L 207.046992 256.606617 
L 207.859441 255.856698 
L 208.671889 255.463731 
L 209.890563 255.279044 
L 213.952807 255.260367 
L 224.514641 255.300716 
L 224.920866 256.031201 
L 225.32709 266.814805 
L 226.139539 432.672732 
L 226.545763 434.962575 
L 294.385239 434.901915 
L 298.853708 434.693604 
L 302.509727 434.318641 
L 305.759522 433.784493 
L 309.009318 433.043587 
L 312.665337 431.963632 
L 316.321357 430.644468 
L 320.383601 428.936449 
L 324.85207 426.825011 
L 330.945436 423.669957 
L 339.476148 418.979101 
L 354.506451 410.72472 
L 362.224715 406.7373 
L 369.536754 403.194887 
L 376.848794 399.905968 
L 384.160833 396.882796 
L 391.066648 394.267341 
L 397.972463 391.882577 
L 405.284502 389.598188 
L 412.596541 387.547857 
L 420.314805 385.621024 
L 428.033069 383.919554 
L 436.563781 382.277847 
L 445.500718 380.799361 
L 454.84388 379.487269 
L 464.593265 378.33965 
L 475.561324 377.279777 
L 481.248466 376.813351 
L 481.248466 376.813351 
" style="fill:none;stroke:#2ca02c;stroke-linecap:square;stroke-width:1.5;"/>
   </g>
   <g id="patch_9">
    <path d="M 55.139375 443.947971 
L 55.139375 246.275243 
" style="fill:none;stroke:#000000;stroke-linecap:square;stroke-linejoin:miter;stroke-width:0.8;"/>
   </g>
   <g id="patch_10">
    <path d="M 501.539375 443.947971 
L 501.539375 246.275243 
" style="fill:none;stroke:#000000;stroke-linecap:square;stroke-linejoin:miter;stroke-width:0.8;"/>
   </g>
   <g id="patch_11">
    <path d="M 55.139375 443.947971 
L 501.539375 443.947971 
" style="fill:none;stroke:#000000;stroke-linecap:square;stroke-linejoin:miter;stroke-width:0.8;"/>
   </g>
   <g id="patch_12">
    <path d="M 55.139375 246.275243 
L 501.539375 246.275243 
" style="fill:none;stroke:#000000;stroke-linecap:square;stroke-linejoin:miter;stroke-width:0.8;"/>
   </g>
  </g>
 </g>
 <defs>
  <clipPath id="p82fde38833">
   <rect height="197.672727" width="446.4" x="55.139375" y="9.067971"/>
  </clipPath>
  <clipPath id="p6d35939fe1">
   <rect height="197.672727" width="446.4" x="55.139375" y="246.275243"/>
  </clipPath>
 </defs>
</svg>
