<?xml version="1.0" encoding="utf-8" standalone="no"?>
<!DOCTYPE svg PUBLIC "-//W3C//DTD SVG 1.1//EN"
  "http://www.w3.org/Graphics/SVG/1.1/DTD/svg11.dtd">
<!-- Created with matplotlib (https://matplotlib.org/) -->
<svg height="485.417519pt" version="1.1" viewBox="0 0 508.739375 485.417519" width="508.739375pt" xmlns="http://www.w3.org/2000/svg" xmlns:xlink="http://www.w3.org/1999/xlink">
 <metadata>
  <rdf:RDF xmlns:cc="http://creativecommons.org/ns#" xmlns:dc="http://purl.org/dc/elements/1.1/" xmlns:rdf="http://www.w3.org/1999/02/22-rdf-syntax-ns#">
   <cc:Work>
    <dc:type rdf:resource="http://purl.org/dc/dcmitype/StillImage"/>
    <dc:date>2020-10-04T17:38:49.163212</dc:date>
    <dc:format>image/svg+xml</dc:format>
    <dc:creator>
     <cc:Agent>
      <dc:title>Matplotlib v3.3.1, https://matplotlib.org/</dc:title>
     </cc:Agent>
    </dc:creator>
   </cc:Work>
  </rdf:RDF>
 </metadata>
 <defs>
  <style type="text/css">*{stroke-linecap:butt;stroke-linejoin:round;}</style>
 </defs>
 <g id="figure_1">
  <g id="patch_1">
   <path d="M 0 485.417519 
L 508.739375 485.417519 
L 508.739375 0 
L 0 0 
z
" style="fill:none;"/>
  </g>
  <g id="axes_1">
   <g id="patch_2">
    <path d="M 55.139375 206.782747 
L 501.539375 206.782747 
L 501.539375 9.110019 
L 55.139375 9.110019 
z
" style="fill:#ffffff;"/>
   </g>
   <g id="PolyCollection_1">
    <path clip-path="url(#p678e5d941a)" d="M 75.430284 70.427648 
L 75.430284 122.14658 
L 75.836508 121.272606 
L 76.242733 120.397072 
L 76.648957 119.522519 
L 77.055182 118.648496 
L 77.461406 117.777456 
L 77.867631 116.908531 
L 78.273855 116.045057 
L 78.680079 115.187048 
L 79.086304 114.33782 
L 79.492528 113.497155 
L 79.898753 112.669848 
L 80.304977 111.856765 
L 80.711201 111.062494 
L 81.117426 110.289396 
L 81.52365 109.544425 
L 81.929875 108.830371 
L 82.336099 108.155352 
L 82.742323 107.524672 
L 83.148548 106.949394 
L 83.554772 106.434748 
L 83.960997 105.99567 
L 84.367221 105.636788 
L 84.773445 105.371674 
L 85.17967 105.203428 
L 85.585894 105.141884 
L 85.992119 105.18539 
L 86.398343 105.334271 
L 86.804567 105.58262 
L 87.210792 105.923413 
L 87.617016 106.344381 
L 88.023241 106.840846 
L 88.429465 107.397825 
L 88.835689 108.010241 
L 89.241914 108.666874 
L 89.648138 109.363177 
L 90.054363 110.088925 
L 90.460587 110.843428 
L 90.866812 111.61902 
L 91.273036 112.413326 
L 91.67926 113.221766 
L 92.085485 114.043448 
L 92.491709 114.873598 
L 92.897934 115.712963 
L 93.304158 116.557121 
L 93.710382 117.40614 
L 94.116607 118.258167 
L 94.522831 119.112514 
L 94.929056 119.967277 
L 95.33528 120.82245 
L 95.741504 121.676371 
L 96.147729 122.529925 
L 96.553953 123.380257 
L 96.960178 124.228915 
L 97.366402 125.073604 
L 97.772626 125.91537 
L 98.178851 126.752364 
L 98.585075 127.585781 
L 98.9913 128.413734 
L 99.397524 129.237167 
L 99.803748 130.054628 
L 100.209973 130.867174 
L 100.616197 131.673033 
L 101.022422 132.473472 
L 101.428646 133.267281 
L 101.83487 134.054798 
L 102.241095 134.835127 
L 102.647319 135.609271 
L 103.053544 136.376152 
L 103.459768 137.136076 
L 103.865993 137.888525 
L 104.272217 138.633779 
L 104.678441 139.37135 
L 105.084666 140.101884 
L 105.49089 140.8244 
L 105.897115 141.538991 
L 106.303339 142.246138 
L 106.709563 142.945543 
L 107.115788 143.637013 
L 107.522012 144.320365 
L 107.928237 144.995703 
L 108.334461 145.66339 
L 108.740685 146.322597 
L 109.14691 146.97384 
L 109.553134 147.617061 
L 109.959359 148.252248 
L 110.365583 148.879158 
L 110.771807 149.497782 
L 111.178032 150.108483 
L 111.584256 150.710879 
L 111.990481 151.305435 
L 112.396705 151.891518 
L 112.802929 152.469433 
L 113.209154 153.039517 
L 113.615378 153.601383 
L 114.021603 154.155222 
L 114.427827 154.700801 
L 114.834051 155.238421 
L 115.240276 155.768165 
L 115.6465 156.289834 
L 116.052725 156.803514 
L 116.458949 157.309327 
L 116.865174 157.807246 
L 117.271398 158.297281 
L 117.677622 158.779561 
L 118.083847 159.253966 
L 118.490071 159.720681 
L 118.896296 160.179694 
L 119.30252 160.630976 
L 119.708744 161.074751 
L 120.114969 161.5109 
L 120.521193 161.939562 
L 120.927418 162.360774 
L 121.333642 162.774528 
L 121.739866 163.18096 
L 122.146091 163.580001 
L 122.552315 163.971876 
L 122.95854 164.35645 
L 123.364764 164.733869 
L 123.770988 165.104201 
L 124.177213 165.467457 
L 124.583437 165.823648 
L 124.989662 166.172927 
L 125.395886 166.515296 
L 125.80211 166.850892 
L 126.208335 167.179603 
L 126.614559 167.501653 
L 127.020784 167.816963 
L 127.427008 168.125641 
L 127.833232 168.427774 
L 128.239457 168.723378 
L 128.645681 169.012504 
L 129.051906 169.295261 
L 129.45813 169.571629 
L 129.864355 169.841666 
L 130.270579 170.105481 
L 130.676803 170.363118 
L 131.083028 170.614595 
L 131.489252 170.859985 
L 131.895477 171.099322 
L 132.301701 171.332665 
L 132.707925 171.560095 
L 133.11415 171.78159 
L 133.520374 171.997281 
L 133.926599 172.207213 
L 134.332823 172.41136 
L 134.739047 172.609837 
L 135.145272 172.802673 
L 135.551496 172.989909 
L 135.957721 173.171596 
L 136.363945 173.347786 
L 136.770169 173.518514 
L 137.176394 173.683828 
L 137.582618 173.84376 
L 137.988843 173.998395 
L 138.395067 174.147707 
L 138.801291 174.291805 
L 139.207516 174.430708 
L 139.61374 174.564421 
L 140.019965 174.693028 
L 140.426189 174.816533 
L 140.832413 174.934996 
L 141.238638 175.048461 
L 141.644862 175.156937 
L 142.051087 175.260478 
L 142.457311 175.359106 
L 142.863536 175.452859 
L 143.26976 175.541769 
L 143.675984 175.625868 
L 144.082209 175.705195 
L 144.488433 175.779759 
L 144.894658 175.849593 
L 145.300882 175.91475 
L 145.707106 175.975224 
L 146.113331 176.03106 
L 146.519555 176.082258 
L 146.92578 176.128871 
L 147.332004 176.1709 
L 147.738228 176.208401 
L 148.144453 176.241361 
L 148.550677 176.269782 
L 148.956902 176.29373 
L 149.363126 176.313202 
L 149.76935 176.32821 
L 150.175575 176.338774 
L 150.581799 176.34492 
L 150.988024 176.346644 
L 151.394248 176.343953 
L 151.800472 176.336889 
L 152.206697 176.325442 
L 152.612921 176.309616 
L 153.019146 176.289434 
L 153.42537 176.264903 
L 153.831594 176.236033 
L 154.237819 176.202808 
L 154.644043 176.165266 
L 155.050268 176.123383 
L 155.456492 176.077168 
L 155.862717 176.026624 
L 156.268941 175.971775 
L 156.675165 175.912585 
L 157.08139 175.84909 
L 157.487614 175.781255 
L 157.893839 175.709099 
L 158.300063 175.632608 
L 158.706287 175.551783 
L 159.112512 175.466628 
L 159.518736 175.377121 
L 159.924961 175.283255 
L 160.331185 175.185036 
L 160.737409 175.082447 
L 161.143634 174.975491 
L 161.549858 174.864131 
L 161.956083 174.748376 
L 162.362307 174.628219 
L 162.768531 174.503628 
L 163.174756 174.374599 
L 163.58098 174.24113 
L 163.987205 174.103187 
L 164.393429 173.960775 
L 164.799653 173.813862 
L 165.205878 173.662421 
L 165.612102 173.506467 
L 166.018327 173.345945 
L 166.424551 173.180863 
L 166.830775 173.011199 
L 167.237 172.836909 
L 167.643224 172.657993 
L 168.049449 172.474436 
L 168.455673 172.286201 
L 168.861898 172.093249 
L 169.268122 171.895605 
L 169.674346 171.693209 
L 170.080571 171.486039 
L 170.486795 171.274088 
L 170.89302 171.057314 
L 171.299244 170.835691 
L 171.705468 170.60921 
L 172.111693 170.377815 
L 172.517917 170.141519 
L 172.924142 169.900271 
L 173.330366 169.654054 
L 173.73659 169.402824 
L 174.142815 169.146567 
L 174.549039 168.88524 
L 174.955264 168.618847 
L 175.361488 168.347347 
L 175.767712 168.070688 
L 176.173937 167.788864 
L 176.580161 167.501837 
L 176.986386 167.209596 
L 177.39261 166.912083 
L 177.798834 166.609302 
L 178.205059 166.301216 
L 178.611283 165.987758 
L 179.017508 165.668978 
L 179.423732 165.344778 
L 179.829956 165.015179 
L 180.236181 164.68012 
L 180.642405 164.339615 
L 181.04863 163.993572 
L 181.454854 163.642042 
L 181.861079 163.28492 
L 182.267303 162.922265 
L 182.673527 162.553997 
L 183.079752 162.180133 
L 183.485976 161.800605 
L 183.892201 161.415443 
L 184.298425 161.024582 
L 184.704649 160.628044 
L 185.110874 160.225742 
L 185.517098 159.817752 
L 185.923323 159.403974 
L 186.329547 158.984448 
L 186.735771 158.55916 
L 187.141996 158.128075 
L 187.54822 157.691162 
L 187.954445 157.248487 
L 188.360669 156.799943 
L 188.766893 156.345628 
L 189.173118 155.88545 
L 189.579342 155.419466 
L 189.985567 154.947606 
L 190.391791 154.469979 
L 190.798015 153.986509 
L 191.20424 153.497218 
L 191.610464 153.002097 
L 192.016689 152.501192 
L 192.422913 151.994508 
L 192.829137 151.482041 
L 193.235362 150.96383 
L 193.641586 150.439905 
L 194.047811 149.910235 
L 194.454035 149.374904 
L 194.86026 148.833939 
L 195.266484 148.287332 
L 195.672708 147.735161 
L 196.078933 147.17746 
L 196.485157 146.614241 
L 196.891382 146.045599 
L 197.297606 145.471552 
L 197.70383 144.892186 
L 198.110055 144.307524 
L 198.516279 143.717627 
L 198.922504 143.122601 
L 199.328728 142.522527 
L 199.734952 141.91744 
L 200.141177 141.307435 
L 200.547401 140.692638 
L 200.953626 140.073092 
L 201.35985 139.448926 
L 201.766074 138.820253 
L 202.172299 138.187159 
L 202.578523 137.54978 
L 202.984748 136.90826 
L 203.390972 136.262684 
L 203.797196 135.613184 
L 204.203421 134.959952 
L 204.609645 134.303147 
L 205.01587 133.642872 
L 205.422094 132.979332 
L 205.828318 132.312722 
L 206.234543 131.643191 
L 206.640767 130.970928 
L 207.046992 130.296207 
L 207.453216 129.61916 
L 207.859441 128.940047 
L 208.265665 128.25915 
L 208.671889 127.576648 
L 209.078114 126.892837 
L 209.484338 126.20803 
L 209.890563 125.522412 
L 210.296787 124.83636 
L 210.703011 124.150242 
L 211.109236 123.464252 
L 211.51546 122.778892 
L 211.921685 122.094422 
L 212.327909 121.411319 
L 212.734133 120.729976 
L 213.140358 120.050783 
L 213.546582 119.374271 
L 213.952807 118.700902 
L 214.359031 118.031265 
L 214.765255 117.365879 
L 215.17148 116.705357 
L 215.577704 116.050297 
L 215.983929 115.40149 
L 216.390153 114.759672 
L 216.796377 114.125542 
L 217.202602 113.500185 
L 217.608826 112.884484 
L 218.015051 112.279389 
L 218.421275 111.686192 
L 218.827499 111.106158 
L 219.233724 110.540641 
L 219.639948 109.991241 
L 220.046173 109.459785 
L 220.452397 108.948171 
L 220.858622 108.458505 
L 221.264846 107.993558 
L 221.67107 107.555774 
L 222.077295 107.148343 
L 222.483519 106.774783 
L 222.889744 106.438791 
L 223.295968 106.144822 
L 223.702192 105.897125 
L 224.108417 105.700667 
L 224.514641 105.560045 
L 224.920866 105.480605 
L 225.32709 105.46633 
L 225.733314 105.521147 
L 226.139539 105.647512 
L 226.545763 105.84727 
L 226.951988 106.119883 
L 227.358212 106.463992 
L 227.764436 106.875876 
L 228.170661 107.351348 
L 228.576885 107.884812 
L 228.98311 108.470517 
L 229.389334 109.102273 
L 229.795558 109.774001 
L 230.201783 110.480006 
L 230.608007 111.214655 
L 231.014232 111.97352 
L 231.420456 112.751732 
L 231.82668 113.545677 
L 232.232905 114.351522 
L 232.639129 115.166346 
L 233.045354 115.987211 
L 233.451578 116.811747 
L 233.857803 117.637726 
L 234.264027 118.463233 
L 234.670251 119.286432 
L 235.076476 120.105768 
L 235.4827 120.919836 
L 235.888925 121.72734 
L 236.295149 122.527154 
L 236.701373 123.318053 
L 237.107598 124.099153 
L 237.513822 124.869606 
L 237.920047 125.628428 
L 238.326271 126.375014 
L 238.732495 127.108517 
L 239.13872 127.828307 
L 239.544944 128.533753 
L 239.951169 129.224261 
L 240.357393 129.899345 
L 240.763617 130.558455 
L 241.169842 131.201059 
L 241.576066 131.826757 
L 241.982291 132.435148 
L 242.388515 133.025773 
L 242.794739 133.598373 
L 243.200964 134.152492 
L 243.607188 134.687854 
L 244.013413 135.204161 
L 244.419637 135.701166 
L 244.825861 136.178526 
L 245.232086 136.636077 
L 245.63831 137.073647 
L 246.044535 137.490935 
L 246.450759 137.887865 
L 246.856984 138.264254 
L 247.263208 138.619972 
L 247.669432 138.954991 
L 248.075657 139.269134 
L 248.481881 139.562406 
L 248.888106 139.83483 
L 249.29433 140.086311 
L 249.700554 140.316919 
L 250.106779 140.526739 
L 250.513003 140.715849 
L 250.919228 140.884358 
L 251.325452 141.032511 
L 251.731676 141.160393 
L 252.137901 141.268342 
L 252.544125 141.35661 
L 252.95035 141.425574 
L 253.356574 141.47569 
L 253.762798 141.507366 
L 254.169023 141.521216 
L 254.575247 141.517831 
L 254.981472 141.497875 
L 255.387696 141.462354 
L 255.79392 141.412086 
L 256.200145 141.348233 
L 256.606369 141.272011 
L 257.012594 141.184961 
L 257.418818 141.088653 
L 257.825042 140.985022 
L 258.231267 140.87622 
L 258.637491 140.764854 
L 259.043716 140.653645 
L 259.44994 140.545919 
L 259.856165 140.445491 
L 260.262389 140.35637 
L 260.668613 140.283389 
L 261.074838 140.231675 
L 261.481062 140.206798 
L 261.887287 140.214629 
L 262.293511 140.260964 
L 262.699735 140.351903 
L 263.10596 140.49242 
L 263.512184 140.686927 
L 263.918409 140.938742 
L 264.324633 141.249441 
L 264.730857 141.619134 
L 265.137082 142.046223 
L 265.543306 142.528129 
L 265.949531 143.061049 
L 266.355755 143.640505 
L 266.761979 144.261581 
L 267.168204 144.919684 
L 267.574428 145.609805 
L 267.980653 146.327527 
L 268.386877 147.068798 
L 268.793101 147.829786 
L 269.199326 148.607112 
L 269.60555 149.397866 
L 270.011775 150.199311 
L 270.417999 151.008973 
L 270.824223 151.824947 
L 271.230448 152.645391 
L 271.636672 153.46852 
L 272.042897 154.293093 
L 272.449121 155.117685 
L 272.855346 155.941151 
L 273.26157 156.762646 
L 273.667794 157.581165 
L 274.074019 158.395905 
L 274.480243 159.206153 
L 274.886468 160.011291 
L 275.292692 160.810686 
L 275.698916 161.603871 
L 276.105141 162.390386 
L 276.511365 163.169775 
L 276.91759 163.941696 
L 277.323814 164.705761 
L 277.730038 165.46168 
L 278.136263 166.209205 
L 278.542487 166.948064 
L 278.948712 167.678039 
L 279.354936 168.39894 
L 279.76116 169.11055 
L 280.167385 169.812776 
L 280.573609 170.505426 
L 280.979834 171.18841 
L 281.386058 171.861612 
L 281.792282 172.524944 
L 282.198507 173.178336 
L 282.604731 173.821697 
L 283.010956 174.454972 
L 283.41718 175.078178 
L 283.823404 175.691197 
L 284.229629 176.294099 
L 284.635853 176.886806 
L 285.042078 177.469324 
L 285.448302 178.041685 
L 285.854527 178.603872 
L 286.260751 179.155894 
L 286.666975 179.697823 
L 287.0732 180.22966 
L 287.479424 180.751427 
L 287.885649 181.263204 
L 288.291873 181.765009 
L 288.698097 182.256923 
L 289.104322 182.738977 
L 289.510546 183.211235 
L 289.916771 183.673779 
L 290.322995 184.126679 
L 290.729219 184.56999 
L 291.135444 185.003805 
L 291.541668 185.428195 
L 291.947893 185.843258 
L 292.354117 186.249057 
L 292.760341 186.645683 
L 293.166566 187.033253 
L 293.57279 187.411838 
L 293.979015 187.781534 
L 294.385239 188.142441 
L 294.791463 188.494654 
L 295.197688 188.838281 
L 295.603912 189.173416 
L 296.010137 189.500167 
L 296.416361 189.818629 
L 296.822585 190.128921 
L 297.22881 190.431125 
L 297.635034 190.72538 
L 298.041259 191.011773 
L 298.447483 191.290418 
L 298.853708 191.561434 
L 299.259932 191.824899 
L 299.666156 192.080954 
L 300.072381 192.329683 
L 300.478605 192.571211 
L 300.88483 192.805651 
L 301.291054 193.033099 
L 301.697278 193.25369 
L 302.103503 193.467514 
L 302.509727 193.674672 
L 302.915952 193.875308 
L 303.322176 194.069503 
L 303.7284 194.257371 
L 304.134625 194.439026 
L 304.540849 194.614568 
L 304.947074 194.784116 
L 305.353298 194.947771 
L 305.759522 195.105634 
L 306.165747 195.257824 
L 306.571971 195.404437 
L 306.978196 195.545591 
L 307.38442 195.681358 
L 307.790644 195.81188 
L 308.196869 195.937229 
L 308.603093 196.057523 
L 309.009318 196.172858 
L 309.415542 196.283335 
L 309.821766 196.389055 
L 310.227991 196.490107 
L 310.634215 196.586592 
L 311.04044 196.678618 
L 311.446664 196.766273 
L 311.852889 196.84964 
L 312.259113 196.928822 
L 312.665337 197.003912 
L 313.071562 197.075 
L 313.477786 197.142164 
L 313.884011 197.20551 
L 314.290235 197.265117 
L 314.696459 197.321077 
L 315.102684 197.373459 
L 315.508908 197.422379 
L 315.915133 197.467887 
L 316.321357 197.510088 
L 316.727581 197.549048 
L 317.133806 197.584857 
L 317.54003 197.617585 
L 317.946255 197.647317 
L 318.352479 197.674135 
L 318.758703 197.698105 
L 319.164928 197.719303 
L 319.571152 197.737797 
L 319.977377 197.753667 
L 320.383601 197.766981 
L 320.789825 197.777809 
L 321.19605 197.786218 
L 321.602274 197.792283 
L 322.008499 197.796053 
L 322.414723 197.797623 
L 322.820947 197.797022 
L 323.227172 197.794328 
L 323.633396 197.789619 
L 324.039621 197.782935 
L 324.445845 197.774343 
L 324.85207 197.763907 
L 325.258294 197.751669 
L 325.664518 197.737701 
L 326.070743 197.722057 
L 326.476967 197.704783 
L 326.883192 197.685933 
L 327.289416 197.665566 
L 327.69564 197.643732 
L 328.101865 197.620481 
L 328.508089 197.595858 
L 328.914314 197.569914 
L 329.320538 197.542715 
L 329.726762 197.514268 
L 330.132987 197.484643 
L 330.539211 197.453901 
L 330.945436 197.422052 
L 331.35166 197.389157 
L 331.757884 197.355251 
L 332.164109 197.320382 
L 332.570333 197.284591 
L 332.976558 197.247908 
L 333.382782 197.210369 
L 333.789006 197.172033 
L 334.195231 197.132906 
L 334.601455 197.093047 
L 335.00768 197.052476 
L 335.413904 197.011244 
L 335.820128 196.96937 
L 336.226353 196.926901 
L 336.632577 196.883849 
L 337.038802 196.840251 
L 337.445026 196.796153 
L 337.851251 196.751567 
L 338.257475 196.706524 
L 338.663699 196.661052 
L 339.069924 196.6152 
L 339.476148 196.568955 
L 339.882373 196.522372 
L 340.288597 196.475467 
L 340.694821 196.428271 
L 341.101046 196.380796 
L 341.50727 196.33307 
L 341.913495 196.285119 
L 342.319719 196.236966 
L 342.725943 196.188628 
L 343.132168 196.14013 
L 343.538392 196.091494 
L 343.944617 196.042729 
L 344.350841 195.993862 
L 344.757065 195.944911 
L 345.16329 195.89589 
L 345.569514 195.846815 
L 345.975739 195.797716 
L 346.381963 195.748599 
L 346.788187 195.69947 
L 347.194412 195.650372 
L 347.600636 195.601297 
L 348.006861 195.552269 
L 348.413085 195.503289 
L 348.819309 195.454386 
L 349.225534 195.405579 
L 349.631758 195.356855 
L 350.037983 195.308237 
L 350.444207 195.259751 
L 350.850432 195.211395 
L 351.256656 195.163177 
L 351.66288 195.115118 
L 352.069105 195.067221 
L 352.475329 195.019489 
L 352.881554 194.971948 
L 353.287778 194.924598 
L 353.694002 194.877449 
L 354.100227 194.830509 
L 354.506451 194.783794 
L 354.912676 194.737294 
L 355.3189 194.691026 
L 355.725124 194.644995 
L 356.131349 194.59922 
L 356.537573 194.553695 
L 356.943798 194.508426 
L 357.350022 194.463412 
L 357.756246 194.418678 
L 358.162471 194.374217 
L 358.568695 194.330036 
L 358.97492 194.286146 
L 359.381144 194.242535 
L 359.787368 194.199222 
L 360.193593 194.156206 
L 360.599817 194.113494 
L 361.006042 194.071091 
L 361.412266 194.028991 
L 361.81849 193.9872 
L 362.224715 193.94573 
L 362.630939 193.904575 
L 363.037164 193.863742 
L 363.443388 193.823224 
L 363.849613 193.783038 
L 364.255837 193.743174 
L 364.662061 193.703649 
L 365.068286 193.664445 
L 365.47451 193.625579 
L 365.880735 193.587041 
L 366.286959 193.548842 
L 366.693183 193.51097 
L 367.099408 193.473442 
L 367.505632 193.436248 
L 367.911857 193.399399 
L 368.318081 193.362882 
L 368.724305 193.326705 
L 369.13053 193.29086 
L 369.536754 193.255361 
L 369.942979 193.2202 
L 370.349203 193.185372 
L 370.755427 193.150889 
L 371.161652 193.11674 
L 371.567876 193.082941 
L 371.974101 193.049463 
L 372.380325 193.01633 
L 372.786549 192.98353 
L 373.192774 192.951063 
L 373.598998 192.918935 
L 374.005223 192.88714 
L 374.411447 192.855678 
L 374.817671 192.824537 
L 375.223896 192.793741 
L 375.63012 192.763254 
L 376.036345 192.733118 
L 376.442569 192.703291 
L 376.848794 192.673797 
L 377.255018 192.644619 
L 377.661242 192.615773 
L 378.067467 192.587242 
L 378.473691 192.559027 
L 378.879916 192.531121 
L 379.28614 192.503542 
L 379.692364 192.476266 
L 380.098589 192.449299 
L 380.504813 192.42266 
L 380.911038 192.396306 
L 381.317262 192.370273 
L 381.723486 192.344537 
L 382.129711 192.319098 
L 382.535935 192.293957 
L 382.94216 192.269119 
L 383.348384 192.244573 
L 383.754608 192.220318 
L 384.160833 192.196354 
L 384.567057 192.172688 
L 384.973282 192.149295 
L 385.379506 192.126199 
L 385.78573 192.103377 
L 386.191955 192.080829 
L 386.598179 192.058566 
L 387.004404 192.036564 
L 387.410628 192.014848 
L 387.816852 191.9934 
L 388.223077 191.972213 
L 388.629301 191.951306 
L 389.035526 191.930648 
L 389.44175 191.910252 
L 389.847975 191.890118 
L 390.254199 191.870245 
L 390.660423 191.850616 
L 391.066648 191.831249 
L 391.472872 191.812114 
L 391.879097 191.793234 
L 392.285321 191.774598 
L 392.691545 191.756195 
L 393.09777 191.738052 
L 393.503994 191.720136 
L 393.910219 191.702452 
L 394.316443 191.684993 
L 394.722667 191.667773 
L 395.128892 191.650778 
L 395.535116 191.634009 
L 395.941341 191.617461 
L 396.347565 191.601132 
L 396.753789 191.585023 
L 397.160014 191.569135 
L 397.566238 191.553448 
L 397.972463 191.537988 
L 398.378687 191.522718 
L 398.784911 191.507674 
L 399.191136 191.49282 
L 399.59736 191.478174 
L 400.003585 191.46373 
L 400.409809 191.449483 
L 400.816033 191.435426 
L 401.222258 191.421571 
L 401.628482 191.407888 
L 402.034707 191.394408 
L 402.440931 191.381112 
L 402.847156 191.367994 
L 403.25338 191.355073 
L 403.659604 191.342324 
L 404.065829 191.329747 
L 404.472053 191.317349 
L 404.878278 191.305129 
L 405.284502 191.293082 
L 405.690726 191.281201 
L 406.096951 191.269487 
L 406.503175 191.257939 
L 406.9094 191.246552 
L 407.315624 191.235331 
L 407.721848 191.224271 
L 408.128073 191.213366 
L 408.534297 191.202609 
L 408.940522 191.192018 
L 409.346746 191.181565 
L 409.75297 191.171272 
L 410.159195 191.161121 
L 410.565419 191.151125 
L 410.971644 191.141266 
L 411.377868 191.13155 
L 411.784092 191.12197 
L 412.190317 191.11254 
L 412.596541 191.10324 
L 413.002766 191.094082 
L 413.40899 191.085044 
L 413.815214 191.076148 
L 414.221439 191.067377 
L 414.627663 191.058737 
L 415.033888 191.050234 
L 415.440112 191.041844 
L 415.846337 191.033572 
L 416.252561 191.025438 
L 416.658785 191.017404 
L 417.06501 191.009507 
L 417.471234 191.001724 
L 417.877459 190.994047 
L 418.283683 190.986489 
L 418.689907 190.979044 
L 419.096132 190.971707 
L 419.502356 190.964482 
L 419.908581 190.957364 
L 420.314805 190.950353 
L 420.721029 190.94345 
L 421.127254 190.936641 
L 421.533478 190.92994 
L 421.939703 190.923339 
L 422.345927 190.916846 
L 422.752151 190.910442 
L 423.158376 190.904127 
L 423.5646 190.897924 
L 423.970825 190.8918 
L 424.377049 190.885776 
L 424.783273 190.879836 
L 425.189498 190.873996 
L 425.595722 190.86824 
L 426.001947 190.862574 
L 426.408171 190.857002 
L 426.814395 190.851496 
L 427.22062 190.846084 
L 427.626844 190.840756 
L 428.033069 190.835512 
L 428.439293 190.830338 
L 428.845518 190.825254 
L 429.251742 190.820242 
L 429.657966 190.815306 
L 430.064191 190.810454 
L 430.470415 190.805673 
L 430.87664 190.800964 
L 431.282864 190.796325 
L 431.689088 190.791759 
L 432.095313 190.787263 
L 432.501537 190.782839 
L 432.907762 190.778486 
L 433.313986 190.774193 
L 433.72021 190.769971 
L 434.126435 190.765821 
L 434.532659 190.76173 
L 434.938884 190.75771 
L 435.345108 190.753738 
L 435.751332 190.749837 
L 436.157557 190.745984 
L 436.563781 190.742208 
L 436.970006 190.738479 
L 437.37623 190.734828 
L 437.782454 190.731213 
L 438.188679 190.727663 
L 438.594903 190.724173 
L 439.001128 190.720724 
L 439.407352 190.71734 
L 439.813576 190.71401 
L 440.219801 190.710734 
L 440.626025 190.707499 
L 441.03225 190.704324 
L 441.438474 190.701196 
L 441.844699 190.698116 
L 442.250923 190.695089 
L 442.657147 190.692104 
L 443.063372 190.689172 
L 443.469596 190.686283 
L 443.875821 190.683446 
L 444.282045 190.680645 
L 444.688269 190.677898 
L 445.094494 190.675199 
L 445.500718 190.672517 
L 445.906943 190.669906 
L 446.313167 190.667326 
L 446.719391 190.664781 
L 447.125616 190.662283 
L 447.53184 190.659821 
L 447.938065 190.657395 
L 448.344289 190.655023 
L 448.750513 190.652674 
L 449.156738 190.650379 
L 449.562962 190.648107 
L 449.969187 190.645871 
L 450.375411 190.643671 
L 450.781635 190.641513 
L 451.18786 190.63939 
L 451.594084 190.637297 
L 452.000309 190.635239 
L 452.406533 190.633217 
L 452.812757 190.631231 
L 453.218982 190.629257 
L 453.625206 190.627337 
L 454.031431 190.62544 
L 454.437655 190.623573 
L 454.84388 190.621741 
L 455.250104 190.619927 
L 455.656328 190.618155 
L 456.062553 190.616401 
L 456.468777 190.614683 
L 456.875002 190.612988 
L 457.281226 190.611335 
L 457.68745 190.609694 
L 458.093675 190.608076 
L 458.499899 190.606495 
L 458.906124 190.604937 
L 459.312348 190.603403 
L 459.718572 190.601892 
L 460.124797 190.600406 
L 460.531021 190.598955 
L 460.937246 190.597516 
L 461.34347 190.5961 
L 461.749694 190.594715 
L 462.155919 190.593341 
L 462.562143 190.591997 
L 462.968368 190.590677 
L 463.374592 190.589375 
L 463.780816 190.588097 
L 464.187041 190.586836 
L 464.593265 190.585599 
L 464.99949 190.584386 
L 465.405714 190.583185 
L 465.811938 190.582008 
L 466.218163 190.580854 
L 466.624387 190.579718 
L 467.030612 190.578594 
L 467.436836 190.577488 
L 467.843061 190.576406 
L 468.249285 190.575348 
L 468.655509 190.574295 
L 469.061734 190.573267 
L 469.467958 190.57225 
L 469.874183 190.571251 
L 470.280407 190.57027 
L 470.686631 190.569306 
L 471.092856 190.568367 
L 471.49908 190.567427 
L 471.905305 190.566511 
L 472.311529 190.565608 
L 472.717753 190.564722 
L 473.123978 190.563848 
L 473.530202 190.562991 
L 473.936427 190.562147 
L 474.342651 190.561314 
L 474.748875 190.560494 
L 475.1551 190.559703 
L 475.561324 190.558912 
L 475.967549 190.558139 
L 476.373773 190.557378 
L 476.779997 190.556629 
L 477.186222 190.555885 
L 477.592446 190.55516 
L 477.998671 190.55444 
L 478.404895 190.553739 
L 478.811119 190.553061 
L 479.217344 190.552383 
L 479.623568 190.551717 
L 480.029793 190.551057 
L 480.436017 190.550421 
L 480.842242 190.549784 
L 481.248466 190.54916 
L 481.248466 21.71407 
L 481.248466 21.71407 
L 480.842242 21.714701 
L 480.436017 21.715331 
L 480.029793 21.715985 
L 479.623568 21.716639 
L 479.217344 21.717305 
L 478.811119 21.717983 
L 478.404895 21.718685 
L 477.998671 21.719386 
L 477.592446 21.7201 
L 477.186222 21.720837 
L 476.779997 21.721575 
L 476.373773 21.722324 
L 475.967549 21.723097 
L 475.561324 21.72387 
L 475.1551 21.724667 
L 474.748875 21.725476 
L 474.342651 21.726296 
L 473.936427 21.727129 
L 473.530202 21.727973 
L 473.123978 21.728841 
L 472.717753 21.729709 
L 472.311529 21.730601 
L 471.905305 21.731517 
L 471.49908 21.732433 
L 471.092856 21.733372 
L 470.686631 21.734336 
L 470.280407 21.735299 
L 469.874183 21.736298 
L 469.467958 21.737297 
L 469.061734 21.738308 
L 468.655509 21.739342 
L 468.249285 21.740401 
L 467.843061 21.741483 
L 467.436836 21.742577 
L 467.030612 21.743683 
L 466.624387 21.744813 
L 466.218163 21.745967 
L 465.811938 21.747132 
L 465.405714 21.748309 
L 464.99949 21.749522 
L 464.593265 21.750759 
L 464.187041 21.751996 
L 463.780816 21.753269 
L 463.374592 21.754565 
L 462.968368 21.755861 
L 462.562143 21.757205 
L 462.155919 21.758561 
L 461.749694 21.75994 
L 461.34347 21.761344 
L 460.937246 21.762771 
L 460.531021 21.764222 
L 460.124797 21.765697 
L 459.718572 21.767195 
L 459.312348 21.768717 
L 458.906124 21.770275 
L 458.499899 21.771845 
L 458.093675 21.773451 
L 457.68745 21.77508 
L 457.281226 21.776733 
L 456.875002 21.778422 
L 456.468777 21.780134 
L 456.062553 21.781871 
L 455.656328 21.783631 
L 455.250104 21.785438 
L 454.84388 21.78727 
L 454.437655 21.789137 
L 454.031431 21.791016 
L 453.625206 21.792955 
L 453.218982 21.794905 
L 452.812757 21.796891 
L 452.406533 21.798913 
L 452.000309 21.80097 
L 451.594084 21.803063 
L 451.18786 21.80518 
L 450.781635 21.807345 
L 450.375411 21.809533 
L 449.969187 21.811769 
L 449.562962 21.814028 
L 449.156738 21.816336 
L 448.750513 21.818678 
L 448.344289 21.821069 
L 447.938065 21.823483 
L 447.53184 21.825945 
L 447.125616 21.828454 
L 446.719391 21.830999 
L 446.313167 21.83358 
L 445.906943 21.836208 
L 445.500718 21.838884 
L 445.094494 21.841596 
L 444.688269 21.844367 
L 444.282045 21.847161 
L 443.875821 21.850016 
L 443.469596 21.852917 
L 443.063372 21.855867 
L 442.657147 21.858864 
L 442.250923 21.861908 
L 441.844699 21.865012 
L 441.438474 21.868152 
L 441.03225 21.871363 
L 440.626025 21.87461 
L 440.219801 21.877916 
L 439.813576 21.881269 
L 439.407352 21.884695 
L 439.001128 21.888155 
L 438.594903 21.891687 
L 438.188679 21.895279 
L 437.782454 21.898918 
L 437.37623 21.902617 
L 436.970006 21.906387 
L 436.563781 21.910216 
L 436.157557 21.914105 
L 435.751332 21.918054 
L 435.345108 21.922073 
L 434.938884 21.926152 
L 434.532659 21.930303 
L 434.126435 21.934513 
L 433.72021 21.938806 
L 433.313986 21.943159 
L 432.907762 21.947583 
L 432.501537 21.95209 
L 432.095313 21.956657 
L 431.689088 21.961307 
L 431.282864 21.966029 
L 430.87664 21.970833 
L 430.470415 21.975709 
L 430.064191 21.980668 
L 429.657966 21.985699 
L 429.251742 21.990813 
L 428.845518 21.99601 
L 428.439293 22.001302 
L 428.033069 22.006678 
L 427.626844 22.012136 
L 427.22062 22.017678 
L 426.814395 22.023316 
L 426.408171 22.029048 
L 426.001947 22.034875 
L 425.595722 22.040786 
L 425.189498 22.046804 
L 424.783273 22.052904 
L 424.377049 22.059112 
L 423.970825 22.065416 
L 423.5646 22.071826 
L 423.158376 22.078331 
L 422.752151 22.084943 
L 422.345927 22.091675 
L 421.939703 22.098501 
L 421.533478 22.105446 
L 421.127254 22.112511 
L 420.721029 22.11967 
L 420.314805 22.126948 
L 419.908581 22.134345 
L 419.502356 22.141862 
L 419.096132 22.149509 
L 418.689907 22.157263 
L 418.283683 22.165159 
L 417.877459 22.173163 
L 417.471234 22.18131 
L 417.06501 22.189575 
L 416.658785 22.197995 
L 416.252561 22.206522 
L 415.846337 22.215204 
L 415.440112 22.224016 
L 415.033888 22.232971 
L 414.627663 22.242069 
L 414.221439 22.251322 
L 413.815214 22.260705 
L 413.40899 22.270243 
L 413.002766 22.279936 
L 412.596541 22.289783 
L 412.190317 22.299784 
L 411.784092 22.309953 
L 411.377868 22.320275 
L 410.971644 22.330765 
L 410.565419 22.341421 
L 410.159195 22.352267 
L 409.75297 22.363256 
L 409.346746 22.374447 
L 408.940522 22.385792 
L 408.534297 22.397316 
L 408.128073 22.409042 
L 407.721848 22.420947 
L 407.315624 22.433042 
L 406.9094 22.445315 
L 406.503175 22.45779 
L 406.096951 22.47048 
L 405.690726 22.48336 
L 405.284502 22.496442 
L 404.878278 22.509726 
L 404.472053 22.523236 
L 404.065829 22.536936 
L 403.659604 22.550874 
L 403.25338 22.565027 
L 402.847156 22.579393 
L 402.440931 22.593997 
L 402.034707 22.608827 
L 401.628482 22.623895 
L 401.222258 22.639201 
L 400.816033 22.654745 
L 400.409809 22.670538 
L 400.003585 22.686582 
L 399.59736 22.702886 
L 399.191136 22.719429 
L 398.784911 22.736245 
L 398.378687 22.753323 
L 397.972463 22.770663 
L 397.566238 22.788288 
L 397.160014 22.806186 
L 396.753789 22.82437 
L 396.347565 22.842839 
L 395.941341 22.861582 
L 395.535116 22.880634 
L 395.128892 22.899995 
L 394.722667 22.919642 
L 394.316443 22.93961 
L 393.910219 22.959887 
L 393.503994 22.980485 
L 393.09777 23.001392 
L 392.691545 23.022656 
L 392.285321 23.04423 
L 391.879097 23.06616 
L 391.472872 23.088423 
L 391.066648 23.111031 
L 390.660423 23.133996 
L 390.254199 23.157329 
L 389.847975 23.181019 
L 389.44175 23.20509 
L 389.035526 23.229541 
L 388.629301 23.254361 
L 388.223077 23.279574 
L 387.816852 23.305179 
L 387.410628 23.3312 
L 387.004404 23.357613 
L 386.598179 23.384443 
L 386.191955 23.411701 
L 385.78573 23.439376 
L 385.379506 23.467478 
L 384.973282 23.496032 
L 384.567057 23.525038 
L 384.160833 23.554485 
L 383.754608 23.584395 
L 383.348384 23.614769 
L 382.94216 23.645618 
L 382.535935 23.676955 
L 382.129711 23.70878 
L 381.723486 23.741093 
L 381.317262 23.773928 
L 380.911038 23.807263 
L 380.504813 23.841122 
L 380.098589 23.875515 
L 379.692364 23.910444 
L 379.28614 23.945896 
L 378.879916 23.981931 
L 378.473691 24.018501 
L 378.067467 24.055666 
L 377.661242 24.093401 
L 377.255018 24.131719 
L 376.848794 24.170644 
L 376.442569 24.210175 
L 376.036345 24.250313 
L 375.63012 24.291081 
L 375.223896 24.332491 
L 374.817671 24.374532 
L 374.411447 24.417238 
L 374.005223 24.460611 
L 373.598998 24.504649 
L 373.192774 24.54939 
L 372.786549 24.594808 
L 372.380325 24.640951 
L 371.974101 24.687797 
L 371.567876 24.735379 
L 371.161652 24.783711 
L 370.755427 24.832792 
L 370.349203 24.882634 
L 369.942979 24.933237 
L 369.536754 24.984638 
L 369.13053 25.036846 
L 368.724305 25.089864 
L 368.318081 25.143702 
L 367.911857 25.198373 
L 367.505632 25.253911 
L 367.099408 25.310306 
L 366.693183 25.36757 
L 366.286959 25.425737 
L 365.880735 25.484796 
L 365.47451 25.54477 
L 365.068286 25.605685 
L 364.662061 25.667538 
L 364.255837 25.730367 
L 363.849613 25.794172 
L 363.443388 25.858951 
L 363.037164 25.924753 
L 362.630939 25.991566 
L 362.224715 26.059426 
L 361.81849 26.128332 
L 361.412266 26.198308 
L 361.006042 26.269367 
L 360.599817 26.341543 
L 360.193593 26.414826 
L 359.787368 26.489239 
L 359.381144 26.564828 
L 358.97492 26.641572 
L 358.568695 26.719516 
L 358.162471 26.79865 
L 357.756246 26.879033 
L 357.350022 26.960652 
L 356.943798 27.043544 
L 356.537573 27.127708 
L 356.131349 27.213181 
L 355.725124 27.299974 
L 355.3189 27.388122 
L 354.912676 27.477614 
L 354.506451 27.568498 
L 354.100227 27.660797 
L 353.694002 27.754523 
L 353.287778 27.8497 
L 352.881554 27.946328 
L 352.475329 28.044455 
L 352.069105 28.144103 
L 351.66288 28.245286 
L 351.256656 28.348027 
L 350.850432 28.452361 
L 350.444207 28.558301 
L 350.037983 28.665882 
L 349.631758 28.775105 
L 349.225534 28.886016 
L 348.819309 28.998639 
L 348.413085 29.112987 
L 348.006861 29.229095 
L 347.600636 29.346987 
L 347.194412 29.466687 
L 346.788187 29.58823 
L 346.381963 29.71164 
L 345.975739 29.836941 
L 345.569514 29.964169 
L 345.16329 30.093324 
L 344.757065 30.224464 
L 344.350841 30.357626 
L 343.944617 30.49281 
L 343.538392 30.630064 
L 343.132168 30.76941 
L 342.725943 30.910885 
L 342.319719 31.054513 
L 341.913495 31.200341 
L 341.50727 31.348369 
L 341.101046 31.498656 
L 340.694821 31.651216 
L 340.288597 31.806106 
L 339.882373 31.963339 
L 339.476148 32.122962 
L 339.069924 32.284988 
L 338.663699 32.449475 
L 338.257475 32.616448 
L 337.851251 32.785931 
L 337.445026 32.95797 
L 337.038802 33.132602 
L 336.632577 33.30985 
L 336.226353 33.489763 
L 335.820128 33.672387 
L 335.413904 33.857746 
L 335.00768 34.045864 
L 334.601455 34.236801 
L 334.195231 34.430592 
L 333.789006 34.627261 
L 333.382782 34.826867 
L 332.976558 35.029423 
L 332.570333 35.234988 
L 332.164109 35.443609 
L 331.757884 35.655311 
L 331.35166 35.87014 
L 330.945436 36.088132 
L 330.539211 36.309324 
L 330.132987 36.533786 
L 329.726762 36.761519 
L 329.320538 36.992594 
L 328.914314 37.227046 
L 328.508089 37.464905 
L 328.101865 37.706225 
L 327.69564 37.951071 
L 327.289416 38.19945 
L 326.883192 38.451414 
L 326.476967 38.707023 
L 326.070743 38.966313 
L 325.664518 39.229313 
L 325.258294 39.496084 
L 324.85207 39.766677 
L 324.445845 40.041131 
L 324.039621 40.319473 
L 323.633396 40.601769 
L 323.227172 40.888073 
L 322.820947 41.178403 
L 322.414723 41.472812 
L 322.008499 41.771353 
L 321.602274 42.074081 
L 321.19605 42.381031 
L 320.789825 42.692226 
L 320.383601 43.007757 
L 319.977377 43.32764 
L 319.571152 43.651935 
L 319.164928 43.980672 
L 318.758703 44.313911 
L 318.352479 44.651692 
L 317.946255 44.994058 
L 317.54003 45.341063 
L 317.133806 45.692741 
L 316.727581 46.04914 
L 316.321357 46.410309 
L 315.915133 46.7763 
L 315.508908 47.147131 
L 315.102684 47.522874 
L 314.696459 47.903564 
L 314.290235 48.289225 
L 313.884011 48.679935 
L 313.477786 49.075705 
L 313.071562 49.476589 
L 312.665337 49.882635 
L 312.259113 50.293871 
L 311.852889 50.710341 
L 311.446664 51.132091 
L 311.04044 51.55915 
L 310.634215 51.99158 
L 310.227991 52.429373 
L 309.821766 52.8726 
L 309.415542 53.321293 
L 309.009318 53.775468 
L 308.603093 54.235179 
L 308.196869 54.700444 
L 307.790644 55.171311 
L 307.38442 55.647802 
L 306.978196 56.129931 
L 306.571971 56.617756 
L 306.165747 57.111278 
L 305.759522 57.610533 
L 305.353298 58.115531 
L 304.947074 58.626309 
L 304.540849 59.142897 
L 304.134625 59.665276 
L 303.7284 60.193507 
L 303.322176 60.727583 
L 302.915952 61.267534 
L 302.509727 61.813342 
L 302.103503 62.365031 
L 301.697278 62.922613 
L 301.291054 63.486105 
L 300.88483 64.055467 
L 300.478605 64.630751 
L 300.072381 65.21191 
L 299.666156 65.798974 
L 299.259932 66.391936 
L 298.853708 66.99075 
L 298.447483 67.595474 
L 298.041259 68.206008 
L 297.635034 68.822387 
L 297.22881 69.44457 
L 296.822585 70.072515 
L 296.416361 70.706228 
L 296.010137 71.345637 
L 295.603912 71.990767 
L 295.197688 72.641522 
L 294.791463 73.297902 
L 294.385239 73.959836 
L 293.979015 74.627264 
L 293.57279 75.30014 
L 293.166566 75.97842 
L 292.760341 76.662011 
L 292.354117 77.350888 
L 291.947893 78.044908 
L 291.541668 78.744084 
L 291.135444 79.448249 
L 290.729219 80.157343 
L 290.322995 80.871296 
L 289.916771 81.589994 
L 289.510546 82.313312 
L 289.104322 83.041131 
L 288.698097 83.773369 
L 288.291873 84.509894 
L 287.885649 85.250551 
L 287.479424 85.995222 
L 287.0732 86.743723 
L 286.666975 87.495955 
L 286.260751 88.251743 
L 285.854527 89.01087 
L 285.448302 89.773235 
L 285.042078 90.538614 
L 284.635853 91.306794 
L 284.229629 92.077594 
L 283.823404 92.850823 
L 283.41718 93.626177 
L 283.010956 94.403535 
L 282.604731 95.18255 
L 282.198507 95.963009 
L 281.792282 96.744658 
L 281.386058 97.527195 
L 280.979834 98.310327 
L 280.573609 99.093745 
L 280.167385 99.8771 
L 279.76116 100.66012 
L 279.354936 101.442348 
L 278.948712 102.223473 
L 278.542487 103.003112 
L 278.136263 103.780818 
L 277.730038 104.556155 
L 277.323814 105.328634 
L 276.91759 106.097784 
L 276.511365 106.863121 
L 276.105141 107.624035 
L 275.698916 108.379969 
L 275.292692 109.130245 
L 274.886468 109.874214 
L 274.480243 110.611203 
L 274.074019 111.340378 
L 273.667794 112.060927 
L 273.26157 112.771924 
L 272.855346 113.472417 
L 272.449121 114.161163 
L 272.042897 114.837174 
L 271.636672 115.499127 
L 271.230448 116.14543 
L 270.824223 116.774687 
L 270.417999 117.384935 
L 270.011775 117.974196 
L 269.60555 118.540446 
L 269.199326 119.081056 
L 268.793101 119.593187 
L 268.386877 120.073782 
L 267.980653 120.519395 
L 267.574428 120.926113 
L 267.168204 121.289773 
L 266.761979 121.605932 
L 266.355755 121.869482 
L 265.949531 122.075832 
L 265.543306 122.220023 
L 265.137082 122.297572 
L 264.730857 122.304675 
L 264.324633 122.23882 
L 263.918409 122.0984 
L 263.512184 121.883624 
L 263.10596 121.59612 
L 262.699735 121.239348 
L 262.293511 120.817809 
L 261.887287 120.336641 
L 261.481062 119.802083 
L 261.074838 119.220112 
L 260.668613 118.59677 
L 260.262389 117.93786 
L 259.856165 117.248671 
L 259.44994 116.534318 
L 259.043716 115.799032 
L 258.637491 115.046852 
L 258.231267 114.281419 
L 257.825042 113.505632 
L 257.418818 112.722492 
L 257.012594 111.934387 
L 256.606369 111.143578 
L 256.200145 110.351892 
L 255.79392 109.561247 
L 255.387696 108.773155 
L 254.981472 107.989104 
L 254.575247 107.210245 
L 254.169023 106.437959 
L 253.762798 105.673224 
L 253.356574 104.916996 
L 252.95035 104.170259 
L 252.544125 103.433799 
L 252.137901 102.708388 
L 251.731676 101.994828 
L 251.325452 101.293707 
L 250.919228 100.605776 
L 250.513003 99.931471 
L 250.106779 99.271448 
L 249.700554 98.626206 
L 249.29433 97.996183 
L 248.888106 97.381876 
L 248.481881 96.783728 
L 248.075657 96.202058 
L 247.669432 95.637266 
L 247.263208 95.089787 
L 246.856984 94.559847 
L 246.450759 94.047775 
L 246.044535 93.553849 
L 245.63831 93.0783 
L 245.232086 92.621461 
L 244.825861 92.183409 
L 244.419637 91.764362 
L 244.013413 91.364584 
L 243.607188 90.984093 
L 243.200964 90.623082 
L 242.794739 90.281611 
L 242.388515 89.959816 
L 241.982291 89.657623 
L 241.576066 89.375181 
L 241.169842 89.112404 
L 240.763617 88.869276 
L 240.357393 88.645777 
L 239.951169 88.441755 
L 239.544944 88.257071 
L 239.13872 88.091567 
L 238.732495 87.945049 
L 238.326271 87.817274 
L 237.920047 87.707903 
L 237.513822 87.616523 
L 237.107598 87.542857 
L 236.701373 87.486298 
L 236.295149 87.446303 
L 235.888925 87.422343 
L 235.4827 87.413551 
L 235.076476 87.419114 
L 234.670251 87.438062 
L 234.264027 87.469322 
L 233.857803 87.511645 
L 233.451578 87.563479 
L 233.045354 87.623228 
L 232.639129 87.688964 
L 232.232905 87.758581 
L 231.82668 87.829423 
L 231.420456 87.898837 
L 231.014232 87.963227 
L 230.608007 88.019242 
L 230.201783 88.062248 
L 229.795558 88.088005 
L 229.389334 88.091139 
L 228.98311 88.066134 
L 228.576885 88.007108 
L 228.170661 87.908018 
L 227.764436 87.763323 
L 227.358212 87.567516 
L 226.951988 87.316581 
L 226.545763 87.006929 
L 226.139539 86.637248 
L 225.733314 86.207156 
L 225.32709 85.718474 
L 224.920866 85.173772 
L 224.514641 84.576974 
L 224.108417 83.932124 
L 223.702192 83.244549 
L 223.295968 82.518865 
L 222.889744 81.75997 
L 222.483519 80.972146 
L 222.077295 80.159781 
L 221.67107 79.326504 
L 221.264846 78.475803 
L 220.858622 77.610778 
L 220.452397 76.733837 
L 220.046173 75.847619 
L 219.639948 74.954134 
L 219.233724 74.055227 
L 218.827499 73.152579 
L 218.421275 72.24769 
L 218.015051 71.34179 
L 217.608826 70.436038 
L 217.202602 69.531553 
L 216.796377 68.629197 
L 216.390153 67.729695 
L 215.983929 66.833987 
L 215.577704 65.942631 
L 215.17148 65.056211 
L 214.765255 64.175369 
L 214.359031 63.300514 
L 213.952807 62.432141 
L 213.546582 61.570589 
L 213.140358 60.716297 
L 212.734133 59.869545 
L 212.327909 59.030696 
L 211.921685 58.199981 
L 211.51546 57.377627 
L 211.109236 56.563912 
L 210.703011 55.758975 
L 210.296787 54.963082 
L 209.890563 54.17631 
L 209.484338 53.398851 
L 209.078114 52.630852 
L 208.671889 51.872368 
L 208.265665 51.123546 
L 207.859441 50.384476 
L 207.453216 49.655205 
L 207.046992 48.935818 
L 206.640767 48.226385 
L 206.234543 47.526905 
L 205.828318 46.837464 
L 205.422094 46.158071 
L 205.01587 45.488722 
L 204.609645 44.82944 
L 204.203421 44.180249 
L 203.797196 43.541113 
L 203.390972 42.912021 
L 202.984748 42.292978 
L 202.578523 41.683972 
L 202.172299 41.084944 
L 201.766074 40.495853 
L 201.35985 39.916698 
L 200.953626 39.347401 
L 200.547401 38.787917 
L 200.141177 38.238232 
L 199.734952 37.698239 
L 199.328728 37.167909 
L 198.922504 36.647183 
L 198.516279 36.135977 
L 198.110055 35.634225 
L 197.70383 35.141857 
L 197.297606 34.658824 
L 196.891382 34.18502 
L 196.485157 33.720362 
L 196.078933 33.264789 
L 195.672708 32.818196 
L 195.266484 32.380522 
L 194.86026 31.951636 
L 194.454035 31.531504 
L 194.047811 31.120018 
L 193.641586 30.71707 
L 193.235362 30.322579 
L 192.829137 29.936459 
L 192.422913 29.558594 
L 192.016689 29.188922 
L 191.610464 28.827301 
L 191.20424 28.473673 
L 190.798015 28.127929 
L 190.391791 27.789975 
L 189.985567 27.459716 
L 189.579342 27.137008 
L 189.173118 26.821817 
L 188.766893 26.514011 
L 188.360669 26.213507 
L 187.954445 25.920174 
L 187.54822 25.633953 
L 187.141996 25.354714 
L 186.735771 25.082395 
L 186.329547 24.816856 
L 185.923323 24.558024 
L 185.517098 24.305792 
L 185.110874 24.060078 
L 184.704649 23.82075 
L 184.298425 23.587772 
L 183.892201 23.360991 
L 183.485976 23.140358 
L 183.079752 22.925731 
L 182.673527 22.717062 
L 182.267303 22.514221 
L 181.861079 22.317148 
L 181.454854 22.125735 
L 181.04863 21.939888 
L 180.642405 21.759536 
L 180.236181 21.584583 
L 179.829956 21.414934 
L 179.423732 21.250506 
L 179.017508 21.091216 
L 178.611283 20.936992 
L 178.205059 20.787739 
L 177.798834 20.643362 
L 177.39261 20.503813 
L 176.986386 20.368974 
L 176.580161 20.238797 
L 176.173937 20.113186 
L 175.767712 19.992083 
L 175.361488 19.875404 
L 174.955264 19.76309 
L 174.549039 19.655033 
L 174.142815 19.551187 
L 173.73659 19.451478 
L 173.330366 19.355849 
L 172.924142 19.264216 
L 172.517917 19.176532 
L 172.111693 19.092712 
L 171.705468 19.012698 
L 171.299244 18.936443 
L 170.89302 18.863862 
L 170.486795 18.794932 
L 170.080571 18.729546 
L 169.674346 18.667704 
L 169.268122 18.609299 
L 168.861898 18.554319 
L 168.455673 18.502681 
L 168.049449 18.454361 
L 167.643224 18.4093 
L 167.237 18.367438 
L 166.830775 18.328739 
L 166.424551 18.29318 
L 166.018327 18.260665 
L 165.612102 18.231195 
L 165.205878 18.204722 
L 164.799653 18.181199 
L 164.393429 18.160601 
L 163.987205 18.14288 
L 163.58098 18.127991 
L 163.174756 18.11592 
L 162.768531 18.106632 
L 162.362307 18.100079 
L 161.956083 18.096261 
L 161.549858 18.095143 
L 161.143634 18.096689 
L 160.737409 18.100864 
L 160.331185 18.107666 
L 159.924961 18.117073 
L 159.518736 18.129049 
L 159.112512 18.143582 
L 158.706287 18.16066 
L 158.300063 18.180271 
L 157.893839 18.20238 
L 157.487614 18.226985 
L 157.08139 18.254077 
L 156.675165 18.283666 
L 156.268941 18.315705 
L 155.862717 18.350193 
L 155.456492 18.387156 
L 155.050268 18.426544 
L 154.644043 18.468395 
L 154.237819 18.512695 
L 153.831594 18.559433 
L 153.42537 18.608609 
L 153.019146 18.660247 
L 152.612921 18.714323 
L 152.206697 18.770861 
L 151.800472 18.82986 
L 151.394248 18.891334 
L 150.988024 18.955292 
L 150.581799 19.021725 
L 150.175575 19.09069 
L 149.76935 19.162154 
L 149.363126 19.23615 
L 148.956902 19.312703 
L 148.550677 19.391825 
L 148.144453 19.473527 
L 147.738228 19.557835 
L 147.332004 19.644782 
L 146.92578 19.734369 
L 146.519555 19.826644 
L 146.113331 19.921596 
L 145.707106 20.019306 
L 145.300882 20.119751 
L 144.894658 20.223003 
L 144.488433 20.329062 
L 144.082209 20.437963 
L 143.675984 20.549766 
L 143.26976 20.664471 
L 142.863536 20.782137 
L 142.457311 20.9028 
L 142.051087 21.026496 
L 141.644862 21.153248 
L 141.238638 21.283128 
L 140.832413 21.416171 
L 140.426189 21.55239 
L 140.019965 21.691843 
L 139.61374 21.834626 
L 139.207516 21.980704 
L 138.801291 22.130207 
L 138.395067 22.283123 
L 137.988843 22.439511 
L 137.582618 22.599468 
L 137.176394 22.762992 
L 136.770169 22.930155 
L 136.363945 23.101029 
L 135.957721 23.275661 
L 135.551496 23.454111 
L 135.145272 23.636425 
L 134.739047 23.822676 
L 134.332823 24.012911 
L 133.926599 24.207202 
L 133.520374 24.405631 
L 133.11415 24.608223 
L 132.707925 24.815024 
L 132.301701 25.026179 
L 131.895477 25.241686 
L 131.489252 25.461652 
L 131.083028 25.686127 
L 130.676803 25.915168 
L 130.270579 26.148882 
L 129.864355 26.387295 
L 129.45813 26.630488 
L 129.051906 26.878545 
L 128.645681 27.131562 
L 128.239457 27.389561 
L 127.833232 27.652651 
L 127.427008 27.920902 
L 127.020784 28.194362 
L 126.614559 28.473126 
L 126.208335 28.757313 
L 125.80211 29.0469 
L 125.395886 29.342088 
L 124.989662 29.642841 
L 124.583437 29.949292 
L 124.177213 30.261462 
L 123.770988 30.579532 
L 123.364764 30.903524 
L 122.95854 31.233509 
L 122.552315 31.569561 
L 122.146091 31.91182 
L 121.739866 32.260239 
L 121.333642 32.615021 
L 120.927418 32.976166 
L 120.521193 33.343792 
L 120.114969 33.717959 
L 119.708744 34.098715 
L 119.30252 34.486214 
L 118.896296 34.88042 
L 118.490071 35.281524 
L 118.083847 35.689562 
L 117.677622 36.104544 
L 117.271398 36.526675 
L 116.865174 36.955899 
L 116.458949 37.392366 
L 116.052725 37.836105 
L 115.6465 38.287146 
L 115.240276 38.745638 
L 114.834051 39.211682 
L 114.427827 39.685153 
L 114.021603 40.16617 
L 113.615378 40.655012 
L 113.209154 41.151531 
L 112.802929 41.655935 
L 112.396705 42.167938 
L 111.990481 42.687862 
L 111.584256 43.215997 
L 111.178032 43.751875 
L 110.771807 44.295905 
L 110.365583 44.847814 
L 109.959359 45.407947 
L 109.553134 45.976345 
L 109.14691 46.552848 
L 108.740685 47.137468 
L 108.334461 47.730222 
L 107.928237 48.331563 
L 107.522012 48.940843 
L 107.115788 49.558399 
L 106.709563 50.18437 
L 106.303339 50.818641 
L 105.897115 51.461083 
L 105.49089 52.11147 
L 105.084666 52.770264 
L 104.678441 53.437579 
L 104.272217 54.112601 
L 103.865993 54.795936 
L 103.459768 55.487186 
L 103.053544 56.186629 
L 102.647319 56.893851 
L 102.241095 57.609165 
L 101.83487 58.331633 
L 101.428646 59.062187 
L 101.022422 59.800062 
L 100.616197 60.545596 
L 100.209973 61.297724 
L 99.803748 62.057606 
L 99.397524 62.823696 
L 98.9913 63.596945 
L 98.585075 64.376093 
L 98.178851 65.161996 
L 97.772626 65.952978 
L 97.366402 66.750114 
L 96.960178 67.551757 
L 96.553953 68.358865 
L 96.147729 69.169338 
L 95.741504 69.984616 
L 95.33528 70.802041 
L 94.929056 71.622451 
L 94.522831 72.444282 
L 94.116607 73.267528 
L 93.710382 74.090364 
L 93.304158 74.912147 
L 92.897934 75.731082 
L 92.491709 76.547193 
L 92.085485 77.356263 
L 91.67926 78.158899 
L 91.273036 78.950523 
L 90.866812 79.730182 
L 90.460587 80.493371 
L 90.054363 81.237715 
L 89.648138 81.955693 
L 89.241914 82.646479 
L 88.835689 83.300005 
L 88.429465 83.91168 
L 88.023241 84.470386 
L 87.617016 84.97096 
L 87.210792 85.398585 
L 86.804567 85.748461 
L 86.398343 86.008405 
L 85.992119 86.171394 
L 85.585894 86.231548 
L 85.17967 86.189138 
L 84.773445 86.042609 
L 84.367221 85.801669 
L 83.960997 85.469531 
L 83.554772 85.059644 
L 83.148548 84.576772 
L 82.742323 84.035697 
L 82.336099 83.441748 
L 81.929875 82.80587 
L 81.52365 82.133417 
L 81.117426 81.432416 
L 80.711201 80.705732 
L 80.304977 79.960205 
L 79.898753 79.198212 
L 79.492528 78.424254 
L 79.086304 77.639267 
L 78.680079 76.847887 
L 78.273855 76.049984 
L 77.867631 75.24874 
L 77.461406 74.444236 
L 77.055182 73.639644 
L 76.648957 72.834171 
L 76.242733 72.030155 
L 75.836508 71.227186 
L 75.430284 70.427648 
z
" style="fill:#1f77b4;fill-opacity:0.4;"/>
   </g>
   <g id="PathCollection_1">
    <defs>
     <path d="M 0 3 
C 0.795609 3 1.55874 2.683901 2.12132 2.12132 
C 2.683901 1.55874 3 0.795609 3 0 
C 3 -0.795609 2.683901 -1.55874 2.12132 -2.12132 
C 1.55874 -2.683901 0.795609 -3 0 -3 
C -0.795609 -3 -1.55874 -2.683901 -2.12132 -2.12132 
C -2.683901 -1.55874 -3 -0.795609 -3 0 
C -3 0.795609 -2.683901 1.55874 -2.12132 2.12132 
C -1.55874 2.683901 -0.795609 3 0 3 
z
" id="m7cfa301cd7" style="stroke:#000000;"/>
    </defs>
    <g clip-path="url(#p678e5d941a)">
     <use style="stroke:#000000;" x="85.585894" xlink:href="#m7cfa301cd7" y="88.617101"/>
     <use style="stroke:#000000;" x="263.918409" xlink:href="#m7cfa301cd7" y="115.207385"/>
     <use style="stroke:#000000;" x="226.545763" xlink:href="#m7cfa301cd7" y="112.672238"/>
    </g>
   </g>
   <g id="PathCollection_2">
    <defs>
     <path d="M 0 3 
C 0.795609 3 1.55874 2.683901 2.12132 2.12132 
C 2.683901 1.55874 3 0.795609 3 0 
C 3 -0.795609 2.683901 -1.55874 2.12132 -2.12132 
C 1.55874 -2.683901 0.795609 -3 0 -3 
C -0.795609 -3 -1.55874 -2.683901 -2.12132 -2.12132 
C -2.683901 -1.55874 -3 -0.795609 -3 0 
C -3 0.795609 -2.683901 1.55874 -2.12132 2.12132 
C -1.55874 2.683901 -0.795609 3 0 3 
z
" id="m8c52e0846c" style="stroke:#ff0000;"/>
    </defs>
    <g clip-path="url(#p678e5d941a)">
     <use style="fill:#ff0000;stroke:#ff0000;" x="176.580161" xlink:href="#m8c52e0846c" y="77.956162"/>
     <use style="fill:#ff0000;stroke:#ff0000;" x="142.051087" xlink:href="#m8c52e0846c" y="76.93603"/>
     <use style="fill:#ff0000;stroke:#ff0000;" x="149.363126" xlink:href="#m8c52e0846c" y="75.944643"/>
    </g>
   </g>
   <g id="matplotlib.axis_1">
    <g id="xtick_1">
     <g id="line2d_1">
      <defs>
       <path d="M 0 0 
L 0 3.5 
" id="m42719ec6f7" style="stroke:#000000;stroke-width:0.8;"/>
      </defs>
      <g>
       <use style="stroke:#000000;stroke-width:0.8;" x="75.430284" xlink:href="#m42719ec6f7" y="206.782747"/>
      </g>
     </g>
     <g id="text_1">
      <!-- 0 -->
      <g transform="translate(71.612784 222.900872)scale(0.12 -0.12)">
       <defs>
        <path d="M 31.78125 66.40625 
Q 24.171875 66.40625 20.328125 58.90625 
Q 16.5 51.421875 16.5 36.375 
Q 16.5 21.390625 20.328125 13.890625 
Q 24.171875 6.390625 31.78125 6.390625 
Q 39.453125 6.390625 43.28125 13.890625 
Q 47.125 21.390625 47.125 36.375 
Q 47.125 51.421875 43.28125 58.90625 
Q 39.453125 66.40625 31.78125 66.40625 
z
M 31.78125 74.21875 
Q 44.046875 74.21875 50.515625 64.515625 
Q 56.984375 54.828125 56.984375 36.375 
Q 56.984375 17.96875 50.515625 8.265625 
Q 44.046875 -1.421875 31.78125 -1.421875 
Q 19.53125 -1.421875 13.0625 8.265625 
Q 6.59375 17.96875 6.59375 36.375 
Q 6.59375 54.828125 13.0625 64.515625 
Q 19.53125 74.21875 31.78125 74.21875 
z
" id="DejaVuSans-48"/>
       </defs>
       <use xlink:href="#DejaVuSans-48"/>
      </g>
     </g>
    </g>
    <g id="xtick_2">
     <g id="line2d_2">
      <g>
       <use style="stroke:#000000;stroke-width:0.8;" x="156.59392" xlink:href="#m42719ec6f7" y="206.782747"/>
      </g>
     </g>
     <g id="text_2">
      <!-- 2 -->
      <g transform="translate(152.77642 222.900872)scale(0.12 -0.12)">
       <defs>
        <path d="M 19.1875 8.296875 
L 53.609375 8.296875 
L 53.609375 0 
L 7.328125 0 
L 7.328125 8.296875 
Q 12.9375 14.109375 22.625 23.890625 
Q 32.328125 33.6875 34.8125 36.53125 
Q 39.546875 41.84375 41.421875 45.53125 
Q 43.3125 49.21875 43.3125 52.78125 
Q 43.3125 58.59375 39.234375 62.25 
Q 35.15625 65.921875 28.609375 65.921875 
Q 23.96875 65.921875 18.8125 64.3125 
Q 13.671875 62.703125 7.8125 59.421875 
L 7.8125 69.390625 
Q 13.765625 71.78125 18.9375 73 
Q 24.125 74.21875 28.421875 74.21875 
Q 39.75 74.21875 46.484375 68.546875 
Q 53.21875 62.890625 53.21875 53.421875 
Q 53.21875 48.921875 51.53125 44.890625 
Q 49.859375 40.875 45.40625 35.40625 
Q 44.1875 33.984375 37.640625 27.21875 
Q 31.109375 20.453125 19.1875 8.296875 
z
" id="DejaVuSans-50"/>
       </defs>
       <use xlink:href="#DejaVuSans-50"/>
      </g>
     </g>
    </g>
    <g id="xtick_3">
     <g id="line2d_3">
      <g>
       <use style="stroke:#000000;stroke-width:0.8;" x="237.757557" xlink:href="#m42719ec6f7" y="206.782747"/>
      </g>
     </g>
     <g id="text_3">
      <!-- 4 -->
      <g transform="translate(233.940057 222.900872)scale(0.12 -0.12)">
       <defs>
        <path d="M 37.796875 64.3125 
L 12.890625 25.390625 
L 37.796875 25.390625 
z
M 35.203125 72.90625 
L 47.609375 72.90625 
L 47.609375 25.390625 
L 58.015625 25.390625 
L 58.015625 17.1875 
L 47.609375 17.1875 
L 47.609375 0 
L 37.796875 0 
L 37.796875 17.1875 
L 4.890625 17.1875 
L 4.890625 26.703125 
z
" id="DejaVuSans-52"/>
       </defs>
       <use xlink:href="#DejaVuSans-52"/>
      </g>
     </g>
    </g>
    <g id="xtick_4">
     <g id="line2d_4">
      <g>
       <use style="stroke:#000000;stroke-width:0.8;" x="318.921193" xlink:href="#m42719ec6f7" y="206.782747"/>
      </g>
     </g>
     <g id="text_4">
      <!-- 6 -->
      <g transform="translate(315.103693 222.900872)scale(0.12 -0.12)">
       <defs>
        <path d="M 33.015625 40.375 
Q 26.375 40.375 22.484375 35.828125 
Q 18.609375 31.296875 18.609375 23.390625 
Q 18.609375 15.53125 22.484375 10.953125 
Q 26.375 6.390625 33.015625 6.390625 
Q 39.65625 6.390625 43.53125 10.953125 
Q 47.40625 15.53125 47.40625 23.390625 
Q 47.40625 31.296875 43.53125 35.828125 
Q 39.65625 40.375 33.015625 40.375 
z
M 52.59375 71.296875 
L 52.59375 62.3125 
Q 48.875 64.0625 45.09375 64.984375 
Q 41.3125 65.921875 37.59375 65.921875 
Q 27.828125 65.921875 22.671875 59.328125 
Q 17.53125 52.734375 16.796875 39.40625 
Q 19.671875 43.65625 24.015625 45.921875 
Q 28.375 48.1875 33.59375 48.1875 
Q 44.578125 48.1875 50.953125 41.515625 
Q 57.328125 34.859375 57.328125 23.390625 
Q 57.328125 12.15625 50.6875 5.359375 
Q 44.046875 -1.421875 33.015625 -1.421875 
Q 20.359375 -1.421875 13.671875 8.265625 
Q 6.984375 17.96875 6.984375 36.375 
Q 6.984375 53.65625 15.1875 63.9375 
Q 23.390625 74.21875 37.203125 74.21875 
Q 40.921875 74.21875 44.703125 73.484375 
Q 48.484375 72.75 52.59375 71.296875 
z
" id="DejaVuSans-54"/>
       </defs>
       <use xlink:href="#DejaVuSans-54"/>
      </g>
     </g>
    </g>
    <g id="xtick_5">
     <g id="line2d_5">
      <g>
       <use style="stroke:#000000;stroke-width:0.8;" x="400.08483" xlink:href="#m42719ec6f7" y="206.782747"/>
      </g>
     </g>
     <g id="text_5">
      <!-- 8 -->
      <g transform="translate(396.26733 222.900872)scale(0.12 -0.12)">
       <defs>
        <path d="M 31.78125 34.625 
Q 24.75 34.625 20.71875 30.859375 
Q 16.703125 27.09375 16.703125 20.515625 
Q 16.703125 13.921875 20.71875 10.15625 
Q 24.75 6.390625 31.78125 6.390625 
Q 38.8125 6.390625 42.859375 10.171875 
Q 46.921875 13.96875 46.921875 20.515625 
Q 46.921875 27.09375 42.890625 30.859375 
Q 38.875 34.625 31.78125 34.625 
z
M 21.921875 38.8125 
Q 15.578125 40.375 12.03125 44.71875 
Q 8.5 49.078125 8.5 55.328125 
Q 8.5 64.0625 14.71875 69.140625 
Q 20.953125 74.21875 31.78125 74.21875 
Q 42.671875 74.21875 48.875 69.140625 
Q 55.078125 64.0625 55.078125 55.328125 
Q 55.078125 49.078125 51.53125 44.71875 
Q 48 40.375 41.703125 38.8125 
Q 48.828125 37.15625 52.796875 32.3125 
Q 56.78125 27.484375 56.78125 20.515625 
Q 56.78125 9.90625 50.3125 4.234375 
Q 43.84375 -1.421875 31.78125 -1.421875 
Q 19.734375 -1.421875 13.25 4.234375 
Q 6.78125 9.90625 6.78125 20.515625 
Q 6.78125 27.484375 10.78125 32.3125 
Q 14.796875 37.15625 21.921875 38.8125 
z
M 18.3125 54.390625 
Q 18.3125 48.734375 21.84375 45.5625 
Q 25.390625 42.390625 31.78125 42.390625 
Q 38.140625 42.390625 41.71875 45.5625 
Q 45.3125 48.734375 45.3125 54.390625 
Q 45.3125 60.0625 41.71875 63.234375 
Q 38.140625 66.40625 31.78125 66.40625 
Q 25.390625 66.40625 21.84375 63.234375 
Q 18.3125 60.0625 18.3125 54.390625 
z
" id="DejaVuSans-56"/>
       </defs>
       <use xlink:href="#DejaVuSans-56"/>
      </g>
     </g>
    </g>
    <g id="xtick_6">
     <g id="line2d_6">
      <g>
       <use style="stroke:#000000;stroke-width:0.8;" x="481.248466" xlink:href="#m42719ec6f7" y="206.782747"/>
      </g>
     </g>
     <g id="text_6">
      <!-- 10 -->
      <g transform="translate(473.613466 222.900872)scale(0.12 -0.12)">
       <defs>
        <path d="M 12.40625 8.296875 
L 28.515625 8.296875 
L 28.515625 63.921875 
L 10.984375 60.40625 
L 10.984375 69.390625 
L 28.421875 72.90625 
L 38.28125 72.90625 
L 38.28125 8.296875 
L 54.390625 8.296875 
L 54.390625 0 
L 12.40625 0 
z
" id="DejaVuSans-49"/>
       </defs>
       <use xlink:href="#DejaVuSans-49"/>
       <use x="63.623047" xlink:href="#DejaVuSans-48"/>
      </g>
     </g>
    </g>
   </g>
   <g id="matplotlib.axis_2">
    <g id="ytick_1">
     <g id="line2d_7">
      <defs>
       <path d="M 0 0 
L -3.5 0 
" id="mb0faeae416" style="stroke:#000000;stroke-width:0.8;"/>
      </defs>
      <g>
       <use style="stroke:#000000;stroke-width:0.8;" x="55.139375" xlink:href="#mb0faeae416" y="198.814565"/>
      </g>
     </g>
     <g id="text_7">
      <!-- 40 -->
      <g transform="translate(22.81375 203.373627)scale(0.12 -0.12)">
       <defs>
        <path d="M 10.59375 35.5 
L 73.1875 35.5 
L 73.1875 27.203125 
L 10.59375 27.203125 
z
" id="DejaVuSans-8722"/>
       </defs>
       <use xlink:href="#DejaVuSans-8722"/>
       <use x="83.789062" xlink:href="#DejaVuSans-52"/>
       <use x="147.412109" xlink:href="#DejaVuSans-48"/>
      </g>
     </g>
    </g>
    <g id="ytick_2">
     <g id="line2d_8">
      <g>
       <use style="stroke:#000000;stroke-width:0.8;" x="55.139375" xlink:href="#mb0faeae416" y="167.638648"/>
      </g>
     </g>
     <g id="text_8">
      <!-- 20 -->
      <g transform="translate(22.81375 172.19771)scale(0.12 -0.12)">
       <use xlink:href="#DejaVuSans-8722"/>
       <use x="83.789062" xlink:href="#DejaVuSans-50"/>
       <use x="147.412109" xlink:href="#DejaVuSans-48"/>
      </g>
     </g>
    </g>
    <g id="ytick_3">
     <g id="line2d_9">
      <g>
       <use style="stroke:#000000;stroke-width:0.8;" x="55.139375" xlink:href="#mb0faeae416" y="136.462731"/>
      </g>
     </g>
     <g id="text_9">
      <!-- 0 -->
      <g transform="translate(40.504375 141.021793)scale(0.12 -0.12)">
       <use xlink:href="#DejaVuSans-48"/>
      </g>
     </g>
    </g>
    <g id="ytick_4">
     <g id="line2d_10">
      <g>
       <use style="stroke:#000000;stroke-width:0.8;" x="55.139375" xlink:href="#mb0faeae416" y="105.286814"/>
      </g>
     </g>
     <g id="text_10">
      <!-- 20 -->
      <g transform="translate(32.869375 109.845876)scale(0.12 -0.12)">
       <use xlink:href="#DejaVuSans-50"/>
       <use x="63.623047" xlink:href="#DejaVuSans-48"/>
      </g>
     </g>
    </g>
    <g id="ytick_5">
     <g id="line2d_11">
      <g>
       <use style="stroke:#000000;stroke-width:0.8;" x="55.139375" xlink:href="#mb0faeae416" y="74.110897"/>
      </g>
     </g>
     <g id="text_11">
      <!-- 40 -->
      <g transform="translate(32.869375 78.669959)scale(0.12 -0.12)">
       <use xlink:href="#DejaVuSans-52"/>
       <use x="63.623047" xlink:href="#DejaVuSans-48"/>
      </g>
     </g>
    </g>
    <g id="ytick_6">
     <g id="line2d_12">
      <g>
       <use style="stroke:#000000;stroke-width:0.8;" x="55.139375" xlink:href="#mb0faeae416" y="42.93498"/>
      </g>
     </g>
     <g id="text_12">
      <!-- 60 -->
      <g transform="translate(32.869375 47.494042)scale(0.12 -0.12)">
       <use xlink:href="#DejaVuSans-54"/>
       <use x="63.623047" xlink:href="#DejaVuSans-48"/>
      </g>
     </g>
    </g>
    <g id="ytick_7">
     <g id="line2d_13">
      <g>
       <use style="stroke:#000000;stroke-width:0.8;" x="55.139375" xlink:href="#mb0faeae416" y="11.759062"/>
      </g>
     </g>
     <g id="text_13">
      <!-- 80 -->
      <g transform="translate(32.869375 16.318125)scale(0.12 -0.12)">
       <use xlink:href="#DejaVuSans-56"/>
       <use x="63.623047" xlink:href="#DejaVuSans-48"/>
      </g>
     </g>
    </g>
    <g id="text_14">
     <!-- f(x) -->
     <g transform="translate(16.318125 118.291695)rotate(-90)scale(0.12 -0.12)">
      <defs>
       <path d="M 37.109375 75.984375 
L 37.109375 68.5 
L 28.515625 68.5 
Q 23.6875 68.5 21.796875 66.546875 
Q 19.921875 64.59375 19.921875 59.515625 
L 19.921875 54.6875 
L 34.71875 54.6875 
L 34.71875 47.703125 
L 19.921875 47.703125 
L 19.921875 0 
L 10.890625 0 
L 10.890625 47.703125 
L 2.296875 47.703125 
L 2.296875 54.6875 
L 10.890625 54.6875 
L 10.890625 58.5 
Q 10.890625 67.625 15.140625 71.796875 
Q 19.390625 75.984375 28.609375 75.984375 
z
" id="DejaVuSans-102"/>
       <path d="M 31 75.875 
Q 24.46875 64.65625 21.28125 53.65625 
Q 18.109375 42.671875 18.109375 31.390625 
Q 18.109375 20.125 21.3125 9.0625 
Q 24.515625 -2 31 -13.1875 
L 23.1875 -13.1875 
Q 15.875 -1.703125 12.234375 9.375 
Q 8.59375 20.453125 8.59375 31.390625 
Q 8.59375 42.28125 12.203125 53.3125 
Q 15.828125 64.359375 23.1875 75.875 
z
" id="DejaVuSans-40"/>
       <path d="M 54.890625 54.6875 
L 35.109375 28.078125 
L 55.90625 0 
L 45.3125 0 
L 29.390625 21.484375 
L 13.484375 0 
L 2.875 0 
L 24.125 28.609375 
L 4.6875 54.6875 
L 15.28125 54.6875 
L 29.78125 35.203125 
L 44.28125 54.6875 
z
" id="DejaVuSans-120"/>
       <path d="M 8.015625 75.875 
L 15.828125 75.875 
Q 23.140625 64.359375 26.78125 53.3125 
Q 30.421875 42.28125 30.421875 31.390625 
Q 30.421875 20.453125 26.78125 9.375 
Q 23.140625 -1.703125 15.828125 -13.1875 
L 8.015625 -13.1875 
Q 14.5 -2 17.703125 9.0625 
Q 20.90625 20.125 20.90625 31.390625 
Q 20.90625 42.671875 17.703125 53.65625 
Q 14.5 64.65625 8.015625 75.875 
z
" id="DejaVuSans-41"/>
      </defs>
      <use xlink:href="#DejaVuSans-102"/>
      <use x="35.205078" xlink:href="#DejaVuSans-40"/>
      <use x="74.21875" xlink:href="#DejaVuSans-120"/>
      <use x="133.398438" xlink:href="#DejaVuSans-41"/>
     </g>
    </g>
   </g>
   <g id="line2d_14">
    <path clip-path="url(#p678e5d941a)" d="M 75.430284 89.698855 
L 80.304977 89.586667 
L 85.17967 89.253337 
L 90.054363 88.708496 
L 95.33528 87.898058 
L 101.022422 86.800633 
L 107.522012 85.31723 
L 116.458949 83.021757 
L 131.895477 79.028433 
L 138.395067 77.608334 
L 143.675984 76.672359 
L 148.550677 76.028683 
L 153.019146 75.656042 
L 157.487614 75.516584 
L 161.549858 75.609765 
L 165.612102 75.92568 
L 169.674346 76.474033 
L 173.73659 77.26125 
L 177.798834 78.290304 
L 181.861079 79.56057 
L 185.923323 81.067736 
L 189.985567 82.803765 
L 194.454035 84.963594 
L 198.922504 87.365295 
L 203.797196 90.230605 
L 209.484338 93.844116 
L 216.390153 98.519561 
L 239.13872 114.179147 
L 244.419637 117.397958 
L 248.888106 119.866093 
L 252.95035 121.863438 
L 256.606369 123.430871 
L 260.262389 124.755717 
L 263.512184 125.711963 
L 266.761979 126.445144 
L 270.011775 126.942572 
L 273.26157 127.19307 
L 276.105141 127.202155 
L 278.948712 127.009557 
L 281.792282 126.611055 
L 284.635853 126.003549 
L 287.479424 125.185104 
L 290.322995 124.154978 
L 293.166566 122.913654 
L 296.416361 121.23866 
L 299.666156 119.294697 
L 302.915952 117.088503 
L 306.165747 114.62896 
L 309.821766 111.57293 
L 313.477786 108.229059 
L 317.54003 104.202975 
L 322.008499 99.43692 
L 326.883192 93.894526 
L 332.570333 87.075213 
L 340.288597 77.442469 
L 353.287778 61.187179 
L 358.97492 54.45897 
L 363.443388 49.486294 
L 367.505632 45.274032 
L 371.161652 41.780379 
L 374.817671 38.607553 
L 378.067467 36.08543 
L 381.317262 33.868371 
L 384.160833 32.195798 
L 387.004404 30.786789 
L 389.847975 29.653496 
L 392.285321 28.909822 
L 394.722667 28.382768 
L 397.160014 28.077608 
L 399.59736 27.998814 
L 402.034707 28.150025 
L 404.472053 28.534027 
L 406.9094 29.152724 
L 409.346746 30.007126 
L 411.784092 31.097326 
L 414.221439 32.422497 
L 416.658785 33.980877 
L 419.502356 36.090085 
L 422.345927 38.507106 
L 425.189498 41.224312 
L 428.033069 44.232361 
L 431.282864 48.012042 
L 434.532659 52.138038 
L 438.188679 57.166461 
L 441.844699 62.57047 
L 445.906943 68.967895 
L 450.375411 76.414655 
L 455.656328 85.654731 
L 462.562143 98.212773 
L 477.998671 126.435894 
L 481.248466 132.099748 
L 481.248466 132.099748 
" style="fill:none;stroke:#000000;stroke-linecap:square;stroke-width:1.5;"/>
   </g>
   <g id="line2d_15">
    <path clip-path="url(#p678e5d941a)" d="M 75.430284 96.287114 
L 81.52365 95.838921 
L 86.804567 95.665541 
L 92.491709 95.710397 
L 98.9913 96.005341 
L 107.928237 96.663633 
L 123.364764 97.818699 
L 131.083028 98.150359 
L 137.988843 98.218953 
L 144.488433 98.054409 
L 150.581799 97.683325 
L 156.675165 97.098123 
L 163.174756 96.245261 
L 170.080571 95.107795 
L 178.611283 93.462376 
L 192.422913 90.776551 
L 197.297606 90.065191 
L 201.35985 89.682812 
L 205.01587 89.565797 
L 208.265665 89.691348 
L 211.109236 90.014082 
L 213.952807 90.566523 
L 216.390153 91.244685 
L 218.827499 92.129369 
L 221.264846 93.234682 
L 223.702192 94.570838 
L 226.139539 96.14238 
L 228.98311 98.268326 
L 231.82668 100.68755 
L 235.076476 103.762441 
L 239.13872 107.959938 
L 246.044535 115.522392 
L 251.325452 121.163108 
L 254.981472 124.74349 
L 257.825042 127.245327 
L 260.668613 129.44008 
L 263.10596 131.04427 
L 265.543306 132.374076 
L 267.980653 133.423461 
L 270.417999 134.196954 
L 272.855346 134.706784 
L 275.292692 134.970465 
L 277.730038 135.008917 
L 280.167385 134.844938 
L 283.010956 134.429254 
L 286.260751 133.703819 
L 289.916771 132.631885 
L 293.979015 131.204399 
L 299.259932 129.108416 
L 322.008499 119.783706 
L 328.101865 117.663356 
L 334.195231 115.781746 
L 340.288597 114.140788 
L 346.381963 112.730118 
L 352.881554 111.459138 
L 359.787368 110.344233 
L 367.099408 109.391871 
L 375.223896 108.563113 
L 384.160833 107.875422 
L 394.722667 107.29371 
L 407.315624 106.834184 
L 423.158376 106.491232 
L 445.094494 106.258394 
L 480.842242 106.13224 
L 481.248466 106.131615 
L 481.248466 106.131615 
" style="fill:none;stroke:#1f77b4;stroke-linecap:square;stroke-width:1.5;"/>
   </g>
   <g id="patch_3">
    <path d="M 55.139375 206.782747 
L 55.139375 9.110019 
" style="fill:none;stroke:#000000;stroke-linecap:square;stroke-linejoin:miter;stroke-width:0.8;"/>
   </g>
   <g id="patch_4">
    <path d="M 501.539375 206.782747 
L 501.539375 9.110019 
" style="fill:none;stroke:#000000;stroke-linecap:square;stroke-linejoin:miter;stroke-width:0.8;"/>
   </g>
   <g id="patch_5">
    <path d="M 55.139375 206.782747 
L 501.539375 206.782747 
" style="fill:none;stroke:#000000;stroke-linecap:square;stroke-linejoin:miter;stroke-width:0.8;"/>
   </g>
   <g id="patch_6">
    <path d="M 55.139375 9.110019 
L 501.539375 9.110019 
" style="fill:none;stroke:#000000;stroke-linecap:square;stroke-linejoin:miter;stroke-width:0.8;"/>
   </g>
   <g id="legend_1">
    <g id="patch_7">
     <path d="M 63.539375 200.782747 
L 141.254375 200.782747 
Q 143.654375 200.782747 143.654375 198.382747 
L 143.654375 146.741497 
Q 143.654375 144.341497 141.254375 144.341497 
L 63.539375 144.341497 
Q 61.139375 144.341497 61.139375 146.741497 
L 61.139375 198.382747 
Q 61.139375 200.782747 63.539375 200.782747 
z
" style="fill:#ffffff;opacity:0.8;stroke:#cccccc;stroke-linejoin:miter;"/>
    </g>
    <g id="line2d_16">
     <path d="M 65.939375 154.059622 
L 89.939375 154.059622 
" style="fill:none;stroke:#1f77b4;stroke-linecap:square;stroke-width:1.5;"/>
    </g>
    <g id="line2d_17"/>
    <g id="text_15">
     <!-- GP -->
     <g transform="translate(99.539375 158.259622)scale(0.12 -0.12)">
      <defs>
       <path d="M 59.515625 10.40625 
L 59.515625 29.984375 
L 43.40625 29.984375 
L 43.40625 38.09375 
L 69.28125 38.09375 
L 69.28125 6.78125 
Q 63.578125 2.734375 56.6875 0.65625 
Q 49.8125 -1.421875 42 -1.421875 
Q 24.90625 -1.421875 15.25 8.5625 
Q 5.609375 18.5625 5.609375 36.375 
Q 5.609375 54.25 15.25 64.234375 
Q 24.90625 74.21875 42 74.21875 
Q 49.125 74.21875 55.546875 72.453125 
Q 61.96875 70.703125 67.390625 67.28125 
L 67.390625 56.78125 
Q 61.921875 61.421875 55.765625 63.765625 
Q 49.609375 66.109375 42.828125 66.109375 
Q 29.4375 66.109375 22.71875 58.640625 
Q 16.015625 51.171875 16.015625 36.375 
Q 16.015625 21.625 22.71875 14.15625 
Q 29.4375 6.6875 42.828125 6.6875 
Q 48.046875 6.6875 52.140625 7.59375 
Q 56.25 8.5 59.515625 10.40625 
z
" id="DejaVuSans-71"/>
       <path d="M 19.671875 64.796875 
L 19.671875 37.40625 
L 32.078125 37.40625 
Q 38.96875 37.40625 42.71875 40.96875 
Q 46.484375 44.53125 46.484375 51.125 
Q 46.484375 57.671875 42.71875 61.234375 
Q 38.96875 64.796875 32.078125 64.796875 
z
M 9.8125 72.90625 
L 32.078125 72.90625 
Q 44.34375 72.90625 50.609375 67.359375 
Q 56.890625 61.8125 56.890625 51.125 
Q 56.890625 40.328125 50.609375 34.8125 
Q 44.34375 29.296875 32.078125 29.296875 
L 19.671875 29.296875 
L 19.671875 0 
L 9.8125 0 
z
" id="DejaVuSans-80"/>
      </defs>
      <use xlink:href="#DejaVuSans-71"/>
      <use x="77.490234" xlink:href="#DejaVuSans-80"/>
     </g>
    </g>
    <g id="PathCollection_3">
     <g>
      <use style="stroke:#000000;" x="77.939375" xlink:href="#m7cfa301cd7" y="172.723372"/>
     </g>
    </g>
    <g id="text_16">
     <!-- known -->
     <g transform="translate(99.539375 175.873372)scale(0.12 -0.12)">
      <defs>
       <path d="M 9.078125 75.984375 
L 18.109375 75.984375 
L 18.109375 31.109375 
L 44.921875 54.6875 
L 56.390625 54.6875 
L 27.390625 29.109375 
L 57.625 0 
L 45.90625 0 
L 18.109375 26.703125 
L 18.109375 0 
L 9.078125 0 
z
" id="DejaVuSans-107"/>
       <path d="M 54.890625 33.015625 
L 54.890625 0 
L 45.90625 0 
L 45.90625 32.71875 
Q 45.90625 40.484375 42.875 44.328125 
Q 39.84375 48.1875 33.796875 48.1875 
Q 26.515625 48.1875 22.3125 43.546875 
Q 18.109375 38.921875 18.109375 30.90625 
L 18.109375 0 
L 9.078125 0 
L 9.078125 54.6875 
L 18.109375 54.6875 
L 18.109375 46.1875 
Q 21.34375 51.125 25.703125 53.5625 
Q 30.078125 56 35.796875 56 
Q 45.21875 56 50.046875 50.171875 
Q 54.890625 44.34375 54.890625 33.015625 
z
" id="DejaVuSans-110"/>
       <path d="M 30.609375 48.390625 
Q 23.390625 48.390625 19.1875 42.75 
Q 14.984375 37.109375 14.984375 27.296875 
Q 14.984375 17.484375 19.15625 11.84375 
Q 23.34375 6.203125 30.609375 6.203125 
Q 37.796875 6.203125 41.984375 11.859375 
Q 46.1875 17.53125 46.1875 27.296875 
Q 46.1875 37.015625 41.984375 42.703125 
Q 37.796875 48.390625 30.609375 48.390625 
z
M 30.609375 56 
Q 42.328125 56 49.015625 48.375 
Q 55.71875 40.765625 55.71875 27.296875 
Q 55.71875 13.875 49.015625 6.21875 
Q 42.328125 -1.421875 30.609375 -1.421875 
Q 18.84375 -1.421875 12.171875 6.21875 
Q 5.515625 13.875 5.515625 27.296875 
Q 5.515625 40.765625 12.171875 48.375 
Q 18.84375 56 30.609375 56 
z
" id="DejaVuSans-111"/>
       <path d="M 4.203125 54.6875 
L 13.1875 54.6875 
L 24.421875 12.015625 
L 35.59375 54.6875 
L 46.1875 54.6875 
L 57.421875 12.015625 
L 68.609375 54.6875 
L 77.59375 54.6875 
L 63.28125 0 
L 52.6875 0 
L 40.921875 44.828125 
L 29.109375 0 
L 18.5 0 
z
" id="DejaVuSans-119"/>
      </defs>
      <use xlink:href="#DejaVuSans-107"/>
      <use x="57.910156" xlink:href="#DejaVuSans-110"/>
      <use x="121.289062" xlink:href="#DejaVuSans-111"/>
      <use x="182.470703" xlink:href="#DejaVuSans-119"/>
      <use x="264.257812" xlink:href="#DejaVuSans-110"/>
     </g>
    </g>
    <g id="PathCollection_4">
     <g>
      <use style="fill:#ff0000;stroke:#ff0000;" x="77.939375" xlink:href="#m8c52e0846c" y="190.337122"/>
     </g>
    </g>
    <g id="text_17">
     <!-- next -->
     <g transform="translate(99.539375 193.487122)scale(0.12 -0.12)">
      <defs>
       <path d="M 56.203125 29.59375 
L 56.203125 25.203125 
L 14.890625 25.203125 
Q 15.484375 15.921875 20.484375 11.0625 
Q 25.484375 6.203125 34.421875 6.203125 
Q 39.59375 6.203125 44.453125 7.46875 
Q 49.3125 8.734375 54.109375 11.28125 
L 54.109375 2.78125 
Q 49.265625 0.734375 44.1875 -0.34375 
Q 39.109375 -1.421875 33.890625 -1.421875 
Q 20.796875 -1.421875 13.15625 6.1875 
Q 5.515625 13.8125 5.515625 26.8125 
Q 5.515625 40.234375 12.765625 48.109375 
Q 20.015625 56 32.328125 56 
Q 43.359375 56 49.78125 48.890625 
Q 56.203125 41.796875 56.203125 29.59375 
z
M 47.21875 32.234375 
Q 47.125 39.59375 43.09375 43.984375 
Q 39.0625 48.390625 32.421875 48.390625 
Q 24.90625 48.390625 20.390625 44.140625 
Q 15.875 39.890625 15.1875 32.171875 
z
" id="DejaVuSans-101"/>
       <path d="M 18.3125 70.21875 
L 18.3125 54.6875 
L 36.8125 54.6875 
L 36.8125 47.703125 
L 18.3125 47.703125 
L 18.3125 18.015625 
Q 18.3125 11.328125 20.140625 9.421875 
Q 21.96875 7.515625 27.59375 7.515625 
L 36.8125 7.515625 
L 36.8125 0 
L 27.59375 0 
Q 17.1875 0 13.234375 3.875 
Q 9.28125 7.765625 9.28125 18.015625 
L 9.28125 47.703125 
L 2.6875 47.703125 
L 2.6875 54.6875 
L 9.28125 54.6875 
L 9.28125 70.21875 
z
" id="DejaVuSans-116"/>
      </defs>
      <use xlink:href="#DejaVuSans-110"/>
      <use x="63.378906" xlink:href="#DejaVuSans-101"/>
      <use x="123.152344" xlink:href="#DejaVuSans-120"/>
      <use x="182.332031" xlink:href="#DejaVuSans-116"/>
     </g>
    </g>
   </g>
  </g>
  <g id="axes_2">
   <g id="patch_8">
    <path d="M 55.139375 443.990019 
L 501.539375 443.990019 
L 501.539375 246.317292 
L 55.139375 246.317292 
z
" style="fill:#ffffff;"/>
   </g>
   <g id="matplotlib.axis_3">
    <g id="xtick_7">
     <g id="line2d_18">
      <g>
       <use style="stroke:#000000;stroke-width:0.8;" x="75.430284" xlink:href="#m42719ec6f7" y="443.990019"/>
      </g>
     </g>
     <g id="text_18">
      <!-- 0.0 -->
      <g transform="translate(65.888409 460.108144)scale(0.12 -0.12)">
       <defs>
        <path d="M 10.6875 12.40625 
L 21 12.40625 
L 21 0 
L 10.6875 0 
z
" id="DejaVuSans-46"/>
       </defs>
       <use xlink:href="#DejaVuSans-48"/>
       <use x="63.623047" xlink:href="#DejaVuSans-46"/>
       <use x="95.410156" xlink:href="#DejaVuSans-48"/>
      </g>
     </g>
    </g>
    <g id="xtick_8">
     <g id="line2d_19">
      <g>
       <use style="stroke:#000000;stroke-width:0.8;" x="156.59392" xlink:href="#m42719ec6f7" y="443.990019"/>
      </g>
     </g>
     <g id="text_19">
      <!-- 0.2 -->
      <g transform="translate(147.052045 460.108144)scale(0.12 -0.12)">
       <use xlink:href="#DejaVuSans-48"/>
       <use x="63.623047" xlink:href="#DejaVuSans-46"/>
       <use x="95.410156" xlink:href="#DejaVuSans-50"/>
      </g>
     </g>
    </g>
    <g id="xtick_9">
     <g id="line2d_20">
      <g>
       <use style="stroke:#000000;stroke-width:0.8;" x="237.757557" xlink:href="#m42719ec6f7" y="443.990019"/>
      </g>
     </g>
     <g id="text_20">
      <!-- 0.4 -->
      <g transform="translate(228.215682 460.108144)scale(0.12 -0.12)">
       <use xlink:href="#DejaVuSans-48"/>
       <use x="63.623047" xlink:href="#DejaVuSans-46"/>
       <use x="95.410156" xlink:href="#DejaVuSans-52"/>
      </g>
     </g>
    </g>
    <g id="xtick_10">
     <g id="line2d_21">
      <g>
       <use style="stroke:#000000;stroke-width:0.8;" x="318.921193" xlink:href="#m42719ec6f7" y="443.990019"/>
      </g>
     </g>
     <g id="text_21">
      <!-- 0.6 -->
      <g transform="translate(309.379318 460.108144)scale(0.12 -0.12)">
       <use xlink:href="#DejaVuSans-48"/>
       <use x="63.623047" xlink:href="#DejaVuSans-46"/>
       <use x="95.410156" xlink:href="#DejaVuSans-54"/>
      </g>
     </g>
    </g>
    <g id="xtick_11">
     <g id="line2d_22">
      <g>
       <use style="stroke:#000000;stroke-width:0.8;" x="400.08483" xlink:href="#m42719ec6f7" y="443.990019"/>
      </g>
     </g>
     <g id="text_22">
      <!-- 0.8 -->
      <g transform="translate(390.542955 460.108144)scale(0.12 -0.12)">
       <use xlink:href="#DejaVuSans-48"/>
       <use x="63.623047" xlink:href="#DejaVuSans-46"/>
       <use x="95.410156" xlink:href="#DejaVuSans-56"/>
      </g>
     </g>
    </g>
    <g id="xtick_12">
     <g id="line2d_23">
      <g>
       <use style="stroke:#000000;stroke-width:0.8;" x="481.248466" xlink:href="#m42719ec6f7" y="443.990019"/>
      </g>
     </g>
     <g id="text_23">
      <!-- 1.0 -->
      <g transform="translate(471.706591 460.108144)scale(0.12 -0.12)">
       <use xlink:href="#DejaVuSans-49"/>
       <use x="63.623047" xlink:href="#DejaVuSans-46"/>
       <use x="95.410156" xlink:href="#DejaVuSans-48"/>
      </g>
     </g>
    </g>
    <g id="text_24">
     <!-- x -->
     <g transform="translate(274.788125 475.721894)scale(0.12 -0.12)">
      <use xlink:href="#DejaVuSans-120"/>
     </g>
    </g>
   </g>
   <g id="matplotlib.axis_4">
    <g id="ytick_8">
     <g id="line2d_24">
      <g>
       <use style="stroke:#000000;stroke-width:0.8;" x="55.139375" xlink:href="#mb0faeae416" y="435.004895"/>
      </g>
     </g>
     <g id="text_25">
      <!-- 0.0 -->
      <g transform="translate(29.055625 439.563958)scale(0.12 -0.12)">
       <use xlink:href="#DejaVuSans-48"/>
       <use x="63.623047" xlink:href="#DejaVuSans-46"/>
       <use x="95.410156" xlink:href="#DejaVuSans-48"/>
      </g>
     </g>
    </g>
    <g id="ytick_9">
     <g id="line2d_25">
      <g>
       <use style="stroke:#000000;stroke-width:0.8;" x="55.139375" xlink:href="#mb0faeae416" y="395.090776"/>
      </g>
     </g>
     <g id="text_26">
      <!-- 0.2 -->
      <g transform="translate(29.055625 399.649839)scale(0.12 -0.12)">
       <use xlink:href="#DejaVuSans-48"/>
       <use x="63.623047" xlink:href="#DejaVuSans-46"/>
       <use x="95.410156" xlink:href="#DejaVuSans-50"/>
      </g>
     </g>
    </g>
    <g id="ytick_10">
     <g id="line2d_26">
      <g>
       <use style="stroke:#000000;stroke-width:0.8;" x="55.139375" xlink:href="#mb0faeae416" y="355.176657"/>
      </g>
     </g>
     <g id="text_27">
      <!-- 0.4 -->
      <g transform="translate(29.055625 359.73572)scale(0.12 -0.12)">
       <use xlink:href="#DejaVuSans-48"/>
       <use x="63.623047" xlink:href="#DejaVuSans-46"/>
       <use x="95.410156" xlink:href="#DejaVuSans-52"/>
      </g>
     </g>
    </g>
    <g id="ytick_11">
     <g id="line2d_27">
      <g>
       <use style="stroke:#000000;stroke-width:0.8;" x="55.139375" xlink:href="#mb0faeae416" y="315.262538"/>
      </g>
     </g>
     <g id="text_28">
      <!-- 0.6 -->
      <g transform="translate(29.055625 319.8216)scale(0.12 -0.12)">
       <use xlink:href="#DejaVuSans-48"/>
       <use x="63.623047" xlink:href="#DejaVuSans-46"/>
       <use x="95.410156" xlink:href="#DejaVuSans-54"/>
      </g>
     </g>
    </g>
    <g id="ytick_12">
     <g id="line2d_28">
      <g>
       <use style="stroke:#000000;stroke-width:0.8;" x="55.139375" xlink:href="#mb0faeae416" y="275.348419"/>
      </g>
     </g>
     <g id="text_29">
      <!-- 0.8 -->
      <g transform="translate(29.055625 279.907481)scale(0.12 -0.12)">
       <use xlink:href="#DejaVuSans-48"/>
       <use x="63.623047" xlink:href="#DejaVuSans-46"/>
       <use x="95.410156" xlink:href="#DejaVuSans-56"/>
      </g>
     </g>
    </g>
    <g id="text_30">
     <!-- Acquisition Function -->
     <g transform="translate(22.56 405.440531)rotate(-90)scale(0.12 -0.12)">
      <defs>
       <path d="M 34.1875 63.1875 
L 20.796875 26.90625 
L 47.609375 26.90625 
z
M 28.609375 72.90625 
L 39.796875 72.90625 
L 67.578125 0 
L 57.328125 0 
L 50.6875 18.703125 
L 17.828125 18.703125 
L 11.1875 0 
L 0.78125 0 
z
" id="DejaVuSans-65"/>
       <path d="M 48.78125 52.59375 
L 48.78125 44.1875 
Q 44.96875 46.296875 41.140625 47.34375 
Q 37.3125 48.390625 33.40625 48.390625 
Q 24.65625 48.390625 19.8125 42.84375 
Q 14.984375 37.3125 14.984375 27.296875 
Q 14.984375 17.28125 19.8125 11.734375 
Q 24.65625 6.203125 33.40625 6.203125 
Q 37.3125 6.203125 41.140625 7.25 
Q 44.96875 8.296875 48.78125 10.40625 
L 48.78125 2.09375 
Q 45.015625 0.34375 40.984375 -0.53125 
Q 36.96875 -1.421875 32.421875 -1.421875 
Q 20.0625 -1.421875 12.78125 6.34375 
Q 5.515625 14.109375 5.515625 27.296875 
Q 5.515625 40.671875 12.859375 48.328125 
Q 20.21875 56 33.015625 56 
Q 37.15625 56 41.109375 55.140625 
Q 45.0625 54.296875 48.78125 52.59375 
z
" id="DejaVuSans-99"/>
       <path d="M 14.796875 27.296875 
Q 14.796875 17.390625 18.875 11.75 
Q 22.953125 6.109375 30.078125 6.109375 
Q 37.203125 6.109375 41.296875 11.75 
Q 45.40625 17.390625 45.40625 27.296875 
Q 45.40625 37.203125 41.296875 42.84375 
Q 37.203125 48.484375 30.078125 48.484375 
Q 22.953125 48.484375 18.875 42.84375 
Q 14.796875 37.203125 14.796875 27.296875 
z
M 45.40625 8.203125 
Q 42.578125 3.328125 38.25 0.953125 
Q 33.9375 -1.421875 27.875 -1.421875 
Q 17.96875 -1.421875 11.734375 6.484375 
Q 5.515625 14.40625 5.515625 27.296875 
Q 5.515625 40.1875 11.734375 48.09375 
Q 17.96875 56 27.875 56 
Q 33.9375 56 38.25 53.625 
Q 42.578125 51.265625 45.40625 46.390625 
L 45.40625 54.6875 
L 54.390625 54.6875 
L 54.390625 -20.796875 
L 45.40625 -20.796875 
z
" id="DejaVuSans-113"/>
       <path d="M 8.5 21.578125 
L 8.5 54.6875 
L 17.484375 54.6875 
L 17.484375 21.921875 
Q 17.484375 14.15625 20.5 10.265625 
Q 23.53125 6.390625 29.59375 6.390625 
Q 36.859375 6.390625 41.078125 11.03125 
Q 45.3125 15.671875 45.3125 23.6875 
L 45.3125 54.6875 
L 54.296875 54.6875 
L 54.296875 0 
L 45.3125 0 
L 45.3125 8.40625 
Q 42.046875 3.421875 37.71875 1 
Q 33.40625 -1.421875 27.6875 -1.421875 
Q 18.265625 -1.421875 13.375 4.4375 
Q 8.5 10.296875 8.5 21.578125 
z
M 31.109375 56 
z
" id="DejaVuSans-117"/>
       <path d="M 9.421875 54.6875 
L 18.40625 54.6875 
L 18.40625 0 
L 9.421875 0 
z
M 9.421875 75.984375 
L 18.40625 75.984375 
L 18.40625 64.59375 
L 9.421875 64.59375 
z
" id="DejaVuSans-105"/>
       <path d="M 44.28125 53.078125 
L 44.28125 44.578125 
Q 40.484375 46.53125 36.375 47.5 
Q 32.28125 48.484375 27.875 48.484375 
Q 21.1875 48.484375 17.84375 46.4375 
Q 14.5 44.390625 14.5 40.28125 
Q 14.5 37.15625 16.890625 35.375 
Q 19.28125 33.59375 26.515625 31.984375 
L 29.59375 31.296875 
Q 39.15625 29.25 43.1875 25.515625 
Q 47.21875 21.78125 47.21875 15.09375 
Q 47.21875 7.46875 41.1875 3.015625 
Q 35.15625 -1.421875 24.609375 -1.421875 
Q 20.21875 -1.421875 15.453125 -0.5625 
Q 10.6875 0.296875 5.421875 2 
L 5.421875 11.28125 
Q 10.40625 8.6875 15.234375 7.390625 
Q 20.0625 6.109375 24.8125 6.109375 
Q 31.15625 6.109375 34.5625 8.28125 
Q 37.984375 10.453125 37.984375 14.40625 
Q 37.984375 18.0625 35.515625 20.015625 
Q 33.0625 21.96875 24.703125 23.78125 
L 21.578125 24.515625 
Q 13.234375 26.265625 9.515625 29.90625 
Q 5.8125 33.546875 5.8125 39.890625 
Q 5.8125 47.609375 11.28125 51.796875 
Q 16.75 56 26.8125 56 
Q 31.78125 56 36.171875 55.265625 
Q 40.578125 54.546875 44.28125 53.078125 
z
" id="DejaVuSans-115"/>
       <path id="DejaVuSans-32"/>
       <path d="M 9.8125 72.90625 
L 51.703125 72.90625 
L 51.703125 64.59375 
L 19.671875 64.59375 
L 19.671875 43.109375 
L 48.578125 43.109375 
L 48.578125 34.8125 
L 19.671875 34.8125 
L 19.671875 0 
L 9.8125 0 
z
" id="DejaVuSans-70"/>
      </defs>
      <use xlink:href="#DejaVuSans-65"/>
      <use x="66.658203" xlink:href="#DejaVuSans-99"/>
      <use x="121.638672" xlink:href="#DejaVuSans-113"/>
      <use x="185.115234" xlink:href="#DejaVuSans-117"/>
      <use x="248.494141" xlink:href="#DejaVuSans-105"/>
      <use x="276.277344" xlink:href="#DejaVuSans-115"/>
      <use x="328.376953" xlink:href="#DejaVuSans-105"/>
      <use x="356.160156" xlink:href="#DejaVuSans-116"/>
      <use x="395.369141" xlink:href="#DejaVuSans-105"/>
      <use x="423.152344" xlink:href="#DejaVuSans-111"/>
      <use x="484.333984" xlink:href="#DejaVuSans-110"/>
      <use x="547.712891" xlink:href="#DejaVuSans-32"/>
      <use x="579.5" xlink:href="#DejaVuSans-70"/>
      <use x="631.519531" xlink:href="#DejaVuSans-117"/>
      <use x="694.898438" xlink:href="#DejaVuSans-110"/>
      <use x="758.277344" xlink:href="#DejaVuSans-99"/>
      <use x="813.257812" xlink:href="#DejaVuSans-116"/>
      <use x="852.466797" xlink:href="#DejaVuSans-105"/>
      <use x="880.25" xlink:href="#DejaVuSans-111"/>
      <use x="941.431641" xlink:href="#DejaVuSans-110"/>
     </g>
    </g>
   </g>
   <g id="line2d_29">
    <path clip-path="url(#p61c13cf566)" d="M 75.430284 380.084301 
L 81.52365 405.649378 
L 82.742323 409.834868 
L 83.554772 412.076794 
L 84.367221 413.688537 
L 84.773445 414.207713 
L 85.17967 414.503346 
L 85.585894 414.569519 
L 85.992119 414.401838 
L 86.398343 414.009764 
L 87.210792 412.577499 
L 88.023241 410.423846 
L 89.241914 406.230746 
L 90.866812 399.565258 
L 94.116607 384.927647 
L 98.178851 366.823211 
L 101.428646 353.393569 
L 104.272217 342.622783 
L 107.115788 332.815294 
L 109.553134 325.170835 
L 111.990481 318.206731 
L 114.427827 311.888842 
L 116.865174 306.176866 
L 119.30252 301.026609 
L 121.739866 296.390686 
L 124.177213 292.221657 
L 126.614559 288.472248 
L 129.051906 285.096627 
L 131.895477 281.57255 
L 134.739047 278.433017 
L 137.582618 275.619073 
L 140.832413 272.734676 
L 144.082209 270.140133 
L 147.738228 267.500532 
L 151.800472 264.848856 
L 155.862717 262.44979 
L 159.924961 260.293644 
L 163.58098 258.583701 
L 166.830775 257.287216 
L 169.674346 256.368354 
L 172.111693 255.778343 
L 174.549039 255.409555 
L 176.580161 255.302416 
L 178.611283 255.408024 
L 180.642405 255.758648 
L 182.267303 256.239452 
L 183.892201 256.919908 
L 185.517098 257.821363 
L 187.141996 258.966682 
L 188.766893 260.38009 
L 190.391791 262.087331 
L 192.016689 264.115321 
L 193.641586 266.492282 
L 195.266484 269.247604 
L 196.891382 272.411609 
L 198.516279 276.015422 
L 200.141177 280.090688 
L 201.766074 284.669295 
L 203.797196 291.148637 
L 205.828318 298.524113 
L 207.859441 306.852012 
L 209.890563 316.181521 
L 211.921685 326.549945 
L 213.952807 337.975299 
L 216.390153 353.054338 
L 219.233724 372.315025 
L 224.108417 406.177571 
L 225.32709 413.124888 
L 226.139539 416.910635 
L 226.951988 419.90925 
L 227.764436 422.137361 
L 228.576885 423.706028 
L 229.389334 424.771271 
L 230.201783 425.486102 
L 231.420456 426.165538 
L 233.451578 426.878829 
L 235.888925 427.737635 
L 237.920047 428.675032 
L 240.357393 430.051029 
L 245.63831 433.128089 
L 247.669432 433.996234 
L 249.29433 434.480808 
L 251.325452 434.831215 
L 253.762798 434.98108 
L 260.262389 435.004895 
L 276.105141 434.915916 
L 278.136263 434.68004 
L 279.76116 434.291673 
L 281.386058 433.663152 
L 283.010956 432.752853 
L 284.635853 431.537294 
L 286.260751 430.009822 
L 287.885649 428.177345 
L 289.916771 425.484254 
L 291.947893 422.388543 
L 294.385239 418.220799 
L 297.22881 412.861894 
L 300.88483 405.423596 
L 306.978196 392.377037 
L 313.884011 377.694862 
L 318.352479 368.687189 
L 322.414723 360.99079 
L 326.070743 354.520714 
L 329.726762 348.508241 
L 333.382782 342.960709 
L 336.632577 338.416238 
L 339.882373 334.226194 
L 343.132168 330.377427 
L 346.381963 326.853967 
L 349.631758 323.638038 
L 352.881554 320.71082 
L 356.131349 318.053059 
L 359.787368 315.361168 
L 363.443388 312.959016 
L 367.099408 310.820652 
L 370.755427 308.921426 
L 374.817671 307.063488 
L 378.879916 305.442645 
L 383.348384 303.901299 
L 388.223077 302.47146 
L 393.503994 301.176498 
L 399.191136 300.030781 
L 405.284502 299.040255 
L 412.190317 298.157338 
L 419.908581 297.407437 
L 428.845518 296.77522 
L 439.407352 296.262878 
L 452.406533 295.865863 
L 469.467958 295.579342 
L 481.248466 295.471068 
L 481.248466 295.471068 
" style="fill:none;stroke:#1f77b4;stroke-linecap:square;stroke-width:1.5;"/>
   </g>
   <g id="line2d_30">
    <path clip-path="url(#p61c13cf566)" d="M 75.430284 389.041366 
L 77.867631 389.118387 
L 80.304977 388.997966 
L 82.742323 388.673669 
L 85.17967 388.144008 
L 87.617016 387.412284 
L 90.460587 386.315309 
L 93.304158 384.978374 
L 96.553953 383.197506 
L 100.209973 380.940019 
L 105.49089 377.38181 
L 115.6465 370.465029 
L 119.708744 367.972996 
L 123.364764 365.974238 
L 126.614559 364.433456 
L 129.864355 363.144588 
L 132.707925 362.242645 
L 135.551496 361.565621 
L 138.395067 361.123978 
L 141.238638 360.927065 
L 144.082209 360.981544 
L 146.92578 361.291967 
L 149.76935 361.861982 
L 152.612921 362.692772 
L 155.456492 363.784303 
L 158.300063 365.135026 
L 161.143634 366.741675 
L 163.987205 368.598904 
L 166.830775 370.70004 
L 170.080571 373.389203 
L 173.330366 376.369129 
L 176.986386 380.045331 
L 180.642405 384.032129 
L 184.704649 388.776768 
L 189.579342 394.813489 
L 198.922504 406.852422 
L 204.203421 413.454928 
L 207.859441 417.715403 
L 211.109236 421.182212 
L 213.952807 423.910383 
L 216.796377 426.314215 
L 219.233724 428.099063 
L 221.67107 429.624637 
L 224.108417 430.896145 
L 226.545763 431.92854 
L 228.98311 432.744328 
L 231.82668 433.459972 
L 235.076476 434.026665 
L 238.732495 434.428725 
L 243.607188 434.717537 
L 250.919228 434.887576 
L 265.137082 434.943536 
L 284.229629 434.816144 
L 295.197688 434.536816 
L 303.7284 434.107996 
L 311.04044 433.53144 
L 317.946255 432.770508 
L 324.445845 431.838267 
L 330.945436 430.682356 
L 337.445026 429.296966 
L 343.944617 427.683641 
L 350.850432 425.728541 
L 357.756246 423.540762 
L 365.068286 420.993583 
L 373.192774 417.91924 
L 382.129711 414.289947 
L 392.691545 409.743699 
L 406.096951 403.712007 
L 448.750513 384.337621 
L 461.34347 378.959686 
L 472.717753 374.335853 
L 481.248466 371.031037 
L 481.248466 371.031037 
" style="fill:none;stroke:#ff7f0e;stroke-linecap:square;stroke-width:1.5;"/>
   </g>
   <g id="line2d_31">
    <path clip-path="url(#p61c13cf566)" d="M 75.430284 399.271217 
L 78.273855 399.565176 
L 81.117426 399.646146 
L 83.960997 399.505747 
L 86.804567 399.140727 
L 89.648138 398.555025 
L 92.491709 397.760371 
L 95.741504 396.620337 
L 99.397524 395.088973 
L 103.865993 392.949912 
L 110.771807 389.342492 
L 118.896296 385.133025 
L 123.770988 382.835705 
L 128.239457 380.967921 
L 132.301701 379.509193 
L 135.957721 378.416722 
L 139.61374 377.555113 
L 142.863536 376.999692 
L 146.113331 376.659198 
L 149.363126 376.550853 
L 152.612921 376.693188 
L 155.456492 377.037074 
L 158.300063 377.597476 
L 161.143634 378.384522 
L 163.987205 379.408495 
L 166.830775 380.675062 
L 169.674346 382.189507 
L 172.517917 383.954301 
L 175.361488 385.96777 
L 178.611283 388.568737 
L 181.861079 391.477845 
L 185.110874 394.675001 
L 188.766893 398.57927 
L 193.235362 403.704157 
L 208.265665 421.345194 
L 211.109236 424.207525 
L 213.952807 426.751634 
L 216.390153 428.642523 
L 218.827499 430.246729 
L 221.264846 431.561513 
L 223.702192 432.598744 
L 226.139539 433.384055 
L 228.576885 433.953078 
L 231.420456 434.398621 
L 235.076476 434.725664 
L 239.951169 434.913703 
L 248.888106 434.992867 
L 289.104322 434.977025 
L 306.165747 434.805388 
L 316.727581 434.488868 
L 325.664518 434.003823 
L 333.789006 433.337649 
L 341.50727 432.473641 
L 348.819309 431.429323 
L 356.131349 430.157109 
L 363.443388 428.656759 
L 370.755427 426.934812 
L 378.473691 424.89011 
L 386.598179 422.507016 
L 395.535116 419.644194 
L 405.284502 416.278321 
L 416.252561 412.254845 
L 430.470415 406.786574 
L 481.248466 386.983959 
L 481.248466 386.983959 
" style="fill:none;stroke:#2ca02c;stroke-linecap:square;stroke-width:1.5;"/>
   </g>
   <g id="patch_9">
    <path d="M 55.139375 443.990019 
L 55.139375 246.317292 
" style="fill:none;stroke:#000000;stroke-linecap:square;stroke-linejoin:miter;stroke-width:0.8;"/>
   </g>
   <g id="patch_10">
    <path d="M 501.539375 443.990019 
L 501.539375 246.317292 
" style="fill:none;stroke:#000000;stroke-linecap:square;stroke-linejoin:miter;stroke-width:0.8;"/>
   </g>
   <g id="patch_11">
    <path d="M 55.139375 443.990019 
L 501.539375 443.990019 
" style="fill:none;stroke:#000000;stroke-linecap:square;stroke-linejoin:miter;stroke-width:0.8;"/>
   </g>
   <g id="patch_12">
    <path d="M 55.139375 246.317292 
L 501.539375 246.317292 
" style="fill:none;stroke:#000000;stroke-linecap:square;stroke-linejoin:miter;stroke-width:0.8;"/>
   </g>
  </g>
 </g>
 <defs>
  <clipPath id="p678e5d941a">
   <rect height="197.672727" width="446.4" x="55.139375" y="9.110019"/>
  </clipPath>
  <clipPath id="p61c13cf566">
   <rect height="197.672727" width="446.4" x="55.139375" y="246.317292"/>
  </clipPath>
 </defs>
</svg>
