<?xml version="1.0" encoding="utf-8" standalone="no"?>
<!DOCTYPE svg PUBLIC "-//W3C//DTD SVG 1.1//EN"
  "http://www.w3.org/Graphics/SVG/1.1/DTD/svg11.dtd">
<!-- Created with matplotlib (https://matplotlib.org/) -->
<svg height="483.5075pt" version="1.1" viewBox="0 0 510.1325 483.5075" width="510.1325pt" xmlns="http://www.w3.org/2000/svg" xmlns:xlink="http://www.w3.org/1999/xlink">
 <metadata>
  <rdf:RDF xmlns:cc="http://creativecommons.org/ns#" xmlns:dc="http://purl.org/dc/elements/1.1/" xmlns:rdf="http://www.w3.org/1999/02/22-rdf-syntax-ns#">
   <cc:Work>
    <dc:type rdf:resource="http://purl.org/dc/dcmitype/StillImage"/>
    <dc:date>2020-10-04T19:39:08.089113</dc:date>
    <dc:format>image/svg+xml</dc:format>
    <dc:creator>
     <cc:Agent>
      <dc:title>Matplotlib v3.3.1, https://matplotlib.org/</dc:title>
     </cc:Agent>
    </dc:creator>
   </cc:Work>
  </rdf:RDF>
 </metadata>
 <defs>
  <style type="text/css">*{stroke-linecap:butt;stroke-linejoin:round;}</style>
 </defs>
 <g id="figure_1">
  <g id="patch_1">
   <path d="M 0 483.5075 
L 510.1325 483.5075 
L 510.1325 0 
L 0 0 
z
" style="fill:none;"/>
  </g>
  <g id="axes_1">
   <g id="patch_2">
    <path d="M 56.5325 204.872727 
L 502.9325 204.872727 
L 502.9325 7.2 
L 56.5325 7.2 
z
" style="fill:#ffffff;"/>
   </g>
   <g id="PolyCollection_1">
    <path clip-path="url(#p7ea9934ab1)" d="M 76.823409 83.95036 
L 76.823409 163.452264 
L 77.229633 163.452264 
L 77.635858 163.452264 
L 78.042082 163.452264 
L 78.448307 163.452264 
L 78.854531 163.452264 
L 79.260756 163.452264 
L 79.66698 163.452264 
L 80.073204 163.452264 
L 80.479429 163.452264 
L 80.885653 163.452264 
L 81.291878 163.452264 
L 81.698102 163.452264 
L 82.104326 163.452264 
L 82.510551 163.452264 
L 82.916775 163.452264 
L 83.323 163.452264 
L 83.729224 163.452264 
L 84.135448 163.452264 
L 84.541673 163.452264 
L 84.947897 163.452264 
L 85.354122 163.452264 
L 85.760346 163.452264 
L 86.16657 163.452264 
L 86.572795 163.452264 
L 86.979019 163.452264 
L 87.385244 163.452264 
L 87.791468 163.452264 
L 88.197692 163.452264 
L 88.603917 163.452264 
L 89.010141 163.452264 
L 89.416366 163.452264 
L 89.82259 163.452264 
L 90.228814 163.452264 
L 90.635039 163.452264 
L 91.041263 163.452264 
L 91.447488 163.452264 
L 91.853712 163.452264 
L 92.259937 163.452264 
L 92.666161 163.452264 
L 93.072385 163.452264 
L 93.47861 163.452264 
L 93.884834 163.452264 
L 94.291059 163.452264 
L 94.697283 163.452264 
L 95.103507 163.452264 
L 95.509732 163.452264 
L 95.915956 163.452264 
L 96.322181 163.452264 
L 96.728405 163.452264 
L 97.134629 163.452264 
L 97.540854 163.452264 
L 97.947078 163.452264 
L 98.353303 163.452264 
L 98.759527 163.452264 
L 99.165751 163.452264 
L 99.571976 163.452264 
L 99.9782 163.452264 
L 100.384425 163.452264 
L 100.790649 163.452264 
L 101.196873 163.452264 
L 101.603098 163.452264 
L 102.009322 163.452264 
L 102.415547 163.452264 
L 102.821771 163.452264 
L 103.227995 163.452264 
L 103.63422 163.452264 
L 104.040444 163.452264 
L 104.446669 163.452264 
L 104.852893 163.452264 
L 105.259118 163.452264 
L 105.665342 163.452264 
L 106.071566 163.452264 
L 106.477791 163.452264 
L 106.884015 163.452264 
L 107.29024 163.452264 
L 107.696464 163.452264 
L 108.102688 163.452264 
L 108.508913 163.452264 
L 108.915137 163.452264 
L 109.321362 163.452264 
L 109.727586 163.452264 
L 110.13381 163.452264 
L 110.540035 163.452264 
L 110.946259 163.452264 
L 111.352484 163.452264 
L 111.758708 163.452264 
L 112.164932 163.452264 
L 112.571157 163.452264 
L 112.977381 163.452264 
L 113.383606 163.452264 
L 113.78983 163.452264 
L 114.196054 163.452264 
L 114.602279 163.452264 
L 115.008503 163.452264 
L 115.414728 163.452264 
L 115.820952 163.452264 
L 116.227176 163.452264 
L 116.633401 163.452264 
L 117.039625 163.452264 
L 117.44585 163.452264 
L 117.852074 163.452264 
L 118.258299 163.452264 
L 118.664523 163.452264 
L 119.070747 163.452264 
L 119.476972 163.452264 
L 119.883196 163.452264 
L 120.289421 163.452264 
L 120.695645 163.452264 
L 121.101869 163.452264 
L 121.508094 163.452264 
L 121.914318 163.452264 
L 122.320543 163.452264 
L 122.726767 163.452264 
L 123.132991 163.452264 
L 123.539216 163.452264 
L 123.94544 163.452264 
L 124.351665 163.452264 
L 124.757889 163.452264 
L 125.164113 163.452264 
L 125.570338 163.452264 
L 125.976562 163.452264 
L 126.382787 163.452264 
L 126.789011 163.452264 
L 127.195235 163.452264 
L 127.60146 163.452264 
L 128.007684 163.452264 
L 128.413909 163.452264 
L 128.820133 163.452264 
L 129.226357 163.452264 
L 129.632582 163.452264 
L 130.038806 163.452264 
L 130.445031 163.452264 
L 130.851255 163.452264 
L 131.25748 163.452264 
L 131.663704 163.452264 
L 132.069928 163.452264 
L 132.476153 163.452264 
L 132.882377 163.452264 
L 133.288602 163.452264 
L 133.694826 163.452264 
L 134.10105 163.452264 
L 134.507275 163.452264 
L 134.913499 163.452264 
L 135.319724 163.452264 
L 135.725948 163.452264 
L 136.132172 163.452264 
L 136.538397 163.452264 
L 136.944621 163.452264 
L 137.350846 163.452264 
L 137.75707 163.452264 
L 138.163294 163.452264 
L 138.569519 163.452264 
L 138.975743 163.452264 
L 139.381968 163.452264 
L 139.788192 163.452264 
L 140.194416 163.452264 
L 140.600641 163.452264 
L 141.006865 163.452264 
L 141.41309 163.452264 
L 141.819314 163.452264 
L 142.225538 163.452264 
L 142.631763 163.452264 
L 143.037987 163.452264 
L 143.444212 163.452264 
L 143.850436 163.452264 
L 144.256661 163.452264 
L 144.662885 163.452264 
L 145.069109 163.452264 
L 145.475334 163.452264 
L 145.881558 163.452264 
L 146.287783 163.452264 
L 146.694007 163.452264 
L 147.100231 163.452264 
L 147.506456 163.452264 
L 147.91268 163.452264 
L 148.318905 163.452264 
L 148.725129 163.452264 
L 149.131353 163.452264 
L 149.537578 163.452264 
L 149.943802 163.452264 
L 150.350027 163.452264 
L 150.756251 163.452264 
L 151.162475 163.452264 
L 151.5687 163.452264 
L 151.974924 163.452264 
L 152.381149 163.452264 
L 152.787373 163.452264 
L 153.193597 163.452264 
L 153.599822 163.452264 
L 154.006046 163.452264 
L 154.412271 163.452264 
L 154.818495 163.452264 
L 155.224719 163.452264 
L 155.630944 163.452264 
L 156.037168 163.452264 
L 156.443393 163.452264 
L 156.849617 163.452264 
L 157.255842 163.452264 
L 157.662066 177.163385 
L 158.06829 177.163385 
L 158.474515 177.163385 
L 158.880739 177.163385 
L 159.286964 177.163385 
L 159.693188 177.163385 
L 160.099412 177.163385 
L 160.505637 177.163385 
L 160.911861 177.163385 
L 161.318086 177.163385 
L 161.72431 177.163385 
L 162.130534 177.163385 
L 162.536759 177.163385 
L 162.942983 177.163385 
L 163.349208 177.163385 
L 163.755432 177.163385 
L 164.161656 177.163385 
L 164.567881 177.163385 
L 164.974105 177.163385 
L 165.38033 177.163385 
L 165.786554 177.163385 
L 166.192778 177.163385 
L 166.599003 177.163385 
L 167.005227 177.163385 
L 167.411452 177.163385 
L 167.817676 177.163385 
L 168.2239 177.163385 
L 168.630125 177.163385 
L 169.036349 177.163385 
L 169.442574 177.163385 
L 169.848798 177.163385 
L 170.255023 177.163385 
L 170.661247 177.163385 
L 171.067471 177.163385 
L 171.473696 177.163385 
L 171.87992 177.163385 
L 172.286145 177.163385 
L 172.692369 177.163385 
L 173.098593 177.163385 
L 173.504818 177.163385 
L 173.911042 177.163385 
L 174.317267 177.163385 
L 174.723491 177.163385 
L 175.129715 177.163385 
L 175.53594 177.163385 
L 175.942164 177.163385 
L 176.348389 181.026557 
L 176.754613 181.026557 
L 177.160837 181.026557 
L 177.567062 181.026557 
L 177.973286 181.026557 
L 178.379511 181.026557 
L 178.785735 181.026557 
L 179.191959 181.026557 
L 179.598184 181.026557 
L 180.004408 181.026557 
L 180.410633 181.026557 
L 180.816857 181.026557 
L 181.223081 181.026557 
L 181.629306 181.026557 
L 182.03553 181.026557 
L 182.441755 181.026557 
L 182.847979 181.026557 
L 183.254204 181.026557 
L 183.660428 181.026557 
L 184.066652 181.026557 
L 184.472877 181.026557 
L 184.879101 181.026557 
L 185.285326 181.026557 
L 185.69155 181.026557 
L 186.097774 181.026557 
L 186.503999 181.026557 
L 186.910223 181.026557 
L 187.316448 181.026557 
L 187.722672 181.026557 
L 188.128896 181.026557 
L 188.535121 181.026557 
L 188.941345 181.026557 
L 189.34757 181.026557 
L 189.753794 181.026557 
L 190.160018 181.026557 
L 190.566243 181.026557 
L 190.972467 181.026557 
L 191.378692 181.026557 
L 191.784916 181.026557 
L 192.19114 181.026557 
L 192.597365 181.026557 
L 193.003589 181.026557 
L 193.409814 181.026557 
L 193.816038 181.026557 
L 194.222262 181.026557 
L 194.628487 181.026557 
L 195.034711 181.026557 
L 195.440936 181.026557 
L 195.84716 181.026557 
L 196.253385 181.026557 
L 196.659609 181.026557 
L 197.065833 181.026557 
L 197.472058 181.026557 
L 197.878282 181.026557 
L 198.284507 181.026557 
L 198.690731 181.026557 
L 199.096955 181.026557 
L 199.50318 181.026557 
L 199.909404 181.026557 
L 200.315629 181.026557 
L 200.721853 181.026557 
L 201.128077 181.026557 
L 201.534302 181.026557 
L 201.940526 181.026557 
L 202.346751 181.026557 
L 202.752975 181.026557 
L 203.159199 181.026557 
L 203.565424 181.026557 
L 203.971648 181.026557 
L 204.377873 181.026557 
L 204.784097 181.026557 
L 205.190321 181.026557 
L 205.596546 181.026557 
L 206.00277 181.026557 
L 206.408995 181.026557 
L 206.815219 181.026557 
L 207.221443 181.026557 
L 207.627668 181.026557 
L 208.033892 181.026557 
L 208.440117 181.026557 
L 208.846341 181.026557 
L 209.252566 181.026557 
L 209.65879 181.026557 
L 210.065014 181.026557 
L 210.471239 181.026557 
L 210.877463 181.026557 
L 211.283688 181.026557 
L 211.689912 181.026557 
L 212.096136 181.026557 
L 212.502361 181.026557 
L 212.908585 181.026557 
L 213.31481 181.026557 
L 213.721034 181.026557 
L 214.127258 181.026557 
L 214.533483 181.026557 
L 214.939707 181.026557 
L 215.345932 181.026557 
L 215.752156 181.026557 
L 216.15838 181.026557 
L 216.564605 181.026557 
L 216.970829 181.026557 
L 217.377054 181.026557 
L 217.783278 181.026557 
L 218.189502 181.026557 
L 218.595727 181.026557 
L 219.001951 181.026557 
L 219.408176 181.026557 
L 219.8144 181.026557 
L 220.220624 181.026557 
L 220.626849 181.026557 
L 221.033073 181.026557 
L 221.439298 181.026557 
L 221.845522 181.026557 
L 222.251747 181.026557 
L 222.657971 181.026557 
L 223.064195 181.026557 
L 223.47042 181.026557 
L 223.876644 181.026557 
L 224.282869 181.026557 
L 224.689093 181.026557 
L 225.095317 181.026557 
L 225.501542 181.026557 
L 225.907766 181.026557 
L 226.313991 181.026557 
L 226.720215 181.026557 
L 227.126439 181.026557 
L 227.532664 181.026557 
L 227.938888 181.026557 
L 228.345113 181.026557 
L 228.751337 181.026557 
L 229.157561 181.026557 
L 229.563786 181.026557 
L 229.97001 181.026557 
L 230.376235 181.026557 
L 230.782459 181.026557 
L 231.188683 181.026557 
L 231.594908 181.026557 
L 232.001132 181.026557 
L 232.407357 181.026557 
L 232.813581 181.026557 
L 233.219805 181.026557 
L 233.62603 181.026557 
L 234.032254 181.026557 
L 234.438479 181.026557 
L 234.844703 181.026557 
L 235.250928 181.026557 
L 235.657152 181.026557 
L 236.063376 181.026557 
L 236.469601 181.026557 
L 236.875825 181.026557 
L 237.28205 181.026557 
L 237.688274 181.026557 
L 238.094498 181.026557 
L 238.500723 181.026557 
L 238.906947 181.026557 
L 239.313172 181.026557 
L 239.719396 181.026557 
L 240.12562 181.026557 
L 240.531845 181.026557 
L 240.938069 181.026557 
L 241.344294 181.026557 
L 241.750518 181.026557 
L 242.156742 181.026557 
L 242.562967 181.026557 
L 242.969191 181.026557 
L 243.375416 181.026557 
L 243.78164 181.026557 
L 244.187864 181.026557 
L 244.594089 181.026557 
L 245.000313 181.026557 
L 245.406538 181.026557 
L 245.812762 181.026557 
L 246.218986 181.026557 
L 246.625211 181.026557 
L 247.031435 195.887603 
L 247.43766 195.887603 
L 247.843884 195.887603 
L 248.250109 195.887603 
L 248.656333 195.887603 
L 249.062557 195.887603 
L 249.468782 195.887603 
L 249.875006 195.887603 
L 250.281231 195.887603 
L 250.687455 195.887603 
L 251.093679 195.887603 
L 251.499904 195.887603 
L 251.906128 195.887603 
L 252.312353 195.887603 
L 252.718577 195.887603 
L 253.124801 195.887603 
L 253.531026 195.887603 
L 253.93725 195.887603 
L 254.343475 195.887603 
L 254.749699 195.887603 
L 255.155923 195.887603 
L 255.562148 195.887603 
L 255.968372 195.887603 
L 256.374597 195.887603 
L 256.780821 195.887603 
L 257.187045 195.887603 
L 257.59327 195.887603 
L 257.999494 195.887603 
L 258.405719 195.887603 
L 258.811943 195.887603 
L 259.218167 195.887603 
L 259.624392 195.887603 
L 260.030616 195.887603 
L 260.436841 195.887603 
L 260.843065 195.887603 
L 261.24929 195.887603 
L 261.655514 195.887603 
L 262.061738 195.887603 
L 262.467963 195.887603 
L 262.874187 195.887603 
L 263.280412 195.887603 
L 263.686636 195.887603 
L 264.09286 195.887603 
L 264.499085 195.887603 
L 264.905309 195.887603 
L 265.311534 195.887603 
L 265.717758 195.887603 
L 266.123982 195.887603 
L 266.530207 195.887603 
L 266.936431 195.887603 
L 267.342656 195.887603 
L 267.74888 195.887603 
L 268.155104 195.887603 
L 268.561329 195.887603 
L 268.967553 195.887603 
L 269.373778 195.887603 
L 269.780002 195.887603 
L 270.186226 195.887603 
L 270.592451 195.887603 
L 270.998675 195.887603 
L 271.4049 195.887603 
L 271.811124 195.887603 
L 272.217348 195.887603 
L 272.623573 195.887603 
L 273.029797 195.887603 
L 273.436022 195.887603 
L 273.842246 195.887603 
L 274.248471 195.887603 
L 274.654695 195.887603 
L 275.060919 195.887603 
L 275.467144 195.887603 
L 275.873368 195.887603 
L 276.279593 195.887603 
L 276.685817 195.887603 
L 277.092041 195.887603 
L 277.498266 195.887603 
L 277.90449 195.887603 
L 278.310715 195.887603 
L 278.716939 195.887603 
L 279.123163 195.887603 
L 279.529388 195.887603 
L 279.935612 195.887603 
L 280.341837 195.887603 
L 280.748061 195.887603 
L 281.154285 195.887603 
L 281.56051 195.887603 
L 281.966734 195.887603 
L 282.372959 195.887603 
L 282.779183 195.887603 
L 283.185407 195.887603 
L 283.591632 195.887603 
L 283.997856 195.887603 
L 284.404081 195.887603 
L 284.810305 195.887603 
L 285.216529 195.887603 
L 285.622754 195.887603 
L 286.028978 195.887603 
L 286.435203 195.887603 
L 286.841427 195.887603 
L 287.247652 195.887603 
L 287.653876 195.887603 
L 288.0601 195.887603 
L 288.466325 195.887603 
L 288.872549 195.887603 
L 289.278774 195.887603 
L 289.684998 195.887603 
L 290.091222 195.887603 
L 290.497447 195.887603 
L 290.903671 195.887603 
L 291.309896 195.887603 
L 291.71612 195.887603 
L 292.122344 195.887603 
L 292.528569 195.887603 
L 292.934793 195.887603 
L 293.341018 195.887603 
L 293.747242 195.887603 
L 294.153466 195.887603 
L 294.559691 195.887603 
L 294.965915 195.887603 
L 295.37214 195.887603 
L 295.778364 195.887603 
L 296.184588 195.887603 
L 296.590813 195.887603 
L 296.997037 195.887603 
L 297.403262 195.887603 
L 297.809486 195.887603 
L 298.21571 195.887603 
L 298.621935 195.887603 
L 299.028159 195.887603 
L 299.434384 195.887603 
L 299.840608 195.887603 
L 300.246833 195.887603 
L 300.653057 195.887603 
L 301.059281 195.887603 
L 301.465506 195.887603 
L 301.87173 195.887603 
L 302.277955 195.887603 
L 302.684179 195.887603 
L 303.090403 195.887603 
L 303.496628 195.887603 
L 303.902852 195.887603 
L 304.309077 195.887603 
L 304.715301 195.887603 
L 305.121525 195.887603 
L 305.52775 195.887603 
L 305.933974 195.887603 
L 306.340199 195.887603 
L 306.746423 195.887603 
L 307.152647 195.887603 
L 307.558872 195.887603 
L 307.965096 195.887603 
L 308.371321 195.887603 
L 308.777545 195.887603 
L 309.183769 195.887603 
L 309.589994 195.887603 
L 309.996218 195.887603 
L 310.402443 195.887603 
L 310.808667 195.887603 
L 311.214891 195.887603 
L 311.621116 195.887603 
L 312.02734 195.887603 
L 312.433565 195.887603 
L 312.839789 195.887603 
L 313.246014 195.887603 
L 313.652238 195.887603 
L 314.058462 195.887603 
L 314.464687 195.887603 
L 314.870911 195.887603 
L 315.277136 195.887603 
L 315.68336 195.887603 
L 316.089584 195.887603 
L 316.495809 195.887603 
L 316.902033 195.887603 
L 317.308258 195.887603 
L 317.714482 195.887603 
L 318.120706 195.887603 
L 318.526931 195.887603 
L 318.933155 195.887603 
L 319.33938 195.887603 
L 319.745604 195.887603 
L 320.151828 195.887603 
L 320.558053 195.887603 
L 320.964277 195.887603 
L 321.370502 195.887603 
L 321.776726 195.887603 
L 322.18295 195.887603 
L 322.589175 195.887603 
L 322.995399 195.887603 
L 323.401624 195.887603 
L 323.807848 195.887603 
L 324.214072 195.887603 
L 324.620297 195.887603 
L 325.026521 195.887603 
L 325.432746 195.887603 
L 325.83897 195.887603 
L 326.245195 195.887603 
L 326.651419 195.887603 
L 327.057643 195.887603 
L 327.463868 195.887603 
L 327.870092 195.887603 
L 328.276317 195.887603 
L 328.682541 195.887603 
L 329.088765 195.887603 
L 329.49499 195.887603 
L 329.901214 195.887603 
L 330.307439 195.887603 
L 330.713663 195.887603 
L 331.119887 195.887603 
L 331.526112 195.887603 
L 331.932336 195.887603 
L 332.338561 195.887603 
L 332.744785 195.887603 
L 333.151009 195.887603 
L 333.557234 195.887603 
L 333.963458 195.887603 
L 334.369683 195.887603 
L 334.775907 195.887603 
L 335.182131 195.887603 
L 335.588356 195.887603 
L 335.99458 195.887603 
L 336.400805 195.887603 
L 336.807029 195.887603 
L 337.213253 195.887603 
L 337.619478 195.887603 
L 338.025702 195.887603 
L 338.431927 195.887603 
L 338.838151 195.887603 
L 339.244376 195.887603 
L 339.6506 195.887603 
L 340.056824 195.887603 
L 340.463049 195.887603 
L 340.869273 195.887603 
L 341.275498 195.887603 
L 341.681722 195.887603 
L 342.087946 195.887603 
L 342.494171 195.887603 
L 342.900395 195.887603 
L 343.30662 195.887603 
L 343.712844 195.887603 
L 344.119068 195.887603 
L 344.525293 195.887603 
L 344.931517 195.887603 
L 345.337742 195.887603 
L 345.743966 195.887603 
L 346.15019 195.887603 
L 346.556415 195.887603 
L 346.962639 195.887603 
L 347.368864 195.887603 
L 347.775088 195.887603 
L 348.181312 195.887603 
L 348.587537 195.887603 
L 348.993761 195.887603 
L 349.399986 195.887603 
L 349.80621 195.887603 
L 350.212434 195.887603 
L 350.618659 195.887603 
L 351.024883 195.887603 
L 351.431108 195.887603 
L 351.837332 195.887603 
L 352.243557 195.887603 
L 352.649781 195.887603 
L 353.056005 195.887603 
L 353.46223 195.887603 
L 353.868454 195.887603 
L 354.274679 195.887603 
L 354.680903 195.887603 
L 355.087127 195.887603 
L 355.493352 195.887603 
L 355.899576 195.887603 
L 356.305801 195.887603 
L 356.712025 195.887603 
L 357.118249 195.887603 
L 357.524474 195.887603 
L 357.930698 195.887603 
L 358.336923 195.887603 
L 358.743147 195.887603 
L 359.149371 195.887603 
L 359.555596 195.887603 
L 359.96182 195.887603 
L 360.368045 195.887603 
L 360.774269 195.887603 
L 361.180493 195.887603 
L 361.586718 195.887603 
L 361.992942 195.887603 
L 362.399167 195.887603 
L 362.805391 195.887603 
L 363.211615 195.887603 
L 363.61784 195.887603 
L 364.024064 195.887603 
L 364.430289 195.887603 
L 364.836513 195.887603 
L 365.242738 195.887603 
L 365.648962 195.887603 
L 366.055186 195.887603 
L 366.461411 195.887603 
L 366.867635 195.887603 
L 367.27386 195.887603 
L 367.680084 195.887603 
L 368.086308 195.887603 
L 368.492533 195.887603 
L 368.898757 195.887603 
L 369.304982 195.887603 
L 369.711206 195.887603 
L 370.11743 195.887603 
L 370.523655 195.887603 
L 370.929879 195.887603 
L 371.336104 195.887603 
L 371.742328 195.887603 
L 372.148552 195.887603 
L 372.554777 195.887603 
L 372.961001 195.887603 
L 373.367226 195.887603 
L 373.77345 195.887603 
L 374.179674 195.887603 
L 374.585899 195.887603 
L 374.992123 195.887603 
L 375.398348 195.887603 
L 375.804572 195.887603 
L 376.210796 195.887603 
L 376.617021 195.887603 
L 377.023245 195.887603 
L 377.42947 195.887603 
L 377.835694 195.887603 
L 378.241919 195.887603 
L 378.648143 195.887603 
L 379.054367 195.887603 
L 379.460592 195.887603 
L 379.866816 195.887603 
L 380.273041 195.887603 
L 380.679265 195.887603 
L 381.085489 195.887603 
L 381.491714 195.887603 
L 381.897938 195.887603 
L 382.304163 195.887603 
L 382.710387 195.887603 
L 383.116611 195.887603 
L 383.522836 195.887603 
L 383.92906 195.887603 
L 384.335285 195.887603 
L 384.741509 195.887603 
L 385.147733 195.887603 
L 385.553958 195.887603 
L 385.960182 195.887603 
L 386.366407 195.887603 
L 386.772631 195.887603 
L 387.178855 195.887603 
L 387.58508 195.887603 
L 387.991304 195.887603 
L 388.397529 195.887603 
L 388.803753 195.887603 
L 389.209977 195.887603 
L 389.616202 195.887603 
L 390.022426 195.887603 
L 390.428651 195.887603 
L 390.834875 195.887603 
L 391.2411 195.887603 
L 391.647324 195.887603 
L 392.053548 195.887603 
L 392.459773 195.887603 
L 392.865997 195.887603 
L 393.272222 195.887603 
L 393.678446 195.887603 
L 394.08467 195.887603 
L 394.490895 195.887603 
L 394.897119 195.887603 
L 395.303344 195.887603 
L 395.709568 195.887603 
L 396.115792 195.887603 
L 396.522017 195.887603 
L 396.928241 195.887603 
L 397.334466 195.887603 
L 397.74069 195.887603 
L 398.146914 195.887603 
L 398.553139 195.887603 
L 398.959363 195.887603 
L 399.365588 195.887603 
L 399.771812 195.887603 
L 400.178036 195.887603 
L 400.584261 195.887603 
L 400.990485 195.887603 
L 401.39671 195.887603 
L 401.802934 195.887603 
L 402.209158 195.887603 
L 402.615383 195.887603 
L 403.021607 195.887603 
L 403.427832 195.887603 
L 403.834056 195.887603 
L 404.240281 195.887603 
L 404.646505 195.887603 
L 405.052729 195.887603 
L 405.458954 195.887603 
L 405.865178 195.887603 
L 406.271403 195.887603 
L 406.677627 195.887603 
L 407.083851 195.887603 
L 407.490076 195.887603 
L 407.8963 195.887603 
L 408.302525 195.887603 
L 408.708749 195.887603 
L 409.114973 195.887603 
L 409.521198 195.887603 
L 409.927422 195.887603 
L 410.333647 195.887603 
L 410.739871 195.887603 
L 411.146095 195.887603 
L 411.55232 195.887603 
L 411.958544 195.887603 
L 412.364769 195.887603 
L 412.770993 195.887603 
L 413.177217 195.887603 
L 413.583442 195.887603 
L 413.989666 195.887603 
L 414.395891 195.887603 
L 414.802115 195.887603 
L 415.208339 195.887603 
L 415.614564 195.887603 
L 416.020788 195.887603 
L 416.427013 195.887603 
L 416.833237 195.887603 
L 417.239462 195.887603 
L 417.645686 195.887603 
L 418.05191 195.887603 
L 418.458135 195.887603 
L 418.864359 195.887603 
L 419.270584 195.887603 
L 419.676808 195.887603 
L 420.083032 195.887603 
L 420.489257 195.887603 
L 420.895481 195.887603 
L 421.301706 195.887603 
L 421.70793 195.887603 
L 422.114154 195.887603 
L 422.520379 195.887603 
L 422.926603 195.887603 
L 423.332828 195.887603 
L 423.739052 195.887603 
L 424.145276 195.887603 
L 424.551501 195.887603 
L 424.957725 195.887603 
L 425.36395 195.887603 
L 425.770174 195.887603 
L 426.176398 195.887603 
L 426.582623 195.887603 
L 426.988847 195.887603 
L 427.395072 195.887603 
L 427.801296 195.887603 
L 428.20752 195.887603 
L 428.613745 195.887603 
L 429.019969 195.887603 
L 429.426194 195.887603 
L 429.832418 195.887603 
L 430.238643 195.887603 
L 430.644867 195.887603 
L 431.051091 195.887603 
L 431.457316 195.887603 
L 431.86354 195.887603 
L 432.269765 195.887603 
L 432.675989 195.887603 
L 433.082213 195.887603 
L 433.488438 195.887603 
L 433.894662 195.887603 
L 434.300887 195.887603 
L 434.707111 195.887603 
L 435.113335 195.887603 
L 435.51956 195.887603 
L 435.925784 195.887603 
L 436.332009 195.887603 
L 436.738233 195.887603 
L 437.144457 195.887603 
L 437.550682 195.887603 
L 437.956906 195.887603 
L 438.363131 195.887603 
L 438.769355 195.887603 
L 439.175579 195.887603 
L 439.581804 195.887603 
L 439.988028 195.887603 
L 440.394253 195.887603 
L 440.800477 195.887603 
L 441.206701 195.887603 
L 441.612926 195.887603 
L 442.01915 195.887603 
L 442.425375 195.887603 
L 442.831599 195.887603 
L 443.237824 195.887603 
L 443.644048 195.887603 
L 444.050272 195.887603 
L 444.456497 195.887603 
L 444.862721 195.887603 
L 445.268946 195.887603 
L 445.67517 195.887603 
L 446.081394 195.887603 
L 446.487619 195.887603 
L 446.893843 195.887603 
L 447.300068 195.887603 
L 447.706292 195.887603 
L 448.112516 195.887603 
L 448.518741 195.887603 
L 448.924965 195.887603 
L 449.33119 195.887603 
L 449.737414 195.887603 
L 450.143638 195.887603 
L 450.549863 195.887603 
L 450.956087 195.887603 
L 451.362312 195.887603 
L 451.768536 195.887603 
L 452.17476 195.887603 
L 452.580985 195.887603 
L 452.987209 195.887603 
L 453.393434 195.887603 
L 453.799658 195.887603 
L 454.205882 195.887603 
L 454.612107 195.887603 
L 455.018331 195.887603 
L 455.424556 195.887603 
L 455.83078 195.887603 
L 456.237005 195.887603 
L 456.643229 195.887603 
L 457.049453 195.887603 
L 457.455678 195.887603 
L 457.861902 195.887603 
L 458.268127 195.887603 
L 458.674351 195.887603 
L 459.080575 195.887603 
L 459.4868 195.887603 
L 459.893024 195.887603 
L 460.299249 195.887603 
L 460.705473 195.887603 
L 461.111697 195.887603 
L 461.517922 195.887603 
L 461.924146 195.887603 
L 462.330371 195.887603 
L 462.736595 195.887603 
L 463.142819 195.887603 
L 463.549044 195.887603 
L 463.955268 195.887603 
L 464.361493 195.887603 
L 464.767717 195.887603 
L 465.173941 195.887603 
L 465.580166 195.887603 
L 465.98639 195.887603 
L 466.392615 195.887603 
L 466.798839 195.887603 
L 467.205063 195.887603 
L 467.611288 195.887603 
L 468.017512 195.887603 
L 468.423737 195.887603 
L 468.829961 195.887603 
L 469.236186 195.887603 
L 469.64241 195.887603 
L 470.048634 195.887603 
L 470.454859 195.887603 
L 470.861083 195.887603 
L 471.267308 195.887603 
L 471.673532 195.887603 
L 472.079756 195.887603 
L 472.485981 195.887603 
L 472.892205 195.887603 
L 473.29843 195.887603 
L 473.704654 195.887603 
L 474.110878 195.887603 
L 474.517103 195.887603 
L 474.923327 195.887603 
L 475.329552 195.887603 
L 475.735776 195.887603 
L 476.142 195.887603 
L 476.548225 195.887603 
L 476.954449 195.887603 
L 477.360674 195.887603 
L 477.766898 195.887603 
L 478.173122 195.887603 
L 478.579347 195.887603 
L 478.985571 195.887603 
L 479.391796 195.887603 
L 479.79802 195.887603 
L 480.204244 195.887603 
L 480.610469 195.887603 
L 481.016693 195.887603 
L 481.422918 195.887603 
L 481.829142 195.887603 
L 482.235367 195.887603 
L 482.641591 195.887603 
L 482.641591 133.42014 
L 482.641591 133.42014 
L 482.235367 133.42014 
L 481.829142 133.42014 
L 481.422918 133.42014 
L 481.016693 133.42014 
L 480.610469 133.42014 
L 480.204244 133.42014 
L 479.79802 133.42014 
L 479.391796 133.42014 
L 478.985571 133.42014 
L 478.579347 133.42014 
L 478.173122 133.42014 
L 477.766898 133.42014 
L 477.360674 133.42014 
L 476.954449 133.42014 
L 476.548225 133.42014 
L 476.142 133.42014 
L 475.735776 133.42014 
L 475.329552 133.42014 
L 474.923327 133.42014 
L 474.517103 133.42014 
L 474.110878 133.42014 
L 473.704654 133.42014 
L 473.29843 133.42014 
L 472.892205 133.42014 
L 472.485981 133.42014 
L 472.079756 133.42014 
L 471.673532 133.42014 
L 471.267308 133.42014 
L 470.861083 133.42014 
L 470.454859 133.42014 
L 470.048634 133.42014 
L 469.64241 133.42014 
L 469.236186 133.42014 
L 468.829961 133.42014 
L 468.423737 133.42014 
L 468.017512 133.42014 
L 467.611288 133.42014 
L 467.205063 133.42014 
L 466.798839 133.42014 
L 466.392615 133.42014 
L 465.98639 133.42014 
L 465.580166 133.42014 
L 465.173941 133.42014 
L 464.767717 133.42014 
L 464.361493 133.42014 
L 463.955268 133.42014 
L 463.549044 133.42014 
L 463.142819 133.42014 
L 462.736595 133.42014 
L 462.330371 133.42014 
L 461.924146 133.42014 
L 461.517922 133.42014 
L 461.111697 133.42014 
L 460.705473 133.42014 
L 460.299249 133.42014 
L 459.893024 133.42014 
L 459.4868 133.42014 
L 459.080575 133.42014 
L 458.674351 133.42014 
L 458.268127 133.42014 
L 457.861902 133.42014 
L 457.455678 133.42014 
L 457.049453 133.42014 
L 456.643229 133.42014 
L 456.237005 133.42014 
L 455.83078 133.42014 
L 455.424556 133.42014 
L 455.018331 133.42014 
L 454.612107 133.42014 
L 454.205882 133.42014 
L 453.799658 133.42014 
L 453.393434 133.42014 
L 452.987209 133.42014 
L 452.580985 133.42014 
L 452.17476 133.42014 
L 451.768536 133.42014 
L 451.362312 133.42014 
L 450.956087 133.42014 
L 450.549863 133.42014 
L 450.143638 133.42014 
L 449.737414 133.42014 
L 449.33119 133.42014 
L 448.924965 133.42014 
L 448.518741 133.42014 
L 448.112516 133.42014 
L 447.706292 133.42014 
L 447.300068 133.42014 
L 446.893843 133.42014 
L 446.487619 133.42014 
L 446.081394 133.42014 
L 445.67517 133.42014 
L 445.268946 133.42014 
L 444.862721 133.42014 
L 444.456497 133.42014 
L 444.050272 133.42014 
L 443.644048 133.42014 
L 443.237824 133.42014 
L 442.831599 133.42014 
L 442.425375 133.42014 
L 442.01915 133.42014 
L 441.612926 133.42014 
L 441.206701 133.42014 
L 440.800477 133.42014 
L 440.394253 133.42014 
L 439.988028 133.42014 
L 439.581804 133.42014 
L 439.175579 133.42014 
L 438.769355 133.42014 
L 438.363131 133.42014 
L 437.956906 133.42014 
L 437.550682 133.42014 
L 437.144457 133.42014 
L 436.738233 133.42014 
L 436.332009 133.42014 
L 435.925784 133.42014 
L 435.51956 133.42014 
L 435.113335 133.42014 
L 434.707111 133.42014 
L 434.300887 133.42014 
L 433.894662 133.42014 
L 433.488438 133.42014 
L 433.082213 133.42014 
L 432.675989 133.42014 
L 432.269765 133.42014 
L 431.86354 133.42014 
L 431.457316 133.42014 
L 431.051091 133.42014 
L 430.644867 133.42014 
L 430.238643 133.42014 
L 429.832418 133.42014 
L 429.426194 133.42014 
L 429.019969 133.42014 
L 428.613745 133.42014 
L 428.20752 133.42014 
L 427.801296 133.42014 
L 427.395072 133.42014 
L 426.988847 133.42014 
L 426.582623 133.42014 
L 426.176398 133.42014 
L 425.770174 133.42014 
L 425.36395 133.42014 
L 424.957725 133.42014 
L 424.551501 133.42014 
L 424.145276 133.42014 
L 423.739052 133.42014 
L 423.332828 133.42014 
L 422.926603 133.42014 
L 422.520379 133.42014 
L 422.114154 133.42014 
L 421.70793 133.42014 
L 421.301706 133.42014 
L 420.895481 133.42014 
L 420.489257 133.42014 
L 420.083032 133.42014 
L 419.676808 133.42014 
L 419.270584 133.42014 
L 418.864359 133.42014 
L 418.458135 133.42014 
L 418.05191 133.42014 
L 417.645686 133.42014 
L 417.239462 133.42014 
L 416.833237 133.42014 
L 416.427013 133.42014 
L 416.020788 133.42014 
L 415.614564 133.42014 
L 415.208339 133.42014 
L 414.802115 133.42014 
L 414.395891 133.42014 
L 413.989666 133.42014 
L 413.583442 133.42014 
L 413.177217 133.42014 
L 412.770993 133.42014 
L 412.364769 133.42014 
L 411.958544 133.42014 
L 411.55232 133.42014 
L 411.146095 133.42014 
L 410.739871 133.42014 
L 410.333647 133.42014 
L 409.927422 133.42014 
L 409.521198 133.42014 
L 409.114973 133.42014 
L 408.708749 133.42014 
L 408.302525 133.42014 
L 407.8963 133.42014 
L 407.490076 133.42014 
L 407.083851 133.42014 
L 406.677627 133.42014 
L 406.271403 133.42014 
L 405.865178 133.42014 
L 405.458954 133.42014 
L 405.052729 133.42014 
L 404.646505 133.42014 
L 404.240281 133.42014 
L 403.834056 133.42014 
L 403.427832 133.42014 
L 403.021607 133.42014 
L 402.615383 133.42014 
L 402.209158 133.42014 
L 401.802934 133.42014 
L 401.39671 133.42014 
L 400.990485 133.42014 
L 400.584261 133.42014 
L 400.178036 133.42014 
L 399.771812 133.42014 
L 399.365588 133.42014 
L 398.959363 133.42014 
L 398.553139 133.42014 
L 398.146914 133.42014 
L 397.74069 133.42014 
L 397.334466 133.42014 
L 396.928241 133.42014 
L 396.522017 133.42014 
L 396.115792 133.42014 
L 395.709568 133.42014 
L 395.303344 133.42014 
L 394.897119 133.42014 
L 394.490895 133.42014 
L 394.08467 133.42014 
L 393.678446 133.42014 
L 393.272222 133.42014 
L 392.865997 133.42014 
L 392.459773 133.42014 
L 392.053548 133.42014 
L 391.647324 133.42014 
L 391.2411 133.42014 
L 390.834875 133.42014 
L 390.428651 133.42014 
L 390.022426 133.42014 
L 389.616202 133.42014 
L 389.209977 133.42014 
L 388.803753 133.42014 
L 388.397529 133.42014 
L 387.991304 133.42014 
L 387.58508 133.42014 
L 387.178855 133.42014 
L 386.772631 133.42014 
L 386.366407 133.42014 
L 385.960182 133.42014 
L 385.553958 133.42014 
L 385.147733 133.42014 
L 384.741509 133.42014 
L 384.335285 133.42014 
L 383.92906 133.42014 
L 383.522836 133.42014 
L 383.116611 133.42014 
L 382.710387 133.42014 
L 382.304163 133.42014 
L 381.897938 133.42014 
L 381.491714 133.42014 
L 381.085489 133.42014 
L 380.679265 133.42014 
L 380.273041 133.42014 
L 379.866816 133.42014 
L 379.460592 133.42014 
L 379.054367 133.42014 
L 378.648143 133.42014 
L 378.241919 133.42014 
L 377.835694 133.42014 
L 377.42947 133.42014 
L 377.023245 133.42014 
L 376.617021 133.42014 
L 376.210796 133.42014 
L 375.804572 133.42014 
L 375.398348 133.42014 
L 374.992123 133.42014 
L 374.585899 133.42014 
L 374.179674 133.42014 
L 373.77345 133.42014 
L 373.367226 133.42014 
L 372.961001 133.42014 
L 372.554777 133.42014 
L 372.148552 133.42014 
L 371.742328 133.42014 
L 371.336104 133.42014 
L 370.929879 133.42014 
L 370.523655 133.42014 
L 370.11743 133.42014 
L 369.711206 133.42014 
L 369.304982 133.42014 
L 368.898757 133.42014 
L 368.492533 133.42014 
L 368.086308 133.42014 
L 367.680084 133.42014 
L 367.27386 133.42014 
L 366.867635 133.42014 
L 366.461411 133.42014 
L 366.055186 133.42014 
L 365.648962 133.42014 
L 365.242738 133.42014 
L 364.836513 133.42014 
L 364.430289 133.42014 
L 364.024064 133.42014 
L 363.61784 133.42014 
L 363.211615 133.42014 
L 362.805391 133.42014 
L 362.399167 133.42014 
L 361.992942 133.42014 
L 361.586718 133.42014 
L 361.180493 133.42014 
L 360.774269 133.42014 
L 360.368045 133.42014 
L 359.96182 133.42014 
L 359.555596 133.42014 
L 359.149371 133.42014 
L 358.743147 133.42014 
L 358.336923 133.42014 
L 357.930698 133.42014 
L 357.524474 133.42014 
L 357.118249 133.42014 
L 356.712025 133.42014 
L 356.305801 133.42014 
L 355.899576 133.42014 
L 355.493352 133.42014 
L 355.087127 133.42014 
L 354.680903 133.42014 
L 354.274679 133.42014 
L 353.868454 133.42014 
L 353.46223 133.42014 
L 353.056005 133.42014 
L 352.649781 133.42014 
L 352.243557 133.42014 
L 351.837332 133.42014 
L 351.431108 133.42014 
L 351.024883 133.42014 
L 350.618659 133.42014 
L 350.212434 133.42014 
L 349.80621 133.42014 
L 349.399986 133.42014 
L 348.993761 133.42014 
L 348.587537 133.42014 
L 348.181312 133.42014 
L 347.775088 133.42014 
L 347.368864 133.42014 
L 346.962639 133.42014 
L 346.556415 133.42014 
L 346.15019 133.42014 
L 345.743966 133.42014 
L 345.337742 133.42014 
L 344.931517 133.42014 
L 344.525293 133.42014 
L 344.119068 133.42014 
L 343.712844 133.42014 
L 343.30662 133.42014 
L 342.900395 133.42014 
L 342.494171 133.42014 
L 342.087946 133.42014 
L 341.681722 133.42014 
L 341.275498 133.42014 
L 340.869273 133.42014 
L 340.463049 133.42014 
L 340.056824 133.42014 
L 339.6506 133.42014 
L 339.244376 133.42014 
L 338.838151 133.42014 
L 338.431927 133.42014 
L 338.025702 133.42014 
L 337.619478 133.42014 
L 337.213253 133.42014 
L 336.807029 133.42014 
L 336.400805 133.42014 
L 335.99458 133.42014 
L 335.588356 133.42014 
L 335.182131 133.42014 
L 334.775907 133.42014 
L 334.369683 133.42014 
L 333.963458 133.42014 
L 333.557234 133.42014 
L 333.151009 133.42014 
L 332.744785 133.42014 
L 332.338561 133.42014 
L 331.932336 133.42014 
L 331.526112 133.42014 
L 331.119887 133.42014 
L 330.713663 133.42014 
L 330.307439 133.42014 
L 329.901214 133.42014 
L 329.49499 133.42014 
L 329.088765 133.42014 
L 328.682541 133.42014 
L 328.276317 133.42014 
L 327.870092 133.42014 
L 327.463868 133.42014 
L 327.057643 133.42014 
L 326.651419 133.42014 
L 326.245195 133.42014 
L 325.83897 133.42014 
L 325.432746 133.42014 
L 325.026521 133.42014 
L 324.620297 133.42014 
L 324.214072 133.42014 
L 323.807848 133.42014 
L 323.401624 133.42014 
L 322.995399 133.42014 
L 322.589175 133.42014 
L 322.18295 133.42014 
L 321.776726 133.42014 
L 321.370502 133.42014 
L 320.964277 133.42014 
L 320.558053 133.42014 
L 320.151828 133.42014 
L 319.745604 133.42014 
L 319.33938 133.42014 
L 318.933155 133.42014 
L 318.526931 133.42014 
L 318.120706 133.42014 
L 317.714482 133.42014 
L 317.308258 133.42014 
L 316.902033 133.42014 
L 316.495809 133.42014 
L 316.089584 133.42014 
L 315.68336 133.42014 
L 315.277136 133.42014 
L 314.870911 133.42014 
L 314.464687 133.42014 
L 314.058462 133.42014 
L 313.652238 133.42014 
L 313.246014 133.42014 
L 312.839789 133.42014 
L 312.433565 133.42014 
L 312.02734 133.42014 
L 311.621116 133.42014 
L 311.214891 133.42014 
L 310.808667 133.42014 
L 310.402443 133.42014 
L 309.996218 133.42014 
L 309.589994 133.42014 
L 309.183769 133.42014 
L 308.777545 133.42014 
L 308.371321 133.42014 
L 307.965096 133.42014 
L 307.558872 133.42014 
L 307.152647 133.42014 
L 306.746423 133.42014 
L 306.340199 133.42014 
L 305.933974 133.42014 
L 305.52775 133.42014 
L 305.121525 133.42014 
L 304.715301 133.42014 
L 304.309077 133.42014 
L 303.902852 133.42014 
L 303.496628 133.42014 
L 303.090403 133.42014 
L 302.684179 133.42014 
L 302.277955 133.42014 
L 301.87173 133.42014 
L 301.465506 133.42014 
L 301.059281 133.42014 
L 300.653057 133.42014 
L 300.246833 133.42014 
L 299.840608 133.42014 
L 299.434384 133.42014 
L 299.028159 133.42014 
L 298.621935 133.42014 
L 298.21571 133.42014 
L 297.809486 133.42014 
L 297.403262 133.42014 
L 296.997037 133.42014 
L 296.590813 133.42014 
L 296.184588 133.42014 
L 295.778364 133.42014 
L 295.37214 133.42014 
L 294.965915 133.42014 
L 294.559691 133.42014 
L 294.153466 133.42014 
L 293.747242 133.42014 
L 293.341018 133.42014 
L 292.934793 133.42014 
L 292.528569 133.42014 
L 292.122344 133.42014 
L 291.71612 133.42014 
L 291.309896 133.42014 
L 290.903671 133.42014 
L 290.497447 133.42014 
L 290.091222 133.42014 
L 289.684998 133.42014 
L 289.278774 133.42014 
L 288.872549 133.42014 
L 288.466325 133.42014 
L 288.0601 133.42014 
L 287.653876 133.42014 
L 287.247652 133.42014 
L 286.841427 133.42014 
L 286.435203 133.42014 
L 286.028978 133.42014 
L 285.622754 133.42014 
L 285.216529 133.42014 
L 284.810305 133.42014 
L 284.404081 133.42014 
L 283.997856 133.42014 
L 283.591632 133.42014 
L 283.185407 133.42014 
L 282.779183 133.42014 
L 282.372959 133.42014 
L 281.966734 133.42014 
L 281.56051 133.42014 
L 281.154285 133.42014 
L 280.748061 133.42014 
L 280.341837 133.42014 
L 279.935612 133.42014 
L 279.529388 133.42014 
L 279.123163 133.42014 
L 278.716939 133.42014 
L 278.310715 133.42014 
L 277.90449 133.42014 
L 277.498266 133.42014 
L 277.092041 133.42014 
L 276.685817 133.42014 
L 276.279593 133.42014 
L 275.873368 133.42014 
L 275.467144 133.42014 
L 275.060919 133.42014 
L 274.654695 133.42014 
L 274.248471 133.42014 
L 273.842246 133.42014 
L 273.436022 133.42014 
L 273.029797 133.42014 
L 272.623573 133.42014 
L 272.217348 133.42014 
L 271.811124 133.42014 
L 271.4049 133.42014 
L 270.998675 133.42014 
L 270.592451 133.42014 
L 270.186226 133.42014 
L 269.780002 133.42014 
L 269.373778 133.42014 
L 268.967553 133.42014 
L 268.561329 133.42014 
L 268.155104 133.42014 
L 267.74888 133.42014 
L 267.342656 133.42014 
L 266.936431 133.42014 
L 266.530207 133.42014 
L 266.123982 133.42014 
L 265.717758 133.42014 
L 265.311534 133.42014 
L 264.905309 133.42014 
L 264.499085 133.42014 
L 264.09286 133.42014 
L 263.686636 133.42014 
L 263.280412 133.42014 
L 262.874187 133.42014 
L 262.467963 133.42014 
L 262.061738 133.42014 
L 261.655514 133.42014 
L 261.24929 133.42014 
L 260.843065 133.42014 
L 260.436841 133.42014 
L 260.030616 133.42014 
L 259.624392 133.42014 
L 259.218167 133.42014 
L 258.811943 133.42014 
L 258.405719 133.42014 
L 257.999494 133.42014 
L 257.59327 133.42014 
L 257.187045 133.42014 
L 256.780821 133.42014 
L 256.374597 133.42014 
L 255.968372 133.42014 
L 255.562148 133.42014 
L 255.155923 133.42014 
L 254.749699 133.42014 
L 254.343475 133.42014 
L 253.93725 133.42014 
L 253.531026 133.42014 
L 253.124801 133.42014 
L 252.718577 133.42014 
L 252.312353 133.42014 
L 251.906128 133.42014 
L 251.499904 133.42014 
L 251.093679 133.42014 
L 250.687455 133.42014 
L 250.281231 133.42014 
L 249.875006 133.42014 
L 249.468782 133.42014 
L 249.062557 133.42014 
L 248.656333 133.42014 
L 248.250109 133.42014 
L 247.843884 133.42014 
L 247.43766 133.42014 
L 247.031435 133.42014 
L 246.625211 126.808567 
L 246.218986 126.808567 
L 245.812762 126.808567 
L 245.406538 126.808567 
L 245.000313 126.808567 
L 244.594089 126.808567 
L 244.187864 126.808567 
L 243.78164 126.808567 
L 243.375416 126.808567 
L 242.969191 126.808567 
L 242.562967 126.808567 
L 242.156742 126.808567 
L 241.750518 126.808567 
L 241.344294 126.808567 
L 240.938069 126.808567 
L 240.531845 126.808567 
L 240.12562 126.808567 
L 239.719396 126.808567 
L 239.313172 126.808567 
L 238.906947 126.808567 
L 238.500723 126.808567 
L 238.094498 126.808567 
L 237.688274 126.808567 
L 237.28205 126.808567 
L 236.875825 126.808567 
L 236.469601 126.808567 
L 236.063376 126.808567 
L 235.657152 126.808567 
L 235.250928 126.808567 
L 234.844703 126.808567 
L 234.438479 126.808567 
L 234.032254 126.808567 
L 233.62603 126.808567 
L 233.219805 126.808567 
L 232.813581 126.808567 
L 232.407357 126.808567 
L 232.001132 126.808567 
L 231.594908 126.808567 
L 231.188683 126.808567 
L 230.782459 126.808567 
L 230.376235 126.808567 
L 229.97001 126.808567 
L 229.563786 126.808567 
L 229.157561 126.808567 
L 228.751337 126.808567 
L 228.345113 126.808567 
L 227.938888 126.808567 
L 227.532664 126.808567 
L 227.126439 126.808567 
L 226.720215 126.808567 
L 226.313991 126.808567 
L 225.907766 126.808567 
L 225.501542 126.808567 
L 225.095317 126.808567 
L 224.689093 126.808567 
L 224.282869 126.808567 
L 223.876644 126.808567 
L 223.47042 126.808567 
L 223.064195 126.808567 
L 222.657971 126.808567 
L 222.251747 126.808567 
L 221.845522 126.808567 
L 221.439298 126.808567 
L 221.033073 126.808567 
L 220.626849 126.808567 
L 220.220624 126.808567 
L 219.8144 126.808567 
L 219.408176 126.808567 
L 219.001951 126.808567 
L 218.595727 126.808567 
L 218.189502 126.808567 
L 217.783278 126.808567 
L 217.377054 126.808567 
L 216.970829 126.808567 
L 216.564605 126.808567 
L 216.15838 126.808567 
L 215.752156 126.808567 
L 215.345932 126.808567 
L 214.939707 126.808567 
L 214.533483 126.808567 
L 214.127258 126.808567 
L 213.721034 126.808567 
L 213.31481 126.808567 
L 212.908585 126.808567 
L 212.502361 126.808567 
L 212.096136 126.808567 
L 211.689912 126.808567 
L 211.283688 126.808567 
L 210.877463 126.808567 
L 210.471239 126.808567 
L 210.065014 126.808567 
L 209.65879 126.808567 
L 209.252566 126.808567 
L 208.846341 126.808567 
L 208.440117 126.808567 
L 208.033892 126.808567 
L 207.627668 126.808567 
L 207.221443 126.808567 
L 206.815219 126.808567 
L 206.408995 126.808567 
L 206.00277 126.808567 
L 205.596546 126.808567 
L 205.190321 126.808567 
L 204.784097 126.808567 
L 204.377873 126.808567 
L 203.971648 126.808567 
L 203.565424 126.808567 
L 203.159199 126.808567 
L 202.752975 126.808567 
L 202.346751 126.808567 
L 201.940526 126.808567 
L 201.534302 126.808567 
L 201.128077 126.808567 
L 200.721853 126.808567 
L 200.315629 126.808567 
L 199.909404 126.808567 
L 199.50318 126.808567 
L 199.096955 126.808567 
L 198.690731 126.808567 
L 198.284507 126.808567 
L 197.878282 126.808567 
L 197.472058 126.808567 
L 197.065833 126.808567 
L 196.659609 126.808567 
L 196.253385 126.808567 
L 195.84716 126.808567 
L 195.440936 126.808567 
L 195.034711 126.808567 
L 194.628487 126.808567 
L 194.222262 126.808567 
L 193.816038 126.808567 
L 193.409814 126.808567 
L 193.003589 126.808567 
L 192.597365 126.808567 
L 192.19114 126.808567 
L 191.784916 126.808567 
L 191.378692 126.808567 
L 190.972467 126.808567 
L 190.566243 126.808567 
L 190.160018 126.808567 
L 189.753794 126.808567 
L 189.34757 126.808567 
L 188.941345 126.808567 
L 188.535121 126.808567 
L 188.128896 126.808567 
L 187.722672 126.808567 
L 187.316448 126.808567 
L 186.910223 126.808567 
L 186.503999 126.808567 
L 186.097774 126.808567 
L 185.69155 126.808567 
L 185.285326 126.808567 
L 184.879101 126.808567 
L 184.472877 126.808567 
L 184.066652 126.808567 
L 183.660428 126.808567 
L 183.254204 126.808567 
L 182.847979 126.808567 
L 182.441755 126.808567 
L 182.03553 126.808567 
L 181.629306 126.808567 
L 181.223081 126.808567 
L 180.816857 126.808567 
L 180.410633 126.808567 
L 180.004408 126.808567 
L 179.598184 126.808567 
L 179.191959 126.808567 
L 178.785735 126.808567 
L 178.379511 126.808567 
L 177.973286 126.808567 
L 177.567062 126.808567 
L 177.160837 126.808567 
L 176.754613 126.808567 
L 176.348389 126.808567 
L 175.942164 104.799202 
L 175.53594 104.799202 
L 175.129715 104.799202 
L 174.723491 104.799202 
L 174.317267 104.799202 
L 173.911042 104.799202 
L 173.504818 104.799202 
L 173.098593 104.799202 
L 172.692369 104.799202 
L 172.286145 104.799202 
L 171.87992 104.799202 
L 171.473696 104.799202 
L 171.067471 104.799202 
L 170.661247 104.799202 
L 170.255023 104.799202 
L 169.848798 104.799202 
L 169.442574 104.799202 
L 169.036349 104.799202 
L 168.630125 104.799202 
L 168.2239 104.799202 
L 167.817676 104.799202 
L 167.411452 104.799202 
L 167.005227 104.799202 
L 166.599003 104.799202 
L 166.192778 104.799202 
L 165.786554 104.799202 
L 165.38033 104.799202 
L 164.974105 104.799202 
L 164.567881 104.799202 
L 164.161656 104.799202 
L 163.755432 104.799202 
L 163.349208 104.799202 
L 162.942983 104.799202 
L 162.536759 104.799202 
L 162.130534 104.799202 
L 161.72431 104.799202 
L 161.318086 104.799202 
L 160.911861 104.799202 
L 160.505637 104.799202 
L 160.099412 104.799202 
L 159.693188 104.799202 
L 159.286964 104.799202 
L 158.880739 104.799202 
L 158.474515 104.799202 
L 158.06829 104.799202 
L 157.662066 104.799202 
L 157.255842 83.95036 
L 156.849617 83.95036 
L 156.443393 83.95036 
L 156.037168 83.95036 
L 155.630944 83.95036 
L 155.224719 83.95036 
L 154.818495 83.95036 
L 154.412271 83.95036 
L 154.006046 83.95036 
L 153.599822 83.95036 
L 153.193597 83.95036 
L 152.787373 83.95036 
L 152.381149 83.95036 
L 151.974924 83.95036 
L 151.5687 83.95036 
L 151.162475 83.95036 
L 150.756251 83.95036 
L 150.350027 83.95036 
L 149.943802 83.95036 
L 149.537578 83.95036 
L 149.131353 83.95036 
L 148.725129 83.95036 
L 148.318905 83.95036 
L 147.91268 83.95036 
L 147.506456 83.95036 
L 147.100231 83.95036 
L 146.694007 83.95036 
L 146.287783 83.95036 
L 145.881558 83.95036 
L 145.475334 83.95036 
L 145.069109 83.95036 
L 144.662885 83.95036 
L 144.256661 83.95036 
L 143.850436 83.95036 
L 143.444212 83.95036 
L 143.037987 83.95036 
L 142.631763 83.95036 
L 142.225538 83.95036 
L 141.819314 83.95036 
L 141.41309 83.95036 
L 141.006865 83.95036 
L 140.600641 83.95036 
L 140.194416 83.95036 
L 139.788192 83.95036 
L 139.381968 83.95036 
L 138.975743 83.95036 
L 138.569519 83.95036 
L 138.163294 83.95036 
L 137.75707 83.95036 
L 137.350846 83.95036 
L 136.944621 83.95036 
L 136.538397 83.95036 
L 136.132172 83.95036 
L 135.725948 83.95036 
L 135.319724 83.95036 
L 134.913499 83.95036 
L 134.507275 83.95036 
L 134.10105 83.95036 
L 133.694826 83.95036 
L 133.288602 83.95036 
L 132.882377 83.95036 
L 132.476153 83.95036 
L 132.069928 83.95036 
L 131.663704 83.95036 
L 131.25748 83.95036 
L 130.851255 83.95036 
L 130.445031 83.95036 
L 130.038806 83.95036 
L 129.632582 83.95036 
L 129.226357 83.95036 
L 128.820133 83.95036 
L 128.413909 83.95036 
L 128.007684 83.95036 
L 127.60146 83.95036 
L 127.195235 83.95036 
L 126.789011 83.95036 
L 126.382787 83.95036 
L 125.976562 83.95036 
L 125.570338 83.95036 
L 125.164113 83.95036 
L 124.757889 83.95036 
L 124.351665 83.95036 
L 123.94544 83.95036 
L 123.539216 83.95036 
L 123.132991 83.95036 
L 122.726767 83.95036 
L 122.320543 83.95036 
L 121.914318 83.95036 
L 121.508094 83.95036 
L 121.101869 83.95036 
L 120.695645 83.95036 
L 120.289421 83.95036 
L 119.883196 83.95036 
L 119.476972 83.95036 
L 119.070747 83.95036 
L 118.664523 83.95036 
L 118.258299 83.95036 
L 117.852074 83.95036 
L 117.44585 83.95036 
L 117.039625 83.95036 
L 116.633401 83.95036 
L 116.227176 83.95036 
L 115.820952 83.95036 
L 115.414728 83.95036 
L 115.008503 83.95036 
L 114.602279 83.95036 
L 114.196054 83.95036 
L 113.78983 83.95036 
L 113.383606 83.95036 
L 112.977381 83.95036 
L 112.571157 83.95036 
L 112.164932 83.95036 
L 111.758708 83.95036 
L 111.352484 83.95036 
L 110.946259 83.95036 
L 110.540035 83.95036 
L 110.13381 83.95036 
L 109.727586 83.95036 
L 109.321362 83.95036 
L 108.915137 83.95036 
L 108.508913 83.95036 
L 108.102688 83.95036 
L 107.696464 83.95036 
L 107.29024 83.95036 
L 106.884015 83.95036 
L 106.477791 83.95036 
L 106.071566 83.95036 
L 105.665342 83.95036 
L 105.259118 83.95036 
L 104.852893 83.95036 
L 104.446669 83.95036 
L 104.040444 83.95036 
L 103.63422 83.95036 
L 103.227995 83.95036 
L 102.821771 83.95036 
L 102.415547 83.95036 
L 102.009322 83.95036 
L 101.603098 83.95036 
L 101.196873 83.95036 
L 100.790649 83.95036 
L 100.384425 83.95036 
L 99.9782 83.95036 
L 99.571976 83.95036 
L 99.165751 83.95036 
L 98.759527 83.95036 
L 98.353303 83.95036 
L 97.947078 83.95036 
L 97.540854 83.95036 
L 97.134629 83.95036 
L 96.728405 83.95036 
L 96.322181 83.95036 
L 95.915956 83.95036 
L 95.509732 83.95036 
L 95.103507 83.95036 
L 94.697283 83.95036 
L 94.291059 83.95036 
L 93.884834 83.95036 
L 93.47861 83.95036 
L 93.072385 83.95036 
L 92.666161 83.95036 
L 92.259937 83.95036 
L 91.853712 83.95036 
L 91.447488 83.95036 
L 91.041263 83.95036 
L 90.635039 83.95036 
L 90.228814 83.95036 
L 89.82259 83.95036 
L 89.416366 83.95036 
L 89.010141 83.95036 
L 88.603917 83.95036 
L 88.197692 83.95036 
L 87.791468 83.95036 
L 87.385244 83.95036 
L 86.979019 83.95036 
L 86.572795 83.95036 
L 86.16657 83.95036 
L 85.760346 83.95036 
L 85.354122 83.95036 
L 84.947897 83.95036 
L 84.541673 83.95036 
L 84.135448 83.95036 
L 83.729224 83.95036 
L 83.323 83.95036 
L 82.916775 83.95036 
L 82.510551 83.95036 
L 82.104326 83.95036 
L 81.698102 83.95036 
L 81.291878 83.95036 
L 80.885653 83.95036 
L 80.479429 83.95036 
L 80.073204 83.95036 
L 79.66698 83.95036 
L 79.260756 83.95036 
L 78.854531 83.95036 
L 78.448307 83.95036 
L 78.042082 83.95036 
L 77.635858 83.95036 
L 77.229633 83.95036 
L 76.823409 83.95036 
z
" style="fill:#1f77b4;fill-opacity:0.4;"/>
   </g>
   <g id="PathCollection_1">
    <defs>
     <path d="M 0 3 
C 0.795609 3 1.55874 2.683901 2.12132 2.12132 
C 2.683901 1.55874 3 0.795609 3 0 
C 3 -0.795609 2.683901 -1.55874 2.12132 -2.12132 
C 1.55874 -2.683901 0.795609 -3 0 -3 
C -0.795609 -3 -1.55874 -2.683901 -2.12132 -2.12132 
C -2.683901 -1.55874 -3 -0.795609 -3 0 
C -3 0.795609 -2.683901 1.55874 -2.12132 2.12132 
C -1.55874 2.683901 -0.795609 3 0 3 
z
" id="ma32080632b" style="stroke:#000000;"/>
    </defs>
    <g clip-path="url(#p7ea9934ab1)">
     <use style="stroke:#000000;" x="86.979019" xlink:href="#ma32080632b" y="116.277359"/>
     <use style="stroke:#000000;" x="265.311534" xlink:href="#ma32080632b" y="166.500229"/>
     <use style="stroke:#000000;" x="227.938888" xlink:href="#ma32080632b" y="127.754556"/>
    </g>
   </g>
   <g id="PathCollection_2">
    <defs>
     <path d="M 0 3 
C 0.795609 3 1.55874 2.683901 2.12132 2.12132 
C 2.683901 1.55874 3 0.795609 3 0 
C 3 -0.795609 2.683901 -1.55874 2.12132 -2.12132 
C 1.55874 -2.683901 0.795609 -3 0 -3 
C -0.795609 -3 -1.55874 -2.683901 -2.12132 -2.12132 
C -2.683901 -1.55874 -3 -0.795609 -3 0 
C -3 0.795609 -2.683901 1.55874 -2.12132 2.12132 
C -1.55874 2.683901 -0.795609 3 0 3 
z
" id="m456a76184d" style="stroke:#ff0000;"/>
    </defs>
    <g clip-path="url(#p7ea9934ab1)">
     <use style="fill:#ff0000;stroke:#ff0000;" x="76.823409" xlink:href="#m456a76184d" y="110.045058"/>
     <use style="fill:#ff0000;stroke:#ff0000;" x="152.787373" xlink:href="#m456a76184d" y="88.850597"/>
     <use style="fill:#ff0000;stroke:#ff0000;" x="99.9782" xlink:href="#m456a76184d" y="106.391398"/>
    </g>
   </g>
   <g id="matplotlib.axis_1">
    <g id="xtick_1">
     <g id="line2d_1">
      <defs>
       <path d="M 0 0 
L 0 3.5 
" id="m9a83187c98" style="stroke:#000000;stroke-width:0.8;"/>
      </defs>
      <g>
       <use style="stroke:#000000;stroke-width:0.8;" x="76.823409" xlink:href="#m9a83187c98" y="204.872727"/>
      </g>
     </g>
     <g id="text_1">
      <!-- 0 -->
      <g transform="translate(73.005909 220.990852)scale(0.12 -0.12)">
       <defs>
        <path d="M 31.78125 66.40625 
Q 24.171875 66.40625 20.328125 58.90625 
Q 16.5 51.421875 16.5 36.375 
Q 16.5 21.390625 20.328125 13.890625 
Q 24.171875 6.390625 31.78125 6.390625 
Q 39.453125 6.390625 43.28125 13.890625 
Q 47.125 21.390625 47.125 36.375 
Q 47.125 51.421875 43.28125 58.90625 
Q 39.453125 66.40625 31.78125 66.40625 
z
M 31.78125 74.21875 
Q 44.046875 74.21875 50.515625 64.515625 
Q 56.984375 54.828125 56.984375 36.375 
Q 56.984375 17.96875 50.515625 8.265625 
Q 44.046875 -1.421875 31.78125 -1.421875 
Q 19.53125 -1.421875 13.0625 8.265625 
Q 6.59375 17.96875 6.59375 36.375 
Q 6.59375 54.828125 13.0625 64.515625 
Q 19.53125 74.21875 31.78125 74.21875 
z
" id="DejaVuSans-48"/>
       </defs>
       <use xlink:href="#DejaVuSans-48"/>
      </g>
     </g>
    </g>
    <g id="xtick_2">
     <g id="line2d_2">
      <g>
       <use style="stroke:#000000;stroke-width:0.8;" x="157.987045" xlink:href="#m9a83187c98" y="204.872727"/>
      </g>
     </g>
     <g id="text_2">
      <!-- 2 -->
      <g transform="translate(154.169545 220.990852)scale(0.12 -0.12)">
       <defs>
        <path d="M 19.1875 8.296875 
L 53.609375 8.296875 
L 53.609375 0 
L 7.328125 0 
L 7.328125 8.296875 
Q 12.9375 14.109375 22.625 23.890625 
Q 32.328125 33.6875 34.8125 36.53125 
Q 39.546875 41.84375 41.421875 45.53125 
Q 43.3125 49.21875 43.3125 52.78125 
Q 43.3125 58.59375 39.234375 62.25 
Q 35.15625 65.921875 28.609375 65.921875 
Q 23.96875 65.921875 18.8125 64.3125 
Q 13.671875 62.703125 7.8125 59.421875 
L 7.8125 69.390625 
Q 13.765625 71.78125 18.9375 73 
Q 24.125 74.21875 28.421875 74.21875 
Q 39.75 74.21875 46.484375 68.546875 
Q 53.21875 62.890625 53.21875 53.421875 
Q 53.21875 48.921875 51.53125 44.890625 
Q 49.859375 40.875 45.40625 35.40625 
Q 44.1875 33.984375 37.640625 27.21875 
Q 31.109375 20.453125 19.1875 8.296875 
z
" id="DejaVuSans-50"/>
       </defs>
       <use xlink:href="#DejaVuSans-50"/>
      </g>
     </g>
    </g>
    <g id="xtick_3">
     <g id="line2d_3">
      <g>
       <use style="stroke:#000000;stroke-width:0.8;" x="239.150682" xlink:href="#m9a83187c98" y="204.872727"/>
      </g>
     </g>
     <g id="text_3">
      <!-- 4 -->
      <g transform="translate(235.333182 220.990852)scale(0.12 -0.12)">
       <defs>
        <path d="M 37.796875 64.3125 
L 12.890625 25.390625 
L 37.796875 25.390625 
z
M 35.203125 72.90625 
L 47.609375 72.90625 
L 47.609375 25.390625 
L 58.015625 25.390625 
L 58.015625 17.1875 
L 47.609375 17.1875 
L 47.609375 0 
L 37.796875 0 
L 37.796875 17.1875 
L 4.890625 17.1875 
L 4.890625 26.703125 
z
" id="DejaVuSans-52"/>
       </defs>
       <use xlink:href="#DejaVuSans-52"/>
      </g>
     </g>
    </g>
    <g id="xtick_4">
     <g id="line2d_4">
      <g>
       <use style="stroke:#000000;stroke-width:0.8;" x="320.314318" xlink:href="#m9a83187c98" y="204.872727"/>
      </g>
     </g>
     <g id="text_4">
      <!-- 6 -->
      <g transform="translate(316.496818 220.990852)scale(0.12 -0.12)">
       <defs>
        <path d="M 33.015625 40.375 
Q 26.375 40.375 22.484375 35.828125 
Q 18.609375 31.296875 18.609375 23.390625 
Q 18.609375 15.53125 22.484375 10.953125 
Q 26.375 6.390625 33.015625 6.390625 
Q 39.65625 6.390625 43.53125 10.953125 
Q 47.40625 15.53125 47.40625 23.390625 
Q 47.40625 31.296875 43.53125 35.828125 
Q 39.65625 40.375 33.015625 40.375 
z
M 52.59375 71.296875 
L 52.59375 62.3125 
Q 48.875 64.0625 45.09375 64.984375 
Q 41.3125 65.921875 37.59375 65.921875 
Q 27.828125 65.921875 22.671875 59.328125 
Q 17.53125 52.734375 16.796875 39.40625 
Q 19.671875 43.65625 24.015625 45.921875 
Q 28.375 48.1875 33.59375 48.1875 
Q 44.578125 48.1875 50.953125 41.515625 
Q 57.328125 34.859375 57.328125 23.390625 
Q 57.328125 12.15625 50.6875 5.359375 
Q 44.046875 -1.421875 33.015625 -1.421875 
Q 20.359375 -1.421875 13.671875 8.265625 
Q 6.984375 17.96875 6.984375 36.375 
Q 6.984375 53.65625 15.1875 63.9375 
Q 23.390625 74.21875 37.203125 74.21875 
Q 40.921875 74.21875 44.703125 73.484375 
Q 48.484375 72.75 52.59375 71.296875 
z
" id="DejaVuSans-54"/>
       </defs>
       <use xlink:href="#DejaVuSans-54"/>
      </g>
     </g>
    </g>
    <g id="xtick_5">
     <g id="line2d_5">
      <g>
       <use style="stroke:#000000;stroke-width:0.8;" x="401.477955" xlink:href="#m9a83187c98" y="204.872727"/>
      </g>
     </g>
     <g id="text_5">
      <!-- 8 -->
      <g transform="translate(397.660455 220.990852)scale(0.12 -0.12)">
       <defs>
        <path d="M 31.78125 34.625 
Q 24.75 34.625 20.71875 30.859375 
Q 16.703125 27.09375 16.703125 20.515625 
Q 16.703125 13.921875 20.71875 10.15625 
Q 24.75 6.390625 31.78125 6.390625 
Q 38.8125 6.390625 42.859375 10.171875 
Q 46.921875 13.96875 46.921875 20.515625 
Q 46.921875 27.09375 42.890625 30.859375 
Q 38.875 34.625 31.78125 34.625 
z
M 21.921875 38.8125 
Q 15.578125 40.375 12.03125 44.71875 
Q 8.5 49.078125 8.5 55.328125 
Q 8.5 64.0625 14.71875 69.140625 
Q 20.953125 74.21875 31.78125 74.21875 
Q 42.671875 74.21875 48.875 69.140625 
Q 55.078125 64.0625 55.078125 55.328125 
Q 55.078125 49.078125 51.53125 44.71875 
Q 48 40.375 41.703125 38.8125 
Q 48.828125 37.15625 52.796875 32.3125 
Q 56.78125 27.484375 56.78125 20.515625 
Q 56.78125 9.90625 50.3125 4.234375 
Q 43.84375 -1.421875 31.78125 -1.421875 
Q 19.734375 -1.421875 13.25 4.234375 
Q 6.78125 9.90625 6.78125 20.515625 
Q 6.78125 27.484375 10.78125 32.3125 
Q 14.796875 37.15625 21.921875 38.8125 
z
M 18.3125 54.390625 
Q 18.3125 48.734375 21.84375 45.5625 
Q 25.390625 42.390625 31.78125 42.390625 
Q 38.140625 42.390625 41.71875 45.5625 
Q 45.3125 48.734375 45.3125 54.390625 
Q 45.3125 60.0625 41.71875 63.234375 
Q 38.140625 66.40625 31.78125 66.40625 
Q 25.390625 66.40625 21.84375 63.234375 
Q 18.3125 60.0625 18.3125 54.390625 
z
" id="DejaVuSans-56"/>
       </defs>
       <use xlink:href="#DejaVuSans-56"/>
      </g>
     </g>
    </g>
    <g id="xtick_6">
     <g id="line2d_6">
      <g>
       <use style="stroke:#000000;stroke-width:0.8;" x="482.641591" xlink:href="#m9a83187c98" y="204.872727"/>
      </g>
     </g>
     <g id="text_6">
      <!-- 10 -->
      <g transform="translate(475.006591 220.990852)scale(0.12 -0.12)">
       <defs>
        <path d="M 12.40625 8.296875 
L 28.515625 8.296875 
L 28.515625 63.921875 
L 10.984375 60.40625 
L 10.984375 69.390625 
L 28.421875 72.90625 
L 38.28125 72.90625 
L 38.28125 8.296875 
L 54.390625 8.296875 
L 54.390625 0 
L 12.40625 0 
z
" id="DejaVuSans-49"/>
       </defs>
       <use xlink:href="#DejaVuSans-49"/>
       <use x="63.623047" xlink:href="#DejaVuSans-48"/>
      </g>
     </g>
    </g>
   </g>
   <g id="matplotlib.axis_2">
    <g id="ytick_1">
     <g id="line2d_7">
      <defs>
       <path d="M 0 0 
L -3.5 0 
" id="m006c0350b6" style="stroke:#000000;stroke-width:0.8;"/>
      </defs>
      <g>
       <use style="stroke:#000000;stroke-width:0.8;" x="56.5325" xlink:href="#m006c0350b6" y="181.180479"/>
      </g>
     </g>
     <g id="text_7">
      <!-- 0 -->
      <g transform="translate(41.8975 185.739542)scale(0.12 -0.12)">
       <use xlink:href="#DejaVuSans-48"/>
      </g>
     </g>
    </g>
    <g id="ytick_2">
     <g id="line2d_8">
      <g>
       <use style="stroke:#000000;stroke-width:0.8;" x="56.5325" xlink:href="#m006c0350b6" y="133.756865"/>
      </g>
     </g>
     <g id="text_8">
      <!-- 20 -->
      <g transform="translate(34.2625 138.315927)scale(0.12 -0.12)">
       <use xlink:href="#DejaVuSans-50"/>
       <use x="63.623047" xlink:href="#DejaVuSans-48"/>
      </g>
     </g>
    </g>
    <g id="ytick_3">
     <g id="line2d_9">
      <g>
       <use style="stroke:#000000;stroke-width:0.8;" x="56.5325" xlink:href="#m006c0350b6" y="86.33325"/>
      </g>
     </g>
     <g id="text_9">
      <!-- 40 -->
      <g transform="translate(34.2625 90.892313)scale(0.12 -0.12)">
       <use xlink:href="#DejaVuSans-52"/>
       <use x="63.623047" xlink:href="#DejaVuSans-48"/>
      </g>
     </g>
    </g>
    <g id="ytick_4">
     <g id="line2d_10">
      <g>
       <use style="stroke:#000000;stroke-width:0.8;" x="56.5325" xlink:href="#m006c0350b6" y="38.909636"/>
      </g>
     </g>
     <g id="text_10">
      <!-- 60 -->
      <g transform="translate(34.2625 43.468699)scale(0.12 -0.12)">
       <use xlink:href="#DejaVuSans-54"/>
       <use x="63.623047" xlink:href="#DejaVuSans-48"/>
      </g>
     </g>
    </g>
    <g id="text_11">
     <!-- f(x) -->
     <g transform="translate(27.766875 116.381676)rotate(-90)scale(0.12 -0.12)">
      <defs>
       <path d="M 37.109375 75.984375 
L 37.109375 68.5 
L 28.515625 68.5 
Q 23.6875 68.5 21.796875 66.546875 
Q 19.921875 64.59375 19.921875 59.515625 
L 19.921875 54.6875 
L 34.71875 54.6875 
L 34.71875 47.703125 
L 19.921875 47.703125 
L 19.921875 0 
L 10.890625 0 
L 10.890625 47.703125 
L 2.296875 47.703125 
L 2.296875 54.6875 
L 10.890625 54.6875 
L 10.890625 58.5 
Q 10.890625 67.625 15.140625 71.796875 
Q 19.390625 75.984375 28.609375 75.984375 
z
" id="DejaVuSans-102"/>
       <path d="M 31 75.875 
Q 24.46875 64.65625 21.28125 53.65625 
Q 18.109375 42.671875 18.109375 31.390625 
Q 18.109375 20.125 21.3125 9.0625 
Q 24.515625 -2 31 -13.1875 
L 23.1875 -13.1875 
Q 15.875 -1.703125 12.234375 9.375 
Q 8.59375 20.453125 8.59375 31.390625 
Q 8.59375 42.28125 12.203125 53.3125 
Q 15.828125 64.359375 23.1875 75.875 
z
" id="DejaVuSans-40"/>
       <path d="M 54.890625 54.6875 
L 35.109375 28.078125 
L 55.90625 0 
L 45.3125 0 
L 29.390625 21.484375 
L 13.484375 0 
L 2.875 0 
L 24.125 28.609375 
L 4.6875 54.6875 
L 15.28125 54.6875 
L 29.78125 35.203125 
L 44.28125 54.6875 
z
" id="DejaVuSans-120"/>
       <path d="M 8.015625 75.875 
L 15.828125 75.875 
Q 23.140625 64.359375 26.78125 53.3125 
Q 30.421875 42.28125 30.421875 31.390625 
Q 30.421875 20.453125 26.78125 9.375 
Q 23.140625 -1.703125 15.828125 -13.1875 
L 8.015625 -13.1875 
Q 14.5 -2 17.703125 9.0625 
Q 20.90625 20.125 20.90625 31.390625 
Q 20.90625 42.671875 17.703125 53.65625 
Q 14.5 64.65625 8.015625 75.875 
z
" id="DejaVuSans-41"/>
      </defs>
      <use xlink:href="#DejaVuSans-102"/>
      <use x="35.205078" xlink:href="#DejaVuSans-40"/>
      <use x="74.21875" xlink:href="#DejaVuSans-120"/>
      <use x="133.398438" xlink:href="#DejaVuSans-41"/>
     </g>
    </g>
   </g>
   <g id="line2d_11">
    <path clip-path="url(#p7ea9934ab1)" d="M 76.823409 110.045058 
L 80.885653 109.926459 
L 84.947897 109.573039 
L 89.010141 108.991886 
L 93.072385 108.194696 
L 97.540854 107.087638 
L 102.415547 105.636392 
L 107.696464 103.826354 
L 114.196054 101.352313 
L 135.319724 93.098245 
L 140.194416 91.532124 
L 144.662885 90.326632 
L 148.725129 89.461903 
L 152.381149 88.899468 
L 156.037168 88.563692 
L 159.286964 88.470974 
L 162.536759 88.584135 
L 165.786554 88.913115 
L 169.036349 89.465968 
L 172.286145 90.248747 
L 175.53594 91.265402 
L 178.785735 92.517699 
L 182.03553 94.005155 
L 185.285326 95.724993 
L 188.941345 97.931141 
L 192.597365 100.414105 
L 196.253385 103.159417 
L 200.315629 106.495335 
L 204.784097 110.47722 
L 209.65879 115.140512 
L 215.345932 120.910436 
L 223.064195 129.089233 
L 235.250928 142.008764 
L 240.531845 147.283542 
L 245.000313 151.456291 
L 249.062557 154.950397 
L 252.718577 157.803754 
L 255.968372 160.075605 
L 259.218167 162.071384 
L 262.061738 163.571887 
L 264.905309 164.826823 
L 267.74888 165.821936 
L 270.186226 166.458184 
L 272.623573 166.886523 
L 275.060919 167.100295 
L 277.498266 167.093645 
L 279.935612 166.86157 
L 282.372959 166.39995 
L 284.810305 165.705581 
L 287.247652 164.776204 
L 289.684998 163.610533 
L 292.122344 162.208274 
L 294.559691 160.570142 
L 297.403262 158.363246 
L 300.246833 155.842246 
L 303.090403 153.013594 
L 305.933974 149.885664 
L 309.183769 145.957689 
L 312.433565 141.670635 
L 316.089584 136.445331 
L 319.745604 130.827945 
L 323.807848 124.175055 
L 328.276317 116.427352 
L 333.557234 106.810299 
L 340.463049 93.739751 
L 355.087127 65.925093 
L 360.368045 56.439491 
L 364.836513 48.875245 
L 368.492533 43.085867 
L 372.148552 37.720714 
L 375.398348 33.354447 
L 378.241919 29.87655 
L 381.085489 26.743977 
L 383.522836 24.351169 
L 385.960182 22.242416 
L 388.397529 20.430272 
L 390.834875 18.926298 
L 392.865997 17.916003 
L 394.897119 17.132517 
L 396.928241 16.58077 
L 398.959363 16.265116 
L 400.990485 16.189311 
L 403.021607 16.356499 
L 405.052729 16.769195 
L 407.083851 17.429272 
L 409.114973 18.337949 
L 411.146095 19.495781 
L 413.177217 20.90265 
L 415.208339 22.557757 
L 417.645686 24.869427 
L 420.083032 27.532524 
L 422.520379 30.541753 
L 424.957725 33.890398 
L 427.801296 38.215207 
L 430.644867 42.975557 
L 433.488438 48.153585 
L 436.738233 54.556565 
L 439.988028 61.444217 
L 443.644048 69.724517 
L 447.706292 79.514454 
L 452.17476 90.895582 
L 457.455678 104.998423 
L 464.361493 124.13489 
L 478.579347 163.736632 
L 482.641591 174.543676 
L 482.641591 174.543676 
" style="fill:none;stroke:#000000;stroke-linecap:square;stroke-width:1.5;"/>
   </g>
   <g id="line2d_12">
    <path clip-path="url(#p7ea9934ab1)" d="M 76.823409 123.701312 
L 157.255842 123.701312 
L 157.662066 140.981294 
L 175.942164 140.981294 
L 176.348389 153.917562 
L 246.625211 153.917562 
L 247.031435 164.653872 
L 482.641591 164.653872 
L 482.641591 164.653872 
" style="fill:none;stroke:#1f77b4;stroke-linecap:square;stroke-width:1.5;"/>
   </g>
   <g id="patch_3">
    <path d="M 56.5325 204.872727 
L 56.5325 7.2 
" style="fill:none;stroke:#000000;stroke-linecap:square;stroke-linejoin:miter;stroke-width:0.8;"/>
   </g>
   <g id="patch_4">
    <path d="M 502.9325 204.872727 
L 502.9325 7.2 
" style="fill:none;stroke:#000000;stroke-linecap:square;stroke-linejoin:miter;stroke-width:0.8;"/>
   </g>
   <g id="patch_5">
    <path d="M 56.5325 204.872727 
L 502.9325 204.872727 
" style="fill:none;stroke:#000000;stroke-linecap:square;stroke-linejoin:miter;stroke-width:0.8;"/>
   </g>
   <g id="patch_6">
    <path d="M 56.5325 7.2 
L 502.9325 7.2 
" style="fill:none;stroke:#000000;stroke-linecap:square;stroke-linejoin:miter;stroke-width:0.8;"/>
   </g>
   <g id="legend_1">
    <g id="patch_7">
     <path d="M 64.9325 198.872727 
L 142.6475 198.872727 
Q 145.0475 198.872727 145.0475 196.472727 
L 145.0475 144.831477 
Q 145.0475 142.431477 142.6475 142.431477 
L 64.9325 142.431477 
Q 62.5325 142.431477 62.5325 144.831477 
L 62.5325 196.472727 
Q 62.5325 198.872727 64.9325 198.872727 
z
" style="fill:#ffffff;opacity:0.8;stroke:#cccccc;stroke-linejoin:miter;"/>
    </g>
    <g id="line2d_13">
     <path d="M 67.3325 152.149602 
L 91.3325 152.149602 
" style="fill:none;stroke:#1f77b4;stroke-linecap:square;stroke-width:1.5;"/>
    </g>
    <g id="line2d_14"/>
    <g id="text_12">
     <!-- model -->
     <g transform="translate(100.9325 156.349602)scale(0.12 -0.12)">
      <defs>
       <path d="M 52 44.1875 
Q 55.375 50.25 60.0625 53.125 
Q 64.75 56 71.09375 56 
Q 79.640625 56 84.28125 50.015625 
Q 88.921875 44.046875 88.921875 33.015625 
L 88.921875 0 
L 79.890625 0 
L 79.890625 32.71875 
Q 79.890625 40.578125 77.09375 44.375 
Q 74.3125 48.1875 68.609375 48.1875 
Q 61.625 48.1875 57.5625 43.546875 
Q 53.515625 38.921875 53.515625 30.90625 
L 53.515625 0 
L 44.484375 0 
L 44.484375 32.71875 
Q 44.484375 40.625 41.703125 44.40625 
Q 38.921875 48.1875 33.109375 48.1875 
Q 26.21875 48.1875 22.15625 43.53125 
Q 18.109375 38.875 18.109375 30.90625 
L 18.109375 0 
L 9.078125 0 
L 9.078125 54.6875 
L 18.109375 54.6875 
L 18.109375 46.1875 
Q 21.1875 51.21875 25.484375 53.609375 
Q 29.78125 56 35.6875 56 
Q 41.65625 56 45.828125 52.96875 
Q 50 49.953125 52 44.1875 
z
" id="DejaVuSans-109"/>
       <path d="M 30.609375 48.390625 
Q 23.390625 48.390625 19.1875 42.75 
Q 14.984375 37.109375 14.984375 27.296875 
Q 14.984375 17.484375 19.15625 11.84375 
Q 23.34375 6.203125 30.609375 6.203125 
Q 37.796875 6.203125 41.984375 11.859375 
Q 46.1875 17.53125 46.1875 27.296875 
Q 46.1875 37.015625 41.984375 42.703125 
Q 37.796875 48.390625 30.609375 48.390625 
z
M 30.609375 56 
Q 42.328125 56 49.015625 48.375 
Q 55.71875 40.765625 55.71875 27.296875 
Q 55.71875 13.875 49.015625 6.21875 
Q 42.328125 -1.421875 30.609375 -1.421875 
Q 18.84375 -1.421875 12.171875 6.21875 
Q 5.515625 13.875 5.515625 27.296875 
Q 5.515625 40.765625 12.171875 48.375 
Q 18.84375 56 30.609375 56 
z
" id="DejaVuSans-111"/>
       <path d="M 45.40625 46.390625 
L 45.40625 75.984375 
L 54.390625 75.984375 
L 54.390625 0 
L 45.40625 0 
L 45.40625 8.203125 
Q 42.578125 3.328125 38.25 0.953125 
Q 33.9375 -1.421875 27.875 -1.421875 
Q 17.96875 -1.421875 11.734375 6.484375 
Q 5.515625 14.40625 5.515625 27.296875 
Q 5.515625 40.1875 11.734375 48.09375 
Q 17.96875 56 27.875 56 
Q 33.9375 56 38.25 53.625 
Q 42.578125 51.265625 45.40625 46.390625 
z
M 14.796875 27.296875 
Q 14.796875 17.390625 18.875 11.75 
Q 22.953125 6.109375 30.078125 6.109375 
Q 37.203125 6.109375 41.296875 11.75 
Q 45.40625 17.390625 45.40625 27.296875 
Q 45.40625 37.203125 41.296875 42.84375 
Q 37.203125 48.484375 30.078125 48.484375 
Q 22.953125 48.484375 18.875 42.84375 
Q 14.796875 37.203125 14.796875 27.296875 
z
" id="DejaVuSans-100"/>
       <path d="M 56.203125 29.59375 
L 56.203125 25.203125 
L 14.890625 25.203125 
Q 15.484375 15.921875 20.484375 11.0625 
Q 25.484375 6.203125 34.421875 6.203125 
Q 39.59375 6.203125 44.453125 7.46875 
Q 49.3125 8.734375 54.109375 11.28125 
L 54.109375 2.78125 
Q 49.265625 0.734375 44.1875 -0.34375 
Q 39.109375 -1.421875 33.890625 -1.421875 
Q 20.796875 -1.421875 13.15625 6.1875 
Q 5.515625 13.8125 5.515625 26.8125 
Q 5.515625 40.234375 12.765625 48.109375 
Q 20.015625 56 32.328125 56 
Q 43.359375 56 49.78125 48.890625 
Q 56.203125 41.796875 56.203125 29.59375 
z
M 47.21875 32.234375 
Q 47.125 39.59375 43.09375 43.984375 
Q 39.0625 48.390625 32.421875 48.390625 
Q 24.90625 48.390625 20.390625 44.140625 
Q 15.875 39.890625 15.1875 32.171875 
z
" id="DejaVuSans-101"/>
       <path d="M 9.421875 75.984375 
L 18.40625 75.984375 
L 18.40625 0 
L 9.421875 0 
z
" id="DejaVuSans-108"/>
      </defs>
      <use xlink:href="#DejaVuSans-109"/>
      <use x="97.412109" xlink:href="#DejaVuSans-111"/>
      <use x="158.59375" xlink:href="#DejaVuSans-100"/>
      <use x="222.070312" xlink:href="#DejaVuSans-101"/>
      <use x="283.59375" xlink:href="#DejaVuSans-108"/>
     </g>
    </g>
    <g id="PathCollection_3">
     <g>
      <use style="stroke:#000000;" x="79.3325" xlink:href="#ma32080632b" y="170.813352"/>
     </g>
    </g>
    <g id="text_13">
     <!-- known -->
     <g transform="translate(100.9325 173.963352)scale(0.12 -0.12)">
      <defs>
       <path d="M 9.078125 75.984375 
L 18.109375 75.984375 
L 18.109375 31.109375 
L 44.921875 54.6875 
L 56.390625 54.6875 
L 27.390625 29.109375 
L 57.625 0 
L 45.90625 0 
L 18.109375 26.703125 
L 18.109375 0 
L 9.078125 0 
z
" id="DejaVuSans-107"/>
       <path d="M 54.890625 33.015625 
L 54.890625 0 
L 45.90625 0 
L 45.90625 32.71875 
Q 45.90625 40.484375 42.875 44.328125 
Q 39.84375 48.1875 33.796875 48.1875 
Q 26.515625 48.1875 22.3125 43.546875 
Q 18.109375 38.921875 18.109375 30.90625 
L 18.109375 0 
L 9.078125 0 
L 9.078125 54.6875 
L 18.109375 54.6875 
L 18.109375 46.1875 
Q 21.34375 51.125 25.703125 53.5625 
Q 30.078125 56 35.796875 56 
Q 45.21875 56 50.046875 50.171875 
Q 54.890625 44.34375 54.890625 33.015625 
z
" id="DejaVuSans-110"/>
       <path d="M 4.203125 54.6875 
L 13.1875 54.6875 
L 24.421875 12.015625 
L 35.59375 54.6875 
L 46.1875 54.6875 
L 57.421875 12.015625 
L 68.609375 54.6875 
L 77.59375 54.6875 
L 63.28125 0 
L 52.6875 0 
L 40.921875 44.828125 
L 29.109375 0 
L 18.5 0 
z
" id="DejaVuSans-119"/>
      </defs>
      <use xlink:href="#DejaVuSans-107"/>
      <use x="57.910156" xlink:href="#DejaVuSans-110"/>
      <use x="121.289062" xlink:href="#DejaVuSans-111"/>
      <use x="182.470703" xlink:href="#DejaVuSans-119"/>
      <use x="264.257812" xlink:href="#DejaVuSans-110"/>
     </g>
    </g>
    <g id="PathCollection_4">
     <g>
      <use style="fill:#ff0000;stroke:#ff0000;" x="79.3325" xlink:href="#m456a76184d" y="188.427102"/>
     </g>
    </g>
    <g id="text_14">
     <!-- next -->
     <g transform="translate(100.9325 191.577102)scale(0.12 -0.12)">
      <defs>
       <path d="M 18.3125 70.21875 
L 18.3125 54.6875 
L 36.8125 54.6875 
L 36.8125 47.703125 
L 18.3125 47.703125 
L 18.3125 18.015625 
Q 18.3125 11.328125 20.140625 9.421875 
Q 21.96875 7.515625 27.59375 7.515625 
L 36.8125 7.515625 
L 36.8125 0 
L 27.59375 0 
Q 17.1875 0 13.234375 3.875 
Q 9.28125 7.765625 9.28125 18.015625 
L 9.28125 47.703125 
L 2.6875 47.703125 
L 2.6875 54.6875 
L 9.28125 54.6875 
L 9.28125 70.21875 
z
" id="DejaVuSans-116"/>
      </defs>
      <use xlink:href="#DejaVuSans-110"/>
      <use x="63.378906" xlink:href="#DejaVuSans-101"/>
      <use x="123.152344" xlink:href="#DejaVuSans-120"/>
      <use x="182.332031" xlink:href="#DejaVuSans-116"/>
     </g>
    </g>
   </g>
  </g>
  <g id="axes_2">
   <g id="patch_8">
    <path d="M 56.5325 442.08 
L 502.9325 442.08 
L 502.9325 244.407273 
L 56.5325 244.407273 
z
" style="fill:#ffffff;"/>
   </g>
   <g id="matplotlib.axis_3">
    <g id="xtick_7">
     <g id="line2d_15">
      <g>
       <use style="stroke:#000000;stroke-width:0.8;" x="76.823409" xlink:href="#m9a83187c98" y="442.08"/>
      </g>
     </g>
     <g id="text_15">
      <!-- 0.0 -->
      <g transform="translate(67.281534 458.198125)scale(0.12 -0.12)">
       <defs>
        <path d="M 10.6875 12.40625 
L 21 12.40625 
L 21 0 
L 10.6875 0 
z
" id="DejaVuSans-46"/>
       </defs>
       <use xlink:href="#DejaVuSans-48"/>
       <use x="63.623047" xlink:href="#DejaVuSans-46"/>
       <use x="95.410156" xlink:href="#DejaVuSans-48"/>
      </g>
     </g>
    </g>
    <g id="xtick_8">
     <g id="line2d_16">
      <g>
       <use style="stroke:#000000;stroke-width:0.8;" x="157.987045" xlink:href="#m9a83187c98" y="442.08"/>
      </g>
     </g>
     <g id="text_16">
      <!-- 0.2 -->
      <g transform="translate(148.44517 458.198125)scale(0.12 -0.12)">
       <use xlink:href="#DejaVuSans-48"/>
       <use x="63.623047" xlink:href="#DejaVuSans-46"/>
       <use x="95.410156" xlink:href="#DejaVuSans-50"/>
      </g>
     </g>
    </g>
    <g id="xtick_9">
     <g id="line2d_17">
      <g>
       <use style="stroke:#000000;stroke-width:0.8;" x="239.150682" xlink:href="#m9a83187c98" y="442.08"/>
      </g>
     </g>
     <g id="text_17">
      <!-- 0.4 -->
      <g transform="translate(229.608807 458.198125)scale(0.12 -0.12)">
       <use xlink:href="#DejaVuSans-48"/>
       <use x="63.623047" xlink:href="#DejaVuSans-46"/>
       <use x="95.410156" xlink:href="#DejaVuSans-52"/>
      </g>
     </g>
    </g>
    <g id="xtick_10">
     <g id="line2d_18">
      <g>
       <use style="stroke:#000000;stroke-width:0.8;" x="320.314318" xlink:href="#m9a83187c98" y="442.08"/>
      </g>
     </g>
     <g id="text_18">
      <!-- 0.6 -->
      <g transform="translate(310.772443 458.198125)scale(0.12 -0.12)">
       <use xlink:href="#DejaVuSans-48"/>
       <use x="63.623047" xlink:href="#DejaVuSans-46"/>
       <use x="95.410156" xlink:href="#DejaVuSans-54"/>
      </g>
     </g>
    </g>
    <g id="xtick_11">
     <g id="line2d_19">
      <g>
       <use style="stroke:#000000;stroke-width:0.8;" x="401.477955" xlink:href="#m9a83187c98" y="442.08"/>
      </g>
     </g>
     <g id="text_19">
      <!-- 0.8 -->
      <g transform="translate(391.93608 458.198125)scale(0.12 -0.12)">
       <use xlink:href="#DejaVuSans-48"/>
       <use x="63.623047" xlink:href="#DejaVuSans-46"/>
       <use x="95.410156" xlink:href="#DejaVuSans-56"/>
      </g>
     </g>
    </g>
    <g id="xtick_12">
     <g id="line2d_20">
      <g>
       <use style="stroke:#000000;stroke-width:0.8;" x="482.641591" xlink:href="#m9a83187c98" y="442.08"/>
      </g>
     </g>
     <g id="text_20">
      <!-- 1.0 -->
      <g transform="translate(473.099716 458.198125)scale(0.12 -0.12)">
       <use xlink:href="#DejaVuSans-49"/>
       <use x="63.623047" xlink:href="#DejaVuSans-46"/>
       <use x="95.410156" xlink:href="#DejaVuSans-48"/>
      </g>
     </g>
    </g>
    <g id="text_21">
     <!-- x -->
     <g transform="translate(276.18125 473.811875)scale(0.12 -0.12)">
      <use xlink:href="#DejaVuSans-120"/>
     </g>
    </g>
   </g>
   <g id="matplotlib.axis_4">
    <g id="ytick_5">
     <g id="line2d_21">
      <g>
       <use style="stroke:#000000;stroke-width:0.8;" x="56.5325" xlink:href="#m006c0350b6" y="433.139522"/>
      </g>
     </g>
     <g id="text_22">
      <!-- 0.00 -->
      <g transform="translate(22.81375 437.698585)scale(0.12 -0.12)">
       <use xlink:href="#DejaVuSans-48"/>
       <use x="63.623047" xlink:href="#DejaVuSans-46"/>
       <use x="95.410156" xlink:href="#DejaVuSans-48"/>
       <use x="159.033203" xlink:href="#DejaVuSans-48"/>
      </g>
     </g>
    </g>
    <g id="ytick_6">
     <g id="line2d_22">
      <g>
       <use style="stroke:#000000;stroke-width:0.8;" x="56.5325" xlink:href="#m006c0350b6" y="400.364259"/>
      </g>
     </g>
     <g id="text_23">
      <!-- 0.02 -->
      <g transform="translate(22.81375 404.923322)scale(0.12 -0.12)">
       <use xlink:href="#DejaVuSans-48"/>
       <use x="63.623047" xlink:href="#DejaVuSans-46"/>
       <use x="95.410156" xlink:href="#DejaVuSans-48"/>
       <use x="159.033203" xlink:href="#DejaVuSans-50"/>
      </g>
     </g>
    </g>
    <g id="ytick_7">
     <g id="line2d_23">
      <g>
       <use style="stroke:#000000;stroke-width:0.8;" x="56.5325" xlink:href="#m006c0350b6" y="367.588996"/>
      </g>
     </g>
     <g id="text_24">
      <!-- 0.04 -->
      <g transform="translate(22.81375 372.148059)scale(0.12 -0.12)">
       <use xlink:href="#DejaVuSans-48"/>
       <use x="63.623047" xlink:href="#DejaVuSans-46"/>
       <use x="95.410156" xlink:href="#DejaVuSans-48"/>
       <use x="159.033203" xlink:href="#DejaVuSans-52"/>
      </g>
     </g>
    </g>
    <g id="ytick_8">
     <g id="line2d_24">
      <g>
       <use style="stroke:#000000;stroke-width:0.8;" x="56.5325" xlink:href="#m006c0350b6" y="334.813734"/>
      </g>
     </g>
     <g id="text_25">
      <!-- 0.06 -->
      <g transform="translate(22.81375 339.372796)scale(0.12 -0.12)">
       <use xlink:href="#DejaVuSans-48"/>
       <use x="63.623047" xlink:href="#DejaVuSans-46"/>
       <use x="95.410156" xlink:href="#DejaVuSans-48"/>
       <use x="159.033203" xlink:href="#DejaVuSans-54"/>
      </g>
     </g>
    </g>
    <g id="ytick_9">
     <g id="line2d_25">
      <g>
       <use style="stroke:#000000;stroke-width:0.8;" x="56.5325" xlink:href="#m006c0350b6" y="302.038471"/>
      </g>
     </g>
     <g id="text_26">
      <!-- 0.08 -->
      <g transform="translate(22.81375 306.597533)scale(0.12 -0.12)">
       <use xlink:href="#DejaVuSans-48"/>
       <use x="63.623047" xlink:href="#DejaVuSans-46"/>
       <use x="95.410156" xlink:href="#DejaVuSans-48"/>
       <use x="159.033203" xlink:href="#DejaVuSans-56"/>
      </g>
     </g>
    </g>
    <g id="ytick_10">
     <g id="line2d_26">
      <g>
       <use style="stroke:#000000;stroke-width:0.8;" x="56.5325" xlink:href="#m006c0350b6" y="269.263208"/>
      </g>
     </g>
     <g id="text_27">
      <!-- 0.10 -->
      <g transform="translate(22.81375 273.822271)scale(0.12 -0.12)">
       <use xlink:href="#DejaVuSans-48"/>
       <use x="63.623047" xlink:href="#DejaVuSans-46"/>
       <use x="95.410156" xlink:href="#DejaVuSans-49"/>
       <use x="159.033203" xlink:href="#DejaVuSans-48"/>
      </g>
     </g>
    </g>
    <g id="text_28">
     <!-- Acquisition Function -->
     <g transform="translate(16.318125 403.530511)rotate(-90)scale(0.12 -0.12)">
      <defs>
       <path d="M 34.1875 63.1875 
L 20.796875 26.90625 
L 47.609375 26.90625 
z
M 28.609375 72.90625 
L 39.796875 72.90625 
L 67.578125 0 
L 57.328125 0 
L 50.6875 18.703125 
L 17.828125 18.703125 
L 11.1875 0 
L 0.78125 0 
z
" id="DejaVuSans-65"/>
       <path d="M 48.78125 52.59375 
L 48.78125 44.1875 
Q 44.96875 46.296875 41.140625 47.34375 
Q 37.3125 48.390625 33.40625 48.390625 
Q 24.65625 48.390625 19.8125 42.84375 
Q 14.984375 37.3125 14.984375 27.296875 
Q 14.984375 17.28125 19.8125 11.734375 
Q 24.65625 6.203125 33.40625 6.203125 
Q 37.3125 6.203125 41.140625 7.25 
Q 44.96875 8.296875 48.78125 10.40625 
L 48.78125 2.09375 
Q 45.015625 0.34375 40.984375 -0.53125 
Q 36.96875 -1.421875 32.421875 -1.421875 
Q 20.0625 -1.421875 12.78125 6.34375 
Q 5.515625 14.109375 5.515625 27.296875 
Q 5.515625 40.671875 12.859375 48.328125 
Q 20.21875 56 33.015625 56 
Q 37.15625 56 41.109375 55.140625 
Q 45.0625 54.296875 48.78125 52.59375 
z
" id="DejaVuSans-99"/>
       <path d="M 14.796875 27.296875 
Q 14.796875 17.390625 18.875 11.75 
Q 22.953125 6.109375 30.078125 6.109375 
Q 37.203125 6.109375 41.296875 11.75 
Q 45.40625 17.390625 45.40625 27.296875 
Q 45.40625 37.203125 41.296875 42.84375 
Q 37.203125 48.484375 30.078125 48.484375 
Q 22.953125 48.484375 18.875 42.84375 
Q 14.796875 37.203125 14.796875 27.296875 
z
M 45.40625 8.203125 
Q 42.578125 3.328125 38.25 0.953125 
Q 33.9375 -1.421875 27.875 -1.421875 
Q 17.96875 -1.421875 11.734375 6.484375 
Q 5.515625 14.40625 5.515625 27.296875 
Q 5.515625 40.1875 11.734375 48.09375 
Q 17.96875 56 27.875 56 
Q 33.9375 56 38.25 53.625 
Q 42.578125 51.265625 45.40625 46.390625 
L 45.40625 54.6875 
L 54.390625 54.6875 
L 54.390625 -20.796875 
L 45.40625 -20.796875 
z
" id="DejaVuSans-113"/>
       <path d="M 8.5 21.578125 
L 8.5 54.6875 
L 17.484375 54.6875 
L 17.484375 21.921875 
Q 17.484375 14.15625 20.5 10.265625 
Q 23.53125 6.390625 29.59375 6.390625 
Q 36.859375 6.390625 41.078125 11.03125 
Q 45.3125 15.671875 45.3125 23.6875 
L 45.3125 54.6875 
L 54.296875 54.6875 
L 54.296875 0 
L 45.3125 0 
L 45.3125 8.40625 
Q 42.046875 3.421875 37.71875 1 
Q 33.40625 -1.421875 27.6875 -1.421875 
Q 18.265625 -1.421875 13.375 4.4375 
Q 8.5 10.296875 8.5 21.578125 
z
M 31.109375 56 
z
" id="DejaVuSans-117"/>
       <path d="M 9.421875 54.6875 
L 18.40625 54.6875 
L 18.40625 0 
L 9.421875 0 
z
M 9.421875 75.984375 
L 18.40625 75.984375 
L 18.40625 64.59375 
L 9.421875 64.59375 
z
" id="DejaVuSans-105"/>
       <path d="M 44.28125 53.078125 
L 44.28125 44.578125 
Q 40.484375 46.53125 36.375 47.5 
Q 32.28125 48.484375 27.875 48.484375 
Q 21.1875 48.484375 17.84375 46.4375 
Q 14.5 44.390625 14.5 40.28125 
Q 14.5 37.15625 16.890625 35.375 
Q 19.28125 33.59375 26.515625 31.984375 
L 29.59375 31.296875 
Q 39.15625 29.25 43.1875 25.515625 
Q 47.21875 21.78125 47.21875 15.09375 
Q 47.21875 7.46875 41.1875 3.015625 
Q 35.15625 -1.421875 24.609375 -1.421875 
Q 20.21875 -1.421875 15.453125 -0.5625 
Q 10.6875 0.296875 5.421875 2 
L 5.421875 11.28125 
Q 10.40625 8.6875 15.234375 7.390625 
Q 20.0625 6.109375 24.8125 6.109375 
Q 31.15625 6.109375 34.5625 8.28125 
Q 37.984375 10.453125 37.984375 14.40625 
Q 37.984375 18.0625 35.515625 20.015625 
Q 33.0625 21.96875 24.703125 23.78125 
L 21.578125 24.515625 
Q 13.234375 26.265625 9.515625 29.90625 
Q 5.8125 33.546875 5.8125 39.890625 
Q 5.8125 47.609375 11.28125 51.796875 
Q 16.75 56 26.8125 56 
Q 31.78125 56 36.171875 55.265625 
Q 40.578125 54.546875 44.28125 53.078125 
z
" id="DejaVuSans-115"/>
       <path id="DejaVuSans-32"/>
       <path d="M 9.8125 72.90625 
L 51.703125 72.90625 
L 51.703125 64.59375 
L 19.671875 64.59375 
L 19.671875 43.109375 
L 48.578125 43.109375 
L 48.578125 34.8125 
L 19.671875 34.8125 
L 19.671875 0 
L 9.8125 0 
z
" id="DejaVuSans-70"/>
      </defs>
      <use xlink:href="#DejaVuSans-65"/>
      <use x="66.658203" xlink:href="#DejaVuSans-99"/>
      <use x="121.638672" xlink:href="#DejaVuSans-113"/>
      <use x="185.115234" xlink:href="#DejaVuSans-117"/>
      <use x="248.494141" xlink:href="#DejaVuSans-105"/>
      <use x="276.277344" xlink:href="#DejaVuSans-115"/>
      <use x="328.376953" xlink:href="#DejaVuSans-105"/>
      <use x="356.160156" xlink:href="#DejaVuSans-116"/>
      <use x="395.369141" xlink:href="#DejaVuSans-105"/>
      <use x="423.152344" xlink:href="#DejaVuSans-111"/>
      <use x="484.333984" xlink:href="#DejaVuSans-110"/>
      <use x="547.712891" xlink:href="#DejaVuSans-32"/>
      <use x="579.5" xlink:href="#DejaVuSans-70"/>
      <use x="631.519531" xlink:href="#DejaVuSans-117"/>
      <use x="694.898438" xlink:href="#DejaVuSans-110"/>
      <use x="758.277344" xlink:href="#DejaVuSans-99"/>
      <use x="813.257812" xlink:href="#DejaVuSans-116"/>
      <use x="852.466797" xlink:href="#DejaVuSans-105"/>
      <use x="880.25" xlink:href="#DejaVuSans-111"/>
      <use x="941.431641" xlink:href="#DejaVuSans-110"/>
     </g>
    </g>
   </g>
   <g id="line2d_27">
    <path clip-path="url(#pdaf1359065)" d="M 76.823409 253.392397 
L 157.255842 253.392397 
L 157.662066 413.259191 
L 175.942164 413.259191 
L 176.348389 433.006817 
L 482.641591 433.083322 
L 482.641591 433.083322 
" style="fill:none;stroke:#1f77b4;stroke-linecap:square;stroke-width:1.5;"/>
   </g>
   <g id="line2d_28">
    <path clip-path="url(#pdaf1359065)" d="M 76.823409 404.902037 
L 81.698102 404.902037 
L 82.104326 313.002488 
L 152.381149 313.002488 
L 152.787373 266.943008 
L 157.255842 266.943008 
L 157.662066 410.308796 
L 171.067471 410.308796 
L 171.473696 410.723804 
L 175.942164 410.723804 
L 176.348389 432.599489 
L 246.625211 432.599489 
L 247.031435 432.77501 
L 482.641591 432.77501 
L 482.641591 432.77501 
" style="fill:none;stroke:#ff7f0e;stroke-linecap:square;stroke-width:1.5;"/>
   </g>
   <g id="line2d_29">
    <path clip-path="url(#pdaf1359065)" d="M 76.823409 426.003591 
L 81.698102 426.003591 
L 82.104326 367.186071 
L 114.602279 367.186071 
L 115.008503 368.851323 
L 119.883196 368.851323 
L 120.289421 423.362088 
L 152.381149 423.362088 
L 152.787373 402.231984 
L 157.255842 402.231984 
L 157.662066 406.764164 
L 171.067471 406.764164 
L 171.473696 404.178424 
L 175.942164 404.178424 
L 176.348389 396.936007 
L 190.160018 396.936007 
L 190.566243 430.950351 
L 208.846341 430.950351 
L 209.252566 433.048337 
L 482.641591 433.094876 
L 482.641591 433.094876 
" style="fill:none;stroke:#2ca02c;stroke-linecap:square;stroke-width:1.5;"/>
   </g>
   <g id="patch_9">
    <path d="M 56.5325 442.08 
L 56.5325 244.407273 
" style="fill:none;stroke:#000000;stroke-linecap:square;stroke-linejoin:miter;stroke-width:0.8;"/>
   </g>
   <g id="patch_10">
    <path d="M 502.9325 442.08 
L 502.9325 244.407273 
" style="fill:none;stroke:#000000;stroke-linecap:square;stroke-linejoin:miter;stroke-width:0.8;"/>
   </g>
   <g id="patch_11">
    <path d="M 56.5325 442.08 
L 502.9325 442.08 
" style="fill:none;stroke:#000000;stroke-linecap:square;stroke-linejoin:miter;stroke-width:0.8;"/>
   </g>
   <g id="patch_12">
    <path d="M 56.5325 244.407273 
L 502.9325 244.407273 
" style="fill:none;stroke:#000000;stroke-linecap:square;stroke-linejoin:miter;stroke-width:0.8;"/>
   </g>
  </g>
 </g>
 <defs>
  <clipPath id="p7ea9934ab1">
   <rect height="197.672727" width="446.4" x="56.5325" y="7.2"/>
  </clipPath>
  <clipPath id="pdaf1359065">
   <rect height="197.672727" width="446.4" x="56.5325" y="244.407273"/>
  </clipPath>
 </defs>
</svg>
