<?xml version="1.0" encoding="utf-8" standalone="no"?>
<!DOCTYPE svg PUBLIC "-//W3C//DTD SVG 1.1//EN"
  "http://www.w3.org/Graphics/SVG/1.1/DTD/svg11.dtd">
<!-- Created with matplotlib (https://matplotlib.org/) -->
<svg height="483.5075pt" version="1.1" viewBox="0 0 517.7675 483.5075" width="517.7675pt" xmlns="http://www.w3.org/2000/svg" xmlns:xlink="http://www.w3.org/1999/xlink">
 <metadata>
  <rdf:RDF xmlns:cc="http://creativecommons.org/ns#" xmlns:dc="http://purl.org/dc/elements/1.1/" xmlns:rdf="http://www.w3.org/1999/02/22-rdf-syntax-ns#">
   <cc:Work>
    <dc:type rdf:resource="http://purl.org/dc/dcmitype/StillImage"/>
    <dc:date>2020-10-04T17:41:12.884924</dc:date>
    <dc:format>image/svg+xml</dc:format>
    <dc:creator>
     <cc:Agent>
      <dc:title>Matplotlib v3.3.1, https://matplotlib.org/</dc:title>
     </cc:Agent>
    </dc:creator>
   </cc:Work>
  </rdf:RDF>
 </metadata>
 <defs>
  <style type="text/css">*{stroke-linecap:butt;stroke-linejoin:round;}</style>
 </defs>
 <g id="figure_1">
  <g id="patch_1">
   <path d="M 0 483.5075 
L 517.7675 483.5075 
L 517.7675 0 
L 0 0 
z
" style="fill:none;"/>
  </g>
  <g id="axes_1">
   <g id="patch_2">
    <path d="M 64.1675 204.872727 
L 510.5675 204.872727 
L 510.5675 7.2 
L 64.1675 7.2 
z
" style="fill:#ffffff;"/>
   </g>
   <g id="PolyCollection_1">
    <path clip-path="url(#p44d3bdf97d)" d="M 84.458409 98.25156 
L 84.458409 128.678416 
L 84.864633 128.678416 
L 85.270858 128.678416 
L 85.677082 128.678416 
L 86.083307 128.678416 
L 86.489531 128.678416 
L 86.895756 128.678416 
L 87.30198 128.678416 
L 87.708204 128.678416 
L 88.114429 128.678416 
L 88.520653 128.678416 
L 88.926878 128.678416 
L 89.333102 128.678416 
L 89.739326 128.678416 
L 90.145551 128.678416 
L 90.551775 128.678416 
L 90.958 128.678416 
L 91.364224 128.678416 
L 91.770448 128.678416 
L 92.176673 128.678416 
L 92.582897 128.678416 
L 92.989122 128.678416 
L 93.395346 128.678416 
L 93.80157 128.678416 
L 94.207795 128.678416 
L 94.614019 128.678416 
L 95.020244 128.678416 
L 95.426468 128.678416 
L 95.832692 128.678416 
L 96.238917 128.678416 
L 96.645141 128.678416 
L 97.051366 128.678416 
L 97.45759 128.678416 
L 97.863814 128.678416 
L 98.270039 128.678416 
L 98.676263 128.678416 
L 99.082488 128.678416 
L 99.488712 128.678416 
L 99.894937 128.678416 
L 100.301161 128.678416 
L 100.707385 128.678416 
L 101.11361 128.678416 
L 101.519834 128.678416 
L 101.926059 128.678416 
L 102.332283 128.678416 
L 102.738507 128.678416 
L 103.144732 128.678416 
L 103.550956 128.678416 
L 103.957181 128.678416 
L 104.363405 128.678416 
L 104.769629 128.678416 
L 105.175854 128.678416 
L 105.582078 128.678416 
L 105.988303 128.678416 
L 106.394527 128.678416 
L 106.800751 128.678416 
L 107.206976 128.678416 
L 107.6132 128.678416 
L 108.019425 128.678416 
L 108.425649 128.678416 
L 108.831873 128.678416 
L 109.238098 128.678416 
L 109.644322 128.678416 
L 110.050547 128.678416 
L 110.456771 128.678416 
L 110.862995 128.678416 
L 111.26922 128.678416 
L 111.675444 128.678416 
L 112.081669 128.678416 
L 112.487893 128.678416 
L 112.894118 128.678416 
L 113.300342 128.678416 
L 113.706566 128.678416 
L 114.112791 128.678416 
L 114.519015 128.678416 
L 114.92524 128.678416 
L 115.331464 128.678416 
L 115.737688 128.678416 
L 116.143913 128.678416 
L 116.550137 128.678416 
L 116.956362 128.678416 
L 117.362586 128.678416 
L 117.76881 128.678416 
L 118.175035 128.678416 
L 118.581259 128.678416 
L 118.987484 128.678416 
L 119.393708 128.678416 
L 119.799932 128.678416 
L 120.206157 128.678416 
L 120.612381 128.678416 
L 121.018606 128.678416 
L 121.42483 128.678416 
L 121.831054 128.678416 
L 122.237279 128.678416 
L 122.643503 128.678416 
L 123.049728 128.678416 
L 123.455952 128.678416 
L 123.862176 128.678416 
L 124.268401 128.678416 
L 124.674625 128.678416 
L 125.08085 128.678416 
L 125.487074 128.678416 
L 125.893299 128.678416 
L 126.299523 128.678416 
L 126.705747 128.678416 
L 127.111972 128.678416 
L 127.518196 128.678416 
L 127.924421 128.678416 
L 128.330645 128.678416 
L 128.736869 128.678416 
L 129.143094 128.678416 
L 129.549318 128.678416 
L 129.955543 128.678416 
L 130.361767 128.678416 
L 130.767991 128.678416 
L 131.174216 128.678416 
L 131.58044 128.678416 
L 131.986665 128.678416 
L 132.392889 128.678416 
L 132.799113 128.678416 
L 133.205338 128.678416 
L 133.611562 128.678416 
L 134.017787 128.678416 
L 134.424011 128.678416 
L 134.830235 128.678416 
L 135.23646 128.678416 
L 135.642684 128.678416 
L 136.048909 128.678416 
L 136.455133 128.678416 
L 136.861357 128.678416 
L 137.267582 128.678416 
L 137.673806 128.678416 
L 138.080031 128.678416 
L 138.486255 128.678416 
L 138.89248 128.678416 
L 139.298704 128.678416 
L 139.704928 128.678416 
L 140.111153 128.678416 
L 140.517377 128.678416 
L 140.923602 128.678416 
L 141.329826 128.678416 
L 141.73605 128.678416 
L 142.142275 128.678416 
L 142.548499 128.678416 
L 142.954724 128.678416 
L 143.360948 128.678416 
L 143.767172 128.678416 
L 144.173397 128.678416 
L 144.579621 128.678416 
L 144.985846 128.678416 
L 145.39207 128.678416 
L 145.798294 128.678416 
L 146.204519 128.678416 
L 146.610743 128.678416 
L 147.016968 128.678416 
L 147.423192 128.678416 
L 147.829416 128.678416 
L 148.235641 128.678416 
L 148.641865 128.678416 
L 149.04809 128.678416 
L 149.454314 128.678416 
L 149.860538 128.678416 
L 150.266763 128.678416 
L 150.672987 128.678416 
L 151.079212 128.678416 
L 151.485436 128.678416 
L 151.891661 128.678416 
L 152.297885 128.678416 
L 152.704109 128.678416 
L 153.110334 128.678416 
L 153.516558 128.678416 
L 153.922783 128.678416 
L 154.329007 128.678416 
L 154.735231 128.678416 
L 155.141456 128.678416 
L 155.54768 128.678416 
L 155.953905 128.678416 
L 156.360129 128.678416 
L 156.766353 128.678416 
L 157.172578 128.678416 
L 157.578802 128.678416 
L 157.985027 128.678416 
L 158.391251 128.678416 
L 158.797475 128.678416 
L 159.2037 128.678416 
L 159.609924 128.678416 
L 160.016149 128.678416 
L 160.422373 128.678416 
L 160.828597 128.678416 
L 161.234822 128.678416 
L 161.641046 128.678416 
L 162.047271 128.678416 
L 162.453495 128.678416 
L 162.859719 128.678416 
L 163.265944 128.678416 
L 163.672168 128.678416 
L 164.078393 128.678416 
L 164.484617 128.678416 
L 164.890842 128.678416 
L 165.297066 128.827838 
L 165.70329 128.827838 
L 166.109515 128.827838 
L 166.515739 128.827838 
L 166.921964 128.827838 
L 167.328188 128.827838 
L 167.734412 128.827838 
L 168.140637 128.827838 
L 168.546861 128.827838 
L 168.953086 128.827838 
L 169.35931 128.827838 
L 169.765534 128.827838 
L 170.171759 128.827838 
L 170.577983 128.827838 
L 170.984208 128.827838 
L 171.390432 128.827838 
L 171.796656 128.827838 
L 172.202881 128.827838 
L 172.609105 128.827838 
L 173.01533 128.827838 
L 173.421554 128.827838 
L 173.827778 128.827838 
L 174.234003 128.827838 
L 174.640227 128.827838 
L 175.046452 128.827838 
L 175.452676 128.827838 
L 175.8589 128.827838 
L 176.265125 128.827838 
L 176.671349 128.827838 
L 177.077574 128.827838 
L 177.483798 128.827838 
L 177.890023 128.827838 
L 178.296247 128.827838 
L 178.702471 128.827838 
L 179.108696 128.827838 
L 179.51492 128.827838 
L 179.921145 128.827838 
L 180.327369 128.827838 
L 180.733593 128.827838 
L 181.139818 128.827838 
L 181.546042 128.827838 
L 181.952267 128.827838 
L 182.358491 128.827838 
L 182.764715 128.827838 
L 183.17094 128.827838 
L 183.577164 128.827838 
L 183.983389 167.378498 
L 184.389613 167.378498 
L 184.795837 167.378498 
L 185.202062 167.378498 
L 185.608286 167.378498 
L 186.014511 167.378498 
L 186.420735 167.378498 
L 186.826959 167.378498 
L 187.233184 167.378498 
L 187.639408 167.378498 
L 188.045633 167.378498 
L 188.451857 167.378498 
L 188.858081 167.378498 
L 189.264306 167.378498 
L 189.67053 167.378498 
L 190.076755 167.378498 
L 190.482979 167.378498 
L 190.889204 167.378498 
L 191.295428 167.378498 
L 191.701652 167.378498 
L 192.107877 167.378498 
L 192.514101 167.378498 
L 192.920326 167.378498 
L 193.32655 167.378498 
L 193.732774 167.378498 
L 194.138999 167.378498 
L 194.545223 167.378498 
L 194.951448 167.378498 
L 195.357672 167.378498 
L 195.763896 167.378498 
L 196.170121 167.378498 
L 196.576345 167.378498 
L 196.98257 167.378498 
L 197.388794 167.378498 
L 197.795018 167.378498 
L 198.201243 167.378498 
L 198.607467 167.378498 
L 199.013692 167.378498 
L 199.419916 167.378498 
L 199.82614 167.378498 
L 200.232365 167.378498 
L 200.638589 167.378498 
L 201.044814 167.378498 
L 201.451038 167.378498 
L 201.857262 167.378498 
L 202.263487 167.378498 
L 202.669711 167.378498 
L 203.075936 167.378498 
L 203.48216 167.378498 
L 203.888385 167.378498 
L 204.294609 167.378498 
L 204.700833 167.378498 
L 205.107058 167.378498 
L 205.513282 167.378498 
L 205.919507 167.378498 
L 206.325731 167.378498 
L 206.731955 167.378498 
L 207.13818 167.378498 
L 207.544404 167.378498 
L 207.950629 167.378498 
L 208.356853 167.378498 
L 208.763077 167.378498 
L 209.169302 167.378498 
L 209.575526 167.378498 
L 209.981751 167.378498 
L 210.387975 167.378498 
L 210.794199 167.378498 
L 211.200424 167.378498 
L 211.606648 167.378498 
L 212.012873 167.378498 
L 212.419097 167.378498 
L 212.825321 167.378498 
L 213.231546 167.378498 
L 213.63777 167.378498 
L 214.043995 167.378498 
L 214.450219 167.378498 
L 214.856443 167.378498 
L 215.262668 167.378498 
L 215.668892 167.378498 
L 216.075117 167.378498 
L 216.481341 167.378498 
L 216.887566 167.378498 
L 217.29379 167.378498 
L 217.700014 167.378498 
L 218.106239 167.378498 
L 218.512463 167.378498 
L 218.918688 167.378498 
L 219.324912 167.378498 
L 219.731136 167.378498 
L 220.137361 167.378498 
L 220.543585 167.378498 
L 220.94981 167.378498 
L 221.356034 167.378498 
L 221.762258 167.378498 
L 222.168483 167.378498 
L 222.574707 167.378498 
L 222.980932 167.378498 
L 223.387156 167.378498 
L 223.79338 167.378498 
L 224.199605 167.378498 
L 224.605829 167.378498 
L 225.012054 167.378498 
L 225.418278 167.378498 
L 225.824502 167.378498 
L 226.230727 167.378498 
L 226.636951 167.378498 
L 227.043176 167.378498 
L 227.4494 167.378498 
L 227.855624 167.378498 
L 228.261849 167.378498 
L 228.668073 167.378498 
L 229.074298 167.378498 
L 229.480522 167.378498 
L 229.886747 167.378498 
L 230.292971 167.378498 
L 230.699195 167.378498 
L 231.10542 167.378498 
L 231.511644 167.378498 
L 231.917869 167.378498 
L 232.324093 167.378498 
L 232.730317 167.378498 
L 233.136542 167.378498 
L 233.542766 167.378498 
L 233.948991 167.378498 
L 234.355215 167.378498 
L 234.761439 167.378498 
L 235.167664 167.378498 
L 235.573888 167.378498 
L 235.980113 167.378498 
L 236.386337 167.378498 
L 236.792561 167.378498 
L 237.198786 167.378498 
L 237.60501 167.378498 
L 238.011235 167.378498 
L 238.417459 167.378498 
L 238.823683 167.378498 
L 239.229908 167.378498 
L 239.636132 167.378498 
L 240.042357 167.378498 
L 240.448581 167.378498 
L 240.854805 167.378498 
L 241.26103 167.378498 
L 241.667254 167.378498 
L 242.073479 167.378498 
L 242.479703 167.378498 
L 242.885928 167.378498 
L 243.292152 167.378498 
L 243.698376 167.378498 
L 244.104601 167.378498 
L 244.510825 167.378498 
L 244.91705 167.378498 
L 245.323274 167.378498 
L 245.729498 167.378498 
L 246.135723 167.378498 
L 246.541947 167.378498 
L 246.948172 167.378498 
L 247.354396 167.378498 
L 247.76062 167.378498 
L 248.166845 167.378498 
L 248.573069 167.378498 
L 248.979294 167.378498 
L 249.385518 167.378498 
L 249.791742 167.378498 
L 250.197967 167.378498 
L 250.604191 167.378498 
L 251.010416 167.378498 
L 251.41664 167.378498 
L 251.822864 167.378498 
L 252.229089 167.378498 
L 252.635313 167.378498 
L 253.041538 167.378498 
L 253.447762 167.378498 
L 253.853986 167.378498 
L 254.260211 167.378498 
L 254.666435 195.887603 
L 255.07266 195.887603 
L 255.478884 195.887603 
L 255.885109 195.887603 
L 256.291333 195.887603 
L 256.697557 195.887603 
L 257.103782 195.887603 
L 257.510006 195.887603 
L 257.916231 195.887603 
L 258.322455 195.887603 
L 258.728679 195.887603 
L 259.134904 195.887603 
L 259.541128 195.887603 
L 259.947353 195.887603 
L 260.353577 195.887603 
L 260.759801 195.887603 
L 261.166026 195.887603 
L 261.57225 195.887603 
L 261.978475 195.887603 
L 262.384699 195.887603 
L 262.790923 195.887603 
L 263.197148 195.887603 
L 263.603372 195.887603 
L 264.009597 195.887603 
L 264.415821 195.887603 
L 264.822045 195.887603 
L 265.22827 195.887603 
L 265.634494 195.887603 
L 266.040719 195.887603 
L 266.446943 195.887603 
L 266.853167 195.887603 
L 267.259392 195.887603 
L 267.665616 195.887603 
L 268.071841 195.887603 
L 268.478065 195.887603 
L 268.88429 195.887603 
L 269.290514 195.887603 
L 269.696738 195.887603 
L 270.102963 195.887603 
L 270.509187 195.887603 
L 270.915412 195.887603 
L 271.321636 195.887603 
L 271.72786 195.887603 
L 272.134085 195.887603 
L 272.540309 195.887603 
L 272.946534 195.887603 
L 273.352758 195.887603 
L 273.758982 195.887603 
L 274.165207 195.887603 
L 274.571431 195.887603 
L 274.977656 195.887603 
L 275.38388 195.887603 
L 275.790104 195.887603 
L 276.196329 195.887603 
L 276.602553 195.887603 
L 277.008778 195.887603 
L 277.415002 195.887603 
L 277.821226 195.887603 
L 278.227451 195.887603 
L 278.633675 195.887603 
L 279.0399 195.887603 
L 279.446124 195.887603 
L 279.852348 195.887603 
L 280.258573 195.887603 
L 280.664797 195.887603 
L 281.071022 195.887603 
L 281.477246 195.887603 
L 281.883471 195.887603 
L 282.289695 195.887603 
L 282.695919 195.887603 
L 283.102144 195.887603 
L 283.508368 195.887603 
L 283.914593 195.887603 
L 284.320817 195.887603 
L 284.727041 195.887603 
L 285.133266 195.887603 
L 285.53949 195.887603 
L 285.945715 195.887603 
L 286.351939 195.887603 
L 286.758163 195.887603 
L 287.164388 195.887603 
L 287.570612 195.887603 
L 287.976837 195.887603 
L 288.383061 195.887603 
L 288.789285 195.887603 
L 289.19551 195.887603 
L 289.601734 195.887603 
L 290.007959 195.887603 
L 290.414183 195.887603 
L 290.820407 195.887603 
L 291.226632 195.887603 
L 291.632856 195.887603 
L 292.039081 195.887603 
L 292.445305 195.887603 
L 292.851529 195.887603 
L 293.257754 195.887603 
L 293.663978 195.887603 
L 294.070203 195.887603 
L 294.476427 195.887603 
L 294.882652 195.887603 
L 295.288876 195.887603 
L 295.6951 195.887603 
L 296.101325 195.887603 
L 296.507549 195.887603 
L 296.913774 195.887603 
L 297.319998 195.887603 
L 297.726222 195.887603 
L 298.132447 195.887603 
L 298.538671 195.887603 
L 298.944896 195.887603 
L 299.35112 195.887603 
L 299.757344 195.887603 
L 300.163569 195.887603 
L 300.569793 195.887603 
L 300.976018 195.887603 
L 301.382242 195.887603 
L 301.788466 195.887603 
L 302.194691 195.887603 
L 302.600915 195.887603 
L 303.00714 195.887603 
L 303.413364 195.887603 
L 303.819588 195.887603 
L 304.225813 195.887603 
L 304.632037 195.887603 
L 305.038262 195.887603 
L 305.444486 195.887603 
L 305.85071 195.887603 
L 306.256935 195.887603 
L 306.663159 195.887603 
L 307.069384 195.887603 
L 307.475608 195.887603 
L 307.881833 195.887603 
L 308.288057 195.887603 
L 308.694281 195.887603 
L 309.100506 195.887603 
L 309.50673 195.887603 
L 309.912955 195.887603 
L 310.319179 195.887603 
L 310.725403 195.887603 
L 311.131628 195.887603 
L 311.537852 195.887603 
L 311.944077 195.887603 
L 312.350301 195.887603 
L 312.756525 195.887603 
L 313.16275 195.887603 
L 313.568974 195.887603 
L 313.975199 195.887603 
L 314.381423 195.887603 
L 314.787647 195.887603 
L 315.193872 195.887603 
L 315.600096 195.887603 
L 316.006321 195.887603 
L 316.412545 195.887603 
L 316.818769 195.887603 
L 317.224994 195.887603 
L 317.631218 195.887603 
L 318.037443 195.887603 
L 318.443667 195.887603 
L 318.849891 195.887603 
L 319.256116 195.887603 
L 319.66234 195.887603 
L 320.068565 195.887603 
L 320.474789 195.887603 
L 320.881014 195.887603 
L 321.287238 195.887603 
L 321.693462 195.887603 
L 322.099687 195.887603 
L 322.505911 195.887603 
L 322.912136 195.887603 
L 323.31836 195.887603 
L 323.724584 195.887603 
L 324.130809 195.887603 
L 324.537033 195.887603 
L 324.943258 195.887603 
L 325.349482 195.887603 
L 325.755706 195.887603 
L 326.161931 195.887603 
L 326.568155 195.887603 
L 326.97438 195.887603 
L 327.380604 195.887603 
L 327.786828 195.887603 
L 328.193053 195.887603 
L 328.599277 195.887603 
L 329.005502 195.887603 
L 329.411726 195.887603 
L 329.81795 195.887603 
L 330.224175 195.887603 
L 330.630399 195.887603 
L 331.036624 195.887603 
L 331.442848 195.887603 
L 331.849072 195.887603 
L 332.255297 195.887603 
L 332.661521 195.887603 
L 333.067746 195.887603 
L 333.47397 195.887603 
L 333.880195 195.887603 
L 334.286419 195.887603 
L 334.692643 195.887603 
L 335.098868 195.887603 
L 335.505092 195.887603 
L 335.911317 195.887603 
L 336.317541 195.887603 
L 336.723765 195.887603 
L 337.12999 195.887603 
L 337.536214 195.887603 
L 337.942439 195.887603 
L 338.348663 195.887603 
L 338.754887 195.887603 
L 339.161112 195.887603 
L 339.567336 195.887603 
L 339.973561 195.887603 
L 340.379785 195.887603 
L 340.786009 195.887603 
L 341.192234 195.887603 
L 341.598458 195.887603 
L 342.004683 195.887603 
L 342.410907 195.887603 
L 342.817131 195.887603 
L 343.223356 195.887603 
L 343.62958 195.887603 
L 344.035805 195.887603 
L 344.442029 195.887603 
L 344.848253 195.887603 
L 345.254478 195.887603 
L 345.660702 195.887603 
L 346.066927 195.887603 
L 346.473151 195.887603 
L 346.879376 195.887603 
L 347.2856 195.887603 
L 347.691824 195.887603 
L 348.098049 195.887603 
L 348.504273 195.887603 
L 348.910498 195.887603 
L 349.316722 195.887603 
L 349.722946 195.887603 
L 350.129171 195.887603 
L 350.535395 195.887603 
L 350.94162 195.887603 
L 351.347844 195.887603 
L 351.754068 195.887603 
L 352.160293 195.887603 
L 352.566517 195.887603 
L 352.972742 195.887603 
L 353.378966 195.887603 
L 353.78519 195.887603 
L 354.191415 195.887603 
L 354.597639 195.887603 
L 355.003864 195.887603 
L 355.410088 195.887603 
L 355.816312 195.887603 
L 356.222537 195.887603 
L 356.628761 195.887603 
L 357.034986 195.887603 
L 357.44121 195.887603 
L 357.847434 195.887603 
L 358.253659 195.887603 
L 358.659883 195.887603 
L 359.066108 195.887603 
L 359.472332 195.887603 
L 359.878557 195.887603 
L 360.284781 195.887603 
L 360.691005 195.887603 
L 361.09723 195.887603 
L 361.503454 195.887603 
L 361.909679 195.887603 
L 362.315903 195.887603 
L 362.722127 195.887603 
L 363.128352 195.887603 
L 363.534576 195.887603 
L 363.940801 195.887603 
L 364.347025 195.887603 
L 364.753249 195.887603 
L 365.159474 195.887603 
L 365.565698 195.887603 
L 365.971923 195.887603 
L 366.378147 195.887603 
L 366.784371 195.887603 
L 367.190596 195.887603 
L 367.59682 195.887603 
L 368.003045 195.887603 
L 368.409269 195.887603 
L 368.815493 195.887603 
L 369.221718 195.887603 
L 369.627942 195.887603 
L 370.034167 195.887603 
L 370.440391 195.887603 
L 370.846615 195.887603 
L 371.25284 195.887603 
L 371.659064 195.887603 
L 372.065289 195.887603 
L 372.471513 195.887603 
L 372.877738 195.887603 
L 373.283962 195.887603 
L 373.690186 195.887603 
L 374.096411 195.887603 
L 374.502635 195.887603 
L 374.90886 195.887603 
L 375.315084 195.887603 
L 375.721308 195.887603 
L 376.127533 195.887603 
L 376.533757 195.887603 
L 376.939982 195.887603 
L 377.346206 195.887603 
L 377.75243 195.887603 
L 378.158655 195.887603 
L 378.564879 195.887603 
L 378.971104 195.887603 
L 379.377328 195.887603 
L 379.783552 195.887603 
L 380.189777 195.887603 
L 380.596001 195.887603 
L 381.002226 195.887603 
L 381.40845 195.887603 
L 381.814674 195.887603 
L 382.220899 195.887603 
L 382.627123 195.887603 
L 383.033348 195.887603 
L 383.439572 195.887603 
L 383.845796 195.887603 
L 384.252021 195.887603 
L 384.658245 195.887603 
L 385.06447 195.887603 
L 385.470694 195.887603 
L 385.876919 195.887603 
L 386.283143 195.887603 
L 386.689367 195.887603 
L 387.095592 195.887603 
L 387.501816 195.887603 
L 387.908041 195.887603 
L 388.314265 195.887603 
L 388.720489 195.887603 
L 389.126714 195.887603 
L 389.532938 195.887603 
L 389.939163 195.887603 
L 390.345387 195.887603 
L 390.751611 195.887603 
L 391.157836 195.887603 
L 391.56406 195.887603 
L 391.970285 195.887603 
L 392.376509 195.887603 
L 392.782733 195.887603 
L 393.188958 195.887603 
L 393.595182 195.887603 
L 394.001407 195.887603 
L 394.407631 195.887603 
L 394.813855 195.887603 
L 395.22008 195.887603 
L 395.626304 195.887603 
L 396.032529 195.887603 
L 396.438753 195.887603 
L 396.844977 195.887603 
L 397.251202 195.887603 
L 397.657426 195.887603 
L 398.063651 195.887603 
L 398.469875 195.887603 
L 398.8761 195.887603 
L 399.282324 195.887603 
L 399.688548 195.887603 
L 400.094773 195.887603 
L 400.500997 195.887603 
L 400.907222 195.887603 
L 401.313446 195.887603 
L 401.71967 195.887603 
L 402.125895 195.887603 
L 402.532119 195.887603 
L 402.938344 195.887603 
L 403.344568 195.887603 
L 403.750792 195.887603 
L 404.157017 195.887603 
L 404.563241 195.887603 
L 404.969466 195.887603 
L 405.37569 195.887603 
L 405.781914 195.887603 
L 406.188139 195.887603 
L 406.594363 195.887603 
L 407.000588 195.887603 
L 407.406812 195.887603 
L 407.813036 195.887603 
L 408.219261 195.887603 
L 408.625485 195.887603 
L 409.03171 195.887603 
L 409.437934 195.887603 
L 409.844158 195.887603 
L 410.250383 195.887603 
L 410.656607 195.887603 
L 411.062832 195.887603 
L 411.469056 195.887603 
L 411.875281 195.887603 
L 412.281505 195.887603 
L 412.687729 195.887603 
L 413.093954 195.887603 
L 413.500178 195.887603 
L 413.906403 195.887603 
L 414.312627 195.887603 
L 414.718851 195.887603 
L 415.125076 195.887603 
L 415.5313 195.887603 
L 415.937525 195.887603 
L 416.343749 195.887603 
L 416.749973 195.887603 
L 417.156198 195.887603 
L 417.562422 195.887603 
L 417.968647 195.887603 
L 418.374871 195.887603 
L 418.781095 195.887603 
L 419.18732 195.887603 
L 419.593544 195.887603 
L 419.999769 195.887603 
L 420.405993 195.887603 
L 420.812217 195.887603 
L 421.218442 195.887603 
L 421.624666 195.887603 
L 422.030891 195.887603 
L 422.437115 195.887603 
L 422.843339 195.887603 
L 423.249564 195.887603 
L 423.655788 195.887603 
L 424.062013 195.887603 
L 424.468237 195.887603 
L 424.874462 195.887603 
L 425.280686 195.887603 
L 425.68691 195.887603 
L 426.093135 195.887603 
L 426.499359 195.887603 
L 426.905584 195.887603 
L 427.311808 195.887603 
L 427.718032 195.887603 
L 428.124257 195.887603 
L 428.530481 195.887603 
L 428.936706 195.887603 
L 429.34293 195.887603 
L 429.749154 195.887603 
L 430.155379 195.887603 
L 430.561603 195.887603 
L 430.967828 195.887603 
L 431.374052 195.887603 
L 431.780276 195.887603 
L 432.186501 195.887603 
L 432.592725 195.887603 
L 432.99895 195.887603 
L 433.405174 195.887603 
L 433.811398 195.887603 
L 434.217623 195.887603 
L 434.623847 195.887603 
L 435.030072 195.887603 
L 435.436296 195.887603 
L 435.84252 195.887603 
L 436.248745 195.887603 
L 436.654969 195.887603 
L 437.061194 195.887603 
L 437.467418 195.887603 
L 437.873643 195.887603 
L 438.279867 195.887603 
L 438.686091 195.887603 
L 439.092316 195.887603 
L 439.49854 195.887603 
L 439.904765 195.887603 
L 440.310989 195.887603 
L 440.717213 195.887603 
L 441.123438 195.887603 
L 441.529662 195.887603 
L 441.935887 195.887603 
L 442.342111 195.887603 
L 442.748335 195.887603 
L 443.15456 195.887603 
L 443.560784 195.887603 
L 443.967009 195.887603 
L 444.373233 195.887603 
L 444.779457 195.887603 
L 445.185682 195.887603 
L 445.591906 195.887603 
L 445.998131 195.887603 
L 446.404355 195.887603 
L 446.810579 195.887603 
L 447.216804 195.887603 
L 447.623028 195.887603 
L 448.029253 195.887603 
L 448.435477 195.887603 
L 448.841701 195.887603 
L 449.247926 195.887603 
L 449.65415 195.887603 
L 450.060375 195.887603 
L 450.466599 195.887603 
L 450.872824 195.887603 
L 451.279048 195.887603 
L 451.685272 195.887603 
L 452.091497 195.887603 
L 452.497721 195.887603 
L 452.903946 195.887603 
L 453.31017 195.887603 
L 453.716394 195.887603 
L 454.122619 195.887603 
L 454.528843 195.887603 
L 454.935068 195.887603 
L 455.341292 195.887603 
L 455.747516 195.887603 
L 456.153741 195.887603 
L 456.559965 195.887603 
L 456.96619 195.887603 
L 457.372414 195.887603 
L 457.778638 195.887603 
L 458.184863 195.887603 
L 458.591087 195.887603 
L 458.997312 195.887603 
L 459.403536 195.887603 
L 459.80976 195.887603 
L 460.215985 195.887603 
L 460.622209 195.887603 
L 461.028434 195.887603 
L 461.434658 195.887603 
L 461.840882 195.887603 
L 462.247107 195.887603 
L 462.653331 195.887603 
L 463.059556 195.887603 
L 463.46578 195.887603 
L 463.872005 195.887603 
L 464.278229 195.887603 
L 464.684453 195.887603 
L 465.090678 195.887603 
L 465.496902 195.887603 
L 465.903127 195.887603 
L 466.309351 195.887603 
L 466.715575 195.887603 
L 467.1218 195.887603 
L 467.528024 195.887603 
L 467.934249 195.887603 
L 468.340473 195.887603 
L 468.746697 195.887603 
L 469.152922 195.887603 
L 469.559146 195.887603 
L 469.965371 195.887603 
L 470.371595 195.887603 
L 470.777819 195.887603 
L 471.184044 195.887603 
L 471.590268 195.887603 
L 471.996493 195.887603 
L 472.402717 195.887603 
L 472.808941 195.887603 
L 473.215166 195.887603 
L 473.62139 195.887603 
L 474.027615 195.887603 
L 474.433839 195.887603 
L 474.840063 195.887603 
L 475.246288 195.887603 
L 475.652512 195.887603 
L 476.058737 195.887603 
L 476.464961 195.887603 
L 476.871186 195.887603 
L 477.27741 195.887603 
L 477.683634 195.887603 
L 478.089859 195.887603 
L 478.496083 195.887603 
L 478.902308 195.887603 
L 479.308532 195.887603 
L 479.714756 195.887603 
L 480.120981 195.887603 
L 480.527205 195.887603 
L 480.93343 195.887603 
L 481.339654 195.887603 
L 481.745878 195.887603 
L 482.152103 195.887603 
L 482.558327 195.887603 
L 482.964552 195.887603 
L 483.370776 195.887603 
L 483.777 195.887603 
L 484.183225 195.887603 
L 484.589449 195.887603 
L 484.995674 195.887603 
L 485.401898 195.887603 
L 485.808122 195.887603 
L 486.214347 195.887603 
L 486.620571 195.887603 
L 487.026796 195.887603 
L 487.43302 195.887603 
L 487.839244 195.887603 
L 488.245469 195.887603 
L 488.651693 195.887603 
L 489.057918 195.887603 
L 489.464142 195.887603 
L 489.870367 195.887603 
L 490.276591 195.887603 
L 490.276591 100.668694 
L 490.276591 100.668694 
L 489.870367 100.668694 
L 489.464142 100.668694 
L 489.057918 100.668694 
L 488.651693 100.668694 
L 488.245469 100.668694 
L 487.839244 100.668694 
L 487.43302 100.668694 
L 487.026796 100.668694 
L 486.620571 100.668694 
L 486.214347 100.668694 
L 485.808122 100.668694 
L 485.401898 100.668694 
L 484.995674 100.668694 
L 484.589449 100.668694 
L 484.183225 100.668694 
L 483.777 100.668694 
L 483.370776 100.668694 
L 482.964552 100.668694 
L 482.558327 100.668694 
L 482.152103 100.668694 
L 481.745878 100.668694 
L 481.339654 100.668694 
L 480.93343 100.668694 
L 480.527205 100.668694 
L 480.120981 100.668694 
L 479.714756 100.668694 
L 479.308532 100.668694 
L 478.902308 100.668694 
L 478.496083 100.668694 
L 478.089859 100.668694 
L 477.683634 100.668694 
L 477.27741 100.668694 
L 476.871186 100.668694 
L 476.464961 100.668694 
L 476.058737 100.668694 
L 475.652512 100.668694 
L 475.246288 100.668694 
L 474.840063 100.668694 
L 474.433839 100.668694 
L 474.027615 100.668694 
L 473.62139 100.668694 
L 473.215166 100.668694 
L 472.808941 100.668694 
L 472.402717 100.668694 
L 471.996493 100.668694 
L 471.590268 100.668694 
L 471.184044 100.668694 
L 470.777819 100.668694 
L 470.371595 100.668694 
L 469.965371 100.668694 
L 469.559146 100.668694 
L 469.152922 100.668694 
L 468.746697 100.668694 
L 468.340473 100.668694 
L 467.934249 100.668694 
L 467.528024 100.668694 
L 467.1218 100.668694 
L 466.715575 100.668694 
L 466.309351 100.668694 
L 465.903127 100.668694 
L 465.496902 100.668694 
L 465.090678 100.668694 
L 464.684453 100.668694 
L 464.278229 100.668694 
L 463.872005 100.668694 
L 463.46578 100.668694 
L 463.059556 100.668694 
L 462.653331 100.668694 
L 462.247107 100.668694 
L 461.840882 100.668694 
L 461.434658 100.668694 
L 461.028434 100.668694 
L 460.622209 100.668694 
L 460.215985 100.668694 
L 459.80976 100.668694 
L 459.403536 100.668694 
L 458.997312 100.668694 
L 458.591087 100.668694 
L 458.184863 100.668694 
L 457.778638 100.668694 
L 457.372414 100.668694 
L 456.96619 100.668694 
L 456.559965 100.668694 
L 456.153741 100.668694 
L 455.747516 100.668694 
L 455.341292 100.668694 
L 454.935068 100.668694 
L 454.528843 100.668694 
L 454.122619 100.668694 
L 453.716394 100.668694 
L 453.31017 100.668694 
L 452.903946 100.668694 
L 452.497721 100.668694 
L 452.091497 100.668694 
L 451.685272 100.668694 
L 451.279048 100.668694 
L 450.872824 100.668694 
L 450.466599 100.668694 
L 450.060375 100.668694 
L 449.65415 100.668694 
L 449.247926 100.668694 
L 448.841701 100.668694 
L 448.435477 100.668694 
L 448.029253 100.668694 
L 447.623028 100.668694 
L 447.216804 100.668694 
L 446.810579 100.668694 
L 446.404355 100.668694 
L 445.998131 100.668694 
L 445.591906 100.668694 
L 445.185682 100.668694 
L 444.779457 100.668694 
L 444.373233 100.668694 
L 443.967009 100.668694 
L 443.560784 100.668694 
L 443.15456 100.668694 
L 442.748335 100.668694 
L 442.342111 100.668694 
L 441.935887 100.668694 
L 441.529662 100.668694 
L 441.123438 100.668694 
L 440.717213 100.668694 
L 440.310989 100.668694 
L 439.904765 100.668694 
L 439.49854 100.668694 
L 439.092316 100.668694 
L 438.686091 100.668694 
L 438.279867 100.668694 
L 437.873643 100.668694 
L 437.467418 100.668694 
L 437.061194 100.668694 
L 436.654969 100.668694 
L 436.248745 100.668694 
L 435.84252 100.668694 
L 435.436296 100.668694 
L 435.030072 100.668694 
L 434.623847 100.668694 
L 434.217623 100.668694 
L 433.811398 100.668694 
L 433.405174 100.668694 
L 432.99895 100.668694 
L 432.592725 100.668694 
L 432.186501 100.668694 
L 431.780276 100.668694 
L 431.374052 100.668694 
L 430.967828 100.668694 
L 430.561603 100.668694 
L 430.155379 100.668694 
L 429.749154 100.668694 
L 429.34293 100.668694 
L 428.936706 100.668694 
L 428.530481 100.668694 
L 428.124257 100.668694 
L 427.718032 100.668694 
L 427.311808 100.668694 
L 426.905584 100.668694 
L 426.499359 100.668694 
L 426.093135 100.668694 
L 425.68691 100.668694 
L 425.280686 100.668694 
L 424.874462 100.668694 
L 424.468237 100.668694 
L 424.062013 100.668694 
L 423.655788 100.668694 
L 423.249564 100.668694 
L 422.843339 100.668694 
L 422.437115 100.668694 
L 422.030891 100.668694 
L 421.624666 100.668694 
L 421.218442 100.668694 
L 420.812217 100.668694 
L 420.405993 100.668694 
L 419.999769 100.668694 
L 419.593544 100.668694 
L 419.18732 100.668694 
L 418.781095 100.668694 
L 418.374871 100.668694 
L 417.968647 100.668694 
L 417.562422 100.668694 
L 417.156198 100.668694 
L 416.749973 100.668694 
L 416.343749 100.668694 
L 415.937525 100.668694 
L 415.5313 100.668694 
L 415.125076 100.668694 
L 414.718851 100.668694 
L 414.312627 100.668694 
L 413.906403 100.668694 
L 413.500178 100.668694 
L 413.093954 100.668694 
L 412.687729 100.668694 
L 412.281505 100.668694 
L 411.875281 100.668694 
L 411.469056 100.668694 
L 411.062832 100.668694 
L 410.656607 100.668694 
L 410.250383 100.668694 
L 409.844158 100.668694 
L 409.437934 100.668694 
L 409.03171 100.668694 
L 408.625485 100.668694 
L 408.219261 100.668694 
L 407.813036 100.668694 
L 407.406812 100.668694 
L 407.000588 100.668694 
L 406.594363 100.668694 
L 406.188139 100.668694 
L 405.781914 100.668694 
L 405.37569 100.668694 
L 404.969466 100.668694 
L 404.563241 100.668694 
L 404.157017 100.668694 
L 403.750792 100.668694 
L 403.344568 100.668694 
L 402.938344 100.668694 
L 402.532119 100.668694 
L 402.125895 100.668694 
L 401.71967 100.668694 
L 401.313446 100.668694 
L 400.907222 100.668694 
L 400.500997 100.668694 
L 400.094773 100.668694 
L 399.688548 100.668694 
L 399.282324 100.668694 
L 398.8761 100.668694 
L 398.469875 100.668694 
L 398.063651 100.668694 
L 397.657426 100.668694 
L 397.251202 100.668694 
L 396.844977 100.668694 
L 396.438753 100.668694 
L 396.032529 100.668694 
L 395.626304 100.668694 
L 395.22008 100.668694 
L 394.813855 100.668694 
L 394.407631 100.668694 
L 394.001407 100.668694 
L 393.595182 100.668694 
L 393.188958 100.668694 
L 392.782733 100.668694 
L 392.376509 100.668694 
L 391.970285 100.668694 
L 391.56406 100.668694 
L 391.157836 100.668694 
L 390.751611 100.668694 
L 390.345387 100.668694 
L 389.939163 100.668694 
L 389.532938 100.668694 
L 389.126714 100.668694 
L 388.720489 100.668694 
L 388.314265 100.668694 
L 387.908041 100.668694 
L 387.501816 100.668694 
L 387.095592 100.668694 
L 386.689367 100.668694 
L 386.283143 100.668694 
L 385.876919 100.668694 
L 385.470694 100.668694 
L 385.06447 100.668694 
L 384.658245 100.668694 
L 384.252021 100.668694 
L 383.845796 100.668694 
L 383.439572 100.668694 
L 383.033348 100.668694 
L 382.627123 100.668694 
L 382.220899 100.668694 
L 381.814674 100.668694 
L 381.40845 100.668694 
L 381.002226 100.668694 
L 380.596001 100.668694 
L 380.189777 100.668694 
L 379.783552 100.668694 
L 379.377328 100.668694 
L 378.971104 100.668694 
L 378.564879 100.668694 
L 378.158655 100.668694 
L 377.75243 100.668694 
L 377.346206 100.668694 
L 376.939982 100.668694 
L 376.533757 100.668694 
L 376.127533 100.668694 
L 375.721308 100.668694 
L 375.315084 100.668694 
L 374.90886 100.668694 
L 374.502635 100.668694 
L 374.096411 100.668694 
L 373.690186 100.668694 
L 373.283962 100.668694 
L 372.877738 100.668694 
L 372.471513 100.668694 
L 372.065289 100.668694 
L 371.659064 100.668694 
L 371.25284 100.668694 
L 370.846615 100.668694 
L 370.440391 100.668694 
L 370.034167 100.668694 
L 369.627942 100.668694 
L 369.221718 100.668694 
L 368.815493 100.668694 
L 368.409269 100.668694 
L 368.003045 100.668694 
L 367.59682 100.668694 
L 367.190596 100.668694 
L 366.784371 100.668694 
L 366.378147 100.668694 
L 365.971923 100.668694 
L 365.565698 100.668694 
L 365.159474 100.668694 
L 364.753249 100.668694 
L 364.347025 100.668694 
L 363.940801 100.668694 
L 363.534576 100.668694 
L 363.128352 100.668694 
L 362.722127 100.668694 
L 362.315903 100.668694 
L 361.909679 100.668694 
L 361.503454 100.668694 
L 361.09723 100.668694 
L 360.691005 100.668694 
L 360.284781 100.668694 
L 359.878557 100.668694 
L 359.472332 100.668694 
L 359.066108 100.668694 
L 358.659883 100.668694 
L 358.253659 100.668694 
L 357.847434 100.668694 
L 357.44121 100.668694 
L 357.034986 100.668694 
L 356.628761 100.668694 
L 356.222537 100.668694 
L 355.816312 100.668694 
L 355.410088 100.668694 
L 355.003864 100.668694 
L 354.597639 100.668694 
L 354.191415 100.668694 
L 353.78519 100.668694 
L 353.378966 100.668694 
L 352.972742 100.668694 
L 352.566517 100.668694 
L 352.160293 100.668694 
L 351.754068 100.668694 
L 351.347844 100.668694 
L 350.94162 100.668694 
L 350.535395 100.668694 
L 350.129171 100.668694 
L 349.722946 100.668694 
L 349.316722 100.668694 
L 348.910498 100.668694 
L 348.504273 100.668694 
L 348.098049 100.668694 
L 347.691824 100.668694 
L 347.2856 100.668694 
L 346.879376 100.668694 
L 346.473151 100.668694 
L 346.066927 100.668694 
L 345.660702 100.668694 
L 345.254478 100.668694 
L 344.848253 100.668694 
L 344.442029 100.668694 
L 344.035805 100.668694 
L 343.62958 100.668694 
L 343.223356 100.668694 
L 342.817131 100.668694 
L 342.410907 100.668694 
L 342.004683 100.668694 
L 341.598458 100.668694 
L 341.192234 100.668694 
L 340.786009 100.668694 
L 340.379785 100.668694 
L 339.973561 100.668694 
L 339.567336 100.668694 
L 339.161112 100.668694 
L 338.754887 100.668694 
L 338.348663 100.668694 
L 337.942439 100.668694 
L 337.536214 100.668694 
L 337.12999 100.668694 
L 336.723765 100.668694 
L 336.317541 100.668694 
L 335.911317 100.668694 
L 335.505092 100.668694 
L 335.098868 100.668694 
L 334.692643 100.668694 
L 334.286419 100.668694 
L 333.880195 100.668694 
L 333.47397 100.668694 
L 333.067746 100.668694 
L 332.661521 100.668694 
L 332.255297 100.668694 
L 331.849072 100.668694 
L 331.442848 100.668694 
L 331.036624 100.668694 
L 330.630399 100.668694 
L 330.224175 100.668694 
L 329.81795 100.668694 
L 329.411726 100.668694 
L 329.005502 100.668694 
L 328.599277 100.668694 
L 328.193053 100.668694 
L 327.786828 100.668694 
L 327.380604 100.668694 
L 326.97438 100.668694 
L 326.568155 100.668694 
L 326.161931 100.668694 
L 325.755706 100.668694 
L 325.349482 100.668694 
L 324.943258 100.668694 
L 324.537033 100.668694 
L 324.130809 100.668694 
L 323.724584 100.668694 
L 323.31836 100.668694 
L 322.912136 100.668694 
L 322.505911 100.668694 
L 322.099687 100.668694 
L 321.693462 100.668694 
L 321.287238 100.668694 
L 320.881014 100.668694 
L 320.474789 100.668694 
L 320.068565 100.668694 
L 319.66234 100.668694 
L 319.256116 100.668694 
L 318.849891 100.668694 
L 318.443667 100.668694 
L 318.037443 100.668694 
L 317.631218 100.668694 
L 317.224994 100.668694 
L 316.818769 100.668694 
L 316.412545 100.668694 
L 316.006321 100.668694 
L 315.600096 100.668694 
L 315.193872 100.668694 
L 314.787647 100.668694 
L 314.381423 100.668694 
L 313.975199 100.668694 
L 313.568974 100.668694 
L 313.16275 100.668694 
L 312.756525 100.668694 
L 312.350301 100.668694 
L 311.944077 100.668694 
L 311.537852 100.668694 
L 311.131628 100.668694 
L 310.725403 100.668694 
L 310.319179 100.668694 
L 309.912955 100.668694 
L 309.50673 100.668694 
L 309.100506 100.668694 
L 308.694281 100.668694 
L 308.288057 100.668694 
L 307.881833 100.668694 
L 307.475608 100.668694 
L 307.069384 100.668694 
L 306.663159 100.668694 
L 306.256935 100.668694 
L 305.85071 100.668694 
L 305.444486 100.668694 
L 305.038262 100.668694 
L 304.632037 100.668694 
L 304.225813 100.668694 
L 303.819588 100.668694 
L 303.413364 100.668694 
L 303.00714 100.668694 
L 302.600915 100.668694 
L 302.194691 100.668694 
L 301.788466 100.668694 
L 301.382242 100.668694 
L 300.976018 100.668694 
L 300.569793 100.668694 
L 300.163569 100.668694 
L 299.757344 100.668694 
L 299.35112 100.668694 
L 298.944896 100.668694 
L 298.538671 100.668694 
L 298.132447 100.668694 
L 297.726222 100.668694 
L 297.319998 100.668694 
L 296.913774 100.668694 
L 296.507549 100.668694 
L 296.101325 100.668694 
L 295.6951 100.668694 
L 295.288876 100.668694 
L 294.882652 100.668694 
L 294.476427 100.668694 
L 294.070203 100.668694 
L 293.663978 100.668694 
L 293.257754 100.668694 
L 292.851529 100.668694 
L 292.445305 100.668694 
L 292.039081 100.668694 
L 291.632856 100.668694 
L 291.226632 100.668694 
L 290.820407 100.668694 
L 290.414183 100.668694 
L 290.007959 100.668694 
L 289.601734 100.668694 
L 289.19551 100.668694 
L 288.789285 100.668694 
L 288.383061 100.668694 
L 287.976837 100.668694 
L 287.570612 100.668694 
L 287.164388 100.668694 
L 286.758163 100.668694 
L 286.351939 100.668694 
L 285.945715 100.668694 
L 285.53949 100.668694 
L 285.133266 100.668694 
L 284.727041 100.668694 
L 284.320817 100.668694 
L 283.914593 100.668694 
L 283.508368 100.668694 
L 283.102144 100.668694 
L 282.695919 100.668694 
L 282.289695 100.668694 
L 281.883471 100.668694 
L 281.477246 100.668694 
L 281.071022 100.668694 
L 280.664797 100.668694 
L 280.258573 100.668694 
L 279.852348 100.668694 
L 279.446124 100.668694 
L 279.0399 100.668694 
L 278.633675 100.668694 
L 278.227451 100.668694 
L 277.821226 100.668694 
L 277.415002 100.668694 
L 277.008778 100.668694 
L 276.602553 100.668694 
L 276.196329 100.668694 
L 275.790104 100.668694 
L 275.38388 100.668694 
L 274.977656 100.668694 
L 274.571431 100.668694 
L 274.165207 100.668694 
L 273.758982 100.668694 
L 273.352758 100.668694 
L 272.946534 100.668694 
L 272.540309 100.668694 
L 272.134085 100.668694 
L 271.72786 100.668694 
L 271.321636 100.668694 
L 270.915412 100.668694 
L 270.509187 100.668694 
L 270.102963 100.668694 
L 269.696738 100.668694 
L 269.290514 100.668694 
L 268.88429 100.668694 
L 268.478065 100.668694 
L 268.071841 100.668694 
L 267.665616 100.668694 
L 267.259392 100.668694 
L 266.853167 100.668694 
L 266.446943 100.668694 
L 266.040719 100.668694 
L 265.634494 100.668694 
L 265.22827 100.668694 
L 264.822045 100.668694 
L 264.415821 100.668694 
L 264.009597 100.668694 
L 263.603372 100.668694 
L 263.197148 100.668694 
L 262.790923 100.668694 
L 262.384699 100.668694 
L 261.978475 100.668694 
L 261.57225 100.668694 
L 261.166026 100.668694 
L 260.759801 100.668694 
L 260.353577 100.668694 
L 259.947353 100.668694 
L 259.541128 100.668694 
L 259.134904 100.668694 
L 258.728679 100.668694 
L 258.322455 100.668694 
L 257.916231 100.668694 
L 257.510006 100.668694 
L 257.103782 100.668694 
L 256.697557 100.668694 
L 256.291333 100.668694 
L 255.885109 100.668694 
L 255.478884 100.668694 
L 255.07266 100.668694 
L 254.666435 100.668694 
L 254.260211 81.191614 
L 253.853986 81.191614 
L 253.447762 81.191614 
L 253.041538 81.191614 
L 252.635313 81.191614 
L 252.229089 81.191614 
L 251.822864 81.191614 
L 251.41664 81.191614 
L 251.010416 81.191614 
L 250.604191 81.191614 
L 250.197967 81.191614 
L 249.791742 81.191614 
L 249.385518 81.191614 
L 248.979294 81.191614 
L 248.573069 81.191614 
L 248.166845 81.191614 
L 247.76062 81.191614 
L 247.354396 81.191614 
L 246.948172 81.191614 
L 246.541947 81.191614 
L 246.135723 81.191614 
L 245.729498 81.191614 
L 245.323274 81.191614 
L 244.91705 81.191614 
L 244.510825 81.191614 
L 244.104601 81.191614 
L 243.698376 81.191614 
L 243.292152 81.191614 
L 242.885928 81.191614 
L 242.479703 81.191614 
L 242.073479 81.191614 
L 241.667254 81.191614 
L 241.26103 81.191614 
L 240.854805 81.191614 
L 240.448581 81.191614 
L 240.042357 81.191614 
L 239.636132 81.191614 
L 239.229908 81.191614 
L 238.823683 81.191614 
L 238.417459 81.191614 
L 238.011235 81.191614 
L 237.60501 81.191614 
L 237.198786 81.191614 
L 236.792561 81.191614 
L 236.386337 81.191614 
L 235.980113 81.191614 
L 235.573888 81.191614 
L 235.167664 81.191614 
L 234.761439 81.191614 
L 234.355215 81.191614 
L 233.948991 81.191614 
L 233.542766 81.191614 
L 233.136542 81.191614 
L 232.730317 81.191614 
L 232.324093 81.191614 
L 231.917869 81.191614 
L 231.511644 81.191614 
L 231.10542 81.191614 
L 230.699195 81.191614 
L 230.292971 81.191614 
L 229.886747 81.191614 
L 229.480522 81.191614 
L 229.074298 81.191614 
L 228.668073 81.191614 
L 228.261849 81.191614 
L 227.855624 81.191614 
L 227.4494 81.191614 
L 227.043176 81.191614 
L 226.636951 81.191614 
L 226.230727 81.191614 
L 225.824502 81.191614 
L 225.418278 81.191614 
L 225.012054 81.191614 
L 224.605829 81.191614 
L 224.199605 81.191614 
L 223.79338 81.191614 
L 223.387156 81.191614 
L 222.980932 81.191614 
L 222.574707 81.191614 
L 222.168483 81.191614 
L 221.762258 81.191614 
L 221.356034 81.191614 
L 220.94981 81.191614 
L 220.543585 81.191614 
L 220.137361 81.191614 
L 219.731136 81.191614 
L 219.324912 81.191614 
L 218.918688 81.191614 
L 218.512463 81.191614 
L 218.106239 81.191614 
L 217.700014 81.191614 
L 217.29379 81.191614 
L 216.887566 81.191614 
L 216.481341 81.191614 
L 216.075117 81.191614 
L 215.668892 81.191614 
L 215.262668 81.191614 
L 214.856443 81.191614 
L 214.450219 81.191614 
L 214.043995 81.191614 
L 213.63777 81.191614 
L 213.231546 81.191614 
L 212.825321 81.191614 
L 212.419097 81.191614 
L 212.012873 81.191614 
L 211.606648 81.191614 
L 211.200424 81.191614 
L 210.794199 81.191614 
L 210.387975 81.191614 
L 209.981751 81.191614 
L 209.575526 81.191614 
L 209.169302 81.191614 
L 208.763077 81.191614 
L 208.356853 81.191614 
L 207.950629 81.191614 
L 207.544404 81.191614 
L 207.13818 81.191614 
L 206.731955 81.191614 
L 206.325731 81.191614 
L 205.919507 81.191614 
L 205.513282 81.191614 
L 205.107058 81.191614 
L 204.700833 81.191614 
L 204.294609 81.191614 
L 203.888385 81.191614 
L 203.48216 81.191614 
L 203.075936 81.191614 
L 202.669711 81.191614 
L 202.263487 81.191614 
L 201.857262 81.191614 
L 201.451038 81.191614 
L 201.044814 81.191614 
L 200.638589 81.191614 
L 200.232365 81.191614 
L 199.82614 81.191614 
L 199.419916 81.191614 
L 199.013692 81.191614 
L 198.607467 81.191614 
L 198.201243 81.191614 
L 197.795018 81.191614 
L 197.388794 81.191614 
L 196.98257 81.191614 
L 196.576345 81.191614 
L 196.170121 81.191614 
L 195.763896 81.191614 
L 195.357672 81.191614 
L 194.951448 81.191614 
L 194.545223 81.191614 
L 194.138999 81.191614 
L 193.732774 81.191614 
L 193.32655 81.191614 
L 192.920326 81.191614 
L 192.514101 81.191614 
L 192.107877 81.191614 
L 191.701652 81.191614 
L 191.295428 81.191614 
L 190.889204 81.191614 
L 190.482979 81.191614 
L 190.076755 81.191614 
L 189.67053 81.191614 
L 189.264306 81.191614 
L 188.858081 81.191614 
L 188.451857 81.191614 
L 188.045633 81.191614 
L 187.639408 81.191614 
L 187.233184 81.191614 
L 186.826959 81.191614 
L 186.420735 81.191614 
L 186.014511 81.191614 
L 185.608286 81.191614 
L 185.202062 81.191614 
L 184.795837 81.191614 
L 184.389613 81.191614 
L 183.983389 81.191614 
L 183.577164 98.531024 
L 183.17094 98.531024 
L 182.764715 98.531024 
L 182.358491 98.531024 
L 181.952267 98.531024 
L 181.546042 98.531024 
L 181.139818 98.531024 
L 180.733593 98.531024 
L 180.327369 98.531024 
L 179.921145 98.531024 
L 179.51492 98.531024 
L 179.108696 98.531024 
L 178.702471 98.531024 
L 178.296247 98.531024 
L 177.890023 98.531024 
L 177.483798 98.531024 
L 177.077574 98.531024 
L 176.671349 98.531024 
L 176.265125 98.531024 
L 175.8589 98.531024 
L 175.452676 98.531024 
L 175.046452 98.531024 
L 174.640227 98.531024 
L 174.234003 98.531024 
L 173.827778 98.531024 
L 173.421554 98.531024 
L 173.01533 98.531024 
L 172.609105 98.531024 
L 172.202881 98.531024 
L 171.796656 98.531024 
L 171.390432 98.531024 
L 170.984208 98.531024 
L 170.577983 98.531024 
L 170.171759 98.531024 
L 169.765534 98.531024 
L 169.35931 98.531024 
L 168.953086 98.531024 
L 168.546861 98.531024 
L 168.140637 98.531024 
L 167.734412 98.531024 
L 167.328188 98.531024 
L 166.921964 98.531024 
L 166.515739 98.531024 
L 166.109515 98.531024 
L 165.70329 98.531024 
L 165.297066 98.531024 
L 164.890842 98.25156 
L 164.484617 98.25156 
L 164.078393 98.25156 
L 163.672168 98.25156 
L 163.265944 98.25156 
L 162.859719 98.25156 
L 162.453495 98.25156 
L 162.047271 98.25156 
L 161.641046 98.25156 
L 161.234822 98.25156 
L 160.828597 98.25156 
L 160.422373 98.25156 
L 160.016149 98.25156 
L 159.609924 98.25156 
L 159.2037 98.25156 
L 158.797475 98.25156 
L 158.391251 98.25156 
L 157.985027 98.25156 
L 157.578802 98.25156 
L 157.172578 98.25156 
L 156.766353 98.25156 
L 156.360129 98.25156 
L 155.953905 98.25156 
L 155.54768 98.25156 
L 155.141456 98.25156 
L 154.735231 98.25156 
L 154.329007 98.25156 
L 153.922783 98.25156 
L 153.516558 98.25156 
L 153.110334 98.25156 
L 152.704109 98.25156 
L 152.297885 98.25156 
L 151.891661 98.25156 
L 151.485436 98.25156 
L 151.079212 98.25156 
L 150.672987 98.25156 
L 150.266763 98.25156 
L 149.860538 98.25156 
L 149.454314 98.25156 
L 149.04809 98.25156 
L 148.641865 98.25156 
L 148.235641 98.25156 
L 147.829416 98.25156 
L 147.423192 98.25156 
L 147.016968 98.25156 
L 146.610743 98.25156 
L 146.204519 98.25156 
L 145.798294 98.25156 
L 145.39207 98.25156 
L 144.985846 98.25156 
L 144.579621 98.25156 
L 144.173397 98.25156 
L 143.767172 98.25156 
L 143.360948 98.25156 
L 142.954724 98.25156 
L 142.548499 98.25156 
L 142.142275 98.25156 
L 141.73605 98.25156 
L 141.329826 98.25156 
L 140.923602 98.25156 
L 140.517377 98.25156 
L 140.111153 98.25156 
L 139.704928 98.25156 
L 139.298704 98.25156 
L 138.89248 98.25156 
L 138.486255 98.25156 
L 138.080031 98.25156 
L 137.673806 98.25156 
L 137.267582 98.25156 
L 136.861357 98.25156 
L 136.455133 98.25156 
L 136.048909 98.25156 
L 135.642684 98.25156 
L 135.23646 98.25156 
L 134.830235 98.25156 
L 134.424011 98.25156 
L 134.017787 98.25156 
L 133.611562 98.25156 
L 133.205338 98.25156 
L 132.799113 98.25156 
L 132.392889 98.25156 
L 131.986665 98.25156 
L 131.58044 98.25156 
L 131.174216 98.25156 
L 130.767991 98.25156 
L 130.361767 98.25156 
L 129.955543 98.25156 
L 129.549318 98.25156 
L 129.143094 98.25156 
L 128.736869 98.25156 
L 128.330645 98.25156 
L 127.924421 98.25156 
L 127.518196 98.25156 
L 127.111972 98.25156 
L 126.705747 98.25156 
L 126.299523 98.25156 
L 125.893299 98.25156 
L 125.487074 98.25156 
L 125.08085 98.25156 
L 124.674625 98.25156 
L 124.268401 98.25156 
L 123.862176 98.25156 
L 123.455952 98.25156 
L 123.049728 98.25156 
L 122.643503 98.25156 
L 122.237279 98.25156 
L 121.831054 98.25156 
L 121.42483 98.25156 
L 121.018606 98.25156 
L 120.612381 98.25156 
L 120.206157 98.25156 
L 119.799932 98.25156 
L 119.393708 98.25156 
L 118.987484 98.25156 
L 118.581259 98.25156 
L 118.175035 98.25156 
L 117.76881 98.25156 
L 117.362586 98.25156 
L 116.956362 98.25156 
L 116.550137 98.25156 
L 116.143913 98.25156 
L 115.737688 98.25156 
L 115.331464 98.25156 
L 114.92524 98.25156 
L 114.519015 98.25156 
L 114.112791 98.25156 
L 113.706566 98.25156 
L 113.300342 98.25156 
L 112.894118 98.25156 
L 112.487893 98.25156 
L 112.081669 98.25156 
L 111.675444 98.25156 
L 111.26922 98.25156 
L 110.862995 98.25156 
L 110.456771 98.25156 
L 110.050547 98.25156 
L 109.644322 98.25156 
L 109.238098 98.25156 
L 108.831873 98.25156 
L 108.425649 98.25156 
L 108.019425 98.25156 
L 107.6132 98.25156 
L 107.206976 98.25156 
L 106.800751 98.25156 
L 106.394527 98.25156 
L 105.988303 98.25156 
L 105.582078 98.25156 
L 105.175854 98.25156 
L 104.769629 98.25156 
L 104.363405 98.25156 
L 103.957181 98.25156 
L 103.550956 98.25156 
L 103.144732 98.25156 
L 102.738507 98.25156 
L 102.332283 98.25156 
L 101.926059 98.25156 
L 101.519834 98.25156 
L 101.11361 98.25156 
L 100.707385 98.25156 
L 100.301161 98.25156 
L 99.894937 98.25156 
L 99.488712 98.25156 
L 99.082488 98.25156 
L 98.676263 98.25156 
L 98.270039 98.25156 
L 97.863814 98.25156 
L 97.45759 98.25156 
L 97.051366 98.25156 
L 96.645141 98.25156 
L 96.238917 98.25156 
L 95.832692 98.25156 
L 95.426468 98.25156 
L 95.020244 98.25156 
L 94.614019 98.25156 
L 94.207795 98.25156 
L 93.80157 98.25156 
L 93.395346 98.25156 
L 92.989122 98.25156 
L 92.582897 98.25156 
L 92.176673 98.25156 
L 91.770448 98.25156 
L 91.364224 98.25156 
L 90.958 98.25156 
L 90.551775 98.25156 
L 90.145551 98.25156 
L 89.739326 98.25156 
L 89.333102 98.25156 
L 88.926878 98.25156 
L 88.520653 98.25156 
L 88.114429 98.25156 
L 87.708204 98.25156 
L 87.30198 98.25156 
L 86.895756 98.25156 
L 86.489531 98.25156 
L 86.083307 98.25156 
L 85.677082 98.25156 
L 85.270858 98.25156 
L 84.864633 98.25156 
L 84.458409 98.25156 
z
" style="fill:#1f77b4;fill-opacity:0.4;"/>
   </g>
   <g id="PathCollection_1">
    <defs>
     <path d="M 0 3 
C 0.795609 3 1.55874 2.683901 2.12132 2.12132 
C 2.683901 1.55874 3 0.795609 3 0 
C 3 -0.795609 2.683901 -1.55874 2.12132 -2.12132 
C 1.55874 -2.683901 0.795609 -3 0 -3 
C -0.795609 -3 -1.55874 -2.683901 -2.12132 -2.12132 
C -2.683901 -1.55874 -3 -0.795609 -3 0 
C -3 0.795609 -2.683901 1.55874 -2.12132 2.12132 
C -1.55874 2.683901 -0.795609 3 0 3 
z
" id="m27501b27a1" style="stroke:#000000;"/>
    </defs>
    <g clip-path="url(#p44d3bdf97d)">
     <use style="stroke:#000000;" x="94.614019" xlink:href="#m27501b27a1" y="114.763155"/>
     <use style="stroke:#000000;" x="272.946534" xlink:href="#m27501b27a1" y="146.576827"/>
     <use style="stroke:#000000;" x="235.573888" xlink:href="#m27501b27a1" y="122.848789"/>
    </g>
   </g>
   <g id="PathCollection_2">
    <defs>
     <path d="M 0 3 
C 0.795609 3 1.55874 2.683901 2.12132 2.12132 
C 2.683901 1.55874 3 0.795609 3 0 
C 3 -0.795609 2.683901 -1.55874 2.12132 -2.12132 
C 1.55874 -2.683901 0.795609 -3 0 -3 
C -0.795609 -3 -1.55874 -2.683901 -2.12132 -2.12132 
C -2.683901 -1.55874 -3 -0.795609 -3 0 
C -3 0.795609 -2.683901 1.55874 -2.12132 2.12132 
C -1.55874 2.683901 -0.795609 3 0 3 
z
" id="m9ed55fe965" style="stroke:#ff0000;"/>
    </defs>
    <g clip-path="url(#p44d3bdf97d)">
     <use style="fill:#ff0000;stroke:#ff0000;" x="228.261849" xlink:href="#m9ed55fe965" y="119.19136"/>
     <use style="fill:#ff0000;stroke:#ff0000;" x="251.41664" xlink:href="#m9ed55fe965" y="141.482686"/>
     <use style="fill:#ff0000;stroke:#ff0000;" x="243.292152" xlink:href="#m9ed55fe965" y="134.081937"/>
    </g>
   </g>
   <g id="matplotlib.axis_1">
    <g id="xtick_1">
     <g id="line2d_1">
      <defs>
       <path d="M 0 0 
L 0 3.5 
" id="m1aa64405dd" style="stroke:#000000;stroke-width:0.8;"/>
      </defs>
      <g>
       <use style="stroke:#000000;stroke-width:0.8;" x="84.458409" xlink:href="#m1aa64405dd" y="204.872727"/>
      </g>
     </g>
     <g id="text_1">
      <!-- 0 -->
      <g transform="translate(80.640909 220.990852)scale(0.12 -0.12)">
       <defs>
        <path d="M 31.78125 66.40625 
Q 24.171875 66.40625 20.328125 58.90625 
Q 16.5 51.421875 16.5 36.375 
Q 16.5 21.390625 20.328125 13.890625 
Q 24.171875 6.390625 31.78125 6.390625 
Q 39.453125 6.390625 43.28125 13.890625 
Q 47.125 21.390625 47.125 36.375 
Q 47.125 51.421875 43.28125 58.90625 
Q 39.453125 66.40625 31.78125 66.40625 
z
M 31.78125 74.21875 
Q 44.046875 74.21875 50.515625 64.515625 
Q 56.984375 54.828125 56.984375 36.375 
Q 56.984375 17.96875 50.515625 8.265625 
Q 44.046875 -1.421875 31.78125 -1.421875 
Q 19.53125 -1.421875 13.0625 8.265625 
Q 6.59375 17.96875 6.59375 36.375 
Q 6.59375 54.828125 13.0625 64.515625 
Q 19.53125 74.21875 31.78125 74.21875 
z
" id="DejaVuSans-48"/>
       </defs>
       <use xlink:href="#DejaVuSans-48"/>
      </g>
     </g>
    </g>
    <g id="xtick_2">
     <g id="line2d_2">
      <g>
       <use style="stroke:#000000;stroke-width:0.8;" x="165.622045" xlink:href="#m1aa64405dd" y="204.872727"/>
      </g>
     </g>
     <g id="text_2">
      <!-- 2 -->
      <g transform="translate(161.804545 220.990852)scale(0.12 -0.12)">
       <defs>
        <path d="M 19.1875 8.296875 
L 53.609375 8.296875 
L 53.609375 0 
L 7.328125 0 
L 7.328125 8.296875 
Q 12.9375 14.109375 22.625 23.890625 
Q 32.328125 33.6875 34.8125 36.53125 
Q 39.546875 41.84375 41.421875 45.53125 
Q 43.3125 49.21875 43.3125 52.78125 
Q 43.3125 58.59375 39.234375 62.25 
Q 35.15625 65.921875 28.609375 65.921875 
Q 23.96875 65.921875 18.8125 64.3125 
Q 13.671875 62.703125 7.8125 59.421875 
L 7.8125 69.390625 
Q 13.765625 71.78125 18.9375 73 
Q 24.125 74.21875 28.421875 74.21875 
Q 39.75 74.21875 46.484375 68.546875 
Q 53.21875 62.890625 53.21875 53.421875 
Q 53.21875 48.921875 51.53125 44.890625 
Q 49.859375 40.875 45.40625 35.40625 
Q 44.1875 33.984375 37.640625 27.21875 
Q 31.109375 20.453125 19.1875 8.296875 
z
" id="DejaVuSans-50"/>
       </defs>
       <use xlink:href="#DejaVuSans-50"/>
      </g>
     </g>
    </g>
    <g id="xtick_3">
     <g id="line2d_3">
      <g>
       <use style="stroke:#000000;stroke-width:0.8;" x="246.785682" xlink:href="#m1aa64405dd" y="204.872727"/>
      </g>
     </g>
     <g id="text_3">
      <!-- 4 -->
      <g transform="translate(242.968182 220.990852)scale(0.12 -0.12)">
       <defs>
        <path d="M 37.796875 64.3125 
L 12.890625 25.390625 
L 37.796875 25.390625 
z
M 35.203125 72.90625 
L 47.609375 72.90625 
L 47.609375 25.390625 
L 58.015625 25.390625 
L 58.015625 17.1875 
L 47.609375 17.1875 
L 47.609375 0 
L 37.796875 0 
L 37.796875 17.1875 
L 4.890625 17.1875 
L 4.890625 26.703125 
z
" id="DejaVuSans-52"/>
       </defs>
       <use xlink:href="#DejaVuSans-52"/>
      </g>
     </g>
    </g>
    <g id="xtick_4">
     <g id="line2d_4">
      <g>
       <use style="stroke:#000000;stroke-width:0.8;" x="327.949318" xlink:href="#m1aa64405dd" y="204.872727"/>
      </g>
     </g>
     <g id="text_4">
      <!-- 6 -->
      <g transform="translate(324.131818 220.990852)scale(0.12 -0.12)">
       <defs>
        <path d="M 33.015625 40.375 
Q 26.375 40.375 22.484375 35.828125 
Q 18.609375 31.296875 18.609375 23.390625 
Q 18.609375 15.53125 22.484375 10.953125 
Q 26.375 6.390625 33.015625 6.390625 
Q 39.65625 6.390625 43.53125 10.953125 
Q 47.40625 15.53125 47.40625 23.390625 
Q 47.40625 31.296875 43.53125 35.828125 
Q 39.65625 40.375 33.015625 40.375 
z
M 52.59375 71.296875 
L 52.59375 62.3125 
Q 48.875 64.0625 45.09375 64.984375 
Q 41.3125 65.921875 37.59375 65.921875 
Q 27.828125 65.921875 22.671875 59.328125 
Q 17.53125 52.734375 16.796875 39.40625 
Q 19.671875 43.65625 24.015625 45.921875 
Q 28.375 48.1875 33.59375 48.1875 
Q 44.578125 48.1875 50.953125 41.515625 
Q 57.328125 34.859375 57.328125 23.390625 
Q 57.328125 12.15625 50.6875 5.359375 
Q 44.046875 -1.421875 33.015625 -1.421875 
Q 20.359375 -1.421875 13.671875 8.265625 
Q 6.984375 17.96875 6.984375 36.375 
Q 6.984375 53.65625 15.1875 63.9375 
Q 23.390625 74.21875 37.203125 74.21875 
Q 40.921875 74.21875 44.703125 73.484375 
Q 48.484375 72.75 52.59375 71.296875 
z
" id="DejaVuSans-54"/>
       </defs>
       <use xlink:href="#DejaVuSans-54"/>
      </g>
     </g>
    </g>
    <g id="xtick_5">
     <g id="line2d_5">
      <g>
       <use style="stroke:#000000;stroke-width:0.8;" x="409.112955" xlink:href="#m1aa64405dd" y="204.872727"/>
      </g>
     </g>
     <g id="text_5">
      <!-- 8 -->
      <g transform="translate(405.295455 220.990852)scale(0.12 -0.12)">
       <defs>
        <path d="M 31.78125 34.625 
Q 24.75 34.625 20.71875 30.859375 
Q 16.703125 27.09375 16.703125 20.515625 
Q 16.703125 13.921875 20.71875 10.15625 
Q 24.75 6.390625 31.78125 6.390625 
Q 38.8125 6.390625 42.859375 10.171875 
Q 46.921875 13.96875 46.921875 20.515625 
Q 46.921875 27.09375 42.890625 30.859375 
Q 38.875 34.625 31.78125 34.625 
z
M 21.921875 38.8125 
Q 15.578125 40.375 12.03125 44.71875 
Q 8.5 49.078125 8.5 55.328125 
Q 8.5 64.0625 14.71875 69.140625 
Q 20.953125 74.21875 31.78125 74.21875 
Q 42.671875 74.21875 48.875 69.140625 
Q 55.078125 64.0625 55.078125 55.328125 
Q 55.078125 49.078125 51.53125 44.71875 
Q 48 40.375 41.703125 38.8125 
Q 48.828125 37.15625 52.796875 32.3125 
Q 56.78125 27.484375 56.78125 20.515625 
Q 56.78125 9.90625 50.3125 4.234375 
Q 43.84375 -1.421875 31.78125 -1.421875 
Q 19.734375 -1.421875 13.25 4.234375 
Q 6.78125 9.90625 6.78125 20.515625 
Q 6.78125 27.484375 10.78125 32.3125 
Q 14.796875 37.15625 21.921875 38.8125 
z
M 18.3125 54.390625 
Q 18.3125 48.734375 21.84375 45.5625 
Q 25.390625 42.390625 31.78125 42.390625 
Q 38.140625 42.390625 41.71875 45.5625 
Q 45.3125 48.734375 45.3125 54.390625 
Q 45.3125 60.0625 41.71875 63.234375 
Q 38.140625 66.40625 31.78125 66.40625 
Q 25.390625 66.40625 21.84375 63.234375 
Q 18.3125 60.0625 18.3125 54.390625 
z
" id="DejaVuSans-56"/>
       </defs>
       <use xlink:href="#DejaVuSans-56"/>
      </g>
     </g>
    </g>
    <g id="xtick_6">
     <g id="line2d_6">
      <g>
       <use style="stroke:#000000;stroke-width:0.8;" x="490.276591" xlink:href="#m1aa64405dd" y="204.872727"/>
      </g>
     </g>
     <g id="text_6">
      <!-- 10 -->
      <g transform="translate(482.641591 220.990852)scale(0.12 -0.12)">
       <defs>
        <path d="M 12.40625 8.296875 
L 28.515625 8.296875 
L 28.515625 63.921875 
L 10.984375 60.40625 
L 10.984375 69.390625 
L 28.421875 72.90625 
L 38.28125 72.90625 
L 38.28125 8.296875 
L 54.390625 8.296875 
L 54.390625 0 
L 12.40625 0 
z
" id="DejaVuSans-49"/>
       </defs>
       <use xlink:href="#DejaVuSans-49"/>
       <use x="63.623047" xlink:href="#DejaVuSans-48"/>
      </g>
     </g>
    </g>
   </g>
   <g id="matplotlib.axis_2">
    <g id="ytick_1">
     <g id="line2d_7">
      <defs>
       <path d="M 0 0 
L -3.5 0 
" id="m81d8d87a52" style="stroke:#000000;stroke-width:0.8;"/>
      </defs>
      <g>
       <use style="stroke:#000000;stroke-width:0.8;" x="64.1675" xlink:href="#m81d8d87a52" y="170.276042"/>
      </g>
     </g>
     <g id="text_7">
      <!-- 0 -->
      <g transform="translate(49.5325 174.835104)scale(0.12 -0.12)">
       <use xlink:href="#DejaVuSans-48"/>
      </g>
     </g>
    </g>
    <g id="ytick_2">
     <g id="line2d_8">
      <g>
       <use style="stroke:#000000;stroke-width:0.8;" x="64.1675" xlink:href="#m81d8d87a52" y="125.986624"/>
      </g>
     </g>
     <g id="text_8">
      <!-- 20 -->
      <g transform="translate(41.8975 130.545686)scale(0.12 -0.12)">
       <use xlink:href="#DejaVuSans-50"/>
       <use x="63.623047" xlink:href="#DejaVuSans-48"/>
      </g>
     </g>
    </g>
    <g id="ytick_3">
     <g id="line2d_9">
      <g>
       <use style="stroke:#000000;stroke-width:0.8;" x="64.1675" xlink:href="#m81d8d87a52" y="81.697206"/>
      </g>
     </g>
     <g id="text_9">
      <!-- 40 -->
      <g transform="translate(41.8975 86.256268)scale(0.12 -0.12)">
       <use xlink:href="#DejaVuSans-52"/>
       <use x="63.623047" xlink:href="#DejaVuSans-48"/>
      </g>
     </g>
    </g>
    <g id="ytick_4">
     <g id="line2d_10">
      <g>
       <use style="stroke:#000000;stroke-width:0.8;" x="64.1675" xlink:href="#m81d8d87a52" y="37.407788"/>
      </g>
     </g>
     <g id="text_10">
      <!-- 60 -->
      <g transform="translate(41.8975 41.96685)scale(0.12 -0.12)">
       <use xlink:href="#DejaVuSans-54"/>
       <use x="63.623047" xlink:href="#DejaVuSans-48"/>
      </g>
     </g>
    </g>
    <g id="text_11">
     <!-- f(x) -->
     <g transform="translate(35.401875 116.381676)rotate(-90)scale(0.12 -0.12)">
      <defs>
       <path d="M 37.109375 75.984375 
L 37.109375 68.5 
L 28.515625 68.5 
Q 23.6875 68.5 21.796875 66.546875 
Q 19.921875 64.59375 19.921875 59.515625 
L 19.921875 54.6875 
L 34.71875 54.6875 
L 34.71875 47.703125 
L 19.921875 47.703125 
L 19.921875 0 
L 10.890625 0 
L 10.890625 47.703125 
L 2.296875 47.703125 
L 2.296875 54.6875 
L 10.890625 54.6875 
L 10.890625 58.5 
Q 10.890625 67.625 15.140625 71.796875 
Q 19.390625 75.984375 28.609375 75.984375 
z
" id="DejaVuSans-102"/>
       <path d="M 31 75.875 
Q 24.46875 64.65625 21.28125 53.65625 
Q 18.109375 42.671875 18.109375 31.390625 
Q 18.109375 20.125 21.3125 9.0625 
Q 24.515625 -2 31 -13.1875 
L 23.1875 -13.1875 
Q 15.875 -1.703125 12.234375 9.375 
Q 8.59375 20.453125 8.59375 31.390625 
Q 8.59375 42.28125 12.203125 53.3125 
Q 15.828125 64.359375 23.1875 75.875 
z
" id="DejaVuSans-40"/>
       <path d="M 54.890625 54.6875 
L 35.109375 28.078125 
L 55.90625 0 
L 45.3125 0 
L 29.390625 21.484375 
L 13.484375 0 
L 2.875 0 
L 24.125 28.609375 
L 4.6875 54.6875 
L 15.28125 54.6875 
L 29.78125 35.203125 
L 44.28125 54.6875 
z
" id="DejaVuSans-120"/>
       <path d="M 8.015625 75.875 
L 15.828125 75.875 
Q 23.140625 64.359375 26.78125 53.3125 
Q 30.421875 42.28125 30.421875 31.390625 
Q 30.421875 20.453125 26.78125 9.375 
Q 23.140625 -1.703125 15.828125 -13.1875 
L 8.015625 -13.1875 
Q 14.5 -2 17.703125 9.0625 
Q 20.90625 20.125 20.90625 31.390625 
Q 20.90625 42.671875 17.703125 53.65625 
Q 14.5 64.65625 8.015625 75.875 
z
" id="DejaVuSans-41"/>
      </defs>
      <use xlink:href="#DejaVuSans-102"/>
      <use x="35.205078" xlink:href="#DejaVuSans-40"/>
      <use x="74.21875" xlink:href="#DejaVuSans-120"/>
      <use x="133.398438" xlink:href="#DejaVuSans-41"/>
     </g>
    </g>
   </g>
   <g id="line2d_11">
    <path clip-path="url(#p44d3bdf97d)" d="M 84.458409 103.841915 
L 88.520653 103.731154 
L 92.582897 103.401092 
L 96.645141 102.858347 
L 101.11361 102.02884 
L 105.582078 100.975599 
L 110.456771 99.602124 
L 116.143913 97.75721 
L 123.049728 95.271426 
L 141.73605 88.412346 
L 147.016968 86.780724 
L 151.485436 85.613988 
L 155.54768 84.762593 
L 159.609924 84.14208 
L 163.265944 83.804054 
L 166.921964 83.693648 
L 170.577983 83.826541 
L 173.827778 84.15954 
L 177.077574 84.702427 
L 180.327369 85.460614 
L 183.577164 86.43754 
L 186.826959 87.634594 
L 190.076755 89.051059 
L 193.732774 90.903197 
L 197.388794 93.021983 
L 201.044814 95.396584 
L 205.107058 98.317589 
L 209.169302 101.512281 
L 213.63777 105.307364 
L 218.918688 110.110774 
L 225.012054 115.973212 
L 235.980113 126.916058 
L 243.698376 134.469273 
L 248.979294 139.348802 
L 253.447762 143.192069 
L 257.510006 146.395364 
L 261.166026 148.997559 
L 264.415821 151.057037 
L 267.665616 152.852819 
L 270.509187 154.190051 
L 273.352758 155.29403 
L 276.196329 156.151761 
L 279.0399 156.751426 
L 281.477246 157.051994 
L 283.914593 157.149345 
L 286.351939 157.038405 
L 288.789285 156.714909 
L 291.226632 156.175432 
L 293.663978 155.417423 
L 296.101325 154.439222 
L 298.538671 153.240089 
L 300.976018 151.820219 
L 303.819588 149.886297 
L 306.663159 147.656994 
L 309.50673 145.13757 
L 312.350301 142.335077 
L 315.600096 138.797028 
L 318.849891 134.916864 
L 322.505911 130.166463 
L 326.161931 125.038466 
L 330.224175 118.941411 
L 334.692643 111.813056 
L 339.973561 102.92791 
L 346.473151 91.516965 
L 364.347025 59.86294 
L 369.221718 51.808084 
L 373.283962 45.481876 
L 376.939982 40.158382 
L 380.596001 35.243245 
L 383.845796 31.260119 
L 386.689367 28.101952 
L 389.532938 25.272544 
L 391.970285 23.124945 
L 394.407631 21.246635 
L 396.844977 19.649037 
L 399.282324 18.342624 
L 401.313446 17.48324 
L 403.344568 16.83758 
L 405.37569 16.410037 
L 407.406812 16.204454 
L 409.437934 16.224113 
L 411.469056 16.471716 
L 413.500178 16.949374 
L 415.5313 17.658593 
L 417.562422 18.600264 
L 419.593544 19.774656 
L 421.624666 21.181404 
L 424.062013 23.174758 
L 426.499359 25.498287 
L 428.936706 28.147711 
L 431.374052 31.117421 
L 434.217623 34.977564 
L 437.061194 39.250886 
L 439.904765 43.92172 
L 443.15456 49.72335 
L 446.404355 55.990043 
L 450.060375 63.553159 
L 454.122619 72.529913 
L 458.591087 83.006254 
L 463.46578 95.017582 
L 469.559146 110.636475 
L 489.057918 161.088752 
L 490.276591 164.077861 
L 490.276591 164.077861 
" style="fill:none;stroke:#000000;stroke-linecap:square;stroke-width:1.5;"/>
   </g>
   <g id="line2d_12">
    <path clip-path="url(#p44d3bdf97d)" d="M 84.458409 113.464988 
L 164.890842 113.464988 
L 165.297066 113.679431 
L 183.577164 113.679431 
L 183.983389 124.285056 
L 254.260211 124.285056 
L 254.666435 148.278149 
L 490.276591 148.278149 
L 490.276591 148.278149 
" style="fill:none;stroke:#1f77b4;stroke-linecap:square;stroke-width:1.5;"/>
   </g>
   <g id="patch_3">
    <path d="M 64.1675 204.872727 
L 64.1675 7.2 
" style="fill:none;stroke:#000000;stroke-linecap:square;stroke-linejoin:miter;stroke-width:0.8;"/>
   </g>
   <g id="patch_4">
    <path d="M 510.5675 204.872727 
L 510.5675 7.2 
" style="fill:none;stroke:#000000;stroke-linecap:square;stroke-linejoin:miter;stroke-width:0.8;"/>
   </g>
   <g id="patch_5">
    <path d="M 64.1675 204.872727 
L 510.5675 204.872727 
" style="fill:none;stroke:#000000;stroke-linecap:square;stroke-linejoin:miter;stroke-width:0.8;"/>
   </g>
   <g id="patch_6">
    <path d="M 64.1675 7.2 
L 510.5675 7.2 
" style="fill:none;stroke:#000000;stroke-linecap:square;stroke-linejoin:miter;stroke-width:0.8;"/>
   </g>
   <g id="legend_1">
    <g id="patch_7">
     <path d="M 72.5675 198.872727 
L 150.2825 198.872727 
Q 152.6825 198.872727 152.6825 196.472727 
L 152.6825 144.831477 
Q 152.6825 142.431477 150.2825 142.431477 
L 72.5675 142.431477 
Q 70.1675 142.431477 70.1675 144.831477 
L 70.1675 196.472727 
Q 70.1675 198.872727 72.5675 198.872727 
z
" style="fill:#ffffff;opacity:0.8;stroke:#cccccc;stroke-linejoin:miter;"/>
    </g>
    <g id="line2d_13">
     <path d="M 74.9675 152.149602 
L 98.9675 152.149602 
" style="fill:none;stroke:#1f77b4;stroke-linecap:square;stroke-width:1.5;"/>
    </g>
    <g id="line2d_14"/>
    <g id="text_12">
     <!-- GP -->
     <g transform="translate(108.5675 156.349602)scale(0.12 -0.12)">
      <defs>
       <path d="M 59.515625 10.40625 
L 59.515625 29.984375 
L 43.40625 29.984375 
L 43.40625 38.09375 
L 69.28125 38.09375 
L 69.28125 6.78125 
Q 63.578125 2.734375 56.6875 0.65625 
Q 49.8125 -1.421875 42 -1.421875 
Q 24.90625 -1.421875 15.25 8.5625 
Q 5.609375 18.5625 5.609375 36.375 
Q 5.609375 54.25 15.25 64.234375 
Q 24.90625 74.21875 42 74.21875 
Q 49.125 74.21875 55.546875 72.453125 
Q 61.96875 70.703125 67.390625 67.28125 
L 67.390625 56.78125 
Q 61.921875 61.421875 55.765625 63.765625 
Q 49.609375 66.109375 42.828125 66.109375 
Q 29.4375 66.109375 22.71875 58.640625 
Q 16.015625 51.171875 16.015625 36.375 
Q 16.015625 21.625 22.71875 14.15625 
Q 29.4375 6.6875 42.828125 6.6875 
Q 48.046875 6.6875 52.140625 7.59375 
Q 56.25 8.5 59.515625 10.40625 
z
" id="DejaVuSans-71"/>
       <path d="M 19.671875 64.796875 
L 19.671875 37.40625 
L 32.078125 37.40625 
Q 38.96875 37.40625 42.71875 40.96875 
Q 46.484375 44.53125 46.484375 51.125 
Q 46.484375 57.671875 42.71875 61.234375 
Q 38.96875 64.796875 32.078125 64.796875 
z
M 9.8125 72.90625 
L 32.078125 72.90625 
Q 44.34375 72.90625 50.609375 67.359375 
Q 56.890625 61.8125 56.890625 51.125 
Q 56.890625 40.328125 50.609375 34.8125 
Q 44.34375 29.296875 32.078125 29.296875 
L 19.671875 29.296875 
L 19.671875 0 
L 9.8125 0 
z
" id="DejaVuSans-80"/>
      </defs>
      <use xlink:href="#DejaVuSans-71"/>
      <use x="77.490234" xlink:href="#DejaVuSans-80"/>
     </g>
    </g>
    <g id="PathCollection_3">
     <g>
      <use style="stroke:#000000;" x="86.9675" xlink:href="#m27501b27a1" y="170.813352"/>
     </g>
    </g>
    <g id="text_13">
     <!-- known -->
     <g transform="translate(108.5675 173.963352)scale(0.12 -0.12)">
      <defs>
       <path d="M 9.078125 75.984375 
L 18.109375 75.984375 
L 18.109375 31.109375 
L 44.921875 54.6875 
L 56.390625 54.6875 
L 27.390625 29.109375 
L 57.625 0 
L 45.90625 0 
L 18.109375 26.703125 
L 18.109375 0 
L 9.078125 0 
z
" id="DejaVuSans-107"/>
       <path d="M 54.890625 33.015625 
L 54.890625 0 
L 45.90625 0 
L 45.90625 32.71875 
Q 45.90625 40.484375 42.875 44.328125 
Q 39.84375 48.1875 33.796875 48.1875 
Q 26.515625 48.1875 22.3125 43.546875 
Q 18.109375 38.921875 18.109375 30.90625 
L 18.109375 0 
L 9.078125 0 
L 9.078125 54.6875 
L 18.109375 54.6875 
L 18.109375 46.1875 
Q 21.34375 51.125 25.703125 53.5625 
Q 30.078125 56 35.796875 56 
Q 45.21875 56 50.046875 50.171875 
Q 54.890625 44.34375 54.890625 33.015625 
z
" id="DejaVuSans-110"/>
       <path d="M 30.609375 48.390625 
Q 23.390625 48.390625 19.1875 42.75 
Q 14.984375 37.109375 14.984375 27.296875 
Q 14.984375 17.484375 19.15625 11.84375 
Q 23.34375 6.203125 30.609375 6.203125 
Q 37.796875 6.203125 41.984375 11.859375 
Q 46.1875 17.53125 46.1875 27.296875 
Q 46.1875 37.015625 41.984375 42.703125 
Q 37.796875 48.390625 30.609375 48.390625 
z
M 30.609375 56 
Q 42.328125 56 49.015625 48.375 
Q 55.71875 40.765625 55.71875 27.296875 
Q 55.71875 13.875 49.015625 6.21875 
Q 42.328125 -1.421875 30.609375 -1.421875 
Q 18.84375 -1.421875 12.171875 6.21875 
Q 5.515625 13.875 5.515625 27.296875 
Q 5.515625 40.765625 12.171875 48.375 
Q 18.84375 56 30.609375 56 
z
" id="DejaVuSans-111"/>
       <path d="M 4.203125 54.6875 
L 13.1875 54.6875 
L 24.421875 12.015625 
L 35.59375 54.6875 
L 46.1875 54.6875 
L 57.421875 12.015625 
L 68.609375 54.6875 
L 77.59375 54.6875 
L 63.28125 0 
L 52.6875 0 
L 40.921875 44.828125 
L 29.109375 0 
L 18.5 0 
z
" id="DejaVuSans-119"/>
      </defs>
      <use xlink:href="#DejaVuSans-107"/>
      <use x="57.910156" xlink:href="#DejaVuSans-110"/>
      <use x="121.289062" xlink:href="#DejaVuSans-111"/>
      <use x="182.470703" xlink:href="#DejaVuSans-119"/>
      <use x="264.257812" xlink:href="#DejaVuSans-110"/>
     </g>
    </g>
    <g id="PathCollection_4">
     <g>
      <use style="fill:#ff0000;stroke:#ff0000;" x="86.9675" xlink:href="#m9ed55fe965" y="188.427102"/>
     </g>
    </g>
    <g id="text_14">
     <!-- next -->
     <g transform="translate(108.5675 191.577102)scale(0.12 -0.12)">
      <defs>
       <path d="M 56.203125 29.59375 
L 56.203125 25.203125 
L 14.890625 25.203125 
Q 15.484375 15.921875 20.484375 11.0625 
Q 25.484375 6.203125 34.421875 6.203125 
Q 39.59375 6.203125 44.453125 7.46875 
Q 49.3125 8.734375 54.109375 11.28125 
L 54.109375 2.78125 
Q 49.265625 0.734375 44.1875 -0.34375 
Q 39.109375 -1.421875 33.890625 -1.421875 
Q 20.796875 -1.421875 13.15625 6.1875 
Q 5.515625 13.8125 5.515625 26.8125 
Q 5.515625 40.234375 12.765625 48.109375 
Q 20.015625 56 32.328125 56 
Q 43.359375 56 49.78125 48.890625 
Q 56.203125 41.796875 56.203125 29.59375 
z
M 47.21875 32.234375 
Q 47.125 39.59375 43.09375 43.984375 
Q 39.0625 48.390625 32.421875 48.390625 
Q 24.90625 48.390625 20.390625 44.140625 
Q 15.875 39.890625 15.1875 32.171875 
z
" id="DejaVuSans-101"/>
       <path d="M 18.3125 70.21875 
L 18.3125 54.6875 
L 36.8125 54.6875 
L 36.8125 47.703125 
L 18.3125 47.703125 
L 18.3125 18.015625 
Q 18.3125 11.328125 20.140625 9.421875 
Q 21.96875 7.515625 27.59375 7.515625 
L 36.8125 7.515625 
L 36.8125 0 
L 27.59375 0 
Q 17.1875 0 13.234375 3.875 
Q 9.28125 7.765625 9.28125 18.015625 
L 9.28125 47.703125 
L 2.6875 47.703125 
L 2.6875 54.6875 
L 9.28125 54.6875 
L 9.28125 70.21875 
z
" id="DejaVuSans-116"/>
      </defs>
      <use xlink:href="#DejaVuSans-110"/>
      <use x="63.378906" xlink:href="#DejaVuSans-101"/>
      <use x="123.152344" xlink:href="#DejaVuSans-120"/>
      <use x="182.332031" xlink:href="#DejaVuSans-116"/>
     </g>
    </g>
   </g>
  </g>
  <g id="axes_2">
   <g id="patch_8">
    <path d="M 64.1675 442.08 
L 510.5675 442.08 
L 510.5675 244.407273 
L 64.1675 244.407273 
z
" style="fill:#ffffff;"/>
   </g>
   <g id="matplotlib.axis_3">
    <g id="xtick_7">
     <g id="line2d_15">
      <g>
       <use style="stroke:#000000;stroke-width:0.8;" x="84.458409" xlink:href="#m1aa64405dd" y="442.08"/>
      </g>
     </g>
     <g id="text_15">
      <!-- 0.0 -->
      <g transform="translate(74.916534 458.198125)scale(0.12 -0.12)">
       <defs>
        <path d="M 10.6875 12.40625 
L 21 12.40625 
L 21 0 
L 10.6875 0 
z
" id="DejaVuSans-46"/>
       </defs>
       <use xlink:href="#DejaVuSans-48"/>
       <use x="63.623047" xlink:href="#DejaVuSans-46"/>
       <use x="95.410156" xlink:href="#DejaVuSans-48"/>
      </g>
     </g>
    </g>
    <g id="xtick_8">
     <g id="line2d_16">
      <g>
       <use style="stroke:#000000;stroke-width:0.8;" x="165.622045" xlink:href="#m1aa64405dd" y="442.08"/>
      </g>
     </g>
     <g id="text_16">
      <!-- 0.2 -->
      <g transform="translate(156.08017 458.198125)scale(0.12 -0.12)">
       <use xlink:href="#DejaVuSans-48"/>
       <use x="63.623047" xlink:href="#DejaVuSans-46"/>
       <use x="95.410156" xlink:href="#DejaVuSans-50"/>
      </g>
     </g>
    </g>
    <g id="xtick_9">
     <g id="line2d_17">
      <g>
       <use style="stroke:#000000;stroke-width:0.8;" x="246.785682" xlink:href="#m1aa64405dd" y="442.08"/>
      </g>
     </g>
     <g id="text_17">
      <!-- 0.4 -->
      <g transform="translate(237.243807 458.198125)scale(0.12 -0.12)">
       <use xlink:href="#DejaVuSans-48"/>
       <use x="63.623047" xlink:href="#DejaVuSans-46"/>
       <use x="95.410156" xlink:href="#DejaVuSans-52"/>
      </g>
     </g>
    </g>
    <g id="xtick_10">
     <g id="line2d_18">
      <g>
       <use style="stroke:#000000;stroke-width:0.8;" x="327.949318" xlink:href="#m1aa64405dd" y="442.08"/>
      </g>
     </g>
     <g id="text_18">
      <!-- 0.6 -->
      <g transform="translate(318.407443 458.198125)scale(0.12 -0.12)">
       <use xlink:href="#DejaVuSans-48"/>
       <use x="63.623047" xlink:href="#DejaVuSans-46"/>
       <use x="95.410156" xlink:href="#DejaVuSans-54"/>
      </g>
     </g>
    </g>
    <g id="xtick_11">
     <g id="line2d_19">
      <g>
       <use style="stroke:#000000;stroke-width:0.8;" x="409.112955" xlink:href="#m1aa64405dd" y="442.08"/>
      </g>
     </g>
     <g id="text_19">
      <!-- 0.8 -->
      <g transform="translate(399.57108 458.198125)scale(0.12 -0.12)">
       <use xlink:href="#DejaVuSans-48"/>
       <use x="63.623047" xlink:href="#DejaVuSans-46"/>
       <use x="95.410156" xlink:href="#DejaVuSans-56"/>
      </g>
     </g>
    </g>
    <g id="xtick_12">
     <g id="line2d_20">
      <g>
       <use style="stroke:#000000;stroke-width:0.8;" x="490.276591" xlink:href="#m1aa64405dd" y="442.08"/>
      </g>
     </g>
     <g id="text_20">
      <!-- 1.0 -->
      <g transform="translate(480.734716 458.198125)scale(0.12 -0.12)">
       <use xlink:href="#DejaVuSans-49"/>
       <use x="63.623047" xlink:href="#DejaVuSans-46"/>
       <use x="95.410156" xlink:href="#DejaVuSans-48"/>
      </g>
     </g>
    </g>
    <g id="text_21">
     <!-- x -->
     <g transform="translate(283.81625 473.811875)scale(0.12 -0.12)">
      <use xlink:href="#DejaVuSans-120"/>
     </g>
    </g>
   </g>
   <g id="matplotlib.axis_4">
    <g id="ytick_5">
     <g id="line2d_21">
      <g>
       <use style="stroke:#000000;stroke-width:0.8;" x="64.1675" xlink:href="#m81d8d87a52" y="436.174458"/>
      </g>
     </g>
     <g id="text_22">
      <!-- 0.000 -->
      <g transform="translate(22.81375 440.733521)scale(0.12 -0.12)">
       <use xlink:href="#DejaVuSans-48"/>
       <use x="63.623047" xlink:href="#DejaVuSans-46"/>
       <use x="95.410156" xlink:href="#DejaVuSans-48"/>
       <use x="159.033203" xlink:href="#DejaVuSans-48"/>
       <use x="222.65625" xlink:href="#DejaVuSans-48"/>
      </g>
     </g>
    </g>
    <g id="ytick_6">
     <g id="line2d_22">
      <g>
       <use style="stroke:#000000;stroke-width:0.8;" x="64.1675" xlink:href="#m81d8d87a52" y="406.792235"/>
      </g>
     </g>
     <g id="text_23">
      <!-- 0.025 -->
      <g transform="translate(22.81375 411.351297)scale(0.12 -0.12)">
       <defs>
        <path d="M 10.796875 72.90625 
L 49.515625 72.90625 
L 49.515625 64.59375 
L 19.828125 64.59375 
L 19.828125 46.734375 
Q 21.96875 47.46875 24.109375 47.828125 
Q 26.265625 48.1875 28.421875 48.1875 
Q 40.625 48.1875 47.75 41.5 
Q 54.890625 34.8125 54.890625 23.390625 
Q 54.890625 11.625 47.5625 5.09375 
Q 40.234375 -1.421875 26.90625 -1.421875 
Q 22.3125 -1.421875 17.546875 -0.640625 
Q 12.796875 0.140625 7.71875 1.703125 
L 7.71875 11.625 
Q 12.109375 9.234375 16.796875 8.0625 
Q 21.484375 6.890625 26.703125 6.890625 
Q 35.15625 6.890625 40.078125 11.328125 
Q 45.015625 15.765625 45.015625 23.390625 
Q 45.015625 31 40.078125 35.4375 
Q 35.15625 39.890625 26.703125 39.890625 
Q 22.75 39.890625 18.8125 39.015625 
Q 14.890625 38.140625 10.796875 36.28125 
z
" id="DejaVuSans-53"/>
       </defs>
       <use xlink:href="#DejaVuSans-48"/>
       <use x="63.623047" xlink:href="#DejaVuSans-46"/>
       <use x="95.410156" xlink:href="#DejaVuSans-48"/>
       <use x="159.033203" xlink:href="#DejaVuSans-50"/>
       <use x="222.65625" xlink:href="#DejaVuSans-53"/>
      </g>
     </g>
    </g>
    <g id="ytick_7">
     <g id="line2d_23">
      <g>
       <use style="stroke:#000000;stroke-width:0.8;" x="64.1675" xlink:href="#m81d8d87a52" y="377.410011"/>
      </g>
     </g>
     <g id="text_24">
      <!-- 0.050 -->
      <g transform="translate(22.81375 381.969074)scale(0.12 -0.12)">
       <use xlink:href="#DejaVuSans-48"/>
       <use x="63.623047" xlink:href="#DejaVuSans-46"/>
       <use x="95.410156" xlink:href="#DejaVuSans-48"/>
       <use x="159.033203" xlink:href="#DejaVuSans-53"/>
       <use x="222.65625" xlink:href="#DejaVuSans-48"/>
      </g>
     </g>
    </g>
    <g id="ytick_8">
     <g id="line2d_24">
      <g>
       <use style="stroke:#000000;stroke-width:0.8;" x="64.1675" xlink:href="#m81d8d87a52" y="348.027788"/>
      </g>
     </g>
     <g id="text_25">
      <!-- 0.075 -->
      <g transform="translate(22.81375 352.58685)scale(0.12 -0.12)">
       <defs>
        <path d="M 8.203125 72.90625 
L 55.078125 72.90625 
L 55.078125 68.703125 
L 28.609375 0 
L 18.3125 0 
L 43.21875 64.59375 
L 8.203125 64.59375 
z
" id="DejaVuSans-55"/>
       </defs>
       <use xlink:href="#DejaVuSans-48"/>
       <use x="63.623047" xlink:href="#DejaVuSans-46"/>
       <use x="95.410156" xlink:href="#DejaVuSans-48"/>
       <use x="159.033203" xlink:href="#DejaVuSans-55"/>
       <use x="222.65625" xlink:href="#DejaVuSans-53"/>
      </g>
     </g>
    </g>
    <g id="ytick_9">
     <g id="line2d_25">
      <g>
       <use style="stroke:#000000;stroke-width:0.8;" x="64.1675" xlink:href="#m81d8d87a52" y="318.645564"/>
      </g>
     </g>
     <g id="text_26">
      <!-- 0.100 -->
      <g transform="translate(22.81375 323.204627)scale(0.12 -0.12)">
       <use xlink:href="#DejaVuSans-48"/>
       <use x="63.623047" xlink:href="#DejaVuSans-46"/>
       <use x="95.410156" xlink:href="#DejaVuSans-49"/>
       <use x="159.033203" xlink:href="#DejaVuSans-48"/>
       <use x="222.65625" xlink:href="#DejaVuSans-48"/>
      </g>
     </g>
    </g>
    <g id="ytick_10">
     <g id="line2d_26">
      <g>
       <use style="stroke:#000000;stroke-width:0.8;" x="64.1675" xlink:href="#m81d8d87a52" y="289.263341"/>
      </g>
     </g>
     <g id="text_27">
      <!-- 0.125 -->
      <g transform="translate(22.81375 293.822403)scale(0.12 -0.12)">
       <use xlink:href="#DejaVuSans-48"/>
       <use x="63.623047" xlink:href="#DejaVuSans-46"/>
       <use x="95.410156" xlink:href="#DejaVuSans-49"/>
       <use x="159.033203" xlink:href="#DejaVuSans-50"/>
       <use x="222.65625" xlink:href="#DejaVuSans-53"/>
      </g>
     </g>
    </g>
    <g id="ytick_11">
     <g id="line2d_27">
      <g>
       <use style="stroke:#000000;stroke-width:0.8;" x="64.1675" xlink:href="#m81d8d87a52" y="259.881117"/>
      </g>
     </g>
     <g id="text_28">
      <!-- 0.150 -->
      <g transform="translate(22.81375 264.44018)scale(0.12 -0.12)">
       <use xlink:href="#DejaVuSans-48"/>
       <use x="63.623047" xlink:href="#DejaVuSans-46"/>
       <use x="95.410156" xlink:href="#DejaVuSans-49"/>
       <use x="159.033203" xlink:href="#DejaVuSans-53"/>
       <use x="222.65625" xlink:href="#DejaVuSans-48"/>
      </g>
     </g>
    </g>
    <g id="text_29">
     <!-- Acquisition Function -->
     <g transform="translate(16.318125 403.530511)rotate(-90)scale(0.12 -0.12)">
      <defs>
       <path d="M 34.1875 63.1875 
L 20.796875 26.90625 
L 47.609375 26.90625 
z
M 28.609375 72.90625 
L 39.796875 72.90625 
L 67.578125 0 
L 57.328125 0 
L 50.6875 18.703125 
L 17.828125 18.703125 
L 11.1875 0 
L 0.78125 0 
z
" id="DejaVuSans-65"/>
       <path d="M 48.78125 52.59375 
L 48.78125 44.1875 
Q 44.96875 46.296875 41.140625 47.34375 
Q 37.3125 48.390625 33.40625 48.390625 
Q 24.65625 48.390625 19.8125 42.84375 
Q 14.984375 37.3125 14.984375 27.296875 
Q 14.984375 17.28125 19.8125 11.734375 
Q 24.65625 6.203125 33.40625 6.203125 
Q 37.3125 6.203125 41.140625 7.25 
Q 44.96875 8.296875 48.78125 10.40625 
L 48.78125 2.09375 
Q 45.015625 0.34375 40.984375 -0.53125 
Q 36.96875 -1.421875 32.421875 -1.421875 
Q 20.0625 -1.421875 12.78125 6.34375 
Q 5.515625 14.109375 5.515625 27.296875 
Q 5.515625 40.671875 12.859375 48.328125 
Q 20.21875 56 33.015625 56 
Q 37.15625 56 41.109375 55.140625 
Q 45.0625 54.296875 48.78125 52.59375 
z
" id="DejaVuSans-99"/>
       <path d="M 14.796875 27.296875 
Q 14.796875 17.390625 18.875 11.75 
Q 22.953125 6.109375 30.078125 6.109375 
Q 37.203125 6.109375 41.296875 11.75 
Q 45.40625 17.390625 45.40625 27.296875 
Q 45.40625 37.203125 41.296875 42.84375 
Q 37.203125 48.484375 30.078125 48.484375 
Q 22.953125 48.484375 18.875 42.84375 
Q 14.796875 37.203125 14.796875 27.296875 
z
M 45.40625 8.203125 
Q 42.578125 3.328125 38.25 0.953125 
Q 33.9375 -1.421875 27.875 -1.421875 
Q 17.96875 -1.421875 11.734375 6.484375 
Q 5.515625 14.40625 5.515625 27.296875 
Q 5.515625 40.1875 11.734375 48.09375 
Q 17.96875 56 27.875 56 
Q 33.9375 56 38.25 53.625 
Q 42.578125 51.265625 45.40625 46.390625 
L 45.40625 54.6875 
L 54.390625 54.6875 
L 54.390625 -20.796875 
L 45.40625 -20.796875 
z
" id="DejaVuSans-113"/>
       <path d="M 8.5 21.578125 
L 8.5 54.6875 
L 17.484375 54.6875 
L 17.484375 21.921875 
Q 17.484375 14.15625 20.5 10.265625 
Q 23.53125 6.390625 29.59375 6.390625 
Q 36.859375 6.390625 41.078125 11.03125 
Q 45.3125 15.671875 45.3125 23.6875 
L 45.3125 54.6875 
L 54.296875 54.6875 
L 54.296875 0 
L 45.3125 0 
L 45.3125 8.40625 
Q 42.046875 3.421875 37.71875 1 
Q 33.40625 -1.421875 27.6875 -1.421875 
Q 18.265625 -1.421875 13.375 4.4375 
Q 8.5 10.296875 8.5 21.578125 
z
M 31.109375 56 
z
" id="DejaVuSans-117"/>
       <path d="M 9.421875 54.6875 
L 18.40625 54.6875 
L 18.40625 0 
L 9.421875 0 
z
M 9.421875 75.984375 
L 18.40625 75.984375 
L 18.40625 64.59375 
L 9.421875 64.59375 
z
" id="DejaVuSans-105"/>
       <path d="M 44.28125 53.078125 
L 44.28125 44.578125 
Q 40.484375 46.53125 36.375 47.5 
Q 32.28125 48.484375 27.875 48.484375 
Q 21.1875 48.484375 17.84375 46.4375 
Q 14.5 44.390625 14.5 40.28125 
Q 14.5 37.15625 16.890625 35.375 
Q 19.28125 33.59375 26.515625 31.984375 
L 29.59375 31.296875 
Q 39.15625 29.25 43.1875 25.515625 
Q 47.21875 21.78125 47.21875 15.09375 
Q 47.21875 7.46875 41.1875 3.015625 
Q 35.15625 -1.421875 24.609375 -1.421875 
Q 20.21875 -1.421875 15.453125 -0.5625 
Q 10.6875 0.296875 5.421875 2 
L 5.421875 11.28125 
Q 10.40625 8.6875 15.234375 7.390625 
Q 20.0625 6.109375 24.8125 6.109375 
Q 31.15625 6.109375 34.5625 8.28125 
Q 37.984375 10.453125 37.984375 14.40625 
Q 37.984375 18.0625 35.515625 20.015625 
Q 33.0625 21.96875 24.703125 23.78125 
L 21.578125 24.515625 
Q 13.234375 26.265625 9.515625 29.90625 
Q 5.8125 33.546875 5.8125 39.890625 
Q 5.8125 47.609375 11.28125 51.796875 
Q 16.75 56 26.8125 56 
Q 31.78125 56 36.171875 55.265625 
Q 40.578125 54.546875 44.28125 53.078125 
z
" id="DejaVuSans-115"/>
       <path id="DejaVuSans-32"/>
       <path d="M 9.8125 72.90625 
L 51.703125 72.90625 
L 51.703125 64.59375 
L 19.671875 64.59375 
L 19.671875 43.109375 
L 48.578125 43.109375 
L 48.578125 34.8125 
L 19.671875 34.8125 
L 19.671875 0 
L 9.8125 0 
z
" id="DejaVuSans-70"/>
      </defs>
      <use xlink:href="#DejaVuSans-65"/>
      <use x="66.658203" xlink:href="#DejaVuSans-99"/>
      <use x="121.638672" xlink:href="#DejaVuSans-113"/>
      <use x="185.115234" xlink:href="#DejaVuSans-117"/>
      <use x="248.494141" xlink:href="#DejaVuSans-105"/>
      <use x="276.277344" xlink:href="#DejaVuSans-115"/>
      <use x="328.376953" xlink:href="#DejaVuSans-105"/>
      <use x="356.160156" xlink:href="#DejaVuSans-116"/>
      <use x="395.369141" xlink:href="#DejaVuSans-105"/>
      <use x="423.152344" xlink:href="#DejaVuSans-111"/>
      <use x="484.333984" xlink:href="#DejaVuSans-110"/>
      <use x="547.712891" xlink:href="#DejaVuSans-32"/>
      <use x="579.5" xlink:href="#DejaVuSans-70"/>
      <use x="631.519531" xlink:href="#DejaVuSans-117"/>
      <use x="694.898438" xlink:href="#DejaVuSans-110"/>
      <use x="758.277344" xlink:href="#DejaVuSans-99"/>
      <use x="813.257812" xlink:href="#DejaVuSans-116"/>
      <use x="852.466797" xlink:href="#DejaVuSans-105"/>
      <use x="880.25" xlink:href="#DejaVuSans-111"/>
      <use x="941.431641" xlink:href="#DejaVuSans-110"/>
     </g>
    </g>
   </g>
   <g id="line2d_28">
    <path clip-path="url(#p8af6ccbf36)" d="M 84.458409 324.020557 
L 164.890842 324.020557 
L 165.297066 328.911096 
L 183.577164 328.911096 
L 183.983389 253.392397 
L 254.260211 253.392397 
L 254.666435 404.576945 
L 490.276591 404.576945 
L 490.276591 404.576945 
" style="fill:none;stroke:#1f77b4;stroke-linecap:square;stroke-width:1.5;"/>
   </g>
   <g id="line2d_29">
    <path clip-path="url(#p8af6ccbf36)" d="M 84.458409 386.490308 
L 161.234822 386.490308 
L 161.641046 427.382513 
L 164.890842 427.382513 
L 165.297066 428.466698 
L 183.577164 428.466698 
L 183.983389 402.570292 
L 231.917869 402.570292 
L 232.324093 334.319416 
L 250.604191 334.319416 
L 251.010416 269.048613 
L 254.260211 269.048613 
L 254.666435 401.875471 
L 490.276591 401.875471 
L 490.276591 401.875471 
" style="fill:none;stroke:#ff7f0e;stroke-linecap:square;stroke-width:1.5;"/>
   </g>
   <g id="line2d_30">
    <path clip-path="url(#p8af6ccbf36)" d="M 84.458409 395.667434 
L 161.234822 395.667434 
L 161.641046 429.674951 
L 164.890842 429.674951 
L 165.297066 430.560314 
L 172.609105 430.560314 
L 173.01533 433.094876 
L 183.577164 433.094876 
L 183.983389 426.02508 
L 231.917869 426.02508 
L 232.324093 381.047213 
L 239.636132 381.047213 
L 240.042357 380.312622 
L 243.292152 380.312622 
L 243.698376 426.241668 
L 250.604191 426.241668 
L 251.010416 395.698108 
L 254.260211 395.698108 
L 254.666435 394.726534 
L 261.978475 394.726534 
L 262.384699 427.360401 
L 490.276591 427.360401 
L 490.276591 427.360401 
" style="fill:none;stroke:#2ca02c;stroke-linecap:square;stroke-width:1.5;"/>
   </g>
   <g id="patch_9">
    <path d="M 64.1675 442.08 
L 64.1675 244.407273 
" style="fill:none;stroke:#000000;stroke-linecap:square;stroke-linejoin:miter;stroke-width:0.8;"/>
   </g>
   <g id="patch_10">
    <path d="M 510.5675 442.08 
L 510.5675 244.407273 
" style="fill:none;stroke:#000000;stroke-linecap:square;stroke-linejoin:miter;stroke-width:0.8;"/>
   </g>
   <g id="patch_11">
    <path d="M 64.1675 442.08 
L 510.5675 442.08 
" style="fill:none;stroke:#000000;stroke-linecap:square;stroke-linejoin:miter;stroke-width:0.8;"/>
   </g>
   <g id="patch_12">
    <path d="M 64.1675 244.407273 
L 510.5675 244.407273 
" style="fill:none;stroke:#000000;stroke-linecap:square;stroke-linejoin:miter;stroke-width:0.8;"/>
   </g>
  </g>
 </g>
 <defs>
  <clipPath id="p44d3bdf97d">
   <rect height="197.672727" width="446.4" x="64.1675" y="7.2"/>
  </clipPath>
  <clipPath id="p8af6ccbf36">
   <rect height="197.672727" width="446.4" x="64.1675" y="244.407273"/>
  </clipPath>
 </defs>
</svg>
