<?xml version="1.0" encoding="utf-8" standalone="no"?>
<!DOCTYPE svg PUBLIC "-//W3C//DTD SVG 1.1//EN"
  "http://www.w3.org/Graphics/SVG/1.1/DTD/svg11.dtd">
<!-- Created with matplotlib (https://matplotlib.org/) -->
<svg height="483.5075pt" version="1.1" viewBox="0 0 510.1325 483.5075" width="510.1325pt" xmlns="http://www.w3.org/2000/svg" xmlns:xlink="http://www.w3.org/1999/xlink">
 <metadata>
  <rdf:RDF xmlns:cc="http://creativecommons.org/ns#" xmlns:dc="http://purl.org/dc/elements/1.1/" xmlns:rdf="http://www.w3.org/1999/02/22-rdf-syntax-ns#">
   <cc:Work>
    <dc:type rdf:resource="http://purl.org/dc/dcmitype/StillImage"/>
    <dc:date>2020-10-04T19:39:24.839065</dc:date>
    <dc:format>image/svg+xml</dc:format>
    <dc:creator>
     <cc:Agent>
      <dc:title>Matplotlib v3.3.1, https://matplotlib.org/</dc:title>
     </cc:Agent>
    </dc:creator>
   </cc:Work>
  </rdf:RDF>
 </metadata>
 <defs>
  <style type="text/css">*{stroke-linecap:butt;stroke-linejoin:round;}</style>
 </defs>
 <g id="figure_1">
  <g id="patch_1">
   <path d="M 0 483.5075 
L 510.1325 483.5075 
L 510.1325 0 
L 0 0 
z
" style="fill:none;"/>
  </g>
  <g id="axes_1">
   <g id="patch_2">
    <path d="M 56.5325 204.872727 
L 502.9325 204.872727 
L 502.9325 7.2 
L 56.5325 7.2 
z
" style="fill:#ffffff;"/>
   </g>
   <g id="PolyCollection_1">
    <path clip-path="url(#pe4a9c3da39)" d="M 76.823409 48.906284 
L 76.823409 85.216071 
L 77.229633 85.289775 
L 77.635858 85.363629 
L 78.042082 85.437634 
L 78.448307 85.511789 
L 78.854531 85.586094 
L 79.260756 85.66055 
L 79.66698 85.735156 
L 80.073204 85.809913 
L 80.479429 85.884819 
L 80.885653 85.959876 
L 81.291878 86.035084 
L 81.698102 86.110441 
L 82.104326 86.185949 
L 82.510551 86.261607 
L 82.916775 86.337414 
L 83.323 86.413372 
L 83.729224 86.48948 
L 84.135448 86.565737 
L 84.541673 86.642145 
L 84.947897 86.718702 
L 85.354122 86.795409 
L 85.760346 86.872265 
L 86.16657 86.949271 
L 86.572795 87.026426 
L 86.979019 87.103731 
L 87.385244 87.181185 
L 87.791468 87.258788 
L 88.197692 87.33654 
L 88.603917 87.414441 
L 89.010141 87.492491 
L 89.416366 87.57069 
L 89.82259 87.649037 
L 90.228814 87.727533 
L 90.635039 87.806178 
L 91.041263 87.88497 
L 91.447488 87.963911 
L 91.853712 88.043 
L 92.259937 88.122236 
L 92.666161 88.201621 
L 93.072385 88.281153 
L 93.47861 88.360832 
L 93.884834 88.440659 
L 94.291059 88.520633 
L 94.697283 88.600754 
L 95.103507 88.681022 
L 95.509732 88.761437 
L 95.915956 88.841998 
L 96.322181 88.922705 
L 96.728405 89.003559 
L 97.134629 89.084559 
L 97.540854 89.165705 
L 97.947078 89.246996 
L 98.353303 89.328433 
L 98.759527 89.410015 
L 99.165751 89.491742 
L 99.571976 89.573614 
L 99.9782 89.655631 
L 100.384425 89.737793 
L 100.790649 89.820098 
L 101.196873 89.902548 
L 101.603098 89.985142 
L 102.009322 90.06788 
L 102.415547 90.150761 
L 102.821771 90.233785 
L 103.227995 90.316953 
L 103.63422 90.400263 
L 104.040444 90.483716 
L 104.446669 90.567311 
L 104.852893 90.651049 
L 105.259118 90.734928 
L 105.665342 90.818949 
L 106.071566 90.903112 
L 106.477791 90.987416 
L 106.884015 91.071861 
L 107.29024 91.156446 
L 107.696464 91.241172 
L 108.102688 91.326038 
L 108.508913 91.411045 
L 108.915137 91.496191 
L 109.321362 91.581476 
L 109.727586 91.666901 
L 110.13381 91.752464 
L 110.540035 91.838166 
L 110.946259 91.924007 
L 111.352484 92.009986 
L 111.758708 92.096102 
L 112.164932 92.182356 
L 112.571157 92.268748 
L 112.977381 92.355276 
L 113.383606 92.441942 
L 113.78983 92.528743 
L 114.196054 92.615681 
L 114.602279 92.702755 
L 115.008503 92.789964 
L 115.414728 92.877309 
L 115.820952 92.964788 
L 116.227176 93.052403 
L 116.633401 93.140151 
L 117.039625 93.228034 
L 117.44585 93.316051 
L 117.852074 93.404201 
L 118.258299 93.492484 
L 118.664523 93.5809 
L 119.070747 93.669449 
L 119.476972 93.758129 
L 119.883196 93.846942 
L 120.289421 93.935887 
L 120.695645 94.024963 
L 121.101869 94.114169 
L 121.508094 94.203507 
L 121.914318 94.292974 
L 122.320543 94.382572 
L 122.726767 94.4723 
L 123.132991 94.562156 
L 123.539216 94.652142 
L 123.94544 94.742257 
L 124.351665 94.832499 
L 124.757889 94.92287 
L 125.164113 95.013369 
L 125.570338 95.103995 
L 125.976562 95.194748 
L 126.382787 95.285627 
L 126.789011 95.376633 
L 127.195235 95.467765 
L 127.60146 95.559023 
L 128.007684 95.650406 
L 128.413909 95.741914 
L 128.820133 95.833546 
L 129.226357 95.925303 
L 129.632582 96.017184 
L 130.038806 96.109188 
L 130.445031 96.201316 
L 130.851255 96.293566 
L 131.25748 96.385939 
L 131.663704 96.478434 
L 132.069928 96.571051 
L 132.476153 96.663789 
L 132.882377 96.756649 
L 133.288602 96.849629 
L 133.694826 96.942729 
L 134.10105 97.03595 
L 134.507275 97.12929 
L 134.913499 97.22275 
L 135.319724 97.316328 
L 135.725948 97.410025 
L 136.132172 97.503841 
L 136.538397 97.597774 
L 136.944621 97.691825 
L 137.350846 97.785992 
L 137.75707 97.880277 
L 138.163294 97.974678 
L 138.569519 98.069195 
L 138.975743 98.163827 
L 139.381968 98.258575 
L 139.788192 98.353438 
L 140.194416 98.448415 
L 140.600641 98.543507 
L 141.006865 98.638712 
L 141.41309 98.734031 
L 141.819314 98.829463 
L 142.225538 98.925008 
L 142.631763 99.020665 
L 143.037987 99.116434 
L 143.444212 99.212315 
L 143.850436 99.308306 
L 144.256661 99.404409 
L 144.662885 99.500622 
L 145.069109 99.596946 
L 145.475334 99.693379 
L 145.881558 99.789921 
L 146.287783 99.886573 
L 146.694007 99.983333 
L 147.100231 100.080201 
L 147.506456 100.177177 
L 147.91268 100.274261 
L 148.318905 100.371452 
L 148.725129 100.46875 
L 149.131353 100.566154 
L 149.537578 100.663664 
L 149.943802 100.76128 
L 150.350027 100.859001 
L 150.756251 100.956827 
L 151.162475 101.054757 
L 151.5687 101.152792 
L 151.974924 101.250931 
L 152.381149 101.349173 
L 152.787373 101.447518 
L 153.193597 101.545965 
L 153.599822 101.644515 
L 154.006046 101.743167 
L 154.412271 101.841921 
L 154.818495 101.940776 
L 155.224719 102.039732 
L 155.630944 102.138788 
L 156.037168 102.237944 
L 156.443393 102.3372 
L 156.849617 102.436555 
L 157.255842 102.53601 
L 157.662066 102.635563 
L 158.06829 102.735214 
L 158.474515 102.834963 
L 158.880739 102.93481 
L 159.286964 103.034754 
L 159.693188 103.134795 
L 160.099412 103.234932 
L 160.505637 103.335165 
L 160.911861 103.435494 
L 161.318086 103.535919 
L 161.72431 103.636438 
L 162.130534 103.737052 
L 162.536759 103.83776 
L 162.942983 103.938562 
L 163.349208 104.039458 
L 163.755432 104.140447 
L 164.161656 104.241529 
L 164.567881 104.342703 
L 164.974105 104.44397 
L 165.38033 104.545328 
L 165.786554 104.646778 
L 166.192778 104.748318 
L 166.599003 104.84995 
L 167.005227 104.951671 
L 167.411452 105.053483 
L 167.817676 105.155385 
L 168.2239 105.257375 
L 168.630125 105.359455 
L 169.036349 105.461623 
L 169.442574 105.56388 
L 169.848798 105.666224 
L 170.255023 105.768656 
L 170.661247 105.871175 
L 171.067471 105.973781 
L 171.473696 106.076473 
L 171.87992 106.179252 
L 172.286145 106.282117 
L 172.692369 106.385067 
L 173.098593 106.488102 
L 173.504818 106.591222 
L 173.911042 106.694426 
L 174.317267 106.797714 
L 174.723491 106.901087 
L 175.129715 107.004542 
L 175.53594 107.108081 
L 175.942164 107.211703 
L 176.348389 107.315407 
L 176.754613 107.419193 
L 177.160837 107.52306 
L 177.567062 107.62701 
L 177.973286 107.73104 
L 178.379511 107.835151 
L 178.785735 107.939343 
L 179.191959 108.043614 
L 179.598184 108.147966 
L 180.004408 108.252397 
L 180.410633 108.356907 
L 180.816857 108.461496 
L 181.223081 108.566163 
L 181.629306 108.670908 
L 182.03553 108.775732 
L 182.441755 108.880633 
L 182.847979 108.985611 
L 183.254204 109.090666 
L 183.660428 109.195797 
L 184.066652 109.301005 
L 184.472877 109.406288 
L 184.879101 109.511648 
L 185.285326 109.617082 
L 185.69155 109.722592 
L 186.097774 109.828176 
L 186.503999 109.933834 
L 186.910223 110.039567 
L 187.316448 110.145373 
L 187.722672 110.251253 
L 188.128896 110.357206 
L 188.535121 110.463231 
L 188.941345 110.569329 
L 189.34757 110.6755 
L 189.753794 110.781742 
L 190.160018 110.888056 
L 190.566243 110.994441 
L 190.972467 111.100897 
L 191.378692 111.207424 
L 191.784916 111.314021 
L 192.19114 111.420689 
L 192.597365 111.527426 
L 193.003589 111.634232 
L 193.409814 111.741108 
L 193.816038 111.848053 
L 194.222262 111.955067 
L 194.628487 112.062148 
L 195.034711 112.169298 
L 195.440936 112.276516 
L 195.84716 112.383801 
L 196.253385 112.491153 
L 196.659609 112.598573 
L 197.065833 112.706058 
L 197.472058 112.81361 
L 197.878282 112.921229 
L 198.284507 113.028913 
L 198.690731 113.136662 
L 199.096955 113.244477 
L 199.50318 113.352357 
L 199.909404 113.460301 
L 200.315629 113.56831 
L 200.721853 113.676382 
L 201.128077 113.784519 
L 201.534302 113.892719 
L 201.940526 114.000983 
L 202.346751 114.109309 
L 202.752975 114.217698 
L 203.159199 114.32615 
L 203.565424 114.434664 
L 203.971648 114.54324 
L 204.377873 114.651878 
L 204.784097 114.760577 
L 205.190321 114.869337 
L 205.596546 114.978158 
L 206.00277 115.08704 
L 206.408995 115.195982 
L 206.815219 115.304984 
L 207.221443 115.414046 
L 207.627668 115.523167 
L 208.033892 115.632348 
L 208.440117 115.741588 
L 208.846341 115.850887 
L 209.252566 115.960245 
L 209.65879 116.069661 
L 210.065014 116.179135 
L 210.471239 116.288666 
L 210.877463 116.398256 
L 211.283688 116.507902 
L 211.689912 116.617606 
L 212.096136 116.727366 
L 212.502361 116.837184 
L 212.908585 116.947057 
L 213.31481 117.056987 
L 213.721034 117.166972 
L 214.127258 117.277013 
L 214.533483 117.38711 
L 214.939707 117.497261 
L 215.345932 117.607468 
L 215.752156 117.717729 
L 216.15838 117.828045 
L 216.564605 117.938415 
L 216.970829 118.048838 
L 217.377054 118.159316 
L 217.783278 118.269847 
L 218.189502 118.380431 
L 218.595727 118.491069 
L 219.001951 118.601759 
L 219.408176 118.712502 
L 219.8144 118.823297 
L 220.220624 118.934144 
L 220.626849 119.045043 
L 221.033073 119.155994 
L 221.439298 119.266997 
L 221.845522 119.37805 
L 222.251747 119.489155 
L 222.657971 119.60031 
L 223.064195 119.711516 
L 223.47042 119.822773 
L 223.876644 119.934079 
L 224.282869 120.045436 
L 224.689093 120.156842 
L 225.095317 120.268298 
L 225.501542 120.379803 
L 225.907766 120.491357 
L 226.313991 120.60296 
L 226.720215 120.714611 
L 227.126439 120.826311 
L 227.532664 120.93806 
L 227.938888 121.049856 
L 228.345113 121.1617 
L 228.751337 121.273592 
L 229.157561 121.385531 
L 229.563786 121.497518 
L 229.97001 121.609551 
L 230.376235 121.721631 
L 230.782459 121.833758 
L 231.188683 121.945932 
L 231.594908 122.058151 
L 232.001132 122.170417 
L 232.407357 122.282728 
L 232.813581 122.395085 
L 233.219805 122.507487 
L 233.62603 122.619935 
L 234.032254 122.732427 
L 234.438479 122.844965 
L 234.844703 122.957547 
L 235.250928 123.070173 
L 235.657152 123.182844 
L 236.063376 123.295559 
L 236.469601 123.408318 
L 236.875825 123.52112 
L 237.28205 123.633966 
L 237.688274 123.746856 
L 238.094498 123.859788 
L 238.500723 123.972764 
L 238.906947 124.085782 
L 239.313172 124.198843 
L 239.719396 124.311946 
L 240.12562 124.425091 
L 240.531845 124.538279 
L 240.938069 124.651508 
L 241.344294 124.764779 
L 241.750518 124.878092 
L 242.156742 124.991446 
L 242.562967 125.104841 
L 242.969191 125.218277 
L 243.375416 125.331754 
L 243.78164 125.445271 
L 244.187864 125.558829 
L 244.594089 125.672428 
L 245.000313 125.786066 
L 245.406538 125.899744 
L 245.812762 126.013463 
L 246.218986 126.12722 
L 246.625211 126.241018 
L 247.031435 126.354854 
L 247.43766 126.46873 
L 247.843884 126.582644 
L 248.250109 126.696598 
L 248.656333 126.810589 
L 249.062557 126.92462 
L 249.468782 127.038689 
L 249.875006 127.152795 
L 250.281231 127.26694 
L 250.687455 127.381123 
L 251.093679 127.495343 
L 251.499904 127.609601 
L 251.906128 127.723896 
L 252.312353 127.838228 
L 252.718577 127.952598 
L 253.124801 128.067004 
L 253.531026 128.181447 
L 253.93725 128.295926 
L 254.343475 128.410442 
L 254.749699 128.524994 
L 255.155923 128.639582 
L 255.562148 128.754206 
L 255.968372 128.868866 
L 256.374597 128.983562 
L 256.780821 129.098293 
L 257.187045 129.213059 
L 257.59327 129.327861 
L 257.999494 129.442698 
L 258.405719 129.557569 
L 258.811943 129.672476 
L 259.218167 129.787417 
L 259.624392 129.902392 
L 260.030616 130.017402 
L 260.436841 130.132446 
L 260.843065 130.247524 
L 261.24929 130.362636 
L 261.655514 130.477781 
L 262.061738 130.592961 
L 262.467963 130.708173 
L 262.874187 130.823419 
L 263.280412 130.938699 
L 263.686636 131.054011 
L 264.09286 131.169356 
L 264.499085 131.284734 
L 264.905309 131.400145 
L 265.311534 131.515588 
L 265.717758 131.631064 
L 266.123982 131.746572 
L 266.530207 131.862112 
L 266.936431 131.977684 
L 267.342656 132.093288 
L 267.74888 132.208923 
L 268.155104 132.32459 
L 268.561329 132.440289 
L 268.967553 132.556019 
L 269.373778 132.67178 
L 269.780002 132.787572 
L 270.186226 132.903395 
L 270.592451 133.019249 
L 270.998675 133.135134 
L 271.4049 133.251049 
L 271.811124 133.366995 
L 272.217348 133.482971 
L 272.623573 133.598977 
L 273.029797 133.715014 
L 273.436022 133.83108 
L 273.842246 133.947176 
L 274.248471 134.063302 
L 274.654695 134.179457 
L 275.060919 134.295642 
L 275.467144 134.411856 
L 275.873368 134.528099 
L 276.279593 134.644372 
L 276.685817 134.760673 
L 277.092041 134.877003 
L 277.498266 134.993362 
L 277.90449 135.10975 
L 278.310715 135.226166 
L 278.716939 135.342611 
L 279.123163 135.459084 
L 279.529388 135.575585 
L 279.935612 135.692114 
L 280.341837 135.808671 
L 280.748061 135.925256 
L 281.154285 136.041869 
L 281.56051 136.158509 
L 281.966734 136.275177 
L 282.372959 136.391872 
L 282.779183 136.508594 
L 283.185407 136.625344 
L 283.591632 136.742121 
L 283.997856 136.858924 
L 284.404081 136.975755 
L 284.810305 137.092612 
L 285.216529 137.209496 
L 285.622754 137.326406 
L 286.028978 137.443343 
L 286.435203 137.560306 
L 286.841427 137.677295 
L 287.247652 137.79431 
L 287.653876 137.911351 
L 288.0601 138.028419 
L 288.466325 138.145512 
L 288.872549 138.26263 
L 289.278774 138.379775 
L 289.684998 138.496944 
L 290.091222 138.61414 
L 290.497447 138.73136 
L 290.903671 138.848606 
L 291.309896 138.965876 
L 291.71612 139.083172 
L 292.122344 139.200492 
L 292.528569 139.317838 
L 292.934793 139.435208 
L 293.341018 139.552602 
L 293.747242 139.670021 
L 294.153466 139.787465 
L 294.559691 139.904933 
L 294.965915 140.022425 
L 295.37214 140.139941 
L 295.778364 140.257481 
L 296.184588 140.375045 
L 296.590813 140.492633 
L 296.997037 140.610244 
L 297.403262 140.727879 
L 297.809486 140.845538 
L 298.21571 140.96322 
L 298.621935 141.080926 
L 299.028159 141.198655 
L 299.434384 141.316407 
L 299.840608 141.434182 
L 300.246833 141.55198 
L 300.653057 141.669801 
L 301.059281 141.787645 
L 301.465506 141.905512 
L 301.87173 142.023401 
L 302.277955 142.141313 
L 302.684179 142.259247 
L 303.090403 142.377203 
L 303.496628 142.495182 
L 303.902852 142.613183 
L 304.309077 142.731207 
L 304.715301 142.849252 
L 305.121525 142.967319 
L 305.52775 143.085408 
L 305.933974 143.203519 
L 306.340199 143.321652 
L 306.746423 143.439806 
L 307.152647 143.557982 
L 307.558872 143.676179 
L 307.965096 143.794398 
L 308.371321 143.912637 
L 308.777545 144.030898 
L 309.183769 144.149181 
L 309.589994 144.267484 
L 309.996218 144.385808 
L 310.402443 144.504153 
L 310.808667 144.622519 
L 311.214891 144.740906 
L 311.621116 144.859313 
L 312.02734 144.977741 
L 312.433565 145.096189 
L 312.839789 145.214658 
L 313.246014 145.333147 
L 313.652238 145.451656 
L 314.058462 145.570185 
L 314.464687 145.688735 
L 314.870911 145.807305 
L 315.277136 145.925894 
L 315.68336 146.044503 
L 316.089584 146.163133 
L 316.495809 146.281782 
L 316.902033 146.40045 
L 317.308258 146.519138 
L 317.714482 146.637846 
L 318.120706 146.756573 
L 318.526931 146.87532 
L 318.933155 146.994085 
L 319.33938 147.11287 
L 319.745604 147.231674 
L 320.151828 147.350497 
L 320.558053 147.46934 
L 320.964277 147.588201 
L 321.370502 147.707081 
L 321.776726 147.825979 
L 322.18295 147.944897 
L 322.589175 148.063833 
L 322.995399 148.182787 
L 323.401624 148.301761 
L 323.807848 148.420752 
L 324.214072 148.539762 
L 324.620297 148.65879 
L 325.026521 148.777837 
L 325.432746 148.896902 
L 325.83897 149.015984 
L 326.245195 149.135085 
L 326.651419 149.254204 
L 327.057643 149.37334 
L 327.463868 149.492495 
L 327.870092 149.611667 
L 328.276317 149.730857 
L 328.682541 149.850065 
L 329.088765 149.96929 
L 329.49499 150.088532 
L 329.901214 150.207793 
L 330.307439 150.32707 
L 330.713663 150.446365 
L 331.119887 150.565677 
L 331.526112 150.685006 
L 331.932336 150.804352 
L 332.338561 150.923716 
L 332.744785 151.043096 
L 333.151009 151.162494 
L 333.557234 151.281908 
L 333.963458 151.401339 
L 334.369683 151.520787 
L 334.775907 151.640251 
L 335.182131 151.759732 
L 335.588356 151.87923 
L 335.99458 151.998744 
L 336.400805 152.118275 
L 336.807029 152.237822 
L 337.213253 152.357385 
L 337.619478 152.476965 
L 338.025702 152.596561 
L 338.431927 152.716173 
L 338.838151 152.835801 
L 339.244376 152.955445 
L 339.6506 153.075105 
L 340.056824 153.194781 
L 340.463049 153.314473 
L 340.869273 153.434181 
L 341.275498 153.553904 
L 341.681722 153.673643 
L 342.087946 153.793398 
L 342.494171 153.913169 
L 342.900395 154.032955 
L 343.30662 154.152756 
L 343.712844 154.272573 
L 344.119068 154.392405 
L 344.525293 154.512253 
L 344.931517 154.632115 
L 345.337742 154.751993 
L 345.743966 154.871887 
L 346.15019 154.991795 
L 346.556415 155.111718 
L 346.962639 155.231656 
L 347.368864 155.351609 
L 347.775088 155.471578 
L 348.181312 155.59156 
L 348.587537 155.711558 
L 348.993761 155.831571 
L 349.399986 155.951598 
L 349.80621 156.071639 
L 350.212434 156.191696 
L 350.618659 156.311766 
L 351.024883 156.431852 
L 351.431108 156.551951 
L 351.837332 156.672065 
L 352.243557 156.792194 
L 352.649781 156.912336 
L 353.056005 157.032493 
L 353.46223 157.152664 
L 353.868454 157.272849 
L 354.274679 157.393048 
L 354.680903 157.513261 
L 355.087127 157.633489 
L 355.493352 157.75373 
L 355.899576 157.873985 
L 356.305801 157.994253 
L 356.712025 158.114536 
L 357.118249 158.234832 
L 357.524474 158.355142 
L 357.930698 158.475466 
L 358.336923 158.595803 
L 358.743147 158.716154 
L 359.149371 158.836518 
L 359.555596 158.956895 
L 359.96182 159.077286 
L 360.368045 159.197691 
L 360.774269 159.318109 
L 361.180493 159.43854 
L 361.586718 159.558984 
L 361.992942 159.679441 
L 362.399167 159.799912 
L 362.805391 159.920395 
L 363.211615 160.040892 
L 363.61784 160.161401 
L 364.024064 160.281924 
L 364.430289 160.402459 
L 364.836513 160.523008 
L 365.242738 160.643569 
L 365.648962 160.764143 
L 366.055186 160.884729 
L 366.461411 161.005328 
L 366.867635 161.12594 
L 367.27386 161.246565 
L 367.680084 161.367202 
L 368.086308 161.487852 
L 368.492533 161.608514 
L 368.898757 161.729188 
L 369.304982 161.849875 
L 369.711206 161.970574 
L 370.11743 162.091286 
L 370.523655 162.21201 
L 370.929879 162.332746 
L 371.336104 162.453494 
L 371.742328 162.574254 
L 372.148552 162.695027 
L 372.554777 162.815811 
L 372.961001 162.936608 
L 373.367226 163.057416 
L 373.77345 163.178237 
L 374.179674 163.299069 
L 374.585899 163.419913 
L 374.992123 163.540769 
L 375.398348 163.661637 
L 375.804572 163.782516 
L 376.210796 163.903408 
L 376.617021 164.024311 
L 377.023245 164.145225 
L 377.42947 164.266151 
L 377.835694 164.387089 
L 378.241919 164.508038 
L 378.648143 164.628998 
L 379.054367 164.749971 
L 379.460592 164.870954 
L 379.866816 164.991949 
L 380.273041 165.112955 
L 380.679265 165.233972 
L 381.085489 165.355001 
L 381.491714 165.476041 
L 381.897938 165.597092 
L 382.304163 165.718154 
L 382.710387 165.839227 
L 383.116611 165.960311 
L 383.522836 166.081407 
L 383.92906 166.202513 
L 384.335285 166.32363 
L 384.741509 166.444758 
L 385.147733 166.565897 
L 385.553958 166.687047 
L 385.960182 166.808208 
L 386.366407 166.929379 
L 386.772631 167.050562 
L 387.178855 167.171754 
L 387.58508 167.292958 
L 387.991304 167.414172 
L 388.397529 167.535397 
L 388.803753 167.656632 
L 389.209977 167.777878 
L 389.616202 167.899135 
L 390.022426 168.020402 
L 390.428651 168.141679 
L 390.834875 168.262967 
L 391.2411 168.384265 
L 391.647324 168.505573 
L 392.053548 168.626892 
L 392.459773 168.748221 
L 392.865997 168.86956 
L 393.272222 168.990909 
L 393.678446 169.112269 
L 394.08467 169.233638 
L 394.490895 169.355018 
L 394.897119 169.476408 
L 395.303344 169.597808 
L 395.709568 169.719218 
L 396.115792 169.840638 
L 396.522017 169.962067 
L 396.928241 170.083507 
L 397.334466 170.204957 
L 397.74069 170.326416 
L 398.146914 170.447885 
L 398.553139 170.569364 
L 398.959363 170.690853 
L 399.365588 170.812351 
L 399.771812 170.93386 
L 400.178036 171.055377 
L 400.584261 171.176905 
L 400.990485 171.298442 
L 401.39671 171.419989 
L 401.802934 171.541545 
L 402.209158 171.66311 
L 402.615383 171.784685 
L 403.021607 171.90627 
L 403.427832 172.027864 
L 403.834056 172.149467 
L 404.240281 172.27108 
L 404.646505 172.392702 
L 405.052729 172.514334 
L 405.458954 172.635974 
L 405.865178 172.757624 
L 406.271403 172.879283 
L 406.677627 173.000951 
L 407.083851 173.122629 
L 407.490076 173.244315 
L 407.8963 173.366011 
L 408.302525 173.487716 
L 408.708749 173.609429 
L 409.114973 173.731152 
L 409.521198 173.852884 
L 409.927422 173.974625 
L 410.333647 174.096374 
L 410.739871 174.218133 
L 411.146095 174.3399 
L 411.55232 174.461677 
L 411.958544 174.583462 
L 412.364769 174.705256 
L 412.770993 174.827058 
L 413.177217 174.94887 
L 413.583442 175.07069 
L 413.989666 175.192519 
L 414.395891 175.314356 
L 414.802115 175.436202 
L 415.208339 175.558057 
L 415.614564 175.67992 
L 416.020788 175.801792 
L 416.427013 175.923672 
L 416.833237 176.045561 
L 417.239462 176.167458 
L 417.645686 176.289364 
L 418.05191 176.411278 
L 418.458135 176.533201 
L 418.864359 176.655132 
L 419.270584 176.777071 
L 419.676808 176.899019 
L 420.083032 177.020975 
L 420.489257 177.142939 
L 420.895481 177.264911 
L 421.301706 177.386892 
L 421.70793 177.508881 
L 422.114154 177.630878 
L 422.520379 177.752883 
L 422.926603 177.874896 
L 423.332828 177.996918 
L 423.739052 178.118947 
L 424.145276 178.240985 
L 424.551501 178.36303 
L 424.957725 178.485084 
L 425.36395 178.607145 
L 425.770174 178.729215 
L 426.176398 178.851292 
L 426.582623 178.973377 
L 426.988847 179.095471 
L 427.395072 179.217572 
L 427.801296 179.339681 
L 428.20752 179.461797 
L 428.613745 179.583922 
L 429.019969 179.706054 
L 429.426194 179.828194 
L 429.832418 179.950342 
L 430.238643 180.072497 
L 430.644867 180.19466 
L 431.051091 180.316831 
L 431.457316 180.439009 
L 431.86354 180.561195 
L 432.269765 180.683388 
L 432.675989 180.80559 
L 433.082213 180.927798 
L 433.488438 181.050014 
L 433.894662 181.172238 
L 434.300887 181.294469 
L 434.707111 181.416707 
L 435.113335 181.538953 
L 435.51956 181.661207 
L 435.925784 181.783468 
L 436.332009 181.905736 
L 436.738233 182.028011 
L 437.144457 182.150294 
L 437.550682 182.272584 
L 437.956906 182.394881 
L 438.363131 182.517186 
L 438.769355 182.639498 
L 439.175579 182.761817 
L 439.581804 182.884143 
L 439.988028 183.006476 
L 440.394253 183.128817 
L 440.800477 183.251165 
L 441.206701 183.373519 
L 441.612926 183.495881 
L 442.01915 183.61825 
L 442.425375 183.740626 
L 442.831599 183.863009 
L 443.237824 183.985399 
L 443.644048 184.107796 
L 444.050272 184.2302 
L 444.456497 184.352611 
L 444.862721 184.475029 
L 445.268946 184.597453 
L 445.67517 184.719885 
L 446.081394 184.842323 
L 446.487619 184.964769 
L 446.893843 185.087221 
L 447.300068 185.20968 
L 447.706292 185.332146 
L 448.112516 185.454618 
L 448.518741 185.577097 
L 448.924965 185.699583 
L 449.33119 185.822076 
L 449.737414 185.944575 
L 450.143638 186.067081 
L 450.549863 186.189594 
L 450.956087 186.312113 
L 451.362312 186.434639 
L 451.768536 186.557172 
L 452.17476 186.679711 
L 452.580985 186.802257 
L 452.987209 186.924809 
L 453.393434 187.047367 
L 453.799658 187.169933 
L 454.205882 187.292504 
L 454.612107 187.415083 
L 455.018331 187.537667 
L 455.424556 187.660258 
L 455.83078 187.782856 
L 456.237005 187.905459 
L 456.643229 188.02807 
L 457.049453 188.150686 
L 457.455678 188.273309 
L 457.861902 188.395938 
L 458.268127 188.518574 
L 458.674351 188.641216 
L 459.080575 188.763864 
L 459.4868 188.886518 
L 459.893024 189.009179 
L 460.299249 189.131845 
L 460.705473 189.254518 
L 461.111697 189.377198 
L 461.517922 189.499883 
L 461.924146 189.622574 
L 462.330371 189.745272 
L 462.736595 189.867976 
L 463.142819 189.990685 
L 463.549044 190.113401 
L 463.955268 190.236123 
L 464.361493 190.358851 
L 464.767717 190.481585 
L 465.173941 190.604325 
L 465.580166 190.727071 
L 465.98639 190.849823 
L 466.392615 190.972581 
L 466.798839 191.095345 
L 467.205063 191.218115 
L 467.611288 191.340891 
L 468.017512 191.463672 
L 468.423737 191.58646 
L 468.829961 191.709253 
L 469.236186 191.832052 
L 469.64241 191.954857 
L 470.048634 192.077668 
L 470.454859 192.200485 
L 470.861083 192.323307 
L 471.267308 192.446135 
L 471.673532 192.568969 
L 472.079756 192.691809 
L 472.485981 192.814654 
L 472.892205 192.937505 
L 473.29843 193.060362 
L 473.704654 193.183225 
L 474.110878 193.306093 
L 474.517103 193.428967 
L 474.923327 193.551846 
L 475.329552 193.674731 
L 475.735776 193.797622 
L 476.142 193.920518 
L 476.548225 194.043419 
L 476.954449 194.166327 
L 477.360674 194.28924 
L 477.766898 194.412158 
L 478.173122 194.535082 
L 478.579347 194.658011 
L 478.985571 194.780946 
L 479.391796 194.903886 
L 479.79802 195.026832 
L 480.204244 195.149783 
L 480.610469 195.27274 
L 481.016693 195.395702 
L 481.422918 195.518669 
L 481.829142 195.641642 
L 482.235367 195.76462 
L 482.641591 195.887603 
L 482.641591 85.344752 
L 482.641591 85.344752 
L 482.235367 85.320478 
L 481.829142 85.296199 
L 481.422918 85.271914 
L 481.016693 85.247624 
L 480.610469 85.223329 
L 480.204244 85.199028 
L 479.79802 85.174722 
L 479.391796 85.150411 
L 478.985571 85.126094 
L 478.579347 85.101771 
L 478.173122 85.077443 
L 477.766898 85.05311 
L 477.360674 85.028771 
L 476.954449 85.004427 
L 476.548225 84.980077 
L 476.142 84.955721 
L 475.735776 84.93136 
L 475.329552 84.906993 
L 474.923327 84.882621 
L 474.517103 84.858243 
L 474.110878 84.83386 
L 473.704654 84.809471 
L 473.29843 84.785076 
L 472.892205 84.760675 
L 472.485981 84.736269 
L 472.079756 84.711857 
L 471.673532 84.68744 
L 471.267308 84.663016 
L 470.861083 84.638587 
L 470.454859 84.614152 
L 470.048634 84.589712 
L 469.64241 84.565265 
L 469.236186 84.540813 
L 468.829961 84.516355 
L 468.423737 84.491891 
L 468.017512 84.467422 
L 467.611288 84.442946 
L 467.205063 84.418464 
L 466.798839 84.393977 
L 466.392615 84.369484 
L 465.98639 84.344984 
L 465.580166 84.320479 
L 465.173941 84.295968 
L 464.767717 84.27145 
L 464.361493 84.246927 
L 463.955268 84.222398 
L 463.549044 84.197863 
L 463.142819 84.173321 
L 462.736595 84.148774 
L 462.330371 84.12422 
L 461.924146 84.09966 
L 461.517922 84.075095 
L 461.111697 84.050523 
L 460.705473 84.025945 
L 460.299249 84.00136 
L 459.893024 83.97677 
L 459.4868 83.952173 
L 459.080575 83.92757 
L 458.674351 83.902961 
L 458.268127 83.878346 
L 457.861902 83.853724 
L 457.455678 83.829096 
L 457.049453 83.804461 
L 456.643229 83.779821 
L 456.237005 83.755174 
L 455.83078 83.73052 
L 455.424556 83.70586 
L 455.018331 83.681194 
L 454.612107 83.656522 
L 454.205882 83.631843 
L 453.799658 83.607157 
L 453.393434 83.582465 
L 452.987209 83.557766 
L 452.580985 83.533061 
L 452.17476 83.50835 
L 451.768536 83.483632 
L 451.362312 83.458907 
L 450.956087 83.434176 
L 450.549863 83.409438 
L 450.143638 83.384693 
L 449.737414 83.359942 
L 449.33119 83.335184 
L 448.924965 83.310419 
L 448.518741 83.285648 
L 448.112516 83.26087 
L 447.706292 83.236085 
L 447.300068 83.211294 
L 446.893843 83.186495 
L 446.487619 83.16169 
L 446.081394 83.136878 
L 445.67517 83.11206 
L 445.268946 83.087234 
L 444.862721 83.062401 
L 444.456497 83.037562 
L 444.050272 83.012716 
L 443.644048 82.987862 
L 443.237824 82.963002 
L 442.831599 82.938135 
L 442.425375 82.91326 
L 442.01915 82.888379 
L 441.612926 82.863491 
L 441.206701 82.838595 
L 440.800477 82.813693 
L 440.394253 82.788783 
L 439.988028 82.763867 
L 439.581804 82.738943 
L 439.175579 82.714012 
L 438.769355 82.689074 
L 438.363131 82.664128 
L 437.956906 82.639175 
L 437.550682 82.614215 
L 437.144457 82.589248 
L 436.738233 82.564274 
L 436.332009 82.539292 
L 435.925784 82.514303 
L 435.51956 82.489306 
L 435.113335 82.464302 
L 434.707111 82.439291 
L 434.300887 82.414272 
L 433.894662 82.389246 
L 433.488438 82.364213 
L 433.082213 82.339171 
L 432.675989 82.314123 
L 432.269765 82.289067 
L 431.86354 82.264003 
L 431.457316 82.238932 
L 431.051091 82.213853 
L 430.644867 82.188766 
L 430.238643 82.163672 
L 429.832418 82.13857 
L 429.426194 82.11346 
L 429.019969 82.088343 
L 428.613745 82.063218 
L 428.20752 82.038085 
L 427.801296 82.012945 
L 427.395072 81.987796 
L 426.988847 81.96264 
L 426.582623 81.937476 
L 426.176398 81.912304 
L 425.770174 81.887124 
L 425.36395 81.861936 
L 424.957725 81.836741 
L 424.551501 81.811537 
L 424.145276 81.786325 
L 423.739052 81.761105 
L 423.332828 81.735878 
L 422.926603 81.710642 
L 422.520379 81.685398 
L 422.114154 81.660146 
L 421.70793 81.634886 
L 421.301706 81.609617 
L 420.895481 81.584341 
L 420.489257 81.559056 
L 420.083032 81.533763 
L 419.676808 81.508461 
L 419.270584 81.483152 
L 418.864359 81.457834 
L 418.458135 81.432507 
L 418.05191 81.407173 
L 417.645686 81.38183 
L 417.239462 81.356478 
L 416.833237 81.331118 
L 416.427013 81.30575 
L 416.020788 81.280373 
L 415.614564 81.254987 
L 415.208339 81.229593 
L 414.802115 81.204191 
L 414.395891 81.17878 
L 413.989666 81.15336 
L 413.583442 81.127931 
L 413.177217 81.102494 
L 412.770993 81.077048 
L 412.364769 81.051594 
L 411.958544 81.02613 
L 411.55232 81.000658 
L 411.146095 80.975177 
L 410.739871 80.949687 
L 410.333647 80.924189 
L 409.927422 80.898681 
L 409.521198 80.873165 
L 409.114973 80.847639 
L 408.708749 80.822105 
L 408.302525 80.796561 
L 407.8963 80.771009 
L 407.490076 80.745447 
L 407.083851 80.719876 
L 406.677627 80.694297 
L 406.271403 80.668708 
L 405.865178 80.643109 
L 405.458954 80.617502 
L 405.052729 80.591885 
L 404.646505 80.566259 
L 404.240281 80.540624 
L 403.834056 80.51498 
L 403.427832 80.489326 
L 403.021607 80.463663 
L 402.615383 80.43799 
L 402.209158 80.412308 
L 401.802934 80.386616 
L 401.39671 80.360915 
L 400.990485 80.335204 
L 400.584261 80.309484 
L 400.178036 80.283754 
L 399.771812 80.258015 
L 399.365588 80.232266 
L 398.959363 80.206507 
L 398.553139 80.180739 
L 398.146914 80.15496 
L 397.74069 80.129172 
L 397.334466 80.103374 
L 396.928241 80.077567 
L 396.522017 80.051749 
L 396.115792 80.025922 
L 395.709568 80.000084 
L 395.303344 79.974237 
L 394.897119 79.948379 
L 394.490895 79.922512 
L 394.08467 79.896634 
L 393.678446 79.870747 
L 393.272222 79.844849 
L 392.865997 79.818941 
L 392.459773 79.793023 
L 392.053548 79.767095 
L 391.647324 79.741156 
L 391.2411 79.715207 
L 390.834875 79.689248 
L 390.428651 79.663279 
L 390.022426 79.637299 
L 389.616202 79.611308 
L 389.209977 79.585307 
L 388.803753 79.559296 
L 388.397529 79.533274 
L 387.991304 79.507242 
L 387.58508 79.481199 
L 387.178855 79.455145 
L 386.772631 79.429081 
L 386.366407 79.403006 
L 385.960182 79.37692 
L 385.553958 79.350823 
L 385.147733 79.324716 
L 384.741509 79.298598 
L 384.335285 79.272469 
L 383.92906 79.246329 
L 383.522836 79.220178 
L 383.116611 79.194016 
L 382.710387 79.167843 
L 382.304163 79.141659 
L 381.897938 79.115464 
L 381.491714 79.089257 
L 381.085489 79.06304 
L 380.679265 79.036811 
L 380.273041 79.010571 
L 379.866816 78.98432 
L 379.460592 78.958058 
L 379.054367 78.931784 
L 378.648143 78.905499 
L 378.241919 78.879202 
L 377.835694 78.852894 
L 377.42947 78.826574 
L 377.023245 78.800243 
L 376.617021 78.7739 
L 376.210796 78.747546 
L 375.804572 78.72118 
L 375.398348 78.694802 
L 374.992123 78.668413 
L 374.585899 78.642011 
L 374.179674 78.615598 
L 373.77345 78.589173 
L 373.367226 78.562737 
L 372.961001 78.536288 
L 372.554777 78.509827 
L 372.148552 78.483354 
L 371.742328 78.45687 
L 371.336104 78.430373 
L 370.929879 78.403864 
L 370.523655 78.377342 
L 370.11743 78.350809 
L 369.711206 78.324263 
L 369.304982 78.297705 
L 368.898757 78.271135 
L 368.492533 78.244552 
L 368.086308 78.217957 
L 367.680084 78.191349 
L 367.27386 78.164729 
L 366.867635 78.138096 
L 366.461411 78.111451 
L 366.055186 78.084793 
L 365.648962 78.058122 
L 365.242738 78.031439 
L 364.836513 78.004743 
L 364.430289 77.978034 
L 364.024064 77.951312 
L 363.61784 77.924577 
L 363.211615 77.89783 
L 362.805391 77.871069 
L 362.399167 77.844295 
L 361.992942 77.817509 
L 361.586718 77.790709 
L 361.180493 77.763896 
L 360.774269 77.737069 
L 360.368045 77.71023 
L 359.96182 77.683377 
L 359.555596 77.656511 
L 359.149371 77.629631 
L 358.743147 77.602738 
L 358.336923 77.575831 
L 357.930698 77.548911 
L 357.524474 77.521978 
L 357.118249 77.49503 
L 356.712025 77.468069 
L 356.305801 77.441095 
L 355.899576 77.414106 
L 355.493352 77.387104 
L 355.087127 77.360088 
L 354.680903 77.333058 
L 354.274679 77.306014 
L 353.868454 77.278955 
L 353.46223 77.251883 
L 353.056005 77.224797 
L 352.649781 77.197697 
L 352.243557 77.170582 
L 351.837332 77.143453 
L 351.431108 77.11631 
L 351.024883 77.089152 
L 350.618659 77.06198 
L 350.212434 77.034794 
L 349.80621 77.007593 
L 349.399986 76.980377 
L 348.993761 76.953147 
L 348.587537 76.925902 
L 348.181312 76.898642 
L 347.775088 76.871368 
L 347.368864 76.844079 
L 346.962639 76.816775 
L 346.556415 76.789456 
L 346.15019 76.762122 
L 345.743966 76.734773 
L 345.337742 76.707409 
L 344.931517 76.680029 
L 344.525293 76.652635 
L 344.119068 76.625225 
L 343.712844 76.5978 
L 343.30662 76.57036 
L 342.900395 76.542904 
L 342.494171 76.515433 
L 342.087946 76.487946 
L 341.681722 76.460443 
L 341.275498 76.432925 
L 340.869273 76.405392 
L 340.463049 76.377842 
L 340.056824 76.350277 
L 339.6506 76.322695 
L 339.244376 76.295098 
L 338.838151 76.267485 
L 338.431927 76.239856 
L 338.025702 76.212211 
L 337.619478 76.18455 
L 337.213253 76.156872 
L 336.807029 76.129178 
L 336.400805 76.101468 
L 335.99458 76.073741 
L 335.588356 76.045998 
L 335.182131 76.018239 
L 334.775907 75.990462 
L 334.369683 75.96267 
L 333.963458 75.93486 
L 333.557234 75.907034 
L 333.151009 75.879191 
L 332.744785 75.851331 
L 332.338561 75.823454 
L 331.932336 75.79556 
L 331.526112 75.767649 
L 331.119887 75.739721 
L 330.713663 75.711776 
L 330.307439 75.683814 
L 329.901214 75.655834 
L 329.49499 75.627837 
L 329.088765 75.599822 
L 328.682541 75.57179 
L 328.276317 75.54374 
L 327.870092 75.515673 
L 327.463868 75.487588 
L 327.057643 75.459485 
L 326.651419 75.431365 
L 326.245195 75.403226 
L 325.83897 75.37507 
L 325.432746 75.346895 
L 325.026521 75.318702 
L 324.620297 75.290492 
L 324.214072 75.262263 
L 323.807848 75.234015 
L 323.401624 75.20575 
L 322.995399 75.177466 
L 322.589175 75.149163 
L 322.18295 75.120842 
L 321.776726 75.092502 
L 321.370502 75.064143 
L 320.964277 75.035766 
L 320.558053 75.00737 
L 320.151828 74.978955 
L 319.745604 74.950521 
L 319.33938 74.922067 
L 318.933155 74.893595 
L 318.526931 74.865104 
L 318.120706 74.836593 
L 317.714482 74.808063 
L 317.308258 74.779513 
L 316.902033 74.750944 
L 316.495809 74.722355 
L 316.089584 74.693747 
L 315.68336 74.665119 
L 315.277136 74.636471 
L 314.870911 74.607803 
L 314.464687 74.579116 
L 314.058462 74.550408 
L 313.652238 74.52168 
L 313.246014 74.492932 
L 312.839789 74.464164 
L 312.433565 74.435375 
L 312.02734 74.406566 
L 311.621116 74.377737 
L 311.214891 74.348887 
L 310.808667 74.320016 
L 310.402443 74.291125 
L 309.996218 74.262213 
L 309.589994 74.23328 
L 309.183769 74.204326 
L 308.777545 74.175351 
L 308.371321 74.146354 
L 307.965096 74.117337 
L 307.558872 74.088298 
L 307.152647 74.059238 
L 306.746423 74.030157 
L 306.340199 74.001054 
L 305.933974 73.971929 
L 305.52775 73.942783 
L 305.121525 73.913614 
L 304.715301 73.884424 
L 304.309077 73.855212 
L 303.902852 73.825978 
L 303.496628 73.796722 
L 303.090403 73.767444 
L 302.684179 73.738143 
L 302.277955 73.70882 
L 301.87173 73.679475 
L 301.465506 73.650107 
L 301.059281 73.620716 
L 300.653057 73.591303 
L 300.246833 73.561867 
L 299.840608 73.532407 
L 299.434384 73.502925 
L 299.028159 73.47342 
L 298.621935 73.443892 
L 298.21571 73.41434 
L 297.809486 73.384765 
L 297.403262 73.355166 
L 296.997037 73.325544 
L 296.590813 73.295899 
L 296.184588 73.266229 
L 295.778364 73.236536 
L 295.37214 73.206819 
L 294.965915 73.177078 
L 294.559691 73.147312 
L 294.153466 73.117523 
L 293.747242 73.087709 
L 293.341018 73.057871 
L 292.934793 73.028008 
L 292.528569 72.998121 
L 292.122344 72.968209 
L 291.71612 72.938272 
L 291.309896 72.908311 
L 290.903671 72.878324 
L 290.497447 72.848312 
L 290.091222 72.818276 
L 289.684998 72.788214 
L 289.278774 72.758126 
L 288.872549 72.728013 
L 288.466325 72.697874 
L 288.0601 72.66771 
L 287.653876 72.63752 
L 287.247652 72.607304 
L 286.841427 72.577062 
L 286.435203 72.546794 
L 286.028978 72.5165 
L 285.622754 72.48618 
L 285.216529 72.455833 
L 284.810305 72.425459 
L 284.404081 72.395059 
L 283.997856 72.364632 
L 283.591632 72.334179 
L 283.185407 72.303698 
L 282.779183 72.27319 
L 282.372959 72.242655 
L 281.966734 72.212093 
L 281.56051 72.181504 
L 281.154285 72.150887 
L 280.748061 72.120242 
L 280.341837 72.08957 
L 279.935612 72.05887 
L 279.529388 72.028141 
L 279.123163 71.997385 
L 278.716939 71.966601 
L 278.310715 71.935788 
L 277.90449 71.904947 
L 277.498266 71.874078 
L 277.092041 71.84318 
L 276.685817 71.812253 
L 276.279593 71.781297 
L 275.873368 71.750312 
L 275.467144 71.719298 
L 275.060919 71.688255 
L 274.654695 71.657183 
L 274.248471 71.626081 
L 273.842246 71.594949 
L 273.436022 71.563788 
L 273.029797 71.532597 
L 272.623573 71.501376 
L 272.217348 71.470125 
L 271.811124 71.438844 
L 271.4049 71.407532 
L 270.998675 71.37619 
L 270.592451 71.344817 
L 270.186226 71.313414 
L 269.780002 71.28198 
L 269.373778 71.250515 
L 268.967553 71.219019 
L 268.561329 71.187492 
L 268.155104 71.155933 
L 267.74888 71.124343 
L 267.342656 71.092721 
L 266.936431 71.061068 
L 266.530207 71.029383 
L 266.123982 70.997665 
L 265.717758 70.965916 
L 265.311534 70.934134 
L 264.905309 70.90232 
L 264.499085 70.870474 
L 264.09286 70.838594 
L 263.686636 70.806683 
L 263.280412 70.774738 
L 262.874187 70.74276 
L 262.467963 70.710748 
L 262.061738 70.678704 
L 261.655514 70.646626 
L 261.24929 70.614514 
L 260.843065 70.582369 
L 260.436841 70.55019 
L 260.030616 70.517976 
L 259.624392 70.485729 
L 259.218167 70.453447 
L 258.811943 70.421131 
L 258.405719 70.38878 
L 257.999494 70.356394 
L 257.59327 70.323974 
L 257.187045 70.291518 
L 256.780821 70.259027 
L 256.374597 70.226501 
L 255.968372 70.193939 
L 255.562148 70.161342 
L 255.155923 70.128709 
L 254.749699 70.09604 
L 254.343475 70.063335 
L 253.93725 70.030593 
L 253.531026 69.997815 
L 253.124801 69.965001 
L 252.718577 69.93215 
L 252.312353 69.899262 
L 251.906128 69.866337 
L 251.499904 69.833375 
L 251.093679 69.800375 
L 250.687455 69.767338 
L 250.281231 69.734264 
L 249.875006 69.701151 
L 249.468782 69.668001 
L 249.062557 69.634812 
L 248.656333 69.601586 
L 248.250109 69.56832 
L 247.843884 69.535016 
L 247.43766 69.501674 
L 247.031435 69.468292 
L 246.625211 69.434871 
L 246.218986 69.401411 
L 245.812762 69.367912 
L 245.406538 69.334373 
L 245.000313 69.300794 
L 244.594089 69.267175 
L 244.187864 69.233516 
L 243.78164 69.199817 
L 243.375416 69.166077 
L 242.969191 69.132296 
L 242.562967 69.098475 
L 242.156742 69.064613 
L 241.750518 69.03071 
L 241.344294 68.996765 
L 240.938069 68.962779 
L 240.531845 68.928751 
L 240.12562 68.894681 
L 239.719396 68.860569 
L 239.313172 68.826415 
L 238.906947 68.792219 
L 238.500723 68.75798 
L 238.094498 68.723698 
L 237.688274 68.689373 
L 237.28205 68.655005 
L 236.875825 68.620594 
L 236.469601 68.586139 
L 236.063376 68.551641 
L 235.657152 68.517099 
L 235.250928 68.482512 
L 234.844703 68.447881 
L 234.438479 68.413206 
L 234.032254 68.378486 
L 233.62603 68.343722 
L 233.219805 68.308912 
L 232.813581 68.274057 
L 232.407357 68.239157 
L 232.001132 68.204211 
L 231.594908 68.169219 
L 231.188683 68.134181 
L 230.782459 68.099097 
L 230.376235 68.063967 
L 229.97001 68.02879 
L 229.563786 67.993566 
L 229.157561 67.958295 
L 228.751337 67.922977 
L 228.345113 67.887612 
L 227.938888 67.852199 
L 227.532664 67.816738 
L 227.126439 67.781229 
L 226.720215 67.745672 
L 226.313991 67.710066 
L 225.907766 67.674412 
L 225.501542 67.638709 
L 225.095317 67.602956 
L 224.689093 67.567155 
L 224.282869 67.531304 
L 223.876644 67.495403 
L 223.47042 67.459452 
L 223.064195 67.423451 
L 222.657971 67.3874 
L 222.251747 67.351298 
L 221.845522 67.315146 
L 221.439298 67.278942 
L 221.033073 67.242687 
L 220.626849 67.206381 
L 220.220624 67.170023 
L 219.8144 67.133613 
L 219.408176 67.097151 
L 219.001951 67.060636 
L 218.595727 67.024069 
L 218.189502 66.987449 
L 217.783278 66.950777 
L 217.377054 66.91405 
L 216.970829 66.877271 
L 216.564605 66.840437 
L 216.15838 66.80355 
L 215.752156 66.766608 
L 215.345932 66.729612 
L 214.939707 66.692561 
L 214.533483 66.655456 
L 214.127258 66.618295 
L 213.721034 66.581079 
L 213.31481 66.543807 
L 212.908585 66.506479 
L 212.502361 66.469096 
L 212.096136 66.431655 
L 211.689912 66.394159 
L 211.283688 66.356605 
L 210.877463 66.318995 
L 210.471239 66.281327 
L 210.065014 66.243601 
L 209.65879 66.205818 
L 209.252566 66.167976 
L 208.846341 66.130076 
L 208.440117 66.092118 
L 208.033892 66.054101 
L 207.627668 66.016025 
L 207.221443 65.977889 
L 206.815219 65.939694 
L 206.408995 65.901439 
L 206.00277 65.863123 
L 205.596546 65.824748 
L 205.190321 65.786312 
L 204.784097 65.747815 
L 204.377873 65.709256 
L 203.971648 65.670637 
L 203.565424 65.631955 
L 203.159199 65.593212 
L 202.752975 65.554407 
L 202.346751 65.515539 
L 201.940526 65.476608 
L 201.534302 65.437614 
L 201.128077 65.398557 
L 200.721853 65.359436 
L 200.315629 65.320252 
L 199.909404 65.281003 
L 199.50318 65.24169 
L 199.096955 65.202313 
L 198.690731 65.16287 
L 198.284507 65.123362 
L 197.878282 65.083789 
L 197.472058 65.04415 
L 197.065833 65.004445 
L 196.659609 64.964674 
L 196.253385 64.924836 
L 195.84716 64.884931 
L 195.440936 64.844958 
L 195.034711 64.804919 
L 194.628487 64.764811 
L 194.222262 64.724636 
L 193.816038 64.684392 
L 193.409814 64.64408 
L 193.003589 64.603698 
L 192.597365 64.563248 
L 192.19114 64.522728 
L 191.784916 64.482138 
L 191.378692 64.441478 
L 190.972467 64.400747 
L 190.566243 64.359946 
L 190.160018 64.319074 
L 189.753794 64.278131 
L 189.34757 64.237116 
L 188.941345 64.196029 
L 188.535121 64.15487 
L 188.128896 64.113638 
L 187.722672 64.072334 
L 187.316448 64.030956 
L 186.910223 63.989505 
L 186.503999 63.947981 
L 186.097774 63.906382 
L 185.69155 63.864709 
L 185.285326 63.822961 
L 184.879101 63.781138 
L 184.472877 63.73924 
L 184.066652 63.697266 
L 183.660428 63.655217 
L 183.254204 63.613091 
L 182.847979 63.570889 
L 182.441755 63.52861 
L 182.03553 63.486253 
L 181.629306 63.443819 
L 181.223081 63.401307 
L 180.816857 63.358717 
L 180.410633 63.316049 
L 180.004408 63.273302 
L 179.598184 63.230475 
L 179.191959 63.18757 
L 178.785735 63.144584 
L 178.379511 63.101518 
L 177.973286 63.058372 
L 177.567062 63.015145 
L 177.160837 62.971837 
L 176.754613 62.928448 
L 176.348389 62.884977 
L 175.942164 62.841423 
L 175.53594 62.797788 
L 175.129715 62.754069 
L 174.723491 62.710268 
L 174.317267 62.666383 
L 173.911042 62.622414 
L 173.504818 62.578361 
L 173.098593 62.534224 
L 172.692369 62.490001 
L 172.286145 62.445694 
L 171.87992 62.401301 
L 171.473696 62.356823 
L 171.067471 62.312258 
L 170.661247 62.267607 
L 170.255023 62.222869 
L 169.848798 62.178043 
L 169.442574 62.13313 
L 169.036349 62.08813 
L 168.630125 62.043041 
L 168.2239 61.997863 
L 167.817676 61.952596 
L 167.411452 61.90724 
L 167.005227 61.861795 
L 166.599003 61.816259 
L 166.192778 61.770634 
L 165.786554 61.724917 
L 165.38033 61.679109 
L 164.974105 61.63321 
L 164.567881 61.587219 
L 164.161656 61.541137 
L 163.755432 61.494961 
L 163.349208 61.448693 
L 162.942983 61.402331 
L 162.536759 61.355876 
L 162.130534 61.309327 
L 161.72431 61.262684 
L 161.318086 61.215946 
L 160.911861 61.169113 
L 160.505637 61.122185 
L 160.099412 61.075161 
L 159.693188 61.028041 
L 159.286964 60.980825 
L 158.880739 60.933511 
L 158.474515 60.886101 
L 158.06829 60.838593 
L 157.662066 60.790987 
L 157.255842 60.743283 
L 156.849617 60.69548 
L 156.443393 60.647578 
L 156.037168 60.599577 
L 155.630944 60.551476 
L 155.224719 60.503274 
L 154.818495 60.454973 
L 154.412271 60.40657 
L 154.006046 60.358067 
L 153.599822 60.309461 
L 153.193597 60.260754 
L 152.787373 60.211945 
L 152.381149 60.163033 
L 151.974924 60.114017 
L 151.5687 60.064899 
L 151.162475 60.015676 
L 150.756251 59.966349 
L 150.350027 59.916918 
L 149.943802 59.867382 
L 149.537578 59.81774 
L 149.131353 59.767993 
L 148.725129 59.71814 
L 148.318905 59.668181 
L 147.91268 59.618114 
L 147.506456 59.567941 
L 147.100231 59.51766 
L 146.694007 59.467271 
L 146.287783 59.416774 
L 145.881558 59.366168 
L 145.475334 59.315453 
L 145.069109 59.264629 
L 144.662885 59.213695 
L 144.256661 59.162651 
L 143.850436 59.111496 
L 143.444212 59.060231 
L 143.037987 59.008854 
L 142.631763 58.957366 
L 142.225538 58.905766 
L 141.819314 58.854053 
L 141.41309 58.802228 
L 141.006865 58.75029 
L 140.600641 58.698238 
L 140.194416 58.646072 
L 139.788192 58.593792 
L 139.381968 58.541398 
L 138.975743 58.488888 
L 138.569519 58.436264 
L 138.163294 58.383523 
L 137.75707 58.330667 
L 137.350846 58.277694 
L 136.944621 58.224605 
L 136.538397 58.171398 
L 136.132172 58.118074 
L 135.725948 58.064632 
L 135.319724 58.011072 
L 134.913499 57.957393 
L 134.507275 57.903596 
L 134.10105 57.849679 
L 133.694826 57.795642 
L 133.288602 57.741485 
L 132.882377 57.687208 
L 132.476153 57.63281 
L 132.069928 57.578291 
L 131.663704 57.523651 
L 131.25748 57.468889 
L 130.851255 57.414004 
L 130.445031 57.358998 
L 130.038806 57.303868 
L 129.632582 57.248615 
L 129.226357 57.193238 
L 128.820133 57.137738 
L 128.413909 57.082113 
L 128.007684 57.026364 
L 127.60146 56.970489 
L 127.195235 56.91449 
L 126.789011 56.858365 
L 126.382787 56.802113 
L 125.976562 56.745736 
L 125.570338 56.689231 
L 125.164113 56.6326 
L 124.757889 56.575841 
L 124.351665 56.518955 
L 123.94544 56.461941 
L 123.539216 56.404798 
L 123.132991 56.347526 
L 122.726767 56.290126 
L 122.320543 56.232596 
L 121.914318 56.174937 
L 121.508094 56.117147 
L 121.101869 56.059227 
L 120.695645 56.001177 
L 120.289421 55.942995 
L 119.883196 55.884682 
L 119.476972 55.826238 
L 119.070747 55.767662 
L 118.664523 55.708953 
L 118.258299 55.650112 
L 117.852074 55.591138 
L 117.44585 55.532031 
L 117.039625 55.47279 
L 116.633401 55.413415 
L 116.227176 55.353907 
L 115.820952 55.294264 
L 115.414728 55.234486 
L 115.008503 55.174573 
L 114.602279 55.114525 
L 114.196054 55.054342 
L 113.78983 54.994023 
L 113.383606 54.933567 
L 112.977381 54.872975 
L 112.571157 54.812246 
L 112.164932 54.75138 
L 111.758708 54.690377 
L 111.352484 54.629237 
L 110.946259 54.567958 
L 110.540035 54.506541 
L 110.13381 54.444986 
L 109.727586 54.383293 
L 109.321362 54.32146 
L 108.915137 54.259488 
L 108.508913 54.197377 
L 108.102688 54.135126 
L 107.696464 54.072735 
L 107.29024 54.010203 
L 106.884015 53.947532 
L 106.477791 53.884719 
L 106.071566 53.821766 
L 105.665342 53.758671 
L 105.259118 53.695435 
L 104.852893 53.632057 
L 104.446669 53.568537 
L 104.040444 53.504876 
L 103.63422 53.441071 
L 103.227995 53.377124 
L 102.821771 53.313034 
L 102.415547 53.248802 
L 102.009322 53.184425 
L 101.603098 53.119906 
L 101.196873 53.055242 
L 100.790649 52.990435 
L 100.384425 52.925484 
L 99.9782 52.860388 
L 99.571976 52.795148 
L 99.165751 52.729762 
L 98.759527 52.664232 
L 98.353303 52.598557 
L 97.947078 52.532737 
L 97.540854 52.466771 
L 97.134629 52.400659 
L 96.728405 52.334402 
L 96.322181 52.267998 
L 95.915956 52.201449 
L 95.509732 52.134752 
L 95.103507 52.06791 
L 94.697283 52.00092 
L 94.291059 51.933784 
L 93.884834 51.866501 
L 93.47861 51.799071 
L 93.072385 51.731493 
L 92.666161 51.663768 
L 92.259937 51.595895 
L 91.853712 51.527874 
L 91.447488 51.459706 
L 91.041263 51.391389 
L 90.635039 51.322924 
L 90.228814 51.254311 
L 89.82259 51.18555 
L 89.416366 51.11664 
L 89.010141 51.047582 
L 88.603917 50.978374 
L 88.197692 50.909018 
L 87.791468 50.839513 
L 87.385244 50.769859 
L 86.979019 50.700056 
L 86.572795 50.630103 
L 86.16657 50.560001 
L 85.760346 50.48975 
L 85.354122 50.419349 
L 84.947897 50.348799 
L 84.541673 50.278099 
L 84.135448 50.207249 
L 83.729224 50.136249 
L 83.323 50.065099 
L 82.916775 49.9938 
L 82.510551 49.92235 
L 82.104326 49.850751 
L 81.698102 49.779001 
L 81.291878 49.707101 
L 80.885653 49.635051 
L 80.479429 49.562851 
L 80.073204 49.490501 
L 79.66698 49.418 
L 79.260756 49.345349 
L 78.854531 49.272547 
L 78.448307 49.199596 
L 78.042082 49.126493 
L 77.635858 49.053241 
L 77.229633 48.979838 
L 76.823409 48.906284 
z
" style="fill:#1f77b4;fill-opacity:0.4;"/>
   </g>
   <g id="PathCollection_1">
    <defs>
     <path d="M 0 3 
C 0.795609 3 1.55874 2.683901 2.12132 2.12132 
C 2.683901 1.55874 3 0.795609 3 0 
C 3 -0.795609 2.683901 -1.55874 2.12132 -2.12132 
C 1.55874 -2.683901 0.795609 -3 0 -3 
C -0.795609 -3 -1.55874 -2.683901 -2.12132 -2.12132 
C -2.683901 -1.55874 -3 -0.795609 -3 0 
C -3 0.795609 -2.683901 1.55874 -2.12132 2.12132 
C -1.55874 2.683901 -0.795609 3 0 3 
z
" id="mae2a29bfb9" style="stroke:#000000;"/>
    </defs>
    <g clip-path="url(#pe4a9c3da39)">
     <use style="stroke:#000000;" x="86.979019" xlink:href="#mae2a29bfb9" y="71.588074"/>
     <use style="stroke:#000000;" x="265.311534" xlink:href="#mae2a29bfb9" y="101.747418"/>
     <use style="stroke:#000000;" x="227.938888" xlink:href="#mae2a29bfb9" y="89.308846"/>
    </g>
   </g>
   <g id="PathCollection_2">
    <defs>
     <path d="M 0 3 
C 0.795609 3 1.55874 2.683901 2.12132 2.12132 
C 2.683901 1.55874 3 0.795609 3 0 
C 3 -0.795609 2.683901 -1.55874 2.12132 -2.12132 
C 1.55874 -2.683901 0.795609 -3 0 -3 
C -0.795609 -3 -1.55874 -2.683901 -2.12132 -2.12132 
C -2.683901 -1.55874 -3 -0.795609 -3 0 
C -3 0.795609 -2.683901 1.55874 -2.12132 2.12132 
C -1.55874 2.683901 -0.795609 3 0 3 
z
" id="mc3780551e9" style="stroke:#ff0000;"/>
    </defs>
    <g clip-path="url(#pe4a9c3da39)">
     <use style="fill:#ff0000;stroke:#ff0000;" x="76.823409" xlink:href="#mc3780551e9" y="69.78719"/>
     <use style="fill:#ff0000;stroke:#ff0000;" x="77.229633" xlink:href="#mc3780551e9" y="69.786511"/>
     <use style="fill:#ff0000;stroke:#ff0000;" x="77.635858" xlink:href="#mc3780551e9" y="69.784476"/>
    </g>
   </g>
   <g id="matplotlib.axis_1">
    <g id="xtick_1">
     <g id="line2d_1">
      <defs>
       <path d="M 0 0 
L 0 3.5 
" id="m49b007b0c1" style="stroke:#000000;stroke-width:0.8;"/>
      </defs>
      <g>
       <use style="stroke:#000000;stroke-width:0.8;" x="76.823409" xlink:href="#m49b007b0c1" y="204.872727"/>
      </g>
     </g>
     <g id="text_1">
      <!-- 0 -->
      <g transform="translate(73.005909 220.990852)scale(0.12 -0.12)">
       <defs>
        <path d="M 31.78125 66.40625 
Q 24.171875 66.40625 20.328125 58.90625 
Q 16.5 51.421875 16.5 36.375 
Q 16.5 21.390625 20.328125 13.890625 
Q 24.171875 6.390625 31.78125 6.390625 
Q 39.453125 6.390625 43.28125 13.890625 
Q 47.125 21.390625 47.125 36.375 
Q 47.125 51.421875 43.28125 58.90625 
Q 39.453125 66.40625 31.78125 66.40625 
z
M 31.78125 74.21875 
Q 44.046875 74.21875 50.515625 64.515625 
Q 56.984375 54.828125 56.984375 36.375 
Q 56.984375 17.96875 50.515625 8.265625 
Q 44.046875 -1.421875 31.78125 -1.421875 
Q 19.53125 -1.421875 13.0625 8.265625 
Q 6.59375 17.96875 6.59375 36.375 
Q 6.59375 54.828125 13.0625 64.515625 
Q 19.53125 74.21875 31.78125 74.21875 
z
" id="DejaVuSans-48"/>
       </defs>
       <use xlink:href="#DejaVuSans-48"/>
      </g>
     </g>
    </g>
    <g id="xtick_2">
     <g id="line2d_2">
      <g>
       <use style="stroke:#000000;stroke-width:0.8;" x="157.987045" xlink:href="#m49b007b0c1" y="204.872727"/>
      </g>
     </g>
     <g id="text_2">
      <!-- 2 -->
      <g transform="translate(154.169545 220.990852)scale(0.12 -0.12)">
       <defs>
        <path d="M 19.1875 8.296875 
L 53.609375 8.296875 
L 53.609375 0 
L 7.328125 0 
L 7.328125 8.296875 
Q 12.9375 14.109375 22.625 23.890625 
Q 32.328125 33.6875 34.8125 36.53125 
Q 39.546875 41.84375 41.421875 45.53125 
Q 43.3125 49.21875 43.3125 52.78125 
Q 43.3125 58.59375 39.234375 62.25 
Q 35.15625 65.921875 28.609375 65.921875 
Q 23.96875 65.921875 18.8125 64.3125 
Q 13.671875 62.703125 7.8125 59.421875 
L 7.8125 69.390625 
Q 13.765625 71.78125 18.9375 73 
Q 24.125 74.21875 28.421875 74.21875 
Q 39.75 74.21875 46.484375 68.546875 
Q 53.21875 62.890625 53.21875 53.421875 
Q 53.21875 48.921875 51.53125 44.890625 
Q 49.859375 40.875 45.40625 35.40625 
Q 44.1875 33.984375 37.640625 27.21875 
Q 31.109375 20.453125 19.1875 8.296875 
z
" id="DejaVuSans-50"/>
       </defs>
       <use xlink:href="#DejaVuSans-50"/>
      </g>
     </g>
    </g>
    <g id="xtick_3">
     <g id="line2d_3">
      <g>
       <use style="stroke:#000000;stroke-width:0.8;" x="239.150682" xlink:href="#m49b007b0c1" y="204.872727"/>
      </g>
     </g>
     <g id="text_3">
      <!-- 4 -->
      <g transform="translate(235.333182 220.990852)scale(0.12 -0.12)">
       <defs>
        <path d="M 37.796875 64.3125 
L 12.890625 25.390625 
L 37.796875 25.390625 
z
M 35.203125 72.90625 
L 47.609375 72.90625 
L 47.609375 25.390625 
L 58.015625 25.390625 
L 58.015625 17.1875 
L 47.609375 17.1875 
L 47.609375 0 
L 37.796875 0 
L 37.796875 17.1875 
L 4.890625 17.1875 
L 4.890625 26.703125 
z
" id="DejaVuSans-52"/>
       </defs>
       <use xlink:href="#DejaVuSans-52"/>
      </g>
     </g>
    </g>
    <g id="xtick_4">
     <g id="line2d_4">
      <g>
       <use style="stroke:#000000;stroke-width:0.8;" x="320.314318" xlink:href="#m49b007b0c1" y="204.872727"/>
      </g>
     </g>
     <g id="text_4">
      <!-- 6 -->
      <g transform="translate(316.496818 220.990852)scale(0.12 -0.12)">
       <defs>
        <path d="M 33.015625 40.375 
Q 26.375 40.375 22.484375 35.828125 
Q 18.609375 31.296875 18.609375 23.390625 
Q 18.609375 15.53125 22.484375 10.953125 
Q 26.375 6.390625 33.015625 6.390625 
Q 39.65625 6.390625 43.53125 10.953125 
Q 47.40625 15.53125 47.40625 23.390625 
Q 47.40625 31.296875 43.53125 35.828125 
Q 39.65625 40.375 33.015625 40.375 
z
M 52.59375 71.296875 
L 52.59375 62.3125 
Q 48.875 64.0625 45.09375 64.984375 
Q 41.3125 65.921875 37.59375 65.921875 
Q 27.828125 65.921875 22.671875 59.328125 
Q 17.53125 52.734375 16.796875 39.40625 
Q 19.671875 43.65625 24.015625 45.921875 
Q 28.375 48.1875 33.59375 48.1875 
Q 44.578125 48.1875 50.953125 41.515625 
Q 57.328125 34.859375 57.328125 23.390625 
Q 57.328125 12.15625 50.6875 5.359375 
Q 44.046875 -1.421875 33.015625 -1.421875 
Q 20.359375 -1.421875 13.671875 8.265625 
Q 6.984375 17.96875 6.984375 36.375 
Q 6.984375 53.65625 15.1875 63.9375 
Q 23.390625 74.21875 37.203125 74.21875 
Q 40.921875 74.21875 44.703125 73.484375 
Q 48.484375 72.75 52.59375 71.296875 
z
" id="DejaVuSans-54"/>
       </defs>
       <use xlink:href="#DejaVuSans-54"/>
      </g>
     </g>
    </g>
    <g id="xtick_5">
     <g id="line2d_5">
      <g>
       <use style="stroke:#000000;stroke-width:0.8;" x="401.477955" xlink:href="#m49b007b0c1" y="204.872727"/>
      </g>
     </g>
     <g id="text_5">
      <!-- 8 -->
      <g transform="translate(397.660455 220.990852)scale(0.12 -0.12)">
       <defs>
        <path d="M 31.78125 34.625 
Q 24.75 34.625 20.71875 30.859375 
Q 16.703125 27.09375 16.703125 20.515625 
Q 16.703125 13.921875 20.71875 10.15625 
Q 24.75 6.390625 31.78125 6.390625 
Q 38.8125 6.390625 42.859375 10.171875 
Q 46.921875 13.96875 46.921875 20.515625 
Q 46.921875 27.09375 42.890625 30.859375 
Q 38.875 34.625 31.78125 34.625 
z
M 21.921875 38.8125 
Q 15.578125 40.375 12.03125 44.71875 
Q 8.5 49.078125 8.5 55.328125 
Q 8.5 64.0625 14.71875 69.140625 
Q 20.953125 74.21875 31.78125 74.21875 
Q 42.671875 74.21875 48.875 69.140625 
Q 55.078125 64.0625 55.078125 55.328125 
Q 55.078125 49.078125 51.53125 44.71875 
Q 48 40.375 41.703125 38.8125 
Q 48.828125 37.15625 52.796875 32.3125 
Q 56.78125 27.484375 56.78125 20.515625 
Q 56.78125 9.90625 50.3125 4.234375 
Q 43.84375 -1.421875 31.78125 -1.421875 
Q 19.734375 -1.421875 13.25 4.234375 
Q 6.78125 9.90625 6.78125 20.515625 
Q 6.78125 27.484375 10.78125 32.3125 
Q 14.796875 37.15625 21.921875 38.8125 
z
M 18.3125 54.390625 
Q 18.3125 48.734375 21.84375 45.5625 
Q 25.390625 42.390625 31.78125 42.390625 
Q 38.140625 42.390625 41.71875 45.5625 
Q 45.3125 48.734375 45.3125 54.390625 
Q 45.3125 60.0625 41.71875 63.234375 
Q 38.140625 66.40625 31.78125 66.40625 
Q 25.390625 66.40625 21.84375 63.234375 
Q 18.3125 60.0625 18.3125 54.390625 
z
" id="DejaVuSans-56"/>
       </defs>
       <use xlink:href="#DejaVuSans-56"/>
      </g>
     </g>
    </g>
    <g id="xtick_6">
     <g id="line2d_6">
      <g>
       <use style="stroke:#000000;stroke-width:0.8;" x="482.641591" xlink:href="#m49b007b0c1" y="204.872727"/>
      </g>
     </g>
     <g id="text_6">
      <!-- 10 -->
      <g transform="translate(475.006591 220.990852)scale(0.12 -0.12)">
       <defs>
        <path d="M 12.40625 8.296875 
L 28.515625 8.296875 
L 28.515625 63.921875 
L 10.984375 60.40625 
L 10.984375 69.390625 
L 28.421875 72.90625 
L 38.28125 72.90625 
L 38.28125 8.296875 
L 54.390625 8.296875 
L 54.390625 0 
L 12.40625 0 
z
" id="DejaVuSans-49"/>
       </defs>
       <use xlink:href="#DejaVuSans-49"/>
       <use x="63.623047" xlink:href="#DejaVuSans-48"/>
      </g>
     </g>
    </g>
   </g>
   <g id="matplotlib.axis_2">
    <g id="ytick_1">
     <g id="line2d_7">
      <defs>
       <path d="M 0 0 
L -3.5 0 
" id="mdb9ee23255" style="stroke:#000000;stroke-width:0.8;"/>
      </defs>
      <g>
       <use style="stroke:#000000;stroke-width:0.8;" x="56.5325" xlink:href="#mdb9ee23255" y="191.660455"/>
      </g>
     </g>
     <g id="text_7">
      <!-- 60 -->
      <g transform="translate(24.206875 196.219518)scale(0.12 -0.12)">
       <defs>
        <path d="M 10.59375 35.5 
L 73.1875 35.5 
L 73.1875 27.203125 
L 10.59375 27.203125 
z
" id="DejaVuSans-8722"/>
       </defs>
       <use xlink:href="#DejaVuSans-8722"/>
       <use x="83.789062" xlink:href="#DejaVuSans-54"/>
       <use x="147.412109" xlink:href="#DejaVuSans-48"/>
      </g>
     </g>
    </g>
    <g id="ytick_2">
     <g id="line2d_8">
      <g>
       <use style="stroke:#000000;stroke-width:0.8;" x="56.5325" xlink:href="#mdb9ee23255" y="164.577507"/>
      </g>
     </g>
     <g id="text_8">
      <!-- 40 -->
      <g transform="translate(24.206875 169.13657)scale(0.12 -0.12)">
       <use xlink:href="#DejaVuSans-8722"/>
       <use x="83.789062" xlink:href="#DejaVuSans-52"/>
       <use x="147.412109" xlink:href="#DejaVuSans-48"/>
      </g>
     </g>
    </g>
    <g id="ytick_3">
     <g id="line2d_9">
      <g>
       <use style="stroke:#000000;stroke-width:0.8;" x="56.5325" xlink:href="#mdb9ee23255" y="137.494559"/>
      </g>
     </g>
     <g id="text_9">
      <!-- 20 -->
      <g transform="translate(24.206875 142.053622)scale(0.12 -0.12)">
       <use xlink:href="#DejaVuSans-8722"/>
       <use x="83.789062" xlink:href="#DejaVuSans-50"/>
       <use x="147.412109" xlink:href="#DejaVuSans-48"/>
      </g>
     </g>
    </g>
    <g id="ytick_4">
     <g id="line2d_10">
      <g>
       <use style="stroke:#000000;stroke-width:0.8;" x="56.5325" xlink:href="#mdb9ee23255" y="110.411612"/>
      </g>
     </g>
     <g id="text_10">
      <!-- 0 -->
      <g transform="translate(41.8975 114.970674)scale(0.12 -0.12)">
       <use xlink:href="#DejaVuSans-48"/>
      </g>
     </g>
    </g>
    <g id="ytick_5">
     <g id="line2d_11">
      <g>
       <use style="stroke:#000000;stroke-width:0.8;" x="56.5325" xlink:href="#mdb9ee23255" y="83.328664"/>
      </g>
     </g>
     <g id="text_11">
      <!-- 20 -->
      <g transform="translate(34.2625 87.887726)scale(0.12 -0.12)">
       <use xlink:href="#DejaVuSans-50"/>
       <use x="63.623047" xlink:href="#DejaVuSans-48"/>
      </g>
     </g>
    </g>
    <g id="ytick_6">
     <g id="line2d_12">
      <g>
       <use style="stroke:#000000;stroke-width:0.8;" x="56.5325" xlink:href="#mdb9ee23255" y="56.245716"/>
      </g>
     </g>
     <g id="text_12">
      <!-- 40 -->
      <g transform="translate(34.2625 60.804778)scale(0.12 -0.12)">
       <use xlink:href="#DejaVuSans-52"/>
       <use x="63.623047" xlink:href="#DejaVuSans-48"/>
      </g>
     </g>
    </g>
    <g id="ytick_7">
     <g id="line2d_13">
      <g>
       <use style="stroke:#000000;stroke-width:0.8;" x="56.5325" xlink:href="#mdb9ee23255" y="29.162768"/>
      </g>
     </g>
     <g id="text_13">
      <!-- 60 -->
      <g transform="translate(34.2625 33.72183)scale(0.12 -0.12)">
       <use xlink:href="#DejaVuSans-54"/>
       <use x="63.623047" xlink:href="#DejaVuSans-48"/>
      </g>
     </g>
    </g>
    <g id="text_14">
     <!-- f(x) -->
     <g transform="translate(17.71125 116.381676)rotate(-90)scale(0.12 -0.12)">
      <defs>
       <path d="M 37.109375 75.984375 
L 37.109375 68.5 
L 28.515625 68.5 
Q 23.6875 68.5 21.796875 66.546875 
Q 19.921875 64.59375 19.921875 59.515625 
L 19.921875 54.6875 
L 34.71875 54.6875 
L 34.71875 47.703125 
L 19.921875 47.703125 
L 19.921875 0 
L 10.890625 0 
L 10.890625 47.703125 
L 2.296875 47.703125 
L 2.296875 54.6875 
L 10.890625 54.6875 
L 10.890625 58.5 
Q 10.890625 67.625 15.140625 71.796875 
Q 19.390625 75.984375 28.609375 75.984375 
z
" id="DejaVuSans-102"/>
       <path d="M 31 75.875 
Q 24.46875 64.65625 21.28125 53.65625 
Q 18.109375 42.671875 18.109375 31.390625 
Q 18.109375 20.125 21.3125 9.0625 
Q 24.515625 -2 31 -13.1875 
L 23.1875 -13.1875 
Q 15.875 -1.703125 12.234375 9.375 
Q 8.59375 20.453125 8.59375 31.390625 
Q 8.59375 42.28125 12.203125 53.3125 
Q 15.828125 64.359375 23.1875 75.875 
z
" id="DejaVuSans-40"/>
       <path d="M 54.890625 54.6875 
L 35.109375 28.078125 
L 55.90625 0 
L 45.3125 0 
L 29.390625 21.484375 
L 13.484375 0 
L 2.875 0 
L 24.125 28.609375 
L 4.6875 54.6875 
L 15.28125 54.6875 
L 29.78125 35.203125 
L 44.28125 54.6875 
z
" id="DejaVuSans-120"/>
       <path d="M 8.015625 75.875 
L 15.828125 75.875 
Q 23.140625 64.359375 26.78125 53.3125 
Q 30.421875 42.28125 30.421875 31.390625 
Q 30.421875 20.453125 26.78125 9.375 
Q 23.140625 -1.703125 15.828125 -13.1875 
L 8.015625 -13.1875 
Q 14.5 -2 17.703125 9.0625 
Q 20.90625 20.125 20.90625 31.390625 
Q 20.90625 42.671875 17.703125 53.65625 
Q 14.5 64.65625 8.015625 75.875 
z
" id="DejaVuSans-41"/>
      </defs>
      <use xlink:href="#DejaVuSans-102"/>
      <use x="35.205078" xlink:href="#DejaVuSans-40"/>
      <use x="74.21875" xlink:href="#DejaVuSans-120"/>
      <use x="133.398438" xlink:href="#DejaVuSans-41"/>
     </g>
    </g>
   </g>
   <g id="line2d_14">
    <path clip-path="url(#pe4a9c3da39)" d="M 76.823409 69.78719 
L 82.104326 69.672858 
L 87.385244 69.333731 
L 92.666161 68.78131 
L 98.353303 67.969628 
L 104.852893 66.807943 
L 112.571157 65.186993 
L 138.569519 59.497872 
L 144.662885 58.526279 
L 149.943802 57.911724 
L 154.818495 57.568325 
L 159.286964 57.466539 
L 163.755432 57.586903 
L 168.2239 57.943639 
L 172.286145 58.4818 
L 176.348389 59.228562 
L 180.410633 60.18558 
L 184.879101 61.479263 
L 189.34757 63.018985 
L 193.816038 64.793514 
L 198.690731 66.978321 
L 203.971648 69.607735 
L 209.65879 72.697131 
L 216.564605 76.718351 
L 228.751337 84.144662 
L 237.28205 89.220746 
L 243.375416 92.590682 
L 248.250109 95.04755 
L 252.718577 97.061498 
L 256.780821 98.659204 
L 260.843065 100.005021 
L 264.499085 100.978792 
L 268.155104 101.709197 
L 271.4049 102.141319 
L 274.654695 102.35893 
L 277.90449 102.353743 
L 281.154285 102.118988 
L 284.404081 101.649501 
L 287.653876 100.941798 
L 290.903671 99.994139 
L 294.153466 98.806581 
L 297.403262 97.381016 
L 300.653057 95.721194 
L 303.902852 93.832734 
L 307.558872 91.444315 
L 311.214891 88.789499 
L 315.277136 85.54724 
L 319.33938 82.022818 
L 323.807848 77.856629 
L 329.088765 72.603703 
L 335.182131 66.205804 
L 344.525293 56.017086 
L 354.680903 45.018704 
L 360.368045 39.173817 
L 365.242738 34.475718 
L 369.304982 30.844754 
L 372.961001 27.839152 
L 376.617021 25.115786 
L 379.866816 22.956827 
L 383.116611 21.065322 
L 385.960182 19.644357 
L 388.803753 18.453926 
L 391.647324 17.504434 
L 394.490895 16.805152 
L 397.334466 16.364159 
L 399.771812 16.196944 
L 402.209158 16.22805 
L 404.646505 16.460268 
L 407.083851 16.895639 
L 409.521198 17.535429 
L 411.958544 18.38012 
L 414.802115 19.624096 
L 417.645686 21.144605 
L 420.489257 22.938249 
L 423.332828 25.00012 
L 426.176398 27.323803 
L 429.426194 30.289821 
L 432.675989 33.573281 
L 435.925784 37.157591 
L 439.581804 41.525852 
L 443.644048 46.760705 
L 448.112516 52.928326 
L 452.987209 60.066787 
L 458.674351 68.808119 
L 467.205063 82.397457 
L 478.173122 99.821106 
L 482.641591 106.621428 
L 482.641591 106.621428 
" style="fill:none;stroke:#000000;stroke-linecap:square;stroke-width:1.5;"/>
   </g>
   <g id="line2d_15">
    <path clip-path="url(#pe4a9c3da39)" d="M 76.823409 67.061178 
L 482.641591 140.616177 
L 482.641591 140.616177 
" style="fill:none;stroke:#1f77b4;stroke-linecap:square;stroke-width:1.5;"/>
   </g>
   <g id="patch_3">
    <path d="M 56.5325 204.872727 
L 56.5325 7.2 
" style="fill:none;stroke:#000000;stroke-linecap:square;stroke-linejoin:miter;stroke-width:0.8;"/>
   </g>
   <g id="patch_4">
    <path d="M 502.9325 204.872727 
L 502.9325 7.2 
" style="fill:none;stroke:#000000;stroke-linecap:square;stroke-linejoin:miter;stroke-width:0.8;"/>
   </g>
   <g id="patch_5">
    <path d="M 56.5325 204.872727 
L 502.9325 204.872727 
" style="fill:none;stroke:#000000;stroke-linecap:square;stroke-linejoin:miter;stroke-width:0.8;"/>
   </g>
   <g id="patch_6">
    <path d="M 56.5325 7.2 
L 502.9325 7.2 
" style="fill:none;stroke:#000000;stroke-linecap:square;stroke-linejoin:miter;stroke-width:0.8;"/>
   </g>
   <g id="legend_1">
    <g id="patch_7">
     <path d="M 64.9325 198.872727 
L 142.6475 198.872727 
Q 145.0475 198.872727 145.0475 196.472727 
L 145.0475 144.831477 
Q 145.0475 142.431477 142.6475 142.431477 
L 64.9325 142.431477 
Q 62.5325 142.431477 62.5325 144.831477 
L 62.5325 196.472727 
Q 62.5325 198.872727 64.9325 198.872727 
z
" style="fill:#ffffff;opacity:0.8;stroke:#cccccc;stroke-linejoin:miter;"/>
    </g>
    <g id="line2d_16">
     <path d="M 67.3325 152.149602 
L 91.3325 152.149602 
" style="fill:none;stroke:#1f77b4;stroke-linecap:square;stroke-width:1.5;"/>
    </g>
    <g id="line2d_17"/>
    <g id="text_15">
     <!-- model -->
     <g transform="translate(100.9325 156.349602)scale(0.12 -0.12)">
      <defs>
       <path d="M 52 44.1875 
Q 55.375 50.25 60.0625 53.125 
Q 64.75 56 71.09375 56 
Q 79.640625 56 84.28125 50.015625 
Q 88.921875 44.046875 88.921875 33.015625 
L 88.921875 0 
L 79.890625 0 
L 79.890625 32.71875 
Q 79.890625 40.578125 77.09375 44.375 
Q 74.3125 48.1875 68.609375 48.1875 
Q 61.625 48.1875 57.5625 43.546875 
Q 53.515625 38.921875 53.515625 30.90625 
L 53.515625 0 
L 44.484375 0 
L 44.484375 32.71875 
Q 44.484375 40.625 41.703125 44.40625 
Q 38.921875 48.1875 33.109375 48.1875 
Q 26.21875 48.1875 22.15625 43.53125 
Q 18.109375 38.875 18.109375 30.90625 
L 18.109375 0 
L 9.078125 0 
L 9.078125 54.6875 
L 18.109375 54.6875 
L 18.109375 46.1875 
Q 21.1875 51.21875 25.484375 53.609375 
Q 29.78125 56 35.6875 56 
Q 41.65625 56 45.828125 52.96875 
Q 50 49.953125 52 44.1875 
z
" id="DejaVuSans-109"/>
       <path d="M 30.609375 48.390625 
Q 23.390625 48.390625 19.1875 42.75 
Q 14.984375 37.109375 14.984375 27.296875 
Q 14.984375 17.484375 19.15625 11.84375 
Q 23.34375 6.203125 30.609375 6.203125 
Q 37.796875 6.203125 41.984375 11.859375 
Q 46.1875 17.53125 46.1875 27.296875 
Q 46.1875 37.015625 41.984375 42.703125 
Q 37.796875 48.390625 30.609375 48.390625 
z
M 30.609375 56 
Q 42.328125 56 49.015625 48.375 
Q 55.71875 40.765625 55.71875 27.296875 
Q 55.71875 13.875 49.015625 6.21875 
Q 42.328125 -1.421875 30.609375 -1.421875 
Q 18.84375 -1.421875 12.171875 6.21875 
Q 5.515625 13.875 5.515625 27.296875 
Q 5.515625 40.765625 12.171875 48.375 
Q 18.84375 56 30.609375 56 
z
" id="DejaVuSans-111"/>
       <path d="M 45.40625 46.390625 
L 45.40625 75.984375 
L 54.390625 75.984375 
L 54.390625 0 
L 45.40625 0 
L 45.40625 8.203125 
Q 42.578125 3.328125 38.25 0.953125 
Q 33.9375 -1.421875 27.875 -1.421875 
Q 17.96875 -1.421875 11.734375 6.484375 
Q 5.515625 14.40625 5.515625 27.296875 
Q 5.515625 40.1875 11.734375 48.09375 
Q 17.96875 56 27.875 56 
Q 33.9375 56 38.25 53.625 
Q 42.578125 51.265625 45.40625 46.390625 
z
M 14.796875 27.296875 
Q 14.796875 17.390625 18.875 11.75 
Q 22.953125 6.109375 30.078125 6.109375 
Q 37.203125 6.109375 41.296875 11.75 
Q 45.40625 17.390625 45.40625 27.296875 
Q 45.40625 37.203125 41.296875 42.84375 
Q 37.203125 48.484375 30.078125 48.484375 
Q 22.953125 48.484375 18.875 42.84375 
Q 14.796875 37.203125 14.796875 27.296875 
z
" id="DejaVuSans-100"/>
       <path d="M 56.203125 29.59375 
L 56.203125 25.203125 
L 14.890625 25.203125 
Q 15.484375 15.921875 20.484375 11.0625 
Q 25.484375 6.203125 34.421875 6.203125 
Q 39.59375 6.203125 44.453125 7.46875 
Q 49.3125 8.734375 54.109375 11.28125 
L 54.109375 2.78125 
Q 49.265625 0.734375 44.1875 -0.34375 
Q 39.109375 -1.421875 33.890625 -1.421875 
Q 20.796875 -1.421875 13.15625 6.1875 
Q 5.515625 13.8125 5.515625 26.8125 
Q 5.515625 40.234375 12.765625 48.109375 
Q 20.015625 56 32.328125 56 
Q 43.359375 56 49.78125 48.890625 
Q 56.203125 41.796875 56.203125 29.59375 
z
M 47.21875 32.234375 
Q 47.125 39.59375 43.09375 43.984375 
Q 39.0625 48.390625 32.421875 48.390625 
Q 24.90625 48.390625 20.390625 44.140625 
Q 15.875 39.890625 15.1875 32.171875 
z
" id="DejaVuSans-101"/>
       <path d="M 9.421875 75.984375 
L 18.40625 75.984375 
L 18.40625 0 
L 9.421875 0 
z
" id="DejaVuSans-108"/>
      </defs>
      <use xlink:href="#DejaVuSans-109"/>
      <use x="97.412109" xlink:href="#DejaVuSans-111"/>
      <use x="158.59375" xlink:href="#DejaVuSans-100"/>
      <use x="222.070312" xlink:href="#DejaVuSans-101"/>
      <use x="283.59375" xlink:href="#DejaVuSans-108"/>
     </g>
    </g>
    <g id="PathCollection_3">
     <g>
      <use style="stroke:#000000;" x="79.3325" xlink:href="#mae2a29bfb9" y="170.813352"/>
     </g>
    </g>
    <g id="text_16">
     <!-- known -->
     <g transform="translate(100.9325 173.963352)scale(0.12 -0.12)">
      <defs>
       <path d="M 9.078125 75.984375 
L 18.109375 75.984375 
L 18.109375 31.109375 
L 44.921875 54.6875 
L 56.390625 54.6875 
L 27.390625 29.109375 
L 57.625 0 
L 45.90625 0 
L 18.109375 26.703125 
L 18.109375 0 
L 9.078125 0 
z
" id="DejaVuSans-107"/>
       <path d="M 54.890625 33.015625 
L 54.890625 0 
L 45.90625 0 
L 45.90625 32.71875 
Q 45.90625 40.484375 42.875 44.328125 
Q 39.84375 48.1875 33.796875 48.1875 
Q 26.515625 48.1875 22.3125 43.546875 
Q 18.109375 38.921875 18.109375 30.90625 
L 18.109375 0 
L 9.078125 0 
L 9.078125 54.6875 
L 18.109375 54.6875 
L 18.109375 46.1875 
Q 21.34375 51.125 25.703125 53.5625 
Q 30.078125 56 35.796875 56 
Q 45.21875 56 50.046875 50.171875 
Q 54.890625 44.34375 54.890625 33.015625 
z
" id="DejaVuSans-110"/>
       <path d="M 4.203125 54.6875 
L 13.1875 54.6875 
L 24.421875 12.015625 
L 35.59375 54.6875 
L 46.1875 54.6875 
L 57.421875 12.015625 
L 68.609375 54.6875 
L 77.59375 54.6875 
L 63.28125 0 
L 52.6875 0 
L 40.921875 44.828125 
L 29.109375 0 
L 18.5 0 
z
" id="DejaVuSans-119"/>
      </defs>
      <use xlink:href="#DejaVuSans-107"/>
      <use x="57.910156" xlink:href="#DejaVuSans-110"/>
      <use x="121.289062" xlink:href="#DejaVuSans-111"/>
      <use x="182.470703" xlink:href="#DejaVuSans-119"/>
      <use x="264.257812" xlink:href="#DejaVuSans-110"/>
     </g>
    </g>
    <g id="PathCollection_4">
     <g>
      <use style="fill:#ff0000;stroke:#ff0000;" x="79.3325" xlink:href="#mc3780551e9" y="188.427102"/>
     </g>
    </g>
    <g id="text_17">
     <!-- next -->
     <g transform="translate(100.9325 191.577102)scale(0.12 -0.12)">
      <defs>
       <path d="M 18.3125 70.21875 
L 18.3125 54.6875 
L 36.8125 54.6875 
L 36.8125 47.703125 
L 18.3125 47.703125 
L 18.3125 18.015625 
Q 18.3125 11.328125 20.140625 9.421875 
Q 21.96875 7.515625 27.59375 7.515625 
L 36.8125 7.515625 
L 36.8125 0 
L 27.59375 0 
Q 17.1875 0 13.234375 3.875 
Q 9.28125 7.765625 9.28125 18.015625 
L 9.28125 47.703125 
L 2.6875 47.703125 
L 2.6875 54.6875 
L 9.28125 54.6875 
L 9.28125 70.21875 
z
" id="DejaVuSans-116"/>
      </defs>
      <use xlink:href="#DejaVuSans-110"/>
      <use x="63.378906" xlink:href="#DejaVuSans-101"/>
      <use x="123.152344" xlink:href="#DejaVuSans-120"/>
      <use x="182.332031" xlink:href="#DejaVuSans-116"/>
     </g>
    </g>
   </g>
  </g>
  <g id="axes_2">
   <g id="patch_8">
    <path d="M 56.5325 442.08 
L 502.9325 442.08 
L 502.9325 244.407273 
L 56.5325 244.407273 
z
" style="fill:#ffffff;"/>
   </g>
   <g id="matplotlib.axis_3">
    <g id="xtick_7">
     <g id="line2d_18">
      <g>
       <use style="stroke:#000000;stroke-width:0.8;" x="76.823409" xlink:href="#m49b007b0c1" y="442.08"/>
      </g>
     </g>
     <g id="text_18">
      <!-- 0.0 -->
      <g transform="translate(67.281534 458.198125)scale(0.12 -0.12)">
       <defs>
        <path d="M 10.6875 12.40625 
L 21 12.40625 
L 21 0 
L 10.6875 0 
z
" id="DejaVuSans-46"/>
       </defs>
       <use xlink:href="#DejaVuSans-48"/>
       <use x="63.623047" xlink:href="#DejaVuSans-46"/>
       <use x="95.410156" xlink:href="#DejaVuSans-48"/>
      </g>
     </g>
    </g>
    <g id="xtick_8">
     <g id="line2d_19">
      <g>
       <use style="stroke:#000000;stroke-width:0.8;" x="157.987045" xlink:href="#m49b007b0c1" y="442.08"/>
      </g>
     </g>
     <g id="text_19">
      <!-- 0.2 -->
      <g transform="translate(148.44517 458.198125)scale(0.12 -0.12)">
       <use xlink:href="#DejaVuSans-48"/>
       <use x="63.623047" xlink:href="#DejaVuSans-46"/>
       <use x="95.410156" xlink:href="#DejaVuSans-50"/>
      </g>
     </g>
    </g>
    <g id="xtick_9">
     <g id="line2d_20">
      <g>
       <use style="stroke:#000000;stroke-width:0.8;" x="239.150682" xlink:href="#m49b007b0c1" y="442.08"/>
      </g>
     </g>
     <g id="text_20">
      <!-- 0.4 -->
      <g transform="translate(229.608807 458.198125)scale(0.12 -0.12)">
       <use xlink:href="#DejaVuSans-48"/>
       <use x="63.623047" xlink:href="#DejaVuSans-46"/>
       <use x="95.410156" xlink:href="#DejaVuSans-52"/>
      </g>
     </g>
    </g>
    <g id="xtick_10">
     <g id="line2d_21">
      <g>
       <use style="stroke:#000000;stroke-width:0.8;" x="320.314318" xlink:href="#m49b007b0c1" y="442.08"/>
      </g>
     </g>
     <g id="text_21">
      <!-- 0.6 -->
      <g transform="translate(310.772443 458.198125)scale(0.12 -0.12)">
       <use xlink:href="#DejaVuSans-48"/>
       <use x="63.623047" xlink:href="#DejaVuSans-46"/>
       <use x="95.410156" xlink:href="#DejaVuSans-54"/>
      </g>
     </g>
    </g>
    <g id="xtick_11">
     <g id="line2d_22">
      <g>
       <use style="stroke:#000000;stroke-width:0.8;" x="401.477955" xlink:href="#m49b007b0c1" y="442.08"/>
      </g>
     </g>
     <g id="text_22">
      <!-- 0.8 -->
      <g transform="translate(391.93608 458.198125)scale(0.12 -0.12)">
       <use xlink:href="#DejaVuSans-48"/>
       <use x="63.623047" xlink:href="#DejaVuSans-46"/>
       <use x="95.410156" xlink:href="#DejaVuSans-56"/>
      </g>
     </g>
    </g>
    <g id="xtick_12">
     <g id="line2d_23">
      <g>
       <use style="stroke:#000000;stroke-width:0.8;" x="482.641591" xlink:href="#m49b007b0c1" y="442.08"/>
      </g>
     </g>
     <g id="text_23">
      <!-- 1.0 -->
      <g transform="translate(473.099716 458.198125)scale(0.12 -0.12)">
       <use xlink:href="#DejaVuSans-49"/>
       <use x="63.623047" xlink:href="#DejaVuSans-46"/>
       <use x="95.410156" xlink:href="#DejaVuSans-48"/>
      </g>
     </g>
    </g>
    <g id="text_24">
     <!-- x -->
     <g transform="translate(276.18125 473.811875)scale(0.12 -0.12)">
      <use xlink:href="#DejaVuSans-120"/>
     </g>
    </g>
   </g>
   <g id="matplotlib.axis_4">
    <g id="ytick_8">
     <g id="line2d_24">
      <g>
       <use style="stroke:#000000;stroke-width:0.8;" x="56.5325" xlink:href="#mdb9ee23255" y="433.094979"/>
      </g>
     </g>
     <g id="text_25">
      <!-- 0.00 -->
      <g transform="translate(22.81375 437.654041)scale(0.12 -0.12)">
       <use xlink:href="#DejaVuSans-48"/>
       <use x="63.623047" xlink:href="#DejaVuSans-46"/>
       <use x="95.410156" xlink:href="#DejaVuSans-48"/>
       <use x="159.033203" xlink:href="#DejaVuSans-48"/>
      </g>
     </g>
    </g>
    <g id="ytick_9">
     <g id="line2d_25">
      <g>
       <use style="stroke:#000000;stroke-width:0.8;" x="56.5325" xlink:href="#mdb9ee23255" y="397.03947"/>
      </g>
     </g>
     <g id="text_26">
      <!-- 0.05 -->
      <g transform="translate(22.81375 401.598533)scale(0.12 -0.12)">
       <defs>
        <path d="M 10.796875 72.90625 
L 49.515625 72.90625 
L 49.515625 64.59375 
L 19.828125 64.59375 
L 19.828125 46.734375 
Q 21.96875 47.46875 24.109375 47.828125 
Q 26.265625 48.1875 28.421875 48.1875 
Q 40.625 48.1875 47.75 41.5 
Q 54.890625 34.8125 54.890625 23.390625 
Q 54.890625 11.625 47.5625 5.09375 
Q 40.234375 -1.421875 26.90625 -1.421875 
Q 22.3125 -1.421875 17.546875 -0.640625 
Q 12.796875 0.140625 7.71875 1.703125 
L 7.71875 11.625 
Q 12.109375 9.234375 16.796875 8.0625 
Q 21.484375 6.890625 26.703125 6.890625 
Q 35.15625 6.890625 40.078125 11.328125 
Q 45.015625 15.765625 45.015625 23.390625 
Q 45.015625 31 40.078125 35.4375 
Q 35.15625 39.890625 26.703125 39.890625 
Q 22.75 39.890625 18.8125 39.015625 
Q 14.890625 38.140625 10.796875 36.28125 
z
" id="DejaVuSans-53"/>
       </defs>
       <use xlink:href="#DejaVuSans-48"/>
       <use x="63.623047" xlink:href="#DejaVuSans-46"/>
       <use x="95.410156" xlink:href="#DejaVuSans-48"/>
       <use x="159.033203" xlink:href="#DejaVuSans-53"/>
      </g>
     </g>
    </g>
    <g id="ytick_10">
     <g id="line2d_26">
      <g>
       <use style="stroke:#000000;stroke-width:0.8;" x="56.5325" xlink:href="#mdb9ee23255" y="360.983962"/>
      </g>
     </g>
     <g id="text_27">
      <!-- 0.10 -->
      <g transform="translate(22.81375 365.543025)scale(0.12 -0.12)">
       <use xlink:href="#DejaVuSans-48"/>
       <use x="63.623047" xlink:href="#DejaVuSans-46"/>
       <use x="95.410156" xlink:href="#DejaVuSans-49"/>
       <use x="159.033203" xlink:href="#DejaVuSans-48"/>
      </g>
     </g>
    </g>
    <g id="ytick_11">
     <g id="line2d_27">
      <g>
       <use style="stroke:#000000;stroke-width:0.8;" x="56.5325" xlink:href="#mdb9ee23255" y="324.928454"/>
      </g>
     </g>
     <g id="text_28">
      <!-- 0.15 -->
      <g transform="translate(22.81375 329.487517)scale(0.12 -0.12)">
       <use xlink:href="#DejaVuSans-48"/>
       <use x="63.623047" xlink:href="#DejaVuSans-46"/>
       <use x="95.410156" xlink:href="#DejaVuSans-49"/>
       <use x="159.033203" xlink:href="#DejaVuSans-53"/>
      </g>
     </g>
    </g>
    <g id="ytick_12">
     <g id="line2d_28">
      <g>
       <use style="stroke:#000000;stroke-width:0.8;" x="56.5325" xlink:href="#mdb9ee23255" y="288.872946"/>
      </g>
     </g>
     <g id="text_29">
      <!-- 0.20 -->
      <g transform="translate(22.81375 293.432009)scale(0.12 -0.12)">
       <use xlink:href="#DejaVuSans-48"/>
       <use x="63.623047" xlink:href="#DejaVuSans-46"/>
       <use x="95.410156" xlink:href="#DejaVuSans-50"/>
       <use x="159.033203" xlink:href="#DejaVuSans-48"/>
      </g>
     </g>
    </g>
    <g id="ytick_13">
     <g id="line2d_29">
      <g>
       <use style="stroke:#000000;stroke-width:0.8;" x="56.5325" xlink:href="#mdb9ee23255" y="252.817438"/>
      </g>
     </g>
     <g id="text_30">
      <!-- 0.25 -->
      <g transform="translate(22.81375 257.3765)scale(0.12 -0.12)">
       <use xlink:href="#DejaVuSans-48"/>
       <use x="63.623047" xlink:href="#DejaVuSans-46"/>
       <use x="95.410156" xlink:href="#DejaVuSans-50"/>
       <use x="159.033203" xlink:href="#DejaVuSans-53"/>
      </g>
     </g>
    </g>
    <g id="text_31">
     <!-- Acquisition Function -->
     <g transform="translate(16.318125 403.530511)rotate(-90)scale(0.12 -0.12)">
      <defs>
       <path d="M 34.1875 63.1875 
L 20.796875 26.90625 
L 47.609375 26.90625 
z
M 28.609375 72.90625 
L 39.796875 72.90625 
L 67.578125 0 
L 57.328125 0 
L 50.6875 18.703125 
L 17.828125 18.703125 
L 11.1875 0 
L 0.78125 0 
z
" id="DejaVuSans-65"/>
       <path d="M 48.78125 52.59375 
L 48.78125 44.1875 
Q 44.96875 46.296875 41.140625 47.34375 
Q 37.3125 48.390625 33.40625 48.390625 
Q 24.65625 48.390625 19.8125 42.84375 
Q 14.984375 37.3125 14.984375 27.296875 
Q 14.984375 17.28125 19.8125 11.734375 
Q 24.65625 6.203125 33.40625 6.203125 
Q 37.3125 6.203125 41.140625 7.25 
Q 44.96875 8.296875 48.78125 10.40625 
L 48.78125 2.09375 
Q 45.015625 0.34375 40.984375 -0.53125 
Q 36.96875 -1.421875 32.421875 -1.421875 
Q 20.0625 -1.421875 12.78125 6.34375 
Q 5.515625 14.109375 5.515625 27.296875 
Q 5.515625 40.671875 12.859375 48.328125 
Q 20.21875 56 33.015625 56 
Q 37.15625 56 41.109375 55.140625 
Q 45.0625 54.296875 48.78125 52.59375 
z
" id="DejaVuSans-99"/>
       <path d="M 14.796875 27.296875 
Q 14.796875 17.390625 18.875 11.75 
Q 22.953125 6.109375 30.078125 6.109375 
Q 37.203125 6.109375 41.296875 11.75 
Q 45.40625 17.390625 45.40625 27.296875 
Q 45.40625 37.203125 41.296875 42.84375 
Q 37.203125 48.484375 30.078125 48.484375 
Q 22.953125 48.484375 18.875 42.84375 
Q 14.796875 37.203125 14.796875 27.296875 
z
M 45.40625 8.203125 
Q 42.578125 3.328125 38.25 0.953125 
Q 33.9375 -1.421875 27.875 -1.421875 
Q 17.96875 -1.421875 11.734375 6.484375 
Q 5.515625 14.40625 5.515625 27.296875 
Q 5.515625 40.1875 11.734375 48.09375 
Q 17.96875 56 27.875 56 
Q 33.9375 56 38.25 53.625 
Q 42.578125 51.265625 45.40625 46.390625 
L 45.40625 54.6875 
L 54.390625 54.6875 
L 54.390625 -20.796875 
L 45.40625 -20.796875 
z
" id="DejaVuSans-113"/>
       <path d="M 8.5 21.578125 
L 8.5 54.6875 
L 17.484375 54.6875 
L 17.484375 21.921875 
Q 17.484375 14.15625 20.5 10.265625 
Q 23.53125 6.390625 29.59375 6.390625 
Q 36.859375 6.390625 41.078125 11.03125 
Q 45.3125 15.671875 45.3125 23.6875 
L 45.3125 54.6875 
L 54.296875 54.6875 
L 54.296875 0 
L 45.3125 0 
L 45.3125 8.40625 
Q 42.046875 3.421875 37.71875 1 
Q 33.40625 -1.421875 27.6875 -1.421875 
Q 18.265625 -1.421875 13.375 4.4375 
Q 8.5 10.296875 8.5 21.578125 
z
M 31.109375 56 
z
" id="DejaVuSans-117"/>
       <path d="M 9.421875 54.6875 
L 18.40625 54.6875 
L 18.40625 0 
L 9.421875 0 
z
M 9.421875 75.984375 
L 18.40625 75.984375 
L 18.40625 64.59375 
L 9.421875 64.59375 
z
" id="DejaVuSans-105"/>
       <path d="M 44.28125 53.078125 
L 44.28125 44.578125 
Q 40.484375 46.53125 36.375 47.5 
Q 32.28125 48.484375 27.875 48.484375 
Q 21.1875 48.484375 17.84375 46.4375 
Q 14.5 44.390625 14.5 40.28125 
Q 14.5 37.15625 16.890625 35.375 
Q 19.28125 33.59375 26.515625 31.984375 
L 29.59375 31.296875 
Q 39.15625 29.25 43.1875 25.515625 
Q 47.21875 21.78125 47.21875 15.09375 
Q 47.21875 7.46875 41.1875 3.015625 
Q 35.15625 -1.421875 24.609375 -1.421875 
Q 20.21875 -1.421875 15.453125 -0.5625 
Q 10.6875 0.296875 5.421875 2 
L 5.421875 11.28125 
Q 10.40625 8.6875 15.234375 7.390625 
Q 20.0625 6.109375 24.8125 6.109375 
Q 31.15625 6.109375 34.5625 8.28125 
Q 37.984375 10.453125 37.984375 14.40625 
Q 37.984375 18.0625 35.515625 20.015625 
Q 33.0625 21.96875 24.703125 23.78125 
L 21.578125 24.515625 
Q 13.234375 26.265625 9.515625 29.90625 
Q 5.8125 33.546875 5.8125 39.890625 
Q 5.8125 47.609375 11.28125 51.796875 
Q 16.75 56 26.8125 56 
Q 31.78125 56 36.171875 55.265625 
Q 40.578125 54.546875 44.28125 53.078125 
z
" id="DejaVuSans-115"/>
       <path id="DejaVuSans-32"/>
       <path d="M 9.8125 72.90625 
L 51.703125 72.90625 
L 51.703125 64.59375 
L 19.671875 64.59375 
L 19.671875 43.109375 
L 48.578125 43.109375 
L 48.578125 34.8125 
L 19.671875 34.8125 
L 19.671875 0 
L 9.8125 0 
z
" id="DejaVuSans-70"/>
      </defs>
      <use xlink:href="#DejaVuSans-65"/>
      <use x="66.658203" xlink:href="#DejaVuSans-99"/>
      <use x="121.638672" xlink:href="#DejaVuSans-113"/>
      <use x="185.115234" xlink:href="#DejaVuSans-117"/>
      <use x="248.494141" xlink:href="#DejaVuSans-105"/>
      <use x="276.277344" xlink:href="#DejaVuSans-115"/>
      <use x="328.376953" xlink:href="#DejaVuSans-105"/>
      <use x="356.160156" xlink:href="#DejaVuSans-116"/>
      <use x="395.369141" xlink:href="#DejaVuSans-105"/>
      <use x="423.152344" xlink:href="#DejaVuSans-111"/>
      <use x="484.333984" xlink:href="#DejaVuSans-110"/>
      <use x="547.712891" xlink:href="#DejaVuSans-32"/>
      <use x="579.5" xlink:href="#DejaVuSans-70"/>
      <use x="631.519531" xlink:href="#DejaVuSans-117"/>
      <use x="694.898438" xlink:href="#DejaVuSans-110"/>
      <use x="758.277344" xlink:href="#DejaVuSans-99"/>
      <use x="813.257812" xlink:href="#DejaVuSans-116"/>
      <use x="852.466797" xlink:href="#DejaVuSans-105"/>
      <use x="880.25" xlink:href="#DejaVuSans-111"/>
      <use x="941.431641" xlink:href="#DejaVuSans-110"/>
     </g>
    </g>
   </g>
   <g id="line2d_30">
    <path clip-path="url(#p767f91b906)" d="M 76.823409 253.392397 
L 80.479429 268.320538 
L 84.135448 282.347114 
L 87.791468 295.471946 
L 91.447488 307.702466 
L 94.697283 317.835045 
L 97.947078 327.28753 
L 101.196873 336.078775 
L 104.446669 344.23107 
L 107.696464 351.769683 
L 110.946259 358.722265 
L 114.196054 365.118322 
L 117.44585 370.988685 
L 120.695645 376.364949 
L 123.94544 381.279005 
L 127.195235 385.762619 
L 130.445031 389.847015 
L 133.694826 393.56259 
L 136.944621 396.938606 
L 140.194416 400.003033 
L 143.444212 402.782375 
L 147.100231 405.599341 
L 150.756251 408.120048 
L 154.412271 410.374925 
L 158.474515 412.60232 
L 162.536759 414.570361 
L 167.005227 416.472436 
L 171.473696 418.134419 
L 176.348389 419.711002 
L 181.629306 421.180667 
L 187.316448 422.529343 
L 193.409814 423.74979 
L 200.315629 424.902505 
L 208.033892 425.957525 
L 216.564605 426.897867 
L 226.313991 427.749151 
L 237.688274 428.516848 
L 251.093679 429.196212 
L 267.342656 429.792946 
L 287.653876 430.308738 
L 314.058462 430.743582 
L 349.399986 431.088666 
L 399.365588 431.339056 
L 475.735776 431.479706 
L 482.641591 431.484602 
L 482.641591 431.484602 
" style="fill:none;stroke:#1f77b4;stroke-linecap:square;stroke-width:1.5;"/>
   </g>
   <g id="line2d_31">
    <path clip-path="url(#p767f91b906)" d="M 76.823409 270.573524 
L 80.479429 286.665155 
L 84.135448 301.690879 
L 87.385244 314.146006 
L 90.635039 325.755111 
L 93.884834 336.527235 
L 97.134629 346.477975 
L 99.9782 354.528024 
L 102.821771 361.983792 
L 105.665342 368.866183 
L 108.508913 375.198535 
L 111.352484 381.006226 
L 114.196054 386.316177 
L 117.039625 391.156457 
L 119.883196 395.555808 
L 122.726767 399.543282 
L 125.570338 403.147835 
L 128.413909 406.398018 
L 131.25748 409.321686 
L 134.10105 411.945757 
L 136.944621 414.295999 
L 140.194416 416.678051 
L 143.444212 418.768725 
L 146.694007 420.599828 
L 150.350027 422.385877 
L 154.006046 423.918151 
L 158.06829 425.364016 
L 162.130534 426.579102 
L 166.599003 427.691385 
L 171.473696 428.682564 
L 177.160837 429.602272 
L 183.660428 430.409384 
L 190.972467 431.083432 
L 199.50318 431.64442 
L 210.065014 432.110658 
L 223.876644 432.483516 
L 242.969191 432.758584 
L 273.029797 432.943899 
L 332.744785 433.047274 
L 482.641591 433.082798 
L 482.641591 433.082798 
" style="fill:none;stroke:#ff7f0e;stroke-linecap:square;stroke-width:1.5;"/>
   </g>
   <g id="line2d_32">
    <path clip-path="url(#p767f91b906)" d="M 76.823409 282.988093 
L 80.479429 299.807874 
L 83.729224 313.733053 
L 86.979019 326.680918 
L 90.228814 338.650292 
L 93.072385 348.327501 
L 95.915956 357.274105 
L 98.759527 365.507374 
L 101.603098 373.049464 
L 104.446669 379.926841 
L 107.29024 386.169673 
L 110.13381 391.811105 
L 112.571157 396.194768 
L 115.008503 400.185876 
L 117.44585 403.80822 
L 119.883196 407.085835 
L 122.320543 410.042702 
L 125.164113 413.118533 
L 128.007684 415.826625 
L 130.851255 418.202242 
L 133.694826 420.278935 
L 136.538397 422.088284 
L 139.381968 423.659755 
L 142.631763 425.199272 
L 145.881558 426.50061 
L 149.537578 427.721094 
L 153.599822 428.823275 
L 158.06829 429.783208 
L 162.942983 430.590466 
L 168.630125 431.289371 
L 175.129715 431.852904 
L 183.254204 432.315154 
L 193.409814 432.655856 
L 207.627668 432.89396 
L 231.188683 433.035234 
L 288.0601 433.089609 
L 482.641591 433.094876 
L 482.641591 433.094876 
" style="fill:none;stroke:#2ca02c;stroke-linecap:square;stroke-width:1.5;"/>
   </g>
   <g id="patch_9">
    <path d="M 56.5325 442.08 
L 56.5325 244.407273 
" style="fill:none;stroke:#000000;stroke-linecap:square;stroke-linejoin:miter;stroke-width:0.8;"/>
   </g>
   <g id="patch_10">
    <path d="M 502.9325 442.08 
L 502.9325 244.407273 
" style="fill:none;stroke:#000000;stroke-linecap:square;stroke-linejoin:miter;stroke-width:0.8;"/>
   </g>
   <g id="patch_11">
    <path d="M 56.5325 442.08 
L 502.9325 442.08 
" style="fill:none;stroke:#000000;stroke-linecap:square;stroke-linejoin:miter;stroke-width:0.8;"/>
   </g>
   <g id="patch_12">
    <path d="M 56.5325 244.407273 
L 502.9325 244.407273 
" style="fill:none;stroke:#000000;stroke-linecap:square;stroke-linejoin:miter;stroke-width:0.8;"/>
   </g>
  </g>
 </g>
 <defs>
  <clipPath id="pe4a9c3da39">
   <rect height="197.672727" width="446.4" x="56.5325" y="7.2"/>
  </clipPath>
  <clipPath id="p767f91b906">
   <rect height="197.672727" width="446.4" x="56.5325" y="244.407273"/>
  </clipPath>
 </defs>
</svg>
