<?xml version="1.0" encoding="utf-8" standalone="no"?>
<!DOCTYPE svg PUBLIC "-//W3C//DTD SVG 1.1//EN"
  "http://www.w3.org/Graphics/SVG/1.1/DTD/svg11.dtd">
<!-- Created with matplotlib (https://matplotlib.org/) -->
<svg height="483.5075pt" version="1.1" viewBox="0 0 508.739375 483.5075" width="508.739375pt" xmlns="http://www.w3.org/2000/svg" xmlns:xlink="http://www.w3.org/1999/xlink">
 <metadata>
  <rdf:RDF xmlns:cc="http://creativecommons.org/ns#" xmlns:dc="http://purl.org/dc/elements/1.1/" xmlns:rdf="http://www.w3.org/1999/02/22-rdf-syntax-ns#">
   <cc:Work>
    <dc:type rdf:resource="http://purl.org/dc/dcmitype/StillImage"/>
    <dc:date>2020-10-04T13:58:40.656898</dc:date>
    <dc:format>image/svg+xml</dc:format>
    <dc:creator>
     <cc:Agent>
      <dc:title>Matplotlib v3.3.1, https://matplotlib.org/</dc:title>
     </cc:Agent>
    </dc:creator>
   </cc:Work>
  </rdf:RDF>
 </metadata>
 <defs>
  <style type="text/css">*{stroke-linecap:butt;stroke-linejoin:round;}</style>
 </defs>
 <g id="figure_1">
  <g id="patch_1">
   <path d="M 0 483.5075 
L 508.739375 483.5075 
L 508.739375 0 
L 0 0 
z
" style="fill:none;"/>
  </g>
  <g id="axes_1">
   <g id="patch_2">
    <path d="M 55.139375 204.872727 
L 501.539375 204.872727 
L 501.539375 7.2 
L 55.139375 7.2 
z
" style="fill:#ffffff;"/>
   </g>
   <g id="PolyCollection_1">
    <path clip-path="url(#pc6b6017b21)" d="M 75.430284 68.544321 
L 75.430284 115.57659 
L 75.836508 114.797593 
L 76.242733 114.02053 
L 76.648957 113.245243 
L 77.055182 112.474154 
L 77.461406 111.707174 
L 77.867631 110.945453 
L 78.273855 110.190282 
L 78.680079 109.443921 
L 79.086304 108.706891 
L 79.492528 107.981687 
L 79.898753 107.270575 
L 80.304977 106.574932 
L 80.711201 105.89947 
L 81.117426 105.246579 
L 81.52365 104.620826 
L 81.929875 104.025823 
L 82.336099 103.466581 
L 82.742323 102.949563 
L 83.148548 102.479994 
L 83.554772 102.06429 
L 83.960997 101.708506 
L 84.367221 101.421219 
L 84.773445 101.20725 
L 85.17967 101.070645 
L 85.585894 101.015052 
L 85.992119 101.041606 
L 86.398343 101.148231 
L 86.804567 101.333038 
L 87.210792 101.590424 
L 87.617016 101.914079 
L 88.023241 102.299788 
L 88.429465 102.739727 
L 88.835689 103.226996 
L 89.241914 103.755839 
L 89.648138 104.320321 
L 90.054363 104.915786 
L 90.460587 105.5379 
L 90.866812 106.182699 
L 91.273036 106.845749 
L 91.67926 107.525958 
L 92.085485 108.219695 
L 92.491709 108.925087 
L 92.897934 109.640184 
L 93.304158 110.363087 
L 93.710382 111.092905 
L 94.116607 111.827473 
L 94.522831 112.566435 
L 94.929056 113.307902 
L 95.33528 114.051942 
L 95.741504 114.797742 
L 96.147729 115.544124 
L 96.553953 116.29069 
L 96.960178 117.036647 
L 97.366402 117.781725 
L 97.772626 118.525424 
L 98.178851 119.267181 
L 98.585075 120.00638 
L 98.9913 120.743423 
L 99.397524 121.477449 
L 99.803748 122.208344 
L 100.209973 122.935761 
L 100.616197 123.659391 
L 101.022422 124.37911 
L 101.428646 125.09468 
L 101.83487 125.805839 
L 102.241095 126.512158 
L 102.647319 127.21394 
L 103.053544 127.91102 
L 103.459768 128.602976 
L 103.865993 129.289793 
L 104.272217 129.971221 
L 104.678441 130.64728 
L 105.084666 131.31771 
L 105.49089 131.98246 
L 105.897115 132.641515 
L 106.303339 133.294845 
L 106.709563 133.942246 
L 107.115788 134.583675 
L 107.522012 135.218974 
L 107.928237 135.848294 
L 108.334461 136.471349 
L 108.740685 137.088112 
L 109.14691 137.698613 
L 109.553134 138.302656 
L 109.959359 138.900418 
L 110.365583 139.491866 
L 110.771807 140.076764 
L 111.178032 140.655156 
L 111.584256 141.227048 
L 111.990481 141.792394 
L 112.396705 142.351214 
L 112.802929 142.903253 
L 113.209154 143.448778 
L 113.615378 143.987773 
L 114.021603 144.52008 
L 114.427827 145.045715 
L 114.834051 145.564769 
L 115.240276 146.077118 
L 115.6465 146.582849 
L 116.052725 147.081869 
L 116.458949 147.57424 
L 116.865174 148.059875 
L 117.271398 148.538917 
L 117.677622 149.011327 
L 118.083847 149.477113 
L 118.490071 149.936244 
L 118.896296 150.388771 
L 119.30252 150.834696 
L 119.708744 151.274002 
L 120.114969 151.706732 
L 120.521193 152.132847 
L 120.927418 152.552448 
L 121.333642 152.965545 
L 121.739866 153.372127 
L 122.146091 153.772205 
L 122.552315 154.165812 
L 122.95854 154.552991 
L 123.364764 154.933714 
L 123.770988 155.308038 
L 124.177213 155.675927 
L 124.583437 156.037518 
L 124.989662 156.392767 
L 125.395886 156.741708 
L 125.80211 157.084351 
L 126.208335 157.420769 
L 126.614559 157.750977 
L 127.020784 158.074951 
L 127.427008 158.392765 
L 127.833232 158.704358 
L 128.239457 159.009913 
L 128.645681 159.309372 
L 129.051906 159.602782 
L 129.45813 159.890148 
L 129.864355 160.171527 
L 130.270579 160.446917 
L 130.676803 160.716369 
L 131.083028 160.979906 
L 131.489252 161.237529 
L 131.895477 161.489346 
L 132.301701 161.735304 
L 132.707925 161.975489 
L 133.11415 162.209904 
L 133.520374 162.438584 
L 133.926599 162.661537 
L 134.332823 162.878822 
L 134.739047 163.090429 
L 135.145272 163.296442 
L 135.551496 163.496858 
L 135.957721 163.691716 
L 136.363945 163.881032 
L 136.770169 164.064828 
L 137.176394 164.243167 
L 137.582618 164.416045 
L 137.988843 164.583472 
L 138.395067 164.745487 
L 138.801291 164.902175 
L 139.207516 165.053484 
L 139.61374 165.199473 
L 140.019965 165.340177 
L 140.426189 165.47558 
L 140.832413 165.605754 
L 141.238638 165.730705 
L 141.644862 165.850454 
L 142.051087 165.964986 
L 142.457311 166.0744 
L 142.863536 166.178672 
L 143.26976 166.277833 
L 143.675984 166.371925 
L 144.082209 166.460915 
L 144.488433 166.544861 
L 144.894658 166.623784 
L 145.300882 166.697701 
L 145.707106 166.766605 
L 146.113331 166.830548 
L 146.519555 166.889552 
L 146.92578 166.943607 
L 147.332004 166.992735 
L 147.738228 167.036964 
L 148.144453 167.076315 
L 148.550677 167.110773 
L 148.956902 167.140378 
L 149.363126 167.165136 
L 149.76935 167.185059 
L 150.175575 167.200184 
L 150.581799 167.210487 
L 150.988024 167.215999 
L 151.394248 167.216743 
L 151.800472 167.212695 
L 152.206697 167.203899 
L 152.612921 167.19034 
L 153.019146 167.17205 
L 153.42537 167.149023 
L 153.831594 167.121279 
L 154.237819 167.08882 
L 154.644043 167.051643 
L 155.050268 167.009764 
L 155.456492 166.963198 
L 155.862717 166.911929 
L 156.268941 166.855973 
L 156.675165 166.795336 
L 157.08139 166.730031 
L 157.487614 166.660057 
L 157.893839 166.585408 
L 158.300063 166.506085 
L 158.706287 166.422102 
L 159.112512 166.33345 
L 159.518736 166.240145 
L 159.924961 166.142184 
L 160.331185 166.039545 
L 160.737409 165.932256 
L 161.143634 165.820295 
L 161.549858 165.703696 
L 161.956083 165.58241 
L 162.362307 165.456474 
L 162.768531 165.325882 
L 163.174756 165.190609 
L 163.58098 165.050667 
L 163.987205 164.906035 
L 164.393429 164.756741 
L 164.799653 164.602756 
L 165.205878 164.444093 
L 165.612102 164.280768 
L 166.018327 164.112735 
L 166.424551 163.939983 
L 166.830775 163.762536 
L 167.237 163.580392 
L 167.643224 163.393533 
L 168.049449 163.201941 
L 168.455673 163.005656 
L 168.861898 162.804622 
L 169.268122 162.598852 
L 169.674346 162.38837 
L 170.080571 162.173112 
L 170.486795 161.953105 
L 170.89302 161.728344 
L 171.299244 161.498819 
L 171.705468 161.264511 
L 172.111693 161.025421 
L 172.517917 160.781564 
L 172.924142 160.532927 
L 173.330366 160.279505 
L 173.73659 160.021267 
L 174.142815 159.758231 
L 174.549039 159.490378 
L 174.955264 159.217713 
L 175.361488 158.940219 
L 175.767712 158.657905 
L 176.173937 158.370782 
L 176.580161 158.078817 
L 176.986386 157.782009 
L 177.39261 157.480391 
L 177.798834 157.173907 
L 178.205059 156.862576 
L 178.611283 156.546411 
L 179.017508 156.225407 
L 179.423732 155.899563 
L 179.829956 155.56886 
L 180.236181 155.233318 
L 180.642405 154.892945 
L 181.04863 154.547726 
L 181.454854 154.197677 
L 181.861079 153.842791 
L 182.267303 153.483076 
L 182.673527 153.118536 
L 183.079752 152.749167 
L 183.485976 152.375019 
L 183.892201 151.99607 
L 184.298425 151.612329 
L 184.704649 151.2238 
L 185.110874 150.830525 
L 185.517098 150.43249 
L 185.923323 150.02973 
L 186.329547 149.62224 
L 186.735771 149.210048 
L 187.141996 148.793154 
L 187.54822 148.3716 
L 187.954445 147.945441 
L 188.360669 147.514642 
L 188.766893 147.079249 
L 189.173118 146.639285 
L 189.579342 146.194799 
L 189.985567 145.745821 
L 190.391791 145.292359 
L 190.798015 144.834452 
L 191.20424 144.372154 
L 191.610464 143.905506 
L 192.016689 143.434517 
L 192.422913 142.959249 
L 192.829137 142.479774 
L 193.235362 141.996094 
L 193.641586 141.508325 
L 194.047811 141.016431 
L 194.454035 140.520548 
L 194.86026 140.020648 
L 195.266484 139.516907 
L 195.672708 139.009328 
L 196.078933 138.497954 
L 196.485157 137.982892 
L 196.891382 137.464228 
L 197.297606 136.941998 
L 197.70383 136.41635 
L 198.110055 135.887297 
L 198.516279 135.354924 
L 198.922504 134.819382 
L 199.328728 134.28074 
L 199.734952 133.739115 
L 200.141177 133.194559 
L 200.547401 132.647232 
L 200.953626 132.097205 
L 201.35985 131.544692 
L 201.766074 130.989707 
L 202.172299 130.432412 
L 202.578523 129.87294 
L 202.984748 129.31146 
L 203.390972 128.748097 
L 203.797196 128.183015 
L 204.203421 127.616324 
L 204.609645 127.048185 
L 205.01587 126.478804 
L 205.422094 125.908383 
L 205.828318 125.337058 
L 206.234543 124.765028 
L 206.640767 124.192448 
L 207.046992 123.619637 
L 207.453216 123.046707 
L 207.859441 122.473884 
L 208.265665 121.901473 
L 208.671889 121.329662 
L 209.078114 120.758715 
L 209.484338 120.188942 
L 209.890563 119.620561 
L 210.296787 119.053842 
L 210.703011 118.489129 
L 211.109236 117.926788 
L 211.51546 117.367103 
L 211.921685 116.810402 
L 212.327909 116.257078 
L 212.734133 115.707509 
L 213.140358 115.162205 
L 213.546582 114.621446 
L 213.952807 114.085746 
L 214.359031 113.555637 
L 214.765255 113.031615 
L 215.17148 112.514293 
L 215.577704 112.004153 
L 215.983929 111.501851 
L 216.390153 111.00816 
L 216.796377 110.523772 
L 217.202602 110.049552 
L 217.608826 109.586161 
L 218.015051 109.134734 
L 218.421275 108.696193 
L 218.827499 108.271657 
L 219.233724 107.862443 
L 219.639948 107.469751 
L 220.046173 107.095087 
L 220.452397 106.739933 
L 220.858622 106.406166 
L 221.264846 106.095724 
L 221.67107 105.810474 
L 222.077295 105.552786 
L 222.483519 105.324869 
L 222.889744 105.129602 
L 223.295968 104.969245 
L 223.702192 104.846642 
L 224.108417 104.764616 
L 224.514641 104.725913 
L 224.920866 104.732892 
L 225.32709 104.78758 
L 225.733314 104.891745 
L 226.139539 105.04636 
L 226.545763 105.252167 
L 226.951988 105.508612 
L 227.358212 105.814481 
L 227.764436 106.168005 
L 228.170661 106.566757 
L 228.576885 107.007714 
L 228.98311 107.487442 
L 229.389334 108.002347 
L 229.795558 108.548797 
L 230.201783 109.12318 
L 230.608007 109.721646 
L 231.014232 110.341043 
L 231.420456 110.978252 
L 231.82668 111.63016 
L 232.232905 112.294172 
L 232.639129 112.96766 
L 233.045354 113.64847 
L 233.451578 114.334449 
L 233.857803 115.023817 
L 234.264027 115.71491 
L 234.670251 116.406096 
L 235.076476 117.096048 
L 235.4827 117.783394 
L 235.888925 118.467067 
L 236.295149 119.145891 
L 236.701373 119.819065 
L 237.107598 120.485448 
L 237.513822 121.144502 
L 237.920047 121.795269 
L 238.326271 122.437019 
L 238.732495 123.069233 
L 239.13872 123.691224 
L 239.544944 124.302459 
L 239.951169 124.902402 
L 240.357393 125.490549 
L 240.763617 126.06643 
L 241.169842 126.629735 
L 241.576066 127.179857 
L 241.982291 127.716637 
L 242.388515 128.239629 
L 242.794739 128.748477 
L 243.200964 129.243013 
L 243.607188 129.722831 
L 244.013413 130.187753 
L 244.419637 130.63755 
L 244.825861 131.071946 
L 245.232086 131.490792 
L 245.63831 131.893963 
L 246.044535 132.281286 
L 246.450759 132.652553 
L 246.856984 133.007705 
L 247.263208 133.346804 
L 247.669432 133.669538 
L 248.075657 133.976032 
L 248.481881 134.266161 
L 248.888106 134.540032 
L 249.29433 134.797669 
L 249.700554 135.039001 
L 250.106779 135.264293 
L 250.513003 135.473555 
L 250.919228 135.666952 
L 251.325452 135.844679 
L 251.731676 136.007059 
L 252.137901 136.154215 
L 252.544125 136.286499 
L 252.95035 136.404235 
L 253.356574 136.507972 
L 253.762798 136.598108 
L 254.169023 136.675156 
L 254.575247 136.739734 
L 254.981472 136.792672 
L 255.387696 136.834576 
L 255.79392 136.866521 
L 256.200145 136.889389 
L 256.606369 136.904444 
L 257.012594 136.912906 
L 257.418818 136.916223 
L 257.825042 136.916064 
L 258.231267 136.914293 
L 258.637491 136.912896 
L 259.043716 136.914113 
L 259.44994 136.92056 
L 259.856165 136.934883 
L 260.262389 136.960139 
L 260.668613 136.999625 
L 261.074838 137.056454 
L 261.481062 137.134535 
L 261.887287 137.23716 
L 262.293511 137.36774 
L 262.699735 137.529704 
L 263.10596 137.725907 
L 263.512184 137.958654 
L 263.918409 138.229676 
L 264.324633 138.540185 
L 264.730857 138.890248 
L 265.137082 139.279487 
L 265.543306 139.706737 
L 265.949531 140.170419 
L 266.355755 140.668151 
L 266.761979 141.197443 
L 267.168204 141.755878 
L 267.574428 142.340443 
L 267.980653 142.948495 
L 268.386877 143.577513 
L 268.793101 144.224912 
L 269.199326 144.888207 
L 269.60555 145.565341 
L 270.011775 146.254387 
L 270.417999 146.953306 
L 270.824223 147.660545 
L 271.230448 148.374546 
L 271.636672 149.093997 
L 272.042897 149.817492 
L 272.449121 150.544048 
L 272.855346 151.272582 
L 273.26157 152.002266 
L 273.667794 152.732061 
L 274.074019 153.461454 
L 274.480243 154.189504 
L 274.886468 154.915796 
L 275.292692 155.639624 
L 275.698916 156.360507 
L 276.105141 157.077994 
L 276.511365 157.791591 
L 276.91759 158.50098 
L 277.323814 159.205703 
L 277.730038 159.905486 
L 278.136263 160.600059 
L 278.542487 161.289041 
L 278.948712 161.972269 
L 279.354936 162.649435 
L 279.76116 163.320385 
L 280.167385 163.984883 
L 280.573609 164.642833 
L 280.979834 165.293909 
L 281.386058 165.938096 
L 281.792282 166.575228 
L 282.198507 167.205154 
L 282.604731 167.827764 
L 283.010956 168.442995 
L 283.41718 169.050768 
L 283.823404 169.650942 
L 284.229629 170.2435 
L 284.635853 170.828324 
L 285.042078 171.405409 
L 285.448302 171.974705 
L 285.854527 172.536124 
L 286.260751 173.089679 
L 286.666975 173.635339 
L 287.0732 174.173092 
L 287.479424 174.702892 
L 287.885649 175.224766 
L 288.291873 175.738684 
L 288.698097 176.244639 
L 289.104322 176.742672 
L 289.510546 177.232739 
L 289.916771 177.714939 
L 290.322995 178.189204 
L 290.729219 178.655602 
L 291.135444 179.114148 
L 291.541668 179.564871 
L 291.947893 180.007809 
L 292.354117 180.442984 
L 292.760341 180.870434 
L 293.166566 181.290216 
L 293.57279 181.702378 
L 293.979015 182.106937 
L 294.385239 182.50396 
L 294.791463 182.893492 
L 295.197688 183.275581 
L 295.603912 183.650289 
L 296.010137 184.017677 
L 296.416361 184.377789 
L 296.822585 184.73071 
L 297.22881 185.076465 
L 297.635034 185.415146 
L 298.041259 185.746803 
L 298.447483 186.071491 
L 298.853708 186.389314 
L 299.259932 186.700304 
L 299.666156 187.004533 
L 300.072381 187.302076 
L 300.478605 187.593007 
L 300.88483 187.877394 
L 301.291054 188.155309 
L 301.697278 188.426821 
L 302.103503 188.69201 
L 302.509727 188.950944 
L 302.915952 189.203701 
L 303.322176 189.450351 
L 303.7284 189.690973 
L 304.134625 189.92564 
L 304.540849 190.154422 
L 304.947074 190.377408 
L 305.353298 190.594669 
L 305.759522 190.80627 
L 306.165747 191.012292 
L 306.571971 191.212815 
L 306.978196 191.40792 
L 307.38442 191.597679 
L 307.790644 191.782166 
L 308.196869 191.96145 
L 308.603093 192.135622 
L 309.009318 192.304751 
L 309.415542 192.468909 
L 309.821766 192.628177 
L 310.227991 192.782623 
L 310.634215 192.932321 
L 311.04044 193.077356 
L 311.446664 193.217796 
L 311.852889 193.353709 
L 312.259113 193.485187 
L 312.665337 193.612279 
L 313.071562 193.735072 
L 313.477786 193.853633 
L 313.884011 193.968036 
L 314.290235 194.078354 
L 314.696459 194.184662 
L 315.102684 194.287003 
L 315.508908 194.385481 
L 315.915133 194.480158 
L 316.321357 194.571094 
L 316.727581 194.658359 
L 317.133806 194.742013 
L 317.54003 194.822142 
L 317.946255 194.898784 
L 318.352479 194.972042 
L 318.758703 195.041955 
L 319.164928 195.108583 
L 319.571152 195.172012 
L 319.977377 195.232292 
L 320.383601 195.289484 
L 320.789825 195.34365 
L 321.19605 195.394863 
L 321.602274 195.443174 
L 322.008499 195.488636 
L 322.414723 195.531324 
L 322.820947 195.571287 
L 323.227172 195.608581 
L 323.633396 195.643254 
L 324.039621 195.675405 
L 324.445845 195.705041 
L 324.85207 195.732247 
L 325.258294 195.75706 
L 325.664518 195.779536 
L 326.070743 195.799742 
L 326.476967 195.817722 
L 326.883192 195.833517 
L 327.289416 195.847197 
L 327.69564 195.858798 
L 328.101865 195.868388 
L 328.508089 195.87599 
L 328.914314 195.881668 
L 329.320538 195.885463 
L 329.726762 195.887425 
L 330.132987 195.887603 
L 330.539211 195.886047 
L 330.945436 195.882787 
L 331.35166 195.877872 
L 331.757884 195.871358 
L 332.164109 195.863276 
L 332.570333 195.853668 
L 332.976558 195.842578 
L 333.382782 195.830054 
L 333.789006 195.816122 
L 334.195231 195.800831 
L 334.601455 195.784211 
L 335.00768 195.766317 
L 335.413904 195.747169 
L 335.820128 195.726816 
L 336.226353 195.705275 
L 336.632577 195.682614 
L 337.038802 195.658853 
L 337.445026 195.634003 
L 337.851251 195.608132 
L 338.257475 195.581258 
L 338.663699 195.553418 
L 339.069924 195.524644 
L 339.476148 195.494953 
L 339.882373 195.464395 
L 340.288597 195.433 
L 340.694821 195.400781 
L 341.101046 195.367787 
L 341.50727 195.33403 
L 341.913495 195.299547 
L 342.319719 195.264376 
L 342.725943 195.228509 
L 343.132168 195.192003 
L 343.538392 195.154881 
L 343.944617 195.117157 
L 344.350841 195.078873 
L 344.757065 195.040042 
L 345.16329 195.000681 
L 345.569514 194.960823 
L 345.975739 194.920491 
L 346.381963 194.879703 
L 346.788187 194.838491 
L 347.194412 194.796867 
L 347.600636 194.75485 
L 348.006861 194.712457 
L 348.413085 194.669732 
L 348.819309 194.626663 
L 349.225534 194.583298 
L 349.631758 194.539638 
L 350.037983 194.495707 
L 350.444207 194.451518 
L 350.850432 194.40709 
L 351.256656 194.362445 
L 351.66288 194.317605 
L 352.069105 194.272567 
L 352.475329 194.227363 
L 352.881554 194.181993 
L 353.287778 194.1365 
L 353.694002 194.090878 
L 354.100227 194.045145 
L 354.506451 193.999308 
L 354.912676 193.953396 
L 355.3189 193.907405 
L 355.725124 193.861371 
L 356.131349 193.815281 
L 356.537573 193.769161 
L 356.943798 193.723028 
L 357.350022 193.676877 
L 357.756246 193.630738 
L 358.162471 193.584606 
L 358.568695 193.538498 
L 358.97492 193.492439 
L 359.381144 193.446411 
L 359.787368 193.400444 
L 360.193593 193.354539 
L 360.599817 193.308708 
L 361.006042 193.262957 
L 361.412266 193.217304 
L 361.81849 193.171762 
L 362.224715 193.126312 
L 362.630939 193.080985 
L 363.037164 193.035775 
L 363.443388 192.9907 
L 363.849613 192.945773 
L 364.255837 192.900988 
L 364.662061 192.856343 
L 365.068286 192.811859 
L 365.47451 192.767553 
L 365.880735 192.723414 
L 366.286959 192.679452 
L 366.693183 192.635669 
L 367.099408 192.592071 
L 367.505632 192.548676 
L 367.911857 192.505471 
L 368.318081 192.462481 
L 368.724305 192.419689 
L 369.13053 192.377111 
L 369.536754 192.334755 
L 369.942979 192.292621 
L 370.349203 192.250702 
L 370.755427 192.209022 
L 371.161652 192.167564 
L 371.567876 192.126346 
L 371.974101 192.085368 
L 372.380325 192.044636 
L 372.786549 192.004144 
L 373.192774 191.963898 
L 373.598998 191.923904 
L 374.005223 191.884168 
L 374.411447 191.844685 
L 374.817671 191.80546 
L 375.223896 191.766487 
L 375.63012 191.727797 
L 376.036345 191.689341 
L 376.442569 191.651168 
L 376.848794 191.613265 
L 377.255018 191.575627 
L 377.661242 191.53826 
L 378.067467 191.501157 
L 378.473691 191.464337 
L 378.879916 191.427787 
L 379.28614 191.391502 
L 379.692364 191.355513 
L 380.098589 191.319788 
L 380.504813 191.284346 
L 380.911038 191.249174 
L 381.317262 191.214279 
L 381.723486 191.179667 
L 382.129711 191.145339 
L 382.535935 191.111287 
L 382.94216 191.077511 
L 383.348384 191.044025 
L 383.754608 191.010804 
L 384.160833 190.977877 
L 384.567057 190.945221 
L 384.973282 190.912849 
L 385.379506 190.880752 
L 385.78573 190.848939 
L 386.191955 190.817397 
L 386.598179 190.786131 
L 387.004404 190.755161 
L 387.410628 190.724455 
L 387.816852 190.69402 
L 388.223077 190.663868 
L 388.629301 190.633992 
L 389.035526 190.604387 
L 389.44175 190.575059 
L 389.847975 190.546002 
L 390.254199 190.517215 
L 390.660423 190.488699 
L 391.066648 190.460466 
L 391.472872 190.432491 
L 391.879097 190.40478 
L 392.285321 190.377341 
L 392.691545 190.350165 
L 393.09777 190.323249 
L 393.503994 190.296602 
L 393.910219 190.270227 
L 394.316443 190.244097 
L 394.722667 190.218232 
L 395.128892 190.192626 
L 395.535116 190.167283 
L 395.941341 190.142187 
L 396.347565 190.117337 
L 396.753789 190.092745 
L 397.160014 190.068412 
L 397.566238 190.044324 
L 397.972463 190.020483 
L 398.378687 189.9969 
L 398.784911 189.973557 
L 399.191136 189.950448 
L 399.59736 189.927578 
L 400.003585 189.904967 
L 400.409809 189.882589 
L 400.816033 189.860433 
L 401.222258 189.838536 
L 401.628482 189.816854 
L 402.034707 189.795417 
L 402.440931 189.774196 
L 402.847156 189.753209 
L 403.25338 189.732462 
L 403.659604 189.711936 
L 404.065829 189.691631 
L 404.472053 189.671548 
L 404.878278 189.65168 
L 405.284502 189.632034 
L 405.690726 189.612615 
L 406.096951 189.593412 
L 406.503175 189.574411 
L 406.9094 189.555626 
L 407.315624 189.53705 
L 407.721848 189.518683 
L 408.128073 189.500525 
L 408.534297 189.482576 
L 408.940522 189.464824 
L 409.346746 189.447276 
L 409.75297 189.42993 
L 410.159195 189.412787 
L 410.565419 189.395828 
L 410.971644 189.379067 
L 411.377868 189.362502 
L 411.784092 189.346134 
L 412.190317 189.329945 
L 412.596541 189.313952 
L 413.002766 189.29815 
L 413.40899 189.282521 
L 413.815214 189.267088 
L 414.221439 189.251815 
L 414.627663 189.236738 
L 415.033888 189.221835 
L 415.440112 189.207109 
L 415.846337 189.192556 
L 416.252561 189.178181 
L 416.658785 189.163966 
L 417.06501 189.149935 
L 417.471234 189.136065 
L 417.877459 189.12236 
L 418.283683 189.108816 
L 418.689907 189.095443 
L 419.096132 189.082231 
L 419.502356 189.069172 
L 419.908581 189.056274 
L 420.314805 189.043535 
L 420.721029 189.03095 
L 421.127254 189.018513 
L 421.533478 189.006229 
L 421.939703 188.994099 
L 422.345927 188.982117 
L 422.752151 188.970282 
L 423.158376 188.958602 
L 423.5646 188.947056 
L 423.970825 188.93564 
L 424.377049 188.924383 
L 424.783273 188.913262 
L 425.189498 188.902289 
L 425.595722 188.891426 
L 426.001947 188.880724 
L 426.408171 188.87015 
L 426.814395 188.859699 
L 427.22062 188.849384 
L 427.626844 188.839198 
L 428.033069 188.829141 
L 428.439293 188.819207 
L 428.845518 188.809409 
L 429.251742 188.799727 
L 429.657966 188.790168 
L 430.064191 188.780733 
L 430.470415 188.771408 
L 430.87664 188.762212 
L 431.282864 188.753127 
L 431.689088 188.744159 
L 432.095313 188.735313 
L 432.501537 188.726573 
L 432.907762 188.717943 
L 433.313986 188.70943 
L 433.72021 188.701015 
L 434.126435 188.692724 
L 434.532659 188.684518 
L 434.938884 188.676448 
L 435.345108 188.668464 
L 435.751332 188.660579 
L 436.157557 188.652804 
L 436.563781 188.645133 
L 436.970006 188.637549 
L 437.37623 188.630076 
L 437.782454 188.622694 
L 438.188679 188.615418 
L 438.594903 188.608227 
L 439.001128 188.601129 
L 439.407352 188.594135 
L 439.813576 188.587209 
L 440.219801 188.580394 
L 440.626025 188.573671 
L 441.03225 188.567021 
L 441.438474 188.560471 
L 441.844699 188.554006 
L 442.250923 188.547621 
L 442.657147 188.541329 
L 443.063372 188.53511 
L 443.469596 188.528971 
L 443.875821 188.522931 
L 444.282045 188.516952 
L 444.688269 188.511072 
L 445.094494 188.505259 
L 445.500718 188.49952 
L 445.906943 188.493861 
L 446.313167 188.488282 
L 446.719391 188.482765 
L 447.125616 188.477327 
L 447.53184 188.471976 
L 447.938065 188.466686 
L 448.344289 188.461458 
L 448.750513 188.456309 
L 449.156738 188.451235 
L 449.562962 188.446215 
L 449.969187 188.441282 
L 450.375411 188.436398 
L 450.781635 188.431588 
L 451.18786 188.426846 
L 451.594084 188.422153 
L 452.000309 188.417546 
L 452.406533 188.412988 
L 452.812757 188.408491 
L 453.218982 188.404069 
L 453.625206 188.399689 
L 454.031431 188.395377 
L 454.437655 188.391127 
L 454.84388 188.38692 
L 455.250104 188.382786 
L 455.656328 188.378702 
L 456.062553 188.374667 
L 456.468777 188.370699 
L 456.875002 188.366781 
L 457.281226 188.362918 
L 457.68745 188.359105 
L 458.093675 188.35534 
L 458.499899 188.351637 
L 458.906124 188.34799 
L 459.312348 188.344379 
L 459.718572 188.340824 
L 460.124797 188.337318 
L 460.531021 188.333861 
L 460.937246 188.330441 
L 461.34347 188.327082 
L 461.749694 188.323767 
L 462.155919 188.320489 
L 462.562143 188.317265 
L 462.968368 188.314092 
L 463.374592 188.310942 
L 463.780816 188.307854 
L 464.187041 188.304803 
L 464.593265 188.301802 
L 464.99949 188.298837 
L 465.405714 188.295909 
L 465.811938 188.293024 
L 466.218163 188.290176 
L 466.624387 188.287371 
L 467.030612 188.284604 
L 467.436836 188.281885 
L 467.843061 188.279191 
L 468.249285 188.276533 
L 468.655509 188.273925 
L 469.061734 188.271354 
L 469.467958 188.268802 
L 469.874183 188.26631 
L 470.280407 188.263825 
L 470.686631 188.261396 
L 471.092856 188.258997 
L 471.49908 188.256629 
L 471.905305 188.254291 
L 472.311529 188.251991 
L 472.717753 188.249727 
L 473.123978 188.247488 
L 473.530202 188.24528 
L 473.936427 188.243109 
L 474.342651 188.240968 
L 474.748875 188.238852 
L 475.1551 188.236773 
L 475.561324 188.234719 
L 475.967549 188.232689 
L 476.373773 188.230696 
L 476.779997 188.228728 
L 477.186222 188.22679 
L 477.592446 188.224883 
L 477.998671 188.222995 
L 478.404895 188.221137 
L 478.811119 188.219304 
L 479.217344 188.217496 
L 479.623568 188.215712 
L 480.029793 188.213965 
L 480.436017 188.212231 
L 480.842242 188.210533 
L 481.248466 188.208848 
L 481.248466 18.635961 
L 481.248466 18.635961 
L 480.842242 18.637671 
L 480.436017 18.639393 
L 480.029793 18.641153 
L 479.623568 18.642924 
L 479.217344 18.644733 
L 478.811119 18.646553 
L 478.404895 18.648411 
L 477.998671 18.650305 
L 477.592446 18.652212 
L 477.186222 18.654156 
L 476.779997 18.656124 
L 476.373773 18.658117 
L 475.967549 18.660135 
L 475.561324 18.662189 
L 475.1551 18.664281 
L 474.748875 18.666396 
L 474.342651 18.668537 
L 473.936427 18.670714 
L 473.530202 18.672929 
L 473.123978 18.67518 
L 472.717753 18.677444 
L 472.311529 18.679756 
L 471.905305 18.682094 
L 471.49908 18.684468 
L 471.092856 18.686879 
L 470.686631 18.68934 
L 470.280407 18.691812 
L 469.874183 18.694322 
L 469.467958 18.696893 
L 469.061734 18.699464 
L 468.655509 18.702109 
L 468.249285 18.704767 
L 467.843061 18.707473 
L 467.436836 18.710216 
L 467.030612 18.712997 
L 466.624387 18.715826 
L 466.218163 18.71868 
L 465.811938 18.721596 
L 465.405714 18.724548 
L 464.99949 18.727538 
L 464.593265 18.730564 
L 464.187041 18.733652 
L 463.780816 18.736764 
L 463.374592 18.739938 
L 462.968368 18.743149 
L 462.562143 18.746409 
L 462.155919 18.749718 
L 461.749694 18.753064 
L 461.34347 18.756472 
L 460.937246 18.759929 
L 460.531021 18.763435 
L 460.124797 18.76699 
L 459.718572 18.770595 
L 459.312348 18.774236 
L 458.906124 18.777939 
L 458.499899 18.781716 
L 458.093675 18.785529 
L 457.68745 18.789392 
L 457.281226 18.793317 
L 456.875002 18.797315 
L 456.468777 18.801338 
L 456.062553 18.805446 
L 455.656328 18.809592 
L 455.250104 18.813812 
L 454.84388 18.818093 
L 454.437655 18.822423 
L 454.031431 18.826827 
L 453.625206 18.831281 
L 453.218982 18.835808 
L 452.812757 18.840409 
L 452.406533 18.845059 
L 452.000309 18.849783 
L 451.594084 18.854568 
L 451.18786 18.859428 
L 450.781635 18.864349 
L 450.375411 18.869356 
L 449.969187 18.874412 
L 449.562962 18.879566 
L 449.156738 18.884782 
L 448.750513 18.89006 
L 448.344289 18.895424 
L 447.938065 18.900861 
L 447.53184 18.906385 
L 447.125616 18.911982 
L 446.719391 18.917653 
L 446.313167 18.923398 
L 445.906943 18.929254 
L 445.500718 18.935171 
L 445.094494 18.941163 
L 444.688269 18.947264 
L 444.282045 18.95344 
L 443.875821 18.959689 
L 443.469596 18.96605 
L 443.063372 18.972496 
L 442.657147 18.979028 
L 442.250923 18.985647 
L 441.844699 18.992376 
L 441.438474 18.999179 
L 441.03225 19.006093 
L 440.626025 19.013105 
L 440.219801 19.020203 
L 439.813576 19.027412 
L 439.407352 19.03472 
L 439.001128 19.042138 
L 438.594903 19.049642 
L 438.188679 19.057269 
L 437.782454 19.064995 
L 437.37623 19.072844 
L 436.970006 19.080791 
L 436.563781 19.088836 
L 436.157557 19.097017 
L 435.751332 19.105309 
L 435.345108 19.113711 
L 434.938884 19.122236 
L 434.532659 19.130885 
L 434.126435 19.139644 
L 433.72021 19.148526 
L 433.313986 19.157543 
L 432.907762 19.166671 
L 432.501537 19.175935 
L 432.095313 19.185333 
L 431.689088 19.194868 
L 431.282864 19.204525 
L 430.87664 19.214317 
L 430.470415 19.224257 
L 430.064191 19.234333 
L 429.657966 19.244543 
L 429.251742 19.254902 
L 428.845518 19.265395 
L 428.439293 19.276049 
L 428.033069 19.28685 
L 427.626844 19.297799 
L 427.22062 19.308895 
L 426.814395 19.320139 
L 426.408171 19.331556 
L 426.001947 19.343119 
L 425.595722 19.354856 
L 425.189498 19.366752 
L 424.783273 19.378808 
L 424.377049 19.391036 
L 423.970825 19.403436 
L 423.5646 19.416009 
L 423.158376 19.428742 
L 422.752151 19.441671 
L 422.345927 19.454773 
L 421.939703 19.468059 
L 421.533478 19.48153 
L 421.127254 19.495197 
L 420.721029 19.509025 
L 420.314805 19.523074 
L 419.908581 19.537295 
L 419.502356 19.551737 
L 419.096132 19.566365 
L 418.689907 19.581189 
L 418.283683 19.596234 
L 417.877459 19.611476 
L 417.471234 19.626928 
L 417.06501 19.6426 
L 416.658785 19.658495 
L 416.252561 19.67461 
L 415.846337 19.690935 
L 415.440112 19.707494 
L 415.033888 19.724274 
L 414.627663 19.741287 
L 414.221439 19.758547 
L 413.815214 19.776028 
L 413.40899 19.79378 
L 413.002766 19.811753 
L 412.596541 19.829973 
L 412.190317 19.84845 
L 411.784092 19.867186 
L 411.377868 19.886181 
L 410.971644 19.905421 
L 410.565419 19.924932 
L 410.159195 19.944726 
L 409.75297 19.964791 
L 409.346746 19.985114 
L 408.940522 20.005744 
L 408.534297 20.026633 
L 408.128073 20.047817 
L 407.721848 20.069297 
L 407.315624 20.091071 
L 406.9094 20.113141 
L 406.503175 20.135519 
L 406.096951 20.158204 
L 405.690726 20.181208 
L 405.284502 20.204508 
L 404.878278 20.228141 
L 404.472053 20.252105 
L 404.065829 20.276377 
L 403.659604 20.301006 
L 403.25338 20.325954 
L 402.847156 20.351259 
L 402.440931 20.376909 
L 402.034707 20.402903 
L 401.628482 20.429267 
L 401.222258 20.455974 
L 400.816033 20.483064 
L 400.409809 20.510509 
L 400.003585 20.538349 
L 399.59736 20.566557 
L 399.191136 20.595147 
L 398.784911 20.624131 
L 398.378687 20.653533 
L 397.972463 20.683316 
L 397.566238 20.713518 
L 397.160014 20.744125 
L 396.753789 20.775151 
L 396.347565 20.806607 
L 395.941341 20.838494 
L 395.535116 20.870812 
L 395.128892 20.903572 
L 394.722667 20.936775 
L 394.316443 20.970446 
L 393.910219 21.004572 
L 393.503994 21.039165 
L 393.09777 21.074226 
L 392.691545 21.109779 
L 392.285321 21.145799 
L 391.879097 21.182324 
L 391.472872 21.219341 
L 391.066648 21.256862 
L 390.660423 21.2949 
L 390.254199 21.333454 
L 389.847975 21.372538 
L 389.44175 21.412163 
L 389.035526 21.452317 
L 388.629301 21.493024 
L 388.223077 21.534273 
L 387.816852 21.5761 
L 387.410628 21.618493 
L 387.004404 21.661451 
L 386.598179 21.705013 
L 386.191955 21.749165 
L 385.78573 21.79392 
L 385.379506 21.83929 
L 384.973282 21.885262 
L 384.567057 21.931863 
L 384.160833 21.979102 
L 383.754608 22.027007 
L 383.348384 22.075538 
L 382.94216 22.124734 
L 382.535935 22.174606 
L 382.129711 22.225143 
L 381.723486 22.276381 
L 381.317262 22.328308 
L 380.911038 22.380949 
L 380.504813 22.434303 
L 380.098589 22.488382 
L 379.692364 22.543213 
L 379.28614 22.598781 
L 378.879916 22.655087 
L 378.473691 22.712169 
L 378.067467 22.770038 
L 377.661242 22.828669 
L 377.255018 22.888125 
L 376.848794 22.948368 
L 376.442569 23.009435 
L 376.036345 23.071339 
L 375.63012 23.134067 
L 375.223896 23.197669 
L 374.817671 23.262107 
L 374.411447 23.327443 
L 374.005223 23.393653 
L 373.598998 23.460773 
L 373.192774 23.528791 
L 372.786549 23.597731 
L 372.380325 23.667607 
L 371.974101 23.738442 
L 371.567876 23.810224 
L 371.161652 23.882991 
L 370.755427 23.956729 
L 370.349203 24.031477 
L 369.942979 24.107233 
L 369.536754 24.18401 
L 369.13053 24.261832 
L 368.724305 24.340713 
L 368.318081 24.420639 
L 367.911857 24.501661 
L 367.505632 24.583777 
L 367.099408 24.667012 
L 366.693183 24.751343 
L 366.286959 24.836842 
L 365.880735 24.923473 
L 365.47451 25.011285 
L 365.068286 25.10029 
L 364.662061 25.190476 
L 364.255837 25.281881 
L 363.849613 25.37454 
L 363.443388 25.468417 
L 363.037164 25.563573 
L 362.630939 25.660008 
L 362.224715 25.757748 
L 361.81849 25.856792 
L 361.412266 25.957177 
L 361.006042 26.058902 
L 360.599817 26.161993 
L 360.193593 26.266462 
L 359.787368 26.372358 
L 359.381144 26.479657 
L 358.97492 26.588382 
L 358.568695 26.698571 
L 358.162471 26.810249 
L 357.756246 26.923416 
L 357.350022 27.038095 
L 356.943798 27.154301 
L 356.537573 27.272068 
L 356.131349 27.391385 
L 355.725124 27.512315 
L 355.3189 27.634867 
L 354.912676 27.75902 
L 354.506451 27.884857 
L 354.100227 28.012356 
L 353.694002 28.141539 
L 353.287778 28.272445 
L 352.881554 28.405098 
L 352.475329 28.53951 
L 352.069105 28.675694 
L 351.66288 28.813674 
L 351.256656 28.953499 
L 350.850432 29.095169 
L 350.444207 29.238697 
L 350.037983 29.384132 
L 349.631758 29.531473 
L 349.225534 29.680758 
L 348.819309 29.832012 
L 348.413085 29.985259 
L 348.006861 30.14051 
L 347.600636 30.297792 
L 347.194412 30.457134 
L 346.788187 30.61858 
L 346.381963 30.782111 
L 345.975739 30.947801 
L 345.569514 31.115644 
L 345.16329 31.28567 
L 344.757065 31.457905 
L 344.350841 31.632391 
L 343.944617 31.809135 
L 343.538392 31.98816 
L 343.132168 32.169511 
L 342.725943 32.353211 
L 342.319719 32.539273 
L 341.913495 32.72774 
L 341.50727 32.918631 
L 341.101046 33.111982 
L 340.694821 33.307794 
L 340.288597 33.506127 
L 339.882373 33.706995 
L 339.476148 33.910434 
L 339.069924 34.116462 
L 338.663699 34.325105 
L 338.257475 34.536417 
L 337.851251 34.75038 
L 337.445026 34.967069 
L 337.038802 35.186488 
L 336.632577 35.408669 
L 336.226353 35.633661 
L 335.820128 35.861458 
L 335.413904 36.092127 
L 335.00768 36.325675 
L 334.601455 36.562127 
L 334.195231 36.801537 
L 333.789006 37.043924 
L 333.382782 37.289306 
L 332.976558 37.537722 
L 332.570333 37.789206 
L 332.164109 38.043797 
L 331.757884 38.3015 
L 331.35166 38.562371 
L 330.945436 38.826416 
L 330.539211 39.093678 
L 330.132987 39.364206 
L 329.726762 39.638006 
L 329.320538 39.915103 
L 328.914314 40.195547 
L 328.508089 40.479361 
L 328.101865 40.766565 
L 327.69564 41.057219 
L 327.289416 41.351311 
L 326.883192 41.648922 
L 326.476967 41.950039 
L 326.070743 42.254718 
L 325.664518 42.562964 
L 325.258294 42.874833 
L 324.85207 43.190331 
L 324.445845 43.509514 
L 324.039621 43.832405 
L 323.633396 44.159018 
L 323.227172 44.489371 
L 322.820947 44.823526 
L 322.414723 45.161493 
L 322.008499 45.503306 
L 321.602274 45.848999 
L 321.19605 46.198574 
L 320.789825 46.552098 
L 320.383601 46.90957 
L 319.977377 47.271004 
L 319.571152 47.636461 
L 319.164928 48.005941 
L 318.758703 48.379504 
L 318.352479 48.757116 
L 317.946255 49.13886 
L 317.54003 49.524714 
L 317.133806 49.914731 
L 316.727581 50.308926 
L 316.321357 50.707321 
L 315.915133 51.109955 
L 315.508908 51.516808 
L 315.102684 51.92793 
L 314.696459 52.343333 
L 314.290235 52.763048 
L 313.884011 53.187068 
L 313.477786 53.615431 
L 313.071562 54.04815 
L 312.665337 54.485235 
L 312.259113 54.926718 
L 311.852889 55.372587 
L 311.446664 55.822854 
L 311.04044 56.277575 
L 310.634215 56.736718 
L 310.227991 57.200289 
L 309.821766 57.668314 
L 309.415542 58.14083 
L 309.009318 58.617792 
L 308.603093 59.099232 
L 308.196869 59.585138 
L 307.790644 60.075529 
L 307.38442 60.570397 
L 306.978196 61.069761 
L 306.571971 61.573597 
L 306.165747 62.081905 
L 305.759522 62.594691 
L 305.353298 63.111925 
L 304.947074 63.633636 
L 304.540849 64.159782 
L 304.134625 64.690381 
L 303.7284 65.225366 
L 303.322176 65.764804 
L 302.915952 66.308622 
L 302.509727 66.856801 
L 302.103503 67.409335 
L 301.697278 67.966205 
L 301.291054 68.527357 
L 300.88483 69.092833 
L 300.478605 69.662515 
L 300.072381 70.23643 
L 299.666156 70.814522 
L 299.259932 71.396753 
L 298.853708 71.983099 
L 298.447483 72.573547 
L 298.041259 73.167957 
L 297.635034 73.766347 
L 297.22881 74.368674 
L 296.822585 74.974863 
L 296.416361 75.584872 
L 296.010137 76.198602 
L 295.603912 76.816066 
L 295.197688 77.43711 
L 294.791463 78.061722 
L 294.385239 78.689827 
L 293.979015 79.321346 
L 293.57279 79.956168 
L 293.166566 80.594263 
L 292.760341 81.235513 
L 292.354117 81.879768 
L 291.947893 82.527049 
L 291.541668 83.177203 
L 291.135444 83.830103 
L 290.729219 84.485654 
L 290.322995 85.143767 
L 289.916771 85.804291 
L 289.510546 86.467178 
L 289.104322 87.132149 
L 288.698097 87.799212 
L 288.291873 88.468169 
L 287.885649 89.138907 
L 287.479424 89.811266 
L 287.0732 90.485043 
L 286.666975 91.160148 
L 286.260751 91.836382 
L 285.854527 92.513542 
L 285.448302 93.191473 
L 285.042078 93.870017 
L 284.635853 94.548951 
L 284.229629 95.228039 
L 283.823404 95.907161 
L 283.41718 96.585982 
L 283.010956 97.264393 
L 282.604731 97.942039 
L 282.198507 98.618703 
L 281.792282 99.294172 
L 281.386058 99.968179 
L 280.979834 100.640396 
L 280.573609 101.310516 
L 280.167385 101.978369 
L 279.76116 102.643451 
L 279.354936 103.305544 
L 278.948712 103.96422 
L 278.542487 104.619221 
L 278.136263 105.270023 
L 277.730038 105.916379 
L 277.323814 106.557696 
L 276.91759 107.193595 
L 276.511365 107.823655 
L 276.105141 108.447244 
L 275.698916 109.063947 
L 275.292692 109.673096 
L 274.886468 110.274082 
L 274.480243 110.866399 
L 274.074019 111.44907 
L 273.667794 112.021642 
L 273.26157 112.583016 
L 272.855346 113.132585 
L 272.449121 113.669177 
L 272.042897 114.191851 
L 271.636672 114.699415 
L 271.230448 115.190823 
L 270.824223 115.664522 
L 270.417999 116.11912 
L 270.011775 116.552979 
L 269.60555 116.964516 
L 269.199326 117.351543 
L 268.793101 117.712109 
L 268.386877 118.044122 
L 267.980653 118.344993 
L 267.574428 118.612138 
L 267.168204 118.842988 
L 266.761979 119.034906 
L 266.355755 119.184816 
L 265.949531 119.290334 
L 265.543306 119.348965 
L 265.137082 119.358358 
L 264.730857 119.316931 
L 264.324633 119.223606 
L 263.918409 119.078028 
L 263.512184 118.880337 
L 263.10596 118.631845 
L 262.699735 118.33437 
L 262.293511 117.990303 
L 261.887287 117.602638 
L 261.481062 117.174941 
L 261.074838 116.710751 
L 260.668613 116.213521 
L 260.262389 115.6873 
L 259.856165 115.135421 
L 259.44994 114.561317 
L 259.043716 113.968265 
L 258.637491 113.359095 
L 258.231267 112.736658 
L 257.825042 112.103383 
L 257.418818 111.461479 
L 257.012594 110.813028 
L 256.606369 110.159988 
L 256.200145 109.503975 
L 255.79392 108.846531 
L 255.387696 108.189129 
L 254.981472 107.532913 
L 254.575247 106.879238 
L 254.169023 106.22898 
L 253.762798 105.583233 
L 253.356574 104.942881 
L 252.95035 104.308733 
L 252.544125 103.681482 
L 252.137901 103.061958 
L 251.731676 102.450771 
L 251.325452 101.848592 
L 250.919228 101.255812 
L 250.513003 100.673049 
L 250.106779 100.100859 
L 249.700554 99.539646 
L 249.29433 98.989773 
L 248.888106 98.451802 
L 248.481881 97.925938 
L 248.075657 97.412562 
L 247.669432 96.91205 
L 247.263208 96.42464 
L 246.856984 95.95076 
L 246.450759 95.490393 
L 246.044535 95.043949 
L 245.63831 94.61163 
L 245.232086 94.193634 
L 244.825861 93.790035 
L 244.419637 93.40102 
L 244.013413 93.026798 
L 243.607188 92.667373 
L 243.200964 92.322857 
L 242.794739 91.993371 
L 242.388515 91.67886 
L 241.982291 91.379407 
L 241.576066 91.094981 
L 241.169842 90.825505 
L 240.763617 90.571025 
L 240.357393 90.331353 
L 239.951169 90.106377 
L 239.544944 89.896042 
L 239.13872 89.700025 
L 238.732495 89.518158 
L 238.326271 89.350186 
L 237.920047 89.195721 
L 237.513822 89.054518 
L 237.107598 88.926116 
L 236.701373 88.809904 
L 236.295149 88.705534 
L 235.888925 88.612205 
L 235.4827 88.529344 
L 235.076476 88.456079 
L 234.670251 88.391586 
L 234.264027 88.334738 
L 233.857803 88.284475 
L 233.451578 88.239385 
L 233.045354 88.198087 
L 232.639129 88.159 
L 232.232905 88.1202 
L 231.82668 88.079741 
L 231.420456 88.035288 
L 231.014232 87.984358 
L 230.608007 87.92409 
L 230.201783 87.851554 
L 229.795558 87.763773 
L 229.389334 87.657083 
L 228.98311 87.528013 
L 228.576885 87.373134 
L 228.170661 87.188975 
L 227.764436 86.972262 
L 227.358212 86.720064 
L 226.951988 86.430121 
L 226.545763 86.100755 
L 226.139539 85.730827 
L 225.733314 85.319917 
L 225.32709 84.86881 
L 224.920866 84.378537 
L 224.514641 83.85093 
L 224.108417 83.288069 
L 223.702192 82.692309 
L 223.295968 82.066491 
L 222.889744 81.413401 
L 222.483519 80.735866 
L 222.077295 80.036224 
L 221.67107 79.317256 
L 221.264846 78.581225 
L 220.858622 77.830443 
L 220.452397 77.066782 
L 220.046173 76.292116 
L 219.639948 75.508273 
L 219.233724 74.716723 
L 218.827499 73.918862 
L 218.421275 73.115908 
L 218.015051 72.309066 
L 217.608826 71.499395 
L 217.202602 70.687755 
L 216.796377 69.875156 
L 216.390153 69.062262 
L 215.983929 68.249804 
L 215.577704 67.438411 
L 215.17148 66.628734 
L 214.765255 65.821338 
L 214.359031 65.016631 
L 213.952807 64.215141 
L 213.546582 63.417237 
L 213.140358 62.623343 
L 212.734133 61.833853 
L 212.327909 61.049008 
L 211.921685 60.269126 
L 211.51546 59.494534 
L 211.109236 58.725466 
L 210.703011 57.962167 
L 210.296787 57.204804 
L 209.890563 56.453617 
L 209.484338 55.708827 
L 209.078114 54.970581 
L 208.671889 54.238991 
L 208.265665 53.514266 
L 207.859441 52.796491 
L 207.453216 52.085802 
L 207.046992 51.382322 
L 206.640767 50.686174 
L 206.234543 49.99737 
L 205.828318 49.31609 
L 205.422094 48.64235 
L 205.01587 47.976243 
L 204.609645 47.317801 
L 204.203421 46.667085 
L 203.797196 46.024156 
L 203.390972 45.389063 
L 202.984748 44.761818 
L 202.578523 44.142472 
L 202.172299 43.530999 
L 201.766074 42.927449 
L 201.35985 42.331864 
L 200.953626 41.744226 
L 200.547401 41.164517 
L 200.141177 40.592755 
L 199.734952 40.028965 
L 199.328728 39.473103 
L 198.922504 38.925189 
L 198.516279 38.385178 
L 198.110055 37.853054 
L 197.70383 37.328821 
L 197.297606 36.812461 
L 196.891382 36.303894 
L 196.485157 35.803165 
L 196.078933 35.310179 
L 195.672708 34.824931 
L 195.266484 34.347384 
L 194.86026 33.877514 
L 194.454035 33.41524 
L 194.047811 32.960569 
L 193.641586 32.513408 
L 193.235362 32.073776 
L 192.829137 31.641568 
L 192.422913 31.216767 
L 192.016689 30.799303 
L 191.610464 30.389147 
L 191.20424 29.986237 
L 190.798015 29.590523 
L 190.391791 29.201926 
L 189.985567 28.82044 
L 189.579342 28.445966 
L 189.173118 28.078479 
L 188.766893 27.717882 
L 188.360669 27.364149 
L 187.954445 27.017207 
L 187.54822 26.677031 
L 187.141996 26.34351 
L 186.735771 26.016595 
L 186.329547 25.69625 
L 185.923323 25.382413 
L 185.517098 25.074997 
L 185.110874 24.773954 
L 184.704649 24.479246 
L 184.298425 24.190763 
L 183.892201 23.908468 
L 183.485976 23.632325 
L 183.079752 23.362221 
L 182.673527 23.098145 
L 182.267303 22.839999 
L 181.861079 22.587734 
L 181.454854 22.341287 
L 181.04863 22.100622 
L 180.642405 21.865628 
L 180.236181 21.636294 
L 179.829956 21.412532 
L 179.423732 21.194281 
L 179.017508 20.981505 
L 178.611283 20.774117 
L 178.205059 20.572069 
L 177.798834 20.375322 
L 177.39261 20.183792 
L 176.986386 19.997453 
L 176.580161 19.816207 
L 176.173937 19.640017 
L 175.767712 19.468846 
L 175.361488 19.302621 
L 174.955264 19.14128 
L 174.549039 18.98481 
L 174.142815 18.833101 
L 173.73659 18.686154 
L 173.330366 18.54388 
L 172.924142 18.40627 
L 172.517917 18.273211 
L 172.111693 18.144716 
L 171.705468 18.020699 
L 171.299244 17.901136 
L 170.89302 17.785976 
L 170.486795 17.67516 
L 170.080571 17.568661 
L 169.674346 17.466418 
L 169.268122 17.36842 
L 168.861898 17.27458 
L 168.455673 17.184899 
L 168.049449 17.099326 
L 167.643224 17.017788 
L 167.237 16.940285 
L 166.830775 16.866768 
L 166.424551 16.7972 
L 166.018327 16.731544 
L 165.612102 16.669763 
L 165.205878 16.611857 
L 164.799653 16.55774 
L 164.393429 16.507413 
L 163.987205 16.46085 
L 163.58098 16.417989 
L 163.174756 16.378844 
L 162.768531 16.343365 
L 162.362307 16.311527 
L 161.956083 16.283307 
L 161.549858 16.258678 
L 161.143634 16.237641 
L 160.737409 16.220123 
L 160.331185 16.206148 
L 159.924961 16.195667 
L 159.518736 16.188692 
L 159.112512 16.185185 
L 158.706287 16.185124 
L 158.300063 16.188507 
L 157.893839 16.195298 
L 157.487614 16.205508 
L 157.08139 16.219139 
L 156.675165 16.236128 
L 156.268941 16.2565 
L 155.862717 16.280231 
L 155.456492 16.307332 
L 155.050268 16.33778 
L 154.644043 16.371586 
L 154.237819 16.408714 
L 153.831594 16.449175 
L 153.42537 16.49297 
L 153.019146 16.540099 
L 152.612921 16.590562 
L 152.206697 16.644335 
L 151.800472 16.701465 
L 151.394248 16.761905 
L 150.988024 16.825704 
L 150.581799 16.892823 
L 150.175575 16.96329 
L 149.76935 17.037126 
L 149.363126 17.114297 
L 148.956902 17.194839 
L 148.550677 17.278763 
L 148.144453 17.366071 
L 147.738228 17.456786 
L 147.332004 17.550909 
L 146.92578 17.648464 
L 146.519555 17.749439 
L 146.113331 17.853884 
L 145.707106 17.961797 
L 145.300882 18.07318 
L 144.894658 18.188081 
L 144.488433 18.3065 
L 144.082209 18.428475 
L 143.675984 18.554005 
L 143.26976 18.68314 
L 142.863536 18.815866 
L 142.457311 18.952234 
L 142.051087 19.092269 
L 141.644862 19.235956 
L 141.238638 19.383384 
L 140.832413 19.534539 
L 140.426189 19.689471 
L 140.019965 19.84818 
L 139.61374 20.010727 
L 139.207516 20.177124 
L 138.801291 20.347409 
L 138.395067 20.52163 
L 137.988843 20.699764 
L 137.582618 20.881908 
L 137.176394 21.068062 
L 136.770169 21.258289 
L 136.363945 21.452587 
L 135.957721 21.651019 
L 135.551496 21.853622 
L 135.145272 22.060419 
L 134.739047 22.27146 
L 134.332823 22.486758 
L 133.926599 22.706399 
L 133.520374 22.930382 
L 133.11415 23.158794 
L 132.707925 23.391623 
L 132.301701 23.628954 
L 131.895477 23.870787 
L 131.489252 24.117222 
L 131.083028 24.368233 
L 130.676803 24.623918 
L 130.270579 24.884303 
L 129.864355 25.149425 
L 129.45813 25.419356 
L 129.051906 25.694097 
L 128.645681 25.973747 
L 128.239457 26.258306 
L 127.833232 26.547847 
L 127.427008 26.842345 
L 127.020784 27.141949 
L 126.614559 27.446671 
L 126.208335 27.756559 
L 125.80211 28.071651 
L 125.395886 28.39196 
L 124.989662 28.717595 
L 124.583437 29.048569 
L 124.177213 29.384931 
L 123.770988 29.726682 
L 123.364764 30.073962 
L 122.95854 30.42676 
L 122.552315 30.785162 
L 122.146091 31.149149 
L 121.739866 31.518806 
L 121.333642 31.894179 
L 120.927418 32.275308 
L 120.521193 32.662213 
L 120.114969 33.054925 
L 119.708744 33.453548 
L 119.30252 33.858101 
L 118.896296 34.268632 
L 118.490071 34.685161 
L 118.083847 35.107718 
L 117.677622 35.536376 
L 117.271398 35.97113 
L 116.865174 36.412036 
L 116.458949 36.859079 
L 116.052725 37.312404 
L 115.6465 37.771971 
L 115.240276 38.237868 
L 114.834051 38.710038 
L 114.427827 39.188594 
L 114.021603 39.67346 
L 113.615378 40.164743 
L 113.209154 40.662483 
L 112.802929 41.166584 
L 112.396705 41.677057 
L 111.990481 42.194161 
L 111.584256 42.717711 
L 111.178032 43.247745 
L 110.771807 43.784274 
L 110.365583 44.32731 
L 109.959359 44.876941 
L 109.553134 45.432993 
L 109.14691 45.995455 
L 108.740685 46.56451 
L 108.334461 47.140037 
L 107.928237 47.722071 
L 107.522012 48.310625 
L 107.115788 48.90549 
L 106.709563 49.506814 
L 106.303339 50.114486 
L 105.897115 50.728505 
L 105.49089 51.348719 
L 105.084666 51.97512 
L 104.678441 52.607741 
L 104.272217 53.246536 
L 103.865993 53.891323 
L 103.459768 54.542138 
L 103.053544 55.198784 
L 102.647319 55.861286 
L 102.241095 56.529262 
L 101.83487 57.202608 
L 101.428646 57.881601 
L 101.022422 58.565896 
L 100.616197 59.255265 
L 100.209973 59.949513 
L 99.803748 60.648551 
L 99.397524 61.352105 
L 98.9913 62.059879 
L 98.585075 62.771785 
L 98.178851 63.487045 
L 97.772626 64.206037 
L 97.366402 64.928198 
L 96.960178 65.653016 
L 96.553953 66.380036 
L 96.147729 67.109005 
L 95.741504 67.839181 
L 95.33528 68.570186 
L 94.929056 69.300915 
L 94.522831 70.030593 
L 94.116607 70.759249 
L 93.710382 71.485106 
L 93.304158 72.207777 
L 92.897934 72.925189 
L 92.491709 73.63645 
L 92.085485 74.339715 
L 91.67926 75.033045 
L 91.273036 75.714597 
L 90.866812 76.380808 
L 90.460587 77.03054 
L 90.054363 77.65942 
L 89.648138 78.263524 
L 89.241914 78.838534 
L 88.835689 79.379799 
L 88.429465 79.881427 
L 88.023241 80.337661 
L 87.617016 80.741635 
L 87.210792 81.085564 
L 86.804567 81.365189 
L 86.398343 81.574225 
L 85.992119 81.707096 
L 85.585894 81.761914 
L 85.17967 81.736603 
L 84.773445 81.632328 
L 84.367221 81.452693 
L 83.960997 81.201787 
L 83.554772 80.884431 
L 83.148548 80.509139 
L 82.742323 80.081988 
L 82.336099 79.609374 
L 81.929875 79.096545 
L 81.52365 78.549922 
L 81.117426 77.9745 
L 80.711201 77.373902 
L 80.304977 76.752655 
L 79.898753 76.113177 
L 79.492528 75.460074 
L 79.086304 74.794755 
L 78.680079 74.119459 
L 78.273855 73.43664 
L 77.867631 72.746846 
L 77.461406 72.052261 
L 77.055182 71.354169 
L 76.648957 70.653679 
L 76.242733 69.950752 
L 75.836508 69.247672 
L 75.430284 68.544321 
z
" style="fill:#1f77b4;fill-opacity:0.4;"/>
   </g>
   <g id="PathCollection_1">
    <defs>
     <path d="M 0 3 
C 0.795609 3 1.55874 2.683901 2.12132 2.12132 
C 2.683901 1.55874 3 0.795609 3 0 
C 3 -0.795609 2.683901 -1.55874 2.12132 -2.12132 
C 1.55874 -2.683901 0.795609 -3 0 -3 
C -0.795609 -3 -1.55874 -2.683901 -2.12132 -2.12132 
C -2.683901 -1.55874 -3 -0.795609 -3 0 
C -3 0.795609 -2.683901 1.55874 -2.12132 2.12132 
C -1.55874 2.683901 -0.795609 3 0 3 
z
" id="m1ad1d842a5" style="stroke:#000000;"/>
    </defs>
    <g clip-path="url(#pc6b6017b21)">
     <use style="stroke:#000000;" x="85.585894" xlink:href="#m1ad1d842a5" y="93.237782"/>
     <use style="stroke:#000000;" x="263.918409" xlink:href="#m1ad1d842a5" y="115.438434"/>
     <use style="stroke:#000000;" x="226.545763" xlink:href="#m1ad1d842a5" y="100.064858"/>
    </g>
   </g>
   <g id="PathCollection_2">
    <defs>
     <path d="M 0 3 
C 0.795609 3 1.55874 2.683901 2.12132 2.12132 
C 2.683901 1.55874 3 0.795609 3 0 
C 3 -0.795609 2.683901 -1.55874 2.12132 -2.12132 
C 1.55874 -2.683901 0.795609 -3 0 -3 
C -0.795609 -3 -1.55874 -2.683901 -2.12132 -2.12132 
C -2.683901 -1.55874 -3 -0.795609 -3 0 
C -3 0.795609 -2.683901 1.55874 -2.12132 2.12132 
C -1.55874 2.683901 -0.795609 3 0 3 
z
" id="m47281fbb2f" style="stroke:#ff0000;"/>
    </defs>
    <g clip-path="url(#pc6b6017b21)">
     <use style="fill:#ff0000;stroke:#ff0000;" x="168.455673" xlink:href="#m47281fbb2f" y="70.695861"/>
     <use style="fill:#ff0000;stroke:#ff0000;" x="135.551496" xlink:href="#m47281fbb2f" y="72.675301"/>
     <use style="fill:#ff0000;stroke:#ff0000;" x="149.363126" xlink:href="#m47281fbb2f" y="70.344127"/>
    </g>
   </g>
   <g id="matplotlib.axis_1">
    <g id="xtick_1">
     <g id="line2d_1">
      <defs>
       <path d="M 0 0 
L 0 3.5 
" id="m60c0d114e5" style="stroke:#000000;stroke-width:0.8;"/>
      </defs>
      <g>
       <use style="stroke:#000000;stroke-width:0.8;" x="75.430284" xlink:href="#m60c0d114e5" y="204.872727"/>
      </g>
     </g>
     <g id="text_1">
      <!-- 0 -->
      <g transform="translate(71.612784 220.990852)scale(0.12 -0.12)">
       <defs>
        <path d="M 31.78125 66.40625 
Q 24.171875 66.40625 20.328125 58.90625 
Q 16.5 51.421875 16.5 36.375 
Q 16.5 21.390625 20.328125 13.890625 
Q 24.171875 6.390625 31.78125 6.390625 
Q 39.453125 6.390625 43.28125 13.890625 
Q 47.125 21.390625 47.125 36.375 
Q 47.125 51.421875 43.28125 58.90625 
Q 39.453125 66.40625 31.78125 66.40625 
z
M 31.78125 74.21875 
Q 44.046875 74.21875 50.515625 64.515625 
Q 56.984375 54.828125 56.984375 36.375 
Q 56.984375 17.96875 50.515625 8.265625 
Q 44.046875 -1.421875 31.78125 -1.421875 
Q 19.53125 -1.421875 13.0625 8.265625 
Q 6.59375 17.96875 6.59375 36.375 
Q 6.59375 54.828125 13.0625 64.515625 
Q 19.53125 74.21875 31.78125 74.21875 
z
" id="DejaVuSans-48"/>
       </defs>
       <use xlink:href="#DejaVuSans-48"/>
      </g>
     </g>
    </g>
    <g id="xtick_2">
     <g id="line2d_2">
      <g>
       <use style="stroke:#000000;stroke-width:0.8;" x="156.59392" xlink:href="#m60c0d114e5" y="204.872727"/>
      </g>
     </g>
     <g id="text_2">
      <!-- 2 -->
      <g transform="translate(152.77642 220.990852)scale(0.12 -0.12)">
       <defs>
        <path d="M 19.1875 8.296875 
L 53.609375 8.296875 
L 53.609375 0 
L 7.328125 0 
L 7.328125 8.296875 
Q 12.9375 14.109375 22.625 23.890625 
Q 32.328125 33.6875 34.8125 36.53125 
Q 39.546875 41.84375 41.421875 45.53125 
Q 43.3125 49.21875 43.3125 52.78125 
Q 43.3125 58.59375 39.234375 62.25 
Q 35.15625 65.921875 28.609375 65.921875 
Q 23.96875 65.921875 18.8125 64.3125 
Q 13.671875 62.703125 7.8125 59.421875 
L 7.8125 69.390625 
Q 13.765625 71.78125 18.9375 73 
Q 24.125 74.21875 28.421875 74.21875 
Q 39.75 74.21875 46.484375 68.546875 
Q 53.21875 62.890625 53.21875 53.421875 
Q 53.21875 48.921875 51.53125 44.890625 
Q 49.859375 40.875 45.40625 35.40625 
Q 44.1875 33.984375 37.640625 27.21875 
Q 31.109375 20.453125 19.1875 8.296875 
z
" id="DejaVuSans-50"/>
       </defs>
       <use xlink:href="#DejaVuSans-50"/>
      </g>
     </g>
    </g>
    <g id="xtick_3">
     <g id="line2d_3">
      <g>
       <use style="stroke:#000000;stroke-width:0.8;" x="237.757557" xlink:href="#m60c0d114e5" y="204.872727"/>
      </g>
     </g>
     <g id="text_3">
      <!-- 4 -->
      <g transform="translate(233.940057 220.990852)scale(0.12 -0.12)">
       <defs>
        <path d="M 37.796875 64.3125 
L 12.890625 25.390625 
L 37.796875 25.390625 
z
M 35.203125 72.90625 
L 47.609375 72.90625 
L 47.609375 25.390625 
L 58.015625 25.390625 
L 58.015625 17.1875 
L 47.609375 17.1875 
L 47.609375 0 
L 37.796875 0 
L 37.796875 17.1875 
L 4.890625 17.1875 
L 4.890625 26.703125 
z
" id="DejaVuSans-52"/>
       </defs>
       <use xlink:href="#DejaVuSans-52"/>
      </g>
     </g>
    </g>
    <g id="xtick_4">
     <g id="line2d_4">
      <g>
       <use style="stroke:#000000;stroke-width:0.8;" x="318.921193" xlink:href="#m60c0d114e5" y="204.872727"/>
      </g>
     </g>
     <g id="text_4">
      <!-- 6 -->
      <g transform="translate(315.103693 220.990852)scale(0.12 -0.12)">
       <defs>
        <path d="M 33.015625 40.375 
Q 26.375 40.375 22.484375 35.828125 
Q 18.609375 31.296875 18.609375 23.390625 
Q 18.609375 15.53125 22.484375 10.953125 
Q 26.375 6.390625 33.015625 6.390625 
Q 39.65625 6.390625 43.53125 10.953125 
Q 47.40625 15.53125 47.40625 23.390625 
Q 47.40625 31.296875 43.53125 35.828125 
Q 39.65625 40.375 33.015625 40.375 
z
M 52.59375 71.296875 
L 52.59375 62.3125 
Q 48.875 64.0625 45.09375 64.984375 
Q 41.3125 65.921875 37.59375 65.921875 
Q 27.828125 65.921875 22.671875 59.328125 
Q 17.53125 52.734375 16.796875 39.40625 
Q 19.671875 43.65625 24.015625 45.921875 
Q 28.375 48.1875 33.59375 48.1875 
Q 44.578125 48.1875 50.953125 41.515625 
Q 57.328125 34.859375 57.328125 23.390625 
Q 57.328125 12.15625 50.6875 5.359375 
Q 44.046875 -1.421875 33.015625 -1.421875 
Q 20.359375 -1.421875 13.671875 8.265625 
Q 6.984375 17.96875 6.984375 36.375 
Q 6.984375 53.65625 15.1875 63.9375 
Q 23.390625 74.21875 37.203125 74.21875 
Q 40.921875 74.21875 44.703125 73.484375 
Q 48.484375 72.75 52.59375 71.296875 
z
" id="DejaVuSans-54"/>
       </defs>
       <use xlink:href="#DejaVuSans-54"/>
      </g>
     </g>
    </g>
    <g id="xtick_5">
     <g id="line2d_5">
      <g>
       <use style="stroke:#000000;stroke-width:0.8;" x="400.08483" xlink:href="#m60c0d114e5" y="204.872727"/>
      </g>
     </g>
     <g id="text_5">
      <!-- 8 -->
      <g transform="translate(396.26733 220.990852)scale(0.12 -0.12)">
       <defs>
        <path d="M 31.78125 34.625 
Q 24.75 34.625 20.71875 30.859375 
Q 16.703125 27.09375 16.703125 20.515625 
Q 16.703125 13.921875 20.71875 10.15625 
Q 24.75 6.390625 31.78125 6.390625 
Q 38.8125 6.390625 42.859375 10.171875 
Q 46.921875 13.96875 46.921875 20.515625 
Q 46.921875 27.09375 42.890625 30.859375 
Q 38.875 34.625 31.78125 34.625 
z
M 21.921875 38.8125 
Q 15.578125 40.375 12.03125 44.71875 
Q 8.5 49.078125 8.5 55.328125 
Q 8.5 64.0625 14.71875 69.140625 
Q 20.953125 74.21875 31.78125 74.21875 
Q 42.671875 74.21875 48.875 69.140625 
Q 55.078125 64.0625 55.078125 55.328125 
Q 55.078125 49.078125 51.53125 44.71875 
Q 48 40.375 41.703125 38.8125 
Q 48.828125 37.15625 52.796875 32.3125 
Q 56.78125 27.484375 56.78125 20.515625 
Q 56.78125 9.90625 50.3125 4.234375 
Q 43.84375 -1.421875 31.78125 -1.421875 
Q 19.734375 -1.421875 13.25 4.234375 
Q 6.78125 9.90625 6.78125 20.515625 
Q 6.78125 27.484375 10.78125 32.3125 
Q 14.796875 37.15625 21.921875 38.8125 
z
M 18.3125 54.390625 
Q 18.3125 48.734375 21.84375 45.5625 
Q 25.390625 42.390625 31.78125 42.390625 
Q 38.140625 42.390625 41.71875 45.5625 
Q 45.3125 48.734375 45.3125 54.390625 
Q 45.3125 60.0625 41.71875 63.234375 
Q 38.140625 66.40625 31.78125 66.40625 
Q 25.390625 66.40625 21.84375 63.234375 
Q 18.3125 60.0625 18.3125 54.390625 
z
" id="DejaVuSans-56"/>
       </defs>
       <use xlink:href="#DejaVuSans-56"/>
      </g>
     </g>
    </g>
    <g id="xtick_6">
     <g id="line2d_6">
      <g>
       <use style="stroke:#000000;stroke-width:0.8;" x="481.248466" xlink:href="#m60c0d114e5" y="204.872727"/>
      </g>
     </g>
     <g id="text_6">
      <!-- 10 -->
      <g transform="translate(473.613466 220.990852)scale(0.12 -0.12)">
       <defs>
        <path d="M 12.40625 8.296875 
L 28.515625 8.296875 
L 28.515625 63.921875 
L 10.984375 60.40625 
L 10.984375 69.390625 
L 28.421875 72.90625 
L 38.28125 72.90625 
L 38.28125 8.296875 
L 54.390625 8.296875 
L 54.390625 0 
L 12.40625 0 
z
" id="DejaVuSans-49"/>
       </defs>
       <use xlink:href="#DejaVuSans-49"/>
       <use x="63.623047" xlink:href="#DejaVuSans-48"/>
      </g>
     </g>
    </g>
   </g>
   <g id="matplotlib.axis_2">
    <g id="ytick_1">
     <g id="line2d_7">
      <defs>
       <path d="M 0 0 
L -3.5 0 
" id="m767197e7fa" style="stroke:#000000;stroke-width:0.8;"/>
      </defs>
      <g>
       <use style="stroke:#000000;stroke-width:0.8;" x="55.139375" xlink:href="#m767197e7fa" y="197.44351"/>
      </g>
     </g>
     <g id="text_7">
      <!-- 40 -->
      <g transform="translate(22.81375 202.002573)scale(0.12 -0.12)">
       <defs>
        <path d="M 10.59375 35.5 
L 73.1875 35.5 
L 73.1875 27.203125 
L 10.59375 27.203125 
z
" id="DejaVuSans-8722"/>
       </defs>
       <use xlink:href="#DejaVuSans-8722"/>
       <use x="83.789062" xlink:href="#DejaVuSans-52"/>
       <use x="147.412109" xlink:href="#DejaVuSans-48"/>
      </g>
     </g>
    </g>
    <g id="ytick_2">
     <g id="line2d_8">
      <g>
       <use style="stroke:#000000;stroke-width:0.8;" x="55.139375" xlink:href="#m767197e7fa" y="165.194447"/>
      </g>
     </g>
     <g id="text_8">
      <!-- 20 -->
      <g transform="translate(22.81375 169.75351)scale(0.12 -0.12)">
       <use xlink:href="#DejaVuSans-8722"/>
       <use x="83.789062" xlink:href="#DejaVuSans-50"/>
       <use x="147.412109" xlink:href="#DejaVuSans-48"/>
      </g>
     </g>
    </g>
    <g id="ytick_3">
     <g id="line2d_9">
      <g>
       <use style="stroke:#000000;stroke-width:0.8;" x="55.139375" xlink:href="#m767197e7fa" y="132.945384"/>
      </g>
     </g>
     <g id="text_9">
      <!-- 0 -->
      <g transform="translate(40.504375 137.504447)scale(0.12 -0.12)">
       <use xlink:href="#DejaVuSans-48"/>
      </g>
     </g>
    </g>
    <g id="ytick_4">
     <g id="line2d_10">
      <g>
       <use style="stroke:#000000;stroke-width:0.8;" x="55.139375" xlink:href="#m767197e7fa" y="100.696321"/>
      </g>
     </g>
     <g id="text_10">
      <!-- 20 -->
      <g transform="translate(32.869375 105.255384)scale(0.12 -0.12)">
       <use xlink:href="#DejaVuSans-50"/>
       <use x="63.623047" xlink:href="#DejaVuSans-48"/>
      </g>
     </g>
    </g>
    <g id="ytick_5">
     <g id="line2d_11">
      <g>
       <use style="stroke:#000000;stroke-width:0.8;" x="55.139375" xlink:href="#m767197e7fa" y="68.447258"/>
      </g>
     </g>
     <g id="text_11">
      <!-- 40 -->
      <g transform="translate(32.869375 73.006321)scale(0.12 -0.12)">
       <use xlink:href="#DejaVuSans-52"/>
       <use x="63.623047" xlink:href="#DejaVuSans-48"/>
      </g>
     </g>
    </g>
    <g id="ytick_6">
     <g id="line2d_12">
      <g>
       <use style="stroke:#000000;stroke-width:0.8;" x="55.139375" xlink:href="#m767197e7fa" y="36.198195"/>
      </g>
     </g>
     <g id="text_12">
      <!-- 60 -->
      <g transform="translate(32.869375 40.757258)scale(0.12 -0.12)">
       <use xlink:href="#DejaVuSans-54"/>
       <use x="63.623047" xlink:href="#DejaVuSans-48"/>
      </g>
     </g>
    </g>
    <g id="text_13">
     <!-- f(x) -->
     <g transform="translate(16.318125 116.381676)rotate(-90)scale(0.12 -0.12)">
      <defs>
       <path d="M 37.109375 75.984375 
L 37.109375 68.5 
L 28.515625 68.5 
Q 23.6875 68.5 21.796875 66.546875 
Q 19.921875 64.59375 19.921875 59.515625 
L 19.921875 54.6875 
L 34.71875 54.6875 
L 34.71875 47.703125 
L 19.921875 47.703125 
L 19.921875 0 
L 10.890625 0 
L 10.890625 47.703125 
L 2.296875 47.703125 
L 2.296875 54.6875 
L 10.890625 54.6875 
L 10.890625 58.5 
Q 10.890625 67.625 15.140625 71.796875 
Q 19.390625 75.984375 28.609375 75.984375 
z
" id="DejaVuSans-102"/>
       <path d="M 31 75.875 
Q 24.46875 64.65625 21.28125 53.65625 
Q 18.109375 42.671875 18.109375 31.390625 
Q 18.109375 20.125 21.3125 9.0625 
Q 24.515625 -2 31 -13.1875 
L 23.1875 -13.1875 
Q 15.875 -1.703125 12.234375 9.375 
Q 8.59375 20.453125 8.59375 31.390625 
Q 8.59375 42.28125 12.203125 53.3125 
Q 15.828125 64.359375 23.1875 75.875 
z
" id="DejaVuSans-40"/>
       <path d="M 54.890625 54.6875 
L 35.109375 28.078125 
L 55.90625 0 
L 45.3125 0 
L 29.390625 21.484375 
L 13.484375 0 
L 2.875 0 
L 24.125 28.609375 
L 4.6875 54.6875 
L 15.28125 54.6875 
L 29.78125 35.203125 
L 44.28125 54.6875 
z
" id="DejaVuSans-120"/>
       <path d="M 8.015625 75.875 
L 15.828125 75.875 
Q 23.140625 64.359375 26.78125 53.3125 
Q 30.421875 42.28125 30.421875 31.390625 
Q 30.421875 20.453125 26.78125 9.375 
Q 23.140625 -1.703125 15.828125 -13.1875 
L 8.015625 -13.1875 
Q 14.5 -2 17.703125 9.0625 
Q 20.90625 20.125 20.90625 31.390625 
Q 20.90625 42.671875 17.703125 53.65625 
Q 14.5 64.65625 8.015625 75.875 
z
" id="DejaVuSans-41"/>
      </defs>
      <use xlink:href="#DejaVuSans-102"/>
      <use x="35.205078" xlink:href="#DejaVuSans-40"/>
      <use x="74.21875" xlink:href="#DejaVuSans-120"/>
      <use x="133.398438" xlink:href="#DejaVuSans-41"/>
     </g>
    </g>
   </g>
   <g id="line2d_13">
    <path clip-path="url(#pc6b6017b21)" d="M 75.430284 84.57179 
L 80.304977 84.45574 
L 85.17967 84.110936 
L 90.054363 83.54734 
L 95.33528 82.709005 
L 101.022422 81.573804 
L 107.522012 80.039339 
L 116.052725 77.776475 
L 131.895477 73.534067 
L 137.988843 72.14879 
L 143.26976 71.162843 
L 148.144453 70.477216 
L 152.612921 70.071021 
L 156.675165 69.908595 
L 160.737409 69.960389 
L 164.799653 70.240192 
L 168.861898 70.758689 
L 172.924142 71.523224 
L 176.986386 72.537599 
L 181.04863 73.801921 
L 185.110874 75.312498 
L 189.173118 77.061787 
L 193.641586 79.248005 
L 198.110055 81.688728 
L 202.984748 84.61108 
L 208.265665 88.036807 
L 214.765255 92.53612 
L 224.920866 99.894262 
L 234.670251 106.872909 
L 240.357393 110.689104 
L 245.232086 113.708296 
L 249.700554 116.21136 
L 253.762798 118.22432 
L 257.418818 119.791996 
L 261.074838 121.103539 
L 264.324633 122.036326 
L 267.574428 122.734949 
L 270.824223 123.186662 
L 273.667794 123.37056 
L 276.511365 123.350464 
L 279.354936 123.12105 
L 282.198507 122.678114 
L 285.042078 122.018619 
L 287.885649 121.140738 
L 290.729219 120.043882 
L 293.57279 118.728736 
L 296.822585 116.961001 
L 300.072381 114.915788 
L 303.322176 112.600345 
L 306.571971 110.024137 
L 310.227991 106.828804 
L 313.884011 103.338094 
L 317.946255 99.141384 
L 322.414723 94.180488 
L 327.289416 88.41972 
L 332.976558 81.342245 
L 341.101046 70.831712 
L 352.881554 55.589665 
L 358.568695 48.602184 
L 363.443388 42.975021 
L 367.505632 38.617763 
L 371.161652 35.003851 
L 374.411447 32.068926 
L 377.661242 29.422209 
L 380.504813 27.361994 
L 383.348384 25.556436 
L 386.191955 24.019691 
L 389.035526 22.764692 
L 391.472872 21.92208 
L 393.910219 21.301545 
L 396.347565 20.908814 
L 398.784911 20.748794 
L 401.222258 20.825538 
L 403.659604 21.142226 
L 406.096951 21.701134 
L 408.534297 22.503615 
L 410.971644 23.550085 
L 413.40899 24.840007 
L 415.846337 26.37188 
L 418.283683 28.143236 
L 421.127254 30.507858 
L 423.970825 33.186598 
L 426.814395 36.170549 
L 430.064191 39.940747 
L 433.313986 44.076927 
L 436.563781 48.557558 
L 440.219801 53.979653 
L 444.282045 60.432361 
L 448.750513 67.982957 
L 453.625206 76.662852 
L 459.718572 87.982644 
L 480.842242 127.709648 
L 481.248466 128.432217 
L 481.248466 128.432217 
" style="fill:none;stroke:#000000;stroke-linecap:square;stroke-width:1.5;"/>
   </g>
   <g id="line2d_14">
    <path clip-path="url(#pc6b6017b21)" d="M 75.430284 92.060454 
L 81.929875 91.561185 
L 88.023241 91.318724 
L 94.522831 91.298512 
L 102.241095 91.520708 
L 117.677622 92.273852 
L 127.427008 92.617552 
L 135.145272 92.678432 
L 142.457311 92.513317 
L 149.363126 92.139716 
L 156.675165 91.515732 
L 164.393429 90.632077 
L 175.361488 89.121417 
L 186.329547 87.659245 
L 192.016689 87.11691 
L 196.485157 86.893028 
L 200.547401 86.905875 
L 204.203421 87.141705 
L 207.453216 87.566254 
L 210.703011 88.225647 
L 213.546582 89.019341 
L 216.390153 90.035212 
L 219.233724 91.289584 
L 222.077295 92.794505 
L 224.920866 94.555714 
L 227.764436 96.570134 
L 231.014232 99.1627 
L 234.670251 102.398841 
L 239.13872 106.695624 
L 253.762798 121.09067 
L 257.012594 123.862967 
L 259.856165 126.035152 
L 262.699735 127.932036 
L 265.137082 129.318922 
L 267.574428 130.476291 
L 270.011775 131.403683 
L 272.449121 132.106613 
L 274.886468 132.594939 
L 277.323814 132.8817 
L 280.167385 132.981626 
L 283.010956 132.853694 
L 286.260751 132.46303 
L 289.510546 131.849958 
L 293.166566 130.942241 
L 297.635034 129.590747 
L 303.322176 127.607579 
L 312.259113 124.205951 
L 324.445845 119.607279 
L 331.757884 117.086429 
L 338.663699 114.939262 
L 345.16329 113.143174 
L 351.66288 111.565642 
L 358.568695 110.118538 
L 365.880735 108.823445 
L 373.598998 107.692337 
L 381.723486 106.728024 
L 390.660423 105.891802 
L 400.816033 105.171748 
L 412.596541 104.571962 
L 426.408171 104.10085 
L 443.875821 103.741313 
L 467.436836 103.496047 
L 481.248466 103.422407 
L 481.248466 103.422407 
" style="fill:none;stroke:#1f77b4;stroke-linecap:square;stroke-width:1.5;"/>
   </g>
   <g id="patch_3">
    <path d="M 55.139375 204.872727 
L 55.139375 7.2 
" style="fill:none;stroke:#000000;stroke-linecap:square;stroke-linejoin:miter;stroke-width:0.8;"/>
   </g>
   <g id="patch_4">
    <path d="M 501.539375 204.872727 
L 501.539375 7.2 
" style="fill:none;stroke:#000000;stroke-linecap:square;stroke-linejoin:miter;stroke-width:0.8;"/>
   </g>
   <g id="patch_5">
    <path d="M 55.139375 204.872727 
L 501.539375 204.872727 
" style="fill:none;stroke:#000000;stroke-linecap:square;stroke-linejoin:miter;stroke-width:0.8;"/>
   </g>
   <g id="patch_6">
    <path d="M 55.139375 7.2 
L 501.539375 7.2 
" style="fill:none;stroke:#000000;stroke-linecap:square;stroke-linejoin:miter;stroke-width:0.8;"/>
   </g>
   <g id="legend_1">
    <g id="patch_7">
     <path d="M 63.539375 198.872727 
L 141.254375 198.872727 
Q 143.654375 198.872727 143.654375 196.472727 
L 143.654375 144.831477 
Q 143.654375 142.431477 141.254375 142.431477 
L 63.539375 142.431477 
Q 61.139375 142.431477 61.139375 144.831477 
L 61.139375 196.472727 
Q 61.139375 198.872727 63.539375 198.872727 
z
" style="fill:#ffffff;opacity:0.8;stroke:#cccccc;stroke-linejoin:miter;"/>
    </g>
    <g id="line2d_15">
     <path d="M 65.939375 152.149602 
L 89.939375 152.149602 
" style="fill:none;stroke:#1f77b4;stroke-linecap:square;stroke-width:1.5;"/>
    </g>
    <g id="line2d_16"/>
    <g id="text_14">
     <!-- GP -->
     <g transform="translate(99.539375 156.349602)scale(0.12 -0.12)">
      <defs>
       <path d="M 59.515625 10.40625 
L 59.515625 29.984375 
L 43.40625 29.984375 
L 43.40625 38.09375 
L 69.28125 38.09375 
L 69.28125 6.78125 
Q 63.578125 2.734375 56.6875 0.65625 
Q 49.8125 -1.421875 42 -1.421875 
Q 24.90625 -1.421875 15.25 8.5625 
Q 5.609375 18.5625 5.609375 36.375 
Q 5.609375 54.25 15.25 64.234375 
Q 24.90625 74.21875 42 74.21875 
Q 49.125 74.21875 55.546875 72.453125 
Q 61.96875 70.703125 67.390625 67.28125 
L 67.390625 56.78125 
Q 61.921875 61.421875 55.765625 63.765625 
Q 49.609375 66.109375 42.828125 66.109375 
Q 29.4375 66.109375 22.71875 58.640625 
Q 16.015625 51.171875 16.015625 36.375 
Q 16.015625 21.625 22.71875 14.15625 
Q 29.4375 6.6875 42.828125 6.6875 
Q 48.046875 6.6875 52.140625 7.59375 
Q 56.25 8.5 59.515625 10.40625 
z
" id="DejaVuSans-71"/>
       <path d="M 19.671875 64.796875 
L 19.671875 37.40625 
L 32.078125 37.40625 
Q 38.96875 37.40625 42.71875 40.96875 
Q 46.484375 44.53125 46.484375 51.125 
Q 46.484375 57.671875 42.71875 61.234375 
Q 38.96875 64.796875 32.078125 64.796875 
z
M 9.8125 72.90625 
L 32.078125 72.90625 
Q 44.34375 72.90625 50.609375 67.359375 
Q 56.890625 61.8125 56.890625 51.125 
Q 56.890625 40.328125 50.609375 34.8125 
Q 44.34375 29.296875 32.078125 29.296875 
L 19.671875 29.296875 
L 19.671875 0 
L 9.8125 0 
z
" id="DejaVuSans-80"/>
      </defs>
      <use xlink:href="#DejaVuSans-71"/>
      <use x="77.490234" xlink:href="#DejaVuSans-80"/>
     </g>
    </g>
    <g id="PathCollection_3">
     <g>
      <use style="stroke:#000000;" x="77.939375" xlink:href="#m1ad1d842a5" y="170.813352"/>
     </g>
    </g>
    <g id="text_15">
     <!-- known -->
     <g transform="translate(99.539375 173.963352)scale(0.12 -0.12)">
      <defs>
       <path d="M 9.078125 75.984375 
L 18.109375 75.984375 
L 18.109375 31.109375 
L 44.921875 54.6875 
L 56.390625 54.6875 
L 27.390625 29.109375 
L 57.625 0 
L 45.90625 0 
L 18.109375 26.703125 
L 18.109375 0 
L 9.078125 0 
z
" id="DejaVuSans-107"/>
       <path d="M 54.890625 33.015625 
L 54.890625 0 
L 45.90625 0 
L 45.90625 32.71875 
Q 45.90625 40.484375 42.875 44.328125 
Q 39.84375 48.1875 33.796875 48.1875 
Q 26.515625 48.1875 22.3125 43.546875 
Q 18.109375 38.921875 18.109375 30.90625 
L 18.109375 0 
L 9.078125 0 
L 9.078125 54.6875 
L 18.109375 54.6875 
L 18.109375 46.1875 
Q 21.34375 51.125 25.703125 53.5625 
Q 30.078125 56 35.796875 56 
Q 45.21875 56 50.046875 50.171875 
Q 54.890625 44.34375 54.890625 33.015625 
z
" id="DejaVuSans-110"/>
       <path d="M 30.609375 48.390625 
Q 23.390625 48.390625 19.1875 42.75 
Q 14.984375 37.109375 14.984375 27.296875 
Q 14.984375 17.484375 19.15625 11.84375 
Q 23.34375 6.203125 30.609375 6.203125 
Q 37.796875 6.203125 41.984375 11.859375 
Q 46.1875 17.53125 46.1875 27.296875 
Q 46.1875 37.015625 41.984375 42.703125 
Q 37.796875 48.390625 30.609375 48.390625 
z
M 30.609375 56 
Q 42.328125 56 49.015625 48.375 
Q 55.71875 40.765625 55.71875 27.296875 
Q 55.71875 13.875 49.015625 6.21875 
Q 42.328125 -1.421875 30.609375 -1.421875 
Q 18.84375 -1.421875 12.171875 6.21875 
Q 5.515625 13.875 5.515625 27.296875 
Q 5.515625 40.765625 12.171875 48.375 
Q 18.84375 56 30.609375 56 
z
" id="DejaVuSans-111"/>
       <path d="M 4.203125 54.6875 
L 13.1875 54.6875 
L 24.421875 12.015625 
L 35.59375 54.6875 
L 46.1875 54.6875 
L 57.421875 12.015625 
L 68.609375 54.6875 
L 77.59375 54.6875 
L 63.28125 0 
L 52.6875 0 
L 40.921875 44.828125 
L 29.109375 0 
L 18.5 0 
z
" id="DejaVuSans-119"/>
      </defs>
      <use xlink:href="#DejaVuSans-107"/>
      <use x="57.910156" xlink:href="#DejaVuSans-110"/>
      <use x="121.289062" xlink:href="#DejaVuSans-111"/>
      <use x="182.470703" xlink:href="#DejaVuSans-119"/>
      <use x="264.257812" xlink:href="#DejaVuSans-110"/>
     </g>
    </g>
    <g id="PathCollection_4">
     <g>
      <use style="fill:#ff0000;stroke:#ff0000;" x="77.939375" xlink:href="#m47281fbb2f" y="188.427102"/>
     </g>
    </g>
    <g id="text_16">
     <!-- next -->
     <g transform="translate(99.539375 191.577102)scale(0.12 -0.12)">
      <defs>
       <path d="M 56.203125 29.59375 
L 56.203125 25.203125 
L 14.890625 25.203125 
Q 15.484375 15.921875 20.484375 11.0625 
Q 25.484375 6.203125 34.421875 6.203125 
Q 39.59375 6.203125 44.453125 7.46875 
Q 49.3125 8.734375 54.109375 11.28125 
L 54.109375 2.78125 
Q 49.265625 0.734375 44.1875 -0.34375 
Q 39.109375 -1.421875 33.890625 -1.421875 
Q 20.796875 -1.421875 13.15625 6.1875 
Q 5.515625 13.8125 5.515625 26.8125 
Q 5.515625 40.234375 12.765625 48.109375 
Q 20.015625 56 32.328125 56 
Q 43.359375 56 49.78125 48.890625 
Q 56.203125 41.796875 56.203125 29.59375 
z
M 47.21875 32.234375 
Q 47.125 39.59375 43.09375 43.984375 
Q 39.0625 48.390625 32.421875 48.390625 
Q 24.90625 48.390625 20.390625 44.140625 
Q 15.875 39.890625 15.1875 32.171875 
z
" id="DejaVuSans-101"/>
       <path d="M 18.3125 70.21875 
L 18.3125 54.6875 
L 36.8125 54.6875 
L 36.8125 47.703125 
L 18.3125 47.703125 
L 18.3125 18.015625 
Q 18.3125 11.328125 20.140625 9.421875 
Q 21.96875 7.515625 27.59375 7.515625 
L 36.8125 7.515625 
L 36.8125 0 
L 27.59375 0 
Q 17.1875 0 13.234375 3.875 
Q 9.28125 7.765625 9.28125 18.015625 
L 9.28125 47.703125 
L 2.6875 47.703125 
L 2.6875 54.6875 
L 9.28125 54.6875 
L 9.28125 70.21875 
z
" id="DejaVuSans-116"/>
      </defs>
      <use xlink:href="#DejaVuSans-110"/>
      <use x="63.378906" xlink:href="#DejaVuSans-101"/>
      <use x="123.152344" xlink:href="#DejaVuSans-120"/>
      <use x="182.332031" xlink:href="#DejaVuSans-116"/>
     </g>
    </g>
   </g>
  </g>
  <g id="axes_2">
   <g id="patch_8">
    <path d="M 55.139375 442.08 
L 501.539375 442.08 
L 501.539375 244.407273 
L 55.139375 244.407273 
z
" style="fill:#ffffff;"/>
   </g>
   <g id="matplotlib.axis_3">
    <g id="xtick_7">
     <g id="line2d_17">
      <g>
       <use style="stroke:#000000;stroke-width:0.8;" x="75.430284" xlink:href="#m60c0d114e5" y="442.08"/>
      </g>
     </g>
     <g id="text_17">
      <!-- 0.0 -->
      <g transform="translate(65.888409 458.198125)scale(0.12 -0.12)">
       <defs>
        <path d="M 10.6875 12.40625 
L 21 12.40625 
L 21 0 
L 10.6875 0 
z
" id="DejaVuSans-46"/>
       </defs>
       <use xlink:href="#DejaVuSans-48"/>
       <use x="63.623047" xlink:href="#DejaVuSans-46"/>
       <use x="95.410156" xlink:href="#DejaVuSans-48"/>
      </g>
     </g>
    </g>
    <g id="xtick_8">
     <g id="line2d_18">
      <g>
       <use style="stroke:#000000;stroke-width:0.8;" x="156.59392" xlink:href="#m60c0d114e5" y="442.08"/>
      </g>
     </g>
     <g id="text_18">
      <!-- 0.2 -->
      <g transform="translate(147.052045 458.198125)scale(0.12 -0.12)">
       <use xlink:href="#DejaVuSans-48"/>
       <use x="63.623047" xlink:href="#DejaVuSans-46"/>
       <use x="95.410156" xlink:href="#DejaVuSans-50"/>
      </g>
     </g>
    </g>
    <g id="xtick_9">
     <g id="line2d_19">
      <g>
       <use style="stroke:#000000;stroke-width:0.8;" x="237.757557" xlink:href="#m60c0d114e5" y="442.08"/>
      </g>
     </g>
     <g id="text_19">
      <!-- 0.4 -->
      <g transform="translate(228.215682 458.198125)scale(0.12 -0.12)">
       <use xlink:href="#DejaVuSans-48"/>
       <use x="63.623047" xlink:href="#DejaVuSans-46"/>
       <use x="95.410156" xlink:href="#DejaVuSans-52"/>
      </g>
     </g>
    </g>
    <g id="xtick_10">
     <g id="line2d_20">
      <g>
       <use style="stroke:#000000;stroke-width:0.8;" x="318.921193" xlink:href="#m60c0d114e5" y="442.08"/>
      </g>
     </g>
     <g id="text_20">
      <!-- 0.6 -->
      <g transform="translate(309.379318 458.198125)scale(0.12 -0.12)">
       <use xlink:href="#DejaVuSans-48"/>
       <use x="63.623047" xlink:href="#DejaVuSans-46"/>
       <use x="95.410156" xlink:href="#DejaVuSans-54"/>
      </g>
     </g>
    </g>
    <g id="xtick_11">
     <g id="line2d_21">
      <g>
       <use style="stroke:#000000;stroke-width:0.8;" x="400.08483" xlink:href="#m60c0d114e5" y="442.08"/>
      </g>
     </g>
     <g id="text_21">
      <!-- 0.8 -->
      <g transform="translate(390.542955 458.198125)scale(0.12 -0.12)">
       <use xlink:href="#DejaVuSans-48"/>
       <use x="63.623047" xlink:href="#DejaVuSans-46"/>
       <use x="95.410156" xlink:href="#DejaVuSans-56"/>
      </g>
     </g>
    </g>
    <g id="xtick_12">
     <g id="line2d_22">
      <g>
       <use style="stroke:#000000;stroke-width:0.8;" x="481.248466" xlink:href="#m60c0d114e5" y="442.08"/>
      </g>
     </g>
     <g id="text_22">
      <!-- 1.0 -->
      <g transform="translate(471.706591 458.198125)scale(0.12 -0.12)">
       <use xlink:href="#DejaVuSans-49"/>
       <use x="63.623047" xlink:href="#DejaVuSans-46"/>
       <use x="95.410156" xlink:href="#DejaVuSans-48"/>
      </g>
     </g>
    </g>
    <g id="text_23">
     <!-- x -->
     <g transform="translate(274.788125 473.811875)scale(0.12 -0.12)">
      <use xlink:href="#DejaVuSans-120"/>
     </g>
    </g>
   </g>
   <g id="matplotlib.axis_4">
    <g id="ytick_7">
     <g id="line2d_23">
      <g>
       <use style="stroke:#000000;stroke-width:0.8;" x="55.139375" xlink:href="#m767197e7fa" y="433.094876"/>
      </g>
     </g>
     <g id="text_24">
      <!-- 0.0 -->
      <g transform="translate(29.055625 437.653939)scale(0.12 -0.12)">
       <use xlink:href="#DejaVuSans-48"/>
       <use x="63.623047" xlink:href="#DejaVuSans-46"/>
       <use x="95.410156" xlink:href="#DejaVuSans-48"/>
      </g>
     </g>
    </g>
    <g id="ytick_8">
     <g id="line2d_24">
      <g>
       <use style="stroke:#000000;stroke-width:0.8;" x="55.139375" xlink:href="#m767197e7fa" y="392.095421"/>
      </g>
     </g>
     <g id="text_25">
      <!-- 0.2 -->
      <g transform="translate(29.055625 396.654484)scale(0.12 -0.12)">
       <use xlink:href="#DejaVuSans-48"/>
       <use x="63.623047" xlink:href="#DejaVuSans-46"/>
       <use x="95.410156" xlink:href="#DejaVuSans-50"/>
      </g>
     </g>
    </g>
    <g id="ytick_9">
     <g id="line2d_25">
      <g>
       <use style="stroke:#000000;stroke-width:0.8;" x="55.139375" xlink:href="#m767197e7fa" y="351.095967"/>
      </g>
     </g>
     <g id="text_26">
      <!-- 0.4 -->
      <g transform="translate(29.055625 355.655029)scale(0.12 -0.12)">
       <use xlink:href="#DejaVuSans-48"/>
       <use x="63.623047" xlink:href="#DejaVuSans-46"/>
       <use x="95.410156" xlink:href="#DejaVuSans-52"/>
      </g>
     </g>
    </g>
    <g id="ytick_10">
     <g id="line2d_26">
      <g>
       <use style="stroke:#000000;stroke-width:0.8;" x="55.139375" xlink:href="#m767197e7fa" y="310.096512"/>
      </g>
     </g>
     <g id="text_27">
      <!-- 0.6 -->
      <g transform="translate(29.055625 314.655575)scale(0.12 -0.12)">
       <use xlink:href="#DejaVuSans-48"/>
       <use x="63.623047" xlink:href="#DejaVuSans-46"/>
       <use x="95.410156" xlink:href="#DejaVuSans-54"/>
      </g>
     </g>
    </g>
    <g id="ytick_11">
     <g id="line2d_27">
      <g>
       <use style="stroke:#000000;stroke-width:0.8;" x="55.139375" xlink:href="#m767197e7fa" y="269.097057"/>
      </g>
     </g>
     <g id="text_28">
      <!-- 0.8 -->
      <g transform="translate(29.055625 273.65612)scale(0.12 -0.12)">
       <use xlink:href="#DejaVuSans-48"/>
       <use x="63.623047" xlink:href="#DejaVuSans-46"/>
       <use x="95.410156" xlink:href="#DejaVuSans-56"/>
      </g>
     </g>
    </g>
    <g id="text_29">
     <!-- Acquisition Function -->
     <g transform="translate(22.56 403.530511)rotate(-90)scale(0.12 -0.12)">
      <defs>
       <path d="M 34.1875 63.1875 
L 20.796875 26.90625 
L 47.609375 26.90625 
z
M 28.609375 72.90625 
L 39.796875 72.90625 
L 67.578125 0 
L 57.328125 0 
L 50.6875 18.703125 
L 17.828125 18.703125 
L 11.1875 0 
L 0.78125 0 
z
" id="DejaVuSans-65"/>
       <path d="M 48.78125 52.59375 
L 48.78125 44.1875 
Q 44.96875 46.296875 41.140625 47.34375 
Q 37.3125 48.390625 33.40625 48.390625 
Q 24.65625 48.390625 19.8125 42.84375 
Q 14.984375 37.3125 14.984375 27.296875 
Q 14.984375 17.28125 19.8125 11.734375 
Q 24.65625 6.203125 33.40625 6.203125 
Q 37.3125 6.203125 41.140625 7.25 
Q 44.96875 8.296875 48.78125 10.40625 
L 48.78125 2.09375 
Q 45.015625 0.34375 40.984375 -0.53125 
Q 36.96875 -1.421875 32.421875 -1.421875 
Q 20.0625 -1.421875 12.78125 6.34375 
Q 5.515625 14.109375 5.515625 27.296875 
Q 5.515625 40.671875 12.859375 48.328125 
Q 20.21875 56 33.015625 56 
Q 37.15625 56 41.109375 55.140625 
Q 45.0625 54.296875 48.78125 52.59375 
z
" id="DejaVuSans-99"/>
       <path d="M 14.796875 27.296875 
Q 14.796875 17.390625 18.875 11.75 
Q 22.953125 6.109375 30.078125 6.109375 
Q 37.203125 6.109375 41.296875 11.75 
Q 45.40625 17.390625 45.40625 27.296875 
Q 45.40625 37.203125 41.296875 42.84375 
Q 37.203125 48.484375 30.078125 48.484375 
Q 22.953125 48.484375 18.875 42.84375 
Q 14.796875 37.203125 14.796875 27.296875 
z
M 45.40625 8.203125 
Q 42.578125 3.328125 38.25 0.953125 
Q 33.9375 -1.421875 27.875 -1.421875 
Q 17.96875 -1.421875 11.734375 6.484375 
Q 5.515625 14.40625 5.515625 27.296875 
Q 5.515625 40.1875 11.734375 48.09375 
Q 17.96875 56 27.875 56 
Q 33.9375 56 38.25 53.625 
Q 42.578125 51.265625 45.40625 46.390625 
L 45.40625 54.6875 
L 54.390625 54.6875 
L 54.390625 -20.796875 
L 45.40625 -20.796875 
z
" id="DejaVuSans-113"/>
       <path d="M 8.5 21.578125 
L 8.5 54.6875 
L 17.484375 54.6875 
L 17.484375 21.921875 
Q 17.484375 14.15625 20.5 10.265625 
Q 23.53125 6.390625 29.59375 6.390625 
Q 36.859375 6.390625 41.078125 11.03125 
Q 45.3125 15.671875 45.3125 23.6875 
L 45.3125 54.6875 
L 54.296875 54.6875 
L 54.296875 0 
L 45.3125 0 
L 45.3125 8.40625 
Q 42.046875 3.421875 37.71875 1 
Q 33.40625 -1.421875 27.6875 -1.421875 
Q 18.265625 -1.421875 13.375 4.4375 
Q 8.5 10.296875 8.5 21.578125 
z
M 31.109375 56 
z
" id="DejaVuSans-117"/>
       <path d="M 9.421875 54.6875 
L 18.40625 54.6875 
L 18.40625 0 
L 9.421875 0 
z
M 9.421875 75.984375 
L 18.40625 75.984375 
L 18.40625 64.59375 
L 9.421875 64.59375 
z
" id="DejaVuSans-105"/>
       <path d="M 44.28125 53.078125 
L 44.28125 44.578125 
Q 40.484375 46.53125 36.375 47.5 
Q 32.28125 48.484375 27.875 48.484375 
Q 21.1875 48.484375 17.84375 46.4375 
Q 14.5 44.390625 14.5 40.28125 
Q 14.5 37.15625 16.890625 35.375 
Q 19.28125 33.59375 26.515625 31.984375 
L 29.59375 31.296875 
Q 39.15625 29.25 43.1875 25.515625 
Q 47.21875 21.78125 47.21875 15.09375 
Q 47.21875 7.46875 41.1875 3.015625 
Q 35.15625 -1.421875 24.609375 -1.421875 
Q 20.21875 -1.421875 15.453125 -0.5625 
Q 10.6875 0.296875 5.421875 2 
L 5.421875 11.28125 
Q 10.40625 8.6875 15.234375 7.390625 
Q 20.0625 6.109375 24.8125 6.109375 
Q 31.15625 6.109375 34.5625 8.28125 
Q 37.984375 10.453125 37.984375 14.40625 
Q 37.984375 18.0625 35.515625 20.015625 
Q 33.0625 21.96875 24.703125 23.78125 
L 21.578125 24.515625 
Q 13.234375 26.265625 9.515625 29.90625 
Q 5.8125 33.546875 5.8125 39.890625 
Q 5.8125 47.609375 11.28125 51.796875 
Q 16.75 56 26.8125 56 
Q 31.78125 56 36.171875 55.265625 
Q 40.578125 54.546875 44.28125 53.078125 
z
" id="DejaVuSans-115"/>
       <path id="DejaVuSans-32"/>
       <path d="M 9.8125 72.90625 
L 51.703125 72.90625 
L 51.703125 64.59375 
L 19.671875 64.59375 
L 19.671875 43.109375 
L 48.578125 43.109375 
L 48.578125 34.8125 
L 19.671875 34.8125 
L 19.671875 0 
L 9.8125 0 
z
" id="DejaVuSans-70"/>
      </defs>
      <use xlink:href="#DejaVuSans-65"/>
      <use x="66.658203" xlink:href="#DejaVuSans-99"/>
      <use x="121.638672" xlink:href="#DejaVuSans-113"/>
      <use x="185.115234" xlink:href="#DejaVuSans-117"/>
      <use x="248.494141" xlink:href="#DejaVuSans-105"/>
      <use x="276.277344" xlink:href="#DejaVuSans-115"/>
      <use x="328.376953" xlink:href="#DejaVuSans-105"/>
      <use x="356.160156" xlink:href="#DejaVuSans-116"/>
      <use x="395.369141" xlink:href="#DejaVuSans-105"/>
      <use x="423.152344" xlink:href="#DejaVuSans-111"/>
      <use x="484.333984" xlink:href="#DejaVuSans-110"/>
      <use x="547.712891" xlink:href="#DejaVuSans-32"/>
      <use x="579.5" xlink:href="#DejaVuSans-70"/>
      <use x="631.519531" xlink:href="#DejaVuSans-117"/>
      <use x="694.898438" xlink:href="#DejaVuSans-110"/>
      <use x="758.277344" xlink:href="#DejaVuSans-99"/>
      <use x="813.257812" xlink:href="#DejaVuSans-116"/>
      <use x="852.466797" xlink:href="#DejaVuSans-105"/>
      <use x="880.25" xlink:href="#DejaVuSans-111"/>
      <use x="941.431641" xlink:href="#DejaVuSans-110"/>
     </g>
    </g>
   </g>
   <g id="line2d_28">
    <path clip-path="url(#p4bcd30e519)" d="M 75.430284 382.657115 
L 80.304977 400.959113 
L 81.929875 406.231027 
L 83.148548 409.397651 
L 83.960997 410.92734 
L 84.773445 411.846211 
L 85.17967 412.04443 
L 85.585894 412.05744 
L 85.992119 411.88043 
L 86.398343 411.518017 
L 87.210792 410.270204 
L 88.023241 408.410303 
L 89.241914 404.745302 
L 90.866812 398.80937 
L 93.304158 388.839435 
L 100.209973 360.10968 
L 103.459768 347.659194 
L 106.303339 337.557609 
L 109.14691 328.230283 
L 111.990481 319.675747 
L 114.834051 311.871617 
L 117.677622 304.782421 
L 120.521193 298.364713 
L 123.364764 292.570331 
L 126.208335 287.349127 
L 129.051906 282.651132 
L 131.895477 278.428015 
L 134.739047 274.634353 
L 137.582618 271.228682 
L 140.426189 268.174259 
L 143.26976 265.439799 
L 146.113331 263.000144 
L 148.956902 260.836468 
L 151.800472 258.937029 
L 154.644043 257.297311 
L 157.487614 255.920583 
L 160.331185 254.818215 
L 162.768531 254.106344 
L 165.205878 253.627904 
L 167.643224 253.40524 
L 169.674346 253.434589 
L 171.705468 253.679033 
L 173.73659 254.159515 
L 175.767712 254.899617 
L 177.798834 255.925418 
L 179.423732 256.970862 
L 181.04863 258.233186 
L 182.673527 259.729175 
L 184.298425 261.476587 
L 185.923323 263.494137 
L 187.54822 265.80139 
L 189.579342 269.123923 
L 191.610464 272.97233 
L 193.641586 277.389326 
L 195.672708 282.41854 
L 197.70383 288.103834 
L 199.734952 294.488421 
L 201.766074 301.61368 
L 203.797196 309.517706 
L 205.828318 318.23248 
L 208.265665 329.791766 
L 210.703011 342.560087 
L 213.140358 356.490929 
L 215.983929 374.000304 
L 221.67107 409.63638 
L 222.889744 416.070286 
L 224.108417 421.408545 
L 224.920866 424.222048 
L 225.733314 426.408575 
L 226.545763 428.011572 
L 227.358212 429.125038 
L 228.170661 429.865203 
L 228.98311 430.341795 
L 230.201783 430.747708 
L 231.82668 430.995853 
L 239.13872 431.766858 
L 246.450759 432.851269 
L 249.700554 433.046455 
L 255.387696 433.094774 
L 278.948712 432.995988 
L 281.386058 432.740781 
L 283.41718 432.302359 
L 285.042078 431.754591 
L 286.666975 431.003477 
L 288.291873 430.032793 
L 289.916771 428.835216 
L 291.947893 427.020432 
L 293.979015 424.866423 
L 296.010137 422.398158 
L 298.447483 419.066393 
L 301.291054 414.74764 
L 304.540849 409.366222 
L 308.603093 402.180844 
L 315.915133 388.688709 
L 323.227172 375.380268 
L 328.101865 366.965313 
L 332.570333 359.702304 
L 336.632577 353.52294 
L 340.694821 347.769796 
L 344.350841 342.962772 
L 348.006861 338.504821 
L 351.66288 334.388302 
L 355.3189 330.601515 
L 358.97492 327.129911 
L 362.630939 323.957081 
L 366.286959 321.065409 
L 369.942979 318.436698 
L 374.005223 315.802068 
L 378.067467 313.444725 
L 382.129711 311.340596 
L 386.598179 309.291234 
L 391.066648 307.491766 
L 395.941341 305.782337 
L 400.816033 304.306617 
L 406.096951 302.938231 
L 411.784092 301.695874 
L 417.877459 300.591013 
L 424.783273 299.574596 
L 432.501537 298.679588 
L 441.03225 297.923844 
L 450.781635 297.28876 
L 462.562143 296.757258 
L 476.779997 296.348554 
L 481.248466 296.257163 
L 481.248466 296.257163 
" style="fill:none;stroke:#1f77b4;stroke-linecap:square;stroke-width:1.5;"/>
   </g>
   <g id="line2d_29">
    <path clip-path="url(#p4bcd30e519)" d="M 75.430284 387.889338 
L 78.273855 388.038679 
L 81.117426 387.976228 
L 83.960997 387.698238 
L 86.804567 387.20749 
L 90.054363 386.398599 
L 93.304158 385.351011 
L 96.960178 383.934115 
L 101.428646 381.952087 
L 117.271398 374.651523 
L 121.333642 373.165731 
L 124.989662 372.086343 
L 128.239457 371.36471 
L 131.489252 370.890218 
L 134.332823 370.691345 
L 137.176394 370.704472 
L 140.019965 370.936168 
L 142.863536 371.39076 
L 145.707106 372.070262 
L 148.550677 372.975681 
L 151.394248 374.105323 
L 154.237819 375.455045 
L 157.487614 377.260492 
L 160.737409 379.335107 
L 163.987205 381.664707 
L 167.643224 384.568961 
L 171.705468 388.113698 
L 176.173937 392.346933 
L 181.04863 397.280459 
L 188.360669 405.043946 
L 196.485157 413.608845 
L 200.953626 417.986089 
L 204.609645 421.249142 
L 207.859441 423.840179 
L 210.703011 425.832133 
L 213.546582 427.54698 
L 216.390153 428.978328 
L 219.233724 430.132672 
L 222.077295 431.029736 
L 224.920866 431.699817 
L 228.170661 432.235754 
L 231.82668 432.616347 
L 236.701373 432.884459 
L 244.013413 433.031989 
L 261.074838 433.080884 
L 290.322995 432.975316 
L 302.509727 432.724375 
L 311.852889 432.320223 
L 319.977377 431.752424 
L 327.289416 431.030527 
L 334.601455 430.083826 
L 341.50727 428.970024 
L 348.413085 427.637786 
L 355.3189 426.089146 
L 362.630939 424.222196 
L 370.349203 422.01427 
L 378.473691 419.451571 
L 387.410628 416.386289 
L 397.160014 412.798861 
L 408.534297 408.369057 
L 423.5646 402.25826 
L 465.811938 384.943613 
L 480.029793 379.442342 
L 481.248466 378.983456 
L 481.248466 378.983456 
" style="fill:none;stroke:#ff7f0e;stroke-linecap:square;stroke-width:1.5;"/>
   </g>
   <g id="line2d_30">
    <path clip-path="url(#p4bcd30e519)" d="M 75.430284 401.433102 
L 78.273855 402.060542 
L 81.117426 402.467779 
L 83.960997 402.643619 
L 86.804567 402.584457 
L 89.648138 402.293073 
L 92.491709 401.784916 
L 95.741504 400.966613 
L 99.397524 399.797885 
L 103.865993 398.116324 
L 111.990481 394.762148 
L 118.896296 392.015277 
L 124.177213 390.148509 
L 129.051906 388.664601 
L 133.520374 387.530211 
L 137.988843 386.631309 
L 142.051087 386.038087 
L 145.707106 385.705888 
L 149.363126 385.585405 
L 153.019146 385.697663 
L 156.268941 386.011163 
L 159.518736 386.541726 
L 162.768531 387.305122 
L 166.018327 388.316033 
L 168.861898 389.416409 
L 171.705468 390.727928 
L 174.549039 392.26091 
L 177.39261 394.021633 
L 180.236181 396.015092 
L 183.485976 398.577068 
L 186.735771 401.427959 
L 190.391791 404.945664 
L 194.86026 409.588827 
L 206.234543 421.625998 
L 209.484338 424.610187 
L 211.921685 426.578343 
L 214.359031 428.273879 
L 216.796377 429.676142 
L 219.233724 430.783189 
L 221.67107 431.612344 
L 224.108417 432.197785 
L 226.951988 432.633772 
L 230.201783 432.901986 
L 235.076476 433.053092 
L 246.450759 433.094256 
L 310.634215 432.999568 
L 322.414723 432.751465 
L 331.757884 432.336572 
L 339.882373 431.756129 
L 347.600636 430.977114 
L 354.912676 430.012356 
L 362.224715 428.8155 
L 369.536754 427.383803 
L 376.848794 425.722096 
L 384.567057 423.730972 
L 392.691545 421.392784 
L 401.222258 418.700086 
L 410.565419 415.513769 
L 421.127254 411.674316 
L 434.532659 406.547786 
L 458.499899 397.080415 
L 478.811119 389.164063 
L 481.248466 388.237184 
L 481.248466 388.237184 
" style="fill:none;stroke:#2ca02c;stroke-linecap:square;stroke-width:1.5;"/>
   </g>
   <g id="patch_9">
    <path d="M 55.139375 442.08 
L 55.139375 244.407273 
" style="fill:none;stroke:#000000;stroke-linecap:square;stroke-linejoin:miter;stroke-width:0.8;"/>
   </g>
   <g id="patch_10">
    <path d="M 501.539375 442.08 
L 501.539375 244.407273 
" style="fill:none;stroke:#000000;stroke-linecap:square;stroke-linejoin:miter;stroke-width:0.8;"/>
   </g>
   <g id="patch_11">
    <path d="M 55.139375 442.08 
L 501.539375 442.08 
" style="fill:none;stroke:#000000;stroke-linecap:square;stroke-linejoin:miter;stroke-width:0.8;"/>
   </g>
   <g id="patch_12">
    <path d="M 55.139375 244.407273 
L 501.539375 244.407273 
" style="fill:none;stroke:#000000;stroke-linecap:square;stroke-linejoin:miter;stroke-width:0.8;"/>
   </g>
  </g>
 </g>
 <defs>
  <clipPath id="pc6b6017b21">
   <rect height="197.672727" width="446.4" x="55.139375" y="7.2"/>
  </clipPath>
  <clipPath id="p4bcd30e519">
   <rect height="197.672727" width="446.4" x="55.139375" y="244.407273"/>
  </clipPath>
 </defs>
</svg>
