<?xml version="1.0" encoding="utf-8" standalone="no"?>
<!DOCTYPE svg PUBLIC "-//W3C//DTD SVG 1.1//EN"
  "http://www.w3.org/Graphics/SVG/1.1/DTD/svg11.dtd">
<!-- Created with matplotlib (https://matplotlib.org/) -->
<svg height="483.5075pt" version="1.1" viewBox="0 0 517.7675 483.5075" width="517.7675pt" xmlns="http://www.w3.org/2000/svg" xmlns:xlink="http://www.w3.org/1999/xlink">
 <metadata>
  <rdf:RDF xmlns:cc="http://creativecommons.org/ns#" xmlns:dc="http://purl.org/dc/elements/1.1/" xmlns:rdf="http://www.w3.org/1999/02/22-rdf-syntax-ns#">
   <cc:Work>
    <dc:type rdf:resource="http://purl.org/dc/dcmitype/StillImage"/>
    <dc:date>2020-10-04T17:41:39.049519</dc:date>
    <dc:format>image/svg+xml</dc:format>
    <dc:creator>
     <cc:Agent>
      <dc:title>Matplotlib v3.3.1, https://matplotlib.org/</dc:title>
     </cc:Agent>
    </dc:creator>
   </cc:Work>
  </rdf:RDF>
 </metadata>
 <defs>
  <style type="text/css">*{stroke-linecap:butt;stroke-linejoin:round;}</style>
 </defs>
 <g id="figure_1">
  <g id="patch_1">
   <path d="M 0 483.5075 
L 517.7675 483.5075 
L 517.7675 0 
L 0 0 
z
" style="fill:none;"/>
  </g>
  <g id="axes_1">
   <g id="patch_2">
    <path d="M 64.1675 204.872727 
L 510.5675 204.872727 
L 510.5675 7.2 
L 64.1675 7.2 
z
" style="fill:#ffffff;"/>
   </g>
   <g id="PolyCollection_1">
    <path clip-path="url(#p4cbdc6056c)" d="M 84.458409 62.460983 
L 84.458409 131.448279 
L 84.864633 131.473795 
L 85.270858 131.499434 
L 85.677082 131.525196 
L 86.083307 131.551079 
L 86.489531 131.577086 
L 86.895756 131.603214 
L 87.30198 131.629465 
L 87.708204 131.655838 
L 88.114429 131.682334 
L 88.520653 131.708951 
L 88.926878 131.735692 
L 89.333102 131.762554 
L 89.739326 131.789539 
L 90.145551 131.816646 
L 90.551775 131.843875 
L 90.958 131.871226 
L 91.364224 131.8987 
L 91.770448 131.926296 
L 92.176673 131.954014 
L 92.582897 131.981854 
L 92.989122 132.009817 
L 93.395346 132.037901 
L 93.80157 132.066108 
L 94.207795 132.094436 
L 94.614019 132.122887 
L 95.020244 132.151459 
L 95.426468 132.180154 
L 95.832692 132.20897 
L 96.238917 132.237908 
L 96.645141 132.266968 
L 97.051366 132.29615 
L 97.45759 132.325454 
L 97.863814 132.354879 
L 98.270039 132.384426 
L 98.676263 132.414095 
L 99.082488 132.443885 
L 99.488712 132.473797 
L 99.894937 132.50383 
L 100.301161 132.533985 
L 100.707385 132.564261 
L 101.11361 132.594658 
L 101.519834 132.625177 
L 101.926059 132.655817 
L 102.332283 132.686578 
L 102.738507 132.71746 
L 103.144732 132.748464 
L 103.550956 132.779588 
L 103.957181 132.810833 
L 104.363405 132.842199 
L 104.769629 132.873687 
L 105.175854 132.905294 
L 105.582078 132.937023 
L 105.988303 132.968872 
L 106.394527 133.000842 
L 106.800751 133.032932 
L 107.206976 133.065143 
L 107.6132 133.097474 
L 108.019425 133.129925 
L 108.425649 133.162497 
L 108.831873 133.195188 
L 109.238098 133.228 
L 109.644322 133.260932 
L 110.050547 133.293984 
L 110.456771 133.327155 
L 110.862995 133.360446 
L 111.26922 133.393857 
L 111.675444 133.427388 
L 112.081669 133.461038 
L 112.487893 133.494807 
L 112.894118 133.528696 
L 113.300342 133.562704 
L 113.706566 133.596832 
L 114.112791 133.631078 
L 114.519015 133.665443 
L 114.92524 133.699928 
L 115.331464 133.734531 
L 115.737688 133.769252 
L 116.143913 133.804093 
L 116.550137 133.839052 
L 116.956362 133.874129 
L 117.362586 133.909325 
L 117.76881 133.944638 
L 118.175035 133.98007 
L 118.581259 134.01562 
L 118.987484 134.051288 
L 119.393708 134.087074 
L 119.799932 134.122978 
L 120.206157 134.158999 
L 120.612381 134.195137 
L 121.018606 134.231393 
L 121.42483 134.267767 
L 121.831054 134.304257 
L 122.237279 134.340865 
L 122.643503 134.377589 
L 123.049728 134.41443 
L 123.455952 134.451388 
L 123.862176 134.488463 
L 124.268401 134.525654 
L 124.674625 134.562962 
L 125.08085 134.600386 
L 125.487074 134.637926 
L 125.893299 134.675582 
L 126.299523 134.713353 
L 126.705747 134.751241 
L 127.111972 134.789244 
L 127.518196 134.827363 
L 127.924421 134.865597 
L 128.330645 134.903947 
L 128.736869 134.942412 
L 129.143094 134.980991 
L 129.549318 135.019686 
L 129.955543 135.058495 
L 130.361767 135.09742 
L 130.767991 135.136458 
L 131.174216 135.175611 
L 131.58044 135.214878 
L 131.986665 135.25426 
L 132.392889 135.293755 
L 132.799113 135.333364 
L 133.205338 135.373087 
L 133.611562 135.412923 
L 134.017787 135.452873 
L 134.424011 135.492936 
L 134.830235 135.533112 
L 135.23646 135.573402 
L 135.642684 135.613804 
L 136.048909 135.654318 
L 136.455133 135.694946 
L 136.861357 135.735686 
L 137.267582 135.776538 
L 137.673806 135.817502 
L 138.080031 135.858578 
L 138.486255 135.899767 
L 138.89248 135.941066 
L 139.298704 135.982478 
L 139.704928 136.024001 
L 140.111153 136.065635 
L 140.517377 136.10738 
L 140.923602 136.149236 
L 141.329826 136.191203 
L 141.73605 136.23328 
L 142.142275 136.275468 
L 142.548499 136.317767 
L 142.954724 136.360175 
L 143.360948 136.402694 
L 143.767172 136.445322 
L 144.173397 136.48806 
L 144.579621 136.530908 
L 144.985846 136.573865 
L 145.39207 136.616931 
L 145.798294 136.660106 
L 146.204519 136.703391 
L 146.610743 136.746784 
L 147.016968 136.790285 
L 147.423192 136.833895 
L 147.829416 136.877613 
L 148.235641 136.921439 
L 148.641865 136.965374 
L 149.04809 137.009416 
L 149.454314 137.053565 
L 149.860538 137.097822 
L 150.266763 137.142186 
L 150.672987 137.186658 
L 151.079212 137.231236 
L 151.485436 137.275921 
L 151.891661 137.320712 
L 152.297885 137.36561 
L 152.704109 137.410614 
L 153.110334 137.455724 
L 153.516558 137.50094 
L 153.922783 137.546262 
L 154.329007 137.59169 
L 154.735231 137.637222 
L 155.141456 137.68286 
L 155.54768 137.728603 
L 155.953905 137.774451 
L 156.360129 137.820403 
L 156.766353 137.86646 
L 157.172578 137.912621 
L 157.578802 137.958886 
L 157.985027 138.005256 
L 158.391251 138.051729 
L 158.797475 138.098305 
L 159.2037 138.144985 
L 159.609924 138.191769 
L 160.016149 138.238655 
L 160.422373 138.285644 
L 160.828597 138.332736 
L 161.234822 138.37993 
L 161.641046 138.427227 
L 162.047271 138.474626 
L 162.453495 138.522127 
L 162.859719 138.569729 
L 163.265944 138.617433 
L 163.672168 138.665239 
L 164.078393 138.713146 
L 164.484617 138.761154 
L 164.890842 138.809262 
L 165.297066 138.857472 
L 165.70329 138.905781 
L 166.109515 138.954191 
L 166.515739 139.002702 
L 166.921964 139.051312 
L 167.328188 139.100022 
L 167.734412 139.148831 
L 168.140637 139.19774 
L 168.546861 139.246748 
L 168.953086 139.295854 
L 169.35931 139.34506 
L 169.765534 139.394364 
L 170.171759 139.443767 
L 170.577983 139.493268 
L 170.984208 139.542867 
L 171.390432 139.592564 
L 171.796656 139.642358 
L 172.202881 139.69225 
L 172.609105 139.742239 
L 173.01533 139.792325 
L 173.421554 139.842508 
L 173.827778 139.892788 
L 174.234003 139.943164 
L 174.640227 139.993636 
L 175.046452 140.044205 
L 175.452676 140.094869 
L 175.8589 140.145629 
L 176.265125 140.196485 
L 176.671349 140.247436 
L 177.077574 140.298482 
L 177.483798 140.349624 
L 177.890023 140.400859 
L 178.296247 140.45219 
L 178.702471 140.503615 
L 179.108696 140.555133 
L 179.51492 140.606746 
L 179.921145 140.658453 
L 180.327369 140.710253 
L 180.733593 140.762147 
L 181.139818 140.814134 
L 181.546042 140.866213 
L 181.952267 140.918386 
L 182.358491 140.970651 
L 182.764715 141.023009 
L 183.17094 141.075458 
L 183.577164 141.128 
L 183.983389 141.180634 
L 184.389613 141.233359 
L 184.795837 141.286175 
L 185.202062 141.339083 
L 185.608286 141.392082 
L 186.014511 141.445172 
L 186.420735 141.498352 
L 186.826959 141.551623 
L 187.233184 141.604984 
L 187.639408 141.658434 
L 188.045633 141.711975 
L 188.451857 141.765606 
L 188.858081 141.819326 
L 189.264306 141.873135 
L 189.67053 141.927033 
L 190.076755 141.98102 
L 190.482979 142.035095 
L 190.889204 142.089259 
L 191.295428 142.143512 
L 191.701652 142.197852 
L 192.107877 142.25228 
L 192.514101 142.306796 
L 192.920326 142.3614 
L 193.32655 142.41609 
L 193.732774 142.470868 
L 194.138999 142.525732 
L 194.545223 142.580684 
L 194.951448 142.635721 
L 195.357672 142.690845 
L 195.763896 142.746055 
L 196.170121 142.801351 
L 196.576345 142.856733 
L 196.98257 142.9122 
L 197.388794 142.967752 
L 197.795018 143.023389 
L 198.201243 143.079112 
L 198.607467 143.134919 
L 199.013692 143.19081 
L 199.419916 143.246786 
L 199.82614 143.302846 
L 200.232365 143.35899 
L 200.638589 143.415217 
L 201.044814 143.471528 
L 201.451038 143.527922 
L 201.857262 143.5844 
L 202.263487 143.64096 
L 202.669711 143.697603 
L 203.075936 143.754329 
L 203.48216 143.811137 
L 203.888385 143.868027 
L 204.294609 143.924999 
L 204.700833 143.982052 
L 205.107058 144.039188 
L 205.513282 144.096404 
L 205.919507 144.153702 
L 206.325731 144.211081 
L 206.731955 144.26854 
L 207.13818 144.32608 
L 207.544404 144.383701 
L 207.950629 144.441401 
L 208.356853 144.499182 
L 208.763077 144.557042 
L 209.169302 144.614982 
L 209.575526 144.673001 
L 209.981751 144.7311 
L 210.387975 144.789277 
L 210.794199 144.847534 
L 211.200424 144.905868 
L 211.606648 144.964282 
L 212.012873 145.022773 
L 212.419097 145.081343 
L 212.825321 145.139991 
L 213.231546 145.198716 
L 213.63777 145.257518 
L 214.043995 145.316398 
L 214.450219 145.375355 
L 214.856443 145.434389 
L 215.262668 145.493499 
L 215.668892 145.552686 
L 216.075117 145.61195 
L 216.481341 145.671289 
L 216.887566 145.730704 
L 217.29379 145.790195 
L 217.700014 145.849762 
L 218.106239 145.909404 
L 218.512463 145.969121 
L 218.918688 146.028913 
L 219.324912 146.08878 
L 219.731136 146.148721 
L 220.137361 146.208737 
L 220.543585 146.268827 
L 220.94981 146.328991 
L 221.356034 146.389229 
L 221.762258 146.449541 
L 222.168483 146.509926 
L 222.574707 146.570384 
L 222.980932 146.630916 
L 223.387156 146.69152 
L 223.79338 146.752197 
L 224.199605 146.812947 
L 224.605829 146.873768 
L 225.012054 146.934662 
L 225.418278 146.995628 
L 225.824502 147.056666 
L 226.230727 147.117775 
L 226.636951 147.178956 
L 227.043176 147.240208 
L 227.4494 147.301531 
L 227.855624 147.362925 
L 228.261849 147.42439 
L 228.668073 147.485925 
L 229.074298 147.54753 
L 229.480522 147.609205 
L 229.886747 147.670951 
L 230.292971 147.732766 
L 230.699195 147.79465 
L 231.10542 147.856604 
L 231.511644 147.918628 
L 231.917869 147.98072 
L 232.324093 148.042881 
L 232.730317 148.105111 
L 233.136542 148.167409 
L 233.542766 148.229776 
L 233.948991 148.29221 
L 234.355215 148.354713 
L 234.761439 148.417283 
L 235.167664 148.479921 
L 235.573888 148.542627 
L 235.980113 148.605399 
L 236.386337 148.668239 
L 236.792561 148.731145 
L 237.198786 148.794118 
L 237.60501 148.857158 
L 238.011235 148.920264 
L 238.417459 148.983436 
L 238.823683 149.046674 
L 239.229908 149.109978 
L 239.636132 149.173348 
L 240.042357 149.236783 
L 240.448581 149.300283 
L 240.854805 149.363848 
L 241.26103 149.427479 
L 241.667254 149.491174 
L 242.073479 149.554934 
L 242.479703 149.618758 
L 242.885928 149.682646 
L 243.292152 149.746598 
L 243.698376 149.810614 
L 244.104601 149.874694 
L 244.510825 149.938838 
L 244.91705 150.003045 
L 245.323274 150.067315 
L 245.729498 150.131648 
L 246.135723 150.196044 
L 246.541947 150.260503 
L 246.948172 150.325024 
L 247.354396 150.389607 
L 247.76062 150.454253 
L 248.166845 150.518961 
L 248.573069 150.58373 
L 248.979294 150.648561 
L 249.385518 150.713454 
L 249.791742 150.778408 
L 250.197967 150.843423 
L 250.604191 150.9085 
L 251.010416 150.973637 
L 251.41664 151.038834 
L 251.822864 151.104093 
L 252.229089 151.169411 
L 252.635313 151.23479 
L 253.041538 151.300229 
L 253.447762 151.365727 
L 253.853986 151.431286 
L 254.260211 151.496904 
L 254.666435 151.562581 
L 255.07266 151.628317 
L 255.478884 151.694113 
L 255.885109 151.759967 
L 256.291333 151.82588 
L 256.697557 151.891852 
L 257.103782 151.957882 
L 257.510006 152.02397 
L 257.916231 152.090116 
L 258.322455 152.15632 
L 258.728679 152.222582 
L 259.134904 152.288901 
L 259.541128 152.355278 
L 259.947353 152.421712 
L 260.353577 152.488204 
L 260.759801 152.554752 
L 261.166026 152.621357 
L 261.57225 152.688019 
L 261.978475 152.754737 
L 262.384699 152.821511 
L 262.790923 152.888342 
L 263.197148 152.955229 
L 263.603372 153.022171 
L 264.009597 153.089169 
L 264.415821 153.156223 
L 264.822045 153.223332 
L 265.22827 153.290497 
L 265.634494 153.357716 
L 266.040719 153.42499 
L 266.446943 153.49232 
L 266.853167 153.559703 
L 267.259392 153.627142 
L 267.665616 153.694634 
L 268.071841 153.762181 
L 268.478065 153.829782 
L 268.88429 153.897437 
L 269.290514 153.965145 
L 269.696738 154.032907 
L 270.102963 154.100723 
L 270.509187 154.168591 
L 270.915412 154.236513 
L 271.321636 154.304488 
L 271.72786 154.372516 
L 272.134085 154.440596 
L 272.540309 154.508729 
L 272.946534 154.576914 
L 273.352758 154.645151 
L 273.758982 154.713441 
L 274.165207 154.781783 
L 274.571431 154.850176 
L 274.977656 154.918621 
L 275.38388 154.987117 
L 275.790104 155.055665 
L 276.196329 155.124264 
L 276.602553 155.192914 
L 277.008778 155.261616 
L 277.415002 155.330368 
L 277.821226 155.39917 
L 278.227451 155.468023 
L 278.633675 155.536927 
L 279.0399 155.60588 
L 279.446124 155.674884 
L 279.852348 155.743938 
L 280.258573 155.813041 
L 280.664797 155.882195 
L 281.071022 155.951397 
L 281.477246 156.020649 
L 281.883471 156.089951 
L 282.289695 156.159301 
L 282.695919 156.228701 
L 283.102144 156.298149 
L 283.508368 156.367646 
L 283.914593 156.437192 
L 284.320817 156.506786 
L 284.727041 156.576428 
L 285.133266 156.646118 
L 285.53949 156.715857 
L 285.945715 156.785643 
L 286.351939 156.855477 
L 286.758163 156.925359 
L 287.164388 156.995288 
L 287.570612 157.065265 
L 287.976837 157.135288 
L 288.383061 157.205359 
L 288.789285 157.275477 
L 289.19551 157.345641 
L 289.601734 157.415853 
L 290.007959 157.48611 
L 290.414183 157.556415 
L 290.820407 157.626765 
L 291.226632 157.697162 
L 291.632856 157.767605 
L 292.039081 157.838093 
L 292.445305 157.908628 
L 292.851529 157.979208 
L 293.257754 158.049833 
L 293.663978 158.120504 
L 294.070203 158.19122 
L 294.476427 158.261982 
L 294.882652 158.332788 
L 295.288876 158.403639 
L 295.6951 158.474535 
L 296.101325 158.545475 
L 296.507549 158.616461 
L 296.913774 158.68749 
L 297.319998 158.758564 
L 297.726222 158.829681 
L 298.132447 158.900843 
L 298.538671 158.972049 
L 298.944896 159.043298 
L 299.35112 159.114591 
L 299.757344 159.185928 
L 300.163569 159.257308 
L 300.569793 159.328731 
L 300.976018 159.400197 
L 301.382242 159.471706 
L 301.788466 159.543258 
L 302.194691 159.614853 
L 302.600915 159.686491 
L 303.00714 159.758171 
L 303.413364 159.829894 
L 303.819588 159.901658 
L 304.225813 159.973465 
L 304.632037 160.045315 
L 305.038262 160.117205 
L 305.444486 160.189138 
L 305.85071 160.261113 
L 306.256935 160.333129 
L 306.663159 160.405186 
L 307.069384 160.477285 
L 307.475608 160.549425 
L 307.881833 160.621607 
L 308.288057 160.693829 
L 308.694281 160.766092 
L 309.100506 160.838396 
L 309.50673 160.91074 
L 309.912955 160.983125 
L 310.319179 161.055551 
L 310.725403 161.128016 
L 311.131628 161.200522 
L 311.537852 161.273068 
L 311.944077 161.345654 
L 312.350301 161.41828 
L 312.756525 161.490946 
L 313.16275 161.563651 
L 313.568974 161.636396 
L 313.975199 161.70918 
L 314.381423 161.782004 
L 314.787647 161.854866 
L 315.193872 161.927768 
L 315.600096 162.000709 
L 316.006321 162.073688 
L 316.412545 162.146706 
L 316.818769 162.219763 
L 317.224994 162.292859 
L 317.631218 162.365993 
L 318.037443 162.439165 
L 318.443667 162.512375 
L 318.849891 162.585624 
L 319.256116 162.65891 
L 319.66234 162.732235 
L 320.068565 162.805597 
L 320.474789 162.878996 
L 320.881014 162.952434 
L 321.287238 163.025909 
L 321.693462 163.099421 
L 322.099687 163.17297 
L 322.505911 163.246557 
L 322.912136 163.32018 
L 323.31836 163.393841 
L 323.724584 163.467538 
L 324.130809 163.541273 
L 324.537033 163.615043 
L 324.943258 163.688851 
L 325.349482 163.762694 
L 325.755706 163.836574 
L 326.161931 163.91049 
L 326.568155 163.984443 
L 326.97438 164.058431 
L 327.380604 164.132455 
L 327.786828 164.206515 
L 328.193053 164.280611 
L 328.599277 164.354743 
L 329.005502 164.42891 
L 329.411726 164.503112 
L 329.81795 164.577349 
L 330.224175 164.651622 
L 330.630399 164.72593 
L 331.036624 164.800273 
L 331.442848 164.874651 
L 331.849072 164.949064 
L 332.255297 165.023511 
L 332.661521 165.097993 
L 333.067746 165.17251 
L 333.47397 165.247061 
L 333.880195 165.321646 
L 334.286419 165.396266 
L 334.692643 165.47092 
L 335.098868 165.545608 
L 335.505092 165.620329 
L 335.911317 165.695085 
L 336.317541 165.769875 
L 336.723765 165.844698 
L 337.12999 165.919554 
L 337.536214 165.994444 
L 337.942439 166.069368 
L 338.348663 166.144325 
L 338.754887 166.219315 
L 339.161112 166.294338 
L 339.567336 166.369394 
L 339.973561 166.444483 
L 340.379785 166.519605 
L 340.786009 166.59476 
L 341.192234 166.669947 
L 341.598458 166.745167 
L 342.004683 166.82042 
L 342.410907 166.895705 
L 342.817131 166.971022 
L 343.223356 167.046371 
L 343.62958 167.121752 
L 344.035805 167.197166 
L 344.442029 167.272611 
L 344.848253 167.348088 
L 345.254478 167.423597 
L 345.660702 167.499138 
L 346.066927 167.57471 
L 346.473151 167.650314 
L 346.879376 167.725949 
L 347.2856 167.801616 
L 347.691824 167.877313 
L 348.098049 167.953042 
L 348.504273 168.028802 
L 348.910498 168.104593 
L 349.316722 168.180415 
L 349.722946 168.256267 
L 350.129171 168.332151 
L 350.535395 168.408065 
L 350.94162 168.484009 
L 351.347844 168.559984 
L 351.754068 168.63599 
L 352.160293 168.712025 
L 352.566517 168.788091 
L 352.972742 168.864187 
L 353.378966 168.940313 
L 353.78519 169.016469 
L 354.191415 169.092655 
L 354.597639 169.168871 
L 355.003864 169.245117 
L 355.410088 169.321392 
L 355.816312 169.397696 
L 356.222537 169.47403 
L 356.628761 169.550394 
L 357.034986 169.626787 
L 357.44121 169.703209 
L 357.847434 169.77966 
L 358.253659 169.85614 
L 358.659883 169.93265 
L 359.066108 170.009188 
L 359.472332 170.085755 
L 359.878557 170.162351 
L 360.284781 170.238975 
L 360.691005 170.315628 
L 361.09723 170.39231 
L 361.503454 170.46902 
L 361.909679 170.545759 
L 362.315903 170.622525 
L 362.722127 170.69932 
L 363.128352 170.776143 
L 363.534576 170.852994 
L 363.940801 170.929873 
L 364.347025 171.00678 
L 364.753249 171.083715 
L 365.159474 171.160678 
L 365.565698 171.237668 
L 365.971923 171.314686 
L 366.378147 171.391731 
L 366.784371 171.468804 
L 367.190596 171.545904 
L 367.59682 171.623032 
L 368.003045 171.700187 
L 368.409269 171.777368 
L 368.815493 171.854577 
L 369.221718 171.931813 
L 369.627942 172.009076 
L 370.034167 172.086366 
L 370.440391 172.163683 
L 370.846615 172.241026 
L 371.25284 172.318396 
L 371.659064 172.395792 
L 372.065289 172.473215 
L 372.471513 172.550665 
L 372.877738 172.62814 
L 373.283962 172.705642 
L 373.690186 172.783171 
L 374.096411 172.860725 
L 374.502635 172.938305 
L 374.90886 173.015912 
L 375.315084 173.093544 
L 375.721308 173.171202 
L 376.127533 173.248886 
L 376.533757 173.326596 
L 376.939982 173.404332 
L 377.346206 173.482092 
L 377.75243 173.559879 
L 378.158655 173.637691 
L 378.564879 173.715528 
L 378.971104 173.793391 
L 379.377328 173.871279 
L 379.783552 173.949192 
L 380.189777 174.02713 
L 380.596001 174.105093 
L 381.002226 174.183081 
L 381.40845 174.261094 
L 381.814674 174.339132 
L 382.220899 174.417194 
L 382.627123 174.495282 
L 383.033348 174.573394 
L 383.439572 174.65153 
L 383.845796 174.729691 
L 384.252021 174.807877 
L 384.658245 174.886087 
L 385.06447 174.964321 
L 385.470694 175.042579 
L 385.876919 175.120862 
L 386.283143 175.199168 
L 386.689367 175.277499 
L 387.095592 175.355854 
L 387.501816 175.434232 
L 387.908041 175.512635 
L 388.314265 175.591061 
L 388.720489 175.669511 
L 389.126714 175.747985 
L 389.532938 175.826482 
L 389.939163 175.905003 
L 390.345387 175.983547 
L 390.751611 176.062115 
L 391.157836 176.140706 
L 391.56406 176.21932 
L 391.970285 176.297958 
L 392.376509 176.376618 
L 392.782733 176.455302 
L 393.188958 176.534009 
L 393.595182 176.612739 
L 394.001407 176.691492 
L 394.407631 176.770268 
L 394.813855 176.849066 
L 395.22008 176.927887 
L 395.626304 177.006731 
L 396.032529 177.085598 
L 396.438753 177.164487 
L 396.844977 177.243398 
L 397.251202 177.322332 
L 397.657426 177.401289 
L 398.063651 177.480267 
L 398.469875 177.559268 
L 398.8761 177.638291 
L 399.282324 177.717337 
L 399.688548 177.796404 
L 400.094773 177.875494 
L 400.500997 177.954605 
L 400.907222 178.033738 
L 401.313446 178.112894 
L 401.71967 178.192071 
L 402.125895 178.271269 
L 402.532119 178.35049 
L 402.938344 178.429732 
L 403.344568 178.508996 
L 403.750792 178.588281 
L 404.157017 178.667587 
L 404.563241 178.746915 
L 404.969466 178.826265 
L 405.37569 178.905635 
L 405.781914 178.985027 
L 406.188139 179.06444 
L 406.594363 179.143875 
L 407.000588 179.22333 
L 407.406812 179.302806 
L 407.813036 179.382303 
L 408.219261 179.461822 
L 408.625485 179.541361 
L 409.03171 179.62092 
L 409.437934 179.700501 
L 409.844158 179.780102 
L 410.250383 179.859724 
L 410.656607 179.939367 
L 411.062832 180.01903 
L 411.469056 180.098713 
L 411.875281 180.178417 
L 412.281505 180.258141 
L 412.687729 180.337886 
L 413.093954 180.417651 
L 413.500178 180.497436 
L 413.906403 180.577241 
L 414.312627 180.657066 
L 414.718851 180.736912 
L 415.125076 180.816777 
L 415.5313 180.896662 
L 415.937525 180.976568 
L 416.343749 181.056493 
L 416.749973 181.136438 
L 417.156198 181.216402 
L 417.562422 181.296387 
L 417.968647 181.37639 
L 418.374871 181.456414 
L 418.781095 181.536457 
L 419.18732 181.61652 
L 419.593544 181.696602 
L 419.999769 181.776703 
L 420.405993 181.856824 
L 420.812217 181.936964 
L 421.218442 182.017123 
L 421.624666 182.097302 
L 422.030891 182.1775 
L 422.437115 182.257716 
L 422.843339 182.337952 
L 423.249564 182.418207 
L 423.655788 182.498481 
L 424.062013 182.578773 
L 424.468237 182.659085 
L 424.874462 182.739415 
L 425.280686 182.819764 
L 425.68691 182.900132 
L 426.093135 182.980519 
L 426.499359 183.060924 
L 426.905584 183.141347 
L 427.311808 183.221789 
L 427.718032 183.30225 
L 428.124257 183.382729 
L 428.530481 183.463227 
L 428.936706 183.543742 
L 429.34293 183.624276 
L 429.749154 183.704829 
L 430.155379 183.785399 
L 430.561603 183.865988 
L 430.967828 183.946595 
L 431.374052 184.027219 
L 431.780276 184.107862 
L 432.186501 184.188523 
L 432.592725 184.269202 
L 432.99895 184.349898 
L 433.405174 184.430613 
L 433.811398 184.511345 
L 434.217623 184.592095 
L 434.623847 184.672862 
L 435.030072 184.753648 
L 435.436296 184.834451 
L 435.84252 184.915271 
L 436.248745 184.996109 
L 436.654969 185.076964 
L 437.061194 185.157837 
L 437.467418 185.238727 
L 437.873643 185.319635 
L 438.279867 185.40056 
L 438.686091 185.481502 
L 439.092316 185.562461 
L 439.49854 185.643438 
L 439.904765 185.724431 
L 440.310989 185.805442 
L 440.717213 185.88647 
L 441.123438 185.967515 
L 441.529662 186.048576 
L 441.935887 186.129655 
L 442.342111 186.21075 
L 442.748335 186.291863 
L 443.15456 186.372992 
L 443.560784 186.454138 
L 443.967009 186.5353 
L 444.373233 186.616479 
L 444.779457 186.697675 
L 445.185682 186.778888 
L 445.591906 186.860116 
L 445.998131 186.941362 
L 446.404355 187.022624 
L 446.810579 187.103902 
L 447.216804 187.185197 
L 447.623028 187.266508 
L 448.029253 187.347835 
L 448.435477 187.429179 
L 448.841701 187.510538 
L 449.247926 187.591914 
L 449.65415 187.673306 
L 450.060375 187.754714 
L 450.466599 187.836139 
L 450.872824 187.917579 
L 451.279048 187.999035 
L 451.685272 188.080507 
L 452.091497 188.161995 
L 452.497721 188.243499 
L 452.903946 188.325019 
L 453.31017 188.406554 
L 453.716394 188.488105 
L 454.122619 188.569672 
L 454.528843 188.651255 
L 454.935068 188.732853 
L 455.341292 188.814467 
L 455.747516 188.896096 
L 456.153741 188.977741 
L 456.559965 189.059401 
L 456.96619 189.141077 
L 457.372414 189.222768 
L 457.778638 189.304474 
L 458.184863 189.386196 
L 458.591087 189.467933 
L 458.997312 189.549685 
L 459.403536 189.631453 
L 459.80976 189.713235 
L 460.215985 189.795033 
L 460.622209 189.876846 
L 461.028434 189.958674 
L 461.434658 190.040517 
L 461.840882 190.122375 
L 462.247107 190.204248 
L 462.653331 190.286136 
L 463.059556 190.368038 
L 463.46578 190.449956 
L 463.872005 190.531888 
L 464.278229 190.613835 
L 464.684453 190.695797 
L 465.090678 190.777774 
L 465.496902 190.859765 
L 465.903127 190.941771 
L 466.309351 191.023791 
L 466.715575 191.105826 
L 467.1218 191.187876 
L 467.528024 191.26994 
L 467.934249 191.352018 
L 468.340473 191.434111 
L 468.746697 191.516218 
L 469.152922 191.59834 
L 469.559146 191.680475 
L 469.965371 191.762626 
L 470.371595 191.84479 
L 470.777819 191.926969 
L 471.184044 192.009161 
L 471.590268 192.091368 
L 471.996493 192.173589 
L 472.402717 192.255824 
L 472.808941 192.338074 
L 473.215166 192.420337 
L 473.62139 192.502614 
L 474.027615 192.584905 
L 474.433839 192.66721 
L 474.840063 192.749529 
L 475.246288 192.831861 
L 475.652512 192.914208 
L 476.058737 192.996568 
L 476.464961 193.078942 
L 476.871186 193.16133 
L 477.27741 193.243731 
L 477.683634 193.326146 
L 478.089859 193.408575 
L 478.496083 193.491017 
L 478.902308 193.573472 
L 479.308532 193.655942 
L 479.714756 193.738424 
L 480.120981 193.820921 
L 480.527205 193.90343 
L 480.93343 193.985953 
L 481.339654 194.068489 
L 481.745878 194.151039 
L 482.152103 194.233602 
L 482.558327 194.316178 
L 482.964552 194.398768 
L 483.370776 194.48137 
L 483.777 194.563986 
L 484.183225 194.646615 
L 484.589449 194.729257 
L 484.995674 194.811912 
L 485.401898 194.89458 
L 485.808122 194.977261 
L 486.214347 195.059955 
L 486.620571 195.142662 
L 487.026796 195.225382 
L 487.43302 195.308115 
L 487.839244 195.390861 
L 488.245469 195.473619 
L 488.651693 195.556391 
L 489.057918 195.639175 
L 489.464142 195.721972 
L 489.870367 195.804781 
L 490.276591 195.887603 
L 490.276591 48.881588 
L 490.276591 48.881588 
L 489.870367 48.9135 
L 489.464142 48.945398 
L 489.057918 48.977284 
L 488.651693 49.009158 
L 488.245469 49.041018 
L 487.839244 49.072866 
L 487.43302 49.104701 
L 487.026796 49.136523 
L 486.620571 49.168332 
L 486.214347 49.200128 
L 485.808122 49.231911 
L 485.401898 49.263682 
L 484.995674 49.295439 
L 484.589449 49.327183 
L 484.183225 49.358914 
L 483.777 49.390632 
L 483.370776 49.422337 
L 482.964552 49.454029 
L 482.558327 49.485708 
L 482.152103 49.517373 
L 481.745878 49.549025 
L 481.339654 49.580664 
L 480.93343 49.612289 
L 480.527205 49.643901 
L 480.120981 49.6755 
L 479.714756 49.707085 
L 479.308532 49.738657 
L 478.902308 49.770216 
L 478.496083 49.801761 
L 478.089859 49.833292 
L 477.683634 49.86481 
L 477.27741 49.896314 
L 476.871186 49.927804 
L 476.464961 49.959281 
L 476.058737 49.990744 
L 475.652512 50.022194 
L 475.246288 50.053629 
L 474.840063 50.085051 
L 474.433839 50.116459 
L 474.027615 50.147853 
L 473.62139 50.179233 
L 473.215166 50.2106 
L 472.808941 50.241952 
L 472.402717 50.27329 
L 471.996493 50.304615 
L 471.590268 50.335925 
L 471.184044 50.367221 
L 470.777819 50.398503 
L 470.371595 50.42977 
L 469.965371 50.461024 
L 469.559146 50.492263 
L 469.152922 50.523488 
L 468.746697 50.554699 
L 468.340473 50.585895 
L 467.934249 50.617077 
L 467.528024 50.648245 
L 467.1218 50.679398 
L 466.715575 50.710537 
L 466.309351 50.741661 
L 465.903127 50.772771 
L 465.496902 50.803865 
L 465.090678 50.834946 
L 464.684453 50.866012 
L 464.278229 50.897063 
L 463.872005 50.928099 
L 463.46578 50.95912 
L 463.059556 50.990127 
L 462.653331 51.021119 
L 462.247107 51.052096 
L 461.840882 51.083058 
L 461.434658 51.114005 
L 461.028434 51.144937 
L 460.622209 51.175854 
L 460.215985 51.206756 
L 459.80976 51.237643 
L 459.403536 51.268515 
L 458.997312 51.299372 
L 458.591087 51.330213 
L 458.184863 51.361039 
L 457.778638 51.39185 
L 457.372414 51.422646 
L 456.96619 51.453426 
L 456.559965 51.484191 
L 456.153741 51.51494 
L 455.747516 51.545674 
L 455.341292 51.576393 
L 454.935068 51.607096 
L 454.528843 51.637783 
L 454.122619 51.668455 
L 453.716394 51.699111 
L 453.31017 51.729751 
L 452.903946 51.760376 
L 452.497721 51.790985 
L 452.091497 51.821578 
L 451.685272 51.852155 
L 451.279048 51.882716 
L 450.872824 51.913261 
L 450.466599 51.943791 
L 450.060375 51.974304 
L 449.65415 52.004801 
L 449.247926 52.035283 
L 448.841701 52.065748 
L 448.435477 52.096197 
L 448.029253 52.126629 
L 447.623028 52.157046 
L 447.216804 52.187446 
L 446.810579 52.21783 
L 446.404355 52.248197 
L 445.998131 52.278548 
L 445.591906 52.308883 
L 445.185682 52.339201 
L 444.779457 52.369502 
L 444.373233 52.399787 
L 443.967009 52.430056 
L 443.560784 52.460307 
L 443.15456 52.490542 
L 442.748335 52.520761 
L 442.342111 52.550962 
L 441.935887 52.581147 
L 441.529662 52.611315 
L 441.123438 52.641465 
L 440.717213 52.671599 
L 440.310989 52.701716 
L 439.904765 52.731816 
L 439.49854 52.761899 
L 439.092316 52.791965 
L 438.686091 52.822013 
L 438.279867 52.852044 
L 437.873643 52.882058 
L 437.467418 52.912055 
L 437.061194 52.942034 
L 436.654969 52.971996 
L 436.248745 53.001941 
L 435.84252 53.031868 
L 435.436296 53.061778 
L 435.030072 53.09167 
L 434.623847 53.121544 
L 434.217623 53.151401 
L 433.811398 53.18124 
L 433.405174 53.211061 
L 432.99895 53.240865 
L 432.592725 53.270651 
L 432.186501 53.300418 
L 431.780276 53.330168 
L 431.374052 53.3599 
L 430.967828 53.389614 
L 430.561603 53.41931 
L 430.155379 53.448988 
L 429.749154 53.478648 
L 429.34293 53.508289 
L 428.936706 53.537912 
L 428.530481 53.567517 
L 428.124257 53.597104 
L 427.718032 53.626672 
L 427.311808 53.656222 
L 426.905584 53.685753 
L 426.499359 53.715266 
L 426.093135 53.74476 
L 425.68691 53.774236 
L 425.280686 53.803693 
L 424.874462 53.833131 
L 424.468237 53.862551 
L 424.062013 53.891951 
L 423.655788 53.921333 
L 423.249564 53.950696 
L 422.843339 53.98004 
L 422.437115 54.009365 
L 422.030891 54.038671 
L 421.624666 54.067958 
L 421.218442 54.097225 
L 420.812217 54.126474 
L 420.405993 54.155703 
L 419.999769 54.184913 
L 419.593544 54.214104 
L 419.18732 54.243275 
L 418.781095 54.272427 
L 418.374871 54.301559 
L 417.968647 54.330672 
L 417.562422 54.359765 
L 417.156198 54.388838 
L 416.749973 54.417892 
L 416.343749 54.446926 
L 415.937525 54.47594 
L 415.5313 54.504935 
L 415.125076 54.533909 
L 414.718851 54.562864 
L 414.312627 54.591798 
L 413.906403 54.620713 
L 413.500178 54.649607 
L 413.093954 54.678481 
L 412.687729 54.707335 
L 412.281505 54.736169 
L 411.875281 54.764982 
L 411.469056 54.793776 
L 411.062832 54.822548 
L 410.656607 54.8513 
L 410.250383 54.880032 
L 409.844158 54.908743 
L 409.437934 54.937433 
L 409.03171 54.966103 
L 408.625485 54.994752 
L 408.219261 55.02338 
L 407.813036 55.051988 
L 407.406812 55.080574 
L 407.000588 55.109139 
L 406.594363 55.137684 
L 406.188139 55.166207 
L 405.781914 55.194709 
L 405.37569 55.223191 
L 404.969466 55.25165 
L 404.563241 55.280089 
L 404.157017 55.308506 
L 403.750792 55.336902 
L 403.344568 55.365276 
L 402.938344 55.393629 
L 402.532119 55.42196 
L 402.125895 55.45027 
L 401.71967 55.478558 
L 401.313446 55.506824 
L 400.907222 55.535068 
L 400.500997 55.563291 
L 400.094773 55.591491 
L 399.688548 55.61967 
L 399.282324 55.647827 
L 398.8761 55.675961 
L 398.469875 55.704073 
L 398.063651 55.732164 
L 397.657426 55.760231 
L 397.251202 55.788277 
L 396.844977 55.8163 
L 396.438753 55.844301 
L 396.032529 55.872279 
L 395.626304 55.900235 
L 395.22008 55.928168 
L 394.813855 55.956078 
L 394.407631 55.983966 
L 394.001407 56.011831 
L 393.595182 56.039673 
L 393.188958 56.067492 
L 392.782733 56.095288 
L 392.376509 56.123061 
L 391.970285 56.15081 
L 391.56406 56.178537 
L 391.157836 56.206241 
L 390.751611 56.233921 
L 390.345387 56.261578 
L 389.939163 56.289211 
L 389.532938 56.316821 
L 389.126714 56.344408 
L 388.720489 56.37197 
L 388.314265 56.39951 
L 387.908041 56.427025 
L 387.501816 56.454517 
L 387.095592 56.481984 
L 386.689367 56.509428 
L 386.283143 56.536848 
L 385.876919 56.564244 
L 385.470694 56.591616 
L 385.06447 56.618963 
L 384.658245 56.646287 
L 384.252021 56.673586 
L 383.845796 56.70086 
L 383.439572 56.72811 
L 383.033348 56.755336 
L 382.627123 56.782537 
L 382.220899 56.809714 
L 381.814674 56.836865 
L 381.40845 56.863992 
L 381.002226 56.891095 
L 380.596001 56.918172 
L 380.189777 56.945224 
L 379.783552 56.972251 
L 379.377328 56.999254 
L 378.971104 57.026231 
L 378.564879 57.053182 
L 378.158655 57.080109 
L 377.75243 57.10701 
L 377.346206 57.133885 
L 376.939982 57.160736 
L 376.533757 57.18756 
L 376.127533 57.214359 
L 375.721308 57.241132 
L 375.315084 57.26788 
L 374.90886 57.294601 
L 374.502635 57.321297 
L 374.096411 57.347966 
L 373.690186 57.37461 
L 373.283962 57.401227 
L 372.877738 57.427818 
L 372.471513 57.454383 
L 372.065289 57.480922 
L 371.659064 57.507434 
L 371.25284 57.53392 
L 370.846615 57.560379 
L 370.440391 57.586811 
L 370.034167 57.613217 
L 369.627942 57.639596 
L 369.221718 57.665948 
L 368.815493 57.692273 
L 368.409269 57.718571 
L 368.003045 57.744842 
L 367.59682 57.771086 
L 367.190596 57.797303 
L 366.784371 57.823492 
L 366.378147 57.849654 
L 365.971923 57.875788 
L 365.565698 57.901895 
L 365.159474 57.927975 
L 364.753249 57.954027 
L 364.347025 57.980051 
L 363.940801 58.006047 
L 363.534576 58.032015 
L 363.128352 58.057955 
L 362.722127 58.083867 
L 362.315903 58.109752 
L 361.909679 58.135607 
L 361.503454 58.161435 
L 361.09723 58.187234 
L 360.691005 58.213005 
L 360.284781 58.238747 
L 359.878557 58.264461 
L 359.472332 58.290146 
L 359.066108 58.315802 
L 358.659883 58.341429 
L 358.253659 58.367028 
L 357.847434 58.392597 
L 357.44121 58.418138 
L 357.034986 58.443649 
L 356.628761 58.469131 
L 356.222537 58.494584 
L 355.816312 58.520007 
L 355.410088 58.545401 
L 355.003864 58.570765 
L 354.597639 58.5961 
L 354.191415 58.621405 
L 353.78519 58.64668 
L 353.378966 58.671925 
L 352.972742 58.69714 
L 352.566517 58.722325 
L 352.160293 58.74748 
L 351.754068 58.772605 
L 351.347844 58.7977 
L 350.94162 58.822764 
L 350.535395 58.847798 
L 350.129171 58.872801 
L 349.722946 58.897773 
L 349.316722 58.922715 
L 348.910498 58.947626 
L 348.504273 58.972506 
L 348.098049 58.997355 
L 347.691824 59.022173 
L 347.2856 59.04696 
L 346.879376 59.071716 
L 346.473151 59.09644 
L 346.066927 59.121133 
L 345.660702 59.145794 
L 345.254478 59.170424 
L 344.848253 59.195022 
L 344.442029 59.219589 
L 344.035805 59.244123 
L 343.62958 59.268626 
L 343.223356 59.293096 
L 342.817131 59.317535 
L 342.410907 59.341941 
L 342.004683 59.366315 
L 341.598458 59.390657 
L 341.192234 59.414966 
L 340.786009 59.439242 
L 340.379785 59.463486 
L 339.973561 59.487697 
L 339.567336 59.511875 
L 339.161112 59.536021 
L 338.754887 59.560133 
L 338.348663 59.584212 
L 337.942439 59.608258 
L 337.536214 59.632271 
L 337.12999 59.65625 
L 336.723765 59.680196 
L 336.317541 59.704108 
L 335.911317 59.727987 
L 335.505092 59.751832 
L 335.098868 59.775643 
L 334.692643 59.79942 
L 334.286419 59.823163 
L 333.880195 59.846871 
L 333.47397 59.870546 
L 333.067746 59.894186 
L 332.661521 59.917792 
L 332.255297 59.941363 
L 331.849072 59.9649 
L 331.442848 59.988402 
L 331.036624 60.011869 
L 330.630399 60.035301 
L 330.224175 60.058698 
L 329.81795 60.08206 
L 329.411726 60.105387 
L 329.005502 60.128678 
L 328.599277 60.151934 
L 328.193053 60.175155 
L 327.786828 60.19834 
L 327.380604 60.221489 
L 326.97438 60.244603 
L 326.568155 60.26768 
L 326.161931 60.290722 
L 325.755706 60.313727 
L 325.349482 60.336696 
L 324.943258 60.359629 
L 324.537033 60.382525 
L 324.130809 60.405385 
L 323.724584 60.428209 
L 323.31836 60.450995 
L 322.912136 60.473745 
L 322.505911 60.496458 
L 322.099687 60.519133 
L 321.693462 60.541772 
L 321.287238 60.564373 
L 320.881014 60.586937 
L 320.474789 60.609464 
L 320.068565 60.631953 
L 319.66234 60.654404 
L 319.256116 60.676817 
L 318.849891 60.699193 
L 318.443667 60.721531 
L 318.037443 60.74383 
L 317.631218 60.766092 
L 317.224994 60.788315 
L 316.818769 60.810499 
L 316.412545 60.832645 
L 316.006321 60.854753 
L 315.600096 60.876822 
L 315.193872 60.898851 
L 314.787647 60.920842 
L 314.381423 60.942794 
L 313.975199 60.964707 
L 313.568974 60.98658 
L 313.16275 61.008414 
L 312.756525 61.030208 
L 312.350301 61.051963 
L 311.944077 61.073678 
L 311.537852 61.095353 
L 311.131628 61.116988 
L 310.725403 61.138584 
L 310.319179 61.160138 
L 309.912955 61.181653 
L 309.50673 61.203127 
L 309.100506 61.224561 
L 308.694281 61.245954 
L 308.288057 61.267306 
L 307.881833 61.288618 
L 307.475608 61.309888 
L 307.069384 61.331117 
L 306.663159 61.352305 
L 306.256935 61.373452 
L 305.85071 61.394557 
L 305.444486 61.415621 
L 305.038262 61.436643 
L 304.632037 61.457623 
L 304.225813 61.478561 
L 303.819588 61.499457 
L 303.413364 61.520311 
L 303.00714 61.541123 
L 302.600915 61.561892 
L 302.194691 61.582619 
L 301.788466 61.603303 
L 301.382242 61.623944 
L 300.976018 61.644543 
L 300.569793 61.665098 
L 300.163569 61.685611 
L 299.757344 61.70608 
L 299.35112 61.726505 
L 298.944896 61.746888 
L 298.538671 61.767226 
L 298.132447 61.787521 
L 297.726222 61.807772 
L 297.319998 61.827979 
L 296.913774 61.848142 
L 296.507549 61.86826 
L 296.101325 61.888334 
L 295.6951 61.908364 
L 295.288876 61.928349 
L 294.882652 61.948289 
L 294.476427 61.968185 
L 294.070203 61.988035 
L 293.663978 62.007841 
L 293.257754 62.027601 
L 292.851529 62.047315 
L 292.445305 62.066985 
L 292.039081 62.086608 
L 291.632856 62.106186 
L 291.226632 62.125718 
L 290.820407 62.145204 
L 290.414183 62.164643 
L 290.007959 62.184037 
L 289.601734 62.203384 
L 289.19551 62.222684 
L 288.789285 62.241938 
L 288.383061 62.261145 
L 287.976837 62.280305 
L 287.570612 62.299418 
L 287.164388 62.318483 
L 286.758163 62.337502 
L 286.351939 62.356472 
L 285.945715 62.375396 
L 285.53949 62.394271 
L 285.133266 62.413099 
L 284.727041 62.431878 
L 284.320817 62.45061 
L 283.914593 62.469293 
L 283.508368 62.487928 
L 283.102144 62.506514 
L 282.695919 62.525051 
L 282.289695 62.54354 
L 281.883471 62.561979 
L 281.477246 62.58037 
L 281.071022 62.598711 
L 280.664797 62.617003 
L 280.258573 62.635246 
L 279.852348 62.653438 
L 279.446124 62.671581 
L 279.0399 62.689674 
L 278.633675 62.707717 
L 278.227451 62.72571 
L 277.821226 62.743652 
L 277.415002 62.761544 
L 277.008778 62.779385 
L 276.602553 62.797175 
L 276.196329 62.814914 
L 275.790104 62.832602 
L 275.38388 62.85024 
L 274.977656 62.867825 
L 274.571431 62.885359 
L 274.165207 62.902842 
L 273.758982 62.920273 
L 273.352758 62.937651 
L 272.946534 62.954978 
L 272.540309 62.972252 
L 272.134085 62.989474 
L 271.72786 63.006644 
L 271.321636 63.023761 
L 270.915412 63.040824 
L 270.509187 63.057835 
L 270.102963 63.074793 
L 269.696738 63.091698 
L 269.290514 63.108549 
L 268.88429 63.125347 
L 268.478065 63.142091 
L 268.071841 63.15878 
L 267.665616 63.175416 
L 267.259392 63.191998 
L 266.853167 63.208526 
L 266.446943 63.224999 
L 266.040719 63.241417 
L 265.634494 63.257781 
L 265.22827 63.274089 
L 264.822045 63.290343 
L 264.415821 63.306541 
L 264.009597 63.322684 
L 263.603372 63.338771 
L 263.197148 63.354803 
L 262.790923 63.370779 
L 262.384699 63.386699 
L 261.978475 63.402562 
L 261.57225 63.41837 
L 261.166026 63.43412 
L 260.759801 63.449815 
L 260.353577 63.465452 
L 259.947353 63.481032 
L 259.541128 63.496556 
L 259.134904 63.512022 
L 258.728679 63.52743 
L 258.322455 63.542781 
L 257.916231 63.558075 
L 257.510006 63.57331 
L 257.103782 63.588488 
L 256.697557 63.603607 
L 256.291333 63.618667 
L 255.885109 63.633669 
L 255.478884 63.648613 
L 255.07266 63.663498 
L 254.666435 63.678323 
L 254.260211 63.693089 
L 253.853986 63.707796 
L 253.447762 63.722444 
L 253.041538 63.737032 
L 252.635313 63.75156 
L 252.229089 63.766028 
L 251.822864 63.780435 
L 251.41664 63.794783 
L 251.010416 63.80907 
L 250.604191 63.823296 
L 250.197967 63.837461 
L 249.791742 63.851566 
L 249.385518 63.865609 
L 248.979294 63.879591 
L 248.573069 63.893511 
L 248.166845 63.90737 
L 247.76062 63.921167 
L 247.354396 63.934902 
L 246.948172 63.948574 
L 246.541947 63.962185 
L 246.135723 63.975732 
L 245.729498 63.989218 
L 245.323274 64.00264 
L 244.91705 64.015999 
L 244.510825 64.029295 
L 244.104601 64.042528 
L 243.698376 64.055697 
L 243.292152 64.068802 
L 242.885928 64.081844 
L 242.479703 64.094821 
L 242.073479 64.107734 
L 241.667254 64.120583 
L 241.26103 64.133367 
L 240.854805 64.146087 
L 240.448581 64.158741 
L 240.042357 64.171331 
L 239.636132 64.183855 
L 239.229908 64.196314 
L 238.823683 64.208707 
L 238.417459 64.221034 
L 238.011235 64.233296 
L 237.60501 64.245491 
L 237.198786 64.257619 
L 236.792561 64.269682 
L 236.386337 64.281677 
L 235.980113 64.293606 
L 235.573888 64.305468 
L 235.167664 64.317262 
L 234.761439 64.32899 
L 234.355215 64.340649 
L 233.948991 64.352241 
L 233.542766 64.363765 
L 233.136542 64.37522 
L 232.730317 64.386608 
L 232.324093 64.397927 
L 231.917869 64.409177 
L 231.511644 64.420358 
L 231.10542 64.431471 
L 230.699195 64.442514 
L 230.292971 64.453488 
L 229.886747 64.464392 
L 229.480522 64.475227 
L 229.074298 64.485991 
L 228.668073 64.496686 
L 228.261849 64.50731 
L 227.855624 64.517863 
L 227.4494 64.528346 
L 227.043176 64.538759 
L 226.636951 64.5491 
L 226.230727 64.55937 
L 225.824502 64.569568 
L 225.418278 64.579695 
L 225.012054 64.58975 
L 224.605829 64.599733 
L 224.199605 64.609644 
L 223.79338 64.619483 
L 223.387156 64.629249 
L 222.980932 64.638943 
L 222.574707 64.648563 
L 222.168483 64.658111 
L 221.762258 64.667585 
L 221.356034 64.676986 
L 220.94981 64.686313 
L 220.543585 64.695566 
L 220.137361 64.704745 
L 219.731136 64.71385 
L 219.324912 64.722881 
L 218.918688 64.731837 
L 218.512463 64.740718 
L 218.106239 64.749524 
L 217.700014 64.758255 
L 217.29379 64.766911 
L 216.887566 64.775491 
L 216.481341 64.783996 
L 216.075117 64.792425 
L 215.668892 64.800777 
L 215.262668 64.809053 
L 214.856443 64.817253 
L 214.450219 64.825376 
L 214.043995 64.833422 
L 213.63777 64.841391 
L 213.231546 64.849283 
L 212.825321 64.857097 
L 212.419097 64.864833 
L 212.012873 64.872492 
L 211.606648 64.880073 
L 211.200424 64.887576 
L 210.794199 64.895 
L 210.387975 64.902345 
L 209.981751 64.909612 
L 209.575526 64.916799 
L 209.169302 64.923908 
L 208.763077 64.930937 
L 208.356853 64.937886 
L 207.950629 64.944756 
L 207.544404 64.951546 
L 207.13818 64.958255 
L 206.731955 64.964885 
L 206.325731 64.971433 
L 205.919507 64.977901 
L 205.513282 64.984288 
L 205.107058 64.990594 
L 204.700833 64.996818 
L 204.294609 65.002961 
L 203.888385 65.009022 
L 203.48216 65.015001 
L 203.075936 65.020898 
L 202.669711 65.026713 
L 202.263487 65.032445 
L 201.857262 65.038095 
L 201.451038 65.043661 
L 201.044814 65.049145 
L 200.638589 65.054545 
L 200.232365 65.059862 
L 199.82614 65.065095 
L 199.419916 65.070244 
L 199.013692 65.075309 
L 198.607467 65.080289 
L 198.201243 65.085185 
L 197.795018 65.089997 
L 197.388794 65.094723 
L 196.98257 65.099365 
L 196.576345 65.103921 
L 196.170121 65.108392 
L 195.763896 65.112777 
L 195.357672 65.117076 
L 194.951448 65.121289 
L 194.545223 65.125416 
L 194.138999 65.129456 
L 193.732774 65.13341 
L 193.32655 65.137277 
L 192.920326 65.141057 
L 192.514101 65.144749 
L 192.107877 65.148354 
L 191.701652 65.151872 
L 191.295428 65.155301 
L 190.889204 65.158643 
L 190.482979 65.161896 
L 190.076755 65.165061 
L 189.67053 65.168137 
L 189.264306 65.171124 
L 188.858081 65.174022 
L 188.451857 65.176831 
L 188.045633 65.179551 
L 187.639408 65.182181 
L 187.233184 65.184721 
L 186.826959 65.187171 
L 186.420735 65.189531 
L 186.014511 65.1918 
L 185.608286 65.193979 
L 185.202062 65.196067 
L 184.795837 65.198064 
L 184.389613 65.19997 
L 183.983389 65.201784 
L 183.577164 65.203507 
L 183.17094 65.205138 
L 182.764715 65.206676 
L 182.358491 65.208123 
L 181.952267 65.209477 
L 181.546042 65.210739 
L 181.139818 65.211908 
L 180.733593 65.212984 
L 180.327369 65.213967 
L 179.921145 65.214856 
L 179.51492 65.215652 
L 179.108696 65.216354 
L 178.702471 65.216962 
L 178.296247 65.217476 
L 177.890023 65.217896 
L 177.483798 65.218221 
L 177.077574 65.218451 
L 176.671349 65.218586 
L 176.265125 65.218626 
L 175.8589 65.218571 
L 175.452676 65.218421 
L 175.046452 65.218174 
L 174.640227 65.217832 
L 174.234003 65.217394 
L 173.827778 65.216859 
L 173.421554 65.216228 
L 173.01533 65.2155 
L 172.609105 65.214675 
L 172.202881 65.213754 
L 171.796656 65.212735 
L 171.390432 65.211618 
L 170.984208 65.210404 
L 170.577983 65.209092 
L 170.171759 65.207682 
L 169.765534 65.206174 
L 169.35931 65.204567 
L 168.953086 65.202862 
L 168.546861 65.201058 
L 168.140637 65.199155 
L 167.734412 65.197153 
L 167.328188 65.195052 
L 166.921964 65.192851 
L 166.515739 65.19055 
L 166.109515 65.188149 
L 165.70329 65.185648 
L 165.297066 65.183047 
L 164.890842 65.180346 
L 164.484617 65.177544 
L 164.078393 65.174641 
L 163.672168 65.171637 
L 163.265944 65.168531 
L 162.859719 65.165325 
L 162.453495 65.162016 
L 162.047271 65.158606 
L 161.641046 65.155094 
L 161.234822 65.15148 
L 160.828597 65.147764 
L 160.422373 65.143945 
L 160.016149 65.140023 
L 159.609924 65.135999 
L 159.2037 65.131871 
L 158.797475 65.12764 
L 158.391251 65.123306 
L 157.985027 65.118868 
L 157.578802 65.114327 
L 157.172578 65.109681 
L 156.766353 65.104931 
L 156.360129 65.100077 
L 155.953905 65.095119 
L 155.54768 65.090056 
L 155.141456 65.084888 
L 154.735231 65.079615 
L 154.329007 65.074237 
L 153.922783 65.068753 
L 153.516558 65.063164 
L 153.110334 65.057469 
L 152.704109 65.051669 
L 152.297885 65.045762 
L 151.891661 65.039749 
L 151.485436 65.03363 
L 151.079212 65.027404 
L 150.672987 65.021071 
L 150.266763 65.014632 
L 149.860538 65.008085 
L 149.454314 65.001431 
L 149.04809 64.99467 
L 148.641865 64.987801 
L 148.235641 64.980824 
L 147.829416 64.97374 
L 147.423192 64.966547 
L 147.016968 64.959246 
L 146.610743 64.951837 
L 146.204519 64.944319 
L 145.798294 64.936692 
L 145.39207 64.928957 
L 144.985846 64.921112 
L 144.579621 64.913158 
L 144.173397 64.905095 
L 143.767172 64.896922 
L 143.360948 64.88864 
L 142.954724 64.880248 
L 142.548499 64.871745 
L 142.142275 64.863133 
L 141.73605 64.85441 
L 141.329826 64.845577 
L 140.923602 64.836633 
L 140.517377 64.827578 
L 140.111153 64.818412 
L 139.704928 64.809135 
L 139.298704 64.799747 
L 138.89248 64.790248 
L 138.486255 64.780637 
L 138.080031 64.770914 
L 137.673806 64.76108 
L 137.267582 64.751133 
L 136.861357 64.741074 
L 136.455133 64.730903 
L 136.048909 64.72062 
L 135.642684 64.710224 
L 135.23646 64.699715 
L 134.830235 64.689094 
L 134.424011 64.678359 
L 134.017787 64.667511 
L 133.611562 64.65655 
L 133.205338 64.645476 
L 132.799113 64.634288 
L 132.392889 64.622986 
L 131.986665 64.61157 
L 131.58044 64.600041 
L 131.174216 64.588397 
L 130.767991 64.576639 
L 130.361767 64.564767 
L 129.955543 64.55278 
L 129.549318 64.540679 
L 129.143094 64.528463 
L 128.736869 64.516132 
L 128.330645 64.503685 
L 127.924421 64.491124 
L 127.518196 64.478448 
L 127.111972 64.465656 
L 126.705747 64.452748 
L 126.299523 64.439725 
L 125.893299 64.426586 
L 125.487074 64.413331 
L 125.08085 64.39996 
L 124.674625 64.386473 
L 124.268401 64.37287 
L 123.862176 64.35915 
L 123.455952 64.345314 
L 123.049728 64.331361 
L 122.643503 64.317292 
L 122.237279 64.303105 
L 121.831054 64.288802 
L 121.42483 64.274382 
L 121.018606 64.259844 
L 120.612381 64.245189 
L 120.206157 64.230417 
L 119.799932 64.215527 
L 119.393708 64.20052 
L 118.987484 64.185395 
L 118.581259 64.170152 
L 118.175035 64.154791 
L 117.76881 64.139312 
L 117.362586 64.123715 
L 116.956362 64.108 
L 116.550137 64.092166 
L 116.143913 64.076215 
L 115.737688 64.060144 
L 115.331464 64.043955 
L 114.92524 64.027647 
L 114.519015 64.011221 
L 114.112791 63.994675 
L 113.706566 63.978011 
L 113.300342 63.961227 
L 112.894118 63.944324 
L 112.487893 63.927302 
L 112.081669 63.910161 
L 111.675444 63.8929 
L 111.26922 63.87552 
L 110.862995 63.85802 
L 110.456771 63.8404 
L 110.050547 63.822661 
L 109.644322 63.804802 
L 109.238098 63.786823 
L 108.831873 63.768724 
L 108.425649 63.750505 
L 108.019425 63.732165 
L 107.6132 63.713706 
L 107.206976 63.695126 
L 106.800751 63.676426 
L 106.394527 63.657605 
L 105.988303 63.638664 
L 105.582078 63.619602 
L 105.175854 63.60042 
L 104.769629 63.581117 
L 104.363405 63.561693 
L 103.957181 63.542149 
L 103.550956 63.522483 
L 103.144732 63.502697 
L 102.738507 63.482789 
L 102.332283 63.462761 
L 101.926059 63.442611 
L 101.519834 63.42234 
L 101.11361 63.401948 
L 100.707385 63.381435 
L 100.301161 63.3608 
L 99.894937 63.340044 
L 99.488712 63.319166 
L 99.082488 63.298167 
L 98.676263 63.277046 
L 98.270039 63.255804 
L 97.863814 63.23444 
L 97.45759 63.212955 
L 97.051366 63.191348 
L 96.645141 63.169619 
L 96.238917 63.147768 
L 95.832692 63.125795 
L 95.426468 63.103701 
L 95.020244 63.081484 
L 94.614019 63.059146 
L 94.207795 63.036686 
L 93.80157 63.014103 
L 93.395346 62.991399 
L 92.989122 62.968573 
L 92.582897 62.945624 
L 92.176673 62.922553 
L 91.770448 62.899361 
L 91.364224 62.876046 
L 90.958 62.852609 
L 90.551775 62.829049 
L 90.145551 62.805368 
L 89.739326 62.781564 
L 89.333102 62.757638 
L 88.926878 62.733589 
L 88.520653 62.709419 
L 88.114429 62.685126 
L 87.708204 62.66071 
L 87.30198 62.636173 
L 86.895756 62.611513 
L 86.489531 62.58673 
L 86.083307 62.561826 
L 85.677082 62.536798 
L 85.270858 62.511649 
L 84.864633 62.486377 
L 84.458409 62.460983 
z
" style="fill:#1f77b4;fill-opacity:0.4;"/>
   </g>
   <g id="PathCollection_1">
    <defs>
     <path d="M 0 3 
C 0.795609 3 1.55874 2.683901 2.12132 2.12132 
C 2.683901 1.55874 3 0.795609 3 0 
C 3 -0.795609 2.683901 -1.55874 2.12132 -2.12132 
C 1.55874 -2.683901 0.795609 -3 0 -3 
C -0.795609 -3 -1.55874 -2.683901 -2.12132 -2.12132 
C -2.683901 -1.55874 -3 -0.795609 -3 0 
C -3 0.795609 -2.683901 1.55874 -2.12132 2.12132 
C -1.55874 2.683901 -0.795609 3 0 3 
z
" id="md5ddd33400" style="stroke:#000000;"/>
    </defs>
    <g clip-path="url(#p4cbdc6056c)">
     <use style="stroke:#000000;" x="94.614019" xlink:href="#md5ddd33400" y="74.757522"/>
     <use style="stroke:#000000;" x="272.946534" xlink:href="#md5ddd33400" y="133.022388"/>
     <use style="stroke:#000000;" x="235.573888" xlink:href="#md5ddd33400" y="100.74458"/>
    </g>
   </g>
   <g id="PathCollection_2">
    <defs>
     <path d="M 0 3 
C 0.795609 3 1.55874 2.683901 2.12132 2.12132 
C 2.683901 1.55874 3 0.795609 3 0 
C 3 -0.795609 2.683901 -1.55874 2.12132 -2.12132 
C 1.55874 -2.683901 0.795609 -3 0 -3 
C -0.795609 -3 -1.55874 -2.683901 -2.12132 -2.12132 
C -2.683901 -1.55874 -3 -0.795609 -3 0 
C -3 0.795609 -2.683901 1.55874 -2.12132 2.12132 
C -1.55874 2.683901 -0.795609 3 0 3 
z
" id="m1c477b0cf4" style="stroke:#ff0000;"/>
    </defs>
    <g clip-path="url(#p4cbdc6056c)">
     <use style="fill:#ff0000;stroke:#ff0000;" x="84.458409" xlink:href="#m1c477b0cf4" y="84.21681"/>
     <use style="fill:#ff0000;stroke:#ff0000;" x="84.864633" xlink:href="#m1c477b0cf4" y="84.215949"/>
     <use style="fill:#ff0000;stroke:#ff0000;" x="85.270858" xlink:href="#m1c477b0cf4" y="84.213366"/>
    </g>
   </g>
   <g id="matplotlib.axis_1">
    <g id="xtick_1">
     <g id="line2d_1">
      <defs>
       <path d="M 0 0 
L 0 3.5 
" id="md73797531c" style="stroke:#000000;stroke-width:0.8;"/>
      </defs>
      <g>
       <use style="stroke:#000000;stroke-width:0.8;" x="84.458409" xlink:href="#md73797531c" y="204.872727"/>
      </g>
     </g>
     <g id="text_1">
      <!-- 0 -->
      <g transform="translate(80.640909 220.990852)scale(0.12 -0.12)">
       <defs>
        <path d="M 31.78125 66.40625 
Q 24.171875 66.40625 20.328125 58.90625 
Q 16.5 51.421875 16.5 36.375 
Q 16.5 21.390625 20.328125 13.890625 
Q 24.171875 6.390625 31.78125 6.390625 
Q 39.453125 6.390625 43.28125 13.890625 
Q 47.125 21.390625 47.125 36.375 
Q 47.125 51.421875 43.28125 58.90625 
Q 39.453125 66.40625 31.78125 66.40625 
z
M 31.78125 74.21875 
Q 44.046875 74.21875 50.515625 64.515625 
Q 56.984375 54.828125 56.984375 36.375 
Q 56.984375 17.96875 50.515625 8.265625 
Q 44.046875 -1.421875 31.78125 -1.421875 
Q 19.53125 -1.421875 13.0625 8.265625 
Q 6.59375 17.96875 6.59375 36.375 
Q 6.59375 54.828125 13.0625 64.515625 
Q 19.53125 74.21875 31.78125 74.21875 
z
" id="DejaVuSans-48"/>
       </defs>
       <use xlink:href="#DejaVuSans-48"/>
      </g>
     </g>
    </g>
    <g id="xtick_2">
     <g id="line2d_2">
      <g>
       <use style="stroke:#000000;stroke-width:0.8;" x="165.622045" xlink:href="#md73797531c" y="204.872727"/>
      </g>
     </g>
     <g id="text_2">
      <!-- 2 -->
      <g transform="translate(161.804545 220.990852)scale(0.12 -0.12)">
       <defs>
        <path d="M 19.1875 8.296875 
L 53.609375 8.296875 
L 53.609375 0 
L 7.328125 0 
L 7.328125 8.296875 
Q 12.9375 14.109375 22.625 23.890625 
Q 32.328125 33.6875 34.8125 36.53125 
Q 39.546875 41.84375 41.421875 45.53125 
Q 43.3125 49.21875 43.3125 52.78125 
Q 43.3125 58.59375 39.234375 62.25 
Q 35.15625 65.921875 28.609375 65.921875 
Q 23.96875 65.921875 18.8125 64.3125 
Q 13.671875 62.703125 7.8125 59.421875 
L 7.8125 69.390625 
Q 13.765625 71.78125 18.9375 73 
Q 24.125 74.21875 28.421875 74.21875 
Q 39.75 74.21875 46.484375 68.546875 
Q 53.21875 62.890625 53.21875 53.421875 
Q 53.21875 48.921875 51.53125 44.890625 
Q 49.859375 40.875 45.40625 35.40625 
Q 44.1875 33.984375 37.640625 27.21875 
Q 31.109375 20.453125 19.1875 8.296875 
z
" id="DejaVuSans-50"/>
       </defs>
       <use xlink:href="#DejaVuSans-50"/>
      </g>
     </g>
    </g>
    <g id="xtick_3">
     <g id="line2d_3">
      <g>
       <use style="stroke:#000000;stroke-width:0.8;" x="246.785682" xlink:href="#md73797531c" y="204.872727"/>
      </g>
     </g>
     <g id="text_3">
      <!-- 4 -->
      <g transform="translate(242.968182 220.990852)scale(0.12 -0.12)">
       <defs>
        <path d="M 37.796875 64.3125 
L 12.890625 25.390625 
L 37.796875 25.390625 
z
M 35.203125 72.90625 
L 47.609375 72.90625 
L 47.609375 25.390625 
L 58.015625 25.390625 
L 58.015625 17.1875 
L 47.609375 17.1875 
L 47.609375 0 
L 37.796875 0 
L 37.796875 17.1875 
L 4.890625 17.1875 
L 4.890625 26.703125 
z
" id="DejaVuSans-52"/>
       </defs>
       <use xlink:href="#DejaVuSans-52"/>
      </g>
     </g>
    </g>
    <g id="xtick_4">
     <g id="line2d_4">
      <g>
       <use style="stroke:#000000;stroke-width:0.8;" x="327.949318" xlink:href="#md73797531c" y="204.872727"/>
      </g>
     </g>
     <g id="text_4">
      <!-- 6 -->
      <g transform="translate(324.131818 220.990852)scale(0.12 -0.12)">
       <defs>
        <path d="M 33.015625 40.375 
Q 26.375 40.375 22.484375 35.828125 
Q 18.609375 31.296875 18.609375 23.390625 
Q 18.609375 15.53125 22.484375 10.953125 
Q 26.375 6.390625 33.015625 6.390625 
Q 39.65625 6.390625 43.53125 10.953125 
Q 47.40625 15.53125 47.40625 23.390625 
Q 47.40625 31.296875 43.53125 35.828125 
Q 39.65625 40.375 33.015625 40.375 
z
M 52.59375 71.296875 
L 52.59375 62.3125 
Q 48.875 64.0625 45.09375 64.984375 
Q 41.3125 65.921875 37.59375 65.921875 
Q 27.828125 65.921875 22.671875 59.328125 
Q 17.53125 52.734375 16.796875 39.40625 
Q 19.671875 43.65625 24.015625 45.921875 
Q 28.375 48.1875 33.59375 48.1875 
Q 44.578125 48.1875 50.953125 41.515625 
Q 57.328125 34.859375 57.328125 23.390625 
Q 57.328125 12.15625 50.6875 5.359375 
Q 44.046875 -1.421875 33.015625 -1.421875 
Q 20.359375 -1.421875 13.671875 8.265625 
Q 6.984375 17.96875 6.984375 36.375 
Q 6.984375 53.65625 15.1875 63.9375 
Q 23.390625 74.21875 37.203125 74.21875 
Q 40.921875 74.21875 44.703125 73.484375 
Q 48.484375 72.75 52.59375 71.296875 
z
" id="DejaVuSans-54"/>
       </defs>
       <use xlink:href="#DejaVuSans-54"/>
      </g>
     </g>
    </g>
    <g id="xtick_5">
     <g id="line2d_5">
      <g>
       <use style="stroke:#000000;stroke-width:0.8;" x="409.112955" xlink:href="#md73797531c" y="204.872727"/>
      </g>
     </g>
     <g id="text_5">
      <!-- 8 -->
      <g transform="translate(405.295455 220.990852)scale(0.12 -0.12)">
       <defs>
        <path d="M 31.78125 34.625 
Q 24.75 34.625 20.71875 30.859375 
Q 16.703125 27.09375 16.703125 20.515625 
Q 16.703125 13.921875 20.71875 10.15625 
Q 24.75 6.390625 31.78125 6.390625 
Q 38.8125 6.390625 42.859375 10.171875 
Q 46.921875 13.96875 46.921875 20.515625 
Q 46.921875 27.09375 42.890625 30.859375 
Q 38.875 34.625 31.78125 34.625 
z
M 21.921875 38.8125 
Q 15.578125 40.375 12.03125 44.71875 
Q 8.5 49.078125 8.5 55.328125 
Q 8.5 64.0625 14.71875 69.140625 
Q 20.953125 74.21875 31.78125 74.21875 
Q 42.671875 74.21875 48.875 69.140625 
Q 55.078125 64.0625 55.078125 55.328125 
Q 55.078125 49.078125 51.53125 44.71875 
Q 48 40.375 41.703125 38.8125 
Q 48.828125 37.15625 52.796875 32.3125 
Q 56.78125 27.484375 56.78125 20.515625 
Q 56.78125 9.90625 50.3125 4.234375 
Q 43.84375 -1.421875 31.78125 -1.421875 
Q 19.734375 -1.421875 13.25 4.234375 
Q 6.78125 9.90625 6.78125 20.515625 
Q 6.78125 27.484375 10.78125 32.3125 
Q 14.796875 37.15625 21.921875 38.8125 
z
M 18.3125 54.390625 
Q 18.3125 48.734375 21.84375 45.5625 
Q 25.390625 42.390625 31.78125 42.390625 
Q 38.140625 42.390625 41.71875 45.5625 
Q 45.3125 48.734375 45.3125 54.390625 
Q 45.3125 60.0625 41.71875 63.234375 
Q 38.140625 66.40625 31.78125 66.40625 
Q 25.390625 66.40625 21.84375 63.234375 
Q 18.3125 60.0625 18.3125 54.390625 
z
" id="DejaVuSans-56"/>
       </defs>
       <use xlink:href="#DejaVuSans-56"/>
      </g>
     </g>
    </g>
    <g id="xtick_6">
     <g id="line2d_6">
      <g>
       <use style="stroke:#000000;stroke-width:0.8;" x="490.276591" xlink:href="#md73797531c" y="204.872727"/>
      </g>
     </g>
     <g id="text_6">
      <!-- 10 -->
      <g transform="translate(482.641591 220.990852)scale(0.12 -0.12)">
       <defs>
        <path d="M 12.40625 8.296875 
L 28.515625 8.296875 
L 28.515625 63.921875 
L 10.984375 60.40625 
L 10.984375 69.390625 
L 28.421875 72.90625 
L 38.28125 72.90625 
L 38.28125 8.296875 
L 54.390625 8.296875 
L 54.390625 0 
L 12.40625 0 
z
" id="DejaVuSans-49"/>
       </defs>
       <use xlink:href="#DejaVuSans-49"/>
       <use x="63.623047" xlink:href="#DejaVuSans-48"/>
      </g>
     </g>
    </g>
   </g>
   <g id="matplotlib.axis_2">
    <g id="ytick_1">
     <g id="line2d_7">
      <defs>
       <path d="M 0 0 
L -3.5 0 
" id="ma3d1384982" style="stroke:#000000;stroke-width:0.8;"/>
      </defs>
      <g>
       <use style="stroke:#000000;stroke-width:0.8;" x="64.1675" xlink:href="#ma3d1384982" y="204.524583"/>
      </g>
     </g>
     <g id="text_7">
      <!-- 40 -->
      <g transform="translate(31.841875 209.083645)scale(0.12 -0.12)">
       <defs>
        <path d="M 10.59375 35.5 
L 73.1875 35.5 
L 73.1875 27.203125 
L 10.59375 27.203125 
z
" id="DejaVuSans-8722"/>
       </defs>
       <use xlink:href="#DejaVuSans-8722"/>
       <use x="83.789062" xlink:href="#DejaVuSans-52"/>
       <use x="147.412109" xlink:href="#DejaVuSans-48"/>
      </g>
     </g>
    </g>
    <g id="ytick_2">
     <g id="line2d_8">
      <g>
       <use style="stroke:#000000;stroke-width:0.8;" x="64.1675" xlink:href="#ma3d1384982" y="170.150934"/>
      </g>
     </g>
     <g id="text_8">
      <!-- 20 -->
      <g transform="translate(31.841875 174.709996)scale(0.12 -0.12)">
       <use xlink:href="#DejaVuSans-8722"/>
       <use x="83.789062" xlink:href="#DejaVuSans-50"/>
       <use x="147.412109" xlink:href="#DejaVuSans-48"/>
      </g>
     </g>
    </g>
    <g id="ytick_3">
     <g id="line2d_9">
      <g>
       <use style="stroke:#000000;stroke-width:0.8;" x="64.1675" xlink:href="#ma3d1384982" y="135.777284"/>
      </g>
     </g>
     <g id="text_9">
      <!-- 0 -->
      <g transform="translate(49.5325 140.336347)scale(0.12 -0.12)">
       <use xlink:href="#DejaVuSans-48"/>
      </g>
     </g>
    </g>
    <g id="ytick_4">
     <g id="line2d_10">
      <g>
       <use style="stroke:#000000;stroke-width:0.8;" x="64.1675" xlink:href="#ma3d1384982" y="101.403635"/>
      </g>
     </g>
     <g id="text_10">
      <!-- 20 -->
      <g transform="translate(41.8975 105.962697)scale(0.12 -0.12)">
       <use xlink:href="#DejaVuSans-50"/>
       <use x="63.623047" xlink:href="#DejaVuSans-48"/>
      </g>
     </g>
    </g>
    <g id="ytick_5">
     <g id="line2d_11">
      <g>
       <use style="stroke:#000000;stroke-width:0.8;" x="64.1675" xlink:href="#ma3d1384982" y="67.029985"/>
      </g>
     </g>
     <g id="text_11">
      <!-- 40 -->
      <g transform="translate(41.8975 71.589048)scale(0.12 -0.12)">
       <use xlink:href="#DejaVuSans-52"/>
       <use x="63.623047" xlink:href="#DejaVuSans-48"/>
      </g>
     </g>
    </g>
    <g id="ytick_6">
     <g id="line2d_12">
      <g>
       <use style="stroke:#000000;stroke-width:0.8;" x="64.1675" xlink:href="#ma3d1384982" y="32.656336"/>
      </g>
     </g>
     <g id="text_12">
      <!-- 60 -->
      <g transform="translate(41.8975 37.215399)scale(0.12 -0.12)">
       <use xlink:href="#DejaVuSans-54"/>
       <use x="63.623047" xlink:href="#DejaVuSans-48"/>
      </g>
     </g>
    </g>
    <g id="text_13">
     <!-- f(x) -->
     <g transform="translate(25.34625 116.381676)rotate(-90)scale(0.12 -0.12)">
      <defs>
       <path d="M 37.109375 75.984375 
L 37.109375 68.5 
L 28.515625 68.5 
Q 23.6875 68.5 21.796875 66.546875 
Q 19.921875 64.59375 19.921875 59.515625 
L 19.921875 54.6875 
L 34.71875 54.6875 
L 34.71875 47.703125 
L 19.921875 47.703125 
L 19.921875 0 
L 10.890625 0 
L 10.890625 47.703125 
L 2.296875 47.703125 
L 2.296875 54.6875 
L 10.890625 54.6875 
L 10.890625 58.5 
Q 10.890625 67.625 15.140625 71.796875 
Q 19.390625 75.984375 28.609375 75.984375 
z
" id="DejaVuSans-102"/>
       <path d="M 31 75.875 
Q 24.46875 64.65625 21.28125 53.65625 
Q 18.109375 42.671875 18.109375 31.390625 
Q 18.109375 20.125 21.3125 9.0625 
Q 24.515625 -2 31 -13.1875 
L 23.1875 -13.1875 
Q 15.875 -1.703125 12.234375 9.375 
Q 8.59375 20.453125 8.59375 31.390625 
Q 8.59375 42.28125 12.203125 53.3125 
Q 15.828125 64.359375 23.1875 75.875 
z
" id="DejaVuSans-40"/>
       <path d="M 54.890625 54.6875 
L 35.109375 28.078125 
L 55.90625 0 
L 45.3125 0 
L 29.390625 21.484375 
L 13.484375 0 
L 2.875 0 
L 24.125 28.609375 
L 4.6875 54.6875 
L 15.28125 54.6875 
L 29.78125 35.203125 
L 44.28125 54.6875 
z
" id="DejaVuSans-120"/>
       <path d="M 8.015625 75.875 
L 15.828125 75.875 
Q 23.140625 64.359375 26.78125 53.3125 
Q 30.421875 42.28125 30.421875 31.390625 
Q 30.421875 20.453125 26.78125 9.375 
Q 23.140625 -1.703125 15.828125 -13.1875 
L 8.015625 -13.1875 
Q 14.5 -2 17.703125 9.0625 
Q 20.90625 20.125 20.90625 31.390625 
Q 20.90625 42.671875 17.703125 53.65625 
Q 14.5 64.65625 8.015625 75.875 
z
" id="DejaVuSans-41"/>
      </defs>
      <use xlink:href="#DejaVuSans-102"/>
      <use x="35.205078" xlink:href="#DejaVuSans-40"/>
      <use x="74.21875" xlink:href="#DejaVuSans-120"/>
      <use x="133.398438" xlink:href="#DejaVuSans-41"/>
     </g>
    </g>
   </g>
   <g id="line2d_13">
    <path clip-path="url(#p4cbdc6056c)" d="M 84.458409 84.21681 
L 88.926878 84.112832 
L 93.80157 83.765321 
L 98.676263 83.183455 
L 103.550956 82.384119 
L 108.831873 81.300015 
L 114.92524 79.815668 
L 122.643503 77.682497 
L 142.548499 72.035194 
L 148.235641 70.711652 
L 153.110334 69.785514 
L 157.578802 69.144481 
L 162.047271 68.733617 
L 166.109515 68.582574 
L 170.171759 68.661475 
L 173.827778 68.941038 
L 177.483798 69.426728 
L 181.139818 70.124387 
L 184.795837 71.037394 
L 188.451857 72.16656 
L 192.107877 73.51006 
L 196.170121 75.248636 
L 200.232365 77.23609 
L 204.294609 79.45824 
L 208.763077 82.151865 
L 213.63777 85.354166 
L 219.324912 89.378279 
L 226.230727 94.564542 
L 246.948172 110.346757 
L 252.229089 113.967181 
L 256.697557 116.76516 
L 260.759801 119.049478 
L 264.415821 120.86114 
L 268.071841 122.413814 
L 271.321636 123.556451 
L 274.571431 124.458789 
L 277.821226 125.10625 
L 280.664797 125.453466 
L 283.508368 125.588003 
L 286.351939 125.503365 
L 289.19551 125.194215 
L 292.039081 124.656423 
L 294.882652 123.887115 
L 297.726222 122.884718 
L 300.569793 121.648989 
L 303.413364 120.181047 
L 306.256935 118.483385 
L 309.50673 116.266958 
L 312.756525 113.763629 
L 316.006321 110.983781 
L 319.66234 107.541846 
L 323.31836 103.787645 
L 327.380604 99.280691 
L 331.849072 93.96064 
L 336.723765 87.791526 
L 342.410907 80.223569 
L 350.94162 68.438996 
L 361.909679 53.325326 
L 367.59682 45.877506 
L 372.065289 40.362978 
L 376.127533 35.683358 
L 379.783552 31.79458 
L 383.033348 28.629816 
L 386.283143 25.768873 
L 389.126714 23.535456 
L 391.970285 21.571218 
L 394.813855 19.891423 
L 397.251202 18.688627 
L 399.688548 17.713102 
L 402.125895 16.972063 
L 404.563241 16.471897 
L 407.000588 16.218127 
L 409.437934 16.215384 
L 411.875281 16.467367 
L 414.312627 16.976828 
L 416.749973 17.745538 
L 419.18732 18.774276 
L 421.624666 20.062808 
L 424.062013 21.609879 
L 426.499359 23.413203 
L 428.936706 25.469458 
L 431.780276 28.182236 
L 434.623847 31.224633 
L 437.467418 34.58608 
L 440.717213 38.802389 
L 443.967009 43.397689 
L 447.623028 48.989882 
L 451.279048 54.99162 
L 455.341292 62.087576 
L 459.80976 70.336861 
L 465.090678 80.558902 
L 472.402717 95.255523 
L 486.214347 123.133611 
L 490.276591 130.966787 
L 490.276591 130.966787 
" style="fill:none;stroke:#000000;stroke-linecap:square;stroke-width:1.5;"/>
   </g>
   <g id="line2d_14">
    <path clip-path="url(#p4cbdc6056c)" d="M 84.458409 96.954631 
L 490.276591 122.384596 
L 490.276591 122.384596 
" style="fill:none;stroke:#1f77b4;stroke-linecap:square;stroke-width:1.5;"/>
   </g>
   <g id="patch_3">
    <path d="M 64.1675 204.872727 
L 64.1675 7.2 
" style="fill:none;stroke:#000000;stroke-linecap:square;stroke-linejoin:miter;stroke-width:0.8;"/>
   </g>
   <g id="patch_4">
    <path d="M 510.5675 204.872727 
L 510.5675 7.2 
" style="fill:none;stroke:#000000;stroke-linecap:square;stroke-linejoin:miter;stroke-width:0.8;"/>
   </g>
   <g id="patch_5">
    <path d="M 64.1675 204.872727 
L 510.5675 204.872727 
" style="fill:none;stroke:#000000;stroke-linecap:square;stroke-linejoin:miter;stroke-width:0.8;"/>
   </g>
   <g id="patch_6">
    <path d="M 64.1675 7.2 
L 510.5675 7.2 
" style="fill:none;stroke:#000000;stroke-linecap:square;stroke-linejoin:miter;stroke-width:0.8;"/>
   </g>
   <g id="legend_1">
    <g id="patch_7">
     <path d="M 72.5675 198.872727 
L 150.2825 198.872727 
Q 152.6825 198.872727 152.6825 196.472727 
L 152.6825 144.831477 
Q 152.6825 142.431477 150.2825 142.431477 
L 72.5675 142.431477 
Q 70.1675 142.431477 70.1675 144.831477 
L 70.1675 196.472727 
Q 70.1675 198.872727 72.5675 198.872727 
z
" style="fill:#ffffff;opacity:0.8;stroke:#cccccc;stroke-linejoin:miter;"/>
    </g>
    <g id="line2d_15">
     <path d="M 74.9675 152.149602 
L 98.9675 152.149602 
" style="fill:none;stroke:#1f77b4;stroke-linecap:square;stroke-width:1.5;"/>
    </g>
    <g id="line2d_16"/>
    <g id="text_14">
     <!-- GP -->
     <g transform="translate(108.5675 156.349602)scale(0.12 -0.12)">
      <defs>
       <path d="M 59.515625 10.40625 
L 59.515625 29.984375 
L 43.40625 29.984375 
L 43.40625 38.09375 
L 69.28125 38.09375 
L 69.28125 6.78125 
Q 63.578125 2.734375 56.6875 0.65625 
Q 49.8125 -1.421875 42 -1.421875 
Q 24.90625 -1.421875 15.25 8.5625 
Q 5.609375 18.5625 5.609375 36.375 
Q 5.609375 54.25 15.25 64.234375 
Q 24.90625 74.21875 42 74.21875 
Q 49.125 74.21875 55.546875 72.453125 
Q 61.96875 70.703125 67.390625 67.28125 
L 67.390625 56.78125 
Q 61.921875 61.421875 55.765625 63.765625 
Q 49.609375 66.109375 42.828125 66.109375 
Q 29.4375 66.109375 22.71875 58.640625 
Q 16.015625 51.171875 16.015625 36.375 
Q 16.015625 21.625 22.71875 14.15625 
Q 29.4375 6.6875 42.828125 6.6875 
Q 48.046875 6.6875 52.140625 7.59375 
Q 56.25 8.5 59.515625 10.40625 
z
" id="DejaVuSans-71"/>
       <path d="M 19.671875 64.796875 
L 19.671875 37.40625 
L 32.078125 37.40625 
Q 38.96875 37.40625 42.71875 40.96875 
Q 46.484375 44.53125 46.484375 51.125 
Q 46.484375 57.671875 42.71875 61.234375 
Q 38.96875 64.796875 32.078125 64.796875 
z
M 9.8125 72.90625 
L 32.078125 72.90625 
Q 44.34375 72.90625 50.609375 67.359375 
Q 56.890625 61.8125 56.890625 51.125 
Q 56.890625 40.328125 50.609375 34.8125 
Q 44.34375 29.296875 32.078125 29.296875 
L 19.671875 29.296875 
L 19.671875 0 
L 9.8125 0 
z
" id="DejaVuSans-80"/>
      </defs>
      <use xlink:href="#DejaVuSans-71"/>
      <use x="77.490234" xlink:href="#DejaVuSans-80"/>
     </g>
    </g>
    <g id="PathCollection_3">
     <g>
      <use style="stroke:#000000;" x="86.9675" xlink:href="#md5ddd33400" y="170.813352"/>
     </g>
    </g>
    <g id="text_15">
     <!-- known -->
     <g transform="translate(108.5675 173.963352)scale(0.12 -0.12)">
      <defs>
       <path d="M 9.078125 75.984375 
L 18.109375 75.984375 
L 18.109375 31.109375 
L 44.921875 54.6875 
L 56.390625 54.6875 
L 27.390625 29.109375 
L 57.625 0 
L 45.90625 0 
L 18.109375 26.703125 
L 18.109375 0 
L 9.078125 0 
z
" id="DejaVuSans-107"/>
       <path d="M 54.890625 33.015625 
L 54.890625 0 
L 45.90625 0 
L 45.90625 32.71875 
Q 45.90625 40.484375 42.875 44.328125 
Q 39.84375 48.1875 33.796875 48.1875 
Q 26.515625 48.1875 22.3125 43.546875 
Q 18.109375 38.921875 18.109375 30.90625 
L 18.109375 0 
L 9.078125 0 
L 9.078125 54.6875 
L 18.109375 54.6875 
L 18.109375 46.1875 
Q 21.34375 51.125 25.703125 53.5625 
Q 30.078125 56 35.796875 56 
Q 45.21875 56 50.046875 50.171875 
Q 54.890625 44.34375 54.890625 33.015625 
z
" id="DejaVuSans-110"/>
       <path d="M 30.609375 48.390625 
Q 23.390625 48.390625 19.1875 42.75 
Q 14.984375 37.109375 14.984375 27.296875 
Q 14.984375 17.484375 19.15625 11.84375 
Q 23.34375 6.203125 30.609375 6.203125 
Q 37.796875 6.203125 41.984375 11.859375 
Q 46.1875 17.53125 46.1875 27.296875 
Q 46.1875 37.015625 41.984375 42.703125 
Q 37.796875 48.390625 30.609375 48.390625 
z
M 30.609375 56 
Q 42.328125 56 49.015625 48.375 
Q 55.71875 40.765625 55.71875 27.296875 
Q 55.71875 13.875 49.015625 6.21875 
Q 42.328125 -1.421875 30.609375 -1.421875 
Q 18.84375 -1.421875 12.171875 6.21875 
Q 5.515625 13.875 5.515625 27.296875 
Q 5.515625 40.765625 12.171875 48.375 
Q 18.84375 56 30.609375 56 
z
" id="DejaVuSans-111"/>
       <path d="M 4.203125 54.6875 
L 13.1875 54.6875 
L 24.421875 12.015625 
L 35.59375 54.6875 
L 46.1875 54.6875 
L 57.421875 12.015625 
L 68.609375 54.6875 
L 77.59375 54.6875 
L 63.28125 0 
L 52.6875 0 
L 40.921875 44.828125 
L 29.109375 0 
L 18.5 0 
z
" id="DejaVuSans-119"/>
      </defs>
      <use xlink:href="#DejaVuSans-107"/>
      <use x="57.910156" xlink:href="#DejaVuSans-110"/>
      <use x="121.289062" xlink:href="#DejaVuSans-111"/>
      <use x="182.470703" xlink:href="#DejaVuSans-119"/>
      <use x="264.257812" xlink:href="#DejaVuSans-110"/>
     </g>
    </g>
    <g id="PathCollection_4">
     <g>
      <use style="fill:#ff0000;stroke:#ff0000;" x="86.9675" xlink:href="#m1c477b0cf4" y="188.427102"/>
     </g>
    </g>
    <g id="text_16">
     <!-- next -->
     <g transform="translate(108.5675 191.577102)scale(0.12 -0.12)">
      <defs>
       <path d="M 56.203125 29.59375 
L 56.203125 25.203125 
L 14.890625 25.203125 
Q 15.484375 15.921875 20.484375 11.0625 
Q 25.484375 6.203125 34.421875 6.203125 
Q 39.59375 6.203125 44.453125 7.46875 
Q 49.3125 8.734375 54.109375 11.28125 
L 54.109375 2.78125 
Q 49.265625 0.734375 44.1875 -0.34375 
Q 39.109375 -1.421875 33.890625 -1.421875 
Q 20.796875 -1.421875 13.15625 6.1875 
Q 5.515625 13.8125 5.515625 26.8125 
Q 5.515625 40.234375 12.765625 48.109375 
Q 20.015625 56 32.328125 56 
Q 43.359375 56 49.78125 48.890625 
Q 56.203125 41.796875 56.203125 29.59375 
z
M 47.21875 32.234375 
Q 47.125 39.59375 43.09375 43.984375 
Q 39.0625 48.390625 32.421875 48.390625 
Q 24.90625 48.390625 20.390625 44.140625 
Q 15.875 39.890625 15.1875 32.171875 
z
" id="DejaVuSans-101"/>
       <path d="M 18.3125 70.21875 
L 18.3125 54.6875 
L 36.8125 54.6875 
L 36.8125 47.703125 
L 18.3125 47.703125 
L 18.3125 18.015625 
Q 18.3125 11.328125 20.140625 9.421875 
Q 21.96875 7.515625 27.59375 7.515625 
L 36.8125 7.515625 
L 36.8125 0 
L 27.59375 0 
Q 17.1875 0 13.234375 3.875 
Q 9.28125 7.765625 9.28125 18.015625 
L 9.28125 47.703125 
L 2.6875 47.703125 
L 2.6875 54.6875 
L 9.28125 54.6875 
L 9.28125 70.21875 
z
" id="DejaVuSans-116"/>
      </defs>
      <use xlink:href="#DejaVuSans-110"/>
      <use x="63.378906" xlink:href="#DejaVuSans-101"/>
      <use x="123.152344" xlink:href="#DejaVuSans-120"/>
      <use x="182.332031" xlink:href="#DejaVuSans-116"/>
     </g>
    </g>
   </g>
  </g>
  <g id="axes_2">
   <g id="patch_8">
    <path d="M 64.1675 442.08 
L 510.5675 442.08 
L 510.5675 244.407273 
L 64.1675 244.407273 
z
" style="fill:#ffffff;"/>
   </g>
   <g id="matplotlib.axis_3">
    <g id="xtick_7">
     <g id="line2d_17">
      <g>
       <use style="stroke:#000000;stroke-width:0.8;" x="84.458409" xlink:href="#md73797531c" y="442.08"/>
      </g>
     </g>
     <g id="text_17">
      <!-- 0.0 -->
      <g transform="translate(74.916534 458.198125)scale(0.12 -0.12)">
       <defs>
        <path d="M 10.6875 12.40625 
L 21 12.40625 
L 21 0 
L 10.6875 0 
z
" id="DejaVuSans-46"/>
       </defs>
       <use xlink:href="#DejaVuSans-48"/>
       <use x="63.623047" xlink:href="#DejaVuSans-46"/>
       <use x="95.410156" xlink:href="#DejaVuSans-48"/>
      </g>
     </g>
    </g>
    <g id="xtick_8">
     <g id="line2d_18">
      <g>
       <use style="stroke:#000000;stroke-width:0.8;" x="165.622045" xlink:href="#md73797531c" y="442.08"/>
      </g>
     </g>
     <g id="text_18">
      <!-- 0.2 -->
      <g transform="translate(156.08017 458.198125)scale(0.12 -0.12)">
       <use xlink:href="#DejaVuSans-48"/>
       <use x="63.623047" xlink:href="#DejaVuSans-46"/>
       <use x="95.410156" xlink:href="#DejaVuSans-50"/>
      </g>
     </g>
    </g>
    <g id="xtick_9">
     <g id="line2d_19">
      <g>
       <use style="stroke:#000000;stroke-width:0.8;" x="246.785682" xlink:href="#md73797531c" y="442.08"/>
      </g>
     </g>
     <g id="text_19">
      <!-- 0.4 -->
      <g transform="translate(237.243807 458.198125)scale(0.12 -0.12)">
       <use xlink:href="#DejaVuSans-48"/>
       <use x="63.623047" xlink:href="#DejaVuSans-46"/>
       <use x="95.410156" xlink:href="#DejaVuSans-52"/>
      </g>
     </g>
    </g>
    <g id="xtick_10">
     <g id="line2d_20">
      <g>
       <use style="stroke:#000000;stroke-width:0.8;" x="327.949318" xlink:href="#md73797531c" y="442.08"/>
      </g>
     </g>
     <g id="text_20">
      <!-- 0.6 -->
      <g transform="translate(318.407443 458.198125)scale(0.12 -0.12)">
       <use xlink:href="#DejaVuSans-48"/>
       <use x="63.623047" xlink:href="#DejaVuSans-46"/>
       <use x="95.410156" xlink:href="#DejaVuSans-54"/>
      </g>
     </g>
    </g>
    <g id="xtick_11">
     <g id="line2d_21">
      <g>
       <use style="stroke:#000000;stroke-width:0.8;" x="409.112955" xlink:href="#md73797531c" y="442.08"/>
      </g>
     </g>
     <g id="text_21">
      <!-- 0.8 -->
      <g transform="translate(399.57108 458.198125)scale(0.12 -0.12)">
       <use xlink:href="#DejaVuSans-48"/>
       <use x="63.623047" xlink:href="#DejaVuSans-46"/>
       <use x="95.410156" xlink:href="#DejaVuSans-56"/>
      </g>
     </g>
    </g>
    <g id="xtick_12">
     <g id="line2d_22">
      <g>
       <use style="stroke:#000000;stroke-width:0.8;" x="490.276591" xlink:href="#md73797531c" y="442.08"/>
      </g>
     </g>
     <g id="text_22">
      <!-- 1.0 -->
      <g transform="translate(480.734716 458.198125)scale(0.12 -0.12)">
       <use xlink:href="#DejaVuSans-49"/>
       <use x="63.623047" xlink:href="#DejaVuSans-46"/>
       <use x="95.410156" xlink:href="#DejaVuSans-48"/>
      </g>
     </g>
    </g>
    <g id="text_23">
     <!-- x -->
     <g transform="translate(283.81625 473.811875)scale(0.12 -0.12)">
      <use xlink:href="#DejaVuSans-120"/>
     </g>
    </g>
   </g>
   <g id="matplotlib.axis_4">
    <g id="ytick_7">
     <g id="line2d_23">
      <g>
       <use style="stroke:#000000;stroke-width:0.8;" x="64.1675" xlink:href="#ma3d1384982" y="434.316601"/>
      </g>
     </g>
     <g id="text_24">
      <!-- 0.050 -->
      <g transform="translate(22.81375 438.875664)scale(0.12 -0.12)">
       <defs>
        <path d="M 10.796875 72.90625 
L 49.515625 72.90625 
L 49.515625 64.59375 
L 19.828125 64.59375 
L 19.828125 46.734375 
Q 21.96875 47.46875 24.109375 47.828125 
Q 26.265625 48.1875 28.421875 48.1875 
Q 40.625 48.1875 47.75 41.5 
Q 54.890625 34.8125 54.890625 23.390625 
Q 54.890625 11.625 47.5625 5.09375 
Q 40.234375 -1.421875 26.90625 -1.421875 
Q 22.3125 -1.421875 17.546875 -0.640625 
Q 12.796875 0.140625 7.71875 1.703125 
L 7.71875 11.625 
Q 12.109375 9.234375 16.796875 8.0625 
Q 21.484375 6.890625 26.703125 6.890625 
Q 35.15625 6.890625 40.078125 11.328125 
Q 45.015625 15.765625 45.015625 23.390625 
Q 45.015625 31 40.078125 35.4375 
Q 35.15625 39.890625 26.703125 39.890625 
Q 22.75 39.890625 18.8125 39.015625 
Q 14.890625 38.140625 10.796875 36.28125 
z
" id="DejaVuSans-53"/>
       </defs>
       <use xlink:href="#DejaVuSans-48"/>
       <use x="63.623047" xlink:href="#DejaVuSans-46"/>
       <use x="95.410156" xlink:href="#DejaVuSans-48"/>
       <use x="159.033203" xlink:href="#DejaVuSans-53"/>
       <use x="222.65625" xlink:href="#DejaVuSans-48"/>
      </g>
     </g>
    </g>
    <g id="ytick_8">
     <g id="line2d_24">
      <g>
       <use style="stroke:#000000;stroke-width:0.8;" x="64.1675" xlink:href="#ma3d1384982" y="407.392581"/>
      </g>
     </g>
     <g id="text_25">
      <!-- 0.075 -->
      <g transform="translate(22.81375 411.951644)scale(0.12 -0.12)">
       <defs>
        <path d="M 8.203125 72.90625 
L 55.078125 72.90625 
L 55.078125 68.703125 
L 28.609375 0 
L 18.3125 0 
L 43.21875 64.59375 
L 8.203125 64.59375 
z
" id="DejaVuSans-55"/>
       </defs>
       <use xlink:href="#DejaVuSans-48"/>
       <use x="63.623047" xlink:href="#DejaVuSans-46"/>
       <use x="95.410156" xlink:href="#DejaVuSans-48"/>
       <use x="159.033203" xlink:href="#DejaVuSans-55"/>
       <use x="222.65625" xlink:href="#DejaVuSans-53"/>
      </g>
     </g>
    </g>
    <g id="ytick_9">
     <g id="line2d_25">
      <g>
       <use style="stroke:#000000;stroke-width:0.8;" x="64.1675" xlink:href="#ma3d1384982" y="380.468562"/>
      </g>
     </g>
     <g id="text_26">
      <!-- 0.100 -->
      <g transform="translate(22.81375 385.027624)scale(0.12 -0.12)">
       <use xlink:href="#DejaVuSans-48"/>
       <use x="63.623047" xlink:href="#DejaVuSans-46"/>
       <use x="95.410156" xlink:href="#DejaVuSans-49"/>
       <use x="159.033203" xlink:href="#DejaVuSans-48"/>
       <use x="222.65625" xlink:href="#DejaVuSans-48"/>
      </g>
     </g>
    </g>
    <g id="ytick_10">
     <g id="line2d_26">
      <g>
       <use style="stroke:#000000;stroke-width:0.8;" x="64.1675" xlink:href="#ma3d1384982" y="353.544542"/>
      </g>
     </g>
     <g id="text_27">
      <!-- 0.125 -->
      <g transform="translate(22.81375 358.103604)scale(0.12 -0.12)">
       <use xlink:href="#DejaVuSans-48"/>
       <use x="63.623047" xlink:href="#DejaVuSans-46"/>
       <use x="95.410156" xlink:href="#DejaVuSans-49"/>
       <use x="159.033203" xlink:href="#DejaVuSans-50"/>
       <use x="222.65625" xlink:href="#DejaVuSans-53"/>
      </g>
     </g>
    </g>
    <g id="ytick_11">
     <g id="line2d_27">
      <g>
       <use style="stroke:#000000;stroke-width:0.8;" x="64.1675" xlink:href="#ma3d1384982" y="326.620522"/>
      </g>
     </g>
     <g id="text_28">
      <!-- 0.150 -->
      <g transform="translate(22.81375 331.179585)scale(0.12 -0.12)">
       <use xlink:href="#DejaVuSans-48"/>
       <use x="63.623047" xlink:href="#DejaVuSans-46"/>
       <use x="95.410156" xlink:href="#DejaVuSans-49"/>
       <use x="159.033203" xlink:href="#DejaVuSans-53"/>
       <use x="222.65625" xlink:href="#DejaVuSans-48"/>
      </g>
     </g>
    </g>
    <g id="ytick_12">
     <g id="line2d_28">
      <g>
       <use style="stroke:#000000;stroke-width:0.8;" x="64.1675" xlink:href="#ma3d1384982" y="299.696502"/>
      </g>
     </g>
     <g id="text_29">
      <!-- 0.175 -->
      <g transform="translate(22.81375 304.255565)scale(0.12 -0.12)">
       <use xlink:href="#DejaVuSans-48"/>
       <use x="63.623047" xlink:href="#DejaVuSans-46"/>
       <use x="95.410156" xlink:href="#DejaVuSans-49"/>
       <use x="159.033203" xlink:href="#DejaVuSans-55"/>
       <use x="222.65625" xlink:href="#DejaVuSans-53"/>
      </g>
     </g>
    </g>
    <g id="ytick_13">
     <g id="line2d_29">
      <g>
       <use style="stroke:#000000;stroke-width:0.8;" x="64.1675" xlink:href="#ma3d1384982" y="272.772483"/>
      </g>
     </g>
     <g id="text_30">
      <!-- 0.200 -->
      <g transform="translate(22.81375 277.331545)scale(0.12 -0.12)">
       <use xlink:href="#DejaVuSans-48"/>
       <use x="63.623047" xlink:href="#DejaVuSans-46"/>
       <use x="95.410156" xlink:href="#DejaVuSans-50"/>
       <use x="159.033203" xlink:href="#DejaVuSans-48"/>
       <use x="222.65625" xlink:href="#DejaVuSans-48"/>
      </g>
     </g>
    </g>
    <g id="ytick_14">
     <g id="line2d_30">
      <g>
       <use style="stroke:#000000;stroke-width:0.8;" x="64.1675" xlink:href="#ma3d1384982" y="245.848463"/>
      </g>
     </g>
     <g id="text_31">
      <!-- 0.225 -->
      <g transform="translate(22.81375 250.407525)scale(0.12 -0.12)">
       <use xlink:href="#DejaVuSans-48"/>
       <use x="63.623047" xlink:href="#DejaVuSans-46"/>
       <use x="95.410156" xlink:href="#DejaVuSans-50"/>
       <use x="159.033203" xlink:href="#DejaVuSans-50"/>
       <use x="222.65625" xlink:href="#DejaVuSans-53"/>
      </g>
     </g>
    </g>
    <g id="text_32">
     <!-- Acquisition Function -->
     <g transform="translate(16.318125 403.530511)rotate(-90)scale(0.12 -0.12)">
      <defs>
       <path d="M 34.1875 63.1875 
L 20.796875 26.90625 
L 47.609375 26.90625 
z
M 28.609375 72.90625 
L 39.796875 72.90625 
L 67.578125 0 
L 57.328125 0 
L 50.6875 18.703125 
L 17.828125 18.703125 
L 11.1875 0 
L 0.78125 0 
z
" id="DejaVuSans-65"/>
       <path d="M 48.78125 52.59375 
L 48.78125 44.1875 
Q 44.96875 46.296875 41.140625 47.34375 
Q 37.3125 48.390625 33.40625 48.390625 
Q 24.65625 48.390625 19.8125 42.84375 
Q 14.984375 37.3125 14.984375 27.296875 
Q 14.984375 17.28125 19.8125 11.734375 
Q 24.65625 6.203125 33.40625 6.203125 
Q 37.3125 6.203125 41.140625 7.25 
Q 44.96875 8.296875 48.78125 10.40625 
L 48.78125 2.09375 
Q 45.015625 0.34375 40.984375 -0.53125 
Q 36.96875 -1.421875 32.421875 -1.421875 
Q 20.0625 -1.421875 12.78125 6.34375 
Q 5.515625 14.109375 5.515625 27.296875 
Q 5.515625 40.671875 12.859375 48.328125 
Q 20.21875 56 33.015625 56 
Q 37.15625 56 41.109375 55.140625 
Q 45.0625 54.296875 48.78125 52.59375 
z
" id="DejaVuSans-99"/>
       <path d="M 14.796875 27.296875 
Q 14.796875 17.390625 18.875 11.75 
Q 22.953125 6.109375 30.078125 6.109375 
Q 37.203125 6.109375 41.296875 11.75 
Q 45.40625 17.390625 45.40625 27.296875 
Q 45.40625 37.203125 41.296875 42.84375 
Q 37.203125 48.484375 30.078125 48.484375 
Q 22.953125 48.484375 18.875 42.84375 
Q 14.796875 37.203125 14.796875 27.296875 
z
M 45.40625 8.203125 
Q 42.578125 3.328125 38.25 0.953125 
Q 33.9375 -1.421875 27.875 -1.421875 
Q 17.96875 -1.421875 11.734375 6.484375 
Q 5.515625 14.40625 5.515625 27.296875 
Q 5.515625 40.1875 11.734375 48.09375 
Q 17.96875 56 27.875 56 
Q 33.9375 56 38.25 53.625 
Q 42.578125 51.265625 45.40625 46.390625 
L 45.40625 54.6875 
L 54.390625 54.6875 
L 54.390625 -20.796875 
L 45.40625 -20.796875 
z
" id="DejaVuSans-113"/>
       <path d="M 8.5 21.578125 
L 8.5 54.6875 
L 17.484375 54.6875 
L 17.484375 21.921875 
Q 17.484375 14.15625 20.5 10.265625 
Q 23.53125 6.390625 29.59375 6.390625 
Q 36.859375 6.390625 41.078125 11.03125 
Q 45.3125 15.671875 45.3125 23.6875 
L 45.3125 54.6875 
L 54.296875 54.6875 
L 54.296875 0 
L 45.3125 0 
L 45.3125 8.40625 
Q 42.046875 3.421875 37.71875 1 
Q 33.40625 -1.421875 27.6875 -1.421875 
Q 18.265625 -1.421875 13.375 4.4375 
Q 8.5 10.296875 8.5 21.578125 
z
M 31.109375 56 
z
" id="DejaVuSans-117"/>
       <path d="M 9.421875 54.6875 
L 18.40625 54.6875 
L 18.40625 0 
L 9.421875 0 
z
M 9.421875 75.984375 
L 18.40625 75.984375 
L 18.40625 64.59375 
L 9.421875 64.59375 
z
" id="DejaVuSans-105"/>
       <path d="M 44.28125 53.078125 
L 44.28125 44.578125 
Q 40.484375 46.53125 36.375 47.5 
Q 32.28125 48.484375 27.875 48.484375 
Q 21.1875 48.484375 17.84375 46.4375 
Q 14.5 44.390625 14.5 40.28125 
Q 14.5 37.15625 16.890625 35.375 
Q 19.28125 33.59375 26.515625 31.984375 
L 29.59375 31.296875 
Q 39.15625 29.25 43.1875 25.515625 
Q 47.21875 21.78125 47.21875 15.09375 
Q 47.21875 7.46875 41.1875 3.015625 
Q 35.15625 -1.421875 24.609375 -1.421875 
Q 20.21875 -1.421875 15.453125 -0.5625 
Q 10.6875 0.296875 5.421875 2 
L 5.421875 11.28125 
Q 10.40625 8.6875 15.234375 7.390625 
Q 20.0625 6.109375 24.8125 6.109375 
Q 31.15625 6.109375 34.5625 8.28125 
Q 37.984375 10.453125 37.984375 14.40625 
Q 37.984375 18.0625 35.515625 20.015625 
Q 33.0625 21.96875 24.703125 23.78125 
L 21.578125 24.515625 
Q 13.234375 26.265625 9.515625 29.90625 
Q 5.8125 33.546875 5.8125 39.890625 
Q 5.8125 47.609375 11.28125 51.796875 
Q 16.75 56 26.8125 56 
Q 31.78125 56 36.171875 55.265625 
Q 40.578125 54.546875 44.28125 53.078125 
z
" id="DejaVuSans-115"/>
       <path id="DejaVuSans-32"/>
       <path d="M 9.8125 72.90625 
L 51.703125 72.90625 
L 51.703125 64.59375 
L 19.671875 64.59375 
L 19.671875 43.109375 
L 48.578125 43.109375 
L 48.578125 34.8125 
L 19.671875 34.8125 
L 19.671875 0 
L 9.8125 0 
z
" id="DejaVuSans-70"/>
      </defs>
      <use xlink:href="#DejaVuSans-65"/>
      <use x="66.658203" xlink:href="#DejaVuSans-99"/>
      <use x="121.638672" xlink:href="#DejaVuSans-113"/>
      <use x="185.115234" xlink:href="#DejaVuSans-117"/>
      <use x="248.494141" xlink:href="#DejaVuSans-105"/>
      <use x="276.277344" xlink:href="#DejaVuSans-115"/>
      <use x="328.376953" xlink:href="#DejaVuSans-105"/>
      <use x="356.160156" xlink:href="#DejaVuSans-116"/>
      <use x="395.369141" xlink:href="#DejaVuSans-105"/>
      <use x="423.152344" xlink:href="#DejaVuSans-111"/>
      <use x="484.333984" xlink:href="#DejaVuSans-110"/>
      <use x="547.712891" xlink:href="#DejaVuSans-32"/>
      <use x="579.5" xlink:href="#DejaVuSans-70"/>
      <use x="631.519531" xlink:href="#DejaVuSans-117"/>
      <use x="694.898438" xlink:href="#DejaVuSans-110"/>
      <use x="758.277344" xlink:href="#DejaVuSans-99"/>
      <use x="813.257812" xlink:href="#DejaVuSans-116"/>
      <use x="852.466797" xlink:href="#DejaVuSans-105"/>
      <use x="880.25" xlink:href="#DejaVuSans-111"/>
      <use x="941.431641" xlink:href="#DejaVuSans-110"/>
     </g>
    </g>
   </g>
   <g id="line2d_31">
    <path clip-path="url(#pcdfc86018f)" d="M 84.458409 253.392397 
L 89.739326 259.880276 
L 95.020244 266.02115 
L 100.301161 271.821822 
L 105.582078 277.289757 
L 110.862995 282.433012 
L 116.143913 287.260157 
L 121.42483 291.780197 
L 126.705747 296.00249 
L 131.986665 299.93667 
L 137.267582 303.59257 
L 142.548499 306.98015 
L 147.829416 310.109423 
L 153.110334 312.990406 
L 158.391251 315.633043 
L 164.078393 318.22369 
L 169.765534 320.561391 
L 175.452676 322.657958 
L 181.139818 324.524877 
L 187.233184 326.282951 
L 193.32655 327.803386 
L 199.419916 329.098858 
L 205.919507 330.246377 
L 212.419097 331.165721 
L 219.324912 331.907341 
L 226.230727 332.421354 
L 233.542766 332.733181 
L 240.854805 332.821306 
L 248.573069 332.687755 
L 256.291333 332.33716 
L 264.415821 331.749843 
L 272.946534 330.909287 
L 281.883471 329.800802 
L 291.226632 328.411521 
L 300.976018 326.73035 
L 311.131628 324.747886 
L 321.693462 322.456337 
L 332.661521 319.84938 
L 344.442029 316.813534 
L 356.628761 313.438614 
L 369.221718 309.72328 
L 382.627123 305.536929 
L 396.844977 300.860548 
L 411.875281 295.677912 
L 427.718032 289.975412 
L 444.373233 283.741905 
L 461.840882 276.968536 
L 480.527205 269.483291 
L 490.276591 265.48853 
L 490.276591 265.48853 
" style="fill:none;stroke:#1f77b4;stroke-linecap:square;stroke-width:1.5;"/>
   </g>
   <g id="line2d_32">
    <path clip-path="url(#pcdfc86018f)" d="M 84.458409 298.999146 
L 90.145551 305.940327 
L 95.832692 312.513422 
L 101.519834 318.727514 
L 107.206976 324.592431 
L 112.894118 330.118646 
L 118.581259 335.31716 
L 124.268401 340.199406 
L 129.955543 344.777137 
L 135.642684 349.062322 
L 141.329826 353.06705 
L 147.016968 356.803433 
L 152.704109 360.283538 
L 158.797475 363.741375 
L 164.890842 366.933125 
L 170.984208 369.872864 
L 177.077574 372.574259 
L 183.577164 375.207918 
L 190.076755 377.600817 
L 196.98257 379.895914 
L 203.888385 381.952556 
L 211.200424 383.887834 
L 218.512463 385.591136 
L 226.230727 387.155575 
L 233.948991 388.497888 
L 242.073479 389.689168 
L 250.604191 390.71452 
L 259.541128 391.56123 
L 268.88429 392.218695 
L 278.633675 392.678331 
L 288.789285 392.933419 
L 299.35112 392.978949 
L 310.725403 392.801295 
L 322.505911 392.393759 
L 335.098868 391.732063 
L 348.504273 390.797711 
L 362.722127 389.575427 
L 377.75243 388.05293 
L 393.595182 386.220658 
L 410.250383 384.071464 
L 428.124257 381.540375 
L 447.216804 378.61035 
L 467.528024 375.26783 
L 489.464142 371.429291 
L 490.276591 371.282962 
L 490.276591 371.282962 
" style="fill:none;stroke:#ff7f0e;stroke-linecap:square;stroke-width:1.5;"/>
   </g>
   <g id="line2d_33">
    <path clip-path="url(#pcdfc86018f)" d="M 84.458409 325.872012 
L 89.739326 332.980106 
L 95.020244 339.721559 
L 100.301161 346.106084 
L 105.582078 352.144135 
L 110.862995 357.846795 
L 116.143913 363.225667 
L 121.42483 368.292762 
L 126.705747 373.060393 
L 131.986665 377.541064 
L 137.267582 381.747375 
L 142.954724 385.984873 
L 148.641865 389.93441 
L 154.329007 393.611396 
L 160.016149 397.030902 
L 166.109515 400.425612 
L 172.202881 403.55905 
L 178.296247 406.447975 
L 184.795837 409.278022 
L 191.295428 411.866525 
L 198.201243 414.371601 
L 205.107058 416.643189 
L 212.419097 418.814143 
L 220.137361 420.865997 
L 228.261849 422.783206 
L 236.386337 424.474163 
L 244.91705 426.028967 
L 253.853986 427.43862 
L 263.603372 428.7465 
L 273.758982 429.880737 
L 284.727041 430.873349 
L 296.101325 431.677142 
L 308.288057 432.313877 
L 321.287238 432.768579 
L 335.098868 433.030097 
L 350.129171 433.089451 
L 366.378147 432.925602 
L 383.845796 432.522613 
L 402.532119 431.869052 
L 422.843339 430.936617 
L 445.185682 429.684622 
L 469.559146 428.09098 
L 490.276591 426.577646 
L 490.276591 426.577646 
" style="fill:none;stroke:#2ca02c;stroke-linecap:square;stroke-width:1.5;"/>
   </g>
   <g id="patch_9">
    <path d="M 64.1675 442.08 
L 64.1675 244.407273 
" style="fill:none;stroke:#000000;stroke-linecap:square;stroke-linejoin:miter;stroke-width:0.8;"/>
   </g>
   <g id="patch_10">
    <path d="M 510.5675 442.08 
L 510.5675 244.407273 
" style="fill:none;stroke:#000000;stroke-linecap:square;stroke-linejoin:miter;stroke-width:0.8;"/>
   </g>
   <g id="patch_11">
    <path d="M 64.1675 442.08 
L 510.5675 442.08 
" style="fill:none;stroke:#000000;stroke-linecap:square;stroke-linejoin:miter;stroke-width:0.8;"/>
   </g>
   <g id="patch_12">
    <path d="M 64.1675 244.407273 
L 510.5675 244.407273 
" style="fill:none;stroke:#000000;stroke-linecap:square;stroke-linejoin:miter;stroke-width:0.8;"/>
   </g>
  </g>
 </g>
 <defs>
  <clipPath id="p4cbdc6056c">
   <rect height="197.672727" width="446.4" x="64.1675" y="7.2"/>
  </clipPath>
  <clipPath id="pcdfc86018f">
   <rect height="197.672727" width="446.4" x="64.1675" y="244.407273"/>
  </clipPath>
 </defs>
</svg>
