<?xml version="1.0" encoding="utf-8" standalone="no"?>
<!DOCTYPE svg PUBLIC "-//W3C//DTD SVG 1.1//EN"
  "http://www.w3.org/Graphics/SVG/1.1/DTD/svg11.dtd">
<!-- Created with matplotlib (https://matplotlib.org/) -->
<svg height="483.5075pt" version="1.1" viewBox="0 0 510.1325 483.5075" width="510.1325pt" xmlns="http://www.w3.org/2000/svg" xmlns:xlink="http://www.w3.org/1999/xlink">
 <metadata>
  <rdf:RDF xmlns:cc="http://creativecommons.org/ns#" xmlns:dc="http://purl.org/dc/elements/1.1/" xmlns:rdf="http://www.w3.org/1999/02/22-rdf-syntax-ns#">
   <cc:Work>
    <dc:type rdf:resource="http://purl.org/dc/dcmitype/StillImage"/>
    <dc:date>2020-10-04T13:58:03.508367</dc:date>
    <dc:format>image/svg+xml</dc:format>
    <dc:creator>
     <cc:Agent>
      <dc:title>Matplotlib v3.3.1, https://matplotlib.org/</dc:title>
     </cc:Agent>
    </dc:creator>
   </cc:Work>
  </rdf:RDF>
 </metadata>
 <defs>
  <style type="text/css">*{stroke-linecap:butt;stroke-linejoin:round;}</style>
 </defs>
 <g id="figure_1">
  <g id="patch_1">
   <path d="M 0 483.5075 
L 510.1325 483.5075 
L 510.1325 0 
L 0 0 
z
" style="fill:none;"/>
  </g>
  <g id="axes_1">
   <g id="patch_2">
    <path d="M 56.5325 204.872727 
L 502.9325 204.872727 
L 502.9325 7.2 
L 56.5325 7.2 
z
" style="fill:#ffffff;"/>
   </g>
   <g id="PolyCollection_1">
    <path clip-path="url(#p33aee479c8)" d="M 76.823409 49.431469 
L 76.823409 73.627876 
L 77.229633 73.724146 
L 77.635858 73.820525 
L 78.042082 73.917014 
L 78.448307 74.013611 
L 78.854531 74.110317 
L 79.260756 74.207132 
L 79.66698 74.304056 
L 80.073204 74.401089 
L 80.479429 74.498231 
L 80.885653 74.595481 
L 81.291878 74.692841 
L 81.698102 74.790309 
L 82.104326 74.887886 
L 82.510551 74.985572 
L 82.916775 75.083366 
L 83.323 75.181269 
L 83.729224 75.279281 
L 84.135448 75.377401 
L 84.541673 75.47563 
L 84.947897 75.573967 
L 85.354122 75.672413 
L 85.760346 75.770967 
L 86.16657 75.869629 
L 86.572795 75.9684 
L 86.979019 76.067278 
L 87.385244 76.166265 
L 87.791468 76.265359 
L 88.197692 76.364562 
L 88.603917 76.463872 
L 89.010141 76.56329 
L 89.416366 76.662816 
L 89.82259 76.76245 
L 90.228814 76.86219 
L 90.635039 76.962039 
L 91.041263 77.061994 
L 91.447488 77.162057 
L 91.853712 77.262227 
L 92.259937 77.362504 
L 92.666161 77.462887 
L 93.072385 77.563378 
L 93.47861 77.663975 
L 93.884834 77.764679 
L 94.291059 77.865489 
L 94.697283 77.966405 
L 95.103507 78.067428 
L 95.509732 78.168556 
L 95.915956 78.269791 
L 96.322181 78.371131 
L 96.728405 78.472578 
L 97.134629 78.574129 
L 97.540854 78.675786 
L 97.947078 78.777549 
L 98.353303 78.879416 
L 98.759527 78.981388 
L 99.165751 79.083466 
L 99.571976 79.185647 
L 99.9782 79.287934 
L 100.384425 79.390325 
L 100.790649 79.492819 
L 101.196873 79.595418 
L 101.603098 79.698121 
L 102.009322 79.800928 
L 102.415547 79.903838 
L 102.821771 80.006852 
L 103.227995 80.109968 
L 103.63422 80.213188 
L 104.040444 80.316511 
L 104.446669 80.419936 
L 104.852893 80.523464 
L 105.259118 80.627094 
L 105.665342 80.730827 
L 106.071566 80.834661 
L 106.477791 80.938597 
L 106.884015 81.042635 
L 107.29024 81.146774 
L 107.696464 81.251014 
L 108.102688 81.355355 
L 108.508913 81.459797 
L 108.915137 81.56434 
L 109.321362 81.668982 
L 109.727586 81.773726 
L 110.13381 81.878569 
L 110.540035 81.983512 
L 110.946259 82.088554 
L 111.352484 82.193696 
L 111.758708 82.298937 
L 112.164932 82.404277 
L 112.571157 82.509716 
L 112.977381 82.615253 
L 113.383606 82.720888 
L 113.78983 82.826622 
L 114.196054 82.932453 
L 114.602279 83.038382 
L 115.008503 83.144408 
L 115.414728 83.250532 
L 115.820952 83.356752 
L 116.227176 83.463069 
L 116.633401 83.569483 
L 117.039625 83.675992 
L 117.44585 83.782598 
L 117.852074 83.889299 
L 118.258299 83.996096 
L 118.664523 84.102989 
L 119.070747 84.209976 
L 119.476972 84.317058 
L 119.883196 84.424235 
L 120.289421 84.531506 
L 120.695645 84.638871 
L 121.101869 84.746329 
L 121.508094 84.853882 
L 121.914318 84.961528 
L 122.320543 85.069266 
L 122.726767 85.177098 
L 123.132991 85.285022 
L 123.539216 85.393038 
L 123.94544 85.501147 
L 124.351665 85.609347 
L 124.757889 85.717639 
L 125.164113 85.826022 
L 125.570338 85.934496 
L 125.976562 86.043061 
L 126.382787 86.151716 
L 126.789011 86.260462 
L 127.195235 86.369298 
L 127.60146 86.478223 
L 128.007684 86.587238 
L 128.413909 86.696341 
L 128.820133 86.805534 
L 129.226357 86.914816 
L 129.632582 87.024186 
L 130.038806 87.133644 
L 130.445031 87.243189 
L 130.851255 87.352823 
L 131.25748 87.462543 
L 131.663704 87.572351 
L 132.069928 87.682245 
L 132.476153 87.792226 
L 132.882377 87.902294 
L 133.288602 88.012447 
L 133.694826 88.122685 
L 134.10105 88.23301 
L 134.507275 88.343419 
L 134.913499 88.453913 
L 135.319724 88.564492 
L 135.725948 88.675155 
L 136.132172 88.785902 
L 136.538397 88.896732 
L 136.944621 89.007647 
L 137.350846 89.118644 
L 137.75707 89.229724 
L 138.163294 89.340887 
L 138.569519 89.452132 
L 138.975743 89.56346 
L 139.381968 89.674869 
L 139.788192 89.78636 
L 140.194416 89.897931 
L 140.600641 90.009584 
L 141.006865 90.121318 
L 141.41309 90.233132 
L 141.819314 90.345025 
L 142.225538 90.456999 
L 142.631763 90.569053 
L 143.037987 90.681185 
L 143.444212 90.793397 
L 143.850436 90.905687 
L 144.256661 91.018056 
L 144.662885 91.130503 
L 145.069109 91.243028 
L 145.475334 91.35563 
L 145.881558 91.46831 
L 146.287783 91.581066 
L 146.694007 91.6939 
L 147.100231 91.806809 
L 147.506456 91.919796 
L 147.91268 92.032857 
L 148.318905 92.145995 
L 148.725129 92.259208 
L 149.131353 92.372496 
L 149.537578 92.485859 
L 149.943802 92.599296 
L 150.350027 92.712807 
L 150.756251 92.826393 
L 151.162475 92.940052 
L 151.5687 93.053784 
L 151.974924 93.16759 
L 152.381149 93.281468 
L 152.787373 93.395419 
L 153.193597 93.509442 
L 153.599822 93.623537 
L 154.006046 93.737704 
L 154.412271 93.851943 
L 154.818495 93.966252 
L 155.224719 94.080633 
L 155.630944 94.195084 
L 156.037168 94.309605 
L 156.443393 94.424196 
L 156.849617 94.538857 
L 157.255842 94.653588 
L 157.662066 94.768388 
L 158.06829 94.883257 
L 158.474515 94.998194 
L 158.880739 95.1132 
L 159.286964 95.228275 
L 159.693188 95.343417 
L 160.099412 95.458626 
L 160.505637 95.573903 
L 160.911861 95.689247 
L 161.318086 95.804658 
L 161.72431 95.920135 
L 162.130534 96.035679 
L 162.536759 96.151288 
L 162.942983 96.266963 
L 163.349208 96.382704 
L 163.755432 96.49851 
L 164.161656 96.614381 
L 164.567881 96.730316 
L 164.974105 96.846316 
L 165.38033 96.96238 
L 165.786554 97.078508 
L 166.192778 97.194699 
L 166.599003 97.310954 
L 167.005227 97.427272 
L 167.411452 97.543652 
L 167.817676 97.660095 
L 168.2239 97.776601 
L 168.630125 97.893168 
L 169.036349 98.009797 
L 169.442574 98.126488 
L 169.848798 98.24324 
L 170.255023 98.360053 
L 170.661247 98.476927 
L 171.067471 98.593861 
L 171.473696 98.710856 
L 171.87992 98.82791 
L 172.286145 98.945024 
L 172.692369 99.062198 
L 173.098593 99.179431 
L 173.504818 99.296722 
L 173.911042 99.414073 
L 174.317267 99.531482 
L 174.723491 99.648949 
L 175.129715 99.766474 
L 175.53594 99.884057 
L 175.942164 100.001698 
L 176.348389 100.119395 
L 176.754613 100.23715 
L 177.160837 100.354961 
L 177.567062 100.472829 
L 177.973286 100.590753 
L 178.379511 100.708733 
L 178.785735 100.826769 
L 179.191959 100.944861 
L 179.598184 101.063007 
L 180.004408 101.181209 
L 180.410633 101.299466 
L 180.816857 101.417777 
L 181.223081 101.536142 
L 181.629306 101.654562 
L 182.03553 101.773035 
L 182.441755 101.891562 
L 182.847979 102.010143 
L 183.254204 102.128777 
L 183.660428 102.247463 
L 184.066652 102.366202 
L 184.472877 102.484994 
L 184.879101 102.603838 
L 185.285326 102.722734 
L 185.69155 102.841682 
L 186.097774 102.960681 
L 186.503999 103.079732 
L 186.910223 103.198834 
L 187.316448 103.317987 
L 187.722672 103.43719 
L 188.128896 103.556444 
L 188.535121 103.675748 
L 188.941345 103.795102 
L 189.34757 103.914505 
L 189.753794 104.033959 
L 190.160018 104.153461 
L 190.566243 104.273013 
L 190.972467 104.392614 
L 191.378692 104.512263 
L 191.784916 104.631961 
L 192.19114 104.751707 
L 192.597365 104.871501 
L 193.003589 104.991343 
L 193.409814 105.111233 
L 193.816038 105.23117 
L 194.222262 105.351154 
L 194.628487 105.471185 
L 195.034711 105.591263 
L 195.440936 105.711387 
L 195.84716 105.831558 
L 196.253385 105.951775 
L 196.659609 106.072038 
L 197.065833 106.192346 
L 197.472058 106.3127 
L 197.878282 106.4331 
L 198.284507 106.553545 
L 198.690731 106.674034 
L 199.096955 106.794568 
L 199.50318 106.915147 
L 199.909404 107.03577 
L 200.315629 107.156438 
L 200.721853 107.277149 
L 201.128077 107.397904 
L 201.534302 107.518702 
L 201.940526 107.639544 
L 202.346751 107.760429 
L 202.752975 107.881357 
L 203.159199 108.002328 
L 203.565424 108.123341 
L 203.971648 108.244396 
L 204.377873 108.365494 
L 204.784097 108.486634 
L 205.190321 108.607816 
L 205.596546 108.729039 
L 206.00277 108.850304 
L 206.408995 108.97161 
L 206.815219 109.092957 
L 207.221443 109.214345 
L 207.627668 109.335773 
L 208.033892 109.457243 
L 208.440117 109.578752 
L 208.846341 109.700302 
L 209.252566 109.821891 
L 209.65879 109.943521 
L 210.065014 110.06519 
L 210.471239 110.186898 
L 210.877463 110.308646 
L 211.283688 110.430433 
L 211.689912 110.552259 
L 212.096136 110.674123 
L 212.502361 110.796026 
L 212.908585 110.917968 
L 213.31481 111.039947 
L 213.721034 111.161965 
L 214.127258 111.284021 
L 214.533483 111.406114 
L 214.939707 111.528245 
L 215.345932 111.650413 
L 215.752156 111.772618 
L 216.15838 111.894861 
L 216.564605 112.01714 
L 216.970829 112.139456 
L 217.377054 112.261809 
L 217.783278 112.384197 
L 218.189502 112.506622 
L 218.595727 112.629084 
L 219.001951 112.751581 
L 219.408176 112.874113 
L 219.8144 112.996682 
L 220.220624 113.119285 
L 220.626849 113.241924 
L 221.033073 113.364598 
L 221.439298 113.487307 
L 221.845522 113.610051 
L 222.251747 113.732829 
L 222.657971 113.855642 
L 223.064195 113.978489 
L 223.47042 114.101371 
L 223.876644 114.224286 
L 224.282869 114.347235 
L 224.689093 114.470218 
L 225.095317 114.593234 
L 225.501542 114.716284 
L 225.907766 114.839367 
L 226.313991 114.962483 
L 226.720215 115.085632 
L 227.126439 115.208814 
L 227.532664 115.332028 
L 227.938888 115.455276 
L 228.345113 115.578555 
L 228.751337 115.701866 
L 229.157561 115.82521 
L 229.563786 115.948586 
L 229.97001 116.071993 
L 230.376235 116.195432 
L 230.782459 116.318903 
L 231.188683 116.442405 
L 231.594908 116.565938 
L 232.001132 116.689502 
L 232.407357 116.813097 
L 232.813581 116.936723 
L 233.219805 117.06038 
L 233.62603 117.184067 
L 234.032254 117.307785 
L 234.438479 117.431533 
L 234.844703 117.555311 
L 235.250928 117.679119 
L 235.657152 117.802957 
L 236.063376 117.926824 
L 236.469601 118.050722 
L 236.875825 118.174648 
L 237.28205 118.298604 
L 237.688274 118.42259 
L 238.094498 118.546604 
L 238.500723 118.670647 
L 238.906947 118.794719 
L 239.313172 118.91882 
L 239.719396 119.04295 
L 240.12562 119.167107 
L 240.531845 119.291294 
L 240.938069 119.415508 
L 241.344294 119.53975 
L 241.750518 119.664021 
L 242.156742 119.788319 
L 242.562967 119.912645 
L 242.969191 120.036998 
L 243.375416 120.161379 
L 243.78164 120.285787 
L 244.187864 120.410223 
L 244.594089 120.534685 
L 245.000313 120.659175 
L 245.406538 120.783691 
L 245.812762 120.908234 
L 246.218986 121.032804 
L 246.625211 121.157401 
L 247.031435 121.282023 
L 247.43766 121.406672 
L 247.843884 121.531347 
L 248.250109 121.656048 
L 248.656333 121.780775 
L 249.062557 121.905528 
L 249.468782 122.030307 
L 249.875006 122.155111 
L 250.281231 122.279941 
L 250.687455 122.404796 
L 251.093679 122.529676 
L 251.499904 122.654582 
L 251.906128 122.779512 
L 252.312353 122.904468 
L 252.718577 123.029448 
L 253.124801 123.154453 
L 253.531026 123.279483 
L 253.93725 123.404537 
L 254.343475 123.529615 
L 254.749699 123.654718 
L 255.155923 123.779845 
L 255.562148 123.904996 
L 255.968372 124.030171 
L 256.374597 124.15537 
L 256.780821 124.280592 
L 257.187045 124.405839 
L 257.59327 124.531109 
L 257.999494 124.656402 
L 258.405719 124.781719 
L 258.811943 124.907059 
L 259.218167 125.032422 
L 259.624392 125.157808 
L 260.030616 125.283217 
L 260.436841 125.408649 
L 260.843065 125.534104 
L 261.24929 125.659582 
L 261.655514 125.785082 
L 262.061738 125.910604 
L 262.467963 126.036149 
L 262.874187 126.161716 
L 263.280412 126.287306 
L 263.686636 126.412917 
L 264.09286 126.538551 
L 264.499085 126.664206 
L 264.905309 126.789883 
L 265.311534 126.915582 
L 265.717758 127.041302 
L 266.123982 127.167045 
L 266.530207 127.292808 
L 266.936431 127.418593 
L 267.342656 127.544399 
L 267.74888 127.670226 
L 268.155104 127.796075 
L 268.561329 127.921944 
L 268.967553 128.047834 
L 269.373778 128.173745 
L 269.780002 128.299677 
L 270.186226 128.425629 
L 270.592451 128.551602 
L 270.998675 128.677596 
L 271.4049 128.80361 
L 271.811124 128.929644 
L 272.217348 129.055698 
L 272.623573 129.181772 
L 273.029797 129.307867 
L 273.436022 129.433981 
L 273.842246 129.560116 
L 274.248471 129.68627 
L 274.654695 129.812443 
L 275.060919 129.938637 
L 275.467144 130.06485 
L 275.873368 130.191082 
L 276.279593 130.317334 
L 276.685817 130.443605 
L 277.092041 130.569895 
L 277.498266 130.696205 
L 277.90449 130.822533 
L 278.310715 130.948881 
L 278.716939 131.075247 
L 279.123163 131.201632 
L 279.529388 131.328036 
L 279.935612 131.454459 
L 280.341837 131.5809 
L 280.748061 131.707359 
L 281.154285 131.833837 
L 281.56051 131.960334 
L 281.966734 132.086848 
L 282.372959 132.213381 
L 282.779183 132.339932 
L 283.185407 132.466501 
L 283.591632 132.593089 
L 283.997856 132.719693 
L 284.404081 132.846316 
L 284.810305 132.972957 
L 285.216529 133.099615 
L 285.622754 133.226291 
L 286.028978 133.352984 
L 286.435203 133.479695 
L 286.841427 133.606423 
L 287.247652 133.733169 
L 287.653876 133.859932 
L 288.0601 133.986712 
L 288.466325 134.113509 
L 288.872549 134.240323 
L 289.278774 134.367154 
L 289.684998 134.494002 
L 290.091222 134.620867 
L 290.497447 134.747749 
L 290.903671 134.874647 
L 291.309896 135.001562 
L 291.71612 135.128493 
L 292.122344 135.255442 
L 292.528569 135.382406 
L 292.934793 135.509387 
L 293.341018 135.636384 
L 293.747242 135.763397 
L 294.153466 135.890427 
L 294.559691 136.017472 
L 294.965915 136.144534 
L 295.37214 136.271612 
L 295.778364 136.398705 
L 296.184588 136.525815 
L 296.590813 136.65294 
L 296.997037 136.780081 
L 297.403262 136.907237 
L 297.809486 137.034409 
L 298.21571 137.161597 
L 298.621935 137.2888 
L 299.028159 137.416018 
L 299.434384 137.543252 
L 299.840608 137.670501 
L 300.246833 137.797766 
L 300.653057 137.925045 
L 301.059281 138.05234 
L 301.465506 138.179649 
L 301.87173 138.306974 
L 302.277955 138.434314 
L 302.684179 138.561668 
L 303.090403 138.689037 
L 303.496628 138.816421 
L 303.902852 138.94382 
L 304.309077 139.071233 
L 304.715301 139.198661 
L 305.121525 139.326103 
L 305.52775 139.45356 
L 305.933974 139.581031 
L 306.340199 139.708517 
L 306.746423 139.836016 
L 307.152647 139.96353 
L 307.558872 140.091059 
L 307.965096 140.218601 
L 308.371321 140.346157 
L 308.777545 140.473728 
L 309.183769 140.601312 
L 309.589994 140.72891 
L 309.996218 140.856522 
L 310.402443 140.984148 
L 310.808667 141.111788 
L 311.214891 141.239441 
L 311.621116 141.367108 
L 312.02734 141.494789 
L 312.433565 141.622483 
L 312.839789 141.75019 
L 313.246014 141.877911 
L 313.652238 142.005645 
L 314.058462 142.133393 
L 314.464687 142.261154 
L 314.870911 142.388928 
L 315.277136 142.516715 
L 315.68336 142.644515 
L 316.089584 142.772329 
L 316.495809 142.900155 
L 316.902033 143.027994 
L 317.308258 143.155847 
L 317.714482 143.283712 
L 318.120706 143.41159 
L 318.526931 143.53948 
L 318.933155 143.667384 
L 319.33938 143.7953 
L 319.745604 143.923228 
L 320.151828 144.05117 
L 320.558053 144.179123 
L 320.964277 144.307089 
L 321.370502 144.435068 
L 321.776726 144.563059 
L 322.18295 144.691062 
L 322.589175 144.819078 
L 322.995399 144.947106 
L 323.401624 145.075146 
L 323.807848 145.203198 
L 324.214072 145.331262 
L 324.620297 145.459339 
L 325.026521 145.587427 
L 325.432746 145.715527 
L 325.83897 145.84364 
L 326.245195 145.971764 
L 326.651419 146.0999 
L 327.057643 146.228047 
L 327.463868 146.356207 
L 327.870092 146.484378 
L 328.276317 146.61256 
L 328.682541 146.740755 
L 329.088765 146.868961 
L 329.49499 146.997178 
L 329.901214 147.125407 
L 330.307439 147.253647 
L 330.713663 147.381899 
L 331.119887 147.510162 
L 331.526112 147.638437 
L 331.932336 147.766722 
L 332.338561 147.895019 
L 332.744785 148.023327 
L 333.151009 148.151646 
L 333.557234 148.279977 
L 333.963458 148.408318 
L 334.369683 148.53667 
L 334.775907 148.665033 
L 335.182131 148.793408 
L 335.588356 148.921793 
L 335.99458 149.050189 
L 336.400805 149.178596 
L 336.807029 149.307013 
L 337.213253 149.435441 
L 337.619478 149.56388 
L 338.025702 149.69233 
L 338.431927 149.82079 
L 338.838151 149.949261 
L 339.244376 150.077742 
L 339.6506 150.206234 
L 340.056824 150.334737 
L 340.463049 150.463249 
L 340.869273 150.591772 
L 341.275498 150.720306 
L 341.681722 150.84885 
L 342.087946 150.977404 
L 342.494171 151.105968 
L 342.900395 151.234542 
L 343.30662 151.363127 
L 343.712844 151.491722 
L 344.119068 151.620326 
L 344.525293 151.748941 
L 344.931517 151.877566 
L 345.337742 152.006201 
L 345.743966 152.134846 
L 346.15019 152.2635 
L 346.556415 152.392165 
L 346.962639 152.520839 
L 347.368864 152.649524 
L 347.775088 152.778218 
L 348.181312 152.906921 
L 348.587537 153.035635 
L 348.993761 153.164358 
L 349.399986 153.29309 
L 349.80621 153.421832 
L 350.212434 153.550584 
L 350.618659 153.679345 
L 351.024883 153.808116 
L 351.431108 153.936896 
L 351.837332 154.065686 
L 352.243557 154.194485 
L 352.649781 154.323293 
L 353.056005 154.452111 
L 353.46223 154.580938 
L 353.868454 154.709774 
L 354.274679 154.83862 
L 354.680903 154.967474 
L 355.087127 155.096338 
L 355.493352 155.225211 
L 355.899576 155.354093 
L 356.305801 155.482984 
L 356.712025 155.611884 
L 357.118249 155.740793 
L 357.524474 155.869711 
L 357.930698 155.998638 
L 358.336923 156.127574 
L 358.743147 156.256519 
L 359.149371 156.385472 
L 359.555596 156.514435 
L 359.96182 156.643406 
L 360.368045 156.772386 
L 360.774269 156.901374 
L 361.180493 157.030372 
L 361.586718 157.159377 
L 361.992942 157.288392 
L 362.399167 157.417415 
L 362.805391 157.546447 
L 363.211615 157.675487 
L 363.61784 157.804536 
L 364.024064 157.933593 
L 364.430289 158.062659 
L 364.836513 158.191733 
L 365.242738 158.320815 
L 365.648962 158.449906 
L 366.055186 158.579005 
L 366.461411 158.708112 
L 366.867635 158.837228 
L 367.27386 158.966352 
L 367.680084 159.095484 
L 368.086308 159.224624 
L 368.492533 159.353773 
L 368.898757 159.482929 
L 369.304982 159.612094 
L 369.711206 159.741267 
L 370.11743 159.870448 
L 370.523655 159.999637 
L 370.929879 160.128833 
L 371.336104 160.258038 
L 371.742328 160.387251 
L 372.148552 160.516472 
L 372.554777 160.6457 
L 372.961001 160.774936 
L 373.367226 160.904181 
L 373.77345 161.033433 
L 374.179674 161.162692 
L 374.585899 161.29196 
L 374.992123 161.421235 
L 375.398348 161.550518 
L 375.804572 161.679809 
L 376.210796 161.809107 
L 376.617021 161.938413 
L 377.023245 162.067726 
L 377.42947 162.197047 
L 377.835694 162.326376 
L 378.241919 162.455712 
L 378.648143 162.585056 
L 379.054367 162.714407 
L 379.460592 162.843765 
L 379.866816 162.973131 
L 380.273041 163.102504 
L 380.679265 163.231885 
L 381.085489 163.361273 
L 381.491714 163.490668 
L 381.897938 163.620071 
L 382.304163 163.749481 
L 382.710387 163.878898 
L 383.116611 164.008322 
L 383.522836 164.137754 
L 383.92906 164.267193 
L 384.335285 164.396638 
L 384.741509 164.526091 
L 385.147733 164.655552 
L 385.553958 164.785019 
L 385.960182 164.914493 
L 386.366407 165.043974 
L 386.772631 165.173462 
L 387.178855 165.302958 
L 387.58508 165.43246 
L 387.991304 165.561969 
L 388.397529 165.691485 
L 388.803753 165.821008 
L 389.209977 165.950538 
L 389.616202 166.080075 
L 390.022426 166.209618 
L 390.428651 166.339168 
L 390.834875 166.468725 
L 391.2411 166.598289 
L 391.647324 166.72786 
L 392.053548 166.857437 
L 392.459773 166.987021 
L 392.865997 167.116612 
L 393.272222 167.246209 
L 393.678446 167.375813 
L 394.08467 167.505424 
L 394.490895 167.635041 
L 394.897119 167.764664 
L 395.303344 167.894295 
L 395.709568 168.023931 
L 396.115792 168.153575 
L 396.522017 168.283224 
L 396.928241 168.412881 
L 397.334466 168.542543 
L 397.74069 168.672212 
L 398.146914 168.801888 
L 398.553139 168.931569 
L 398.959363 169.061258 
L 399.365588 169.190952 
L 399.771812 169.320653 
L 400.178036 169.45036 
L 400.584261 169.580073 
L 400.990485 169.709793 
L 401.39671 169.839519 
L 401.802934 169.969251 
L 402.209158 170.098989 
L 402.615383 170.228734 
L 403.021607 170.358484 
L 403.427832 170.488241 
L 403.834056 170.618004 
L 404.240281 170.747773 
L 404.646505 170.877548 
L 405.052729 171.007329 
L 405.458954 171.137116 
L 405.865178 171.266909 
L 406.271403 171.396708 
L 406.677627 171.526513 
L 407.083851 171.656324 
L 407.490076 171.786142 
L 407.8963 171.915964 
L 408.302525 172.045793 
L 408.708749 172.175628 
L 409.114973 172.305469 
L 409.521198 172.435315 
L 409.927422 172.565167 
L 410.333647 172.695025 
L 410.739871 172.824889 
L 411.146095 172.954759 
L 411.55232 173.084634 
L 411.958544 173.214516 
L 412.364769 173.344403 
L 412.770993 173.474295 
L 413.177217 173.604193 
L 413.583442 173.734097 
L 413.989666 173.864007 
L 414.395891 173.993922 
L 414.802115 174.123843 
L 415.208339 174.25377 
L 415.614564 174.383702 
L 416.020788 174.513639 
L 416.427013 174.643582 
L 416.833237 174.773531 
L 417.239462 174.903485 
L 417.645686 175.033445 
L 418.05191 175.16341 
L 418.458135 175.293381 
L 418.864359 175.423357 
L 419.270584 175.553338 
L 419.676808 175.683325 
L 420.083032 175.813318 
L 420.489257 175.943315 
L 420.895481 176.073318 
L 421.301706 176.203327 
L 421.70793 176.33334 
L 422.114154 176.463359 
L 422.520379 176.593384 
L 422.926603 176.723413 
L 423.332828 176.853448 
L 423.739052 176.983488 
L 424.145276 177.113534 
L 424.551501 177.243584 
L 424.957725 177.37364 
L 425.36395 177.503701 
L 425.770174 177.633767 
L 426.176398 177.763839 
L 426.582623 177.893915 
L 426.988847 178.023997 
L 427.395072 178.154083 
L 427.801296 178.284175 
L 428.20752 178.414272 
L 428.613745 178.544374 
L 429.019969 178.674481 
L 429.426194 178.804593 
L 429.832418 178.93471 
L 430.238643 179.064832 
L 430.644867 179.194959 
L 431.051091 179.325091 
L 431.457316 179.455228 
L 431.86354 179.585369 
L 432.269765 179.715516 
L 432.675989 179.845668 
L 433.082213 179.975824 
L 433.488438 180.105986 
L 433.894662 180.236152 
L 434.300887 180.366323 
L 434.707111 180.496499 
L 435.113335 180.62668 
L 435.51956 180.756866 
L 435.925784 180.887056 
L 436.332009 181.017251 
L 436.738233 181.147451 
L 437.144457 181.277656 
L 437.550682 181.407866 
L 437.956906 181.53808 
L 438.363131 181.668299 
L 438.769355 181.798522 
L 439.175579 181.928751 
L 439.581804 182.058984 
L 439.988028 182.189221 
L 440.394253 182.319464 
L 440.800477 182.44971 
L 441.206701 182.579962 
L 441.612926 182.710218 
L 442.01915 182.840479 
L 442.425375 182.970744 
L 442.831599 183.101014 
L 443.237824 183.231288 
L 443.644048 183.361567 
L 444.050272 183.491851 
L 444.456497 183.622139 
L 444.862721 183.752431 
L 445.268946 183.882728 
L 445.67517 184.013029 
L 446.081394 184.143335 
L 446.487619 184.273645 
L 446.893843 184.40396 
L 447.300068 184.534279 
L 447.706292 184.664603 
L 448.112516 184.794931 
L 448.518741 184.925263 
L 448.924965 185.0556 
L 449.33119 185.185941 
L 449.737414 185.316286 
L 450.143638 185.446636 
L 450.549863 185.57699 
L 450.956087 185.707348 
L 451.362312 185.837711 
L 451.768536 185.968077 
L 452.17476 186.098449 
L 452.580985 186.228824 
L 452.987209 186.359204 
L 453.393434 186.489587 
L 453.799658 186.619975 
L 454.205882 186.750368 
L 454.612107 186.880764 
L 455.018331 187.011165 
L 455.424556 187.14157 
L 455.83078 187.271979 
L 456.237005 187.402392 
L 456.643229 187.532809 
L 457.049453 187.66323 
L 457.455678 187.793656 
L 457.861902 187.924086 
L 458.268127 188.054519 
L 458.674351 188.184957 
L 459.080575 188.315399 
L 459.4868 188.445845 
L 459.893024 188.576295 
L 460.299249 188.706749 
L 460.705473 188.837206 
L 461.111697 188.967668 
L 461.517922 189.098134 
L 461.924146 189.228604 
L 462.330371 189.359078 
L 462.736595 189.489556 
L 463.142819 189.620038 
L 463.549044 189.750524 
L 463.955268 189.881013 
L 464.361493 190.011507 
L 464.767717 190.142005 
L 465.173941 190.272506 
L 465.580166 190.403011 
L 465.98639 190.53352 
L 466.392615 190.664034 
L 466.798839 190.79455 
L 467.205063 190.925071 
L 467.611288 191.055596 
L 468.017512 191.186124 
L 468.423737 191.316656 
L 468.829961 191.447192 
L 469.236186 191.577732 
L 469.64241 191.708276 
L 470.048634 191.838823 
L 470.454859 191.969374 
L 470.861083 192.099929 
L 471.267308 192.230487 
L 471.673532 192.36105 
L 472.079756 192.491616 
L 472.485981 192.622185 
L 472.892205 192.752759 
L 473.29843 192.883336 
L 473.704654 193.013917 
L 474.110878 193.144501 
L 474.517103 193.275089 
L 474.923327 193.405681 
L 475.329552 193.536276 
L 475.735776 193.666875 
L 476.142 193.797478 
L 476.548225 193.928084 
L 476.954449 194.058694 
L 477.360674 194.189307 
L 477.766898 194.319924 
L 478.173122 194.450545 
L 478.579347 194.581169 
L 478.985571 194.711797 
L 479.391796 194.842428 
L 479.79802 194.973062 
L 480.204244 195.103701 
L 480.610469 195.234342 
L 481.016693 195.364988 
L 481.422918 195.495636 
L 481.829142 195.626289 
L 482.235367 195.756944 
L 482.641591 195.887603 
L 482.641591 119.410869 
L 482.641591 119.410869 
L 482.235367 119.349096 
L 481.829142 119.287321 
L 481.422918 119.225541 
L 481.016693 119.163758 
L 480.610469 119.101972 
L 480.204244 119.040182 
L 479.79802 118.978389 
L 479.391796 118.916592 
L 478.985571 118.854792 
L 478.579347 118.792988 
L 478.173122 118.73118 
L 477.766898 118.669369 
L 477.360674 118.607555 
L 476.954449 118.545736 
L 476.548225 118.483915 
L 476.142 118.422089 
L 475.735776 118.36026 
L 475.329552 118.298428 
L 474.923327 118.236592 
L 474.517103 118.174752 
L 474.110878 118.112908 
L 473.704654 118.051061 
L 473.29843 117.98921 
L 472.892205 117.927356 
L 472.485981 117.865498 
L 472.079756 117.803636 
L 471.673532 117.74177 
L 471.267308 117.679901 
L 470.861083 117.618028 
L 470.454859 117.556151 
L 470.048634 117.494271 
L 469.64241 117.432387 
L 469.236186 117.370499 
L 468.829961 117.308607 
L 468.423737 117.246711 
L 468.017512 117.184812 
L 467.611288 117.122909 
L 467.205063 117.061002 
L 466.798839 116.999091 
L 466.392615 116.937176 
L 465.98639 116.875258 
L 465.580166 116.813335 
L 465.173941 116.751409 
L 464.767717 116.689479 
L 464.361493 116.627545 
L 463.955268 116.565607 
L 463.549044 116.503665 
L 463.142819 116.441719 
L 462.736595 116.37977 
L 462.330371 116.317816 
L 461.924146 116.255858 
L 461.517922 116.193897 
L 461.111697 116.131931 
L 460.705473 116.069962 
L 460.299249 116.007988 
L 459.893024 115.94601 
L 459.4868 115.884029 
L 459.080575 115.822043 
L 458.674351 115.760053 
L 458.268127 115.698059 
L 457.861902 115.636062 
L 457.455678 115.57406 
L 457.049453 115.512054 
L 456.643229 115.450043 
L 456.237005 115.388029 
L 455.83078 115.326011 
L 455.424556 115.263988 
L 455.018331 115.201961 
L 454.612107 115.13993 
L 454.205882 115.077895 
L 453.799658 115.015856 
L 453.393434 114.953813 
L 452.987209 114.891765 
L 452.580985 114.829713 
L 452.17476 114.767657 
L 451.768536 114.705596 
L 451.362312 114.643532 
L 450.956087 114.581463 
L 450.549863 114.519389 
L 450.143638 114.457312 
L 449.737414 114.39523 
L 449.33119 114.333144 
L 448.924965 114.271053 
L 448.518741 114.208958 
L 448.112516 114.146859 
L 447.706292 114.084755 
L 447.300068 114.022647 
L 446.893843 113.960535 
L 446.487619 113.898418 
L 446.081394 113.836297 
L 445.67517 113.774171 
L 445.268946 113.712041 
L 444.862721 113.649906 
L 444.456497 113.587767 
L 444.050272 113.525624 
L 443.644048 113.463475 
L 443.237824 113.401323 
L 442.831599 113.339166 
L 442.425375 113.277004 
L 442.01915 113.214838 
L 441.612926 113.152667 
L 441.206701 113.090491 
L 440.800477 113.028311 
L 440.394253 112.966126 
L 439.988028 112.903937 
L 439.581804 112.841743 
L 439.175579 112.779545 
L 438.769355 112.717341 
L 438.363131 112.655133 
L 437.956906 112.592921 
L 437.550682 112.530703 
L 437.144457 112.468481 
L 436.738233 112.406255 
L 436.332009 112.344023 
L 435.925784 112.281787 
L 435.51956 112.219546 
L 435.113335 112.1573 
L 434.707111 112.095049 
L 434.300887 112.032793 
L 433.894662 111.970533 
L 433.488438 111.908268 
L 433.082213 111.845998 
L 432.675989 111.783723 
L 432.269765 111.721443 
L 431.86354 111.659158 
L 431.457316 111.596868 
L 431.051091 111.534574 
L 430.644867 111.472274 
L 430.238643 111.409969 
L 429.832418 111.34766 
L 429.426194 111.285345 
L 429.019969 111.223026 
L 428.613745 111.160701 
L 428.20752 111.098371 
L 427.801296 111.036037 
L 427.395072 110.973697 
L 426.988847 110.911352 
L 426.582623 110.849002 
L 426.176398 110.786647 
L 425.770174 110.724287 
L 425.36395 110.661921 
L 424.957725 110.599551 
L 424.551501 110.537175 
L 424.145276 110.474794 
L 423.739052 110.412408 
L 423.332828 110.350016 
L 422.926603 110.28762 
L 422.520379 110.225218 
L 422.114154 110.16281 
L 421.70793 110.100398 
L 421.301706 110.03798 
L 420.895481 109.975557 
L 420.489257 109.913128 
L 420.083032 109.850695 
L 419.676808 109.788255 
L 419.270584 109.725811 
L 418.864359 109.663361 
L 418.458135 109.600905 
L 418.05191 109.538444 
L 417.645686 109.475978 
L 417.239462 109.413506 
L 416.833237 109.351029 
L 416.427013 109.288546 
L 416.020788 109.226057 
L 415.614564 109.163563 
L 415.208339 109.101064 
L 414.802115 109.038559 
L 414.395891 108.976048 
L 413.989666 108.913532 
L 413.583442 108.85101 
L 413.177217 108.788482 
L 412.770993 108.725949 
L 412.364769 108.66341 
L 411.958544 108.600865 
L 411.55232 108.538315 
L 411.146095 108.475759 
L 410.739871 108.413197 
L 410.333647 108.350629 
L 409.927422 108.288056 
L 409.521198 108.225477 
L 409.114973 108.162891 
L 408.708749 108.1003 
L 408.302525 108.037704 
L 407.8963 107.975101 
L 407.490076 107.912492 
L 407.083851 107.849878 
L 406.677627 107.787257 
L 406.271403 107.724631 
L 405.865178 107.661998 
L 405.458954 107.59936 
L 405.052729 107.536716 
L 404.646505 107.474065 
L 404.240281 107.411409 
L 403.834056 107.348746 
L 403.427832 107.286077 
L 403.021607 107.223402 
L 402.615383 107.160721 
L 402.209158 107.098034 
L 401.802934 107.035341 
L 401.39671 106.972642 
L 400.990485 106.909936 
L 400.584261 106.847224 
L 400.178036 106.784506 
L 399.771812 106.721781 
L 399.365588 106.659051 
L 398.959363 106.596313 
L 398.553139 106.53357 
L 398.146914 106.47082 
L 397.74069 106.408064 
L 397.334466 106.345302 
L 396.928241 106.282533 
L 396.522017 106.219757 
L 396.115792 106.156976 
L 395.709568 106.094187 
L 395.303344 106.031392 
L 394.897119 105.968591 
L 394.490895 105.905783 
L 394.08467 105.842969 
L 393.678446 105.780148 
L 393.272222 105.71732 
L 392.865997 105.654486 
L 392.459773 105.591645 
L 392.053548 105.528797 
L 391.647324 105.465943 
L 391.2411 105.403082 
L 390.834875 105.340214 
L 390.428651 105.27734 
L 390.022426 105.214459 
L 389.616202 105.151571 
L 389.209977 105.088676 
L 388.803753 105.025774 
L 388.397529 104.962865 
L 387.991304 104.89995 
L 387.58508 104.837028 
L 387.178855 104.774098 
L 386.772631 104.711162 
L 386.366407 104.648219 
L 385.960182 104.585268 
L 385.553958 104.522311 
L 385.147733 104.459347 
L 384.741509 104.396375 
L 384.335285 104.333396 
L 383.92906 104.270411 
L 383.522836 104.207418 
L 383.116611 104.144418 
L 382.710387 104.081411 
L 382.304163 104.018396 
L 381.897938 103.955375 
L 381.491714 103.892346 
L 381.085489 103.829309 
L 380.679265 103.766266 
L 380.273041 103.703215 
L 379.866816 103.640157 
L 379.460592 103.577091 
L 379.054367 103.514018 
L 378.648143 103.450938 
L 378.241919 103.38785 
L 377.835694 103.324754 
L 377.42947 103.261651 
L 377.023245 103.198541 
L 376.617021 103.135422 
L 376.210796 103.072297 
L 375.804572 103.009163 
L 375.398348 102.946023 
L 374.992123 102.882874 
L 374.585899 102.819718 
L 374.179674 102.756554 
L 373.77345 102.693382 
L 373.367226 102.630202 
L 372.961001 102.567015 
L 372.554777 102.50382 
L 372.148552 102.440617 
L 371.742328 102.377406 
L 371.336104 102.314187 
L 370.929879 102.25096 
L 370.523655 102.187725 
L 370.11743 102.124483 
L 369.711206 102.061232 
L 369.304982 101.997973 
L 368.898757 101.934706 
L 368.492533 101.871431 
L 368.086308 101.808148 
L 367.680084 101.744857 
L 367.27386 101.681558 
L 366.867635 101.61825 
L 366.461411 101.554934 
L 366.055186 101.49161 
L 365.648962 101.428277 
L 365.242738 101.364937 
L 364.836513 101.301588 
L 364.430289 101.23823 
L 364.024064 101.174864 
L 363.61784 101.11149 
L 363.211615 101.048107 
L 362.805391 100.984716 
L 362.399167 100.921316 
L 361.992942 100.857907 
L 361.586718 100.79449 
L 361.180493 100.731065 
L 360.774269 100.66763 
L 360.368045 100.604187 
L 359.96182 100.540736 
L 359.555596 100.477275 
L 359.149371 100.413806 
L 358.743147 100.350328 
L 358.336923 100.286841 
L 357.930698 100.223345 
L 357.524474 100.159841 
L 357.118249 100.096327 
L 356.712025 100.032805 
L 356.305801 99.969273 
L 355.899576 99.905733 
L 355.493352 99.842183 
L 355.087127 99.778625 
L 354.680903 99.715057 
L 354.274679 99.65148 
L 353.868454 99.587894 
L 353.46223 99.524298 
L 353.056005 99.460694 
L 352.649781 99.39708 
L 352.243557 99.333457 
L 351.837332 99.269824 
L 351.431108 99.206182 
L 351.024883 99.142531 
L 350.618659 99.07887 
L 350.212434 99.0152 
L 349.80621 98.95152 
L 349.399986 98.887831 
L 348.993761 98.824132 
L 348.587537 98.760423 
L 348.181312 98.696705 
L 347.775088 98.632977 
L 347.368864 98.56924 
L 346.962639 98.505492 
L 346.556415 98.441735 
L 346.15019 98.377968 
L 345.743966 98.314191 
L 345.337742 98.250404 
L 344.931517 98.186608 
L 344.525293 98.122801 
L 344.119068 98.058984 
L 343.712844 97.995158 
L 343.30662 97.931321 
L 342.900395 97.867474 
L 342.494171 97.803617 
L 342.087946 97.739749 
L 341.681722 97.675872 
L 341.275498 97.611984 
L 340.869273 97.548086 
L 340.463049 97.484177 
L 340.056824 97.420259 
L 339.6506 97.356329 
L 339.244376 97.29239 
L 338.838151 97.228439 
L 338.431927 97.164479 
L 338.025702 97.100507 
L 337.619478 97.036525 
L 337.213253 96.972533 
L 336.807029 96.90853 
L 336.400805 96.844516 
L 335.99458 96.780491 
L 335.588356 96.716455 
L 335.182131 96.652409 
L 334.775907 96.588351 
L 334.369683 96.524283 
L 333.963458 96.460204 
L 333.557234 96.396114 
L 333.151009 96.332012 
L 332.744785 96.2679 
L 332.338561 96.203776 
L 331.932336 96.139642 
L 331.526112 96.075496 
L 331.119887 96.011339 
L 330.713663 95.94717 
L 330.307439 95.88299 
L 329.901214 95.818799 
L 329.49499 95.754596 
L 329.088765 95.690382 
L 328.682541 95.626157 
L 328.276317 95.561919 
L 327.870092 95.497671 
L 327.463868 95.43341 
L 327.057643 95.369138 
L 326.651419 95.304854 
L 326.245195 95.240558 
L 325.83897 95.176251 
L 325.432746 95.111932 
L 325.026521 95.0476 
L 324.620297 94.983257 
L 324.214072 94.918902 
L 323.807848 94.854535 
L 323.401624 94.790155 
L 322.995399 94.725764 
L 322.589175 94.66136 
L 322.18295 94.596944 
L 321.776726 94.532516 
L 321.370502 94.468075 
L 320.964277 94.403622 
L 320.558053 94.339157 
L 320.151828 94.274679 
L 319.745604 94.210189 
L 319.33938 94.145686 
L 318.933155 94.08117 
L 318.526931 94.016642 
L 318.120706 93.952101 
L 317.714482 93.887548 
L 317.308258 93.822981 
L 316.902033 93.758402 
L 316.495809 93.69381 
L 316.089584 93.629205 
L 315.68336 93.564586 
L 315.277136 93.499955 
L 314.870911 93.435311 
L 314.464687 93.370653 
L 314.058462 93.305983 
L 313.652238 93.241299 
L 313.246014 93.176601 
L 312.839789 93.111891 
L 312.433565 93.047167 
L 312.02734 92.982429 
L 311.621116 92.917678 
L 311.214891 92.852913 
L 310.808667 92.788135 
L 310.402443 92.723343 
L 309.996218 92.658537 
L 309.589994 92.593718 
L 309.183769 92.528885 
L 308.777545 92.464037 
L 308.371321 92.399176 
L 307.965096 92.334301 
L 307.558872 92.269412 
L 307.152647 92.204508 
L 306.746423 92.139591 
L 306.340199 92.074659 
L 305.933974 92.009713 
L 305.52775 91.944753 
L 305.121525 91.879778 
L 304.715301 91.814789 
L 304.309077 91.749785 
L 303.902852 91.684767 
L 303.496628 91.619734 
L 303.090403 91.554686 
L 302.684179 91.489624 
L 302.277955 91.424547 
L 301.87173 91.359455 
L 301.465506 91.294348 
L 301.059281 91.229226 
L 300.653057 91.164089 
L 300.246833 91.098937 
L 299.840608 91.033769 
L 299.434384 90.968587 
L 299.028159 90.903389 
L 298.621935 90.838176 
L 298.21571 90.772948 
L 297.809486 90.707704 
L 297.403262 90.642444 
L 296.997037 90.577169 
L 296.590813 90.511879 
L 296.184588 90.446572 
L 295.778364 90.38125 
L 295.37214 90.315912 
L 294.965915 90.250558 
L 294.559691 90.185188 
L 294.153466 90.119802 
L 293.747242 90.0544 
L 293.341018 89.988982 
L 292.934793 89.923548 
L 292.528569 89.858097 
L 292.122344 89.79263 
L 291.71612 89.727146 
L 291.309896 89.661646 
L 290.903671 89.59613 
L 290.497447 89.530596 
L 290.091222 89.465046 
L 289.684998 89.39948 
L 289.278774 89.333896 
L 288.872549 89.268296 
L 288.466325 89.202678 
L 288.0601 89.137044 
L 287.653876 89.071392 
L 287.247652 89.005724 
L 286.841427 88.940038 
L 286.435203 88.874334 
L 286.028978 88.808614 
L 285.622754 88.742875 
L 285.216529 88.67712 
L 284.810305 88.611346 
L 284.404081 88.545555 
L 283.997856 88.479747 
L 283.591632 88.41392 
L 283.185407 88.348075 
L 282.779183 88.282213 
L 282.372959 88.216332 
L 281.966734 88.150434 
L 281.56051 88.084517 
L 281.154285 88.018582 
L 280.748061 87.952628 
L 280.341837 87.886656 
L 279.935612 87.820666 
L 279.529388 87.754657 
L 279.123163 87.688629 
L 278.716939 87.622583 
L 278.310715 87.556518 
L 277.90449 87.490433 
L 277.498266 87.42433 
L 277.092041 87.358208 
L 276.685817 87.292067 
L 276.279593 87.225906 
L 275.873368 87.159727 
L 275.467144 87.093527 
L 275.060919 87.027309 
L 274.654695 86.961071 
L 274.248471 86.894813 
L 273.842246 86.828535 
L 273.436022 86.762238 
L 273.029797 86.695921 
L 272.623573 86.629584 
L 272.217348 86.563227 
L 271.811124 86.49685 
L 271.4049 86.430452 
L 270.998675 86.364034 
L 270.592451 86.297596 
L 270.186226 86.231138 
L 269.780002 86.164658 
L 269.373778 86.098159 
L 268.967553 86.031638 
L 268.561329 85.965097 
L 268.155104 85.898535 
L 267.74888 85.831951 
L 267.342656 85.765347 
L 266.936431 85.698722 
L 266.530207 85.632075 
L 266.123982 85.565407 
L 265.717758 85.498717 
L 265.311534 85.432006 
L 264.905309 85.365274 
L 264.499085 85.298519 
L 264.09286 85.231743 
L 263.686636 85.164945 
L 263.280412 85.098125 
L 262.874187 85.031283 
L 262.467963 84.964418 
L 262.061738 84.897532 
L 261.655514 84.830623 
L 261.24929 84.763691 
L 260.843065 84.696737 
L 260.436841 84.62976 
L 260.030616 84.562761 
L 259.624392 84.495738 
L 259.218167 84.428693 
L 258.811943 84.361625 
L 258.405719 84.294533 
L 257.999494 84.227418 
L 257.59327 84.16028 
L 257.187045 84.093118 
L 256.780821 84.025933 
L 256.374597 83.958724 
L 255.968372 83.891492 
L 255.562148 83.824235 
L 255.155923 83.756955 
L 254.749699 83.68965 
L 254.343475 83.622321 
L 253.93725 83.554968 
L 253.531026 83.487591 
L 253.124801 83.420189 
L 252.718577 83.352762 
L 252.312353 83.285311 
L 251.906128 83.217835 
L 251.499904 83.150334 
L 251.093679 83.082808 
L 250.687455 83.015256 
L 250.281231 82.94768 
L 249.875006 82.880078 
L 249.468782 82.812451 
L 249.062557 82.744798 
L 248.656333 82.677119 
L 248.250109 82.609414 
L 247.843884 82.541684 
L 247.43766 82.473928 
L 247.031435 82.406145 
L 246.625211 82.338336 
L 246.218986 82.270501 
L 245.812762 82.202639 
L 245.406538 82.134751 
L 245.000313 82.066835 
L 244.594089 81.998893 
L 244.187864 81.930924 
L 243.78164 81.862928 
L 243.375416 81.794905 
L 242.969191 81.726854 
L 242.562967 81.658776 
L 242.156742 81.590671 
L 241.750518 81.522537 
L 241.344294 81.454376 
L 240.938069 81.386187 
L 240.531845 81.31797 
L 240.12562 81.249724 
L 239.719396 81.181451 
L 239.313172 81.113148 
L 238.906947 81.044818 
L 238.500723 80.976458 
L 238.094498 80.90807 
L 237.688274 80.839653 
L 237.28205 80.771206 
L 236.875825 80.702731 
L 236.469601 80.634226 
L 236.063376 80.565692 
L 235.657152 80.497128 
L 235.250928 80.428534 
L 234.844703 80.359911 
L 234.438479 80.291257 
L 234.032254 80.222573 
L 233.62603 80.15386 
L 233.219805 80.085115 
L 232.813581 80.01634 
L 232.407357 79.947535 
L 232.001132 79.878698 
L 231.594908 79.809831 
L 231.188683 79.740933 
L 230.782459 79.672003 
L 230.376235 79.603042 
L 229.97001 79.53405 
L 229.563786 79.465025 
L 229.157561 79.395969 
L 228.751337 79.326882 
L 228.345113 79.257762 
L 227.938888 79.188609 
L 227.532664 79.119425 
L 227.126439 79.050208 
L 226.720215 78.980958 
L 226.313991 78.911676 
L 225.907766 78.84236 
L 225.501542 78.773012 
L 225.095317 78.70363 
L 224.689093 78.634215 
L 224.282869 78.564766 
L 223.876644 78.495283 
L 223.47042 78.425767 
L 223.064195 78.356217 
L 222.657971 78.286632 
L 222.251747 78.217014 
L 221.845522 78.14736 
L 221.439298 78.077673 
L 221.033073 78.00795 
L 220.626849 77.938193 
L 220.220624 77.8684 
L 219.8144 77.798572 
L 219.408176 77.728709 
L 219.001951 77.65881 
L 218.595727 77.588875 
L 218.189502 77.518905 
L 217.783278 77.448899 
L 217.377054 77.378856 
L 216.970829 77.308777 
L 216.564605 77.238661 
L 216.15838 77.168509 
L 215.752156 77.09832 
L 215.345932 77.028094 
L 214.939707 76.95783 
L 214.533483 76.88753 
L 214.127258 76.817191 
L 213.721034 76.746815 
L 213.31481 76.676401 
L 212.908585 76.60595 
L 212.502361 76.535459 
L 212.096136 76.464931 
L 211.689912 76.394364 
L 211.283688 76.323758 
L 210.877463 76.253113 
L 210.471239 76.18243 
L 210.065014 76.111706 
L 209.65879 76.040944 
L 209.252566 75.970142 
L 208.846341 75.8993 
L 208.440117 75.828418 
L 208.033892 75.757496 
L 207.627668 75.686534 
L 207.221443 75.615531 
L 206.815219 75.544487 
L 206.408995 75.473402 
L 206.00277 75.402277 
L 205.596546 75.33111 
L 205.190321 75.259902 
L 204.784097 75.188652 
L 204.377873 75.11736 
L 203.971648 75.046026 
L 203.565424 74.974651 
L 203.159199 74.903232 
L 202.752975 74.831771 
L 202.346751 74.760268 
L 201.940526 74.688721 
L 201.534302 74.617131 
L 201.128077 74.545498 
L 200.721853 74.473822 
L 200.315629 74.402101 
L 199.909404 74.330337 
L 199.50318 74.258529 
L 199.096955 74.186676 
L 198.690731 74.114779 
L 198.284507 74.042837 
L 197.878282 73.97085 
L 197.472058 73.898818 
L 197.065833 73.82674 
L 196.659609 73.754617 
L 196.253385 73.682449 
L 195.84716 73.610234 
L 195.440936 73.537973 
L 195.034711 73.465666 
L 194.628487 73.393312 
L 194.222262 73.320912 
L 193.816038 73.248465 
L 193.409814 73.17597 
L 193.003589 73.103428 
L 192.597365 73.030838 
L 192.19114 72.958201 
L 191.784916 72.885515 
L 191.378692 72.812782 
L 190.972467 72.739999 
L 190.566243 72.667168 
L 190.160018 72.594289 
L 189.753794 72.52136 
L 189.34757 72.448381 
L 188.941345 72.375354 
L 188.535121 72.302276 
L 188.128896 72.229149 
L 187.722672 72.155971 
L 187.316448 72.082743 
L 186.910223 72.009464 
L 186.503999 71.936134 
L 186.097774 71.862753 
L 185.69155 71.789321 
L 185.285326 71.715837 
L 184.879101 71.642302 
L 184.472877 71.568714 
L 184.066652 71.495074 
L 183.660428 71.421382 
L 183.254204 71.347637 
L 182.847979 71.273839 
L 182.441755 71.199988 
L 182.03553 71.126084 
L 181.629306 71.052125 
L 181.223081 70.978113 
L 180.816857 70.904047 
L 180.410633 70.829927 
L 180.004408 70.755752 
L 179.598184 70.681522 
L 179.191959 70.607237 
L 178.785735 70.532897 
L 178.379511 70.458501 
L 177.973286 70.38405 
L 177.567062 70.309543 
L 177.160837 70.234979 
L 176.754613 70.160359 
L 176.348389 70.085682 
L 175.942164 70.010948 
L 175.53594 69.936157 
L 175.129715 69.861308 
L 174.723491 69.786402 
L 174.317267 69.711437 
L 173.911042 69.636415 
L 173.504818 69.561334 
L 173.098593 69.486194 
L 172.692369 69.410995 
L 172.286145 69.335737 
L 171.87992 69.26042 
L 171.473696 69.185043 
L 171.067471 69.109606 
L 170.661247 69.034108 
L 170.255023 68.95855 
L 169.848798 68.882932 
L 169.442574 68.807252 
L 169.036349 68.731512 
L 168.630125 68.655709 
L 168.2239 68.579845 
L 167.817676 68.503919 
L 167.411452 68.427931 
L 167.005227 68.35188 
L 166.599003 68.275766 
L 166.192778 68.199589 
L 165.786554 68.123349 
L 165.38033 68.047045 
L 164.974105 67.970677 
L 164.567881 67.894246 
L 164.161656 67.81775 
L 163.755432 67.741189 
L 163.349208 67.664563 
L 162.942983 67.587872 
L 162.536759 67.511116 
L 162.130534 67.434294 
L 161.72431 67.357406 
L 161.318086 67.280452 
L 160.911861 67.203431 
L 160.505637 67.126343 
L 160.099412 67.049189 
L 159.693188 66.971967 
L 159.286964 66.894677 
L 158.880739 66.81732 
L 158.474515 66.739894 
L 158.06829 66.6624 
L 157.662066 66.584837 
L 157.255842 66.507206 
L 156.849617 66.429505 
L 156.443393 66.351734 
L 156.037168 66.273894 
L 155.630944 66.195984 
L 155.224719 66.118003 
L 154.818495 66.039952 
L 154.412271 65.96183 
L 154.006046 65.883637 
L 153.599822 65.805372 
L 153.193597 65.727036 
L 152.787373 65.648628 
L 152.381149 65.570147 
L 151.974924 65.491594 
L 151.5687 65.412968 
L 151.162475 65.334269 
L 150.756251 65.255496 
L 150.350027 65.17665 
L 149.943802 65.09773 
L 149.537578 65.018735 
L 149.131353 64.939667 
L 148.725129 64.860523 
L 148.318905 64.781304 
L 147.91268 64.70201 
L 147.506456 64.622641 
L 147.100231 64.543195 
L 146.694007 64.463674 
L 146.287783 64.384075 
L 145.881558 64.304401 
L 145.475334 64.224649 
L 145.069109 64.144819 
L 144.662885 64.064913 
L 144.256661 63.984928 
L 143.850436 63.904865 
L 143.444212 63.824724 
L 143.037987 63.744504 
L 142.631763 63.664205 
L 142.225538 63.583827 
L 141.819314 63.503369 
L 141.41309 63.422831 
L 141.006865 63.342214 
L 140.600641 63.261516 
L 140.194416 63.180737 
L 139.788192 63.099877 
L 139.381968 63.018936 
L 138.975743 62.937914 
L 138.569519 62.85681 
L 138.163294 62.775623 
L 137.75707 62.694355 
L 137.350846 62.613003 
L 136.944621 62.531569 
L 136.538397 62.450052 
L 136.132172 62.368451 
L 135.725948 62.286766 
L 135.319724 62.204998 
L 134.913499 62.123145 
L 134.507275 62.041208 
L 134.10105 61.959185 
L 133.694826 61.877078 
L 133.288602 61.794885 
L 132.882377 61.712607 
L 132.476153 61.630242 
L 132.069928 61.547792 
L 131.663704 61.465255 
L 131.25748 61.382631 
L 130.851255 61.29992 
L 130.445031 61.217122 
L 130.038806 61.134236 
L 129.632582 61.051262 
L 129.226357 60.968201 
L 128.820133 60.88505 
L 128.413909 60.801812 
L 128.007684 60.718484 
L 127.60146 60.635067 
L 127.195235 60.551561 
L 126.789011 60.467965 
L 126.382787 60.384279 
L 125.976562 60.300503 
L 125.570338 60.216636 
L 125.164113 60.132679 
L 124.757889 60.04863 
L 124.351665 59.96449 
L 123.94544 59.880259 
L 123.539216 59.795936 
L 123.132991 59.711521 
L 122.726767 59.627013 
L 122.320543 59.542413 
L 121.914318 59.457721 
L 121.508094 59.372935 
L 121.101869 59.288056 
L 120.695645 59.203083 
L 120.289421 59.118016 
L 119.883196 59.032856 
L 119.476972 58.947601 
L 119.070747 58.862251 
L 118.664523 58.776807 
L 118.258299 58.691268 
L 117.852074 58.605633 
L 117.44585 58.519903 
L 117.039625 58.434077 
L 116.633401 58.348155 
L 116.227176 58.262137 
L 115.820952 58.176023 
L 115.414728 58.089812 
L 115.008503 58.003503 
L 114.602279 57.917098 
L 114.196054 57.830596 
L 113.78983 57.743995 
L 113.383606 57.657297 
L 112.977381 57.570501 
L 112.571157 57.483607 
L 112.164932 57.396614 
L 111.758708 57.309522 
L 111.352484 57.222332 
L 110.946259 57.135042 
L 110.540035 57.047653 
L 110.13381 56.960164 
L 109.727586 56.872576 
L 109.321362 56.784887 
L 108.915137 56.697099 
L 108.508913 56.60921 
L 108.102688 56.52122 
L 107.696464 56.43313 
L 107.29024 56.344938 
L 106.884015 56.256646 
L 106.477791 56.168252 
L 106.071566 56.079756 
L 105.665342 55.991159 
L 105.259118 55.90246 
L 104.852893 55.813659 
L 104.446669 55.724755 
L 104.040444 55.635749 
L 103.63422 55.54664 
L 103.227995 55.457428 
L 102.821771 55.368113 
L 102.415547 55.278695 
L 102.009322 55.189174 
L 101.603098 55.099549 
L 101.196873 55.00982 
L 100.790649 54.919988 
L 100.384425 54.830051 
L 99.9782 54.74001 
L 99.571976 54.649865 
L 99.165751 54.559615 
L 98.759527 54.469261 
L 98.353303 54.378802 
L 97.947078 54.288238 
L 97.540854 54.197568 
L 97.134629 54.106794 
L 96.728405 54.015914 
L 96.322181 53.924928 
L 95.915956 53.833837 
L 95.509732 53.74264 
L 95.103507 53.651338 
L 94.697283 53.559929 
L 94.291059 53.468413 
L 93.884834 53.376792 
L 93.47861 53.285064 
L 93.072385 53.19323 
L 92.666161 53.101289 
L 92.259937 53.009241 
L 91.853712 52.917086 
L 91.447488 52.824824 
L 91.041263 52.732456 
L 90.635039 52.63998 
L 90.228814 52.547396 
L 89.82259 52.454706 
L 89.416366 52.361907 
L 89.010141 52.269002 
L 88.603917 52.175988 
L 88.197692 52.082867 
L 87.791468 51.989638 
L 87.385244 51.896301 
L 86.979019 51.802856 
L 86.572795 51.709303 
L 86.16657 51.615642 
L 85.760346 51.521872 
L 85.354122 51.427995 
L 84.947897 51.334009 
L 84.541673 51.239915 
L 84.135448 51.145712 
L 83.729224 51.0514 
L 83.323 50.956981 
L 82.916775 50.862452 
L 82.510551 50.767815 
L 82.104326 50.673069 
L 81.698102 50.578215 
L 81.291878 50.483252 
L 80.885653 50.388179 
L 80.479429 50.292999 
L 80.073204 50.197709 
L 79.66698 50.10231 
L 79.260756 50.006803 
L 78.854531 49.911186 
L 78.448307 49.815461 
L 78.042082 49.719626 
L 77.635858 49.623683 
L 77.229633 49.527631 
L 76.823409 49.431469 
z
" style="fill:#1f77b4;fill-opacity:0.4;"/>
   </g>
   <g id="PathCollection_1">
    <defs>
     <path d="M 0 3 
C 0.795609 3 1.55874 2.683901 2.12132 2.12132 
C 2.683901 1.55874 3 0.795609 3 0 
C 3 -0.795609 2.683901 -1.55874 2.12132 -2.12132 
C 1.55874 -2.683901 0.795609 -3 0 -3 
C -0.795609 -3 -1.55874 -2.683901 -2.12132 -2.12132 
C -2.683901 -1.55874 -3 -0.795609 -3 0 
C -3 0.795609 -2.683901 1.55874 -2.12132 2.12132 
C -1.55874 2.683901 -0.795609 3 0 3 
z
" id="m88c7ad75dd" style="stroke:#000000;"/>
    </defs>
    <g clip-path="url(#p33aee479c8)">
     <use style="stroke:#000000;" x="86.979019" xlink:href="#m88c7ad75dd" y="81.255998"/>
     <use style="stroke:#000000;" x="265.311534" xlink:href="#m88c7ad75dd" y="100.159867"/>
     <use style="stroke:#000000;" x="227.938888" xlink:href="#m88c7ad75dd" y="91.254045"/>
    </g>
   </g>
   <g id="PathCollection_2">
    <defs>
     <path d="M 0 3 
C 0.795609 3 1.55874 2.683901 2.12132 2.12132 
C 2.683901 1.55874 3 0.795609 3 0 
C 3 -0.795609 2.683901 -1.55874 2.12132 -2.12132 
C 1.55874 -2.683901 0.795609 -3 0 -3 
C -0.795609 -3 -1.55874 -2.683901 -2.12132 -2.12132 
C -2.683901 -1.55874 -3 -0.795609 -3 0 
C -3 0.795609 -2.683901 1.55874 -2.12132 2.12132 
C -1.55874 2.683901 -0.795609 3 0 3 
z
" id="m0eac22e5b9" style="stroke:#ff0000;"/>
    </defs>
    <g clip-path="url(#p33aee479c8)">
     <use style="fill:#ff0000;stroke:#ff0000;" x="76.823409" xlink:href="#m0eac22e5b9" y="73.29364"/>
     <use style="fill:#ff0000;stroke:#ff0000;" x="77.229633" xlink:href="#m0eac22e5b9" y="73.292917"/>
     <use style="fill:#ff0000;stroke:#ff0000;" x="77.635858" xlink:href="#m0eac22e5b9" y="73.290749"/>
    </g>
   </g>
   <g id="matplotlib.axis_1">
    <g id="xtick_1">
     <g id="line2d_1">
      <defs>
       <path d="M 0 0 
L 0 3.5 
" id="m2a9b5925ea" style="stroke:#000000;stroke-width:0.8;"/>
      </defs>
      <g>
       <use style="stroke:#000000;stroke-width:0.8;" x="76.823409" xlink:href="#m2a9b5925ea" y="204.872727"/>
      </g>
     </g>
     <g id="text_1">
      <!-- 0 -->
      <g transform="translate(73.005909 220.990852)scale(0.12 -0.12)">
       <defs>
        <path d="M 31.78125 66.40625 
Q 24.171875 66.40625 20.328125 58.90625 
Q 16.5 51.421875 16.5 36.375 
Q 16.5 21.390625 20.328125 13.890625 
Q 24.171875 6.390625 31.78125 6.390625 
Q 39.453125 6.390625 43.28125 13.890625 
Q 47.125 21.390625 47.125 36.375 
Q 47.125 51.421875 43.28125 58.90625 
Q 39.453125 66.40625 31.78125 66.40625 
z
M 31.78125 74.21875 
Q 44.046875 74.21875 50.515625 64.515625 
Q 56.984375 54.828125 56.984375 36.375 
Q 56.984375 17.96875 50.515625 8.265625 
Q 44.046875 -1.421875 31.78125 -1.421875 
Q 19.53125 -1.421875 13.0625 8.265625 
Q 6.59375 17.96875 6.59375 36.375 
Q 6.59375 54.828125 13.0625 64.515625 
Q 19.53125 74.21875 31.78125 74.21875 
z
" id="DejaVuSans-48"/>
       </defs>
       <use xlink:href="#DejaVuSans-48"/>
      </g>
     </g>
    </g>
    <g id="xtick_2">
     <g id="line2d_2">
      <g>
       <use style="stroke:#000000;stroke-width:0.8;" x="157.987045" xlink:href="#m2a9b5925ea" y="204.872727"/>
      </g>
     </g>
     <g id="text_2">
      <!-- 2 -->
      <g transform="translate(154.169545 220.990852)scale(0.12 -0.12)">
       <defs>
        <path d="M 19.1875 8.296875 
L 53.609375 8.296875 
L 53.609375 0 
L 7.328125 0 
L 7.328125 8.296875 
Q 12.9375 14.109375 22.625 23.890625 
Q 32.328125 33.6875 34.8125 36.53125 
Q 39.546875 41.84375 41.421875 45.53125 
Q 43.3125 49.21875 43.3125 52.78125 
Q 43.3125 58.59375 39.234375 62.25 
Q 35.15625 65.921875 28.609375 65.921875 
Q 23.96875 65.921875 18.8125 64.3125 
Q 13.671875 62.703125 7.8125 59.421875 
L 7.8125 69.390625 
Q 13.765625 71.78125 18.9375 73 
Q 24.125 74.21875 28.421875 74.21875 
Q 39.75 74.21875 46.484375 68.546875 
Q 53.21875 62.890625 53.21875 53.421875 
Q 53.21875 48.921875 51.53125 44.890625 
Q 49.859375 40.875 45.40625 35.40625 
Q 44.1875 33.984375 37.640625 27.21875 
Q 31.109375 20.453125 19.1875 8.296875 
z
" id="DejaVuSans-50"/>
       </defs>
       <use xlink:href="#DejaVuSans-50"/>
      </g>
     </g>
    </g>
    <g id="xtick_3">
     <g id="line2d_3">
      <g>
       <use style="stroke:#000000;stroke-width:0.8;" x="239.150682" xlink:href="#m2a9b5925ea" y="204.872727"/>
      </g>
     </g>
     <g id="text_3">
      <!-- 4 -->
      <g transform="translate(235.333182 220.990852)scale(0.12 -0.12)">
       <defs>
        <path d="M 37.796875 64.3125 
L 12.890625 25.390625 
L 37.796875 25.390625 
z
M 35.203125 72.90625 
L 47.609375 72.90625 
L 47.609375 25.390625 
L 58.015625 25.390625 
L 58.015625 17.1875 
L 47.609375 17.1875 
L 47.609375 0 
L 37.796875 0 
L 37.796875 17.1875 
L 4.890625 17.1875 
L 4.890625 26.703125 
z
" id="DejaVuSans-52"/>
       </defs>
       <use xlink:href="#DejaVuSans-52"/>
      </g>
     </g>
    </g>
    <g id="xtick_4">
     <g id="line2d_4">
      <g>
       <use style="stroke:#000000;stroke-width:0.8;" x="320.314318" xlink:href="#m2a9b5925ea" y="204.872727"/>
      </g>
     </g>
     <g id="text_4">
      <!-- 6 -->
      <g transform="translate(316.496818 220.990852)scale(0.12 -0.12)">
       <defs>
        <path d="M 33.015625 40.375 
Q 26.375 40.375 22.484375 35.828125 
Q 18.609375 31.296875 18.609375 23.390625 
Q 18.609375 15.53125 22.484375 10.953125 
Q 26.375 6.390625 33.015625 6.390625 
Q 39.65625 6.390625 43.53125 10.953125 
Q 47.40625 15.53125 47.40625 23.390625 
Q 47.40625 31.296875 43.53125 35.828125 
Q 39.65625 40.375 33.015625 40.375 
z
M 52.59375 71.296875 
L 52.59375 62.3125 
Q 48.875 64.0625 45.09375 64.984375 
Q 41.3125 65.921875 37.59375 65.921875 
Q 27.828125 65.921875 22.671875 59.328125 
Q 17.53125 52.734375 16.796875 39.40625 
Q 19.671875 43.65625 24.015625 45.921875 
Q 28.375 48.1875 33.59375 48.1875 
Q 44.578125 48.1875 50.953125 41.515625 
Q 57.328125 34.859375 57.328125 23.390625 
Q 57.328125 12.15625 50.6875 5.359375 
Q 44.046875 -1.421875 33.015625 -1.421875 
Q 20.359375 -1.421875 13.671875 8.265625 
Q 6.984375 17.96875 6.984375 36.375 
Q 6.984375 53.65625 15.1875 63.9375 
Q 23.390625 74.21875 37.203125 74.21875 
Q 40.921875 74.21875 44.703125 73.484375 
Q 48.484375 72.75 52.59375 71.296875 
z
" id="DejaVuSans-54"/>
       </defs>
       <use xlink:href="#DejaVuSans-54"/>
      </g>
     </g>
    </g>
    <g id="xtick_5">
     <g id="line2d_5">
      <g>
       <use style="stroke:#000000;stroke-width:0.8;" x="401.477955" xlink:href="#m2a9b5925ea" y="204.872727"/>
      </g>
     </g>
     <g id="text_5">
      <!-- 8 -->
      <g transform="translate(397.660455 220.990852)scale(0.12 -0.12)">
       <defs>
        <path d="M 31.78125 34.625 
Q 24.75 34.625 20.71875 30.859375 
Q 16.703125 27.09375 16.703125 20.515625 
Q 16.703125 13.921875 20.71875 10.15625 
Q 24.75 6.390625 31.78125 6.390625 
Q 38.8125 6.390625 42.859375 10.171875 
Q 46.921875 13.96875 46.921875 20.515625 
Q 46.921875 27.09375 42.890625 30.859375 
Q 38.875 34.625 31.78125 34.625 
z
M 21.921875 38.8125 
Q 15.578125 40.375 12.03125 44.71875 
Q 8.5 49.078125 8.5 55.328125 
Q 8.5 64.0625 14.71875 69.140625 
Q 20.953125 74.21875 31.78125 74.21875 
Q 42.671875 74.21875 48.875 69.140625 
Q 55.078125 64.0625 55.078125 55.328125 
Q 55.078125 49.078125 51.53125 44.71875 
Q 48 40.375 41.703125 38.8125 
Q 48.828125 37.15625 52.796875 32.3125 
Q 56.78125 27.484375 56.78125 20.515625 
Q 56.78125 9.90625 50.3125 4.234375 
Q 43.84375 -1.421875 31.78125 -1.421875 
Q 19.734375 -1.421875 13.25 4.234375 
Q 6.78125 9.90625 6.78125 20.515625 
Q 6.78125 27.484375 10.78125 32.3125 
Q 14.796875 37.15625 21.921875 38.8125 
z
M 18.3125 54.390625 
Q 18.3125 48.734375 21.84375 45.5625 
Q 25.390625 42.390625 31.78125 42.390625 
Q 38.140625 42.390625 41.71875 45.5625 
Q 45.3125 48.734375 45.3125 54.390625 
Q 45.3125 60.0625 41.71875 63.234375 
Q 38.140625 66.40625 31.78125 66.40625 
Q 25.390625 66.40625 21.84375 63.234375 
Q 18.3125 60.0625 18.3125 54.390625 
z
" id="DejaVuSans-56"/>
       </defs>
       <use xlink:href="#DejaVuSans-56"/>
      </g>
     </g>
    </g>
    <g id="xtick_6">
     <g id="line2d_6">
      <g>
       <use style="stroke:#000000;stroke-width:0.8;" x="482.641591" xlink:href="#m2a9b5925ea" y="204.872727"/>
      </g>
     </g>
     <g id="text_6">
      <!-- 10 -->
      <g transform="translate(475.006591 220.990852)scale(0.12 -0.12)">
       <defs>
        <path d="M 12.40625 8.296875 
L 28.515625 8.296875 
L 28.515625 63.921875 
L 10.984375 60.40625 
L 10.984375 69.390625 
L 28.421875 72.90625 
L 38.28125 72.90625 
L 38.28125 8.296875 
L 54.390625 8.296875 
L 54.390625 0 
L 12.40625 0 
z
" id="DejaVuSans-49"/>
       </defs>
       <use xlink:href="#DejaVuSans-49"/>
       <use x="63.623047" xlink:href="#DejaVuSans-48"/>
      </g>
     </g>
    </g>
   </g>
   <g id="matplotlib.axis_2">
    <g id="ytick_1">
     <g id="line2d_7">
      <defs>
       <path d="M 0 0 
L -3.5 0 
" id="mca22cf339d" style="stroke:#000000;stroke-width:0.8;"/>
      </defs>
      <g>
       <use style="stroke:#000000;stroke-width:0.8;" x="56.5325" xlink:href="#mca22cf339d" y="203.139407"/>
      </g>
     </g>
     <g id="text_7">
      <!-- 60 -->
      <g transform="translate(24.206875 207.698469)scale(0.12 -0.12)">
       <defs>
        <path d="M 10.59375 35.5 
L 73.1875 35.5 
L 73.1875 27.203125 
L 10.59375 27.203125 
z
" id="DejaVuSans-8722"/>
       </defs>
       <use xlink:href="#DejaVuSans-8722"/>
       <use x="83.789062" xlink:href="#DejaVuSans-54"/>
       <use x="147.412109" xlink:href="#DejaVuSans-48"/>
      </g>
     </g>
    </g>
    <g id="ytick_2">
     <g id="line2d_8">
      <g>
       <use style="stroke:#000000;stroke-width:0.8;" x="56.5325" xlink:href="#mca22cf339d" y="174.284792"/>
      </g>
     </g>
     <g id="text_8">
      <!-- 40 -->
      <g transform="translate(24.206875 178.843854)scale(0.12 -0.12)">
       <use xlink:href="#DejaVuSans-8722"/>
       <use x="83.789062" xlink:href="#DejaVuSans-52"/>
       <use x="147.412109" xlink:href="#DejaVuSans-48"/>
      </g>
     </g>
    </g>
    <g id="ytick_3">
     <g id="line2d_9">
      <g>
       <use style="stroke:#000000;stroke-width:0.8;" x="56.5325" xlink:href="#mca22cf339d" y="145.430177"/>
      </g>
     </g>
     <g id="text_9">
      <!-- 20 -->
      <g transform="translate(24.206875 149.989239)scale(0.12 -0.12)">
       <use xlink:href="#DejaVuSans-8722"/>
       <use x="83.789062" xlink:href="#DejaVuSans-50"/>
       <use x="147.412109" xlink:href="#DejaVuSans-48"/>
      </g>
     </g>
    </g>
    <g id="ytick_4">
     <g id="line2d_10">
      <g>
       <use style="stroke:#000000;stroke-width:0.8;" x="56.5325" xlink:href="#mca22cf339d" y="116.575562"/>
      </g>
     </g>
     <g id="text_10">
      <!-- 0 -->
      <g transform="translate(41.8975 121.134625)scale(0.12 -0.12)">
       <use xlink:href="#DejaVuSans-48"/>
      </g>
     </g>
    </g>
    <g id="ytick_5">
     <g id="line2d_11">
      <g>
       <use style="stroke:#000000;stroke-width:0.8;" x="56.5325" xlink:href="#mca22cf339d" y="87.720947"/>
      </g>
     </g>
     <g id="text_11">
      <!-- 20 -->
      <g transform="translate(34.2625 92.28001)scale(0.12 -0.12)">
       <use xlink:href="#DejaVuSans-50"/>
       <use x="63.623047" xlink:href="#DejaVuSans-48"/>
      </g>
     </g>
    </g>
    <g id="ytick_6">
     <g id="line2d_12">
      <g>
       <use style="stroke:#000000;stroke-width:0.8;" x="56.5325" xlink:href="#mca22cf339d" y="58.866332"/>
      </g>
     </g>
     <g id="text_12">
      <!-- 40 -->
      <g transform="translate(34.2625 63.425395)scale(0.12 -0.12)">
       <use xlink:href="#DejaVuSans-52"/>
       <use x="63.623047" xlink:href="#DejaVuSans-48"/>
      </g>
     </g>
    </g>
    <g id="ytick_7">
     <g id="line2d_13">
      <g>
       <use style="stroke:#000000;stroke-width:0.8;" x="56.5325" xlink:href="#mca22cf339d" y="30.011718"/>
      </g>
     </g>
     <g id="text_13">
      <!-- 60 -->
      <g transform="translate(34.2625 34.57078)scale(0.12 -0.12)">
       <use xlink:href="#DejaVuSans-54"/>
       <use x="63.623047" xlink:href="#DejaVuSans-48"/>
      </g>
     </g>
    </g>
    <g id="text_14">
     <!-- f(x) -->
     <g transform="translate(17.71125 116.381676)rotate(-90)scale(0.12 -0.12)">
      <defs>
       <path d="M 37.109375 75.984375 
L 37.109375 68.5 
L 28.515625 68.5 
Q 23.6875 68.5 21.796875 66.546875 
Q 19.921875 64.59375 19.921875 59.515625 
L 19.921875 54.6875 
L 34.71875 54.6875 
L 34.71875 47.703125 
L 19.921875 47.703125 
L 19.921875 0 
L 10.890625 0 
L 10.890625 47.703125 
L 2.296875 47.703125 
L 2.296875 54.6875 
L 10.890625 54.6875 
L 10.890625 58.5 
Q 10.890625 67.625 15.140625 71.796875 
Q 19.390625 75.984375 28.609375 75.984375 
z
" id="DejaVuSans-102"/>
       <path d="M 31 75.875 
Q 24.46875 64.65625 21.28125 53.65625 
Q 18.109375 42.671875 18.109375 31.390625 
Q 18.109375 20.125 21.3125 9.0625 
Q 24.515625 -2 31 -13.1875 
L 23.1875 -13.1875 
Q 15.875 -1.703125 12.234375 9.375 
Q 8.59375 20.453125 8.59375 31.390625 
Q 8.59375 42.28125 12.203125 53.3125 
Q 15.828125 64.359375 23.1875 75.875 
z
" id="DejaVuSans-40"/>
       <path d="M 54.890625 54.6875 
L 35.109375 28.078125 
L 55.90625 0 
L 45.3125 0 
L 29.390625 21.484375 
L 13.484375 0 
L 2.875 0 
L 24.125 28.609375 
L 4.6875 54.6875 
L 15.28125 54.6875 
L 29.78125 35.203125 
L 44.28125 54.6875 
z
" id="DejaVuSans-120"/>
       <path d="M 8.015625 75.875 
L 15.828125 75.875 
Q 23.140625 64.359375 26.78125 53.3125 
Q 30.421875 42.28125 30.421875 31.390625 
Q 30.421875 20.453125 26.78125 9.375 
Q 23.140625 -1.703125 15.828125 -13.1875 
L 8.015625 -13.1875 
Q 14.5 -2 17.703125 9.0625 
Q 20.90625 20.125 20.90625 31.390625 
Q 20.90625 42.671875 17.703125 53.65625 
Q 14.5 64.65625 8.015625 75.875 
z
" id="DejaVuSans-41"/>
      </defs>
      <use xlink:href="#DejaVuSans-102"/>
      <use x="35.205078" xlink:href="#DejaVuSans-40"/>
      <use x="74.21875" xlink:href="#DejaVuSans-120"/>
      <use x="133.398438" xlink:href="#DejaVuSans-41"/>
     </g>
    </g>
   </g>
   <g id="line2d_14">
    <path clip-path="url(#p33aee479c8)" d="M 76.823409 73.29364 
L 81.698102 73.189805 
L 86.979019 72.846584 
L 92.259937 72.27489 
L 97.947078 71.426231 
L 104.040444 70.286776 
L 111.352484 68.679028 
L 123.132991 65.810035 
L 133.288602 63.417718 
L 139.788192 62.103357 
L 145.475334 61.179433 
L 150.350027 60.601625 
L 154.818495 60.275461 
L 159.286964 60.167017 
L 163.755432 60.295255 
L 167.817676 60.63005 
L 171.87992 61.181413 
L 175.942164 61.954666 
L 180.004408 62.951904 
L 184.066652 64.171869 
L 188.128896 65.609885 
L 192.597365 67.433744 
L 197.065833 69.495919 
L 201.940526 71.993112 
L 207.221443 74.952314 
L 213.31481 78.630275 
L 221.439298 83.821899 
L 236.875825 93.749147 
L 242.969191 97.359444 
L 247.843884 99.998603 
L 252.312353 102.168316 
L 256.374597 103.895719 
L 260.030616 105.224309 
L 263.686636 106.316906 
L 266.936431 107.074365 
L 270.186226 107.617869 
L 273.436022 107.936538 
L 276.685817 108.020961 
L 279.935612 107.863307 
L 283.185407 107.457424 
L 286.435203 106.798918 
L 289.684998 105.885233 
L 292.934793 104.715707 
L 296.184588 103.291616 
L 299.434384 101.616213 
L 302.684179 99.694737 
L 305.933974 97.534419 
L 309.589994 94.83011 
L 313.246014 91.851277 
L 317.308258 88.242809 
L 321.776726 83.945761 
L 326.651419 78.919639 
L 331.932336 73.15302 
L 338.838151 65.263919 
L 357.118249 44.193411 
L 362.399167 38.548977 
L 366.867635 34.088557 
L 370.929879 30.34558 
L 374.585899 27.272835 
L 377.835694 24.805364 
L 381.085489 22.609595 
L 383.92906 20.927647 
L 386.772631 19.482705 
L 389.616202 18.286664 
L 392.459773 17.350271 
L 394.897119 16.761559 
L 397.334466 16.37587 
L 399.771812 16.197717 
L 402.209158 16.230858 
L 404.646505 16.478267 
L 407.083851 16.942118 
L 409.521198 17.623761 
L 411.958544 18.523709 
L 414.395891 19.641622 
L 416.833237 20.976303 
L 419.676808 22.804601 
L 422.520379 24.920329 
L 425.36395 27.317112 
L 428.20752 29.986981 
L 431.457316 33.360339 
L 434.707111 37.061156 
L 438.363131 41.591908 
L 442.01915 46.481503 
L 446.081394 52.292708 
L 450.549863 59.083622 
L 455.83078 67.544575 
L 462.330371 78.409252 
L 481.016693 109.935795 
L 482.641591 112.537439 
L 482.641591 112.537439 
" style="fill:none;stroke:#000000;stroke-linecap:square;stroke-width:1.5;"/>
   </g>
   <g id="line2d_15">
    <path clip-path="url(#p33aee479c8)" d="M 76.823409 61.529673 
L 482.641591 157.649236 
L 482.641591 157.649236 
" style="fill:none;stroke:#1f77b4;stroke-linecap:square;stroke-width:1.5;"/>
   </g>
   <g id="patch_3">
    <path d="M 56.5325 204.872727 
L 56.5325 7.2 
" style="fill:none;stroke:#000000;stroke-linecap:square;stroke-linejoin:miter;stroke-width:0.8;"/>
   </g>
   <g id="patch_4">
    <path d="M 502.9325 204.872727 
L 502.9325 7.2 
" style="fill:none;stroke:#000000;stroke-linecap:square;stroke-linejoin:miter;stroke-width:0.8;"/>
   </g>
   <g id="patch_5">
    <path d="M 56.5325 204.872727 
L 502.9325 204.872727 
" style="fill:none;stroke:#000000;stroke-linecap:square;stroke-linejoin:miter;stroke-width:0.8;"/>
   </g>
   <g id="patch_6">
    <path d="M 56.5325 7.2 
L 502.9325 7.2 
" style="fill:none;stroke:#000000;stroke-linecap:square;stroke-linejoin:miter;stroke-width:0.8;"/>
   </g>
   <g id="legend_1">
    <g id="patch_7">
     <path d="M 64.9325 198.872727 
L 142.6475 198.872727 
Q 145.0475 198.872727 145.0475 196.472727 
L 145.0475 144.831477 
Q 145.0475 142.431477 142.6475 142.431477 
L 64.9325 142.431477 
Q 62.5325 142.431477 62.5325 144.831477 
L 62.5325 196.472727 
Q 62.5325 198.872727 64.9325 198.872727 
z
" style="fill:#ffffff;opacity:0.8;stroke:#cccccc;stroke-linejoin:miter;"/>
    </g>
    <g id="line2d_16">
     <path d="M 67.3325 152.149602 
L 91.3325 152.149602 
" style="fill:none;stroke:#1f77b4;stroke-linecap:square;stroke-width:1.5;"/>
    </g>
    <g id="line2d_17"/>
    <g id="text_15">
     <!-- GP -->
     <g transform="translate(100.9325 156.349602)scale(0.12 -0.12)">
      <defs>
       <path d="M 59.515625 10.40625 
L 59.515625 29.984375 
L 43.40625 29.984375 
L 43.40625 38.09375 
L 69.28125 38.09375 
L 69.28125 6.78125 
Q 63.578125 2.734375 56.6875 0.65625 
Q 49.8125 -1.421875 42 -1.421875 
Q 24.90625 -1.421875 15.25 8.5625 
Q 5.609375 18.5625 5.609375 36.375 
Q 5.609375 54.25 15.25 64.234375 
Q 24.90625 74.21875 42 74.21875 
Q 49.125 74.21875 55.546875 72.453125 
Q 61.96875 70.703125 67.390625 67.28125 
L 67.390625 56.78125 
Q 61.921875 61.421875 55.765625 63.765625 
Q 49.609375 66.109375 42.828125 66.109375 
Q 29.4375 66.109375 22.71875 58.640625 
Q 16.015625 51.171875 16.015625 36.375 
Q 16.015625 21.625 22.71875 14.15625 
Q 29.4375 6.6875 42.828125 6.6875 
Q 48.046875 6.6875 52.140625 7.59375 
Q 56.25 8.5 59.515625 10.40625 
z
" id="DejaVuSans-71"/>
       <path d="M 19.671875 64.796875 
L 19.671875 37.40625 
L 32.078125 37.40625 
Q 38.96875 37.40625 42.71875 40.96875 
Q 46.484375 44.53125 46.484375 51.125 
Q 46.484375 57.671875 42.71875 61.234375 
Q 38.96875 64.796875 32.078125 64.796875 
z
M 9.8125 72.90625 
L 32.078125 72.90625 
Q 44.34375 72.90625 50.609375 67.359375 
Q 56.890625 61.8125 56.890625 51.125 
Q 56.890625 40.328125 50.609375 34.8125 
Q 44.34375 29.296875 32.078125 29.296875 
L 19.671875 29.296875 
L 19.671875 0 
L 9.8125 0 
z
" id="DejaVuSans-80"/>
      </defs>
      <use xlink:href="#DejaVuSans-71"/>
      <use x="77.490234" xlink:href="#DejaVuSans-80"/>
     </g>
    </g>
    <g id="PathCollection_3">
     <g>
      <use style="stroke:#000000;" x="79.3325" xlink:href="#m88c7ad75dd" y="170.813352"/>
     </g>
    </g>
    <g id="text_16">
     <!-- known -->
     <g transform="translate(100.9325 173.963352)scale(0.12 -0.12)">
      <defs>
       <path d="M 9.078125 75.984375 
L 18.109375 75.984375 
L 18.109375 31.109375 
L 44.921875 54.6875 
L 56.390625 54.6875 
L 27.390625 29.109375 
L 57.625 0 
L 45.90625 0 
L 18.109375 26.703125 
L 18.109375 0 
L 9.078125 0 
z
" id="DejaVuSans-107"/>
       <path d="M 54.890625 33.015625 
L 54.890625 0 
L 45.90625 0 
L 45.90625 32.71875 
Q 45.90625 40.484375 42.875 44.328125 
Q 39.84375 48.1875 33.796875 48.1875 
Q 26.515625 48.1875 22.3125 43.546875 
Q 18.109375 38.921875 18.109375 30.90625 
L 18.109375 0 
L 9.078125 0 
L 9.078125 54.6875 
L 18.109375 54.6875 
L 18.109375 46.1875 
Q 21.34375 51.125 25.703125 53.5625 
Q 30.078125 56 35.796875 56 
Q 45.21875 56 50.046875 50.171875 
Q 54.890625 44.34375 54.890625 33.015625 
z
" id="DejaVuSans-110"/>
       <path d="M 30.609375 48.390625 
Q 23.390625 48.390625 19.1875 42.75 
Q 14.984375 37.109375 14.984375 27.296875 
Q 14.984375 17.484375 19.15625 11.84375 
Q 23.34375 6.203125 30.609375 6.203125 
Q 37.796875 6.203125 41.984375 11.859375 
Q 46.1875 17.53125 46.1875 27.296875 
Q 46.1875 37.015625 41.984375 42.703125 
Q 37.796875 48.390625 30.609375 48.390625 
z
M 30.609375 56 
Q 42.328125 56 49.015625 48.375 
Q 55.71875 40.765625 55.71875 27.296875 
Q 55.71875 13.875 49.015625 6.21875 
Q 42.328125 -1.421875 30.609375 -1.421875 
Q 18.84375 -1.421875 12.171875 6.21875 
Q 5.515625 13.875 5.515625 27.296875 
Q 5.515625 40.765625 12.171875 48.375 
Q 18.84375 56 30.609375 56 
z
" id="DejaVuSans-111"/>
       <path d="M 4.203125 54.6875 
L 13.1875 54.6875 
L 24.421875 12.015625 
L 35.59375 54.6875 
L 46.1875 54.6875 
L 57.421875 12.015625 
L 68.609375 54.6875 
L 77.59375 54.6875 
L 63.28125 0 
L 52.6875 0 
L 40.921875 44.828125 
L 29.109375 0 
L 18.5 0 
z
" id="DejaVuSans-119"/>
      </defs>
      <use xlink:href="#DejaVuSans-107"/>
      <use x="57.910156" xlink:href="#DejaVuSans-110"/>
      <use x="121.289062" xlink:href="#DejaVuSans-111"/>
      <use x="182.470703" xlink:href="#DejaVuSans-119"/>
      <use x="264.257812" xlink:href="#DejaVuSans-110"/>
     </g>
    </g>
    <g id="PathCollection_4">
     <g>
      <use style="fill:#ff0000;stroke:#ff0000;" x="79.3325" xlink:href="#m0eac22e5b9" y="188.427102"/>
     </g>
    </g>
    <g id="text_17">
     <!-- next -->
     <g transform="translate(100.9325 191.577102)scale(0.12 -0.12)">
      <defs>
       <path d="M 56.203125 29.59375 
L 56.203125 25.203125 
L 14.890625 25.203125 
Q 15.484375 15.921875 20.484375 11.0625 
Q 25.484375 6.203125 34.421875 6.203125 
Q 39.59375 6.203125 44.453125 7.46875 
Q 49.3125 8.734375 54.109375 11.28125 
L 54.109375 2.78125 
Q 49.265625 0.734375 44.1875 -0.34375 
Q 39.109375 -1.421875 33.890625 -1.421875 
Q 20.796875 -1.421875 13.15625 6.1875 
Q 5.515625 13.8125 5.515625 26.8125 
Q 5.515625 40.234375 12.765625 48.109375 
Q 20.015625 56 32.328125 56 
Q 43.359375 56 49.78125 48.890625 
Q 56.203125 41.796875 56.203125 29.59375 
z
M 47.21875 32.234375 
Q 47.125 39.59375 43.09375 43.984375 
Q 39.0625 48.390625 32.421875 48.390625 
Q 24.90625 48.390625 20.390625 44.140625 
Q 15.875 39.890625 15.1875 32.171875 
z
" id="DejaVuSans-101"/>
       <path d="M 18.3125 70.21875 
L 18.3125 54.6875 
L 36.8125 54.6875 
L 36.8125 47.703125 
L 18.3125 47.703125 
L 18.3125 18.015625 
Q 18.3125 11.328125 20.140625 9.421875 
Q 21.96875 7.515625 27.59375 7.515625 
L 36.8125 7.515625 
L 36.8125 0 
L 27.59375 0 
Q 17.1875 0 13.234375 3.875 
Q 9.28125 7.765625 9.28125 18.015625 
L 9.28125 47.703125 
L 2.6875 47.703125 
L 2.6875 54.6875 
L 9.28125 54.6875 
L 9.28125 70.21875 
z
" id="DejaVuSans-116"/>
      </defs>
      <use xlink:href="#DejaVuSans-110"/>
      <use x="63.378906" xlink:href="#DejaVuSans-101"/>
      <use x="123.152344" xlink:href="#DejaVuSans-120"/>
      <use x="182.332031" xlink:href="#DejaVuSans-116"/>
     </g>
    </g>
   </g>
  </g>
  <g id="axes_2">
   <g id="patch_8">
    <path d="M 56.5325 442.08 
L 502.9325 442.08 
L 502.9325 244.407273 
L 56.5325 244.407273 
z
" style="fill:#ffffff;"/>
   </g>
   <g id="matplotlib.axis_3">
    <g id="xtick_7">
     <g id="line2d_18">
      <g>
       <use style="stroke:#000000;stroke-width:0.8;" x="76.823409" xlink:href="#m2a9b5925ea" y="442.08"/>
      </g>
     </g>
     <g id="text_18">
      <!-- 0.0 -->
      <g transform="translate(67.281534 458.198125)scale(0.12 -0.12)">
       <defs>
        <path d="M 10.6875 12.40625 
L 21 12.40625 
L 21 0 
L 10.6875 0 
z
" id="DejaVuSans-46"/>
       </defs>
       <use xlink:href="#DejaVuSans-48"/>
       <use x="63.623047" xlink:href="#DejaVuSans-46"/>
       <use x="95.410156" xlink:href="#DejaVuSans-48"/>
      </g>
     </g>
    </g>
    <g id="xtick_8">
     <g id="line2d_19">
      <g>
       <use style="stroke:#000000;stroke-width:0.8;" x="157.987045" xlink:href="#m2a9b5925ea" y="442.08"/>
      </g>
     </g>
     <g id="text_19">
      <!-- 0.2 -->
      <g transform="translate(148.44517 458.198125)scale(0.12 -0.12)">
       <use xlink:href="#DejaVuSans-48"/>
       <use x="63.623047" xlink:href="#DejaVuSans-46"/>
       <use x="95.410156" xlink:href="#DejaVuSans-50"/>
      </g>
     </g>
    </g>
    <g id="xtick_9">
     <g id="line2d_20">
      <g>
       <use style="stroke:#000000;stroke-width:0.8;" x="239.150682" xlink:href="#m2a9b5925ea" y="442.08"/>
      </g>
     </g>
     <g id="text_20">
      <!-- 0.4 -->
      <g transform="translate(229.608807 458.198125)scale(0.12 -0.12)">
       <use xlink:href="#DejaVuSans-48"/>
       <use x="63.623047" xlink:href="#DejaVuSans-46"/>
       <use x="95.410156" xlink:href="#DejaVuSans-52"/>
      </g>
     </g>
    </g>
    <g id="xtick_10">
     <g id="line2d_21">
      <g>
       <use style="stroke:#000000;stroke-width:0.8;" x="320.314318" xlink:href="#m2a9b5925ea" y="442.08"/>
      </g>
     </g>
     <g id="text_21">
      <!-- 0.6 -->
      <g transform="translate(310.772443 458.198125)scale(0.12 -0.12)">
       <use xlink:href="#DejaVuSans-48"/>
       <use x="63.623047" xlink:href="#DejaVuSans-46"/>
       <use x="95.410156" xlink:href="#DejaVuSans-54"/>
      </g>
     </g>
    </g>
    <g id="xtick_11">
     <g id="line2d_22">
      <g>
       <use style="stroke:#000000;stroke-width:0.8;" x="401.477955" xlink:href="#m2a9b5925ea" y="442.08"/>
      </g>
     </g>
     <g id="text_22">
      <!-- 0.8 -->
      <g transform="translate(391.93608 458.198125)scale(0.12 -0.12)">
       <use xlink:href="#DejaVuSans-48"/>
       <use x="63.623047" xlink:href="#DejaVuSans-46"/>
       <use x="95.410156" xlink:href="#DejaVuSans-56"/>
      </g>
     </g>
    </g>
    <g id="xtick_12">
     <g id="line2d_23">
      <g>
       <use style="stroke:#000000;stroke-width:0.8;" x="482.641591" xlink:href="#m2a9b5925ea" y="442.08"/>
      </g>
     </g>
     <g id="text_23">
      <!-- 1.0 -->
      <g transform="translate(473.099716 458.198125)scale(0.12 -0.12)">
       <use xlink:href="#DejaVuSans-49"/>
       <use x="63.623047" xlink:href="#DejaVuSans-46"/>
       <use x="95.410156" xlink:href="#DejaVuSans-48"/>
      </g>
     </g>
    </g>
    <g id="text_24">
     <!-- x -->
     <g transform="translate(276.18125 473.811875)scale(0.12 -0.12)">
      <use xlink:href="#DejaVuSans-120"/>
     </g>
    </g>
   </g>
   <g id="matplotlib.axis_4">
    <g id="ytick_8">
     <g id="line2d_24">
      <g>
       <use style="stroke:#000000;stroke-width:0.8;" x="56.5325" xlink:href="#mca22cf339d" y="433.094876"/>
      </g>
     </g>
     <g id="text_25">
      <!-- 0.00 -->
      <g transform="translate(22.81375 437.653939)scale(0.12 -0.12)">
       <use xlink:href="#DejaVuSans-48"/>
       <use x="63.623047" xlink:href="#DejaVuSans-46"/>
       <use x="95.410156" xlink:href="#DejaVuSans-48"/>
       <use x="159.033203" xlink:href="#DejaVuSans-48"/>
      </g>
     </g>
    </g>
    <g id="ytick_9">
     <g id="line2d_25">
      <g>
       <use style="stroke:#000000;stroke-width:0.8;" x="56.5325" xlink:href="#mca22cf339d" y="389.35906"/>
      </g>
     </g>
     <g id="text_26">
      <!-- 0.05 -->
      <g transform="translate(22.81375 393.918123)scale(0.12 -0.12)">
       <defs>
        <path d="M 10.796875 72.90625 
L 49.515625 72.90625 
L 49.515625 64.59375 
L 19.828125 64.59375 
L 19.828125 46.734375 
Q 21.96875 47.46875 24.109375 47.828125 
Q 26.265625 48.1875 28.421875 48.1875 
Q 40.625 48.1875 47.75 41.5 
Q 54.890625 34.8125 54.890625 23.390625 
Q 54.890625 11.625 47.5625 5.09375 
Q 40.234375 -1.421875 26.90625 -1.421875 
Q 22.3125 -1.421875 17.546875 -0.640625 
Q 12.796875 0.140625 7.71875 1.703125 
L 7.71875 11.625 
Q 12.109375 9.234375 16.796875 8.0625 
Q 21.484375 6.890625 26.703125 6.890625 
Q 35.15625 6.890625 40.078125 11.328125 
Q 45.015625 15.765625 45.015625 23.390625 
Q 45.015625 31 40.078125 35.4375 
Q 35.15625 39.890625 26.703125 39.890625 
Q 22.75 39.890625 18.8125 39.015625 
Q 14.890625 38.140625 10.796875 36.28125 
z
" id="DejaVuSans-53"/>
       </defs>
       <use xlink:href="#DejaVuSans-48"/>
       <use x="63.623047" xlink:href="#DejaVuSans-46"/>
       <use x="95.410156" xlink:href="#DejaVuSans-48"/>
       <use x="159.033203" xlink:href="#DejaVuSans-53"/>
      </g>
     </g>
    </g>
    <g id="ytick_10">
     <g id="line2d_26">
      <g>
       <use style="stroke:#000000;stroke-width:0.8;" x="56.5325" xlink:href="#mca22cf339d" y="345.623244"/>
      </g>
     </g>
     <g id="text_27">
      <!-- 0.10 -->
      <g transform="translate(22.81375 350.182307)scale(0.12 -0.12)">
       <use xlink:href="#DejaVuSans-48"/>
       <use x="63.623047" xlink:href="#DejaVuSans-46"/>
       <use x="95.410156" xlink:href="#DejaVuSans-49"/>
       <use x="159.033203" xlink:href="#DejaVuSans-48"/>
      </g>
     </g>
    </g>
    <g id="ytick_11">
     <g id="line2d_27">
      <g>
       <use style="stroke:#000000;stroke-width:0.8;" x="56.5325" xlink:href="#mca22cf339d" y="301.887429"/>
      </g>
     </g>
     <g id="text_28">
      <!-- 0.15 -->
      <g transform="translate(22.81375 306.446491)scale(0.12 -0.12)">
       <use xlink:href="#DejaVuSans-48"/>
       <use x="63.623047" xlink:href="#DejaVuSans-46"/>
       <use x="95.410156" xlink:href="#DejaVuSans-49"/>
       <use x="159.033203" xlink:href="#DejaVuSans-53"/>
      </g>
     </g>
    </g>
    <g id="ytick_12">
     <g id="line2d_28">
      <g>
       <use style="stroke:#000000;stroke-width:0.8;" x="56.5325" xlink:href="#mca22cf339d" y="258.151613"/>
      </g>
     </g>
     <g id="text_29">
      <!-- 0.20 -->
      <g transform="translate(22.81375 262.710675)scale(0.12 -0.12)">
       <use xlink:href="#DejaVuSans-48"/>
       <use x="63.623047" xlink:href="#DejaVuSans-46"/>
       <use x="95.410156" xlink:href="#DejaVuSans-50"/>
       <use x="159.033203" xlink:href="#DejaVuSans-48"/>
      </g>
     </g>
    </g>
    <g id="text_30">
     <!-- Acquisition Function -->
     <g transform="translate(16.318125 403.530511)rotate(-90)scale(0.12 -0.12)">
      <defs>
       <path d="M 34.1875 63.1875 
L 20.796875 26.90625 
L 47.609375 26.90625 
z
M 28.609375 72.90625 
L 39.796875 72.90625 
L 67.578125 0 
L 57.328125 0 
L 50.6875 18.703125 
L 17.828125 18.703125 
L 11.1875 0 
L 0.78125 0 
z
" id="DejaVuSans-65"/>
       <path d="M 48.78125 52.59375 
L 48.78125 44.1875 
Q 44.96875 46.296875 41.140625 47.34375 
Q 37.3125 48.390625 33.40625 48.390625 
Q 24.65625 48.390625 19.8125 42.84375 
Q 14.984375 37.3125 14.984375 27.296875 
Q 14.984375 17.28125 19.8125 11.734375 
Q 24.65625 6.203125 33.40625 6.203125 
Q 37.3125 6.203125 41.140625 7.25 
Q 44.96875 8.296875 48.78125 10.40625 
L 48.78125 2.09375 
Q 45.015625 0.34375 40.984375 -0.53125 
Q 36.96875 -1.421875 32.421875 -1.421875 
Q 20.0625 -1.421875 12.78125 6.34375 
Q 5.515625 14.109375 5.515625 27.296875 
Q 5.515625 40.671875 12.859375 48.328125 
Q 20.21875 56 33.015625 56 
Q 37.15625 56 41.109375 55.140625 
Q 45.0625 54.296875 48.78125 52.59375 
z
" id="DejaVuSans-99"/>
       <path d="M 14.796875 27.296875 
Q 14.796875 17.390625 18.875 11.75 
Q 22.953125 6.109375 30.078125 6.109375 
Q 37.203125 6.109375 41.296875 11.75 
Q 45.40625 17.390625 45.40625 27.296875 
Q 45.40625 37.203125 41.296875 42.84375 
Q 37.203125 48.484375 30.078125 48.484375 
Q 22.953125 48.484375 18.875 42.84375 
Q 14.796875 37.203125 14.796875 27.296875 
z
M 45.40625 8.203125 
Q 42.578125 3.328125 38.25 0.953125 
Q 33.9375 -1.421875 27.875 -1.421875 
Q 17.96875 -1.421875 11.734375 6.484375 
Q 5.515625 14.40625 5.515625 27.296875 
Q 5.515625 40.1875 11.734375 48.09375 
Q 17.96875 56 27.875 56 
Q 33.9375 56 38.25 53.625 
Q 42.578125 51.265625 45.40625 46.390625 
L 45.40625 54.6875 
L 54.390625 54.6875 
L 54.390625 -20.796875 
L 45.40625 -20.796875 
z
" id="DejaVuSans-113"/>
       <path d="M 8.5 21.578125 
L 8.5 54.6875 
L 17.484375 54.6875 
L 17.484375 21.921875 
Q 17.484375 14.15625 20.5 10.265625 
Q 23.53125 6.390625 29.59375 6.390625 
Q 36.859375 6.390625 41.078125 11.03125 
Q 45.3125 15.671875 45.3125 23.6875 
L 45.3125 54.6875 
L 54.296875 54.6875 
L 54.296875 0 
L 45.3125 0 
L 45.3125 8.40625 
Q 42.046875 3.421875 37.71875 1 
Q 33.40625 -1.421875 27.6875 -1.421875 
Q 18.265625 -1.421875 13.375 4.4375 
Q 8.5 10.296875 8.5 21.578125 
z
M 31.109375 56 
z
" id="DejaVuSans-117"/>
       <path d="M 9.421875 54.6875 
L 18.40625 54.6875 
L 18.40625 0 
L 9.421875 0 
z
M 9.421875 75.984375 
L 18.40625 75.984375 
L 18.40625 64.59375 
L 9.421875 64.59375 
z
" id="DejaVuSans-105"/>
       <path d="M 44.28125 53.078125 
L 44.28125 44.578125 
Q 40.484375 46.53125 36.375 47.5 
Q 32.28125 48.484375 27.875 48.484375 
Q 21.1875 48.484375 17.84375 46.4375 
Q 14.5 44.390625 14.5 40.28125 
Q 14.5 37.15625 16.890625 35.375 
Q 19.28125 33.59375 26.515625 31.984375 
L 29.59375 31.296875 
Q 39.15625 29.25 43.1875 25.515625 
Q 47.21875 21.78125 47.21875 15.09375 
Q 47.21875 7.46875 41.1875 3.015625 
Q 35.15625 -1.421875 24.609375 -1.421875 
Q 20.21875 -1.421875 15.453125 -0.5625 
Q 10.6875 0.296875 5.421875 2 
L 5.421875 11.28125 
Q 10.40625 8.6875 15.234375 7.390625 
Q 20.0625 6.109375 24.8125 6.109375 
Q 31.15625 6.109375 34.5625 8.28125 
Q 37.984375 10.453125 37.984375 14.40625 
Q 37.984375 18.0625 35.515625 20.015625 
Q 33.0625 21.96875 24.703125 23.78125 
L 21.578125 24.515625 
Q 13.234375 26.265625 9.515625 29.90625 
Q 5.8125 33.546875 5.8125 39.890625 
Q 5.8125 47.609375 11.28125 51.796875 
Q 16.75 56 26.8125 56 
Q 31.78125 56 36.171875 55.265625 
Q 40.578125 54.546875 44.28125 53.078125 
z
" id="DejaVuSans-115"/>
       <path id="DejaVuSans-32"/>
       <path d="M 9.8125 72.90625 
L 51.703125 72.90625 
L 51.703125 64.59375 
L 19.671875 64.59375 
L 19.671875 43.109375 
L 48.578125 43.109375 
L 48.578125 34.8125 
L 19.671875 34.8125 
L 19.671875 0 
L 9.8125 0 
z
" id="DejaVuSans-70"/>
      </defs>
      <use xlink:href="#DejaVuSans-65"/>
      <use x="66.658203" xlink:href="#DejaVuSans-99"/>
      <use x="121.638672" xlink:href="#DejaVuSans-113"/>
      <use x="185.115234" xlink:href="#DejaVuSans-117"/>
      <use x="248.494141" xlink:href="#DejaVuSans-105"/>
      <use x="276.277344" xlink:href="#DejaVuSans-115"/>
      <use x="328.376953" xlink:href="#DejaVuSans-105"/>
      <use x="356.160156" xlink:href="#DejaVuSans-116"/>
      <use x="395.369141" xlink:href="#DejaVuSans-105"/>
      <use x="423.152344" xlink:href="#DejaVuSans-111"/>
      <use x="484.333984" xlink:href="#DejaVuSans-110"/>
      <use x="547.712891" xlink:href="#DejaVuSans-32"/>
      <use x="579.5" xlink:href="#DejaVuSans-70"/>
      <use x="631.519531" xlink:href="#DejaVuSans-117"/>
      <use x="694.898438" xlink:href="#DejaVuSans-110"/>
      <use x="758.277344" xlink:href="#DejaVuSans-99"/>
      <use x="813.257812" xlink:href="#DejaVuSans-116"/>
      <use x="852.466797" xlink:href="#DejaVuSans-105"/>
      <use x="880.25" xlink:href="#DejaVuSans-111"/>
      <use x="941.431641" xlink:href="#DejaVuSans-110"/>
     </g>
    </g>
   </g>
   <g id="line2d_29">
    <path clip-path="url(#pe082de7ccd)" d="M 76.823409 253.392397 
L 80.073204 275.803336 
L 82.916775 293.996578 
L 85.760346 310.826231 
L 88.603917 326.272291 
L 91.041263 338.409944 
L 93.47861 349.54223 
L 95.915956 359.690895 
L 98.353303 368.887071 
L 100.790649 377.1702 
L 103.227995 384.586691 
L 105.665342 391.188501 
L 107.696464 396.107975 
L 109.727586 400.53433 
L 111.758708 404.50202 
L 113.78983 408.045593 
L 115.820952 411.199249 
L 117.852074 413.996381 
L 119.883196 416.469252 
L 121.914318 418.648694 
L 124.351665 420.917647 
L 126.789011 422.852944 
L 129.226357 424.497564 
L 131.663704 425.890428 
L 134.507275 427.243567 
L 137.350846 428.350075 
L 140.600641 429.366197 
L 144.256661 430.254919 
L 148.318905 430.997329 
L 152.787373 431.591061 
L 158.474515 432.107548 
L 165.38033 432.498234 
L 174.723491 432.787432 
L 188.941345 432.976574 
L 216.15838 433.071169 
L 323.401624 433.094327 
L 482.641591 433.094792 
L 482.641591 433.094792 
" style="fill:none;stroke:#1f77b4;stroke-linecap:square;stroke-width:1.5;"/>
   </g>
   <g id="line2d_30">
    <path clip-path="url(#pe082de7ccd)" d="M 76.823409 265.962305 
L 80.073204 289.988233 
L 82.916775 309.356627 
L 85.760346 327.100452 
L 88.197692 340.980903 
L 90.635039 353.624082 
L 93.072385 365.038534 
L 95.509732 375.250436 
L 97.540854 382.871984 
L 99.571976 389.720081 
L 101.603098 395.833058 
L 103.63422 401.254093 
L 105.665342 406.030042 
L 107.696464 410.210198 
L 109.727586 413.845168 
L 111.758708 416.985757 
L 113.78983 419.681982 
L 115.820952 421.982258 
L 117.852074 423.932683 
L 119.883196 425.576528 
L 121.914318 426.953851 
L 124.351665 428.306126 
L 126.789011 429.38367 
L 129.226357 430.235717 
L 132.069928 431.000755 
L 135.319724 431.640628 
L 138.975743 432.139852 
L 143.444212 432.531167 
L 149.537578 432.825622 
L 158.474515 433.006616 
L 175.53594 433.08492 
L 272.623573 433.094876 
L 482.641591 433.094876 
L 482.641591 433.094876 
" style="fill:none;stroke:#ff7f0e;stroke-linecap:square;stroke-width:1.5;"/>
   </g>
   <g id="line2d_31">
    <path clip-path="url(#pe082de7ccd)" d="M 76.823409 274.022737 
L 79.66698 296.16203 
L 82.510551 316.594987 
L 84.947897 332.65674 
L 87.385244 347.32098 
L 89.82259 360.560311 
L 91.853712 370.503602 
L 93.884834 379.470939 
L 95.915956 387.488992 
L 97.947078 394.595745 
L 99.9782 400.838998 
L 102.009322 406.274518 
L 104.040444 410.964048 
L 105.665342 414.222606 
L 107.29024 417.080278 
L 108.915137 419.571786 
L 110.540035 421.731426 
L 112.164932 423.592565 
L 114.196054 425.547875 
L 116.227176 427.145521 
L 118.258299 428.439464 
L 120.289421 429.478375 
L 122.726767 430.44883 
L 125.164113 431.178187 
L 128.007684 431.795226 
L 131.25748 432.274105 
L 135.319724 432.642948 
L 141.006865 432.906255 
L 149.537578 433.04763 
L 169.848798 433.093523 
L 482.641591 433.094876 
L 482.641591 433.094876 
" style="fill:none;stroke:#2ca02c;stroke-linecap:square;stroke-width:1.5;"/>
   </g>
   <g id="patch_9">
    <path d="M 56.5325 442.08 
L 56.5325 244.407273 
" style="fill:none;stroke:#000000;stroke-linecap:square;stroke-linejoin:miter;stroke-width:0.8;"/>
   </g>
   <g id="patch_10">
    <path d="M 502.9325 442.08 
L 502.9325 244.407273 
" style="fill:none;stroke:#000000;stroke-linecap:square;stroke-linejoin:miter;stroke-width:0.8;"/>
   </g>
   <g id="patch_11">
    <path d="M 56.5325 442.08 
L 502.9325 442.08 
" style="fill:none;stroke:#000000;stroke-linecap:square;stroke-linejoin:miter;stroke-width:0.8;"/>
   </g>
   <g id="patch_12">
    <path d="M 56.5325 244.407273 
L 502.9325 244.407273 
" style="fill:none;stroke:#000000;stroke-linecap:square;stroke-linejoin:miter;stroke-width:0.8;"/>
   </g>
  </g>
 </g>
 <defs>
  <clipPath id="p33aee479c8">
   <rect height="197.672727" width="446.4" x="56.5325" y="7.2"/>
  </clipPath>
  <clipPath id="pe082de7ccd">
   <rect height="197.672727" width="446.4" x="56.5325" y="244.407273"/>
  </clipPath>
 </defs>
</svg>
