<?xml version="1.0" encoding="utf-8" standalone="no"?>
<!DOCTYPE svg PUBLIC "-//W3C//DTD SVG 1.1//EN"
  "http://www.w3.org/Graphics/SVG/1.1/DTD/svg11.dtd">
<!-- Created with matplotlib (https://matplotlib.org/) -->
<svg height="483.5075pt" version="1.1" viewBox="0 0 510.1325 483.5075" width="510.1325pt" xmlns="http://www.w3.org/2000/svg" xmlns:xlink="http://www.w3.org/1999/xlink">
 <metadata>
  <rdf:RDF xmlns:cc="http://creativecommons.org/ns#" xmlns:dc="http://purl.org/dc/elements/1.1/" xmlns:rdf="http://www.w3.org/1999/02/22-rdf-syntax-ns#">
   <cc:Work>
    <dc:type rdf:resource="http://purl.org/dc/dcmitype/StillImage"/>
    <dc:date>2020-10-04T13:58:30.099269</dc:date>
    <dc:format>image/svg+xml</dc:format>
    <dc:creator>
     <cc:Agent>
      <dc:title>Matplotlib v3.3.1, https://matplotlib.org/</dc:title>
     </cc:Agent>
    </dc:creator>
   </cc:Work>
  </rdf:RDF>
 </metadata>
 <defs>
  <style type="text/css">*{stroke-linecap:butt;stroke-linejoin:round;}</style>
 </defs>
 <g id="figure_1">
  <g id="patch_1">
   <path d="M 0 483.5075 
L 510.1325 483.5075 
L 510.1325 0 
L 0 0 
z
" style="fill:none;"/>
  </g>
  <g id="axes_1">
   <g id="patch_2">
    <path d="M 56.5325 204.872727 
L 502.9325 204.872727 
L 502.9325 7.2 
L 56.5325 7.2 
z
" style="fill:#ffffff;"/>
   </g>
   <g id="PolyCollection_1">
    <path clip-path="url(#p0636e3b543)" d="M 76.823409 122.421856 
L 76.823409 152.722323 
L 77.229633 152.722323 
L 77.635858 152.722323 
L 78.042082 152.722323 
L 78.448307 152.722323 
L 78.854531 152.722323 
L 79.260756 152.722323 
L 79.66698 152.722323 
L 80.073204 152.722323 
L 80.479429 152.722323 
L 80.885653 152.722323 
L 81.291878 152.722323 
L 81.698102 152.722323 
L 82.104326 152.722323 
L 82.510551 152.722323 
L 82.916775 152.722323 
L 83.323 152.722323 
L 83.729224 152.722323 
L 84.135448 152.722323 
L 84.541673 152.722323 
L 84.947897 152.722323 
L 85.354122 152.722323 
L 85.760346 152.722323 
L 86.16657 152.722323 
L 86.572795 152.722323 
L 86.979019 152.722323 
L 87.385244 152.722323 
L 87.791468 152.722323 
L 88.197692 152.722323 
L 88.603917 152.722323 
L 89.010141 152.722323 
L 89.416366 152.722323 
L 89.82259 152.722323 
L 90.228814 152.722323 
L 90.635039 152.722323 
L 91.041263 152.722323 
L 91.447488 152.722323 
L 91.853712 152.722323 
L 92.259937 152.722323 
L 92.666161 152.722323 
L 93.072385 152.722323 
L 93.47861 152.722323 
L 93.884834 152.722323 
L 94.291059 152.722323 
L 94.697283 152.722323 
L 95.103507 152.722323 
L 95.509732 152.722323 
L 95.915956 152.722323 
L 96.322181 152.722323 
L 96.728405 152.722323 
L 97.134629 152.722323 
L 97.540854 152.722323 
L 97.947078 152.722323 
L 98.353303 152.722323 
L 98.759527 152.722323 
L 99.165751 152.722323 
L 99.571976 152.722323 
L 99.9782 152.722323 
L 100.384425 152.722323 
L 100.790649 152.722323 
L 101.196873 152.722323 
L 101.603098 152.722323 
L 102.009322 152.722323 
L 102.415547 152.722323 
L 102.821771 152.722323 
L 103.227995 152.722323 
L 103.63422 152.722323 
L 104.040444 152.722323 
L 104.446669 152.722323 
L 104.852893 152.722323 
L 105.259118 152.722323 
L 105.665342 152.722323 
L 106.071566 152.722323 
L 106.477791 152.722323 
L 106.884015 152.722323 
L 107.29024 152.722323 
L 107.696464 152.722323 
L 108.102688 152.722323 
L 108.508913 152.722323 
L 108.915137 152.722323 
L 109.321362 152.722323 
L 109.727586 152.722323 
L 110.13381 152.722323 
L 110.540035 152.722323 
L 110.946259 152.722323 
L 111.352484 152.722323 
L 111.758708 152.722323 
L 112.164932 152.722323 
L 112.571157 152.722323 
L 112.977381 152.722323 
L 113.383606 152.722323 
L 113.78983 152.722323 
L 114.196054 152.722323 
L 114.602279 152.722323 
L 115.008503 152.722323 
L 115.414728 152.722323 
L 115.820952 152.722323 
L 116.227176 152.722323 
L 116.633401 152.722323 
L 117.039625 152.722323 
L 117.44585 152.722323 
L 117.852074 152.722323 
L 118.258299 152.722323 
L 118.664523 152.722323 
L 119.070747 152.722323 
L 119.476972 152.722323 
L 119.883196 152.722323 
L 120.289421 152.722323 
L 120.695645 152.722323 
L 121.101869 152.722323 
L 121.508094 152.722323 
L 121.914318 152.722323 
L 122.320543 152.722323 
L 122.726767 152.722323 
L 123.132991 152.722323 
L 123.539216 152.722323 
L 123.94544 152.722323 
L 124.351665 152.722323 
L 124.757889 152.722323 
L 125.164113 152.722323 
L 125.570338 152.722323 
L 125.976562 152.722323 
L 126.382787 152.722323 
L 126.789011 152.722323 
L 127.195235 152.722323 
L 127.60146 152.722323 
L 128.007684 152.722323 
L 128.413909 152.722323 
L 128.820133 152.722323 
L 129.226357 152.722323 
L 129.632582 152.722323 
L 130.038806 152.722323 
L 130.445031 152.722323 
L 130.851255 152.722323 
L 131.25748 152.722323 
L 131.663704 152.722323 
L 132.069928 152.722323 
L 132.476153 152.722323 
L 132.882377 152.722323 
L 133.288602 152.722323 
L 133.694826 152.722323 
L 134.10105 152.722323 
L 134.507275 152.722323 
L 134.913499 152.722323 
L 135.319724 152.722323 
L 135.725948 152.722323 
L 136.132172 152.722323 
L 136.538397 152.722323 
L 136.944621 152.722323 
L 137.350846 152.722323 
L 137.75707 152.722323 
L 138.163294 152.722323 
L 138.569519 152.722323 
L 138.975743 152.722323 
L 139.381968 152.722323 
L 139.788192 152.722323 
L 140.194416 152.722323 
L 140.600641 152.722323 
L 141.006865 152.722323 
L 141.41309 152.722323 
L 141.819314 152.722323 
L 142.225538 152.722323 
L 142.631763 152.722323 
L 143.037987 152.722323 
L 143.444212 152.722323 
L 143.850436 152.722323 
L 144.256661 152.722323 
L 144.662885 152.722323 
L 145.069109 152.722323 
L 145.475334 152.722323 
L 145.881558 152.722323 
L 146.287783 152.722323 
L 146.694007 152.722323 
L 147.100231 152.722323 
L 147.506456 152.722323 
L 147.91268 152.722323 
L 148.318905 152.722323 
L 148.725129 152.722323 
L 149.131353 152.722323 
L 149.537578 152.722323 
L 149.943802 152.722323 
L 150.350027 152.722323 
L 150.756251 152.722323 
L 151.162475 152.722323 
L 151.5687 152.722323 
L 151.974924 152.722323 
L 152.381149 152.722323 
L 152.787373 152.722323 
L 153.193597 152.722323 
L 153.599822 152.722323 
L 154.006046 152.722323 
L 154.412271 152.722323 
L 154.818495 152.722323 
L 155.224719 152.722323 
L 155.630944 152.722323 
L 156.037168 152.722323 
L 156.443393 152.722323 
L 156.849617 152.722323 
L 157.255842 152.722323 
L 157.662066 156.561443 
L 158.06829 156.561443 
L 158.474515 156.561443 
L 158.880739 156.561443 
L 159.286964 156.561443 
L 159.693188 156.561443 
L 160.099412 156.561443 
L 160.505637 156.561443 
L 160.911861 156.561443 
L 161.318086 156.561443 
L 161.72431 156.561443 
L 162.130534 156.561443 
L 162.536759 156.561443 
L 162.942983 156.561443 
L 163.349208 156.561443 
L 163.755432 156.561443 
L 164.161656 156.561443 
L 164.567881 156.561443 
L 164.974105 156.561443 
L 165.38033 156.561443 
L 165.786554 156.561443 
L 166.192778 156.561443 
L 166.599003 156.561443 
L 167.005227 156.561443 
L 167.411452 156.561443 
L 167.817676 156.561443 
L 168.2239 156.561443 
L 168.630125 156.561443 
L 169.036349 156.561443 
L 169.442574 156.561443 
L 169.848798 156.561443 
L 170.255023 156.561443 
L 170.661247 156.561443 
L 171.067471 156.561443 
L 171.473696 156.561443 
L 171.87992 156.561443 
L 172.286145 156.561443 
L 172.692369 156.561443 
L 173.098593 156.561443 
L 173.504818 156.561443 
L 173.911042 156.561443 
L 174.317267 156.561443 
L 174.723491 156.561443 
L 175.129715 156.561443 
L 175.53594 156.561443 
L 175.942164 156.561443 
L 176.348389 173.198011 
L 176.754613 173.198011 
L 177.160837 173.198011 
L 177.567062 173.198011 
L 177.973286 173.198011 
L 178.379511 173.198011 
L 178.785735 173.198011 
L 179.191959 173.198011 
L 179.598184 173.198011 
L 180.004408 173.198011 
L 180.410633 173.198011 
L 180.816857 173.198011 
L 181.223081 173.198011 
L 181.629306 173.198011 
L 182.03553 173.198011 
L 182.441755 173.198011 
L 182.847979 173.198011 
L 183.254204 173.198011 
L 183.660428 173.198011 
L 184.066652 173.198011 
L 184.472877 173.198011 
L 184.879101 173.198011 
L 185.285326 173.198011 
L 185.69155 173.198011 
L 186.097774 173.198011 
L 186.503999 173.198011 
L 186.910223 173.198011 
L 187.316448 173.198011 
L 187.722672 173.198011 
L 188.128896 173.198011 
L 188.535121 173.198011 
L 188.941345 173.198011 
L 189.34757 173.198011 
L 189.753794 173.198011 
L 190.160018 173.198011 
L 190.566243 173.198011 
L 190.972467 173.198011 
L 191.378692 173.198011 
L 191.784916 173.198011 
L 192.19114 173.198011 
L 192.597365 173.198011 
L 193.003589 173.198011 
L 193.409814 173.198011 
L 193.816038 173.198011 
L 194.222262 173.198011 
L 194.628487 173.198011 
L 195.034711 173.198011 
L 195.440936 173.198011 
L 195.84716 173.198011 
L 196.253385 173.198011 
L 196.659609 173.198011 
L 197.065833 173.198011 
L 197.472058 173.198011 
L 197.878282 173.198011 
L 198.284507 173.198011 
L 198.690731 173.198011 
L 199.096955 173.198011 
L 199.50318 173.198011 
L 199.909404 173.198011 
L 200.315629 173.198011 
L 200.721853 173.198011 
L 201.128077 173.198011 
L 201.534302 173.198011 
L 201.940526 173.198011 
L 202.346751 173.198011 
L 202.752975 173.198011 
L 203.159199 173.198011 
L 203.565424 173.198011 
L 203.971648 173.198011 
L 204.377873 173.198011 
L 204.784097 173.198011 
L 205.190321 173.198011 
L 205.596546 173.198011 
L 206.00277 173.198011 
L 206.408995 173.198011 
L 206.815219 173.198011 
L 207.221443 173.198011 
L 207.627668 173.198011 
L 208.033892 173.198011 
L 208.440117 173.198011 
L 208.846341 173.198011 
L 209.252566 173.198011 
L 209.65879 173.198011 
L 210.065014 173.198011 
L 210.471239 173.198011 
L 210.877463 173.198011 
L 211.283688 173.198011 
L 211.689912 173.198011 
L 212.096136 173.198011 
L 212.502361 173.198011 
L 212.908585 173.198011 
L 213.31481 173.198011 
L 213.721034 173.198011 
L 214.127258 173.198011 
L 214.533483 173.198011 
L 214.939707 173.198011 
L 215.345932 173.198011 
L 215.752156 173.198011 
L 216.15838 173.198011 
L 216.564605 173.198011 
L 216.970829 173.198011 
L 217.377054 173.198011 
L 217.783278 173.198011 
L 218.189502 173.198011 
L 218.595727 173.198011 
L 219.001951 173.198011 
L 219.408176 173.198011 
L 219.8144 173.198011 
L 220.220624 173.198011 
L 220.626849 173.198011 
L 221.033073 173.198011 
L 221.439298 173.198011 
L 221.845522 173.198011 
L 222.251747 173.198011 
L 222.657971 173.198011 
L 223.064195 173.198011 
L 223.47042 173.198011 
L 223.876644 173.198011 
L 224.282869 173.198011 
L 224.689093 173.198011 
L 225.095317 173.198011 
L 225.501542 173.198011 
L 225.907766 173.198011 
L 226.313991 173.198011 
L 226.720215 173.198011 
L 227.126439 173.198011 
L 227.532664 173.198011 
L 227.938888 173.198011 
L 228.345113 173.198011 
L 228.751337 173.198011 
L 229.157561 173.198011 
L 229.563786 173.198011 
L 229.97001 173.198011 
L 230.376235 173.198011 
L 230.782459 173.198011 
L 231.188683 173.198011 
L 231.594908 173.198011 
L 232.001132 173.198011 
L 232.407357 173.198011 
L 232.813581 173.198011 
L 233.219805 173.198011 
L 233.62603 173.198011 
L 234.032254 173.198011 
L 234.438479 173.198011 
L 234.844703 173.198011 
L 235.250928 173.198011 
L 235.657152 173.198011 
L 236.063376 173.198011 
L 236.469601 173.198011 
L 236.875825 173.198011 
L 237.28205 173.198011 
L 237.688274 173.198011 
L 238.094498 173.198011 
L 238.500723 173.198011 
L 238.906947 173.198011 
L 239.313172 173.198011 
L 239.719396 173.198011 
L 240.12562 173.198011 
L 240.531845 173.198011 
L 240.938069 173.198011 
L 241.344294 173.198011 
L 241.750518 173.198011 
L 242.156742 173.198011 
L 242.562967 173.198011 
L 242.969191 173.198011 
L 243.375416 173.198011 
L 243.78164 173.198011 
L 244.187864 173.198011 
L 244.594089 173.198011 
L 245.000313 173.198011 
L 245.406538 173.198011 
L 245.812762 173.198011 
L 246.218986 173.198011 
L 246.625211 173.198011 
L 247.031435 188.263251 
L 247.43766 188.263251 
L 247.843884 188.263251 
L 248.250109 188.263251 
L 248.656333 188.263251 
L 249.062557 188.263251 
L 249.468782 188.263251 
L 249.875006 188.263251 
L 250.281231 188.263251 
L 250.687455 188.263251 
L 251.093679 188.263251 
L 251.499904 188.263251 
L 251.906128 188.263251 
L 252.312353 188.263251 
L 252.718577 188.263251 
L 253.124801 188.263251 
L 253.531026 188.263251 
L 253.93725 188.263251 
L 254.343475 188.263251 
L 254.749699 188.263251 
L 255.155923 188.263251 
L 255.562148 188.263251 
L 255.968372 188.263251 
L 256.374597 188.263251 
L 256.780821 188.263251 
L 257.187045 188.263251 
L 257.59327 188.263251 
L 257.999494 188.263251 
L 258.405719 188.263251 
L 258.811943 188.263251 
L 259.218167 188.263251 
L 259.624392 188.263251 
L 260.030616 188.263251 
L 260.436841 188.263251 
L 260.843065 188.263251 
L 261.24929 188.263251 
L 261.655514 188.263251 
L 262.061738 188.263251 
L 262.467963 188.263251 
L 262.874187 188.263251 
L 263.280412 188.263251 
L 263.686636 188.263251 
L 264.09286 188.263251 
L 264.499085 188.263251 
L 264.905309 188.263251 
L 265.311534 188.263251 
L 265.717758 188.263251 
L 266.123982 188.263251 
L 266.530207 188.263251 
L 266.936431 188.263251 
L 267.342656 188.263251 
L 267.74888 188.263251 
L 268.155104 188.263251 
L 268.561329 188.263251 
L 268.967553 188.263251 
L 269.373778 188.263251 
L 269.780002 188.263251 
L 270.186226 188.263251 
L 270.592451 188.263251 
L 270.998675 188.263251 
L 271.4049 188.263251 
L 271.811124 188.263251 
L 272.217348 188.263251 
L 272.623573 188.263251 
L 273.029797 188.263251 
L 273.436022 188.263251 
L 273.842246 188.263251 
L 274.248471 188.263251 
L 274.654695 188.263251 
L 275.060919 188.263251 
L 275.467144 188.263251 
L 275.873368 188.263251 
L 276.279593 188.263251 
L 276.685817 188.263251 
L 277.092041 188.263251 
L 277.498266 188.263251 
L 277.90449 188.263251 
L 278.310715 188.263251 
L 278.716939 188.263251 
L 279.123163 188.263251 
L 279.529388 188.263251 
L 279.935612 188.263251 
L 280.341837 188.263251 
L 280.748061 188.263251 
L 281.154285 188.263251 
L 281.56051 188.263251 
L 281.966734 188.263251 
L 282.372959 188.263251 
L 282.779183 188.263251 
L 283.185407 188.263251 
L 283.591632 188.263251 
L 283.997856 188.263251 
L 284.404081 188.263251 
L 284.810305 188.263251 
L 285.216529 188.263251 
L 285.622754 188.263251 
L 286.028978 188.263251 
L 286.435203 188.263251 
L 286.841427 188.263251 
L 287.247652 188.263251 
L 287.653876 188.263251 
L 288.0601 188.263251 
L 288.466325 188.263251 
L 288.872549 188.263251 
L 289.278774 188.263251 
L 289.684998 188.263251 
L 290.091222 188.263251 
L 290.497447 188.263251 
L 290.903671 188.263251 
L 291.309896 188.263251 
L 291.71612 188.263251 
L 292.122344 188.263251 
L 292.528569 188.263251 
L 292.934793 188.263251 
L 293.341018 188.263251 
L 293.747242 188.263251 
L 294.153466 188.263251 
L 294.559691 188.263251 
L 294.965915 188.263251 
L 295.37214 188.263251 
L 295.778364 188.263251 
L 296.184588 188.263251 
L 296.590813 188.263251 
L 296.997037 188.263251 
L 297.403262 188.263251 
L 297.809486 188.263251 
L 298.21571 188.263251 
L 298.621935 188.263251 
L 299.028159 188.263251 
L 299.434384 188.263251 
L 299.840608 188.263251 
L 300.246833 188.263251 
L 300.653057 188.263251 
L 301.059281 188.263251 
L 301.465506 188.263251 
L 301.87173 188.263251 
L 302.277955 188.263251 
L 302.684179 188.263251 
L 303.090403 188.263251 
L 303.496628 188.263251 
L 303.902852 188.263251 
L 304.309077 188.263251 
L 304.715301 188.263251 
L 305.121525 188.263251 
L 305.52775 188.263251 
L 305.933974 188.263251 
L 306.340199 188.263251 
L 306.746423 188.263251 
L 307.152647 188.263251 
L 307.558872 188.263251 
L 307.965096 188.263251 
L 308.371321 188.263251 
L 308.777545 188.263251 
L 309.183769 188.263251 
L 309.589994 188.263251 
L 309.996218 188.263251 
L 310.402443 188.263251 
L 310.808667 188.263251 
L 311.214891 188.263251 
L 311.621116 188.263251 
L 312.02734 188.263251 
L 312.433565 188.263251 
L 312.839789 188.263251 
L 313.246014 188.263251 
L 313.652238 188.263251 
L 314.058462 188.263251 
L 314.464687 188.263251 
L 314.870911 188.263251 
L 315.277136 188.263251 
L 315.68336 188.263251 
L 316.089584 188.263251 
L 316.495809 188.263251 
L 316.902033 188.263251 
L 317.308258 188.263251 
L 317.714482 188.263251 
L 318.120706 188.263251 
L 318.526931 188.263251 
L 318.933155 188.263251 
L 319.33938 188.263251 
L 319.745604 188.263251 
L 320.151828 188.263251 
L 320.558053 188.263251 
L 320.964277 188.263251 
L 321.370502 188.263251 
L 321.776726 188.263251 
L 322.18295 188.263251 
L 322.589175 188.263251 
L 322.995399 188.263251 
L 323.401624 188.263251 
L 323.807848 188.263251 
L 324.214072 188.263251 
L 324.620297 188.263251 
L 325.026521 188.263251 
L 325.432746 188.263251 
L 325.83897 188.263251 
L 326.245195 188.263251 
L 326.651419 188.263251 
L 327.057643 188.263251 
L 327.463868 188.263251 
L 327.870092 188.263251 
L 328.276317 188.263251 
L 328.682541 188.263251 
L 329.088765 188.263251 
L 329.49499 188.263251 
L 329.901214 188.263251 
L 330.307439 188.263251 
L 330.713663 188.263251 
L 331.119887 188.263251 
L 331.526112 188.263251 
L 331.932336 188.263251 
L 332.338561 188.263251 
L 332.744785 188.263251 
L 333.151009 188.263251 
L 333.557234 188.263251 
L 333.963458 188.263251 
L 334.369683 188.263251 
L 334.775907 188.263251 
L 335.182131 188.263251 
L 335.588356 188.263251 
L 335.99458 188.263251 
L 336.400805 188.263251 
L 336.807029 188.263251 
L 337.213253 188.263251 
L 337.619478 188.263251 
L 338.025702 188.263251 
L 338.431927 188.263251 
L 338.838151 188.263251 
L 339.244376 188.263251 
L 339.6506 188.263251 
L 340.056824 188.263251 
L 340.463049 188.263251 
L 340.869273 188.263251 
L 341.275498 188.263251 
L 341.681722 188.263251 
L 342.087946 188.263251 
L 342.494171 188.263251 
L 342.900395 188.263251 
L 343.30662 188.263251 
L 343.712844 188.263251 
L 344.119068 188.263251 
L 344.525293 188.263251 
L 344.931517 188.263251 
L 345.337742 188.263251 
L 345.743966 188.263251 
L 346.15019 188.263251 
L 346.556415 188.263251 
L 346.962639 188.263251 
L 347.368864 188.263251 
L 347.775088 188.263251 
L 348.181312 188.263251 
L 348.587537 188.263251 
L 348.993761 188.263251 
L 349.399986 188.263251 
L 349.80621 188.263251 
L 350.212434 188.263251 
L 350.618659 188.263251 
L 351.024883 188.263251 
L 351.431108 188.263251 
L 351.837332 188.263251 
L 352.243557 188.263251 
L 352.649781 188.263251 
L 353.056005 188.263251 
L 353.46223 188.263251 
L 353.868454 188.263251 
L 354.274679 188.263251 
L 354.680903 188.263251 
L 355.087127 188.263251 
L 355.493352 188.263251 
L 355.899576 188.263251 
L 356.305801 188.263251 
L 356.712025 188.263251 
L 357.118249 188.263251 
L 357.524474 188.263251 
L 357.930698 188.263251 
L 358.336923 188.263251 
L 358.743147 188.263251 
L 359.149371 188.263251 
L 359.555596 188.263251 
L 359.96182 188.263251 
L 360.368045 188.263251 
L 360.774269 188.263251 
L 361.180493 188.263251 
L 361.586718 188.263251 
L 361.992942 188.263251 
L 362.399167 188.263251 
L 362.805391 188.263251 
L 363.211615 188.263251 
L 363.61784 188.263251 
L 364.024064 188.263251 
L 364.430289 188.263251 
L 364.836513 188.263251 
L 365.242738 188.263251 
L 365.648962 188.263251 
L 366.055186 188.263251 
L 366.461411 188.263251 
L 366.867635 188.263251 
L 367.27386 188.263251 
L 367.680084 188.263251 
L 368.086308 188.263251 
L 368.492533 188.263251 
L 368.898757 188.263251 
L 369.304982 188.263251 
L 369.711206 188.263251 
L 370.11743 188.263251 
L 370.523655 188.263251 
L 370.929879 188.263251 
L 371.336104 188.263251 
L 371.742328 188.263251 
L 372.148552 188.263251 
L 372.554777 188.263251 
L 372.961001 188.263251 
L 373.367226 188.263251 
L 373.77345 188.263251 
L 374.179674 188.263251 
L 374.585899 188.263251 
L 374.992123 188.263251 
L 375.398348 188.263251 
L 375.804572 188.263251 
L 376.210796 188.263251 
L 376.617021 188.263251 
L 377.023245 188.263251 
L 377.42947 188.263251 
L 377.835694 188.263251 
L 378.241919 188.263251 
L 378.648143 188.263251 
L 379.054367 188.263251 
L 379.460592 188.263251 
L 379.866816 188.263251 
L 380.273041 188.263251 
L 380.679265 188.263251 
L 381.085489 188.263251 
L 381.491714 188.263251 
L 381.897938 188.263251 
L 382.304163 188.263251 
L 382.710387 188.263251 
L 383.116611 188.263251 
L 383.522836 188.263251 
L 383.92906 188.263251 
L 384.335285 188.263251 
L 384.741509 188.263251 
L 385.147733 188.263251 
L 385.553958 188.263251 
L 385.960182 188.263251 
L 386.366407 188.263251 
L 386.772631 188.263251 
L 387.178855 188.263251 
L 387.58508 188.263251 
L 387.991304 188.263251 
L 388.397529 188.263251 
L 388.803753 188.263251 
L 389.209977 188.263251 
L 389.616202 188.263251 
L 390.022426 188.263251 
L 390.428651 188.263251 
L 390.834875 188.263251 
L 391.2411 188.263251 
L 391.647324 188.263251 
L 392.053548 188.263251 
L 392.459773 188.263251 
L 392.865997 188.263251 
L 393.272222 188.263251 
L 393.678446 188.263251 
L 394.08467 188.263251 
L 394.490895 188.263251 
L 394.897119 188.263251 
L 395.303344 188.263251 
L 395.709568 188.263251 
L 396.115792 188.263251 
L 396.522017 188.263251 
L 396.928241 188.263251 
L 397.334466 188.263251 
L 397.74069 188.263251 
L 398.146914 188.263251 
L 398.553139 188.263251 
L 398.959363 188.263251 
L 399.365588 188.263251 
L 399.771812 188.263251 
L 400.178036 188.263251 
L 400.584261 188.263251 
L 400.990485 188.263251 
L 401.39671 188.263251 
L 401.802934 188.263251 
L 402.209158 188.263251 
L 402.615383 188.263251 
L 403.021607 188.263251 
L 403.427832 188.263251 
L 403.834056 188.263251 
L 404.240281 188.263251 
L 404.646505 188.263251 
L 405.052729 188.263251 
L 405.458954 188.263251 
L 405.865178 188.263251 
L 406.271403 188.263251 
L 406.677627 188.263251 
L 407.083851 188.263251 
L 407.490076 188.263251 
L 407.8963 188.263251 
L 408.302525 188.263251 
L 408.708749 188.263251 
L 409.114973 188.263251 
L 409.521198 188.263251 
L 409.927422 188.263251 
L 410.333647 188.263251 
L 410.739871 188.263251 
L 411.146095 188.263251 
L 411.55232 188.263251 
L 411.958544 188.263251 
L 412.364769 188.263251 
L 412.770993 188.263251 
L 413.177217 188.263251 
L 413.583442 188.263251 
L 413.989666 188.263251 
L 414.395891 188.263251 
L 414.802115 188.263251 
L 415.208339 188.263251 
L 415.614564 188.263251 
L 416.020788 188.263251 
L 416.427013 188.263251 
L 416.833237 188.263251 
L 417.239462 188.263251 
L 417.645686 188.263251 
L 418.05191 188.263251 
L 418.458135 188.263251 
L 418.864359 188.263251 
L 419.270584 188.263251 
L 419.676808 188.263251 
L 420.083032 188.263251 
L 420.489257 188.263251 
L 420.895481 188.263251 
L 421.301706 188.263251 
L 421.70793 188.263251 
L 422.114154 188.263251 
L 422.520379 188.263251 
L 422.926603 188.263251 
L 423.332828 188.263251 
L 423.739052 188.263251 
L 424.145276 188.263251 
L 424.551501 188.263251 
L 424.957725 188.263251 
L 425.36395 188.263251 
L 425.770174 188.263251 
L 426.176398 188.263251 
L 426.582623 188.263251 
L 426.988847 188.263251 
L 427.395072 188.263251 
L 427.801296 188.263251 
L 428.20752 188.263251 
L 428.613745 188.263251 
L 429.019969 188.263251 
L 429.426194 188.263251 
L 429.832418 188.263251 
L 430.238643 188.263251 
L 430.644867 188.263251 
L 431.051091 188.263251 
L 431.457316 188.263251 
L 431.86354 188.263251 
L 432.269765 188.263251 
L 432.675989 188.263251 
L 433.082213 188.263251 
L 433.488438 188.263251 
L 433.894662 188.263251 
L 434.300887 188.263251 
L 434.707111 188.263251 
L 435.113335 188.263251 
L 435.51956 188.263251 
L 435.925784 188.263251 
L 436.332009 188.263251 
L 436.738233 188.263251 
L 437.144457 188.263251 
L 437.550682 188.263251 
L 437.956906 188.263251 
L 438.363131 188.263251 
L 438.769355 188.263251 
L 439.175579 188.263251 
L 439.581804 188.263251 
L 439.988028 188.263251 
L 440.394253 188.263251 
L 440.800477 188.263251 
L 441.206701 188.263251 
L 441.612926 188.263251 
L 442.01915 188.263251 
L 442.425375 188.263251 
L 442.831599 188.263251 
L 443.237824 188.263251 
L 443.644048 188.263251 
L 444.050272 188.263251 
L 444.456497 188.263251 
L 444.862721 188.263251 
L 445.268946 188.263251 
L 445.67517 188.263251 
L 446.081394 188.263251 
L 446.487619 188.263251 
L 446.893843 188.263251 
L 447.300068 188.263251 
L 447.706292 188.263251 
L 448.112516 188.263251 
L 448.518741 188.263251 
L 448.924965 188.263251 
L 449.33119 188.263251 
L 449.737414 188.263251 
L 450.143638 188.263251 
L 450.549863 188.263251 
L 450.956087 188.263251 
L 451.362312 188.263251 
L 451.768536 188.263251 
L 452.17476 188.263251 
L 452.580985 188.263251 
L 452.987209 188.263251 
L 453.393434 188.263251 
L 453.799658 188.263251 
L 454.205882 188.263251 
L 454.612107 188.263251 
L 455.018331 188.263251 
L 455.424556 188.263251 
L 455.83078 188.263251 
L 456.237005 188.263251 
L 456.643229 188.263251 
L 457.049453 188.263251 
L 457.455678 188.263251 
L 457.861902 188.263251 
L 458.268127 188.263251 
L 458.674351 188.263251 
L 459.080575 188.263251 
L 459.4868 188.263251 
L 459.893024 188.263251 
L 460.299249 188.263251 
L 460.705473 188.263251 
L 461.111697 188.263251 
L 461.517922 188.263251 
L 461.924146 188.263251 
L 462.330371 188.263251 
L 462.736595 188.263251 
L 463.142819 188.263251 
L 463.549044 188.263251 
L 463.955268 188.263251 
L 464.361493 188.263251 
L 464.767717 188.263251 
L 465.173941 188.263251 
L 465.580166 188.263251 
L 465.98639 188.263251 
L 466.392615 188.263251 
L 466.798839 188.263251 
L 467.205063 188.263251 
L 467.611288 188.263251 
L 468.017512 188.263251 
L 468.423737 188.263251 
L 468.829961 188.263251 
L 469.236186 188.263251 
L 469.64241 188.263251 
L 470.048634 188.263251 
L 470.454859 188.263251 
L 470.861083 188.263251 
L 471.267308 188.263251 
L 471.673532 188.263251 
L 472.079756 188.263251 
L 472.485981 188.263251 
L 472.892205 188.263251 
L 473.29843 188.263251 
L 473.704654 188.263251 
L 474.110878 188.263251 
L 474.517103 188.263251 
L 474.923327 188.263251 
L 475.329552 188.263251 
L 475.735776 188.263251 
L 476.142 188.263251 
L 476.548225 188.263251 
L 476.954449 188.263251 
L 477.360674 188.263251 
L 477.766898 188.263251 
L 478.173122 188.263251 
L 478.579347 188.263251 
L 478.985571 188.263251 
L 479.391796 188.263251 
L 479.79802 188.263251 
L 480.204244 188.263251 
L 480.610469 188.263251 
L 481.016693 188.263251 
L 481.422918 188.263251 
L 481.829142 188.263251 
L 482.235367 188.263251 
L 482.641591 188.263251 
L 482.641591 136.796082 
L 482.641591 136.796082 
L 482.235367 136.796082 
L 481.829142 136.796082 
L 481.422918 136.796082 
L 481.016693 136.796082 
L 480.610469 136.796082 
L 480.204244 136.796082 
L 479.79802 136.796082 
L 479.391796 136.796082 
L 478.985571 136.796082 
L 478.579347 136.796082 
L 478.173122 136.796082 
L 477.766898 136.796082 
L 477.360674 136.796082 
L 476.954449 136.796082 
L 476.548225 136.796082 
L 476.142 136.796082 
L 475.735776 136.796082 
L 475.329552 136.796082 
L 474.923327 136.796082 
L 474.517103 136.796082 
L 474.110878 136.796082 
L 473.704654 136.796082 
L 473.29843 136.796082 
L 472.892205 136.796082 
L 472.485981 136.796082 
L 472.079756 136.796082 
L 471.673532 136.796082 
L 471.267308 136.796082 
L 470.861083 136.796082 
L 470.454859 136.796082 
L 470.048634 136.796082 
L 469.64241 136.796082 
L 469.236186 136.796082 
L 468.829961 136.796082 
L 468.423737 136.796082 
L 468.017512 136.796082 
L 467.611288 136.796082 
L 467.205063 136.796082 
L 466.798839 136.796082 
L 466.392615 136.796082 
L 465.98639 136.796082 
L 465.580166 136.796082 
L 465.173941 136.796082 
L 464.767717 136.796082 
L 464.361493 136.796082 
L 463.955268 136.796082 
L 463.549044 136.796082 
L 463.142819 136.796082 
L 462.736595 136.796082 
L 462.330371 136.796082 
L 461.924146 136.796082 
L 461.517922 136.796082 
L 461.111697 136.796082 
L 460.705473 136.796082 
L 460.299249 136.796082 
L 459.893024 136.796082 
L 459.4868 136.796082 
L 459.080575 136.796082 
L 458.674351 136.796082 
L 458.268127 136.796082 
L 457.861902 136.796082 
L 457.455678 136.796082 
L 457.049453 136.796082 
L 456.643229 136.796082 
L 456.237005 136.796082 
L 455.83078 136.796082 
L 455.424556 136.796082 
L 455.018331 136.796082 
L 454.612107 136.796082 
L 454.205882 136.796082 
L 453.799658 136.796082 
L 453.393434 136.796082 
L 452.987209 136.796082 
L 452.580985 136.796082 
L 452.17476 136.796082 
L 451.768536 136.796082 
L 451.362312 136.796082 
L 450.956087 136.796082 
L 450.549863 136.796082 
L 450.143638 136.796082 
L 449.737414 136.796082 
L 449.33119 136.796082 
L 448.924965 136.796082 
L 448.518741 136.796082 
L 448.112516 136.796082 
L 447.706292 136.796082 
L 447.300068 136.796082 
L 446.893843 136.796082 
L 446.487619 136.796082 
L 446.081394 136.796082 
L 445.67517 136.796082 
L 445.268946 136.796082 
L 444.862721 136.796082 
L 444.456497 136.796082 
L 444.050272 136.796082 
L 443.644048 136.796082 
L 443.237824 136.796082 
L 442.831599 136.796082 
L 442.425375 136.796082 
L 442.01915 136.796082 
L 441.612926 136.796082 
L 441.206701 136.796082 
L 440.800477 136.796082 
L 440.394253 136.796082 
L 439.988028 136.796082 
L 439.581804 136.796082 
L 439.175579 136.796082 
L 438.769355 136.796082 
L 438.363131 136.796082 
L 437.956906 136.796082 
L 437.550682 136.796082 
L 437.144457 136.796082 
L 436.738233 136.796082 
L 436.332009 136.796082 
L 435.925784 136.796082 
L 435.51956 136.796082 
L 435.113335 136.796082 
L 434.707111 136.796082 
L 434.300887 136.796082 
L 433.894662 136.796082 
L 433.488438 136.796082 
L 433.082213 136.796082 
L 432.675989 136.796082 
L 432.269765 136.796082 
L 431.86354 136.796082 
L 431.457316 136.796082 
L 431.051091 136.796082 
L 430.644867 136.796082 
L 430.238643 136.796082 
L 429.832418 136.796082 
L 429.426194 136.796082 
L 429.019969 136.796082 
L 428.613745 136.796082 
L 428.20752 136.796082 
L 427.801296 136.796082 
L 427.395072 136.796082 
L 426.988847 136.796082 
L 426.582623 136.796082 
L 426.176398 136.796082 
L 425.770174 136.796082 
L 425.36395 136.796082 
L 424.957725 136.796082 
L 424.551501 136.796082 
L 424.145276 136.796082 
L 423.739052 136.796082 
L 423.332828 136.796082 
L 422.926603 136.796082 
L 422.520379 136.796082 
L 422.114154 136.796082 
L 421.70793 136.796082 
L 421.301706 136.796082 
L 420.895481 136.796082 
L 420.489257 136.796082 
L 420.083032 136.796082 
L 419.676808 136.796082 
L 419.270584 136.796082 
L 418.864359 136.796082 
L 418.458135 136.796082 
L 418.05191 136.796082 
L 417.645686 136.796082 
L 417.239462 136.796082 
L 416.833237 136.796082 
L 416.427013 136.796082 
L 416.020788 136.796082 
L 415.614564 136.796082 
L 415.208339 136.796082 
L 414.802115 136.796082 
L 414.395891 136.796082 
L 413.989666 136.796082 
L 413.583442 136.796082 
L 413.177217 136.796082 
L 412.770993 136.796082 
L 412.364769 136.796082 
L 411.958544 136.796082 
L 411.55232 136.796082 
L 411.146095 136.796082 
L 410.739871 136.796082 
L 410.333647 136.796082 
L 409.927422 136.796082 
L 409.521198 136.796082 
L 409.114973 136.796082 
L 408.708749 136.796082 
L 408.302525 136.796082 
L 407.8963 136.796082 
L 407.490076 136.796082 
L 407.083851 136.796082 
L 406.677627 136.796082 
L 406.271403 136.796082 
L 405.865178 136.796082 
L 405.458954 136.796082 
L 405.052729 136.796082 
L 404.646505 136.796082 
L 404.240281 136.796082 
L 403.834056 136.796082 
L 403.427832 136.796082 
L 403.021607 136.796082 
L 402.615383 136.796082 
L 402.209158 136.796082 
L 401.802934 136.796082 
L 401.39671 136.796082 
L 400.990485 136.796082 
L 400.584261 136.796082 
L 400.178036 136.796082 
L 399.771812 136.796082 
L 399.365588 136.796082 
L 398.959363 136.796082 
L 398.553139 136.796082 
L 398.146914 136.796082 
L 397.74069 136.796082 
L 397.334466 136.796082 
L 396.928241 136.796082 
L 396.522017 136.796082 
L 396.115792 136.796082 
L 395.709568 136.796082 
L 395.303344 136.796082 
L 394.897119 136.796082 
L 394.490895 136.796082 
L 394.08467 136.796082 
L 393.678446 136.796082 
L 393.272222 136.796082 
L 392.865997 136.796082 
L 392.459773 136.796082 
L 392.053548 136.796082 
L 391.647324 136.796082 
L 391.2411 136.796082 
L 390.834875 136.796082 
L 390.428651 136.796082 
L 390.022426 136.796082 
L 389.616202 136.796082 
L 389.209977 136.796082 
L 388.803753 136.796082 
L 388.397529 136.796082 
L 387.991304 136.796082 
L 387.58508 136.796082 
L 387.178855 136.796082 
L 386.772631 136.796082 
L 386.366407 136.796082 
L 385.960182 136.796082 
L 385.553958 136.796082 
L 385.147733 136.796082 
L 384.741509 136.796082 
L 384.335285 136.796082 
L 383.92906 136.796082 
L 383.522836 136.796082 
L 383.116611 136.796082 
L 382.710387 136.796082 
L 382.304163 136.796082 
L 381.897938 136.796082 
L 381.491714 136.796082 
L 381.085489 136.796082 
L 380.679265 136.796082 
L 380.273041 136.796082 
L 379.866816 136.796082 
L 379.460592 136.796082 
L 379.054367 136.796082 
L 378.648143 136.796082 
L 378.241919 136.796082 
L 377.835694 136.796082 
L 377.42947 136.796082 
L 377.023245 136.796082 
L 376.617021 136.796082 
L 376.210796 136.796082 
L 375.804572 136.796082 
L 375.398348 136.796082 
L 374.992123 136.796082 
L 374.585899 136.796082 
L 374.179674 136.796082 
L 373.77345 136.796082 
L 373.367226 136.796082 
L 372.961001 136.796082 
L 372.554777 136.796082 
L 372.148552 136.796082 
L 371.742328 136.796082 
L 371.336104 136.796082 
L 370.929879 136.796082 
L 370.523655 136.796082 
L 370.11743 136.796082 
L 369.711206 136.796082 
L 369.304982 136.796082 
L 368.898757 136.796082 
L 368.492533 136.796082 
L 368.086308 136.796082 
L 367.680084 136.796082 
L 367.27386 136.796082 
L 366.867635 136.796082 
L 366.461411 136.796082 
L 366.055186 136.796082 
L 365.648962 136.796082 
L 365.242738 136.796082 
L 364.836513 136.796082 
L 364.430289 136.796082 
L 364.024064 136.796082 
L 363.61784 136.796082 
L 363.211615 136.796082 
L 362.805391 136.796082 
L 362.399167 136.796082 
L 361.992942 136.796082 
L 361.586718 136.796082 
L 361.180493 136.796082 
L 360.774269 136.796082 
L 360.368045 136.796082 
L 359.96182 136.796082 
L 359.555596 136.796082 
L 359.149371 136.796082 
L 358.743147 136.796082 
L 358.336923 136.796082 
L 357.930698 136.796082 
L 357.524474 136.796082 
L 357.118249 136.796082 
L 356.712025 136.796082 
L 356.305801 136.796082 
L 355.899576 136.796082 
L 355.493352 136.796082 
L 355.087127 136.796082 
L 354.680903 136.796082 
L 354.274679 136.796082 
L 353.868454 136.796082 
L 353.46223 136.796082 
L 353.056005 136.796082 
L 352.649781 136.796082 
L 352.243557 136.796082 
L 351.837332 136.796082 
L 351.431108 136.796082 
L 351.024883 136.796082 
L 350.618659 136.796082 
L 350.212434 136.796082 
L 349.80621 136.796082 
L 349.399986 136.796082 
L 348.993761 136.796082 
L 348.587537 136.796082 
L 348.181312 136.796082 
L 347.775088 136.796082 
L 347.368864 136.796082 
L 346.962639 136.796082 
L 346.556415 136.796082 
L 346.15019 136.796082 
L 345.743966 136.796082 
L 345.337742 136.796082 
L 344.931517 136.796082 
L 344.525293 136.796082 
L 344.119068 136.796082 
L 343.712844 136.796082 
L 343.30662 136.796082 
L 342.900395 136.796082 
L 342.494171 136.796082 
L 342.087946 136.796082 
L 341.681722 136.796082 
L 341.275498 136.796082 
L 340.869273 136.796082 
L 340.463049 136.796082 
L 340.056824 136.796082 
L 339.6506 136.796082 
L 339.244376 136.796082 
L 338.838151 136.796082 
L 338.431927 136.796082 
L 338.025702 136.796082 
L 337.619478 136.796082 
L 337.213253 136.796082 
L 336.807029 136.796082 
L 336.400805 136.796082 
L 335.99458 136.796082 
L 335.588356 136.796082 
L 335.182131 136.796082 
L 334.775907 136.796082 
L 334.369683 136.796082 
L 333.963458 136.796082 
L 333.557234 136.796082 
L 333.151009 136.796082 
L 332.744785 136.796082 
L 332.338561 136.796082 
L 331.932336 136.796082 
L 331.526112 136.796082 
L 331.119887 136.796082 
L 330.713663 136.796082 
L 330.307439 136.796082 
L 329.901214 136.796082 
L 329.49499 136.796082 
L 329.088765 136.796082 
L 328.682541 136.796082 
L 328.276317 136.796082 
L 327.870092 136.796082 
L 327.463868 136.796082 
L 327.057643 136.796082 
L 326.651419 136.796082 
L 326.245195 136.796082 
L 325.83897 136.796082 
L 325.432746 136.796082 
L 325.026521 136.796082 
L 324.620297 136.796082 
L 324.214072 136.796082 
L 323.807848 136.796082 
L 323.401624 136.796082 
L 322.995399 136.796082 
L 322.589175 136.796082 
L 322.18295 136.796082 
L 321.776726 136.796082 
L 321.370502 136.796082 
L 320.964277 136.796082 
L 320.558053 136.796082 
L 320.151828 136.796082 
L 319.745604 136.796082 
L 319.33938 136.796082 
L 318.933155 136.796082 
L 318.526931 136.796082 
L 318.120706 136.796082 
L 317.714482 136.796082 
L 317.308258 136.796082 
L 316.902033 136.796082 
L 316.495809 136.796082 
L 316.089584 136.796082 
L 315.68336 136.796082 
L 315.277136 136.796082 
L 314.870911 136.796082 
L 314.464687 136.796082 
L 314.058462 136.796082 
L 313.652238 136.796082 
L 313.246014 136.796082 
L 312.839789 136.796082 
L 312.433565 136.796082 
L 312.02734 136.796082 
L 311.621116 136.796082 
L 311.214891 136.796082 
L 310.808667 136.796082 
L 310.402443 136.796082 
L 309.996218 136.796082 
L 309.589994 136.796082 
L 309.183769 136.796082 
L 308.777545 136.796082 
L 308.371321 136.796082 
L 307.965096 136.796082 
L 307.558872 136.796082 
L 307.152647 136.796082 
L 306.746423 136.796082 
L 306.340199 136.796082 
L 305.933974 136.796082 
L 305.52775 136.796082 
L 305.121525 136.796082 
L 304.715301 136.796082 
L 304.309077 136.796082 
L 303.902852 136.796082 
L 303.496628 136.796082 
L 303.090403 136.796082 
L 302.684179 136.796082 
L 302.277955 136.796082 
L 301.87173 136.796082 
L 301.465506 136.796082 
L 301.059281 136.796082 
L 300.653057 136.796082 
L 300.246833 136.796082 
L 299.840608 136.796082 
L 299.434384 136.796082 
L 299.028159 136.796082 
L 298.621935 136.796082 
L 298.21571 136.796082 
L 297.809486 136.796082 
L 297.403262 136.796082 
L 296.997037 136.796082 
L 296.590813 136.796082 
L 296.184588 136.796082 
L 295.778364 136.796082 
L 295.37214 136.796082 
L 294.965915 136.796082 
L 294.559691 136.796082 
L 294.153466 136.796082 
L 293.747242 136.796082 
L 293.341018 136.796082 
L 292.934793 136.796082 
L 292.528569 136.796082 
L 292.122344 136.796082 
L 291.71612 136.796082 
L 291.309896 136.796082 
L 290.903671 136.796082 
L 290.497447 136.796082 
L 290.091222 136.796082 
L 289.684998 136.796082 
L 289.278774 136.796082 
L 288.872549 136.796082 
L 288.466325 136.796082 
L 288.0601 136.796082 
L 287.653876 136.796082 
L 287.247652 136.796082 
L 286.841427 136.796082 
L 286.435203 136.796082 
L 286.028978 136.796082 
L 285.622754 136.796082 
L 285.216529 136.796082 
L 284.810305 136.796082 
L 284.404081 136.796082 
L 283.997856 136.796082 
L 283.591632 136.796082 
L 283.185407 136.796082 
L 282.779183 136.796082 
L 282.372959 136.796082 
L 281.966734 136.796082 
L 281.56051 136.796082 
L 281.154285 136.796082 
L 280.748061 136.796082 
L 280.341837 136.796082 
L 279.935612 136.796082 
L 279.529388 136.796082 
L 279.123163 136.796082 
L 278.716939 136.796082 
L 278.310715 136.796082 
L 277.90449 136.796082 
L 277.498266 136.796082 
L 277.092041 136.796082 
L 276.685817 136.796082 
L 276.279593 136.796082 
L 275.873368 136.796082 
L 275.467144 136.796082 
L 275.060919 136.796082 
L 274.654695 136.796082 
L 274.248471 136.796082 
L 273.842246 136.796082 
L 273.436022 136.796082 
L 273.029797 136.796082 
L 272.623573 136.796082 
L 272.217348 136.796082 
L 271.811124 136.796082 
L 271.4049 136.796082 
L 270.998675 136.796082 
L 270.592451 136.796082 
L 270.186226 136.796082 
L 269.780002 136.796082 
L 269.373778 136.796082 
L 268.967553 136.796082 
L 268.561329 136.796082 
L 268.155104 136.796082 
L 267.74888 136.796082 
L 267.342656 136.796082 
L 266.936431 136.796082 
L 266.530207 136.796082 
L 266.123982 136.796082 
L 265.717758 136.796082 
L 265.311534 136.796082 
L 264.905309 136.796082 
L 264.499085 136.796082 
L 264.09286 136.796082 
L 263.686636 136.796082 
L 263.280412 136.796082 
L 262.874187 136.796082 
L 262.467963 136.796082 
L 262.061738 136.796082 
L 261.655514 136.796082 
L 261.24929 136.796082 
L 260.843065 136.796082 
L 260.436841 136.796082 
L 260.030616 136.796082 
L 259.624392 136.796082 
L 259.218167 136.796082 
L 258.811943 136.796082 
L 258.405719 136.796082 
L 257.999494 136.796082 
L 257.59327 136.796082 
L 257.187045 136.796082 
L 256.780821 136.796082 
L 256.374597 136.796082 
L 255.968372 136.796082 
L 255.562148 136.796082 
L 255.155923 136.796082 
L 254.749699 136.796082 
L 254.343475 136.796082 
L 253.93725 136.796082 
L 253.531026 136.796082 
L 253.124801 136.796082 
L 252.718577 136.796082 
L 252.312353 136.796082 
L 251.906128 136.796082 
L 251.499904 136.796082 
L 251.093679 136.796082 
L 250.687455 136.796082 
L 250.281231 136.796082 
L 249.875006 136.796082 
L 249.468782 136.796082 
L 249.062557 136.796082 
L 248.656333 136.796082 
L 248.250109 136.796082 
L 247.843884 136.796082 
L 247.43766 136.796082 
L 247.031435 136.796082 
L 246.625211 128.102663 
L 246.218986 128.102663 
L 245.812762 128.102663 
L 245.406538 128.102663 
L 245.000313 128.102663 
L 244.594089 128.102663 
L 244.187864 128.102663 
L 243.78164 128.102663 
L 243.375416 128.102663 
L 242.969191 128.102663 
L 242.562967 128.102663 
L 242.156742 128.102663 
L 241.750518 128.102663 
L 241.344294 128.102663 
L 240.938069 128.102663 
L 240.531845 128.102663 
L 240.12562 128.102663 
L 239.719396 128.102663 
L 239.313172 128.102663 
L 238.906947 128.102663 
L 238.500723 128.102663 
L 238.094498 128.102663 
L 237.688274 128.102663 
L 237.28205 128.102663 
L 236.875825 128.102663 
L 236.469601 128.102663 
L 236.063376 128.102663 
L 235.657152 128.102663 
L 235.250928 128.102663 
L 234.844703 128.102663 
L 234.438479 128.102663 
L 234.032254 128.102663 
L 233.62603 128.102663 
L 233.219805 128.102663 
L 232.813581 128.102663 
L 232.407357 128.102663 
L 232.001132 128.102663 
L 231.594908 128.102663 
L 231.188683 128.102663 
L 230.782459 128.102663 
L 230.376235 128.102663 
L 229.97001 128.102663 
L 229.563786 128.102663 
L 229.157561 128.102663 
L 228.751337 128.102663 
L 228.345113 128.102663 
L 227.938888 128.102663 
L 227.532664 128.102663 
L 227.126439 128.102663 
L 226.720215 128.102663 
L 226.313991 128.102663 
L 225.907766 128.102663 
L 225.501542 128.102663 
L 225.095317 128.102663 
L 224.689093 128.102663 
L 224.282869 128.102663 
L 223.876644 128.102663 
L 223.47042 128.102663 
L 223.064195 128.102663 
L 222.657971 128.102663 
L 222.251747 128.102663 
L 221.845522 128.102663 
L 221.439298 128.102663 
L 221.033073 128.102663 
L 220.626849 128.102663 
L 220.220624 128.102663 
L 219.8144 128.102663 
L 219.408176 128.102663 
L 219.001951 128.102663 
L 218.595727 128.102663 
L 218.189502 128.102663 
L 217.783278 128.102663 
L 217.377054 128.102663 
L 216.970829 128.102663 
L 216.564605 128.102663 
L 216.15838 128.102663 
L 215.752156 128.102663 
L 215.345932 128.102663 
L 214.939707 128.102663 
L 214.533483 128.102663 
L 214.127258 128.102663 
L 213.721034 128.102663 
L 213.31481 128.102663 
L 212.908585 128.102663 
L 212.502361 128.102663 
L 212.096136 128.102663 
L 211.689912 128.102663 
L 211.283688 128.102663 
L 210.877463 128.102663 
L 210.471239 128.102663 
L 210.065014 128.102663 
L 209.65879 128.102663 
L 209.252566 128.102663 
L 208.846341 128.102663 
L 208.440117 128.102663 
L 208.033892 128.102663 
L 207.627668 128.102663 
L 207.221443 128.102663 
L 206.815219 128.102663 
L 206.408995 128.102663 
L 206.00277 128.102663 
L 205.596546 128.102663 
L 205.190321 128.102663 
L 204.784097 128.102663 
L 204.377873 128.102663 
L 203.971648 128.102663 
L 203.565424 128.102663 
L 203.159199 128.102663 
L 202.752975 128.102663 
L 202.346751 128.102663 
L 201.940526 128.102663 
L 201.534302 128.102663 
L 201.128077 128.102663 
L 200.721853 128.102663 
L 200.315629 128.102663 
L 199.909404 128.102663 
L 199.50318 128.102663 
L 199.096955 128.102663 
L 198.690731 128.102663 
L 198.284507 128.102663 
L 197.878282 128.102663 
L 197.472058 128.102663 
L 197.065833 128.102663 
L 196.659609 128.102663 
L 196.253385 128.102663 
L 195.84716 128.102663 
L 195.440936 128.102663 
L 195.034711 128.102663 
L 194.628487 128.102663 
L 194.222262 128.102663 
L 193.816038 128.102663 
L 193.409814 128.102663 
L 193.003589 128.102663 
L 192.597365 128.102663 
L 192.19114 128.102663 
L 191.784916 128.102663 
L 191.378692 128.102663 
L 190.972467 128.102663 
L 190.566243 128.102663 
L 190.160018 128.102663 
L 189.753794 128.102663 
L 189.34757 128.102663 
L 188.941345 128.102663 
L 188.535121 128.102663 
L 188.128896 128.102663 
L 187.722672 128.102663 
L 187.316448 128.102663 
L 186.910223 128.102663 
L 186.503999 128.102663 
L 186.097774 128.102663 
L 185.69155 128.102663 
L 185.285326 128.102663 
L 184.879101 128.102663 
L 184.472877 128.102663 
L 184.066652 128.102663 
L 183.660428 128.102663 
L 183.254204 128.102663 
L 182.847979 128.102663 
L 182.441755 128.102663 
L 182.03553 128.102663 
L 181.629306 128.102663 
L 181.223081 128.102663 
L 180.816857 128.102663 
L 180.410633 128.102663 
L 180.004408 128.102663 
L 179.598184 128.102663 
L 179.191959 128.102663 
L 178.785735 128.102663 
L 178.379511 128.102663 
L 177.973286 128.102663 
L 177.567062 128.102663 
L 177.160837 128.102663 
L 176.754613 128.102663 
L 176.348389 128.102663 
L 175.942164 129.25274 
L 175.53594 129.25274 
L 175.129715 129.25274 
L 174.723491 129.25274 
L 174.317267 129.25274 
L 173.911042 129.25274 
L 173.504818 129.25274 
L 173.098593 129.25274 
L 172.692369 129.25274 
L 172.286145 129.25274 
L 171.87992 129.25274 
L 171.473696 129.25274 
L 171.067471 129.25274 
L 170.661247 129.25274 
L 170.255023 129.25274 
L 169.848798 129.25274 
L 169.442574 129.25274 
L 169.036349 129.25274 
L 168.630125 129.25274 
L 168.2239 129.25274 
L 167.817676 129.25274 
L 167.411452 129.25274 
L 167.005227 129.25274 
L 166.599003 129.25274 
L 166.192778 129.25274 
L 165.786554 129.25274 
L 165.38033 129.25274 
L 164.974105 129.25274 
L 164.567881 129.25274 
L 164.161656 129.25274 
L 163.755432 129.25274 
L 163.349208 129.25274 
L 162.942983 129.25274 
L 162.536759 129.25274 
L 162.130534 129.25274 
L 161.72431 129.25274 
L 161.318086 129.25274 
L 160.911861 129.25274 
L 160.505637 129.25274 
L 160.099412 129.25274 
L 159.693188 129.25274 
L 159.286964 129.25274 
L 158.880739 129.25274 
L 158.474515 129.25274 
L 158.06829 129.25274 
L 157.662066 129.25274 
L 157.255842 122.421856 
L 156.849617 122.421856 
L 156.443393 122.421856 
L 156.037168 122.421856 
L 155.630944 122.421856 
L 155.224719 122.421856 
L 154.818495 122.421856 
L 154.412271 122.421856 
L 154.006046 122.421856 
L 153.599822 122.421856 
L 153.193597 122.421856 
L 152.787373 122.421856 
L 152.381149 122.421856 
L 151.974924 122.421856 
L 151.5687 122.421856 
L 151.162475 122.421856 
L 150.756251 122.421856 
L 150.350027 122.421856 
L 149.943802 122.421856 
L 149.537578 122.421856 
L 149.131353 122.421856 
L 148.725129 122.421856 
L 148.318905 122.421856 
L 147.91268 122.421856 
L 147.506456 122.421856 
L 147.100231 122.421856 
L 146.694007 122.421856 
L 146.287783 122.421856 
L 145.881558 122.421856 
L 145.475334 122.421856 
L 145.069109 122.421856 
L 144.662885 122.421856 
L 144.256661 122.421856 
L 143.850436 122.421856 
L 143.444212 122.421856 
L 143.037987 122.421856 
L 142.631763 122.421856 
L 142.225538 122.421856 
L 141.819314 122.421856 
L 141.41309 122.421856 
L 141.006865 122.421856 
L 140.600641 122.421856 
L 140.194416 122.421856 
L 139.788192 122.421856 
L 139.381968 122.421856 
L 138.975743 122.421856 
L 138.569519 122.421856 
L 138.163294 122.421856 
L 137.75707 122.421856 
L 137.350846 122.421856 
L 136.944621 122.421856 
L 136.538397 122.421856 
L 136.132172 122.421856 
L 135.725948 122.421856 
L 135.319724 122.421856 
L 134.913499 122.421856 
L 134.507275 122.421856 
L 134.10105 122.421856 
L 133.694826 122.421856 
L 133.288602 122.421856 
L 132.882377 122.421856 
L 132.476153 122.421856 
L 132.069928 122.421856 
L 131.663704 122.421856 
L 131.25748 122.421856 
L 130.851255 122.421856 
L 130.445031 122.421856 
L 130.038806 122.421856 
L 129.632582 122.421856 
L 129.226357 122.421856 
L 128.820133 122.421856 
L 128.413909 122.421856 
L 128.007684 122.421856 
L 127.60146 122.421856 
L 127.195235 122.421856 
L 126.789011 122.421856 
L 126.382787 122.421856 
L 125.976562 122.421856 
L 125.570338 122.421856 
L 125.164113 122.421856 
L 124.757889 122.421856 
L 124.351665 122.421856 
L 123.94544 122.421856 
L 123.539216 122.421856 
L 123.132991 122.421856 
L 122.726767 122.421856 
L 122.320543 122.421856 
L 121.914318 122.421856 
L 121.508094 122.421856 
L 121.101869 122.421856 
L 120.695645 122.421856 
L 120.289421 122.421856 
L 119.883196 122.421856 
L 119.476972 122.421856 
L 119.070747 122.421856 
L 118.664523 122.421856 
L 118.258299 122.421856 
L 117.852074 122.421856 
L 117.44585 122.421856 
L 117.039625 122.421856 
L 116.633401 122.421856 
L 116.227176 122.421856 
L 115.820952 122.421856 
L 115.414728 122.421856 
L 115.008503 122.421856 
L 114.602279 122.421856 
L 114.196054 122.421856 
L 113.78983 122.421856 
L 113.383606 122.421856 
L 112.977381 122.421856 
L 112.571157 122.421856 
L 112.164932 122.421856 
L 111.758708 122.421856 
L 111.352484 122.421856 
L 110.946259 122.421856 
L 110.540035 122.421856 
L 110.13381 122.421856 
L 109.727586 122.421856 
L 109.321362 122.421856 
L 108.915137 122.421856 
L 108.508913 122.421856 
L 108.102688 122.421856 
L 107.696464 122.421856 
L 107.29024 122.421856 
L 106.884015 122.421856 
L 106.477791 122.421856 
L 106.071566 122.421856 
L 105.665342 122.421856 
L 105.259118 122.421856 
L 104.852893 122.421856 
L 104.446669 122.421856 
L 104.040444 122.421856 
L 103.63422 122.421856 
L 103.227995 122.421856 
L 102.821771 122.421856 
L 102.415547 122.421856 
L 102.009322 122.421856 
L 101.603098 122.421856 
L 101.196873 122.421856 
L 100.790649 122.421856 
L 100.384425 122.421856 
L 99.9782 122.421856 
L 99.571976 122.421856 
L 99.165751 122.421856 
L 98.759527 122.421856 
L 98.353303 122.421856 
L 97.947078 122.421856 
L 97.540854 122.421856 
L 97.134629 122.421856 
L 96.728405 122.421856 
L 96.322181 122.421856 
L 95.915956 122.421856 
L 95.509732 122.421856 
L 95.103507 122.421856 
L 94.697283 122.421856 
L 94.291059 122.421856 
L 93.884834 122.421856 
L 93.47861 122.421856 
L 93.072385 122.421856 
L 92.666161 122.421856 
L 92.259937 122.421856 
L 91.853712 122.421856 
L 91.447488 122.421856 
L 91.041263 122.421856 
L 90.635039 122.421856 
L 90.228814 122.421856 
L 89.82259 122.421856 
L 89.416366 122.421856 
L 89.010141 122.421856 
L 88.603917 122.421856 
L 88.197692 122.421856 
L 87.791468 122.421856 
L 87.385244 122.421856 
L 86.979019 122.421856 
L 86.572795 122.421856 
L 86.16657 122.421856 
L 85.760346 122.421856 
L 85.354122 122.421856 
L 84.947897 122.421856 
L 84.541673 122.421856 
L 84.135448 122.421856 
L 83.729224 122.421856 
L 83.323 122.421856 
L 82.916775 122.421856 
L 82.510551 122.421856 
L 82.104326 122.421856 
L 81.698102 122.421856 
L 81.291878 122.421856 
L 80.885653 122.421856 
L 80.479429 122.421856 
L 80.073204 122.421856 
L 79.66698 122.421856 
L 79.260756 122.421856 
L 78.854531 122.421856 
L 78.448307 122.421856 
L 78.042082 122.421856 
L 77.635858 122.421856 
L 77.229633 122.421856 
L 76.823409 122.421856 
z
" style="fill:#1f77b4;fill-opacity:0.4;"/>
   </g>
   <g id="PathCollection_1">
    <defs>
     <path d="M 0 3 
C 0.795609 3 1.55874 2.683901 2.12132 2.12132 
C 2.683901 1.55874 3 0.795609 3 0 
C 3 -0.795609 2.683901 -1.55874 2.12132 -2.12132 
C 1.55874 -2.683901 0.795609 -3 0 -3 
C -0.795609 -3 -1.55874 -2.683901 -2.12132 -2.12132 
C -2.683901 -1.55874 -3 -0.795609 -3 0 
C -3 0.795609 -2.683901 1.55874 -2.12132 2.12132 
C -1.55874 2.683901 -0.795609 3 0 3 
z
" id="m6eb1dd0d6c" style="stroke:#000000;"/>
    </defs>
    <g clip-path="url(#p0636e3b543)">
     <use style="stroke:#000000;" x="86.979019" xlink:href="#m6eb1dd0d6c" y="139.828138"/>
     <use style="stroke:#000000;" x="265.311534" xlink:href="#m6eb1dd0d6c" y="193.551024"/>
     <use style="stroke:#000000;" x="227.938888" xlink:href="#m6eb1dd0d6c" y="130.394224"/>
    </g>
   </g>
   <g id="PathCollection_2">
    <defs>
     <path d="M 0 3 
C 0.795609 3 1.55874 2.683901 2.12132 2.12132 
C 2.683901 1.55874 3 0.795609 3 0 
C 3 -0.795609 2.683901 -1.55874 2.12132 -2.12132 
C 1.55874 -2.683901 0.795609 -3 0 -3 
C -0.795609 -3 -1.55874 -2.683901 -2.12132 -2.12132 
C -2.683901 -1.55874 -3 -0.795609 -3 0 
C -3 0.795609 -2.683901 1.55874 -2.12132 2.12132 
C -1.55874 2.683901 -0.795609 3 0 3 
z
" id="m630a240261" style="stroke:#ff0000;"/>
    </defs>
    <g clip-path="url(#p0636e3b543)">
     <use style="fill:#ff0000;stroke:#ff0000;" x="76.823409" xlink:href="#m630a240261" y="122.695714"/>
     <use style="fill:#ff0000;stroke:#ff0000;" x="152.787373" xlink:href="#m630a240261" y="98.644615"/>
     <use style="fill:#ff0000;stroke:#ff0000;" x="177.567062" xlink:href="#m630a240261" y="102.241713"/>
    </g>
   </g>
   <g id="matplotlib.axis_1">
    <g id="xtick_1">
     <g id="line2d_1">
      <defs>
       <path d="M 0 0 
L 0 3.5 
" id="mbe7ec16dd0" style="stroke:#000000;stroke-width:0.8;"/>
      </defs>
      <g>
       <use style="stroke:#000000;stroke-width:0.8;" x="76.823409" xlink:href="#mbe7ec16dd0" y="204.872727"/>
      </g>
     </g>
     <g id="text_1">
      <!-- 0 -->
      <g transform="translate(73.005909 220.990852)scale(0.12 -0.12)">
       <defs>
        <path d="M 31.78125 66.40625 
Q 24.171875 66.40625 20.328125 58.90625 
Q 16.5 51.421875 16.5 36.375 
Q 16.5 21.390625 20.328125 13.890625 
Q 24.171875 6.390625 31.78125 6.390625 
Q 39.453125 6.390625 43.28125 13.890625 
Q 47.125 21.390625 47.125 36.375 
Q 47.125 51.421875 43.28125 58.90625 
Q 39.453125 66.40625 31.78125 66.40625 
z
M 31.78125 74.21875 
Q 44.046875 74.21875 50.515625 64.515625 
Q 56.984375 54.828125 56.984375 36.375 
Q 56.984375 17.96875 50.515625 8.265625 
Q 44.046875 -1.421875 31.78125 -1.421875 
Q 19.53125 -1.421875 13.0625 8.265625 
Q 6.59375 17.96875 6.59375 36.375 
Q 6.59375 54.828125 13.0625 64.515625 
Q 19.53125 74.21875 31.78125 74.21875 
z
" id="DejaVuSans-48"/>
       </defs>
       <use xlink:href="#DejaVuSans-48"/>
      </g>
     </g>
    </g>
    <g id="xtick_2">
     <g id="line2d_2">
      <g>
       <use style="stroke:#000000;stroke-width:0.8;" x="157.987045" xlink:href="#mbe7ec16dd0" y="204.872727"/>
      </g>
     </g>
     <g id="text_2">
      <!-- 2 -->
      <g transform="translate(154.169545 220.990852)scale(0.12 -0.12)">
       <defs>
        <path d="M 19.1875 8.296875 
L 53.609375 8.296875 
L 53.609375 0 
L 7.328125 0 
L 7.328125 8.296875 
Q 12.9375 14.109375 22.625 23.890625 
Q 32.328125 33.6875 34.8125 36.53125 
Q 39.546875 41.84375 41.421875 45.53125 
Q 43.3125 49.21875 43.3125 52.78125 
Q 43.3125 58.59375 39.234375 62.25 
Q 35.15625 65.921875 28.609375 65.921875 
Q 23.96875 65.921875 18.8125 64.3125 
Q 13.671875 62.703125 7.8125 59.421875 
L 7.8125 69.390625 
Q 13.765625 71.78125 18.9375 73 
Q 24.125 74.21875 28.421875 74.21875 
Q 39.75 74.21875 46.484375 68.546875 
Q 53.21875 62.890625 53.21875 53.421875 
Q 53.21875 48.921875 51.53125 44.890625 
Q 49.859375 40.875 45.40625 35.40625 
Q 44.1875 33.984375 37.640625 27.21875 
Q 31.109375 20.453125 19.1875 8.296875 
z
" id="DejaVuSans-50"/>
       </defs>
       <use xlink:href="#DejaVuSans-50"/>
      </g>
     </g>
    </g>
    <g id="xtick_3">
     <g id="line2d_3">
      <g>
       <use style="stroke:#000000;stroke-width:0.8;" x="239.150682" xlink:href="#mbe7ec16dd0" y="204.872727"/>
      </g>
     </g>
     <g id="text_3">
      <!-- 4 -->
      <g transform="translate(235.333182 220.990852)scale(0.12 -0.12)">
       <defs>
        <path d="M 37.796875 64.3125 
L 12.890625 25.390625 
L 37.796875 25.390625 
z
M 35.203125 72.90625 
L 47.609375 72.90625 
L 47.609375 25.390625 
L 58.015625 25.390625 
L 58.015625 17.1875 
L 47.609375 17.1875 
L 47.609375 0 
L 37.796875 0 
L 37.796875 17.1875 
L 4.890625 17.1875 
L 4.890625 26.703125 
z
" id="DejaVuSans-52"/>
       </defs>
       <use xlink:href="#DejaVuSans-52"/>
      </g>
     </g>
    </g>
    <g id="xtick_4">
     <g id="line2d_4">
      <g>
       <use style="stroke:#000000;stroke-width:0.8;" x="320.314318" xlink:href="#mbe7ec16dd0" y="204.872727"/>
      </g>
     </g>
     <g id="text_4">
      <!-- 6 -->
      <g transform="translate(316.496818 220.990852)scale(0.12 -0.12)">
       <defs>
        <path d="M 33.015625 40.375 
Q 26.375 40.375 22.484375 35.828125 
Q 18.609375 31.296875 18.609375 23.390625 
Q 18.609375 15.53125 22.484375 10.953125 
Q 26.375 6.390625 33.015625 6.390625 
Q 39.65625 6.390625 43.53125 10.953125 
Q 47.40625 15.53125 47.40625 23.390625 
Q 47.40625 31.296875 43.53125 35.828125 
Q 39.65625 40.375 33.015625 40.375 
z
M 52.59375 71.296875 
L 52.59375 62.3125 
Q 48.875 64.0625 45.09375 64.984375 
Q 41.3125 65.921875 37.59375 65.921875 
Q 27.828125 65.921875 22.671875 59.328125 
Q 17.53125 52.734375 16.796875 39.40625 
Q 19.671875 43.65625 24.015625 45.921875 
Q 28.375 48.1875 33.59375 48.1875 
Q 44.578125 48.1875 50.953125 41.515625 
Q 57.328125 34.859375 57.328125 23.390625 
Q 57.328125 12.15625 50.6875 5.359375 
Q 44.046875 -1.421875 33.015625 -1.421875 
Q 20.359375 -1.421875 13.671875 8.265625 
Q 6.984375 17.96875 6.984375 36.375 
Q 6.984375 53.65625 15.1875 63.9375 
Q 23.390625 74.21875 37.203125 74.21875 
Q 40.921875 74.21875 44.703125 73.484375 
Q 48.484375 72.75 52.59375 71.296875 
z
" id="DejaVuSans-54"/>
       </defs>
       <use xlink:href="#DejaVuSans-54"/>
      </g>
     </g>
    </g>
    <g id="xtick_5">
     <g id="line2d_5">
      <g>
       <use style="stroke:#000000;stroke-width:0.8;" x="401.477955" xlink:href="#mbe7ec16dd0" y="204.872727"/>
      </g>
     </g>
     <g id="text_5">
      <!-- 8 -->
      <g transform="translate(397.660455 220.990852)scale(0.12 -0.12)">
       <defs>
        <path d="M 31.78125 34.625 
Q 24.75 34.625 20.71875 30.859375 
Q 16.703125 27.09375 16.703125 20.515625 
Q 16.703125 13.921875 20.71875 10.15625 
Q 24.75 6.390625 31.78125 6.390625 
Q 38.8125 6.390625 42.859375 10.171875 
Q 46.921875 13.96875 46.921875 20.515625 
Q 46.921875 27.09375 42.890625 30.859375 
Q 38.875 34.625 31.78125 34.625 
z
M 21.921875 38.8125 
Q 15.578125 40.375 12.03125 44.71875 
Q 8.5 49.078125 8.5 55.328125 
Q 8.5 64.0625 14.71875 69.140625 
Q 20.953125 74.21875 31.78125 74.21875 
Q 42.671875 74.21875 48.875 69.140625 
Q 55.078125 64.0625 55.078125 55.328125 
Q 55.078125 49.078125 51.53125 44.71875 
Q 48 40.375 41.703125 38.8125 
Q 48.828125 37.15625 52.796875 32.3125 
Q 56.78125 27.484375 56.78125 20.515625 
Q 56.78125 9.90625 50.3125 4.234375 
Q 43.84375 -1.421875 31.78125 -1.421875 
Q 19.734375 -1.421875 13.25 4.234375 
Q 6.78125 9.90625 6.78125 20.515625 
Q 6.78125 27.484375 10.78125 32.3125 
Q 14.796875 37.15625 21.921875 38.8125 
z
M 18.3125 54.390625 
Q 18.3125 48.734375 21.84375 45.5625 
Q 25.390625 42.390625 31.78125 42.390625 
Q 38.140625 42.390625 41.71875 45.5625 
Q 45.3125 48.734375 45.3125 54.390625 
Q 45.3125 60.0625 41.71875 63.234375 
Q 38.140625 66.40625 31.78125 66.40625 
Q 25.390625 66.40625 21.84375 63.234375 
Q 18.3125 60.0625 18.3125 54.390625 
z
" id="DejaVuSans-56"/>
       </defs>
       <use xlink:href="#DejaVuSans-56"/>
      </g>
     </g>
    </g>
    <g id="xtick_6">
     <g id="line2d_6">
      <g>
       <use style="stroke:#000000;stroke-width:0.8;" x="482.641591" xlink:href="#mbe7ec16dd0" y="204.872727"/>
      </g>
     </g>
     <g id="text_6">
      <!-- 10 -->
      <g transform="translate(475.006591 220.990852)scale(0.12 -0.12)">
       <defs>
        <path d="M 12.40625 8.296875 
L 28.515625 8.296875 
L 28.515625 63.921875 
L 10.984375 60.40625 
L 10.984375 69.390625 
L 28.421875 72.90625 
L 38.28125 72.90625 
L 38.28125 8.296875 
L 54.390625 8.296875 
L 54.390625 0 
L 12.40625 0 
z
" id="DejaVuSans-49"/>
       </defs>
       <use xlink:href="#DejaVuSans-49"/>
       <use x="63.623047" xlink:href="#DejaVuSans-48"/>
      </g>
     </g>
    </g>
   </g>
   <g id="matplotlib.axis_2">
    <g id="ytick_1">
     <g id="line2d_7">
      <defs>
       <path d="M 0 0 
L -3.5 0 
" id="m9266244514" style="stroke:#000000;stroke-width:0.8;"/>
      </defs>
      <g>
       <use style="stroke:#000000;stroke-width:0.8;" x="56.5325" xlink:href="#m9266244514" y="203.41893"/>
      </g>
     </g>
     <g id="text_7">
      <!-- 0 -->
      <g transform="translate(41.8975 207.977992)scale(0.12 -0.12)">
       <use xlink:href="#DejaVuSans-48"/>
      </g>
     </g>
    </g>
    <g id="ytick_2">
     <g id="line2d_8">
      <g>
       <use style="stroke:#000000;stroke-width:0.8;" x="56.5325" xlink:href="#m9266244514" y="176.511191"/>
      </g>
     </g>
     <g id="text_8">
      <!-- 10 -->
      <g transform="translate(34.2625 181.070254)scale(0.12 -0.12)">
       <use xlink:href="#DejaVuSans-49"/>
       <use x="63.623047" xlink:href="#DejaVuSans-48"/>
      </g>
     </g>
    </g>
    <g id="ytick_3">
     <g id="line2d_9">
      <g>
       <use style="stroke:#000000;stroke-width:0.8;" x="56.5325" xlink:href="#m9266244514" y="149.603452"/>
      </g>
     </g>
     <g id="text_9">
      <!-- 20 -->
      <g transform="translate(34.2625 154.162515)scale(0.12 -0.12)">
       <use xlink:href="#DejaVuSans-50"/>
       <use x="63.623047" xlink:href="#DejaVuSans-48"/>
      </g>
     </g>
    </g>
    <g id="ytick_4">
     <g id="line2d_10">
      <g>
       <use style="stroke:#000000;stroke-width:0.8;" x="56.5325" xlink:href="#m9266244514" y="122.695714"/>
      </g>
     </g>
     <g id="text_10">
      <!-- 30 -->
      <g transform="translate(34.2625 127.254776)scale(0.12 -0.12)">
       <defs>
        <path d="M 40.578125 39.3125 
Q 47.65625 37.796875 51.625 33 
Q 55.609375 28.21875 55.609375 21.1875 
Q 55.609375 10.40625 48.1875 4.484375 
Q 40.765625 -1.421875 27.09375 -1.421875 
Q 22.515625 -1.421875 17.65625 -0.515625 
Q 12.796875 0.390625 7.625 2.203125 
L 7.625 11.71875 
Q 11.71875 9.328125 16.59375 8.109375 
Q 21.484375 6.890625 26.8125 6.890625 
Q 36.078125 6.890625 40.9375 10.546875 
Q 45.796875 14.203125 45.796875 21.1875 
Q 45.796875 27.640625 41.28125 31.265625 
Q 36.765625 34.90625 28.71875 34.90625 
L 20.21875 34.90625 
L 20.21875 43.015625 
L 29.109375 43.015625 
Q 36.375 43.015625 40.234375 45.921875 
Q 44.09375 48.828125 44.09375 54.296875 
Q 44.09375 59.90625 40.109375 62.90625 
Q 36.140625 65.921875 28.71875 65.921875 
Q 24.65625 65.921875 20.015625 65.03125 
Q 15.375 64.15625 9.8125 62.3125 
L 9.8125 71.09375 
Q 15.4375 72.65625 20.34375 73.4375 
Q 25.25 74.21875 29.59375 74.21875 
Q 40.828125 74.21875 47.359375 69.109375 
Q 53.90625 64.015625 53.90625 55.328125 
Q 53.90625 49.265625 50.4375 45.09375 
Q 46.96875 40.921875 40.578125 39.3125 
z
" id="DejaVuSans-51"/>
       </defs>
       <use xlink:href="#DejaVuSans-51"/>
       <use x="63.623047" xlink:href="#DejaVuSans-48"/>
      </g>
     </g>
    </g>
    <g id="ytick_5">
     <g id="line2d_11">
      <g>
       <use style="stroke:#000000;stroke-width:0.8;" x="56.5325" xlink:href="#m9266244514" y="95.787975"/>
      </g>
     </g>
     <g id="text_11">
      <!-- 40 -->
      <g transform="translate(34.2625 100.347038)scale(0.12 -0.12)">
       <use xlink:href="#DejaVuSans-52"/>
       <use x="63.623047" xlink:href="#DejaVuSans-48"/>
      </g>
     </g>
    </g>
    <g id="ytick_6">
     <g id="line2d_12">
      <g>
       <use style="stroke:#000000;stroke-width:0.8;" x="56.5325" xlink:href="#m9266244514" y="68.880236"/>
      </g>
     </g>
     <g id="text_12">
      <!-- 50 -->
      <g transform="translate(34.2625 73.439299)scale(0.12 -0.12)">
       <defs>
        <path d="M 10.796875 72.90625 
L 49.515625 72.90625 
L 49.515625 64.59375 
L 19.828125 64.59375 
L 19.828125 46.734375 
Q 21.96875 47.46875 24.109375 47.828125 
Q 26.265625 48.1875 28.421875 48.1875 
Q 40.625 48.1875 47.75 41.5 
Q 54.890625 34.8125 54.890625 23.390625 
Q 54.890625 11.625 47.5625 5.09375 
Q 40.234375 -1.421875 26.90625 -1.421875 
Q 22.3125 -1.421875 17.546875 -0.640625 
Q 12.796875 0.140625 7.71875 1.703125 
L 7.71875 11.625 
Q 12.109375 9.234375 16.796875 8.0625 
Q 21.484375 6.890625 26.703125 6.890625 
Q 35.15625 6.890625 40.078125 11.328125 
Q 45.015625 15.765625 45.015625 23.390625 
Q 45.015625 31 40.078125 35.4375 
Q 35.15625 39.890625 26.703125 39.890625 
Q 22.75 39.890625 18.8125 39.015625 
Q 14.890625 38.140625 10.796875 36.28125 
z
" id="DejaVuSans-53"/>
       </defs>
       <use xlink:href="#DejaVuSans-53"/>
       <use x="63.623047" xlink:href="#DejaVuSans-48"/>
      </g>
     </g>
    </g>
    <g id="ytick_7">
     <g id="line2d_13">
      <g>
       <use style="stroke:#000000;stroke-width:0.8;" x="56.5325" xlink:href="#m9266244514" y="41.972498"/>
      </g>
     </g>
     <g id="text_13">
      <!-- 60 -->
      <g transform="translate(34.2625 46.53156)scale(0.12 -0.12)">
       <use xlink:href="#DejaVuSans-54"/>
       <use x="63.623047" xlink:href="#DejaVuSans-48"/>
      </g>
     </g>
    </g>
    <g id="ytick_8">
     <g id="line2d_14">
      <g>
       <use style="stroke:#000000;stroke-width:0.8;" x="56.5325" xlink:href="#m9266244514" y="15.064759"/>
      </g>
     </g>
     <g id="text_14">
      <!-- 70 -->
      <g transform="translate(34.2625 19.623821)scale(0.12 -0.12)">
       <defs>
        <path d="M 8.203125 72.90625 
L 55.078125 72.90625 
L 55.078125 68.703125 
L 28.609375 0 
L 18.3125 0 
L 43.21875 64.59375 
L 8.203125 64.59375 
z
" id="DejaVuSans-55"/>
       </defs>
       <use xlink:href="#DejaVuSans-55"/>
       <use x="63.623047" xlink:href="#DejaVuSans-48"/>
      </g>
     </g>
    </g>
    <g id="text_15">
     <!-- f(x) -->
     <g transform="translate(27.766875 116.381676)rotate(-90)scale(0.12 -0.12)">
      <defs>
       <path d="M 37.109375 75.984375 
L 37.109375 68.5 
L 28.515625 68.5 
Q 23.6875 68.5 21.796875 66.546875 
Q 19.921875 64.59375 19.921875 59.515625 
L 19.921875 54.6875 
L 34.71875 54.6875 
L 34.71875 47.703125 
L 19.921875 47.703125 
L 19.921875 0 
L 10.890625 0 
L 10.890625 47.703125 
L 2.296875 47.703125 
L 2.296875 54.6875 
L 10.890625 54.6875 
L 10.890625 58.5 
Q 10.890625 67.625 15.140625 71.796875 
Q 19.390625 75.984375 28.609375 75.984375 
z
" id="DejaVuSans-102"/>
       <path d="M 31 75.875 
Q 24.46875 64.65625 21.28125 53.65625 
Q 18.109375 42.671875 18.109375 31.390625 
Q 18.109375 20.125 21.3125 9.0625 
Q 24.515625 -2 31 -13.1875 
L 23.1875 -13.1875 
Q 15.875 -1.703125 12.234375 9.375 
Q 8.59375 20.453125 8.59375 31.390625 
Q 8.59375 42.28125 12.203125 53.3125 
Q 15.828125 64.359375 23.1875 75.875 
z
" id="DejaVuSans-40"/>
       <path d="M 54.890625 54.6875 
L 35.109375 28.078125 
L 55.90625 0 
L 45.3125 0 
L 29.390625 21.484375 
L 13.484375 0 
L 2.875 0 
L 24.125 28.609375 
L 4.6875 54.6875 
L 15.28125 54.6875 
L 29.78125 35.203125 
L 44.28125 54.6875 
z
" id="DejaVuSans-120"/>
       <path d="M 8.015625 75.875 
L 15.828125 75.875 
Q 23.140625 64.359375 26.78125 53.3125 
Q 30.421875 42.28125 30.421875 31.390625 
Q 30.421875 20.453125 26.78125 9.375 
Q 23.140625 -1.703125 15.828125 -13.1875 
L 8.015625 -13.1875 
Q 14.5 -2 17.703125 9.0625 
Q 20.90625 20.125 20.90625 31.390625 
Q 20.90625 42.671875 17.703125 53.65625 
Q 14.5 64.65625 8.015625 75.875 
z
" id="DejaVuSans-41"/>
      </defs>
      <use xlink:href="#DejaVuSans-102"/>
      <use x="35.205078" xlink:href="#DejaVuSans-40"/>
      <use x="74.21875" xlink:href="#DejaVuSans-120"/>
      <use x="133.398438" xlink:href="#DejaVuSans-41"/>
     </g>
    </g>
   </g>
   <g id="line2d_15">
    <path clip-path="url(#p0636e3b543)" d="M 76.823409 122.695714 
L 80.479429 122.586667 
L 84.135448 122.261295 
L 87.791468 121.724883 
L 91.853712 120.892094 
L 95.915956 119.826448 
L 100.384425 118.411276 
L 105.259118 116.617535 
L 110.946259 114.265546 
L 118.664523 110.796457 
L 131.25748 105.122465 
L 136.538397 102.996301 
L 141.006865 101.418559 
L 145.069109 100.20954 
L 148.725129 99.338315 
L 152.381149 98.700073 
L 155.630944 98.347979 
L 158.880739 98.214455 
L 162.130534 98.313006 
L 165.38033 98.655168 
L 168.630125 99.250356 
L 171.473696 99.984393 
L 174.317267 100.920979 
L 177.567062 102.241713 
L 180.816857 103.829811 
L 184.066652 105.683099 
L 187.316448 107.796785 
L 190.566243 110.163431 
L 194.222262 113.115643 
L 197.878282 116.356941 
L 201.940526 120.270157 
L 206.408995 124.911531 
L 211.283688 130.312921 
L 216.970829 136.951755 
L 226.313991 148.26502 
L 235.250928 158.967562 
L 240.531845 164.953286 
L 245.000313 169.688448 
L 249.062557 173.653498 
L 252.718577 176.891437 
L 255.968372 179.469492 
L 258.811943 181.469273 
L 261.655514 183.210429 
L 264.499085 184.675339 
L 266.936431 185.698664 
L 269.373778 186.497478 
L 271.811124 187.063078 
L 274.248471 187.387608 
L 276.685817 187.464118 
L 279.123163 187.286603 
L 281.56051 186.850049 
L 283.997856 186.150469 
L 286.435203 185.18494 
L 288.872549 183.951632 
L 291.309896 182.449831 
L 293.747242 180.679968 
L 296.184588 178.643625 
L 298.621935 176.343556 
L 301.465506 173.332123 
L 304.309077 169.97538 
L 307.152647 166.283755 
L 310.402443 161.670924 
L 313.652238 156.65934 
L 317.308258 150.576753 
L 320.964277 144.063708 
L 325.026521 136.37921 
L 329.49499 127.464416 
L 335.182131 115.579281 
L 343.30662 97.993926 
L 353.868454 75.187185 
L 359.149371 64.296384 
L 363.61784 55.566454 
L 367.680084 48.132298 
L 371.336104 41.931283 
L 374.585899 36.864328 
L 377.42947 32.810721 
L 380.273041 29.141242 
L 382.710387 26.321832 
L 385.147733 23.819772 
L 387.58508 21.649673 
L 389.616202 20.104614 
L 391.647324 18.806673 
L 393.678446 17.762447 
L 395.709568 16.977915 
L 397.74069 16.458413 
L 399.771812 16.208612 
L 401.802934 16.232499 
L 403.834056 16.533358 
L 405.865178 17.113754 
L 407.8963 17.975516 
L 409.927422 19.119729 
L 411.958544 20.546716 
L 413.989666 22.256036 
L 416.020788 24.246475 
L 418.05191 26.516038 
L 420.489257 29.603998 
L 422.926603 33.083585 
L 425.36395 36.946908 
L 428.20752 41.926363 
L 431.051091 47.397341 
L 433.894662 53.339167 
L 437.144457 60.676122 
L 440.394253 68.557902 
L 444.050272 78.021403 
L 448.112516 89.196119 
L 452.580985 102.170595 
L 457.861902 118.226234 
L 465.173941 141.272239 
L 478.173122 182.374946 
L 482.641591 195.887603 
L 482.641591 195.887603 
" style="fill:none;stroke:#000000;stroke-linecap:square;stroke-width:1.5;"/>
   </g>
   <g id="line2d_16">
    <path clip-path="url(#p0636e3b543)" d="M 76.823409 137.572089 
L 157.255842 137.572089 
L 157.662066 142.907092 
L 175.942164 142.907092 
L 176.348389 150.650337 
L 246.625211 150.650337 
L 247.031435 162.529667 
L 482.641591 162.529667 
L 482.641591 162.529667 
" style="fill:none;stroke:#1f77b4;stroke-linecap:square;stroke-width:1.5;"/>
   </g>
   <g id="patch_3">
    <path d="M 56.5325 204.872727 
L 56.5325 7.2 
" style="fill:none;stroke:#000000;stroke-linecap:square;stroke-linejoin:miter;stroke-width:0.8;"/>
   </g>
   <g id="patch_4">
    <path d="M 502.9325 204.872727 
L 502.9325 7.2 
" style="fill:none;stroke:#000000;stroke-linecap:square;stroke-linejoin:miter;stroke-width:0.8;"/>
   </g>
   <g id="patch_5">
    <path d="M 56.5325 204.872727 
L 502.9325 204.872727 
" style="fill:none;stroke:#000000;stroke-linecap:square;stroke-linejoin:miter;stroke-width:0.8;"/>
   </g>
   <g id="patch_6">
    <path d="M 56.5325 7.2 
L 502.9325 7.2 
" style="fill:none;stroke:#000000;stroke-linecap:square;stroke-linejoin:miter;stroke-width:0.8;"/>
   </g>
   <g id="legend_1">
    <g id="patch_7">
     <path d="M 64.9325 198.872727 
L 142.6475 198.872727 
Q 145.0475 198.872727 145.0475 196.472727 
L 145.0475 144.831477 
Q 145.0475 142.431477 142.6475 142.431477 
L 64.9325 142.431477 
Q 62.5325 142.431477 62.5325 144.831477 
L 62.5325 196.472727 
Q 62.5325 198.872727 64.9325 198.872727 
z
" style="fill:#ffffff;opacity:0.8;stroke:#cccccc;stroke-linejoin:miter;"/>
    </g>
    <g id="line2d_17">
     <path d="M 67.3325 152.149602 
L 91.3325 152.149602 
" style="fill:none;stroke:#1f77b4;stroke-linecap:square;stroke-width:1.5;"/>
    </g>
    <g id="line2d_18"/>
    <g id="text_16">
     <!-- GP -->
     <g transform="translate(100.9325 156.349602)scale(0.12 -0.12)">
      <defs>
       <path d="M 59.515625 10.40625 
L 59.515625 29.984375 
L 43.40625 29.984375 
L 43.40625 38.09375 
L 69.28125 38.09375 
L 69.28125 6.78125 
Q 63.578125 2.734375 56.6875 0.65625 
Q 49.8125 -1.421875 42 -1.421875 
Q 24.90625 -1.421875 15.25 8.5625 
Q 5.609375 18.5625 5.609375 36.375 
Q 5.609375 54.25 15.25 64.234375 
Q 24.90625 74.21875 42 74.21875 
Q 49.125 74.21875 55.546875 72.453125 
Q 61.96875 70.703125 67.390625 67.28125 
L 67.390625 56.78125 
Q 61.921875 61.421875 55.765625 63.765625 
Q 49.609375 66.109375 42.828125 66.109375 
Q 29.4375 66.109375 22.71875 58.640625 
Q 16.015625 51.171875 16.015625 36.375 
Q 16.015625 21.625 22.71875 14.15625 
Q 29.4375 6.6875 42.828125 6.6875 
Q 48.046875 6.6875 52.140625 7.59375 
Q 56.25 8.5 59.515625 10.40625 
z
" id="DejaVuSans-71"/>
       <path d="M 19.671875 64.796875 
L 19.671875 37.40625 
L 32.078125 37.40625 
Q 38.96875 37.40625 42.71875 40.96875 
Q 46.484375 44.53125 46.484375 51.125 
Q 46.484375 57.671875 42.71875 61.234375 
Q 38.96875 64.796875 32.078125 64.796875 
z
M 9.8125 72.90625 
L 32.078125 72.90625 
Q 44.34375 72.90625 50.609375 67.359375 
Q 56.890625 61.8125 56.890625 51.125 
Q 56.890625 40.328125 50.609375 34.8125 
Q 44.34375 29.296875 32.078125 29.296875 
L 19.671875 29.296875 
L 19.671875 0 
L 9.8125 0 
z
" id="DejaVuSans-80"/>
      </defs>
      <use xlink:href="#DejaVuSans-71"/>
      <use x="77.490234" xlink:href="#DejaVuSans-80"/>
     </g>
    </g>
    <g id="PathCollection_3">
     <g>
      <use style="stroke:#000000;" x="79.3325" xlink:href="#m6eb1dd0d6c" y="170.813352"/>
     </g>
    </g>
    <g id="text_17">
     <!-- known -->
     <g transform="translate(100.9325 173.963352)scale(0.12 -0.12)">
      <defs>
       <path d="M 9.078125 75.984375 
L 18.109375 75.984375 
L 18.109375 31.109375 
L 44.921875 54.6875 
L 56.390625 54.6875 
L 27.390625 29.109375 
L 57.625 0 
L 45.90625 0 
L 18.109375 26.703125 
L 18.109375 0 
L 9.078125 0 
z
" id="DejaVuSans-107"/>
       <path d="M 54.890625 33.015625 
L 54.890625 0 
L 45.90625 0 
L 45.90625 32.71875 
Q 45.90625 40.484375 42.875 44.328125 
Q 39.84375 48.1875 33.796875 48.1875 
Q 26.515625 48.1875 22.3125 43.546875 
Q 18.109375 38.921875 18.109375 30.90625 
L 18.109375 0 
L 9.078125 0 
L 9.078125 54.6875 
L 18.109375 54.6875 
L 18.109375 46.1875 
Q 21.34375 51.125 25.703125 53.5625 
Q 30.078125 56 35.796875 56 
Q 45.21875 56 50.046875 50.171875 
Q 54.890625 44.34375 54.890625 33.015625 
z
" id="DejaVuSans-110"/>
       <path d="M 30.609375 48.390625 
Q 23.390625 48.390625 19.1875 42.75 
Q 14.984375 37.109375 14.984375 27.296875 
Q 14.984375 17.484375 19.15625 11.84375 
Q 23.34375 6.203125 30.609375 6.203125 
Q 37.796875 6.203125 41.984375 11.859375 
Q 46.1875 17.53125 46.1875 27.296875 
Q 46.1875 37.015625 41.984375 42.703125 
Q 37.796875 48.390625 30.609375 48.390625 
z
M 30.609375 56 
Q 42.328125 56 49.015625 48.375 
Q 55.71875 40.765625 55.71875 27.296875 
Q 55.71875 13.875 49.015625 6.21875 
Q 42.328125 -1.421875 30.609375 -1.421875 
Q 18.84375 -1.421875 12.171875 6.21875 
Q 5.515625 13.875 5.515625 27.296875 
Q 5.515625 40.765625 12.171875 48.375 
Q 18.84375 56 30.609375 56 
z
" id="DejaVuSans-111"/>
       <path d="M 4.203125 54.6875 
L 13.1875 54.6875 
L 24.421875 12.015625 
L 35.59375 54.6875 
L 46.1875 54.6875 
L 57.421875 12.015625 
L 68.609375 54.6875 
L 77.59375 54.6875 
L 63.28125 0 
L 52.6875 0 
L 40.921875 44.828125 
L 29.109375 0 
L 18.5 0 
z
" id="DejaVuSans-119"/>
      </defs>
      <use xlink:href="#DejaVuSans-107"/>
      <use x="57.910156" xlink:href="#DejaVuSans-110"/>
      <use x="121.289062" xlink:href="#DejaVuSans-111"/>
      <use x="182.470703" xlink:href="#DejaVuSans-119"/>
      <use x="264.257812" xlink:href="#DejaVuSans-110"/>
     </g>
    </g>
    <g id="PathCollection_4">
     <g>
      <use style="fill:#ff0000;stroke:#ff0000;" x="79.3325" xlink:href="#m630a240261" y="188.427102"/>
     </g>
    </g>
    <g id="text_18">
     <!-- next -->
     <g transform="translate(100.9325 191.577102)scale(0.12 -0.12)">
      <defs>
       <path d="M 56.203125 29.59375 
L 56.203125 25.203125 
L 14.890625 25.203125 
Q 15.484375 15.921875 20.484375 11.0625 
Q 25.484375 6.203125 34.421875 6.203125 
Q 39.59375 6.203125 44.453125 7.46875 
Q 49.3125 8.734375 54.109375 11.28125 
L 54.109375 2.78125 
Q 49.265625 0.734375 44.1875 -0.34375 
Q 39.109375 -1.421875 33.890625 -1.421875 
Q 20.796875 -1.421875 13.15625 6.1875 
Q 5.515625 13.8125 5.515625 26.8125 
Q 5.515625 40.234375 12.765625 48.109375 
Q 20.015625 56 32.328125 56 
Q 43.359375 56 49.78125 48.890625 
Q 56.203125 41.796875 56.203125 29.59375 
z
M 47.21875 32.234375 
Q 47.125 39.59375 43.09375 43.984375 
Q 39.0625 48.390625 32.421875 48.390625 
Q 24.90625 48.390625 20.390625 44.140625 
Q 15.875 39.890625 15.1875 32.171875 
z
" id="DejaVuSans-101"/>
       <path d="M 18.3125 70.21875 
L 18.3125 54.6875 
L 36.8125 54.6875 
L 36.8125 47.703125 
L 18.3125 47.703125 
L 18.3125 18.015625 
Q 18.3125 11.328125 20.140625 9.421875 
Q 21.96875 7.515625 27.59375 7.515625 
L 36.8125 7.515625 
L 36.8125 0 
L 27.59375 0 
Q 17.1875 0 13.234375 3.875 
Q 9.28125 7.765625 9.28125 18.015625 
L 9.28125 47.703125 
L 2.6875 47.703125 
L 2.6875 54.6875 
L 9.28125 54.6875 
L 9.28125 70.21875 
z
" id="DejaVuSans-116"/>
      </defs>
      <use xlink:href="#DejaVuSans-110"/>
      <use x="63.378906" xlink:href="#DejaVuSans-101"/>
      <use x="123.152344" xlink:href="#DejaVuSans-120"/>
      <use x="182.332031" xlink:href="#DejaVuSans-116"/>
     </g>
    </g>
   </g>
  </g>
  <g id="axes_2">
   <g id="patch_8">
    <path d="M 56.5325 442.08 
L 502.9325 442.08 
L 502.9325 244.407273 
L 56.5325 244.407273 
z
" style="fill:#ffffff;"/>
   </g>
   <g id="matplotlib.axis_3">
    <g id="xtick_7">
     <g id="line2d_19">
      <g>
       <use style="stroke:#000000;stroke-width:0.8;" x="76.823409" xlink:href="#mbe7ec16dd0" y="442.08"/>
      </g>
     </g>
     <g id="text_19">
      <!-- 0.0 -->
      <g transform="translate(67.281534 458.198125)scale(0.12 -0.12)">
       <defs>
        <path d="M 10.6875 12.40625 
L 21 12.40625 
L 21 0 
L 10.6875 0 
z
" id="DejaVuSans-46"/>
       </defs>
       <use xlink:href="#DejaVuSans-48"/>
       <use x="63.623047" xlink:href="#DejaVuSans-46"/>
       <use x="95.410156" xlink:href="#DejaVuSans-48"/>
      </g>
     </g>
    </g>
    <g id="xtick_8">
     <g id="line2d_20">
      <g>
       <use style="stroke:#000000;stroke-width:0.8;" x="157.987045" xlink:href="#mbe7ec16dd0" y="442.08"/>
      </g>
     </g>
     <g id="text_20">
      <!-- 0.2 -->
      <g transform="translate(148.44517 458.198125)scale(0.12 -0.12)">
       <use xlink:href="#DejaVuSans-48"/>
       <use x="63.623047" xlink:href="#DejaVuSans-46"/>
       <use x="95.410156" xlink:href="#DejaVuSans-50"/>
      </g>
     </g>
    </g>
    <g id="xtick_9">
     <g id="line2d_21">
      <g>
       <use style="stroke:#000000;stroke-width:0.8;" x="239.150682" xlink:href="#mbe7ec16dd0" y="442.08"/>
      </g>
     </g>
     <g id="text_21">
      <!-- 0.4 -->
      <g transform="translate(229.608807 458.198125)scale(0.12 -0.12)">
       <use xlink:href="#DejaVuSans-48"/>
       <use x="63.623047" xlink:href="#DejaVuSans-46"/>
       <use x="95.410156" xlink:href="#DejaVuSans-52"/>
      </g>
     </g>
    </g>
    <g id="xtick_10">
     <g id="line2d_22">
      <g>
       <use style="stroke:#000000;stroke-width:0.8;" x="320.314318" xlink:href="#mbe7ec16dd0" y="442.08"/>
      </g>
     </g>
     <g id="text_22">
      <!-- 0.6 -->
      <g transform="translate(310.772443 458.198125)scale(0.12 -0.12)">
       <use xlink:href="#DejaVuSans-48"/>
       <use x="63.623047" xlink:href="#DejaVuSans-46"/>
       <use x="95.410156" xlink:href="#DejaVuSans-54"/>
      </g>
     </g>
    </g>
    <g id="xtick_11">
     <g id="line2d_23">
      <g>
       <use style="stroke:#000000;stroke-width:0.8;" x="401.477955" xlink:href="#mbe7ec16dd0" y="442.08"/>
      </g>
     </g>
     <g id="text_23">
      <!-- 0.8 -->
      <g transform="translate(391.93608 458.198125)scale(0.12 -0.12)">
       <use xlink:href="#DejaVuSans-48"/>
       <use x="63.623047" xlink:href="#DejaVuSans-46"/>
       <use x="95.410156" xlink:href="#DejaVuSans-56"/>
      </g>
     </g>
    </g>
    <g id="xtick_12">
     <g id="line2d_24">
      <g>
       <use style="stroke:#000000;stroke-width:0.8;" x="482.641591" xlink:href="#mbe7ec16dd0" y="442.08"/>
      </g>
     </g>
     <g id="text_24">
      <!-- 1.0 -->
      <g transform="translate(473.099716 458.198125)scale(0.12 -0.12)">
       <use xlink:href="#DejaVuSans-49"/>
       <use x="63.623047" xlink:href="#DejaVuSans-46"/>
       <use x="95.410156" xlink:href="#DejaVuSans-48"/>
      </g>
     </g>
    </g>
    <g id="text_25">
     <!-- x -->
     <g transform="translate(276.18125 473.811875)scale(0.12 -0.12)">
      <use xlink:href="#DejaVuSans-120"/>
     </g>
    </g>
   </g>
   <g id="matplotlib.axis_4">
    <g id="ytick_9">
     <g id="line2d_25">
      <g>
       <use style="stroke:#000000;stroke-width:0.8;" x="56.5325" xlink:href="#m9266244514" y="437.911145"/>
      </g>
     </g>
     <g id="text_26">
      <!-- 0.00 -->
      <g transform="translate(22.81375 442.470208)scale(0.12 -0.12)">
       <use xlink:href="#DejaVuSans-48"/>
       <use x="63.623047" xlink:href="#DejaVuSans-46"/>
       <use x="95.410156" xlink:href="#DejaVuSans-48"/>
       <use x="159.033203" xlink:href="#DejaVuSans-48"/>
      </g>
     </g>
    </g>
    <g id="ytick_10">
     <g id="line2d_26">
      <g>
       <use style="stroke:#000000;stroke-width:0.8;" x="56.5325" xlink:href="#m9266244514" y="390.402034"/>
      </g>
     </g>
     <g id="text_27">
      <!-- 0.02 -->
      <g transform="translate(22.81375 394.961097)scale(0.12 -0.12)">
       <use xlink:href="#DejaVuSans-48"/>
       <use x="63.623047" xlink:href="#DejaVuSans-46"/>
       <use x="95.410156" xlink:href="#DejaVuSans-48"/>
       <use x="159.033203" xlink:href="#DejaVuSans-50"/>
      </g>
     </g>
    </g>
    <g id="ytick_11">
     <g id="line2d_27">
      <g>
       <use style="stroke:#000000;stroke-width:0.8;" x="56.5325" xlink:href="#m9266244514" y="342.892923"/>
      </g>
     </g>
     <g id="text_28">
      <!-- 0.04 -->
      <g transform="translate(22.81375 347.451985)scale(0.12 -0.12)">
       <use xlink:href="#DejaVuSans-48"/>
       <use x="63.623047" xlink:href="#DejaVuSans-46"/>
       <use x="95.410156" xlink:href="#DejaVuSans-48"/>
       <use x="159.033203" xlink:href="#DejaVuSans-52"/>
      </g>
     </g>
    </g>
    <g id="ytick_12">
     <g id="line2d_28">
      <g>
       <use style="stroke:#000000;stroke-width:0.8;" x="56.5325" xlink:href="#m9266244514" y="295.383812"/>
      </g>
     </g>
     <g id="text_29">
      <!-- 0.06 -->
      <g transform="translate(22.81375 299.942874)scale(0.12 -0.12)">
       <use xlink:href="#DejaVuSans-48"/>
       <use x="63.623047" xlink:href="#DejaVuSans-46"/>
       <use x="95.410156" xlink:href="#DejaVuSans-48"/>
       <use x="159.033203" xlink:href="#DejaVuSans-54"/>
      </g>
     </g>
    </g>
    <g id="ytick_13">
     <g id="line2d_29">
      <g>
       <use style="stroke:#000000;stroke-width:0.8;" x="56.5325" xlink:href="#m9266244514" y="247.874701"/>
      </g>
     </g>
     <g id="text_30">
      <!-- 0.08 -->
      <g transform="translate(22.81375 252.433763)scale(0.12 -0.12)">
       <use xlink:href="#DejaVuSans-48"/>
       <use x="63.623047" xlink:href="#DejaVuSans-46"/>
       <use x="95.410156" xlink:href="#DejaVuSans-48"/>
       <use x="159.033203" xlink:href="#DejaVuSans-56"/>
      </g>
     </g>
    </g>
    <g id="text_31">
     <!-- Acquisition Function -->
     <g transform="translate(16.318125 403.530511)rotate(-90)scale(0.12 -0.12)">
      <defs>
       <path d="M 34.1875 63.1875 
L 20.796875 26.90625 
L 47.609375 26.90625 
z
M 28.609375 72.90625 
L 39.796875 72.90625 
L 67.578125 0 
L 57.328125 0 
L 50.6875 18.703125 
L 17.828125 18.703125 
L 11.1875 0 
L 0.78125 0 
z
" id="DejaVuSans-65"/>
       <path d="M 48.78125 52.59375 
L 48.78125 44.1875 
Q 44.96875 46.296875 41.140625 47.34375 
Q 37.3125 48.390625 33.40625 48.390625 
Q 24.65625 48.390625 19.8125 42.84375 
Q 14.984375 37.3125 14.984375 27.296875 
Q 14.984375 17.28125 19.8125 11.734375 
Q 24.65625 6.203125 33.40625 6.203125 
Q 37.3125 6.203125 41.140625 7.25 
Q 44.96875 8.296875 48.78125 10.40625 
L 48.78125 2.09375 
Q 45.015625 0.34375 40.984375 -0.53125 
Q 36.96875 -1.421875 32.421875 -1.421875 
Q 20.0625 -1.421875 12.78125 6.34375 
Q 5.515625 14.109375 5.515625 27.296875 
Q 5.515625 40.671875 12.859375 48.328125 
Q 20.21875 56 33.015625 56 
Q 37.15625 56 41.109375 55.140625 
Q 45.0625 54.296875 48.78125 52.59375 
z
" id="DejaVuSans-99"/>
       <path d="M 14.796875 27.296875 
Q 14.796875 17.390625 18.875 11.75 
Q 22.953125 6.109375 30.078125 6.109375 
Q 37.203125 6.109375 41.296875 11.75 
Q 45.40625 17.390625 45.40625 27.296875 
Q 45.40625 37.203125 41.296875 42.84375 
Q 37.203125 48.484375 30.078125 48.484375 
Q 22.953125 48.484375 18.875 42.84375 
Q 14.796875 37.203125 14.796875 27.296875 
z
M 45.40625 8.203125 
Q 42.578125 3.328125 38.25 0.953125 
Q 33.9375 -1.421875 27.875 -1.421875 
Q 17.96875 -1.421875 11.734375 6.484375 
Q 5.515625 14.40625 5.515625 27.296875 
Q 5.515625 40.1875 11.734375 48.09375 
Q 17.96875 56 27.875 56 
Q 33.9375 56 38.25 53.625 
Q 42.578125 51.265625 45.40625 46.390625 
L 45.40625 54.6875 
L 54.390625 54.6875 
L 54.390625 -20.796875 
L 45.40625 -20.796875 
z
" id="DejaVuSans-113"/>
       <path d="M 8.5 21.578125 
L 8.5 54.6875 
L 17.484375 54.6875 
L 17.484375 21.921875 
Q 17.484375 14.15625 20.5 10.265625 
Q 23.53125 6.390625 29.59375 6.390625 
Q 36.859375 6.390625 41.078125 11.03125 
Q 45.3125 15.671875 45.3125 23.6875 
L 45.3125 54.6875 
L 54.296875 54.6875 
L 54.296875 0 
L 45.3125 0 
L 45.3125 8.40625 
Q 42.046875 3.421875 37.71875 1 
Q 33.40625 -1.421875 27.6875 -1.421875 
Q 18.265625 -1.421875 13.375 4.4375 
Q 8.5 10.296875 8.5 21.578125 
z
M 31.109375 56 
z
" id="DejaVuSans-117"/>
       <path d="M 9.421875 54.6875 
L 18.40625 54.6875 
L 18.40625 0 
L 9.421875 0 
z
M 9.421875 75.984375 
L 18.40625 75.984375 
L 18.40625 64.59375 
L 9.421875 64.59375 
z
" id="DejaVuSans-105"/>
       <path d="M 44.28125 53.078125 
L 44.28125 44.578125 
Q 40.484375 46.53125 36.375 47.5 
Q 32.28125 48.484375 27.875 48.484375 
Q 21.1875 48.484375 17.84375 46.4375 
Q 14.5 44.390625 14.5 40.28125 
Q 14.5 37.15625 16.890625 35.375 
Q 19.28125 33.59375 26.515625 31.984375 
L 29.59375 31.296875 
Q 39.15625 29.25 43.1875 25.515625 
Q 47.21875 21.78125 47.21875 15.09375 
Q 47.21875 7.46875 41.1875 3.015625 
Q 35.15625 -1.421875 24.609375 -1.421875 
Q 20.21875 -1.421875 15.453125 -0.5625 
Q 10.6875 0.296875 5.421875 2 
L 5.421875 11.28125 
Q 10.40625 8.6875 15.234375 7.390625 
Q 20.0625 6.109375 24.8125 6.109375 
Q 31.15625 6.109375 34.5625 8.28125 
Q 37.984375 10.453125 37.984375 14.40625 
Q 37.984375 18.0625 35.515625 20.015625 
Q 33.0625 21.96875 24.703125 23.78125 
L 21.578125 24.515625 
Q 13.234375 26.265625 9.515625 29.90625 
Q 5.8125 33.546875 5.8125 39.890625 
Q 5.8125 47.609375 11.28125 51.796875 
Q 16.75 56 26.8125 56 
Q 31.78125 56 36.171875 55.265625 
Q 40.578125 54.546875 44.28125 53.078125 
z
" id="DejaVuSans-115"/>
       <path id="DejaVuSans-32"/>
       <path d="M 9.8125 72.90625 
L 51.703125 72.90625 
L 51.703125 64.59375 
L 19.671875 64.59375 
L 19.671875 43.109375 
L 48.578125 43.109375 
L 48.578125 34.8125 
L 19.671875 34.8125 
L 19.671875 0 
L 9.8125 0 
z
" id="DejaVuSans-70"/>
      </defs>
      <use xlink:href="#DejaVuSans-65"/>
      <use x="66.658203" xlink:href="#DejaVuSans-99"/>
      <use x="121.638672" xlink:href="#DejaVuSans-113"/>
      <use x="185.115234" xlink:href="#DejaVuSans-117"/>
      <use x="248.494141" xlink:href="#DejaVuSans-105"/>
      <use x="276.277344" xlink:href="#DejaVuSans-115"/>
      <use x="328.376953" xlink:href="#DejaVuSans-105"/>
      <use x="356.160156" xlink:href="#DejaVuSans-116"/>
      <use x="395.369141" xlink:href="#DejaVuSans-105"/>
      <use x="423.152344" xlink:href="#DejaVuSans-111"/>
      <use x="484.333984" xlink:href="#DejaVuSans-110"/>
      <use x="547.712891" xlink:href="#DejaVuSans-32"/>
      <use x="579.5" xlink:href="#DejaVuSans-70"/>
      <use x="631.519531" xlink:href="#DejaVuSans-117"/>
      <use x="694.898438" xlink:href="#DejaVuSans-110"/>
      <use x="758.277344" xlink:href="#DejaVuSans-99"/>
      <use x="813.257812" xlink:href="#DejaVuSans-116"/>
      <use x="852.466797" xlink:href="#DejaVuSans-105"/>
      <use x="880.25" xlink:href="#DejaVuSans-111"/>
      <use x="941.431641" xlink:href="#DejaVuSans-110"/>
     </g>
    </g>
   </g>
   <g id="line2d_30">
    <path clip-path="url(#p7502f58ce7)" d="M 76.823409 253.392397 
L 157.255842 253.392397 
L 157.662066 406.040239 
L 175.942164 406.040239 
L 176.348389 396.59719 
L 246.625211 396.59719 
L 247.031435 430.980666 
L 482.641591 430.980666 
L 482.641591 430.980666 
" style="fill:none;stroke:#1f77b4;stroke-linecap:square;stroke-width:1.5;"/>
   </g>
   <g id="line2d_31">
    <path clip-path="url(#p7502f58ce7)" d="M 76.823409 407.910612 
L 81.698102 407.910612 
L 82.104326 330.026353 
L 152.381149 330.026353 
L 152.787373 305.804679 
L 157.255842 305.804679 
L 157.662066 418.41879 
L 171.067471 418.41879 
L 171.473696 383.682489 
L 175.942164 383.682489 
L 176.348389 389.052255 
L 246.625211 389.052255 
L 247.031435 424.252537 
L 482.641591 424.252537 
L 482.641591 424.252537 
" style="fill:none;stroke:#ff7f0e;stroke-linecap:square;stroke-width:1.5;"/>
   </g>
   <g id="line2d_32">
    <path clip-path="url(#p7502f58ce7)" d="M 76.823409 433.094876 
L 81.698102 433.094876 
L 82.104326 389.354459 
L 114.602279 389.354459 
L 115.008503 391.91608 
L 119.883196 391.91608 
L 120.289421 431.264759 
L 152.381149 431.264759 
L 152.787373 416.935355 
L 157.255842 416.935355 
L 157.662066 420.431035 
L 171.067471 420.431035 
L 171.473696 406.805622 
L 175.942164 406.805622 
L 176.348389 320.040065 
L 190.160018 320.040065 
L 190.566243 405.772164 
L 208.846341 405.772164 
L 209.252566 395.821194 
L 246.625211 395.821194 
L 247.031435 429.609341 
L 482.641591 429.609341 
L 482.641591 429.609341 
" style="fill:none;stroke:#2ca02c;stroke-linecap:square;stroke-width:1.5;"/>
   </g>
   <g id="patch_9">
    <path d="M 56.5325 442.08 
L 56.5325 244.407273 
" style="fill:none;stroke:#000000;stroke-linecap:square;stroke-linejoin:miter;stroke-width:0.8;"/>
   </g>
   <g id="patch_10">
    <path d="M 502.9325 442.08 
L 502.9325 244.407273 
" style="fill:none;stroke:#000000;stroke-linecap:square;stroke-linejoin:miter;stroke-width:0.8;"/>
   </g>
   <g id="patch_11">
    <path d="M 56.5325 442.08 
L 502.9325 442.08 
" style="fill:none;stroke:#000000;stroke-linecap:square;stroke-linejoin:miter;stroke-width:0.8;"/>
   </g>
   <g id="patch_12">
    <path d="M 56.5325 244.407273 
L 502.9325 244.407273 
" style="fill:none;stroke:#000000;stroke-linecap:square;stroke-linejoin:miter;stroke-width:0.8;"/>
   </g>
  </g>
 </g>
 <defs>
  <clipPath id="p0636e3b543">
   <rect height="197.672727" width="446.4" x="56.5325" y="7.2"/>
  </clipPath>
  <clipPath id="p7502f58ce7">
   <rect height="197.672727" width="446.4" x="56.5325" y="244.407273"/>
  </clipPath>
 </defs>
</svg>
